<?xml version="1.0" encoding="utf-8"?>
<!-- Generator: Adobe Illustrator 16.0.0, SVG Export Plug-In . SVG Version: 6.00 Build 0)  -->
<!DOCTYPE svg PUBLIC "-//W3C//DTD SVG 1.1//EN" "http://www.w3.org/Graphics/SVG/1.1/DTD/svg11.dtd">
<svg version="1.1" id="Layer_1" xmlns="http://www.w3.org/2000/svg" xmlns:xlink="http://www.w3.org/1999/xlink" x="0px" y="0px"
	 width="95px" height="101px" viewBox="0 0 95 101" enable-background="new 0 0 95 101" xml:space="preserve">
<g>
	<g>
		<defs>
			<rect id="SVGID_1_" x="0.083" y="2.333" width="94.834" height="94.834"/>
		</defs>
		<clipPath id="SVGID_2_">
			<use xlink:href="#SVGID_1_"  overflow="visible"/>
		</clipPath>
		<g clip-path="url(#SVGID_2_)">
			<defs>
				<rect id="SVGID_3_" x="0.083" y="2.333" width="94.834" height="94.834"/>
			</defs>
			<clipPath id="SVGID_4_">
				<use xlink:href="#SVGID_3_"  overflow="visible"/>
			</clipPath>
			<path clip-path="url(#SVGID_4_)" fill-rule="evenodd" clip-rule="evenodd" fill="#FECB00" d="M44.999,95.148
				c-0.326-0.087-0.663-0.056-0.993-0.075c-3.365-0.201-6.671-0.757-9.921-1.642c-4.797-1.306-9.323-3.244-13.564-5.847
				c-0.162-0.099-0.184-0.161-0.08-0.326c0.736-1.159,1.462-2.324,2.184-3.492c0.093-0.151,0.158-0.173,0.315-0.076
				c4.681,2.87,9.713,4.854,15.086,5.979c2.083,0.437,4.186,0.712,6.311,0.84c2.361,0.142,4.716,0.086,7.066-0.178
				c4.722-0.531,9.256-1.749,13.573-3.743c4.006-1.85,7.62-4.281,10.798-7.352c4.486-4.333,7.71-9.465,9.716-15.366
				c0.874-2.571,1.483-5.204,1.849-7.894c0.244-1.79,0.378-3.587,0.407-5.393c0.113-6.768-1.289-13.205-4.196-19.315
				c-1.494-3.139-3.329-6.065-5.491-8.788c-0.121-0.153-0.172-0.149-0.289-0.001c-3.245,4.104-6.494,8.206-9.743,12.307
				c-3.321,4.193-6.644,8.385-9.966,12.578c-0.73,0.922-1.459,1.846-2.194,2.764c-0.083,0.104-0.074,0.158,0.013,0.253
				c2.338,2.555,4.672,5.112,7.007,7.67c0.325,0.356,0.645,0.718,0.979,1.065c0.13,0.135,0.103,0.187-0.047,0.27
				c-2.796,1.551-5.59,3.106-8.384,4.662c-9.459,5.266-18.919,10.532-28.378,15.799c-0.249,0.138-0.497,0.278-0.747,0.414
				c-0.054,0.029-0.103,0.089-0.177,0.057l0.004,0.004c0.345-0.508,0.747-0.971,1.126-1.451c3.887-4.911,7.776-9.82,11.666-14.729
				c3.54-4.468,7.08-8.935,10.62-13.402c0.217-0.272,0.215-0.271-0.025-0.534c-0.572-0.625-1.145-1.25-1.71-1.881
				c-0.11-0.123-0.165-0.134-0.275,0.003c-3.309,4.11-6.622,8.216-9.935,12.323c-2.904,3.601-5.811,7.2-8.715,10.8
				c-3.152,3.907-6.304,7.815-9.456,11.724c-0.519,0.643-1.041,1.282-1.554,1.929c-0.086,0.108-0.135,0.115-0.233,0.015
				c-2.555-2.602-4.938-5.343-6.942-8.401C7.392,71.661,5.054,66.2,3.802,60.282c-0.428-2.024-0.713-4.069-0.88-6.131
				c-0.053-0.655-0.101-1.311-0.125-1.968c-0.001-0.042,0.007-0.09-0.043-0.113v-3.861c0.095-0.264,0.061-0.543,0.076-0.814
				c0.099-1.737,0.296-3.462,0.595-5.175c0.771-4.416,2.169-8.622,4.251-12.596c2.437-4.652,5.632-8.709,9.586-12.165
				c3.345-2.923,7.061-5.272,11.093-7.126c3.373-1.551,6.869-2.739,10.501-3.506c2.068-0.437,4.171-0.62,6.279-0.741
				c0.305-0.018,0.617,0.014,0.917-0.078h3.071c2.271,0.051,4.535,0.209,6.788,0.517c4.031,0.551,7.947,1.537,11.733,3.033
				c2.408,0.951,4.719,2.099,6.933,3.444c0.145,0.088,0.162,0.148,0.071,0.293c-0.734,1.177-1.463,2.357-2.188,3.541
				c-0.081,0.133-0.136,0.163-0.283,0.073c-4.224-2.58-8.783-4.294-13.622-5.291c-2.091-0.431-4.2-0.722-6.329-0.883
				c-1.582-0.12-3.166-0.182-4.751-0.153c-2.463,0.044-4.919,0.206-7.345,0.657c-1.896,0.353-3.744,0.901-5.566,1.53
				c-3.865,1.333-7.504,3.121-10.859,5.466C16.858,23.022,12.07,29.366,9.378,37.28c-0.801,2.355-1.345,4.773-1.675,7.24
				c-0.208,1.558-0.325,3.122-0.364,4.693c-0.053,2.107,0.076,4.204,0.317,6.296c0.589,5.101,2.082,9.926,4.422,14.492
				c1.478,2.884,3.254,5.572,5.318,8.071c0.121,0.146,0.17,0.127,0.278-0.007c2.41-2.994,4.825-5.985,7.238-8.977
				c2.602-3.226,5.204-6.449,7.806-9.675c2.964-3.674,5.928-7.349,8.893-11.022c0.931-1.154,1.86-2.311,2.798-3.46
				c0.109-0.134,0.117-0.208-0.003-0.34c-1.95-2.127-3.895-4.26-5.84-6.391c-2.753-3.016-5.507-6.032-8.26-9.048
				c-0.803-0.879-1.607-1.757-2.409-2.638c-0.036-0.04-0.094-0.07-0.096-0.15c10.709,2.191,21.414,4.382,32.155,6.58
				c-0.409,0.508-0.793,0.985-1.178,1.461c-2.693,3.338-5.387,6.677-8.083,10.013c-0.094,0.116-0.093,0.184,0.008,0.292
				c0.61,0.66,1.217,1.323,1.816,1.992c0.106,0.119,0.153,0.098,0.241-0.014c1.558-1.973,3.119-3.943,4.681-5.913
				c2.501-3.156,5.002-6.311,7.502-9.467c2.414-3.047,4.828-6.095,7.242-9.142c1.801-2.274,3.602-4.549,5.402-6.823
				c0.071-0.089,0.114-0.174,0.242-0.035c1.478,1.619,2.977,3.218,4.312,4.961c4.062,5.307,6.994,11.169,8.685,17.641
				c0.565,2.165,0.966,4.36,1.209,6.584c0.25,2.277,0.35,4.56,0.279,6.848c-0.15,4.826-0.96,9.535-2.524,14.107
				c-1.634,4.777-4.011,9.149-7.181,13.085c-3.86,4.792-8.546,8.571-14.018,11.381c-3.833,1.969-7.87,3.355-12.088,4.229
				c-2.119,0.438-4.256,0.743-6.414,0.902c-0.335,0.024-0.671,0.036-1.006,0.058c-0.061,0.003-0.134-0.029-0.18,0.042H44.999z
				 M44,65.12c0.103,0.026,0.149-0.029,0.204-0.06c4.108-2.285,8.215-4.573,12.326-6.854c0.166-0.093,0.181-0.14,0.049-0.282
				c-1.183-1.284-2.361-2.571-3.532-3.867c-0.134-0.147-0.183-0.134-0.298,0.012c-2.705,3.422-5.416,6.84-8.125,10.259
				C44.417,64.587,44.213,64.849,44,65.12 M40.651,33.667c0.037,0.059,0.046,0.079,0.06,0.093c2.207,2.418,4.414,4.834,6.618,7.254
				c0.099,0.109,0.152,0.109,0.245-0.007c1.318-1.642,2.639-3.28,3.963-4.916c0.115-0.143,0.114-0.177-0.078-0.216
				c-2.903-0.589-5.805-1.187-8.707-1.782C42.066,33.952,41.38,33.814,40.651,33.667 M43.965,65.162l0.012,0.008l0.002-0.01
				L43.965,65.162z"/>
			<path clip-path="url(#SVGID_4_)" fill-rule="evenodd" clip-rule="evenodd" fill="#FECB00" d="M59.292,17.363
				c3.55,0.003,6.45,2.872,6.45,6.382c0.001,3.469-2.841,6.264-6.363,6.259c-3.578-0.004-6.451-2.887-6.414-6.495
				C52.999,20.056,55.851,17.356,59.292,17.363 M57.539,23.627c0.001,0.987,0.858,1.813,1.876,1.807
				c0.954-0.005,1.75-0.772,1.752-1.688c0.002-0.975-0.868-1.814-1.878-1.814C58.308,21.933,57.538,22.678,57.539,23.627"/>
			<path clip-path="url(#SVGID_4_)" fill-rule="evenodd" clip-rule="evenodd" fill="#FECB00" d="M26.133,80.318
				c0,0.01,0,0.02,0.001,0.029c-0.008-0.003-0.017-0.005-0.025-0.007c0.009-0.007,0.019-0.013,0.028-0.019L26.133,80.318z"/>
			<polygon clip-path="url(#SVGID_4_)" fill-rule="evenodd" clip-rule="evenodd" fill="#FEFEFE" points="43.965,65.162 
				43.979,65.16 43.977,65.17 			"/>
		</g>
	</g>
</g>
</svg>
