<?xml version="1.0" encoding="utf-8"?>
<!-- Generator: Adobe Illustrator 16.0.0, SVG Export Plug-In . SVG Version: 6.00 Build 0)  -->
<!DOCTYPE svg PUBLIC "-//W3C//DTD SVG 1.1//EN" "http://www.w3.org/Graphics/SVG/1.1/DTD/svg11.dtd" [
	<!ENTITY ns_flows "http://ns.adobe.com/Flows/1.0/">
	<!ENTITY ns_extend "http://ns.adobe.com/Extensibility/1.0/">
	<!ENTITY ns_ai "http://ns.adobe.com/AdobeIllustrator/10.0/">
	<!ENTITY ns_graphs "http://ns.adobe.com/Graphs/1.0/">
]>
<svg version="1.1" id="Layer_1" xmlns:x="&ns_extend;" xmlns:i="&ns_ai;" xmlns:graph="&ns_graphs;"
	 xmlns="http://www.w3.org/2000/svg" xmlns:xlink="http://www.w3.org/1999/xlink" xmlns:a="http://ns.adobe.com/AdobeSVGViewerExtensions/3.0/"
	 x="0px" y="0px" width="803.285px" height="799.334px" viewBox="0 0 803.285 799.334"
	 style="enable-background:new 0 0 803.285 799.334;" xml:space="preserve">
<style type="text/css">
<![CDATA[
	.st0{fill-rule:evenodd;clip-rule:evenodd;fill:#FECB00;}
	.st1{fill-rule:evenodd;clip-rule:evenodd;fill:#FEFEFE;}
]]>
</style>
<g>
	<path class="st0" d="M378.818,799.334c-2.925-0.78-5.943-0.499-8.91-0.677c-30.172-1.806-59.816-6.783-88.962-14.717
		c-43.021-11.709-83.605-29.098-121.628-52.428c-1.455-0.893-1.655-1.446-0.715-2.929c6.596-10.395,13.11-20.843,19.582-31.315
		c0.837-1.355,1.42-1.546,2.832-0.68c41.971,25.737,87.101,43.529,135.279,53.611c18.675,3.908,37.539,6.384,56.591,7.527
		c21.175,1.271,42.292,0.771,63.364-1.598c42.341-4.762,83.001-15.685,121.714-33.562c35.924-16.589,68.33-38.39,96.827-65.918
		c40.229-38.862,69.135-84.879,87.125-137.798c7.836-23.053,13.296-46.66,16.578-70.782c2.184-16.049,3.382-32.16,3.651-48.357
		c1.014-60.687-11.561-118.41-37.633-173.197c-13.394-28.146-29.85-54.386-49.236-78.797c-1.093-1.375-1.543-1.344-2.598-0.011
		c-29.097,36.804-58.229,73.582-87.361,110.358c-29.785,37.599-59.579,75.19-89.368,112.786
		c-6.553,8.269-13.087,16.552-19.679,24.789c-0.74,0.926-0.664,1.415,0.114,2.266c20.964,22.907,41.896,45.844,62.833,68.775
		c2.915,3.193,5.774,6.44,8.773,9.554c1.163,1.207,0.921,1.673-0.422,2.418c-25.072,13.91-50.125,27.855-75.178,41.802
		c-84.823,47.222-169.645,94.447-254.466,141.671c-2.23,1.241-4.452,2.501-6.696,3.718c-0.484,0.263-0.918,0.794-1.59,0.51
		l0.04,0.029c3.091-4.551,6.693-8.707,10.1-13.012c34.854-44.035,69.727-88.055,104.602-132.073
		c31.74-40.062,63.489-80.118,95.235-120.176c1.939-2.446,1.93-2.43-0.23-4.791c-5.127-5.609-10.266-11.207-15.334-16.869
		c-0.984-1.099-1.474-1.201-2.466,0.032c-29.671,36.853-59.376,73.678-89.084,110.501c-26.045,32.284-52.104,64.56-78.149,96.844
		c-28.268,35.038-56.528,70.083-84.792,105.124c-4.649,5.764-9.329,11.503-13.938,17.298c-0.771,0.97-1.206,1.029-2.088,0.131
		c-22.908-23.33-44.282-47.908-62.249-75.338C41.59,588.72,20.629,539.752,9.4,486.679c-3.84-18.152-6.391-36.483-7.894-54.972
		c-0.477-5.876-0.909-11.752-1.117-17.644c-0.014-0.381,0.061-0.804-0.39-1.022c0-11.538,0-23.078,0-34.616
		c0.852-2.371,0.542-4.869,0.68-7.296c0.882-15.575,2.659-31.046,5.338-46.404c6.908-39.599,19.446-77.317,38.115-112.951
		c21.856-41.716,50.507-78.095,85.966-109.085c29.993-26.212,63.311-47.275,99.467-63.906
		c30.242-13.909,61.591-24.559,94.164-31.436c18.546-3.916,37.4-5.562,56.306-6.645c2.74-0.157,5.535,0.124,8.223-0.702
		c9.179,0,18.358,0,27.537,0c20.374,0.454,40.668,1.874,60.873,4.633c36.145,4.936,71.263,13.782,105.21,27.191
		c21.598,8.532,42.317,18.824,62.165,30.883c1.3,0.79,1.457,1.325,0.646,2.625c-6.591,10.553-13.122,21.143-19.62,31.754
		c-0.729,1.189-1.216,1.463-2.54,0.654c-37.871-23.131-78.763-38.503-122.152-47.442c-18.748-3.862-37.662-6.475-56.751-7.919
		c-14.186-1.073-28.388-1.627-42.603-1.372c-22.086,0.397-44.111,1.841-65.859,5.889c-17.004,3.165-33.572,8.078-49.916,13.716
		c-34.661,11.957-67.293,27.984-97.371,49.016c-61.402,42.937-104.342,99.822-128.479,170.794
		c-7.183,21.122-12.064,42.803-15.018,64.921c-1.865,13.971-2.912,27.994-3.266,42.086c-0.475,18.897,0.681,37.696,2.848,56.456
		c5.284,45.742,18.667,89.01,39.647,129.954c13.252,25.862,29.181,49.969,47.688,72.378c1.085,1.313,1.527,1.134,2.491-0.063
		c21.614-26.851,43.265-53.671,64.909-80.496c23.331-28.917,46.664-57.832,69.994-86.75c26.58-32.946,53.158-65.894,79.736-98.84
		c8.353-10.353,16.682-20.725,25.09-31.032c0.979-1.2,1.054-1.867-0.027-3.046c-17.484-19.077-34.919-38.199-52.365-57.31
		c-24.689-27.046-49.378-54.093-74.069-81.137c-7.2-7.886-14.413-15.761-21.601-23.658c-0.324-0.356-0.839-0.628-0.86-1.343
		c96.029,19.651,192.017,39.295,288.333,59.004c-3.67,4.555-7.111,8.83-10.558,13.102c-24.152,29.938-48.302,59.879-72.485,89.792
		c-0.841,1.041-0.827,1.649,0.07,2.619c5.473,5.914,10.911,11.861,16.289,17.862c0.955,1.065,1.373,0.877,2.162-0.122
		c13.972-17.69,27.974-35.356,41.973-53.024c22.423-28.298,44.851-56.593,67.272-84.893c21.648-27.324,43.294-54.65,64.938-81.978
		c16.151-20.393,32.301-40.789,48.448-61.187c0.635-0.802,1.025-1.564,2.166-0.314c13.254,14.514,26.696,28.854,38.666,44.49
		c36.428,47.583,62.716,100.152,77.873,158.191c5.068,19.406,8.66,39.094,10.846,59.042c2.237,20.416,3.133,40.886,2.496,61.408
		c-1.341,43.27-8.606,85.5-22.632,126.502c-14.652,42.84-35.964,82.042-64.389,117.327
		c-34.622,42.978-76.638,76.863-125.697,102.057c-34.374,17.653-70.572,30.086-108.393,37.923
		c-19.004,3.938-38.163,6.672-57.513,8.097c-3.004,0.221-6.017,0.324-9.023,0.512c-0.546,0.034-1.199-0.261-1.609,0.383
		C402.158,799.334,390.488,799.334,378.818,799.334z M369.852,530.067c0.919,0.235,1.342-0.269,1.827-0.538
		c36.839-20.493,73.667-41.005,110.527-61.463c1.493-0.829,1.619-1.253,0.443-2.529c-10.609-11.514-21.181-23.062-31.679-34.678
		c-1.198-1.326-1.638-1.203-2.667,0.099c-24.261,30.686-48.564,61.337-72.857,91.997
		C373.598,525.287,371.767,527.632,369.852,530.067z M339.83,248.019c0.334,0.526,0.413,0.702,0.536,0.836
		c19.785,21.679,39.578,43.35,59.343,65.046c0.891,0.978,1.361,0.98,2.201-0.065c11.815-14.717,23.657-29.413,35.534-44.078
		c1.035-1.279,1.024-1.59-0.701-1.94c-26.034-5.285-52.053-10.644-78.077-15.978C352.52,250.58,346.369,249.345,339.83,248.019z
		 M369.544,530.443l0.107,0.071l0.02-0.095L369.544,530.443z"/>
	<path class="st0" d="M506.983,101.822c31.832,0.026,57.836,25.751,57.841,57.223c0.005,31.106-25.476,56.171-57.061,56.13
		c-32.086-0.042-57.85-25.886-57.521-58.241C450.556,125.972,476.124,101.763,506.983,101.822z M491.263,157.996
		c0.011,8.854,7.699,16.259,16.826,16.206c8.555-0.05,15.688-6.926,15.703-15.137c0.017-8.74-7.778-16.272-16.839-16.27
		C498.152,142.798,491.252,149.482,491.263,157.996z"/>
	<path class="st0" d="M209.639,666.353c0.004,0.085,0.008,0.171,0.013,0.256c-0.073-0.021-0.146-0.041-0.218-0.061
		c0.082-0.056,0.164-0.11,0.245-0.166L209.639,666.353z"/>
	<polygon class="st1" points="369.544,530.443 369.671,530.42 369.651,530.515 	"/>
</g>
</svg>
