<?xml version="1.0" encoding="utf-8"?>
<!-- Generator: Adobe Illustrator 16.0.0, SVG Export Plug-In . SVG Version: 6.00 Build 0)  -->
<!DOCTYPE svg PUBLIC "-//W3C//DTD SVG 1.1//EN" "http://www.w3.org/Graphics/SVG/1.1/DTD/svg11.dtd">
<svg version="1.1" id="Layer_1" xmlns="http://www.w3.org/2000/svg" xmlns:xlink="http://www.w3.org/1999/xlink" x="0px" y="0px"
	 width="1154px" height="1106.167px" viewBox="-201.857 42 1154 1106.167" enable-background="new -201.857 42 1154 1106.167"
	 xml:space="preserve">
<g>
	<path fill-rule="evenodd" clip-rule="evenodd" fill="#050505" d="M951.143,1104.167c0.335-2.245,0.964-4.489,0.964-6.734
		c0.045-214.458,0.042-428.917,0.042-643.376c0-109.646,0-219.291,0-328.937c0-2.13,0-4.26,0-6.953c-387.608,0-774.807,0-1162.006,0
		c0.167-0.333,0.316-0.943,0.502-0.955c1.328-0.084,2.663-0.045,3.996-0.045c386.078,0,772.155,0,1158.501,0
		c0,2.406,0,4.817,0,7.229c0,325.092,0.004,650.183-0.142,975.274C953.001,1100.958,955.47,1104.296,951.143,1104.167z"/>
	<path fill-rule="evenodd" clip-rule="evenodd" fill="#050505" d="M66.148,621.113c-2.266,2.892-3.796,6.222-6.393,7.851
		c-4.416,2.77-8.563-0.315-11.974-2.865c-3.632-2.715-3.096-6.99-2.109-10.955c0.725-2.914,1.628-5.784,1.976-8.93
		c-6.47,4.577-10.519,11.034-14.677,17.433c-5.526,8.505-7.635,18.068-10.135,27.762c-3.326,12.893-3.167,25.972-4.659,38.949
		c-0.504,4.386-8.017,11.236-13.403,11.772c-4.458,0.444-9.204-3.771-10.74-9.199c-3.454-12.2-1.377-24.523-1.761-37.802
		c-10.011,5.675-20.162,11.429-30.611,17.351c6.744,9.086,5.681,18.017,4.653,27.301c-1.41,12.744-4.835,24.809-11.379,35.626
		c-9.58,15.838-20.485,30.702-39.299,36.858c-8.5,2.782-17.187,2.329-25.891,1.205c-1.306-0.169-2.627-0.277-3.944-0.297
		c-6.853-0.105-8.167-1.877-8.731-8.929c-1.362-17.032,6.656-30.437,16.576-42.873c6.788-8.51,14.509-16.296,22.073-24.155
		c3.522-3.661,7.519-6.915,11.561-10.014c4.565-3.5,5.075-7.565,1.394-12.08c-5.215-6.393-12.391-8.031-20.027-9.007
		c-5.966-0.764-11.998-1.515-17.764-3.122c-2.941-0.82-5.361-3.512-8.195-5.482c-0.703,3.849-1.822,8.649-2.418,13.515
		c-1.196,9.773-2.96,19.588-2.885,29.374c0.07,9.068,1.808,18.207,3.62,27.152c1.22,6.021-2.257,9.085-5.933,11.98
		c-3.843,3.026-9.244,4.327-10.047,10.356c-0.031,0.237-2.463,0.681-3.302,0.2c-5.555-3.188-9.017-8.415-10.389-14.301
		c-2.289-9.819-4.126-19.833-5.01-29.865c-0.83-9.427-0.641-19.011-0.073-28.477c0.935-15.59,2.496-31.145,3.871-46.706
		c0.94-10.64,1.521-21.343,3.146-31.881c2.285-14.821,4.457-29.769,8.365-44.204c5.65-20.869,13.144-41.232,19.177-62.008
		c2.641-9.096,10.335-10.021,17.677-7.494c4.374,1.506,8.25,4.564,12.214,7.136c8.148,5.285,6.137,13.572,4.797,20.697
		c-1.606,8.546-5.099,16.736-7.77,25.083c-0.231,0.723-0.424,1.458-0.959,3.312c5.526-9.378,10.036-17.979,15.483-25.938
		c3.579-5.23,7.854-10.475,12.978-14.053c9.834-6.867,20.877-3.454,30.456,4.881c13.863,12.063,17.109,27.41,14.635,45.085
		c-3.367,24.055-15.483,43.832-29.631,62.508c-10.009,13.213-21.302,25.453-32.437,38.617c4.893,0.92,9.831,1.203,14.279,2.828
		c7.399,2.702,14.444,6.359,21.733,9.388c1.526,0.634,3.798,0.956,5.156,0.279c10.196-5.082,20.126-10.71,30.414-15.587
		c3.55-1.683,5.06-3.931,5.275-7.374c0.937-14.971,4.495-29.329,10.23-43.128c1.683-4.048,4.338-7.37,9.762-6.409
		c2.009,0.355,4.181-0.351,6.268-0.271c5.953,0.229,10.139,5.88,8.827,11.798c-0.555,2.504-1.197,4.989-2.025,8.416
		c9.912-13.15,18.193-27.501,37.974-26.067c0-1.316,0-3.229,0-5.142c0-62.997,0.076-125.994-0.134-188.991
		c-0.018-5.445,2.209-7.635,6.851-8.97c14.851-4.273,29.676-8.637,44.482-13.058c26.657-7.959,53.286-16.011,79.94-23.976
		c36.166-10.807,72.355-21.531,108.514-32.364c21.663-6.49,43.251-13.237,64.966-19.551c3.048-0.886,6.832-0.654,9.926,0.252
		c25.294,7.408,50.517,15.065,75.74,22.714c38.142,11.566,76.254,23.229,114.404,34.767c22.423,6.781,44.9,13.383,67.346,20.092
		c13.249,3.961,26.396,8.306,39.773,11.77c4.285,1.109,5.231,2.868,5.225,6.714c-0.074,37.831-0.045,75.663-0.045,113.495
		c0,2.278,0,4.557,0,6.871c10.64-2.492,20.691-5.194,30.889-7.13c8.829-1.676,17.803-2.685,26.752-3.606
		c6.565-0.676,13.26-1.456,19.78-0.878c7.573,0.671,15.07,2.57,22.493,4.376c2.31,0.562,4.27,2.557,6.44,3.928
		c-3.6,2.96-6.598,5.426-9.737,8.008c4.755,7.45,4.648,14.943,3.686,23.081c-0.942,7.956,0.553,16.173,0.55,24.275
		c-0.003,10.273-0.667,20.549-0.611,30.821c0.041,7.736,0.384,15.514,1.27,23.194c1.556,13.479,3.271,26.962,5.584,40.328
		c2.709,15.656,5.243,31.469,14.576,46.184c2.571-10.943,4.876-21.101,7.351-31.216c7.619-31.142,14.822-62.396,23.116-93.357
		c6.456-24.104,15.51-47.369,26.856-69.667c1.628-3.199,3.381-6.336,5.1-9.488c2.441-4.479,7.257-1.908,10.757-3.484
		c1.94-0.875,4.605-0.3,6.927-0.134c3.419,0.244,5.945,3.771,4.619,6.968c-2.375,5.727-5.215,11.261-7.828,16.89
		c-5.283,11.383-10.04,22.845-12.959,35.224c-2.323,9.851-7.041,19.166-10.983,28.599c-13.34,31.919-18.063,66.133-26.289,99.395
		c-2.187,8.84,0.069,18.749-1.912,27.679c-0.915,4.124,2.545,10.703-4.356,13.022c-1.974,8.079-9.178,10.711-15.398,13.679
		c-8.209,3.917-18.289,2.741-25.867-4.087c-12.396-11.169-17.91-26.024-22.608-41.235c-3.645-11.803-6.854-23.789-9.354-35.881
		c-2.248-10.865-3.576-21.952-4.753-33.001c-1.619-15.206-2.761-30.464-4.019-45.706c-1.083-13.125-1.882-26.274-3.128-39.383
		c-0.577-6.069-1.92-12.065-3.156-19.551c-10.517,2.423-19.612,4.519-29.962,6.904c6.977,5.771,6.746,11.635,4.92,18.119
		c-6.878,24.426-13.701,48.87-20.24,73.389c-5.688,21.324-9.177,42.835-8.729,65.174c0.803,39.982,0.17,79.992,0.312,119.99
		c0.015,4.162-1.377,6.037-5.282,7.507c-27.573,10.374-55.04,21.03-82.547,31.582c-24.007,9.209-48.021,18.4-72.032,27.598
		c-22.646,8.674-45.293,17.342-67.938,26.019c-21.736,8.328-43.47,16.663-65.202,25.001c-1.673,0.642-3.473,1.098-4.968,2.033
		c-10.046,6.284-18.782,0.527-27.756-2.913c-23.407-8.974-46.793-18.005-70.196-26.989c-22.64-8.691-45.291-17.351-67.937-26.027
		c-21.735-8.328-43.468-16.664-65.203-24.991c-25.229-9.665-50.461-19.324-75.692-28.984c-0.306-0.117-0.617-0.248-0.937-0.296
		c-10.123-1.521-11.69-7.776-11.613-17.155c0.463-55.994,0.229-111.993,0.229-167.991C66.148,624.96,66.148,623.13,66.148,621.113z
		 M665.186,390.119c-2.63-0.92-4.106-1.504-5.623-1.956c-31.651-9.425-63.315-18.812-94.962-28.255
		c-26.658-7.955-53.309-15.939-79.944-23.973c-33.024-9.961-66.02-20.017-99.053-29.949c-5.059-1.521-9.886-3.954-15.652-1.925
		c-8.741,3.075-17.725,5.462-26.609,8.13c-36.616,10.997-73.23,22.002-109.853,32.98c-26.806,8.036-53.617,16.053-80.436,24.048
		c-18.083,5.391-36.192,10.696-54.268,16.114c-4.267,1.279-8.444,2.857-13.419,4.557c1.413,0.904,1.999,1.432,2.685,1.695
		c11.853,4.547,23.717,9.064,35.58,13.584c25.858,9.849,51.741,19.632,77.568,29.56c27.047,10.396,54.024,20.973,81.062,31.391
		c28.249,10.885,56.526,21.693,84.81,32.488c4.035,1.54,7.774,2.945,12.541,0.975c14.133-5.841,28.566-10.949,42.862-16.399
		c24.941-9.509,49.876-19.041,74.8-28.599c28.116-10.782,56.214-21.611,84.325-32.405
		C609.07,411.633,636.547,401.103,665.186,390.119z M594.812,721.53c2.896-3.59,5.516-5.955,7.046-8.89
		c6.117-11.731,11.937-23.618,17.788-35.486c7.077-14.354,13.992-28.787,21.172-43.089c1.568-3.126,3.465-6.659,8.593-5.556
		c-2.595,6.255-4.949,11.88-7.264,17.52c-4.695,11.438-9.221,22.949-14.099,34.308c-4.094,9.534-9.028,18.725-12.797,28.377
		c-4.586,11.749-9.44,22.914-20.441,30.452c-7.393,5.065-12.159,5.593-18.045-0.752c-9.968-10.745-13.57-23.99-15.521-37.839
		c-1.247-8.849-1.563-17.828-2.297-26.749c-3.154,4.543-5.23,9.384-7.244,14.249c-4.25,10.273-10.671,18.51-20.767,23.813
		c-9.595,5.041-16.853,0.562-20.646-5.836c-3.213-5.416-5.152-11.587-7.706-17.543c-0.478,0.447-1.427,1.304-2.34,2.197
		c-3.383,3.313-6.302,7.368-10.227,9.802c-7.518,4.659-16.482,4.401-21.791-5.182c-4.576-8.262-4.965-17.213-3.485-26.334
		c0.804-4.959,1.699-9.902,2.554-14.854c-4.066,6.739-7.559,13.507-10.864,20.364c-4.484,9.304-10.695,15.829-21.708,17.592
		c-10.6,1.696-15.542,1.355-19.157-5.383c-2.229-4.154-2.962-9.111-4.416-13.869c-0.476,0.509-1.481,1.18-1.922,2.116
		c-5.741,12.209-11.374,24.469-17.098,36.687c-3.026,6.461-5.671,13.188-9.478,19.163c-2.046,3.212-3.579,5.938-3.572,9.821
		c0.088,54.998,0.06,109.996,0.06,164.994c0,2.638,0,5.275,0,8.565c14.297-5.455,28.129-10.732,41.961-16.011
		c25.396-9.692,50.798-19.371,76.187-29.081c21.743-8.315,43.471-16.672,65.209-25c22.646-8.677,45.297-17.34,67.944-26.014
		c12.616-4.832,25.215-9.715,37.854-14.489c4.154-1.569,6.153-3.888,5.99-8.813c-0.412-12.486-0.137-24.995-0.137-37.494
		c0-6.625,0-13.25,0-19.82c-6.058-0.541-8.442,2.867-9.479,8.369c-3.454-2.196-6.552-3.743-9.145-5.897
		c-6.989-5.807-7.947-14.376-8.158-22.389c-0.405-15.415-0.314-30.927,0.968-46.281c1.469-17.592,3.904-35.151,6.918-52.553
		c4.061-23.444,9.092-46.72,13.663-70.077c0.858-4.386,1.508-8.812,2.404-14.105c-3.144,0.966-5.342,1.5-7.434,2.31
		c-9.64,3.728-19.407,5.864-29.78,3.382c-3.156-0.756-5.47,0.283-7.011,3.698c-4.437,9.835-8.857,19.72-14.079,29.146
		c-4.33,7.816-9.966,14.899-14.665,22.527c-2.173,3.527-4.4,7.435-5.038,11.42c-2.402,15.026-5.207,30.109-5.884,45.259
		c-0.766,17.148-1.825,34.514,1.837,51.548C590.463,709.401,592.658,714.767,594.812,721.53z M345.9,636.146
		c-1.046,0.127-1.773,0.036-2.319,0.309c-9.059,4.521-18.189,8.911-27.105,13.7c-6.877,3.695-6.59,3.875-4.398,11.312
		c3.403,11.544,7.405,22.982,5.117,35.433c-1.763,9.59-10.806,21.247-19.252,22.043c-12.481,1.176-25.088,2.43-36.847-4.641
		c-6.971-4.19-7.332-6.062-5.499-12.446c4.217-14.693,12.675-27.059,24.356-37.131c2.631-2.269,7.043-5.344,6.771-7.577
		c-0.856-7.03-3.551-13.838-5.943-22.154c-10.688,18.854-20.416,36.56-30.71,53.931c-4.642,7.834-10.013,15.326-15.797,22.361
		c-4.173,5.075-9.378,4.857-15.014,1.624c-5.785-3.319-8.46-8.763-10-14.589c-4.397-16.637-2.81-33.609,0.266-50.053
		c3.126-16.713,8.833-32.938,13.26-49.417c1.252-4.659,1.979-9.458,2.946-14.193c-0.646-0.422-1.291-0.843-1.938-1.265
		c-2.538,2.528-5.897,4.634-7.462,7.665c-4.755,9.207-10.019,18.427-12.854,28.283c-3.859,13.413-5.488,27.455-8.409,41.157
		c-1.615,7.583-3.35,15.235-6.095,22.452c-1.96,5.151-7.65,6.805-12.641,6.927c-4.245,0.104-7.451-3.252-9.001-7.349
		c-1.516-4.004-2.624-8.161-4.162-13.053c-2.843,5.147-5.806,9.464-7.712,14.206c-3.121,7.759-8.658,12.918-15.812,16.612
		c-4.801,2.479-12.352,1.178-14.746-3.079c-3.022-5.371-6.003-11.006-7.559-16.906c-2.282-8.658-3.286-17.653-4.835-26.505
		c-2.463,5.503-4.484,11.161-5.245,16.984c-1.507,11.537-16.863,19.977-26.965,14.403c-1.206-0.665-2.419-1.316-3.806-2.07
		c-0.163,0.915-0.321,1.388-0.321,1.859c-0.018,37.658-0.07,75.317,0.124,112.975c0.009,1.696,1.89,4.304,3.506,4.936
		c26.979,10.548,54.041,20.89,81.116,31.19c21.748,8.274,43.57,16.356,65.306,24.665c22.805,8.717,45.532,17.633,68.315,26.403
		c23.39,9.003,46.819,17.901,70.201,26.927c5.216,2.013,6.4,1.353,6.404-4.321c0.015-19.662,0.006-39.325,0.006-58.987
		c0-34.492-0.012-68.984,0.021-103.477c0.003-2.88,0.064-5.519-4.021-5.136c-6.436,0.604-10.673-3.101-13.907-7.866
		c-7.1-10.462-10.06-22.4-9.962-34.81c0.134-16.869,1.178-33.73,1.876-50.594C345.299,643.37,345.637,639.861,345.9,636.146z
		 M94.506,665.942c0.535,0.157,1.07,0.314,1.604,0.471c3.013-7.751,6.309-15.406,8.969-23.276
		c3.854-11.395,7.327-22.92,10.807-34.437c2.249-7.441,4.226-14.965,6.314-22.455c0.928-3.328,2.284-6.395,6.437-5.999
		c2.713,0.258,5.481,0.877,8.016,1.867c5.424,2.12,9.457,14.268,8.227,21.803c-1.608,9.85-2.582,19.806-3.721,29.729
		c-0.748,6.525-1.724,13.065-1.843,19.611c-0.144,7.911,0.274,15.857,0.994,23.738c0.166,1.809,2.269,4.121,4.032,4.835
		c0.975,0.395,3.695-1.704,4.595-3.271c3.331-5.805,6.588-11.705,9.201-17.854c3.036-7.147,6.824-14.425,7.705-21.948
		c1.944-16.604,6.66-32.21,13.302-47.362c2.1-4.789,5.533-5.562,12.008-3.277c4.551,1.605,6.462,5.327,5.577,9.959
		c-1.144,5.982-1.968,12.024-2.929,18.042c1.805-1.124,2.618-2.482,3.324-3.894c4.364-8.726,8.116-17.823,13.198-26.107
		c6.587-10.738,14.823-13.062,26.613-9.033c5.272,1.801,10.903,9.894,10.127,15.251c-1.052,7.251-2.557,14.436-3.834,21.655
		c-2.046,11.567-4.177,23.12-6.059,34.715c-1.492,9.198-2.726,18.439-3.959,27.678c-0.993,7.438-1.814,14.898-2.713,22.349
		c0.53,0.263,1.06,0.525,1.589,0.787c1.064-0.904,2.39-1.629,3.152-2.74c6.559-9.552,13.221-19.042,19.45-28.807
		c7.542-11.822,14.825-23.816,21.894-35.927c1.295-2.219,2.036-5.673,1.293-8.003c-2.563-8.047-1.856-15.818,0.311-23.691
		c3.989-14.496,17.547-26.556,30.613-25.273c9.646,0.946,16.819,11.761,14.914,19.226c-1.514,5.932-4.982,11.923-9.14,16.463
		c-4.014,4.384-10.02,6.944-16.351,11.092c1.995,6.039,4.445,12.548,6.248,19.232c1.194,4.427,3,4.641,6.655,2.678
		c10.506-5.641,21.14-11.042,33.076-13.124c2.489-0.435,3.533-1.575,4.11-4.477c3.022-15.164,6.351-30.278,10.02-45.3
		c1.909-7.819,4.74-15.412,7.155-23.107c-0.321-0.529-0.642-1.06-0.963-1.589c-7.655,1.416-15.396,2.488-22.944,4.341
		c-8.354,2.051-16.46,5.685-26.611,1.405c2.731-2.365,4.755-5.036,7.438-6.243c5.019-2.259,10.304-4.306,15.688-5.282
		c8.161-1.479,16.498-2.604,24.768-2.644c5.104-0.025,8.128-0.93,8.226-6.03c0.185-9.663,0.224-19.337-0.094-28.993
		c-0.062-1.874-1.601-4.721-3.176-5.364c-12.953-5.298-26.066-10.208-39.151-15.185c-24.188-9.201-48.42-18.292-72.58-27.568
		c-27.051-10.386-54.023-20.978-81.065-31.388c-26.582-10.232-53.202-20.364-79.818-30.507c-6.14-2.34-12.332-4.544-18.795-6.919
		c0,66.974,0,133.126,0,199.278c0.955-1.431,1.028-3.165,1.835-4.432c1.336-2.095,2.807-4.991,4.818-5.611
		c7.217-2.226,15.985,4.676,16.01,12.327c0.016,4.766-0.432,9.552-0.971,14.295c-1.091,9.601-2.798,19.148-3.472,28.771
		C94.038,648.89,94.506,657.433,94.506,665.942z M487.308,687.764c0.78,0.246,1.56,0.491,2.34,0.736
		c1.505-2.278,3.149-4.479,4.489-6.851c5.09-9.013,12.302-16.701,15.059-27.193c4.554-17.337,13.691-32.567,25.474-45.793
		c6.466-7.258,15.409-11.515,26.069-8.674c3.238,0.862,5.93-0.044,6.519-4.053c0.662-4.509,0.837-9.219,2.322-13.456
		c9.212-26.283,17.19-53.108,35.421-75.262c7.145-8.683,10.614-10.53,21.324-6.976c4.448,1.477,7.032,5.396,7.165,10.12
		c0.127,4.532,0.655,9.053,1.045,14.062c2.171-0.356,4.123-0.513,5.985-1.009c9.589-2.553,19.097-5.44,28.757-7.68
		c3.797-0.881,4.976-2.291,4.959-6.181c-0.15-36.327-0.086-72.656-0.102-108.984c-0.001-1.413-0.188-2.826-0.34-4.992
		c-8.729,3.332-16.905,6.461-25.087,9.574c-25.859,9.841-51.754,19.591-77.574,29.533c-31.292,12.05-62.482,24.363-93.791,36.372
		c-31.756,12.183-63.609,24.11-95.374,36.271c-1.19,0.456-2.603,2.131-2.695,3.332c-0.329,4.252-0.128,8.544-0.128,13.584
		c6.198-4.24,11.794-3.654,17.53-0.257c3.859,2.286,5.346,5.086,3.851,9.387c-1.39,3.998-2.733,8.013-4.021,12.044
		c-0.735,2.305-0.747,4.601,2.42,4.697c14.792,0.45,29.586,0.847,44.383,1.06c4.205,0.061,8.421-0.559,12.541-0.859
		c1.702,6.011,0.822,7.703-4.882,8.795c-3.361,0.644-6.832,0.707-10.247,1.084c-13.508,1.492-26.985,1.997-40.396-0.928
		c-6.697-1.46-9.395,0.23-11.115,6.774c-1.116,4.25-2.079,8.548-3.381,12.74c-3.645,11.735-7.013,23.354-6.838,35.974
		c0.445,32.156,0.148,64.322,0.148,96.484c0,1.74,0,3.481,0,5.222c0.398,0.131,0.797,0.262,1.195,0.393
		c1.946-3.275,4.115-6.44,5.801-9.845c7.102-14.338,14.155-28.701,21.041-43.144c6.449-13.529,12.741-27.136,18.96-40.773
		c5.164-11.325,12.714-20.739,22.732-27.99c6.163-4.461,13.049-6.569,20.826-3.747c6.07,2.202,12.241,4.266,18.524,5.702
		c6.487,1.483,10.635,4.468,11.652,10.863c0.645,4.056,0.914,8.481-0.018,12.417c-2.882,12.169-7.104,24.049-9.49,36.297
		C488.379,666.825,488.256,677.375,487.308,687.764z M-118.144,654.819c0.563,0.085,1.126,0.17,1.689,0.254
		c0.197-0.69,0.346-1.399,0.6-2.068c1.72-4.515,2.766-9.485,5.378-13.41c3.165-4.756,7.833-8.481,11.547-12.907
		c9.49-11.309,19.348-22.365,28.064-34.252c10.499-14.317,20.347-29.226,23.496-47.278c1.56-8.941,4.379-17.833,0.649-27.019
		c-1.661-4.09-3.409-8.213-8.024-8.809c-5.147-0.664-9.286,1.81-12.337,6.317c-11.165,16.49-22.102,33.036-28.249,52.282
		c-2.219,6.947-6.467,13.296-8.303,20.308c-4.448,16.991-8.088,34.197-11.908,51.35C-116.66,644.608-117.29,649.738-118.144,654.819
		z M532.585,692.02c0.66,0.07,1.321,0.141,1.981,0.211c0.852-0.98,1.821-1.882,2.533-2.954c4.235-6.382,8.866-12.556,12.508-19.265
		c6.716-12.374,13.812-24.764,11.617-39.843c-0.27-1.848,0.588-3.844,0.812-5.783c0.412-3.586,1.259-7.234,0.899-10.752
		c-0.195-1.916-2.137-4.281-3.935-5.252c-2.422-1.308-3.935,0.55-4.999,3.021c-2.358,5.47-5.347,10.674-7.603,16.182
		c-6.299,15.371-12.204,30.926-14.07,47.57C531.708,680.697,532.461,686.394,532.585,692.02z M-66.055,696.661
		c-0.604-0.354-1.209-0.706-1.813-1.06c-2.986,2.341-6.299,4.369-8.897,7.082c-7.542,7.876-14.979,15.869-22.107,24.119
		c-5.613,6.497-9.806,13.772-8.66,24.55c5.395-1.766,10.689-2.508,14.877-5.063c10.479-6.397,16.711-16.739,21.336-27.632
		C-68.414,711.813-67.734,704.025-66.055,696.661z M438.593,673.917c2.339-4.225,4.819-8.379,6.993-12.688
		c8.742-17.33,17.465-34.671,26.008-52.1c1.688-3.442,0.844-7.556-2.506-9.065c-2.214-0.999-5.787,0.338-8.48,1.352
		c-1.466,0.552-2.455,2.545-3.504,4c-7.866,10.911-10.033,24.162-14.871,36.319C438.18,651.92,436.121,662.38,438.593,673.917z
		 M290.495,668.42c-2.272,1.088-4.253,1.747-5.912,2.878c-9.161,6.248-13.942,15.115-15.566,25.975
		c-0.788,5.271,0.786,7.675,5.977,7.897c6.714,0.287,12.71-3.986,15.079-11.011C292.803,686.064,293.029,677.848,290.495,668.42z
		 M295.141,615.626c0.621,0.046,1.242,0.091,1.862,0.137c1.875-1.252,3.844-2.384,5.606-3.776
		c7.015-5.539,11.257-12.649,11.492-21.732c0.125-4.849-3.856-8.675-7.902-8.036c-4.498,0.709-10.762,6.672-10.969,11.265
		C294.897,600.85,295.141,608.243,295.141,615.626z M620.125,505.115c-2.414,4.183-4.896,7.311-6.14,10.871
		c-2.93,8.385-5.586,16.896-7.735,25.509c-1.455,5.828-1.835,11.923-2.746,17.891c-0.383,2.507-0.895,4.995-1.347,7.491
		c0.597,0.161,1.194,0.323,1.792,0.484c3.735-8.598,7.634-17.129,11.15-25.814c2.58-6.372,3.778-13.14,7.094-19.429
		C624.617,517.521,624.545,511.254,620.125,505.115z"/>
	<path fill-rule="evenodd" clip-rule="evenodd" fill="#050505" d="M783.424,435.342c-6.105,4.396-7.479,4.22-10.051-1.653
		c-12.029-27.475-26.483-53.595-44.076-77.882c-8.06-11.126-16.648-21.907-25.547-32.376c-8.135-9.57-16.618-18.916-25.643-27.643
		c-19.022-18.394-39.586-34.968-61.573-49.738c-5.756-3.866-5.75-4.014-0.977-10.562
		C691.915,284.948,747.266,351.841,783.424,435.342z"/>
	<path fill-rule="evenodd" clip-rule="evenodd" fill="#050505" d="M-23.48,437.975c-7.135,0.163-8.535-1.729-5.772-7.926
		c14.226-31.917,31.749-61.899,53.451-89.309c9.283-11.725,19.034-23.121,29.169-34.116c9.75-10.578,19.653-21.176,30.602-30.452
		c15.846-13.426,32.688-25.675,49.118-38.409c2.068-1.604,4.083-2.056,5.711,0.653c1.404,2.337,1.951,4.339-0.791,6.372
		c-13.261,9.831-26.461,19.744-39.593,29.746c-3.271,2.492-6.301,5.326-9.285,8.166c-8.898,8.469-18.422,16.41-26.418,25.667
		c-15.221,17.618-30.107,35.588-44.097,54.189C4.36,381.51-6.945,402.388-17.111,423.828
		C-19.272,428.386-21.258,433.027-23.48,437.975z"/>
	<path fill-rule="evenodd" clip-rule="evenodd" fill="#050505" d="M140.433,970.817c-1.336,2.187-2.581,4.227-4.204,6.884
		c-5.802-3.765-11.673-7.182-17.118-11.177c-22.767-16.7-44.57-34.619-63.492-55.621c-13.382-14.854-26.474-30.121-38.147-46.319
		c-11.693-16.225-21.517-33.801-32.014-50.875c-1.342-2.183-2.974-4.86,0.649-7.077c2.933-1.795,4.538-1.307,6.118,1.746
		c10.829,20.917,23.36,40.778,37.853,59.349c7.258,9.301,14.686,18.5,22.552,27.285c8.405,9.387,16.869,18.85,26.288,27.168
		c14.864,13.129,30.47,25.427,45.931,37.867C129.646,963.908,134.994,967.09,140.433,970.817z"/>
	<path fill-rule="evenodd" clip-rule="evenodd" fill="#050505" d="M618.258,972.64c-4.207-6.154-4.248-6.21,1.015-10.1
		c20.899-15.452,41.161-31.592,59.937-49.688c20.685-19.937,39.688-41.219,55.859-64.905c8.817-12.917,16.641-26.526,24.59-40.014
		c1.777-3.016,3.238-2.96,5.882-1.73c3.029,1.407,3.234,3.272,1.621,5.842c-9.887,15.741-19.241,31.848-29.775,47.142
		c-11.964,17.368-25.546,33.547-40.913,48.081c-13.027,12.32-25.973,24.764-39.574,36.429
		c-10.912,9.358-22.744,17.647-34.202,26.364C621.434,971.021,619.938,971.675,618.258,972.64z"/>
	<path fill-rule="evenodd" clip-rule="evenodd" fill="#050505" d="M420.294,233.336c2.032,0,3.657,0,5.429,0
		c1.389,4.745,2.898,9.227,8.369,10.939c6.883,2.155,13.313-1.095,15.772-8.374c2.663-7.884-1.801-17.282-9.765-19.051
		c-2.971-0.659-6.467,0.873-9.688,1.571c-1.872,0.406-3.667,1.525-5.511,1.56c-0.895,0.017-1.85-1.699-2.711-2.689
		c-0.159-0.184-0.023-0.646,0.016-0.976c0.978-8.255,1.96-16.509,2.961-24.928c9.994,0,19.616,0,29.238,0.007
		c0.613,3.51,0.139,4.585-3.008,4.676c-5.647,0.164-11.337,0.228-16.948-0.308c-2.66-0.253-4-0.05-4.326,2.715
		c-0.553,4.675-1.143,9.346-1.817,14.836c9.11-2.938,17.778-3.619,24.389,4.861c3.51,4.503,4.01,9.787,3.331,14.97
		c-1.402,10.715-5.405,16.43-17.589,16.891C427.646,250.444,420.865,243.783,420.294,233.336z"/>
	<path fill-rule="evenodd" clip-rule="evenodd" fill="#050505" d="M315.151,247.161c0-18.944-0.057-37.096,0.124-55.245
		c0.013-1.252,1.827-3.58,2.755-3.556c7.393,0.193,14.942,0.024,22.118,1.526c11.424,2.39,15.894,12.174,16.85,23.12
		c0.453,5.183,0.055,10.619-1.016,15.719c-2.335,11.116-11.424,18.095-22.934,18.408
		C327.262,247.291,321.467,247.161,315.151,247.161z M320.149,243.169c5.204,0,9.714,0.328,14.155-0.082
		c5.736-0.529,10.623-2.901,13.889-8.048c5.037-7.938,4.659-16.764,3.509-25.355c-0.71-5.303-2.709-10.512-8.096-13.847
		c-6.649-4.115-13.755-3.755-20.927-3.5c-0.877,0.031-2.412,1.895-2.422,2.921C320.103,211.03,320.149,226.806,320.149,243.169z"/>
	<path fill-rule="evenodd" clip-rule="evenodd" fill="#050505" d="M256.308,188.634c4.589-1.657,6.52,1.043,7.715,4.325
		c4.784,13.136,9.405,26.329,14.107,39.495c0.534,1.494,1.196,2.942,2.223,5.447c2.191-5.624,4.061-10.15,5.726-14.752
		c3.65-10.092,7.385-20.16,10.689-30.366c1.21-3.737,2.976-5.284,7.788-4.127c-1.567,4.733-2.96,9.44-4.675,14.028
		c-5.127,13.711-10.329,27.395-15.658,41.029c-0.53,1.358-2.184,3.279-3.209,3.216c-1.643-0.101-4.134-1.288-4.646-2.634
		c-6.885-18.08-13.491-36.266-20.146-54.433C256.117,189.58,256.26,189.208,256.308,188.634z"/>
	<path fill-rule="evenodd" clip-rule="evenodd" fill="#050505" d="M254.96,246.798c-3.509,0.826-5.653,0.288-6.997-3.8
		c-3.916-11.904-4.167-11.186-16.497-12.046c-9.608-0.671-15.786,1.232-17.729,11.77c-0.87,4.724-1.765,4.559-7.582,4.136
		c2.475-6.893,4.818-13.681,7.344-20.4c4.169-11.095,8.335-22.194,12.803-33.17c0.813-1.999,3.059-3.415,4.643-5.101
		c1.453,1.511,3.557,2.769,4.256,4.57c6.756,17.406,13.278,34.902,19.838,52.385C255.195,245.559,255.002,246.107,254.96,246.798z
		 M230.431,194.24c-3.952,10.911-7.812,21.568-11.793,32.56c8.599,0,16.432,0,24.563,0c-3.939-10.794-7.72-21.165-11.528-31.525
		C231.574,195.006,231.177,194.848,230.431,194.24z"/>
	<path fill-rule="evenodd" clip-rule="evenodd" fill="#050505" d="M497.584,218.952c-0.497,5.646-0.361,11.351-1.612,16.734
		c-2.244,9.658-5.903,13.019-14.848,14.396c-7.667,1.18-15.331-2.787-17.71-10.806c-3.917-13.21-4.223-26.944,0.434-40.125
		c2.451-6.935,9.733-10.64,16.341-9.969c8.287,0.842,14.319,5.696,15.831,13.618C497.03,208.094,497.097,213.566,497.584,218.952z
		 M492.144,220.413c0-4.165,0.408-8.379-0.081-12.485c-1.197-10.059-4.573-13.748-13.095-14.683
		c-5.903-0.647-11.573,4.591-12.685,11.92c-1.507,9.941-1.541,19.846,0.61,29.868c1.795,8.365,6.479,11.175,13.641,11.084
		c5.486-0.069,11.149-6.593,11.559-13.212C492.349,228.756,492.141,224.578,492.144,220.413z"/>
	<path fill-rule="evenodd" clip-rule="evenodd" fill="#050505" d="M502.145,217.995c1.163-5.755,1.946-12.953,4.174-19.672
		c2.02-6.09,9.111-9.664,15.377-9.127c7.238,0.621,13.238,3.741,15.266,10.979c3.611,12.888,3.55,26.054,0.027,38.972
		c-1.938,7.11-8.874,11.22-16.756,11.013c-6.931-0.184-13.487-4.726-15.16-11.656C503.584,232.34,503.221,225.904,502.145,217.995z
		 M534.737,217.892c-0.675-4.435-1.331-10.447-2.557-16.342c-1.396-6.717-6.928-8.224-12.097-8.275
		c-5.381-0.054-9.575,4-10.932,9.511c-2.756,11.198-2.78,22.388-0.018,33.594c1.58,6.407,6.075,9.899,12.777,9.791
		c5.065-0.082,10.248-4.318,11.144-9.896C533.94,230.769,534.108,225.147,534.737,217.892z"/>
	<path fill-rule="evenodd" clip-rule="evenodd" fill="#050505" d="M328.18,978.86c-2.623,0.132-4.053,0.203-5.406,0.271
		c-2.194-6.195-7.338-10.343-12.113-9.949c-6.099,0.502-10.744,4.995-11.422,12.115c-0.486,5.107-0.701,10.478,0.34,15.441
		c1.714,8.173,9.892,11.959,17.952,9.506c3.344-1.019,5.108-2.521,4.672-6.246c-0.284-2.421-0.054-4.901-0.054-7.719
		c-3.727,0-7.003,0-10.279,0c-0.345-0.415-0.689-0.83-1.033-1.244c0.972-0.952,1.862-2.626,2.93-2.747
		c13.367-1.525,13.374-1.468,13.371,11.61c-0.001,7.183-3.674,10.327-13.146,11.254c-11.211,1.097-20.587-7.895-19.882-18.079
		c0.252-3.646,0.033-7.324,0.042-10.987c0.017-7.231,3.96-12.176,9.956-15.235c6.617-3.377,13.276-2.023,18.685,2.742
		C325.148,971.671,326.168,975.267,328.18,978.86z"/>
	<path fill-rule="evenodd" clip-rule="evenodd" fill="#050505" d="M362.516,988.027c-1.17,0.504-2.335,1.423-3.511,1.438
		c-4.473,0.06-8.948-0.225-13.424-0.281c-3.207-0.041-4.511,1.413-4.523,4.851c-0.048,12.138-0.173,12.138,12.071,12.138
		c2.833,0,5.7-0.255,8.484,0.114c1.395,0.185,2.639,1.508,3.951,2.315c-0.238,0.447-0.476,0.896-0.714,1.343
		c-8.967,0-17.933,0-27.302,0c0-14.334,0-28.717,0-43.758c8.154,0,16.419-0.069,24.678,0.096c0.932,0.019,1.837,1.356,2.755,2.083
		c-1.051,0.597-2.083,1.668-3.153,1.708c-4.992,0.185-10.009,0.319-14.989,0.015c-4.228-0.258-5.961,0.912-5.795,5.511
		c0.447,12.385-1.57,10.39,10.647,10.566c3.318,0.048,6.638,0.007,9.956,0.007C361.937,986.791,362.226,987.409,362.516,988.027z"/>
	<path fill-rule="evenodd" clip-rule="evenodd" fill="#050505" d="M550.696,1008.952c13.769-4.541,16.901-7.294,16.968-15.233
		c-2.796,0.801-5.617,1.89-8.539,2.389c-7.037,1.201-11.569-3.258-13.543-10.011c-2.802-9.589,1.881-18.257,11.422-20.236
		c4.572-0.948,9.021,0.131,12.277,3.983c5.706,6.752,6.103,31.013-3.32,36.846c-3.351,2.075-7.34,3.259-11.186,4.308
		C553.684,1011.295,552.07,1009.687,550.696,1008.952z M547.909,980.562c0.409,0.222,0.819,0.444,1.229,0.667
		c0,7.446,2.855,11.707,8.002,11.941c6.228,0.284,10.306-1.997,11.83-6.616c1.812-5.489-0.454-14.148-4.748-16.675
		c-3.728-2.194-7.973-3.087-11.036,0.899C550.958,973.679,549.636,977.275,547.909,980.562z"/>
	<path fill-rule="evenodd" clip-rule="evenodd" fill="#050505" d="M163.89,1009.552c3.722-9.715,7.387-19.244,11.021-28.784
		c1.562-4.099,2.921-8.282,4.678-12.294c0.449-1.025,2.004-2.005,3.154-2.144c0.87-0.104,2.435,0.956,2.786,1.853
		c5.275,13.461,10.403,26.98,15.542,40.495c0.1,0.264-0.088,0.637-0.159,1.067c-3.291,1.182-5.303,0.271-5.829-3.422
		c-0.135-0.946-0.712-1.822-0.931-2.767c-0.943-4.067-3.113-6.146-7.608-5.462c-2.439,0.371-5.031,0.383-7.467,0
		c-4.993-0.785-6.863,1.723-8.128,6.089C170.135,1006.991,170.175,1011.854,163.89,1009.552z M173.292,995.078
		c6.476,0,12.274,0,18.799,0c-3.027-8.158-5.935-15.995-8.842-23.831c-0.438,0.044-0.875,0.088-1.312,0.132
		C179.09,979.183,176.244,986.985,173.292,995.078z"/>
	<path fill-rule="evenodd" clip-rule="evenodd" fill="#050505" d="M475.274,987.524c6.431,4.509,8.518,9.33,6.669,15.165
		c-1.42,4.479-7.628,8.281-13.827,8.47c-5.441,0.166-12.156-3.365-13.578-7.14c-2.16-5.733-0.036-12.183,5.369-16.297
		c-5.847-6.706-6.662-15.247-1.551-19.092c4.997-3.758,16.242-4.428,20.799,2.015C482.841,975.856,481.445,983.307,475.274,987.524z
		 M468.035,1008.171c6.38,0.026,10.795-3.922,10.994-9.833c0.176-5.228-4.897-9.837-11.145-10.125
		c-5.715-0.264-10.654,4.43-10.745,10.21C457.043,1004.515,461.098,1008.142,468.035,1008.171z M477.146,977.613
		c-0.005-5.43-4.101-9.752-9.529-9.37c-6.145,0.432-9.088,3.185-9.393,9.61c-0.257,5.431,4.001,9.175,9.772,9.301
		C473.823,987.281,477.152,983.811,477.146,977.613z"/>
	<path fill-rule="evenodd" clip-rule="evenodd" fill="#050505" d="M289.045,1009.659c-3.977,1.594-5.046-1.065-5.805-3.609
		c-2.401-8.057-2.332-8.077-10.619-7.89c-0.333,0.007-0.666,0-0.999,0.001c-10.013,0.041-9.865,0.103-13.589,9.119
		c-0.665,1.609-3.124,2.478-4.755,3.688c-0.346-0.428-0.69-0.856-1.036-1.285c5.125-13.492,10.197-27.005,15.461-40.443
		c0.492-1.258,2.117-2.71,3.344-2.836c0.942-0.097,2.573,1.556,3.062,2.767c4.992,12.373,9.834,24.807,14.643,37.252
		C289.135,1007.414,288.964,1008.621,289.045,1009.659z M280.353,994.98c-2.997-8.167-5.886-16.039-8.774-23.911
		c-0.391,0.029-0.782,0.059-1.173,0.087c-2.882,7.792-5.765,15.585-8.812,23.824C268.235,994.98,274.002,994.98,280.353,994.98z"/>
	<path fill-rule="evenodd" clip-rule="evenodd" fill="#050505" d="M402.312,198.5c-5.779,1.832-10.641,3.373-15.502,4.914
		c-0.44-0.505-0.881-1.009-1.321-1.514c1.334-1.568,2.363-3.862,4.057-4.573c5.524-2.316,11.292-4.056,17.443-6.183
		c0.398,1.978,1.088,3.838,1.098,5.703c0.087,15.856-0.055,31.715,0.119,47.57c0.046,4.22-1.631,5.404-5.894,4.417
		C402.312,232.567,402.312,216.151,402.312,198.5z"/>
	<path fill-rule="evenodd" clip-rule="evenodd" fill="#050505" d="M388.286,1009.935c-2.108,0-3.393,0-5.138,0
		c0-11.482-0.23-22.768,0.109-34.035c0.144-4.762-1.468-6.342-5.999-5.783c-2.131,0.262-4.371,0.312-6.465-0.068
		c-1.155-0.211-2.111-1.516-3.157-2.326c0.269-0.426,0.537-0.851,0.806-1.275c11.072,0,22.144,0,33.211,0
		c0.169,3.706,0.169,3.707-4.921,3.714c-2.641,0.004-5.282,0.001-8.446,0.001C388.286,983.493,388.286,996.545,388.286,1009.935z"/>
	<path fill-rule="evenodd" clip-rule="evenodd" fill="#050505" d="M249.916,1009.907c-8.41,0-16.821,0-25.5,0
		c0-14.593,0-28.998,0-43.406c3.387-0.872,4.859,0.281,4.736,3.666c-0.375,10.256-0.563,20.52-1.058,30.769
		c-0.182,3.772,0.758,5.592,4.935,5.307c4.476-0.307,9.001-0.246,13.479,0.041c1.402,0.09,2.724,1.433,4.082,2.201
		C250.366,1008.959,250.141,1009.434,249.916,1009.907z"/>
	<path fill-rule="evenodd" clip-rule="evenodd" fill="#050505" d="M433.149,972.085c-3.857,1.214-7.07,2.226-10.331,3.251
		c-0.571-3.974,4.088-6.713,14.959-9.037c0,14.423,0,28.777,0,43.156c-4.273,0.796-4.592,0.607-4.612-3.82
		C433.116,994.665,433.149,983.696,433.149,972.085z"/>
	<path fill-rule="evenodd" clip-rule="evenodd" fill="#050505" d="M525.287,972.198c-3.97,1.237-7.282,2.27-10.595,3.303
		c-0.258-0.587-0.516-1.173-0.773-1.76c3.522-5.308,10.435-4.604,15.795-8.481c0,15.405,0,29.741,0,44.132
		c-3.436,0.787-3.528,0.788-3.547-2.728c-0.051-9.821,0.021-19.644-0.058-29.465C526.097,975.539,525.577,973.884,525.287,972.198z"
		/>
	<path fill-rule="evenodd" clip-rule="evenodd" fill="#050505" d="M485.066,1013.157c5.559-14.711,11.039-29.452,16.797-44.085
		c0.581-1.476,2.848-2.287,4.332-3.407c0.395,0.445,0.789,0.891,1.184,1.336c-3.668,9.517-7.326,19.036-11.008,28.548
		c-2.051,5.301-3.981,10.658-6.314,15.834c-0.628,1.393-2.527,2.213-3.843,3.296
		C485.832,1014.172,485.449,1013.664,485.066,1013.157z"/>
	<path fill-rule="evenodd" clip-rule="evenodd" fill="#050505" d="M218.711,992.133c-5.185,0-9.583,0.072-13.975-0.066
		c-0.811-0.025-1.778-0.772-2.302-1.466c-0.215-0.286,0.549-1.91,0.872-1.912c4.667-0.024,9.337,0.08,13.997,0.323
		C217.648,989.029,217.927,990.338,218.711,992.133z"/>
</g>
</svg>
