<?xml version="1.0" encoding="utf-8"?>
<!-- Generator: Adobe Illustrator 16.0.0, SVG Export Plug-In . SVG Version: 6.00 Build 0)  -->
<!DOCTYPE svg PUBLIC "-//W3C//DTD SVG 1.1//EN" "http://www.w3.org/Graphics/SVG/1.1/DTD/svg11.dtd">
<svg version="1.1" id="Layer_1" xmlns="http://www.w3.org/2000/svg" xmlns:xlink="http://www.w3.org/1999/xlink" x="0px" y="0px"
	 width="611px" height="499px" viewBox="0 0 611 499" enable-background="new 0 0 611 499" xml:space="preserve">
<g>
	<g>
		<defs>
			<rect id="SVGID_1_" x="-68.5" y="-124.5" width="748" height="748"/>
		</defs>
		<clipPath id="SVGID_2_">
			<use xlink:href="#SVGID_1_"  overflow="visible"/>
		</clipPath>
		<g clip-path="url(#SVGID_2_)">
			<defs>
				<rect id="SVGID_3_" x="-68.5" y="-124.5" width="748" height="748"/>
			</defs>
			<clipPath id="SVGID_4_">
				<use xlink:href="#SVGID_3_"  overflow="visible"/>
			</clipPath>
			<path clip-path="url(#SVGID_4_)" fill-rule="evenodd" clip-rule="evenodd" fill="#F6F7F5" d="M-56.033,488.966
				c139.966-0.002,279.934-0.006,419.902-0.006c101.348-0.001,202.695,0.004,304.043,0.006c-0.096,0.136,0.223,0.459-0.22,0.444
				c-0.586-0.019-1.173-0.004-1.76-0.004c-239.995,0-479.99,0-719.986-0.027C-54.697,489.379-55.544,489.887-56.033,488.966"/>
			<path clip-path="url(#SVGID_4_)" fill-rule="evenodd" clip-rule="evenodd" fill="#F6F7F5" d="M223.381,294.176
				c0.131,2.261-0.264,4.344-1.861,6.094c-2.937,3.217-4.376,7.425-7.05,10.805c-3.673,4.643-6.112,10.143-10.147,14.524
				c-1.344,1.458-2.923,2.613-4.685,3.552c-7.104,3.783-13.198-0.586-13.792-7.881c-0.271-3.326,0.3-6.567,0.639-9.833
				c0.175-1.693,0.755-3.86-0.791-4.629c-1.237-0.614-2.863,0.976-4.041,2.005c-7.426,6.485-12.98,14.38-17.187,23.246
				c-2.252,4.749-5.069,9.206-7.059,14.092c-2.069,5.076-3.77,10.28-5.629,15.429c-2.232,6.173-3.931,12.477-4.74,18.961
				c-0.912,7.319-1.108,14.678,1.015,21.891c0.041,0.14,0.098,0.273,0.148,0.41c1.693,4.702,3.833,5.459,7.685,2.484
				c4.712-3.639,8.547-8.169,12.384-12.68c5.027-5.911,9.094-12.52,13.417-18.922c3.175-4.7,6.732-9.149,9.693-13.948
				c3.031-4.911,10.334-3.85,12.266,0.884c0.24,0.591,0.612,1.126,1.057,1.927c2.282-5.66,4.512-11.102,6.675-16.568
				c4.865-12.297,9.716-24.599,14.521-36.92c0.739-1.896,1.896-2.702,3.959-2.725c5.637-0.062,11.275-0.242,16.907-0.487
				c2.309-0.101,3.51,0.751,4.387,2.981c7.683,19.563,15.599,39.032,24.072,58.271c1.798,4.084,1.083,8.488,0.812,12.774
				c-0.081,1.276-1.171,1.769-2.397,1.791c-6.294,0.12-12.59,0.238-18.886,0.352c-1.986,0.035-2.823-1.251-3.306-2.921
				c-0.751-2.582-1.553-5.15-2.208-7.755c-0.229-0.908-0.612-1.178-1.486-1.17c-6.301,0.063-12.604,0.105-18.906,0.124
				c-1.331,0.004-1.899,0.587-2.152,1.901c-0.469,2.433-1.179,4.817-1.721,7.238c-0.429,1.923-1.554,2.901-3.529,2.917
				c-5.569,0.044-11.137,0.129-16.705,0.129c-2.215,0-2.995-0.847-3.035-3.108c-0.042-2.413-0.009-4.828-0.009-7.636
				c-1.149,1.437-1.787,2.742-2.183,4.17c-1.305,4.718-2.92,9.328-4.712,13.883c-1.985,5.043-5.64,9.004-8.545,13.452
				c-2.999,4.589-6.219,9.024-9.706,13.25c-4.672,5.663-10.126,10.447-17.738,11.173c-10.545,1.004-20.146-0.954-27.434-9.787
				c-7.288-8.832-9.813-19.126-9.78-30.138c0.044-14.087,3.59-27.564,7.914-40.892c3.583-11.042,8.538-21.4,14.81-31.099
				c3.163-4.892,6.673-9.597,10.558-13.98l0.437-0.436c0.253-0.218,0.564-0.471,0.149-0.761c-0.257-0.181-0.462,0.077-0.596,0.314
				c-0.267,0.182-0.533,0.361-0.8,0.544c-11.44,3.489-21.745,0.655-31.427-5.644c-1.509-0.981-1.802-2.351-1.357-4.018
				c1.477-5.538,1.551-11.12,0.309-16.7c-0.692-3.107-2.178-5.817-4.708-8.358c-0.067,1.595,0.933,2.299,1.38,3.203
				c3.912,7.901,3.938,16.109,1.716,24.354c-2.85,10.58-7.912,20.218-13.231,29.74c-5.505,9.853-11.667,19.255-18.849,27.944
				c-6.785,8.209-14.164,15.931-23.742,20.88c-5.752,2.975-12.141,4.123-18.716,3.36c-6.345-0.735-11.77-3.675-16.967-7.134
				c-5.64-3.753-6.924-9.194-6.132-15.549c1.258-10.108,5.887-18.88,10.69-27.595c4.171-7.568,9.108-14.642,14.548-21.322
				c3.262-4.007,6.888-7.75,10.734-11.241c0.523-0.475,1.178-0.856,1.398-1.597c-0.771-0.716-1.269,0.036-1.787,0.261
				c-5.537,2.404-11.037,4.857-17.001,6.121c-6.025,1.277-11.139-0.495-15.634-4.339c-4.583-3.92-6.132-9.071-6.238-15.03
				c-0.096-5.395,1.242-10.318,3.031-15.292c3.072-8.543,7.517-16.373,12.962-23.504c5.445-7.127,11.608-13.696,19.274-18.667
				c5.697-3.693,11.188-7.689,17.688-9.957c5.369-1.874,10.782-3.16,16.517-2.068c1.978,0.375,3.723,1.25,5.392,2.314
				c0.43,0.274,0.793,0.652,1.216,0.939c1.389,0.946,2.687,2.34,4.217,2.685c1.831,0.413,2.449-1.874,3.67-2.877
				c3.36-2.76,6.615-3.175,10.259-0.82c3.46,2.237,7.367,4.043,8.553,8.607c0.719,2.767,0.048,5.085-1.932,7.022
				c-3.902,3.818-7.831,7.61-11.814,11.345c-1.51,1.416-2.696,3.082-3.957,4.683c-2.747,3.485-6.633,4.543-10.675,4.707
				c-4.522,0.183-7.78-4.147-7.162-8.854c0.295-2.253,0.67-4.468,1.754-6.518c0.333-0.63,0.518-1.385,0.588-2.101
				c0.206-2.091-0.661-2.647-2.664-2.165c-10.438,2.512-19.04,8.267-26.905,15.258c-4.859,4.32-8.362,9.74-11.697,15.265
				c-3.825,6.336-6.679,13.063-8.476,20.465c2.035-0.314,3.772-1.041,5.476-1.782c9.16-3.986,18.19-8.251,27.22-12.524
				c6.388-3.023,12.772-6.122,19.847-7.377c5.483-0.973,10.742-0.321,15.994,1.913c0.518-6.655,2.542-12.649,6.315-17.996
				c5.325-7.548,12.979-11.843,21.354-15.056c3.452-1.326,6.893-2.895,10.623-3.16c11.036-0.782,21.051,2.029,29.272,9.602
				c9.845,9.068,12.834,20.764,11.901,33.723c-0.399,5.548-1.961,10.768-4.73,15.622c-0.849,1.489-1.978,2.333-3.712,2.187
				c-3.209-0.272-5.963,0.825-8.637,2.513c-4.249,2.68-7.896,6.02-11.264,9.697c-0.35,0.383-1.189,0.848-0.663,1.389
				c0.724,0.745,1.135-0.294,1.495-0.679c2.98-3.185,6.61-5.493,10.195-7.904c3.169-2.13,6.607-2.837,10.226-2.343
				c4.26,0.581,8.587,0.676,12.784,1.723c1.566,0.392,3.064,0.93,4.427,1.815c0.329,0.214,0.667,0.695,1.103,0.244
				c0.241-0.25,0.46-0.626,0.485-0.961c0.06-0.773-0.617-0.332-0.943-0.457c-1.853-0.714-3.539-1.729-5.121-2.897
				c-1.06-0.783-1.058-2.008-0.973-3.21c0.574-8.174,1.296-16.342,1.671-24.525c0.455-9.947,1.174-19.889,1.001-29.861
				c-0.067-3.857,0.542-4.371,4.43-4.423c7.103-0.096,14.205-0.26,21.307-0.36c3.14-0.044,3.625,0.32,4.49,3.303
				c4.211,14.535,9.013,28.88,13.708,43.262c0.18,0.549,0.402,1.084,0.724,1.945c2.917-9.641,5.767-18.97,8.559-28.317
				c1.73-5.795,3.424-11.601,5.026-17.432c0.57-2.071,1.707-3.11,3.858-3.117c8.06-0.026,16.122-0.071,24.183-0.124
				c2.315-0.015,2.772,1.567,2.859,3.361c0.229,4.682,0.337,9.368,0.582,14.048c0.475,9.06,1.183,18.106,2.059,27.137
				c0.622,6.399,1.235,12.799,1.888,19.195c0.297,2.902,0.643,5.8,1.041,8.689c0.289,2.096-0.51,3.226-2.635,3.279
				c-6.806,0.173-13.613,0.318-20.42,0.421c-2.615,0.039-3.507-0.817-3.462-3.383c0.157-8.945-0.552-17.856-0.969-26.78
				c-0.075-1.603-0.327-3.197-0.507-4.891c-0.603,0.187-0.607,0.796-0.767,1.254c-3.538,10.216-7.117,20.416-10.55,30.666
				c-0.776,2.316-1.977,3.219-4.447,3.202c-5.267-0.033-10.539,0.167-15.803,0.419c-2.369,0.112-3.747-0.734-4.276-3.068
				c-0.242-1.063-0.703-2.076-1.063-3.113c-0.164-0.963-0.341-1.923-1.368-2.917C222.972,292.433,223.176,293.304,223.381,294.176
				 M116.655,266.262c-0.179,0.075-0.444,0.102-0.326,0.393c0.042,0.101,0.201,0.154,0.306,0.229
				c-0.007-0.204-0.015-0.408-0.022-0.614c-0.27-0.095-0.472-0.239-0.42-0.571c-0.088,0.183-0.524-0.171-0.437,0.283
				c0.15-0.093,0.299-0.188,0.441-0.278c-0.074,0.222-0.437,0.354-0.147,0.685C116.375,266.758,116.474,266.32,116.655,266.262
				 M202.234,285.422c2.764-1.48,5.73-0.962,8.676-1c4.56-0.057,8.141,1.693,10.98,5.158c0.068,0.607,0.113,1.232,0.945,1.432
				c0.086-0.665-0.189-1.161-0.522-1.639c-2.961-7.99-5.923-15.98-9.102-24.553c-0.141,0.963-0.208,1.246-0.222,1.534
				c-0.211,4.31-0.378,8.624-0.638,12.931c-0.139,2.305-1.271,3.133-3.436,2.712c-3.976-0.771-4.687-0.456-7.026,3.116
				c-0.114,0.201-0.43,0.401-0.056,0.613C201.891,285.761,202.097,285.53,202.234,285.422 M157.61,340.297l0.632-1.183
				c1.827-3.479,3.71-6.932,5.468-10.446c4.092-8.18,9.484-15.353,16.322-21.438c1.163-1.035,2.518-1.749,3.87-2.471
				c1.766-0.945,3.243-0.509,4.215,1.256c0.687,1.247,0.928,2.623,0.787,4.031c-0.189,1.886-0.524,3.758-0.676,5.646
				c-0.281,3.486-0.747,7.022,1.607,10.099c0.372,0.88,1.146,1.287,1.952,1.662c3.312,1.539,6.102,0.224,8.821-1.582
				c3.628-2.409,5.435-6.225,7.595-9.771c4.4-5.312,7.134-11.769,11.527-17.052c2.652-3.19,1.037-8.888-2.44-10.744
				c-2.743-1.464-5.562-1.446-8.469-1.728c-3.857-0.374-6.549,0.898-8.159,4.424c-0.302,0.662-0.684,1.298-0.907,1.984
				c-0.368,1.139-0.889,1.279-1.926,0.668c-2.073-1.225-4.141-2.548-6.596-2.872c-4.196-0.553-8.399-1.065-12.608-1.515
				c-1.905-0.204-3.9-0.071-5.573,0.814c-3.812,2.02-7.377,4.438-10.588,7.367c-5.933,5.413-10.836,11.671-15.335,18.281
				c-5.067,7.445-9.195,15.387-12.615,23.706c-0.482,1.425-0.948,2.854-1.448,4.271c-1.604,4.548-3.34,9.054-4.427,13.768
				c-0.761,1.297-0.705,2.8-1.048,4.201c-1.911,7.803-3.594,15.663-3.765,23.722c-0.24,11.332,1.825,21.96,9.317,31.104
				c6.885,8.404,15.959,9.962,25.872,8.918c6.766-0.713,11.503-5.155,15.648-10.097c3.612-4.305,6.796-8.95,9.974-13.598
				c3.61-5.279,7.692-10.262,9.523-16.555c2.208-6.683,4.505-13.331,7.401-19.758c1.052-2.336,0.271-4.987-2.016-6.111
				c-1.558-0.766-3.516-1.129-4.89,0.251c-1.583,1.591-2.891,3.479-4.179,5.337c-4.403,6.351-8.744,12.744-13.107,19.121
				c-4.238,6.712-9.414,12.679-14.871,18.392c-2.565,2.687-5.31,5.24-8.711,6.938c-1.331,0.664-2.426,0.587-3.655-0.304
				c-4.253-3.081-4.876-7.797-5.571-12.405c-0.588-3.903-0.315-7.848-0.166-11.803c0.208-5.545,1.23-10.915,2.768-16.16
				c2.735-9.324,5.954-18.496,9.886-27.397C157.235,340.945,157.423,340.622,157.61,340.297 M226.187,315.439
				c-0.747,0.58-0.882,1.479-1.2,2.286c-6.529,16.593-12.952,33.229-19.907,49.65c-0.946,2.235-1.386,4.427-1.094,6.801
				c-0.022,1.536,0.002,3.075-0.079,4.608c-0.058,1.104,0.277,1.57,1.47,1.546c5.267-0.106,10.536,0.131,15.799-0.276
				c1.066-0.082,1.458-0.468,1.685-1.54c0.616-2.919,1.459-5.789,2.141-8.696c0.277-1.184,0.836-1.696,2.104-1.698
				c7.248-0.016,14.496-0.072,21.743-0.183c1.371-0.021,1.919,0.545,2.251,1.806c0.767,2.893,1.72,5.734,2.504,8.622
				c0.301,1.111,0.828,1.533,1.991,1.498c5.631-0.162,11.263-0.255,16.894-0.375c0.663-0.014,1.429,0.033,1.42-0.924
				c-0.031-3.211,0.793-6.636-0.379-9.59c-3.31-8.338-7.078-16.492-10.666-24.719c-0.021-0.145-0.014-0.3-0.066-0.433
				c-4.6-11.446-9.22-22.884-13.782-34.346c-0.491-1.235-1.312-1.359-2.401-1.325c-5.622,0.175-11.245,0.328-16.867,0.479
				c-0.685,0.019-1.363,0.032-1.593,0.835C227.578,311.483,226.271,313.261,226.187,315.439 M63.091,271.497
				c-2.579,1.188-5.14,2.417-7.741,3.561c-5.66,2.486-11.21,5.24-17.196,6.938c-1.529,0.434-1.885-0.17-1.812-1.448
				c0.038-0.648,0.181-1.298,0.345-1.93c1.742-6.721,4.304-13.115,7.678-19.185c5.161-8.853,11.211-16.88,19.714-22.919
				c6.854-4.867,14.121-8.679,22.293-10.737c1.892-0.476,3.057,0.071,3.911,1.794c1.141,2.302,0.44,4.416-0.473,6.519
				c-1.01,2.326-1.528,4.726-1.127,7.247c0.487,3.067,2.839,4.845,5.764,4.379c4.077-0.651,7.495-2.369,9.684-6.074
				c0.401-0.68,0.955-1.294,1.526-1.847c3.977-3.844,7.849-7.811,12.009-11.446c3.485-3.044,2.366-7.22-0.485-9.421
				c-1.729-1.336-3.581-2.521-5.422-3.704c-2.22-1.428-4.711-1.298-6.684,0.426c-1.375,1.201-2.684,2.501-3.864,3.892
				c-0.75,0.884-1.31,0.878-2.196,0.289c-2.009-1.337-4.098-2.544-6-4.054c-1.495-1.189-3.215-1.928-5.149-2.28
				c-4.84-0.878-9.437,0.092-13.991,1.57c-8.19,2.658-15.193,7.545-21.909,12.624c-5.622,4.251-10.515,9.504-14.808,15.198
				c-3.35,4.354-6.18,9.037-8.686,13.912c-3.974,7.729-7.492,15.556-7.172,24.606c0.189,5.356,1.82,9.887,6.002,13.237
				c3.662,2.936,7.883,4.455,12.653,3.477c5.86-1.204,11.344-3.527,16.768-5.973c8.458-3.814,16.893-7.685,25.336-11.53
				c1.52-0.444,3.093-0.675,4.474-1.589c3.73-2.475,7.844-4.042,12.257-4.752c2.54-0.408,4.154,0.5,4.665,2.727
				c0.466,2.042,0.771,4.106,0.305,6.267c-0.957,4.425-2.711,8.573-4.143,12.834c-1.137,2.029-2.502,3.965-3.364,6.104
				c-2.684,6.662-6.527,12.727-9.922,18.991c-6.641,12.252-14.929,23.352-25.75,32.382c-4.977,4.152-10.296,7.347-16.957,7.856
				c-1.4,0.107-1.925-0.312-2.003-1.549c-0.05-0.801-0.089-1.626,0.042-2.411c1.701-10.27,6.354-19.347,11.613-28.135
				c3.785-6.323,8.532-12.018,12.059-18.539c2.203-4.072,3.588-8.646,7.17-11.953c2.205-2.036,2.35-4.798,0.75-6.676
				c-1.565-1.836-4.251-1.949-6.783-0.36c-6.989,4.387-12.309,10.582-17.531,16.755c-4.606,5.446-8.696,11.351-12.273,17.574
				c-5.314,9.246-10.651,18.492-11.981,29.337c-0.449,3.669-0.976,7.487,1.812,10.657c4.148,4.718,9.566,7.541,15.437,9.098
				c9.891,2.624,18.901-0.042,27.032-5.948c4.993-3.627,9.382-7.927,13.532-12.487c6.569-7.218,12.197-15.125,17.332-23.396
				c2.233-3.597,4.467-7.202,6.481-10.921c2.394-4.422,4.743-8.878,6.562-13.582c3.469-7.204,6.306-14.557,6.246-22.754
				c-0.044-5.836-0.859-11.501-4.749-16.021c-6.886-8.002-15.581-10.62-25.817-7.634C79.609,263.101,71.503,267.655,63.091,271.497
				 M286.075,291.916c0.262-1.198-0.275-2.311-0.384-3.472c-0.773-8.224-1.644-16.435-2.3-24.672
				c-0.896-11.233-1.917-22.458-2.137-33.734c-0.018-0.95-0.146-1.897-0.176-2.846c-0.029-0.918-0.458-1.275-1.375-1.264
				c-7.62,0.083-15.239,0.159-22.859,0.189c-1.294,0.006-1.936,0.474-2.307,1.756c-3.033,10.514-6.131,21.008-9.21,31.508
				c-2.066,6.669-4.134,13.338-6.354,20.5c-0.412-0.969-0.611-1.358-0.745-1.769c-3.122-9.582-6.33-19.138-9.312-28.762
				c-1.286-4.151-3.141-8.115-4-12.398c-0.874-2.997-1.776-5.987-2.605-8.997c-0.322-1.173-0.919-1.583-2.171-1.552
				c-7.377,0.18-14.757,0.299-22.137,0.368c-1.289,0.011-1.616,0.5-1.573,1.688c0.286,7.969-0.448,15.919-0.501,23.882
				c-0.264,3.425-0.62,6.846-0.771,10.275c-0.273,6.215-0.62,12.424-1.301,18.608c-0.261,2.373,0.013,4.102,2.593,5.244
				c1.653,0.733,1.971,0.384,2.629-0.993c2.531-5.29,4.231-6.297,9.97-5.726c1.402,0.141,1.043-0.614,1.074-1.219
				c0.164-3.146,0.205-6.299,0.429-9.439c0.329-4.618,0.275-9.269,0.965-13.989c0.947,0.514,0.935,1.327,1.17,1.964
				c4.822,13.008,9.644,26.016,14.384,39.055c0.527,1.45,1.136,2.069,2.755,1.987c4.899-0.249,9.804-0.437,14.707-0.422
				c1.839,0.005,2.637-0.54,3.236-2.297c4.691-13.77,9.497-27.499,14.268-41.242c0.133,0.325,0.357,0.642,0.386,0.976
				c0.451,5.098,0.949,10.192,1.29,15.299c0.515,7.741,0.953,15.489,0.995,23.252c-0.028,0.506-0.012,1.019-0.092,1.516
				c-0.324,2.021,0.525,2.664,2.508,2.46c2.082-0.214,4.191-0.162,6.289-0.225c1.191,0.274,2.337-0.06,3.496-0.245
				c1.596,0.012,3.195,0.074,4.789,0.021c1.66-0.054,3.996,0.74,4.802-0.308C287.364,295.771,286.383,293.609,286.075,291.916
				 M149.699,225.397c-1.699-0.144-3.394-0.148-5.03,0.295c-6.019,1.634-11.843,3.781-17.316,6.809
				c-9.78,5.406-15.646,13.596-17.504,24.632c-0.208,1.233,0.059,1.979,1.361,2.718c5.925,3.359,10.92,7.607,12.546,14.696
				c1.299,5.666,1.339,11.33-0.124,16.948c-0.41,1.572-0.022,2.385,1.289,3.229c7.126,4.593,14.953,6.442,23.332,5.918
				c1.879-0.117,3.976-0.342,5.396-1.959c4.886-5.568,10.017-10.83,16.534-14.572c2.169-1.245,4.416-2.062,6.845-1.844
				c2.152,0.192,3.133-0.765,4.001-2.521c3.812-7.704,4.54-15.812,3.303-24.177c-1.039-7.026-3.668-13.382-8.477-18.7
				C168.861,229.137,159.887,225.861,149.699,225.397 M70.859,286.181c0.871,0.411,1.61,0.596,2.331,1.049
				c3.717,2.331,4.604,7.146,1.587,10.392c-2.181,2.347-3.759,4.957-5.204,7.778c-1.794,3.502-3.496,7.076-5.748,10.334
				c-5.735,8.297-11.549,16.526-15.588,25.868c-1.986,4.594-3.374,9.306-4.366,14.176c-0.253,1.242,0.405,1.493,1.306,1.207
				c2.352-0.746,4.881-0.832,7.069-2.213c6.343-4.004,12.053-8.757,16.78-14.562c6.547-8.041,12.605-16.357,17.259-25.771
				c4.095-8.281,8.976-16.197,12.491-24.771c1.696-4.134,3.5-8.332,2.765-13.084c-0.278-1.799-1.164-2.245-2.643-2.033
				c-2.098,0.302-4.138,0.839-6.08,1.758c-4.064,1.922-8.15,3.801-12.251,5.646C77.349,283.401,74.097,284.774,70.859,286.181
				 M157.411,299.034c-0.051-0.33-0.183-0.583-0.541-0.452c-0.647,0.236-1.104,0.707-1.273,1.372
				c-0.075,0.297,0.133,0.57,0.502,0.444C156.763,300.172,157.119,299.63,157.411,299.034 M114.799,265.291l0.122,0.085l0.023-0.114
				L114.799,265.291z"/>
			<path clip-path="url(#SVGID_4_)" fill-rule="evenodd" clip-rule="evenodd" fill="#F6F7F5" d="M398.467,123.755
				c-2.01-6.124-4.575-12.028-7.166-17.917c-8.075-18.347-5.941-36.076,3.181-53.375c1.155-2.19,2.576-4.245,3.936-6.322
				c0.747-1.142,1.753-2.122,3.257-1.715c1.542,0.417,1.731,1.884,1.879,3.183c0.387,3.398,1.143,6.718,1.88,10.104
				c0.548-0.298,0.351-0.75,0.319-1.074c-1.619-16.843,4.384-31.395,13.515-45.006c0.365-0.545,0.758-1.075,1.16-1.594
				c0.754-0.975,1.652-1.766,2.98-1.306c1.269,0.439,1.735,1.519,1.72,2.787c-0.037,2.934,0.355,5.855,0.37,8.771
				c0.054,10.523,2.687,20.341,7.395,29.696c3.056,6.074,6.103,12.163,8.851,18.378c5.459,12.351,4.755,24.864,0.405,37.354
				c-2.371,6.811-5.746,13.121-9.854,19.041c-0.333,0.479-0.727,0.916-1.094,1.37c-0.721,0.895-1.645,1.236-2.725,0.823
				c-1.148-0.438-1.377-1.436-1.259-2.525c0.35-3.193,0.629-6.339,0.252-9.601c-0.739-6.393-2.585-12.429-5.001-18.327
				c-2.944-7.19-6.69-13.969-10.723-20.596c-0.143-0.235-0.238-0.555-0.736-0.49c-0.571,0.576,0.053,1.166,0.238,1.66
				c2.188,5.832,4.846,11.449,7.889,16.881c4.402,7.857,6.422,16.323,5.932,25.269c-0.465,8.479-2.813,16.516-6.703,24.099
				c-0.947,1.848-2.184,2.768-4.304,2.658c-2.191-0.115-4.395-0.011-6.593-0.015c-1.818-0.003-2.797-0.843-3.039-2.729
				c-0.352-2.74-0.949-5.44-2.019-8.01c-0.071-0.384,0.05-0.842-0.564-1.174c0.047,0.568,0.086,1.042,0.125,1.514
				c0.457,1.802,0.322,3.641,0.271,5.463c-0.045,1.592-0.87,2.641-2.549,2.741c-8.703,0.518-17.417,0.437-26.13,0.412
				c-1.626-0.005-2.404-1.162-3.045-2.464c-3.712-7.542-6.104-15.452-7.06-23.832c-1.035-9.07,0.086-17.795,3.604-26.203
				c2.224-5.314,5.37-10.044,9.262-14.289c0.943-1.027,1.969-1.802,3.448-1.344c1.423,0.44,1.457,1.724,1.542,2.877
				c0.392,5.38,0.676,10.769,1.584,16.1c0.957,5.628,2.057,11.218,4.458,16.448c1.26,2.745,2.853,5.238,5.344,7.105
				c2.123,1.591,3.75,3.691,5.309,5.828c0.258,0.35,0.102,0.949,0.693,1.15C398.665,124.924,399.031,124.284,398.467,123.755
				 M418.854,83.495c2.651,5.519,5.465,10.966,7.463,16.776c2.193,6.375,3.709,12.869,3.688,19.668
				c-0.004,1.375-0.821,2.721-0.152,4.5c9.966-14.761,16.03-30.13,12.315-48.022c-0.626-1.937-1.062-3.962-1.91-5.795
				c-3.284-7.094-6.667-14.144-10.075-21.18c-4.389-9.059-6.799-18.547-6.956-28.66c-0.048-3.146-0.317-6.326-0.642-9.616
				c-0.4,0.199-0.569,0.518-0.774,0.809c-3.855,5.456-7.146,11.225-9.609,17.446c-3.913,9.882-5.633,20.012-3.795,30.636
				C409.916,68.778,414.287,76.166,418.854,83.495 M401.146,46.915c-1.035,0.415-1.34,1.106-1.745,1.706
				c-2.264,3.338-4.159,6.876-5.733,10.587c-6.509,15.347-7.053,30.656-0.173,46.115c4.713,10.591,9.007,21.367,12.174,32.551
				c0.544,1.918,0.063,4.674,1.636,5.589c1.538,0.897,3.998,0.109,6.032,0.295c1.756,0.159,2.664-0.564,3.373-2.068
				c3.037-6.439,5.096-13.102,5.869-20.239c1.004-9.251-0.771-17.873-5.145-25.945c-4.158-7.673-7.783-15.549-10.464-23.855
				C404.379,63.621,402.346,55.458,401.146,46.915 M378.815,78.14c-3.094,2.928-5.354,6.133-7.291,9.561
				c-5.241,9.278-7.039,19.216-5.858,29.806c0.893,8.02,3.15,15.583,6.658,22.814c0.471,0.973,0.939,1.683,2.241,1.678
				c7.981-0.031,15.96-0.065,23.937-0.401c1.302-0.055,1.573-0.572,1.564-1.735c-0.057-7.886-2.757-14.596-8.919-19.657
				c-2.274-1.869-3.973-4.089-5.241-6.671c-3.864-7.862-5.035-16.384-6.116-24.941C379.366,85.225,379.639,81.791,378.815,78.14
				 M409.477,72.721l0.531-0.121c-0.032-0.864-0.35-1.62-1.25-2.175C408.998,71.19,409.237,71.956,409.477,72.721 M410.999,75.264
				c0-0.203,0.033-0.39-0.006-0.406c-0.161-0.069-0.374-0.16-0.509-0.103c-0.229,0.098-0.179,0.309,0.023,0.412
				C410.649,75.237,410.83,75.233,410.999,75.264 M408.691,69.072c-0.083,0.086-0.209,0.158-0.215,0.238
				c-0.008,0.118,0.069,0.242,0.11,0.364c0.075-0.072,0.207-0.14,0.214-0.217C408.812,69.338,408.736,69.212,408.691,69.072
				 M408.358,68.122c-0.049-0.123-0.099-0.248-0.147-0.373c-0.047,0.051-0.132,0.104-0.134,0.158
				c-0.006,0.129,0.028,0.259,0.047,0.389C408.2,68.239,408.275,68.183,408.358,68.122"/>
			<path clip-path="url(#SVGID_4_)" fill-rule="evenodd" clip-rule="evenodd" fill="#F6F7F5" d="M299.894,346.135
				c-0.545,10.963-0.968,21.254-0.806,31.562c0.047,2.995-0.848,3.951-3.841,3.958c-4.983,0.012-9.965,0.022-14.948,0.006
				c-2.733-0.009-3.71-1.116-3.376-3.827c1.659-13.446,2.345-26.966,3.124-40.48c0.539-9.362,0.914-18.726,0.911-28.104
				c0-2.953,0.827-3.692,3.831-3.706c7.474-0.033,14.949,0.015,22.421-0.108c2.31-0.038,3.366,0.825,4.005,3.052
				c4.312,15.003,9.352,29.778,14.407,45.156c1.276-4.12,2.428-7.709,3.502-11.323c3.455-11.623,7.187-23.164,10.251-34.902
				c0.407-1.561,1.369-2.318,2.985-2.344c8.125-0.129,16.249-0.301,24.374-0.403c2.554-0.031,3.412,0.881,3.449,3.42
				c0.158,10.751,1.094,21.459,1.838,32.175c0.546,7.842,1.289,15.675,2.17,23.485c0.471,4.178,0.741,8.387,1.615,12.522
				c0.672,3.178-0.511,4.49-3.765,4.511c-6.301,0.036-12.602,0.08-18.902,0.125c-3.204,0.023-4.004-0.754-3.994-4.021
				c0.028-10.113-0.578-20.194-1.386-30.799c-1.711,3.327-2.507,6.453-3.583,9.457c-2.688,7.5-5.299,15.028-7.836,22.581
				c-0.624,1.859-1.628,2.671-3.599,2.845c-5.694,0.505-11.418,0.023-17.105,0.668c-2.404,0.271-3.261-1.496-3.937-3.372
				c-2.82-7.841-5.631-15.684-8.479-23.514C302.24,352.058,301.158,349.399,299.894,346.135 M331.41,342.881
				c-1.84,5.824-3.68,11.648-5.579,17.666c-1.18-1.315-1.025-2.847-1.792-3.98c-0.063-0.359-0.084-0.731-0.197-1.075
				c-5.063-15.401-10.131-30.803-14.812-46.325c-0.354-1.172-0.936-1.456-2.029-1.449c-7.251,0.046-14.501,0.085-21.75,0.041
				c-1.604-0.009-2.14,0.485-2.148,2.139c-0.034,6.073-0.066,12.143-0.356,18.22c-0.792,16.659-1.673,33.306-3.551,49.885
				c-0.116,1.018,0.118,1.503,1.239,1.457c1.901-0.077,3.806-0.064,5.709-0.089c2.993,0.013,5.986,0.012,8.979,0.046
				c0.982,0.012,1.675-0.103,1.682-1.379c0.034-6.421,0.129-12.841,0.203-19.26c0.38-7.404,0.759-14.808,1.139-22.212
				c0.199-0.006,0.398-0.014,0.599-0.02c0.215,0.527,0.442,1.051,0.643,1.583c2.646,7.028,5.288,14.059,7.931,21.088
				c2.235,6.251,4.467,12.505,6.715,18.753c0.271,0.752,0.525,1.548,1.638,1.399c5.529-0.74,11.118-0.026,16.659-0.675
				c1.138-0.132,1.674-0.562,2.021-1.577c3.991-11.689,8.004-23.369,12.013-35.054c0.79-2.07,1.58-4.14,2.402-6.296
				c0.745,1.22,0.636,2.469,0.831,3.653c0.148,2.203,0.298,4.408,0.447,6.611c0.265,4.511,0.427,9.033,0.821,13.533
				c0.511,5.837,0.331,11.689,0.656,17.528c0.052,0.925,0.207,1.544,1.323,1.536c6.587-0.041,13.173-0.057,19.759-0.073
				c0.724-0.002,1.084-0.262,0.977-1.048c-0.537-3.899-1.056-7.8-1.58-11.699c-0.639-7.566-1.221-15.138-1.925-22.697
				c-1.043-11.203-1.886-22.418-2.06-33.67c-0.03-1.99-0.549-2.661-2.597-2.593c-7.306,0.243-14.617,0.356-21.927,0.416
				c-1.402,0.012-1.896,0.598-2.229,1.806c-1.293,4.708-2.654,9.397-3.99,14.094c-0.163,0.549-0.323,1.099-0.486,1.648
				C334.994,330.836,333.202,336.857,331.41,342.881"/>
			<path clip-path="url(#SVGID_4_)" fill-rule="evenodd" clip-rule="evenodd" fill="#F6F7F5" d="M341.353,271.806
				c2.378-7.87,4.607-15.12,6.756-22.394c2.297-7.782,4.51-15.588,6.772-23.381c0.846-2.911,1.235-3.142,4.338-3.186
				c7.541-0.109,15.082-0.25,22.622-0.389c3.147-0.06,4.047,0.802,4.102,3.962c0.257,15.161,1.667,30.245,2.994,45.336
				c0.706,8.017,1.51,16.019,2.693,23.982c0.291,1.962-1.264,2.685-2.742,2.71c-7.18,0.121-14.362,0.107-21.543,0.049
				c-1.724-0.015-2.351-1.325-2.366-2.873c-0.061-6.227-0.126-12.45-0.549-18.666c-0.303-4.433-0.546-8.868-1.229-13.374
				c-1.019,2.862-2.055,5.718-3.049,8.588c-2.702,7.81-5.414,15.617-8.062,23.445c-0.664,1.965-1.739,2.811-3.938,3.032
				c-5.554,0.561-11.134-0.042-16.671,0.647c-2.108,0.262-3.188-0.979-3.848-2.831c-2.397-6.749-4.823-13.486-7.266-20.217
				c-1.435-3.955-2.918-7.891-4.555-11.808c-0.763,6.678-0.87,13.356-1.052,20.028c-0.104,3.808-0.009,7.621-0.019,11.433
				c-0.007,2.396-0.698,3.351-2.989,3.403c-5.493,0.129-10.992,0.143-16.486,0.074c-2.012-0.024-2.739-1.354-2.552-3.298
				c0.503-5.238,1.037-10.476,1.43-15.724c0.61-8.174,1.136-16.353,1.657-24.532c0.616-9.651,0.961-19.311,0.97-28.983
				c0.002-2.53,1.133-3.521,3.708-3.531c7.549-0.023,15.098,0.003,22.646-0.044c1.958-0.014,3.015,0.691,3.595,2.698
				C331.104,241.147,336.365,256.052,341.353,271.806 M355.138,279.161c2.613-6.143,4.624-12.5,6.707-18.831
				c0.891-2.283,1.781-4.565,2.673-6.848c0.192,0.016,0.385,0.031,0.578,0.047c0.671,9.572,1.343,19.145,2.014,28.717
				c-0.028,4.158-0.056,8.312,0.204,12.47c0.075,1.219,0.428,1.649,1.658,1.639c6.205-0.055,12.41-0.069,18.615-0.033
				c1.274,0.007,1.698-0.438,1.526-1.674c-0.41-2.956-0.768-5.92-1.147-8.881c-0.1-1.313-0.173-2.629-0.304-3.94
				c-1.833-18.333-3.565-36.676-3.895-55.114c-0.029-1.66-0.521-2.141-2.156-2.062c-7.525,0.367-15.059,0.529-22.593,0.398
				c-1.187-0.021-1.684,0.44-1.985,1.485c-2.904,10.073-5.833,20.139-8.754,30.209c-1.963,6.572-3.926,13.146-5.888,19.72
				c-0.487,0.439-0.363,1.068-0.507,1.615c-1.216,0.06-1.056-1.001-1.271-1.661c-5.338-16.418-11.037-32.722-15.852-49.31
				c-0.281-0.971-0.594-1.638-1.875-1.624c-7.394,0.08-14.788,0.087-22.182,0.054c-1.367-0.006-1.773,0.523-1.759,1.818
				c0.138,11.86-0.608,23.687-1.304,35.519c-0.639,10.87-1.423,21.725-2.6,32.549c-0.235,1.064-0.213,1.823,1.271,1.802
				c4.816-0.068,9.634-0.061,14.451-0.034c1.291,0.007,1.82-0.458,1.783-1.804c-0.088-3.209-0.061-6.421-0.08-9.631
				c0.259-10.589,0.723-21.167,1.705-31.771c1.196,2.509,2.199,5.05,3.152,7.608c3.382,9.083,6.749,18.173,10.119,27.261
				c0.43,1.318,0.84,2.643,1.292,3.953c1.403,4.057,1.41,4.017,5.726,3.979c4.466-0.039,8.93-0.032,13.383-0.447
				c0.818-0.076,1.615,0.016,1.927-1.007C351.428,289.898,353.744,284.683,355.138,279.161"/>
			<path clip-path="url(#SVGID_4_)" fill-rule="evenodd" clip-rule="evenodd" fill="#F6F7F5" d="M419.096,177.168
				c-2.428,0-4.872-0.181-7.28,0.035c-6.583,0.59-13.173,0.353-19.759,0.334c-4.012-0.011-8.097,0.672-12.027-0.435
				c-8.232-2.32-16.088-5.439-22.323-11.635c-2.826-2.809-4.287-6.222-4.595-10.156c-0.207-2.642,1.156-4.087,3.882-4.108
				c9.159-0.069,18.323,0.052,27.475-0.228c13.623-0.416,27.251,0.13,40.865-0.383c12.89-0.486,25.782,0.011,38.666-0.387
				c3.433-0.106,6.862-0.331,10.299-0.265c2.933,0.055,3.958,1.376,3.356,4.219c-2.501,11.818-11.297,20.175-23.264,22.101
				c-0.072,0.012-0.158-0.016-0.217,0.015c-1.611,0.84-3.868-0.389-4.979,0.872c-1.016,1.152-0.394,3.223-0.606,4.885
				c-0.667,5.2-0.989,10.445-1.462,15.671c-0.448,4.936-0.864,9.877-1.403,14.804c-0.257,2.34-1.628,3.212-3.887,2.377
				c-9.471-3.504-19.253-3.69-29.169-3.144c-7.304,0.402-14.63,0.43-21.943,0.644c-1.787,0.052-2.769-0.833-2.967-2.534
				c-0.896-7.692-1.803-15.383-2.605-23.085c-0.381-3.646,0.521-4.388,4.188-4.844c6.929-0.861,13.83-1.938,20.748-2.899
				c3.014-0.418,6.037-0.771,9.057-1.155C419.128,177.634,419.112,177.4,419.096,177.168 M375.884,173.512
				c5.368,2.415,11.052,1.888,16.691,1.778c0.799,0.022,1.599,0.044,2.398,0.069c8.44,0.25,16.861-0.711,25.304-0.387
				c0.637,1.149,1.272,2.3,1.91,3.449c0.502,0.902,0.271,1.282-0.792,1.389c-2.604,0.264-5.203,0.598-7.797,0.964
				c-7.92,1.117-15.831,2.294-23.755,3.379c-2.625,0.359-2.778,0.483-2.463,3.054c0.863,7.036,1.764,14.069,2.473,21.122
				c0.164,1.639,0.774,1.878,2.161,1.8c6.433-0.371,12.871-0.573,19.317-0.494c0.435,0.006,0.869-0.118,1.307-0.145
				c9.223-0.574,18.381-0.388,27.31,2.384c3.276,1.018,3.27,1.037,3.675-2.424c0.018-0.146,0.047-0.289,0.062-0.435
				c0.556-5.584,1.124-11.168,1.662-16.755c0.489-5.079,0.973-10.159,1.407-15.244c0.162-1.895,1.074-2.749,2.976-2.534
				c1.547,0.175,3.04-0.211,4.55-0.443c10.382-1.601,18.963-9.712,21.101-19.726c0.427-1.996-0.23-2.252-1.904-2.194
				c-6.142,0.208-12.285,0.341-18.429,0.503c-9.88-0.001-19.754-0.171-29.638,0.215c-13.681,0.535-27.379-0.087-41.07,0.419
				c-8.854,0.327-17.729,0.179-26.592,0.115c-1.937-0.014-2.35,0.669-2.243,2.436c0.183,3.006,1.411,5.477,3.392,7.634
				C363.543,168.504,369.628,171.155,375.884,173.512"/>
			<path clip-path="url(#SVGID_4_)" fill-rule="evenodd" clip-rule="evenodd" fill="#F6F7F5" d="M553.443,367.778
				c-0.761,0.441-1.234,0.647-1.627,0.955c-8.506,6.682-18.02,6.467-27.746,3.811c-25.574-6.983-28.053-37.938-14.049-52.807
				c6.696-7.109,15.282-10.772,24.312-13.748c17.993-5.932,38.637,4.673,45.224,24.352c2.775,8.29,3.725,16.742,3.6,25.419
				c-0.116,8.042-1.293,15.867-4.311,23.336c-4.431,10.963-11.963,19.128-22.564,24.407c-6.123,3.049-12.552,5.321-19.262,6.58
				c-6.66,1.249-13.25-0.073-19.777-1.404c-2.073-0.422-4.12-1.021-6.135-1.673c-2.117-0.687-2.734-1.962-2.015-4.067
				c1.913-5.604,3.86-11.195,5.827-16.781c0.838-2.381,2.057-2.907,4.392-1.899c5.021,2.17,10.206,3.569,15.721,3.531
				c7.407-0.051,12.7-3.375,15.747-10.165C552.132,374.609,552.911,371.438,553.443,367.778 M579.88,341.221
				c0.021-2.29-0.679-4.458-1.32-6.601c-3.274-10.935-8.962-20.045-19.897-24.773c-7.247-3.135-14.76-4.659-22.564-2.029
				c-3.32,1.119-6.652,2.233-9.891,3.565c-15.255,6.277-22.916,17.536-22.276,32.99c0.263,6.34,2.225,12.183,6.488,17.076
				c14.527,13.772,29.717,14.178,45.567,1.885c0.111,0.615,0.229,0.887,0.197,1.141c-0.604,4.701-1.331,9.376-3.254,13.768
				c-3.412,7.794-9.403,11.681-17.885,11.766c-5.576,0.057-10.877-1.236-15.929-3.492c-1.523-0.681-2.004-0.225-2.446,1.134
				c-1.171,3.592-2.456,7.146-3.638,10.733c-0.671,2.038-2.556,4.416-1.647,6.03c0.915,1.625,3.876,1.624,6.003,2.053
				c7.043,1.42,14.124,2.688,21.303,1.027c4.825-1.116,9.395-2.964,13.969-4.878c10.848-4.539,18.62-12.104,23.426-22.779
				c3.85-8.551,5.018-17.601,4.831-26.872C580.837,349.032,580.961,345.069,579.88,341.221"/>
			<path clip-path="url(#SVGID_4_)" fill-rule="evenodd" clip-rule="evenodd" fill="#F6F7F5" d="M558.843,246.771
				c-0.156,11.736-2.328,26.333-7.045,40.518c-1.223,3.679-4.216,5.932-7.836,5.95c-3.3,0.016-6.673-2.375-7.681-5.568
				c-0.586-1.854-0.492-3.732,0.117-5.605c4.478-13.752,6.651-27.877,6.091-42.316c-1.211-31.221-12.054-58.585-33.316-81.668
				c-5.123-5.562-10.623-10.696-16.658-15.272c-3.67-2.783-4.4-7.899-1.82-11.317c2.8-3.711,7.602-4.528,11.465-1.67
				c12.048,8.917,22.23,19.665,30.865,31.899c11.947,16.927,19.623,35.666,23.489,55.963
				C558.14,226.22,558.896,234.876,558.843,246.771 M513.708,142.738c-4.013-4.153-8.369-7.92-13.068-11.265
				c-2.757-1.962-6.127-1.289-8.135,1.383c-1.767,2.351-1.453,5.896,1.02,7.846c4.298,3.389,8.408,6.987,12.473,10.644
				c2.453,2.599,4.908,5.196,7.362,7.794c0.241,0.363,0.443,0.76,0.729,1.083c8.538,9.703,15.141,20.602,20.22,32.463
				c5.705,13.321,9.071,27.166,10.12,41.645c0.616,8.52,0.267,16.967-0.722,25.396c-0.935,7.976-2.823,15.766-5.301,23.417
				c-1.104,3.413,0.552,6.41,3.853,7.478c3.311,1.071,6.239-0.536,7.467-4.168c3.446-10.195,5.46-20.702,6.418-31.395
				c0.888-9.932,0.512-19.841-0.755-29.752c-1.404-10.978-4.113-21.59-8.041-31.906c-5.595-14.693-13.394-28.096-23.657-40.036
				C520.594,149.606,517.394,145.944,513.708,142.738"/>
			<path clip-path="url(#SVGID_4_)" fill-rule="evenodd" clip-rule="evenodd" fill="#F6F7F5" d="M425.13,298.303
				c-8.276,0-16.554-0.007-24.83,0.004c-2.321,0.004-3.427-1.136-3.27-3.616c0.662-10.455,0.916-20.922,0.742-31.392
				c-0.171-10.317-0.492-20.631-0.881-30.942c-0.08-2.109-0.328-4.222-0.391-6.345c-0.092-3.125,0.616-3.936,3.727-3.946
				c10.993-0.034,21.984-0.088,32.977-0.063c5.13,0.012,10.232-0.693,15.368-0.468c2.474,0.108,3.534,1.242,3.247,3.529
				c-0.427,3.401-0.866,6.804-1.146,10.219c-0.481,5.882-0.881,6.253-6.833,6.516c-2.579,0.114-5.127-0.169-7.635-0.538
				c-4.089-0.604-8.184-0.178-12.265-0.464c-1.17-0.083-1.513,0.345-1.466,1.492c0.085,2.122,0.134,4.256-0.012,6.373
				c-0.105,1.5,0.548,1.666,1.773,1.594c4.824-0.283,9.653-0.485,14.479-0.75c3.424-0.188,4.238,0.538,4.034,3.922
				c-0.261,4.306-0.584,8.607-0.922,12.907c-0.16,2.047-1.213,2.925-3.413,2.733c-4.75-0.409-9.515-0.292-14.269-0.486
				c-1.347-0.056-1.619,0.366-1.547,1.561c0.16,2.629,0.286,5.263,0.313,7.896c0.009,1,0.365,1.197,1.276,1.199
				c6.654,0.021,13.289-0.119,19.883-1.22c2.896-0.483,5.844-0.237,8.719,0.427c1.642,0.379,2.212,1.641,2.084,3.158
				c-0.37,4.371-0.78,8.74-1.267,13.101c-0.302,2.696-1.147,3.382-3.854,3.384c-8.207,0.013-16.415,0.006-24.622,0.006
				C425.13,298.161,425.13,298.231,425.13,298.303 M399.709,287.951c-0.229,1.958,0.13,3.954-0.377,5.895
				c-0.443,1.696,0.255,2.106,1.921,2.098c14.991-0.074,29.984-0.069,44.977-0.079c5.149-0.004,5.149,0.006,5.348-5.243
				c0.587-2.943,0.692-5.938,0.952-8.918c0.074-0.845-0.367-1.07-1.136-1.248c-2.249-0.519-4.563-0.666-6.77-0.271
				c-7.321,1.307-14.695,1.234-22.077,1.263c-1.258,0.006-1.839-0.286-1.855-1.695c-0.042-3.805-0.183-7.61-0.394-11.41
				c-0.086-1.541,0.416-2.093,1.974-2.019c5.263,0.25,10.546-0.116,15.799,0.494c0.903,0.104,1.514,0.05,1.586-1.152
				c0.223-3.719,0.632-7.427,0.832-11.146c0.152-2.813,0.06-2.817-2.85-2.669c-5.116,0.262-10.232,0.529-15.35,0.771
				c-1.053,0.051-2.06,0.083-2.029-1.519c0.069-3.662,0.028-7.326,0.021-10.989c-0.002-0.81,0.116-1.354,1.158-1.441
				c4.612-0.385,9.219-0.06,13.809,0.2c3.618,0.204,7.156,0.973,10.859,0.385c1.909-0.304,2.208-1.124,2.325-2.632
				c0.284-3.639,0.446-7.302,1.017-10.897c0.306-1.926-0.374-2.031-1.871-1.976c-5.338,0.194-10.68,0.399-16.021,0.442
				c-10.258,0.081-20.516,0.067-30.773,0.058c-1.312-0.001-2.232-0.002-2.092,1.825c0.155,2.039,0.364,4.083,0.433,6.121
				c0.364,10.678,0.626,21.36,0.889,32.042C400.206,272.146,399.878,280.048,399.709,287.951"/>
			<path clip-path="url(#SVGID_4_)" fill-rule="evenodd" clip-rule="evenodd" fill="#F6F7F5" d="M511.204,297.328
				c-2.344,0-4.688-0.048-7.031,0.018c-1.599,0.044-2.731-0.426-3.638-1.874c-4.113-6.578-8.941-12.648-13.633-18.812
				c-0.266-0.349-0.601-0.646-0.854-1.003c-0.431-0.607-1.047-0.518-1.586-0.361c-0.557,0.16-0.341,0.742-0.319,1.134
				c0.312,5.7,0.586,11.403,1.009,17.096c0.199,2.654-0.495,3.639-3.168,3.7c-6.44,0.148-12.881,0.313-19.32,0.414
				c-3.179,0.049-3.866-0.707-3.7-3.894c0.771-14.719,0.628-29.45,0.352-44.172c-0.146-7.823-0.338-15.66-1.089-23.465
				c-0.322-3.351,0.594-4.564,3.739-4.503c9.231,0.181,18.378-1.097,27.576-1.417c8.473-0.294,16.354,1.62,22.784,7.39
				c11.463,10.287,10.039,28.645-2.76,37.758c-2.204,1.568-2.227,1.593-0.217,3.555c4.562,4.45,9.126,8.898,13.744,13.292
				c1.254,1.191,1.922,2.487,1.876,4.24c-0.061,2.343,0.045,4.688,0.038,7.033c-0.008,2.373-0.759,3.122-3.062,3.362
				C518.372,297.19,514.791,297.271,511.204,297.328 M461.312,291.905c-0.268,3.53-0.268,3.515,3.271,3.531
				c4.61,0.021,9.213-0.165,13.819-0.344c4.527-0.177,4.532-0.042,4.255-4.502c0.005-0.365,0.036-0.732,0.017-1.096
				c-0.264-4.813-0.551-9.626-0.783-14.441c-0.032-0.667-0.335-1.498,0.528-1.955c1.148-0.608,4.555,0.09,5.368,1.161
				c4.148,5.465,8.275,10.946,12.409,16.42c0.615,0.992,1.233,1.982,1.845,2.976c0.469,0.763,0.938,1.448,2.018,1.411
				c5.841-0.207,11.694,0.139,17.527-0.462c0.965-0.099,1.317-0.445,1.122-1.371c0.012-1.825-0.088-3.661,0.068-5.475
				c0.172-2.002-0.554-3.377-2.012-4.755c-5.258-4.967-10.369-10.088-15.552-15.135c-0.936-0.912-1.416-1.606,0.134-2.467
				c6.066-3.363,10.187-8.283,11.777-15.147c0.574-0.774,0.338-1.697,0.425-2.548c0.881-8.568-1.99-15.529-9.192-20.392
				c-9.305-6.28-19.651-5.312-30.008-3.968c-5.413,0.025-10.812,0.701-16.231,0.432c-1.515-0.076-1.817,0.632-1.699,2.028
				c0.826,9.709,1.17,19.445,1.218,29.186C461.695,267.296,461.909,279.605,461.312,291.905"/>
			<path clip-path="url(#SVGID_4_)" fill-rule="evenodd" clip-rule="evenodd" fill="#F6F7F5" d="M469.914,337.205
				c-3.856,0.918-7.244,1.733-10.638,2.528c-3.325,0.779-4.124,0.331-5.114-2.888c-0.965-3.132-1.912-6.268-2.845-9.407
				c-0.797-2.683-0.343-3.715,2.301-4.75c10.83-4.247,21.444-8.986,31.927-14.024c1.48-0.711,2.916-0.84,4.382-0.027
				c0.063,0.034,0.139,0.049,0.207,0.075c4.487,1.757,6.903,4.082,6.454,9.861c-1.274,16.364-0.769,32.81-0.484,49.22
				c0.177,10.097,0.742,20.188,1.178,30.279c0.241,5.577,0.282,5.529-5.326,5.599c-6.372,0.077-12.74,0.276-19.111,0.37
				c-3.072,0.045-3.933-0.944-3.692-4.003c1.325-16.826,0.744-33.681,0.762-50.527C469.918,345.49,469.914,341.469,469.914,337.205
				 M493.695,365.83c0.025-0.803,0.072-1.606,0.07-2.41c-0.029-15.454-0.404-30.917,0.538-46.349
				c0.185-3.015-0.729-4.453-3.261-5.392c-0.547-0.204-1.063-0.497-1.568-0.792c-1.11-0.65-2.142-0.585-3.319-0.026
				c-10.307,4.894-20.697,9.604-31.348,13.711c-1.387,0.534-1.724,1.206-1.225,2.65c1.001,2.9,1.927,5.839,2.636,8.821
				c0.415,1.748,1.313,1.806,2.705,1.471c3.755-0.898,7.534-1.694,11.273-2.649c1.16-0.297,1.618-0.169,1.635,1.105
				c0.026,2.118,0.216,4.235,0.235,6.354c0.086,9.598,0.136,19.194,0.197,28.791c-0.086,9.792-0.021,19.589-0.932,29.354
				c-0.101,1.077,0.308,1.407,1.351,1.383c7.162-0.159,14.326-0.298,21.49-0.399c1.143-0.016,1.244-0.456,1.146-1.481
				c-0.677-7.201-0.973-14.424-1.171-21.651C494.034,374.155,493.849,369.994,493.695,365.83"/>
			<path clip-path="url(#SVGID_4_)" fill-rule="evenodd" clip-rule="evenodd" fill="#F6F7F5" d="M394.697,380.612
				c-3.22,0-6.439,0.013-9.659-0.003c-3.071-0.014-3.806-1.107-3.588-4.176c0.339-4.742,0.468-9.505,0.528-14.261
				c0.172-13.477,0.014-26.951-0.451-40.42c-0.156-4.532-0.594-9.054-0.807-13.585c-0.127-2.713,0.713-3.471,3.467-3.536
				c8.69-0.204,17.342-0.988,26.008-1.626c11.181-0.822,23.647,2.921,29.361,14.551c6.488,13.207,2.772,29.522-11.986,37.66
				c-5.149,2.839-10.55,5.007-16.265,6.393c-0.354,0.086-0.706,0.197-1.067,0.239c-3.235,0.372-3.178,0.364-2.924,3.724
				c0.292,3.867,0.505,7.741,0.681,11.616c0.098,2.166-0.792,3.104-2.967,3.138c-3.443,0.056-6.888,0.015-10.332,0.015
				C394.697,380.432,394.697,380.522,394.697,380.612 M404.991,366.692c-0.031-1.538,0.05-3.089-0.12-4.61
				c-0.207-1.879,0.322-2.726,2.361-2.473c1.141,0.142,2.363,0.085,3.485-0.167c5.382-1.213,10.47-3.246,15.269-5.952
				c12.022-6.782,15.856-16.796,13.742-28.447c-2.766-15.226-16.888-20.652-29.203-19.781c-8.385,0.594-16.751,1.503-25.163,1.54
				c-2.079,0.01-2.65,0.628-2.436,2.599c0.947,8.667,1.032,17.384,1.216,26.085c0.21,9.96,0.099,19.929,0.128,29.894
				c-0.169,3.651-0.296,7.306-0.53,10.952c-0.089,1.388,0.266,1.965,1.775,1.939c6.221-0.105,12.442-0.134,18.662-0.124
				c1.231,0.002,1.713-0.36,1.597-1.63C405.473,373.245,405.247,369.968,404.991,366.692"/>
			<path clip-path="url(#SVGID_4_)" fill-rule="evenodd" clip-rule="evenodd" fill="#F6F7F5" d="M279.063,206.112
				c-0.035-2.233,0.655-3.877,1.185-5.537c8.923-28.013,25.047-51.046,48.045-69.305c3.816-3.031,8.691-2.591,11.556,0.98
				c2.979,3.714,2.577,8.624-1.275,11.684c-10.342,8.215-19.305,17.689-26.749,28.6c-7.351,10.772-12.84,22.423-16.518,34.934
				c-0.98,3.334-2.934,5.609-6.582,6.237C283.556,214.596,279.04,210.908,279.063,206.112 M294.729,201.809
				c2.895-8.237,6.394-16.195,10.892-23.694c8.181-13.64,18.388-25.503,30.915-35.348c3.396-2.67,3.93-6.197,1.544-9.163
				c-2.263-2.812-5.635-2.782-9.095-0.022c-19.483,15.542-33.888,34.876-43.203,57.978c-1.797,4.455-3.592,8.941-4.393,13.729
				c-0.12,3.188,1.58,5.592,4.351,6.148c3.333,0.671,6.045-0.714,7.172-3.796C293.611,205.73,294.13,203.754,294.729,201.809"/>
			<path clip-path="url(#SVGID_4_)" fill-rule="evenodd" clip-rule="evenodd" fill="#F6F7F5" d="M448.645,145.924
				c-6.513,0-13.025,0.017-19.538-0.014c-1.331-0.007-2.906,0.483-3.737-1.115c-0.887-1.708,0.227-2.913,1.217-4.101
				c9.468-11.35,16.14-24.145,19.832-38.464c2.424-9.401,3.409-18.921,2.119-28.605c-0.16-1.202,0.28-2.238,1.31-2.806
				c0.98-0.541,1.964-0.219,2.812,0.541c8.715,7.817,14.609,17.242,16.458,28.951c2.444,15.482-1.675,29.637-8.781,43.186
				c-0.737,1.407-1.801,2.017-3.338,2.007c-2.785-0.021-5.568-0.006-8.352-0.006C448.645,145.64,448.645,145.782,448.645,145.924
				 M451.171,73.24c-0.09-0.073-0.232-0.227-0.261-0.208c-0.224,0.15-0.107,0.294,0.045,0.423c0.735,7.799,0.357,15.533-1.02,23.257
				c-1.53,8.581-4.541,16.646-8.028,24.571c-2.443,4.668-5.121,9.201-7.975,13.629c-2.162,2.805-4.325,5.61-6.674,8.657
				c0.594,0.07,0.856,0.127,1.119,0.127c9.438,0,18.866-0.667,28.307-0.405c1.095,0.03,1.524-0.547,1.97-1.369
				c2.617-4.826,4.674-9.879,6.207-15.147c3.48-11.968,4.173-23.915-0.632-35.71C461.376,84.062,457.09,78.034,451.171,73.24"/>
			<path clip-path="url(#SVGID_4_)" fill-rule="evenodd" clip-rule="evenodd" fill="#F6F7F5" d="M186.418,198.082
				c0-2.489-0.036-4.977,0.01-7.463c0.048-2.644,0.98-3.563,3.57-3.669c6.202-0.255,6.622,0.156,6.667,6.312
				c0.027,3.515,0.172,7.029,0.139,10.542c-0.012,1.411,0.57,2.101,1.872,2.11c1.354,0.009,2.162-0.628,2.124-2.152
				c-0.108-4.392-0.158-8.785-0.229-13.177c-0.042-2.547,0.792-3.47,3.281-3.633c6.349-0.419,6.879,0.07,6.945,6.456
				c0.038,3.663,0.131,7.326,0.079,10.987c-0.092,6.364-4.863,10.996-11.23,11.01c-7.055,0.017-11.524-2.693-12.66-8.35
				c-0.579-2.881-0.101-5.974-0.101-8.972C186.729,198.083,186.574,198.083,186.418,198.082 M202.905,197.531
				c0.034,0,0.068,0,0.102,0c0,2.198,0.057,4.398-0.015,6.593c-0.083,2.536-1.993,4.247-4.466,4.126
				c-2.343-0.115-3.836-1.7-3.898-4.141c-0.096-3.805-0.212-7.61-0.279-11.416c-0.061-3.466-0.04-3.354-3.465-3.443
				c-1.878-0.048-2.177,0.759-2.13,2.354c0.117,4.1,0.113,8.203,0.15,12.305c0.053,5.769,3.575,9.106,9.32,9.325
				c7.176,0.271,10.586-4.445,10.466-9.383c-0.102-4.245-0.2-8.491-0.222-12.736c-0.007-1.273-0.356-1.949-1.74-1.83
				c-0.728,0.063-1.467,0.056-2.195,0.005c-1.217-0.084-1.697,0.392-1.649,1.65C202.964,193.134,202.905,195.334,202.905,197.531"/>
			<path clip-path="url(#SVGID_4_)" fill-rule="evenodd" clip-rule="evenodd" fill="#F6F7F5" d="M241.141,208.368
				c-0.679,6.041-0.679,6.041-6.651,6.762c-2.704,0.327-3.786-0.568-3.838-3.334c-0.13-7.029-0.233-14.059-0.304-21.088
				c-0.027-2.655,0.851-3.563,3.517-3.687c7.015-0.327,6.594,0.453,6.611,7.065c0.873-1.583,1.634-2.68,2.111-3.89
				c0.969-2.456,2.637-3.555,5.283-3.269c0.937,0.103,1.905-0.104,2.853-0.053c2.722,0.149,3.757,1.947,2.487,4.379
				c-1.286,2.462-2.581,4.927-4.033,7.292c-0.82,1.334-0.942,2.383-0.08,3.775c1.73,2.792,3.286,5.692,4.858,8.577
				c1.217,2.235,0.264,3.896-2.265,4.065c-0.146,0.011-0.297-0.02-0.439,0.007C245.866,216.008,242.62,213.663,241.141,208.368
				 M252.288,212.487c-1.442-2.564-2.591-5.127-4.207-7.351c-2.234-3.076-2.673-5.886-0.115-8.96
				c0.827-0.995,1.389-2.24,1.933-3.434c0.501-1.1,1.891-2.24,1.282-3.288c-0.583-1.004-2.148,0.076-3.283-0.143
				c-1.673-0.321-2.685,0.342-3.366,1.964c-0.846,2.013-2.039,3.878-2.966,5.861c-0.516,1.104-1.332,1.203-2.337,1.117
				c-1.292-0.111-0.912-1.105-0.95-1.832c-0.062-1.168-0.05-2.342-0.052-3.514c-0.012-3.768-0.008-3.768-3.866-3.579
				c-0.074,0.004-0.148,0.012-0.22,0.004c-1.262-0.133-1.688,0.456-1.593,1.678c0.459,5.918,0.226,11.854,0.323,17.78
				c0.069,4.24,0.014,4.181,4.211,4.031c1.324-0.046,1.612-0.572,1.536-1.73c-0.127-1.969-0.189-3.943-0.244-5.917
				c-0.021-0.702-0.209-1.549,0.799-1.792c0.904-0.217,1.724-0.207,2.231,0.817c0.649,1.31,1.616,2.506,2.033,3.876
				c1.319,4.327,4.293,5.396,8.358,4.614C251.859,212.679,251.92,212.64,252.288,212.487"/>
			<path clip-path="url(#SVGID_4_)" fill-rule="evenodd" clip-rule="evenodd" fill="#F6F7F5" d="M146.134,201.154
				c0-3.443-0.011-6.887,0.003-10.331c0.012-3.014,0.765-3.892,3.724-3.847c3.577,0.053,7.184-0.466,10.726,0.419
				c5.714,1.427,8.151,6.114,5.965,11.572c-0.304,0.761-0.357,1.223,0.182,1.919c2.195,2.839,2.24,6.017,0.788,9.11
				c-1.543,3.291-4.551,4.658-8.011,4.942c-3.131,0.257-6.281,0.289-9.423,0.417c-2.574,0.104-3.703-0.854-3.754-3.428
				c-0.071-3.589-0.018-7.182-0.018-10.773H146.134z M148.402,201.144h0.115c0,3.438,0.016,6.877-0.009,10.316
				c-0.008,1.12,0.206,1.773,1.596,1.675c2.985-0.212,5.981-0.26,8.974-0.385c3.184-0.134,5.982-1.83,6.726-4.374
				c0.834-2.861,0.551-5.56-2.227-7.373c-0.784-0.512-0.515-0.865-0.081-1.363c1.817-2.086,2.245-4.437,0.998-6.913
				c-1.308-2.601-3.766-3.332-6.438-3.418c-2.631-0.084-5.268,0.034-7.9-0.037c-1.333-0.036-1.804,0.441-1.777,1.777
				C148.448,194.413,148.402,197.778,148.402,201.144"/>
			<path clip-path="url(#SVGID_4_)" fill-rule="evenodd" clip-rule="evenodd" fill="#F6F7F5" d="M436.275,373.739
				c-5.259,0.027-9.001-2.934-9.393-7.019c-0.488-5.071,2.318-8.703,7.604-9.364c4.771-0.596,9.57-0.96,14.346-1.585
				c4.337-0.567,8.208,2.875,8.822,7.363c0.559,4.085-2.474,8.046-6.705,8.879C445.929,373.002,440.834,373.285,436.275,373.739
				 M429.1,365.446c0.005,3.424,2.677,6.205,6.151,5.999c5.17-0.308,10.349-0.706,15.448-1.683c3.113-0.597,5.189-3.649,4.682-6.663
				c-0.537-3.19-3.47-5.639-6.595-5.118c-4.829,0.802-9.702,1.109-14.553,1.649C431.202,359.97,429.096,362.399,429.1,365.446"/>
			<path clip-path="url(#SVGID_4_)" fill-rule="evenodd" clip-rule="evenodd" fill="#809A66" d="M223.381,294.176
				c-0.205-0.872-0.409-1.743-0.693-2.95c1.028,0.993,1.205,1.953,1.369,2.916C223.831,294.152,223.607,294.165,223.381,294.176"/>
			<path clip-path="url(#SVGID_4_)" fill-rule="evenodd" clip-rule="evenodd" fill="#78A77C" d="M112.874,306.901
				c-1.82,4.704-4.168,9.16-6.563,13.582c-2.014,3.719-4.248,7.324-6.48,10.921c-5.135,8.271-10.763,16.179-17.332,23.396
				c-4.151,4.561-8.539,8.86-13.533,12.487c-8.131,5.906-17.141,8.572-27.032,5.948c-5.87-1.557-11.289-4.379-15.437-9.098
				c-2.788-3.17-2.261-6.988-1.812-10.657c1.33-10.845,6.667-20.091,11.981-29.337c3.577-6.224,7.667-12.128,12.273-17.574
				c5.222-6.173,10.543-12.368,17.532-16.755c2.531-1.588,5.218-1.476,6.782,0.36c1.602,1.878,1.456,4.64-0.75,6.676
				c-3.582,3.307-4.968,7.881-7.169,11.953c-3.527,6.521-8.275,12.216-12.059,18.539c-5.261,8.788-9.913,17.865-11.614,28.135
				c-0.13,0.785-0.091,1.61-0.041,2.411c0.078,1.237,0.603,1.657,2.002,1.549c6.661-0.51,11.98-3.704,16.957-7.856
				c10.822-9.03,19.11-20.13,25.751-32.382c3.395-6.265,7.239-12.329,9.921-18.991c0.862-2.14,2.229-4.075,3.365-6.104
				c2.365,1.758,4.474,3.804,6.345,6.06c0.937,1.129,1.661,2.338,3.239,2.725c1.099,0.269,2.033,0.971,2.238,2.172
				C111.597,305.992,112.377,306.307,112.874,306.901"/>
			<path clip-path="url(#SVGID_4_)" fill-rule="evenodd" clip-rule="evenodd" fill="#8BAB78" d="M149.7,225.397
				c10.188,0.464,19.162,3.74,26.155,11.473c4.808,5.318,7.438,11.674,8.478,18.7c1.235,8.364,0.508,16.473-3.304,24.177
				c-0.868,1.756-1.848,2.713-4.001,2.521c-2.429-0.219-4.675,0.599-6.845,1.844c-6.517,3.742-11.648,9.004-16.534,14.572
				c-1.418,1.617-3.517,1.842-5.395,1.959c-8.38,0.524-16.207-1.325-23.333-5.918c-1.312-0.845-1.699-1.657-1.29-3.229
				c1.463-5.618,1.424-11.282,0.124-16.948c-1.625-7.089-6.62-11.337-12.546-14.696c-1.303-0.738-1.569-1.484-1.361-2.718
				c1.859-11.036,7.726-19.226,17.504-24.632c5.474-3.027,11.298-5.174,17.316-6.809C146.305,225.249,147.999,225.253,149.7,225.397
				 M162.584,265.108c-0.297-6.705-1.175-13.401-5.469-19.122c-3.792-5.052-9.965-7.066-15.565-5.05
				c-4.921,1.772-7.117,5.842-8.441,10.495c-1.441,5.059-1.529,10.26-0.818,15.414c0.712,5.171,2.226,10.119,5.722,14.218
				c6.393,7.496,17.478,6.189,21.86-2.594C161.945,274.314,162.382,269.817,162.584,265.108"/>
			<path clip-path="url(#SVGID_4_)" fill-rule="evenodd" clip-rule="evenodd" fill="#86B988" d="M194.158,385.17
				c-1.832,6.293-5.915,11.275-9.523,16.555c-3.177,4.648-6.361,9.293-9.974,13.598c-4.145,4.941-8.883,9.384-15.649,10.097
				c-9.911,1.044-18.986-0.514-25.871-8.918c-7.492-9.145-9.557-19.772-9.317-31.104c0.17-8.059,1.854-15.919,3.764-23.722
				c0.343-1.401,0.289-2.904,1.05-4.201c0.588-0.003,1.1-0.14,1.624-0.479c2.534-1.637,5.106-3.214,7.664-4.812
				c1.051,0.015,1.984,0.039,2.258-1.411c0.195-1.038,0.829-1.993,1.268-2.986c0.874-0.511,1.776-0.982,2.619-1.542
				c3.776-2.5,8.477-2.735,12.321-5.061l0.659,0.09c-3.936,8.9-7.153,18.072-9.889,27.396c-1.538,5.245-2.559,10.615-2.769,16.16
				c-0.149,3.955-0.423,7.899,0.166,11.803c0.695,4.609,1.318,9.324,5.571,12.405c1.229,0.892,2.324,0.968,3.655,0.305
				c3.401-1.699,6.146-4.252,8.711-6.939c5.457-5.713,10.633-11.679,14.873-18.39c2.82,2.645,3.96,2.926,7.482,1.168
				c2.028-1.013,4.034-1.04,6.134-0.713C192.053,384.634,193.101,384.933,194.158,385.17"/>
			<path clip-path="url(#SVGID_4_)" fill-rule="evenodd" clip-rule="evenodd" fill="#8BAB78" d="M262.036,254.147
				c-4.77,13.743-9.576,27.473-14.267,41.242c-0.599,1.757-1.396,2.302-3.236,2.297c-4.902-0.015-9.808,0.173-14.707,0.422
				c-1.62,0.082-2.228-0.537-2.756-1.987c-4.739-13.039-9.561-26.047-14.383-39.054c-0.236-0.638-0.222-1.45-1.17-1.964
				c-0.69,4.721-0.636,9.371-0.965,13.988c-0.224,3.141-0.265,6.294-0.428,9.439c-0.032,0.604,0.327,1.359-1.075,1.219
				c-5.738-0.571-7.439,0.436-9.969,5.726c-0.659,1.377-0.978,1.727-2.631,0.993c-2.579-1.143-2.854-2.871-2.592-5.244
				c0.682-6.184,1.028-12.393,1.301-18.608c0.151-3.43,0.506-6.851,0.771-10.275c1.199,0.13,2.326-0.171,3.422-0.605
				c2.635-1.044,2.89-1.57,1.298-3.982c-0.758-1.15-0.61-1.993,0.006-2.986c1.35-2.174,3.739-2.945,5.772-4.154
				c1.192-0.709,2.691-1.029,3.91,0.077c1.084,0.983,0.719,2.355,0.409,3.503c-0.312,1.156-0.376,2.308,0.284,3.161
				c1.312,1.694,2.607,3.459,4.605,4.796c0.216-1.635,0.384-3-0.849-4.189c-0.644-0.62-0.82-1.524-0.773-2.446
				c0.114-2.257,0.514-4.376,1.508-6.496c1.616-3.441,4.211-4.508,7.53-2.625c0.578,0.329,1.171,0.612,1.865,0.557
				c0.861,4.284,2.714,8.248,4,12.399c2.982,9.624,6.19,19.18,9.312,28.762c0.134,0.411,0.334,0.8,0.745,1.769
				c2.219-7.161,4.287-13.83,6.354-20.5c1.522-0.25,3.632,0.128,4.004-1.824c0.355-1.868,1.97-3.229,1.757-5.264
				c-0.064-0.625,0.548-1.143,1.144-1.505c2.603-1.585,5.979-2.015,8.01,1.665C260.663,253.216,260.94,254.109,262.036,254.147
				 M216.588,254.572c-0.222-0.549-0.299-1.298-1.003-1.491c-0.344-0.097-0.67,0.331-0.534,0.728c0.2,0.583,0.321,1.312,1.114,1.409
				C216.538,255.266,216.575,254.912,216.588,254.572"/>
			<path clip-path="url(#SVGID_4_)" fill-rule="evenodd" clip-rule="evenodd" fill="#8BAB78" d="M189.834,325.791
				c-2.354-3.076-1.888-6.612-1.607-10.098c0.153-1.889,0.487-3.761,0.676-5.646c0.142-1.408-0.1-2.784-0.787-4.031
				c-0.972-1.765-2.449-2.201-4.215-1.256c-1.352,0.722-2.706,1.436-3.87,2.471c-6.837,6.085-12.229,13.258-16.321,21.438
				c-1.758,3.515-3.642,6.967-5.468,10.446c-0.65-1.315-1.371-1.546-2.712-0.63c-1.823,1.246-3.711,2.314-6.154,2.369
				c-2.219,0.05-4.424,0.416-6.143,2.534c-1.696,2.091-2.916,1.668-4.712-0.389c-1.168-1.338-2.208-2.904-4.009-3.564
				c3.42-8.319,7.549-16.261,12.615-23.706c4.499-6.61,9.404-12.868,15.336-18.281c3.211-2.93,6.775-5.348,10.587-7.367
				c1.674-0.886,3.668-1.019,5.573-0.814c4.21,0.449,8.412,0.962,12.608,1.515c2.455,0.324,4.523,1.647,6.596,2.872
				c1.038,0.611,1.559,0.471,1.927-0.668c0.222-0.687,0.604-1.322,0.906-1.983c1.61-3.526,4.302-4.799,8.159-4.425
				c2.908,0.281,5.727,0.264,8.469,1.728c3.476,1.856,5.092,7.554,2.439,10.744c-4.393,5.284-7.126,11.739-11.526,17.052
				c-0.436,0.037-0.882,0.023-1.305,0.117c-3.271,0.725-5.363,3.36-7.885,5.195C196.158,323.489,193.625,325.832,189.834,325.791"/>
			<path clip-path="url(#SVGID_4_)" fill-rule="evenodd" clip-rule="evenodd" fill="#92AC75" d="M262.036,254.147
				c-1.094-0.039-1.374-0.933-1.792-1.694c-2.032-3.68-5.408-3.251-8.011-1.665c-0.595,0.363-1.208,0.88-1.143,1.505
				c0.211,2.035-1.403,3.395-1.758,5.263c-0.371,1.954-2.481,1.575-4.004,1.825c3.079-10.5,6.177-20.994,9.211-31.508
				c0.37-1.282,1.011-1.75,2.306-1.756c7.62-0.03,15.24-0.106,22.859-0.19c0.916-0.009,1.345,0.347,1.375,1.264
				c0.031,0.95,0.157,1.897,0.177,2.847c0.221,11.276,1.241,22.5,2.136,33.734c0.656,8.237,1.527,16.448,2.3,24.672
				c0.109,1.162,0.645,2.273,0.384,3.472c-1.121-0.006-2.114-0.464-3.098-0.917c-1.646-0.76-3.048-0.2-4.094,1.002
				c-1.254,1.443-2.47,3.017-1.978,5.179c-1.157,0.186-2.305,0.52-3.495,0.245c-0.507-0.782-1.038-1.552-1.518-2.353
				c-1.447-2.415-3.385-2.963-5.946-1.697c-0.372,0.184-0.826,0.203-1.242,0.3c-0.042-7.764-0.479-15.512-0.994-23.253
				c-0.339-5.105-0.838-10.2-1.29-15.299C262.393,254.789,262.169,254.473,262.036,254.147"/>
			<path clip-path="url(#SVGID_4_)" fill-rule="evenodd" clip-rule="evenodd" fill="#8BAB78" d="M37.158,240.89
				c4.293-5.695,9.186-10.948,14.807-15.198c6.717-5.08,13.72-9.965,21.909-12.624c4.554-1.479,9.151-2.449,13.991-1.571
				c1.936,0.352,3.655,1.091,5.15,2.28c1.901,1.51,3.99,2.717,6,4.054c0.885,0.589,1.444,0.595,2.196-0.289
				c1.181-1.391,2.488-2.692,3.863-3.894c1.974-1.724,4.464-1.854,6.685-0.426c1.841,1.184,3.692,2.369,5.422,3.704
				c2.851,2.203,3.971,6.378,0.485,9.422c-4.161,3.635-8.032,7.601-12.01,11.445c-0.572,0.553-1.125,1.168-1.527,1.848
				c-2.188,3.705-5.607,5.423-9.684,6.073c-2.923,0.467-5.276-1.311-5.764-4.379c-0.401-2.52,0.118-4.92,1.127-7.246
				c0.913-2.104,1.613-4.217,0.473-6.521c-0.854-1.722-2.019-2.27-3.911-1.793c-8.172,2.058-15.44,5.869-22.293,10.737
				c-8.503,6.039-14.553,14.067-19.713,22.92c-2.524-2.308-2.146-4.976-1.293-7.929C44.314,247.211,41.435,242.296,37.158,240.89"/>
			<path clip-path="url(#SVGID_4_)" fill-rule="evenodd" clip-rule="evenodd" fill="#86B988" d="M262.862,344.256
				c3.588,8.227,7.357,16.381,10.666,24.72c1.172,2.953,0.348,6.378,0.378,9.589c0.01,0.957-0.756,0.91-1.418,0.924
				c-5.631,0.12-11.264,0.213-16.894,0.375c-1.164,0.035-1.69-0.387-1.993-1.498c-0.784-2.888-1.737-5.729-2.502-8.621
				c-0.333-1.262-0.881-1.827-2.252-1.807c-7.247,0.11-14.495,0.167-21.744,0.183c-1.266,0.002-1.825,0.515-2.103,1.698
				c-0.681,2.907-1.526,5.777-2.142,8.696c-0.226,1.072-0.617,1.458-1.684,1.54c-5.263,0.407-10.534,0.17-15.798,0.276
				c-1.192,0.024-1.529-0.441-1.472-1.546c0.082-1.533,0.059-3.072,0.079-4.608c1.663-0.544,3.319-1.087,5.118-0.896
				c0.662,0.069,1.484,0.028,1.661-0.727c0.487-2.079,1.732-4.098,0.665-6.348c-0.654-1.381-0.301-2.416,1.149-2.967
				c3.064-1.166,6.007-2.837,9.466-2.436c0.615,0.073,1.119-0.178,1.263-0.634c0.604-1.915,1.904-3.885,1.088-5.862
				c-1.04-2.524-0.034-3.538,2.096-4.453c1.255-0.54,2.462-0.837,3.793-0.752c0.207,1.167-0.572,2.088-0.882,3.105
				c-0.456,1.499-0.131,1.853,1.363,1.818c4.321-0.098,8.646-0.143,12.968-0.092c1.842,0.021,2.304-0.473,1.687-2.312
				c-1.645-4.907-3.117-9.874-4.657-14.816c0.499-0.092,1.036-0.091,1.487-0.29c2.427-1.066,4.397-0.757,6.183,1.412
				c1.635,1.984,4.065,2.799,6.531,3.209c1.575,0.262,2.969,0.814,4.108,1.843C260.191,343.992,261.404,344.406,262.862,344.256"/>
			<path clip-path="url(#SVGID_4_)" fill-rule="evenodd" clip-rule="evenodd" fill="#78A77C" d="M37.158,240.89
				c4.277,1.406,7.156,6.321,5.915,10.615c-0.853,2.953-1.231,5.621,1.293,7.929c-3.375,6.068-5.936,12.463-7.678,19.184
				c-0.164,0.632-0.307,1.281-0.344,1.93c-0.074,1.278,0.282,1.882,1.811,1.448c5.987-1.697,11.537-4.451,17.197-6.938
				c2.6-1.144,5.161-2.371,7.74-3.56c2.758,4.16,9.322,8.667,15.277,6.133c1.099-0.468,2.937-1.071,3.69,0.988
				c-8.444,3.846-16.877,7.716-25.335,11.53c-5.424,2.445-10.908,4.769-16.768,5.973c-4.771,0.979-8.991-0.541-12.654-3.477
				c-4.183-3.351-5.812-7.881-6.001-13.237c-0.32-9.051,3.198-16.877,7.172-24.606C30.979,249.926,33.809,245.243,37.158,240.89"/>
			<path clip-path="url(#SVGID_4_)" fill-rule="evenodd" clip-rule="evenodd" fill="#8BAB78" d="M82.06,278.618
				c-0.754-2.06-2.592-1.456-3.692-0.988c-5.954,2.534-12.519-1.973-15.276-6.133c8.413-3.842,16.517-8.396,25.461-11.004
				c10.237-2.986,18.931-0.367,25.817,7.634c3.89,4.52,4.706,10.185,4.749,16.02c0.062,8.198-2.775,15.551-6.245,22.755
				c-0.497-0.594-1.276-0.909-1.436-1.841c-0.204-1.201-1.138-1.903-2.237-2.172c-1.578-0.387-2.303-1.596-3.24-2.725
				c-1.872-2.256-3.979-4.302-6.344-6.06c1.432-4.261,3.186-8.409,4.143-12.834c0.467-2.16,0.161-4.225-0.305-6.266
				c-0.51-2.229-2.125-3.135-4.664-2.727c-4.413,0.71-8.526,2.276-12.257,4.751C85.152,277.943,83.581,278.174,82.06,278.618"/>
			<path clip-path="url(#SVGID_4_)" fill-rule="evenodd" clip-rule="evenodd" fill="#93BA83" d="M262.862,344.256
				c-1.458,0.15-2.671-0.264-3.792-1.276c-1.139-1.028-2.533-1.581-4.108-1.843c-2.465-0.41-4.896-1.225-6.531-3.209
				c-1.786-2.169-3.756-2.479-6.183-1.412c-0.451,0.199-0.988,0.198-1.487,0.29c-1.006-2.996-1.99-5.999-3.038-8.98
				c-0.192-0.549-0.138-1.528-0.989-1.441c-0.817,0.082-0.601,1.012-0.758,1.606c-1.462,0-2.929,0.067-4.388-0.013
				c-5.39-0.298-6.392-1.79-5.04-6.765c0.506-1.86,0.615-3.904-0.363-5.773c0.085-2.179,1.39-3.956,1.967-5.974
				c0.229-0.803,0.908-0.815,1.591-0.835c5.624-0.15,11.246-0.304,16.868-0.479c1.088-0.033,1.91,0.091,2.401,1.326
				c4.562,11.462,9.183,22.899,13.781,34.346C262.849,343.956,262.842,344.111,262.862,344.256"/>
			<path clip-path="url(#SVGID_4_)" fill-rule="evenodd" clip-rule="evenodd" fill="#93BC8A" d="M226.187,315.439
				c0.978,1.869,0.869,3.913,0.363,5.773c-1.352,4.975-0.351,6.467,5.04,6.765c1.459,0.08,2.926,0.013,4.389,0.014
				c-1.898,7.038-3.796,14.075-5.694,21.111c-1.333-0.085-2.54,0.212-3.794,0.752c-2.129,0.915-3.135,1.929-2.096,4.453
				c0.816,1.979-0.483,3.947-1.088,5.863c-0.145,0.455-0.647,0.705-1.262,0.633c-3.46-0.401-6.404,1.27-9.467,2.436
				c-1.45,0.551-1.803,1.586-1.149,2.967c1.066,2.25-0.178,4.269-0.665,6.348c-0.177,0.755-0.998,0.796-1.661,0.727
				c-1.799-0.19-3.455,0.353-5.117,0.896c-0.292-2.374,0.149-4.565,1.095-6.801c6.955-16.421,13.378-33.058,19.907-49.65
				C225.305,316.919,225.44,316.02,226.187,315.439"/>
			<path clip-path="url(#SVGID_4_)" fill-rule="evenodd" clip-rule="evenodd" fill="#92AC75" d="M224.917,236.952
				c-0.694,0.055-1.287-0.228-1.865-0.556c-3.318-1.884-5.914-0.818-7.53,2.624c-0.995,2.12-1.394,4.239-1.508,6.496
				c-0.047,0.923,0.129,1.826,0.773,2.447c1.233,1.188,1.064,2.552,0.849,4.188c-1.998-1.338-3.292-3.102-4.605-4.795
				c-0.661-0.854-0.597-2.006-0.284-3.162c0.311-1.148,0.676-2.52-0.409-3.503c-1.219-1.105-2.718-0.787-3.91-0.077
				c-2.033,1.209-4.423,1.98-5.772,4.154c-0.616,0.994-0.765,1.837-0.005,2.986c1.592,2.412,1.337,2.938-1.298,3.983
				c-1.097,0.434-2.223,0.734-3.422,0.604c0.054-7.963,0.787-15.913,0.501-23.882c-0.042-1.188,0.284-1.677,1.573-1.689
				c7.38-0.067,14.76-0.187,22.137-0.368c1.251-0.03,1.849,0.379,2.171,1.552C223.14,230.965,224.043,233.954,224.917,236.952"/>
			<path clip-path="url(#SVGID_4_)" fill-rule="evenodd" clip-rule="evenodd" fill="#93BC8A" d="M194.158,385.17
				c-1.057-0.237-2.105-0.536-3.173-0.703c-2.1-0.327-4.106-0.3-6.134,0.713c-3.522,1.758-4.662,1.477-7.482-1.168
				c4.363-6.379,8.704-12.772,13.106-19.123c1.288-1.857,2.596-3.746,4.179-5.337c1.374-1.38,3.332-1.017,4.89-0.251
				c2.287,1.124,3.068,3.775,2.016,6.111C198.664,371.839,196.367,378.487,194.158,385.17"/>
			<path clip-path="url(#SVGID_4_)" fill-rule="evenodd" clip-rule="evenodd" fill="#78A77C" d="M134.512,339.435
				c1.801,0.66,2.841,2.227,4.009,3.564c1.796,2.057,3.016,2.479,4.712,0.389c1.718-2.118,3.923-2.484,6.143-2.534
				c2.443-0.056,4.331-1.123,6.154-2.369c1.341-0.916,2.062-0.686,2.712,0.63l-0.631,1.183c-0.629-0.012-1.177,0.087-1.219,0.885
				c-3.844,2.325-8.546,2.561-12.321,5.061c-0.844,0.56-1.745,1.031-2.619,1.542c-1.646-0.819-2.46,0.096-3.151,1.438
				c-0.494,0.963-0.324,1.965-0.375,2.959c-2.558,1.599-5.13,3.176-7.664,4.812c-0.525,0.339-1.036,0.477-1.624,0.479
				c1.086-4.714,2.823-9.22,4.426-13.768C133.564,342.288,134.031,340.859,134.512,339.435"/>
			<path clip-path="url(#SVGID_4_)" fill-rule="evenodd" clip-rule="evenodd" fill="#93BC8A" d="M189.834,325.791
				c3.791,0.041,6.324-2.302,9.179-4.379c2.522-1.835,4.614-4.471,7.885-5.195c0.422-0.094,0.869-0.08,1.305-0.117
				c-2.16,3.547-3.967,7.363-7.596,9.771c-2.719,1.807-5.509,3.121-8.82,1.582C190.981,327.078,190.207,326.671,189.834,325.791"/>
			<path clip-path="url(#SVGID_4_)" fill-rule="evenodd" clip-rule="evenodd" fill="#93BA83" d="M276.906,297.18
				c-0.493-2.162,0.724-3.735,1.978-5.179c1.045-1.202,2.448-1.762,4.093-1.002c0.984,0.453,1.977,0.911,3.098,0.917
				c0.308,1.693,1.289,3.854,0.423,4.978c-0.806,1.048-3.142,0.254-4.802,0.308C280.102,297.254,278.503,297.191,276.906,297.18"/>
			<path clip-path="url(#SVGID_4_)" fill-rule="evenodd" clip-rule="evenodd" fill="#93BA83" d="M264.706,293.674
				c0.417-0.096,0.87-0.115,1.242-0.299c2.561-1.266,4.498-0.718,5.947,1.697c0.479,0.8,1.009,1.57,1.517,2.353
				c-2.098,0.063-4.207,0.011-6.289,0.226c-1.983,0.203-2.832-0.439-2.508-2.461C264.694,294.692,264.678,294.18,264.706,293.674"/>
			<path clip-path="url(#SVGID_4_)" fill-rule="evenodd" clip-rule="evenodd" fill="#809A66" d="M222.314,289.373
				c0.333,0.478,0.608,0.974,0.521,1.639c-0.833-0.199-0.875-0.824-0.943-1.432C222.032,289.511,222.173,289.441,222.314,289.373"/>
			<path clip-path="url(#SVGID_4_)" fill-rule="evenodd" clip-rule="evenodd" fill="#8BAB78" d="M156.392,341.182
				c0.042-0.798,0.59-0.896,1.219-0.885c-0.188,0.325-0.375,0.648-0.562,0.974C156.831,341.241,156.611,341.211,156.392,341.182"/>
			<polygon clip-path="url(#SVGID_4_)" fill-rule="evenodd" clip-rule="evenodd" points="114.799,265.291 114.944,265.262 
				114.921,265.376 			"/>
			<path clip-path="url(#SVGID_4_)" fill-rule="evenodd" clip-rule="evenodd" d="M202.234,285.422
				c-0.137,0.108-0.344,0.338-0.401,0.305c-0.374-0.212-0.06-0.412,0.056-0.613C202.004,285.217,202.119,285.319,202.234,285.422"/>
			<path clip-path="url(#SVGID_4_)" fill-rule="evenodd" clip-rule="evenodd" d="M116.204,265.699
				c-0.148,0.093-0.298,0.188-0.448,0.281c-0.088-0.454,0.349-0.101,0.432-0.279C116.184,265.703,116.204,265.699,116.204,265.699"
				/>
			<path clip-path="url(#SVGID_4_)" fill-rule="evenodd" clip-rule="evenodd" d="M116.201,265.701c0.003-0.002-0.017,0.002-0.013,0
				c-0.046,0.328,0.155,0.473,0.425,0.567l0.063-0.011"/>
			<path clip-path="url(#SVGID_4_)" fill-rule="evenodd" clip-rule="evenodd" d="M116.613,266.269
				c0.007,0.205,0.015,0.41,0.022,0.614c-0.105-0.075-0.265-0.128-0.306-0.229c-0.118-0.292,0.147-0.317,0.337-0.395
				C116.675,266.257,116.613,266.269,116.613,266.269"/>
			<path clip-path="url(#SVGID_4_)" fill-rule="evenodd" clip-rule="evenodd" fill="#BAB674" d="M401.146,46.915
				c1.2,8.542,3.233,16.707,5.824,24.735c2.681,8.307,6.306,16.183,10.464,23.855c4.374,8.071,6.148,16.695,5.145,25.945
				c-0.773,7.137-2.832,13.8-5.869,20.239c-0.709,1.504-1.618,2.227-3.373,2.068c-2.034-0.186-4.494,0.602-6.032-0.295
				c-1.572-0.916-1.092-3.671-1.636-5.589c-3.167-11.185-7.461-21.96-12.174-32.552c-6.88-15.458-6.336-30.768,0.173-46.115
				c1.574-3.711,3.47-7.25,5.733-10.587C399.806,48.021,400.11,47.331,401.146,46.915"/>
			<path clip-path="url(#SVGID_4_)" fill-rule="evenodd" clip-rule="evenodd" fill="#BAB674" d="M418.854,83.495
				c-4.566-7.329-8.938-14.716-10.447-23.438c-1.838-10.624-0.118-20.753,3.796-30.635c2.463-6.221,5.753-11.99,9.608-17.447
				c0.205-0.292,0.374-0.609,0.774-0.809c0.324,3.29,0.594,6.471,0.642,9.616c0.157,10.113,2.567,19.603,6.956,28.661
				c3.408,7.036,6.791,14.084,10.075,21.179c0.849,1.833,1.284,3.857,1.91,5.794c-4.532-0.355-8.88,0.072-12.471,3.249
				C426.584,82.417,422.798,83.151,418.854,83.495"/>
			<path clip-path="url(#SVGID_4_)" fill-rule="evenodd" clip-rule="evenodd" fill="#BAB674" d="M378.815,78.14
				c0.823,3.65,0.551,7.086,0.976,10.454c1.08,8.556,2.251,17.079,6.115,24.941c1.269,2.581,2.967,4.803,5.241,6.671
				c6.162,5.062,8.862,11.771,8.919,19.657c0.009,1.164-0.263,1.681-1.564,1.736c-7.977,0.335-15.955,0.37-23.937,0.401
				c-1.302,0.004-1.771-0.706-2.241-1.679c-3.508-7.231-5.765-14.793-6.658-22.814c-1.181-10.59,0.617-20.528,5.858-29.806
				C373.461,84.273,375.723,81.069,378.815,78.14"/>
			<path clip-path="url(#SVGID_4_)" fill-rule="evenodd" clip-rule="evenodd" fill="#B2B476" d="M418.854,83.495
				c3.944-0.343,7.73-1.078,10.844-3.83c3.591-3.176,7.938-3.604,12.471-3.249c3.714,17.892-2.35,33.262-12.315,48.023
				c-0.669-1.778,0.149-3.125,0.152-4.5c0.021-6.798-1.495-13.292-3.688-19.667C424.318,94.46,421.505,89.014,418.854,83.495"/>
			<path clip-path="url(#SVGID_4_)" fill-rule="evenodd" clip-rule="evenodd" fill="#78A77C" d="M409.478,72.72
				c-0.24-0.765-0.479-1.53-0.72-2.294c0.901,0.554,1.218,1.311,1.25,2.175L409.478,72.72z"/>
			<path clip-path="url(#SVGID_4_)" fill-rule="evenodd" clip-rule="evenodd" d="M398.467,123.755
				c0.563,0.529,0.198,1.169,0.233,1.802c-0.591-0.2-0.436-0.8-0.692-1.15C398.16,124.189,398.314,123.972,398.467,123.755"/>
			<path clip-path="url(#SVGID_4_)" fill-rule="evenodd" clip-rule="evenodd" d="M401.97,135.564
				c-0.039-0.473-0.078-0.946-0.125-1.515c0.614,0.333,0.493,0.791,0.564,1.175C402.263,135.339,402.116,135.452,401.97,135.564"/>
			<path clip-path="url(#SVGID_4_)" fill-rule="evenodd" clip-rule="evenodd" d="M410.999,75.263
				c-0.169-0.03-0.35-0.025-0.491-0.097c-0.202-0.103-0.253-0.314-0.023-0.412c0.135-0.057,0.35,0.034,0.509,0.103
				C411.032,74.874,410.999,75.06,410.999,75.263"/>
			<path clip-path="url(#SVGID_4_)" fill-rule="evenodd" clip-rule="evenodd" fill="#78A77C" d="M408.691,69.072
				c0.045,0.14,0.12,0.267,0.109,0.385c-0.007,0.078-0.139,0.145-0.214,0.217c-0.041-0.122-0.118-0.246-0.11-0.364
				C408.482,69.23,408.608,69.159,408.691,69.072"/>
			<path clip-path="url(#SVGID_4_)" fill-rule="evenodd" clip-rule="evenodd" fill="#78A77C" d="M408.358,68.122
				c-0.083,0.061-0.158,0.117-0.234,0.174c-0.019-0.13-0.053-0.26-0.047-0.389c0.002-0.054,0.087-0.106,0.134-0.158
				C408.26,67.874,408.31,67.999,408.358,68.122"/>
			<path clip-path="url(#SVGID_4_)" fill-rule="evenodd" clip-rule="evenodd" fill="#93BA83" d="M286.144,379.369
				c-1.904,0.024-3.808,0.012-5.709,0.089c-1.122,0.046-1.355-0.439-1.239-1.457c1.877-16.579,2.759-33.226,3.551-49.885
				c0.29-6.077,0.322-12.146,0.356-18.22c0.008-1.653,0.543-2.147,2.148-2.139c7.249,0.044,14.5,0.005,21.75-0.041
				c1.094-0.007,1.676,0.277,2.029,1.449c4.681,15.522,9.748,30.924,14.811,46.326c0.114,0.342,0.135,0.715,0.197,1.074
				c-2.179-0.211-4.186,0.437-6.126,1.308c-0.757,0.337-1.56,0.676-2.318,0.431c-1.789-0.576-3.414-0.064-5.045,0.513
				c-1.057,0.374-2.132,0.449-3.23,0.398c-2.643-7.029-5.284-14.06-7.931-21.088c-0.2-0.532-0.428-1.056-0.643-1.583
				c-0.2,0.006-0.399,0.014-0.598,0.02c-0.381,7.404-0.76,14.808-1.14,22.212c-1.345,0.854-4.016,0.581-2.961,3.475
				c0.777,2.134,0.549,2.496-1.723,2.687c-2.561,0.216-3.46,1.113-3.517,3.693c-0.021,0.979-0.338,1.853-0.623,2.748
				C287.347,374.002,286.565,376.639,286.144,379.369"/>
			<path clip-path="url(#SVGID_4_)" fill-rule="evenodd" clip-rule="evenodd" fill="#A1BE87" d="M350.044,346.031
				c-0.149-2.203-0.299-4.408-0.447-6.611c0.661,0.022,1.281-0.063,1.912-0.337c3.204-1.388,3.613-2.707,1.889-5.714
				c-0.842-1.466-0.64-2.844,1.04-3.658c1.835-0.89,3.725-1.67,5.536-2.605c0.776-0.4,1.923-0.906,0.965-2.121
				c-1.383-1.752-5.854-2.744-7.84-1.547c-1.4,0.845-2.441,0.665-3.153-0.56c-1.28-2.199-2.578-1.456-4.106-0.37
				c-1.154,0.821-1.31,2.056-1.608,3.229c-0.205,0.801-0.518,1.573-1.398,1.236c-1.937-0.739-5.014,0.021-5.003-3.527
				c0.001-0.093-0.362-0.188-0.557-0.282c1.337-4.696,2.698-9.386,3.991-14.094c0.332-1.209,0.826-1.795,2.229-1.806
				c7.31-0.06,14.621-0.174,21.926-0.416c2.049-0.068,2.566,0.603,2.598,2.593c0.174,11.252,1.017,22.467,2.06,33.67
				c0.704,7.56,1.286,15.131,1.924,22.697c-0.731-0.036-1.178,0.521-1.746,0.827c-1.448,0.776-5.448,0.615-6.364-0.583
				c-1.474-1.925-3.453-2.22-5.581-2.462c-1.785-0.203-5.052-4.66-4.136-5.917c1.386-1.901,1.451-3.663,1.395-5.934
				C355.461,347.589,354.338,346.012,350.044,346.031"/>
			<path clip-path="url(#SVGID_4_)" fill-rule="evenodd" clip-rule="evenodd" fill="#93BC8A" d="M307.318,359.216
				c1.099,0.05,2.174-0.024,3.23-0.398c1.631-0.577,3.256-1.088,5.045-0.513c0.758,0.245,1.562-0.094,2.318-0.432
				c1.94-0.87,3.946-1.518,6.126-1.307c0.768,1.134,0.613,2.666,1.793,3.98c1.899-6.018,3.739-11.842,5.579-17.666
				c1.197,1.619,2.654,0.991,4.087,0.461c2.312-0.859,4.49-2.569,7.168-1.026c0.222,0.128,0.737-0.04,1.002-0.23
				c0.916-0.658,1.798-0.231,2.696-0.022c-4.009,11.684-8.021,23.365-12.013,35.054c-0.347,1.016-0.884,1.445-2.021,1.578
				c-5.541,0.647-11.13-0.066-16.659,0.674c-1.112,0.148-1.367-0.647-1.638-1.399C311.785,371.721,309.554,365.467,307.318,359.216"
				/>
			<path clip-path="url(#SVGID_4_)" fill-rule="evenodd" clip-rule="evenodd" fill="#93BC8A" d="M350.044,346.031
				c4.294-0.02,5.417,1.558,5.522,5.709c0.057,2.271-0.009,4.032-1.395,5.934c-0.916,1.257,2.351,5.714,4.136,5.917
				c2.128,0.242,4.107,0.537,5.581,2.462c0.916,1.198,4.916,1.359,6.364,0.583c0.568-0.306,1.015-0.863,1.746-0.827
				c0.525,3.899,1.043,7.8,1.581,11.699c0.107,0.786-0.253,1.046-0.977,1.048c-6.586,0.017-13.172,0.032-19.759,0.073
				c-1.116,0.008-1.271-0.611-1.323-1.536c-0.325-5.839-0.146-11.691-0.656-17.528C350.471,355.064,350.309,350.542,350.044,346.031
				"/>
			<path clip-path="url(#SVGID_4_)" fill-rule="evenodd" clip-rule="evenodd" fill="#93BA83" d="M346.363,342.062
				c-0.898-0.209-1.78-0.636-2.696,0.022c-0.265,0.19-0.779,0.358-1.002,0.23c-2.678-1.543-4.855,0.167-7.168,1.026
				c-1.433,0.53-2.89,1.158-4.087-0.461c1.792-6.023,3.584-12.045,5.377-18.068c0.163-0.55,0.323-1.1,0.486-1.648
				c0.193,0.095,0.557,0.189,0.556,0.282c-0.011,3.549,3.066,2.788,5.003,3.527c0.881,0.338,1.193-0.436,1.398-1.236
				c0.299-1.174,0.454-2.408,1.608-3.229c1.528-1.086,2.826-1.829,4.106,0.37c0.712,1.225,1.753,1.404,3.153,0.56
				c1.986-1.197,6.457-0.205,7.84,1.547c0.958,1.215-0.188,1.721-0.965,2.121c-1.811,0.936-3.701,1.716-5.536,2.605
				c-1.679,0.814-1.882,2.191-1.04,3.658c1.725,3.007,1.315,4.326-1.889,5.714c-0.631,0.273-1.251,0.359-1.912,0.337
				c-0.195-1.185-0.086-2.434-0.831-3.653C347.943,337.923,347.153,339.992,346.363,342.062"/>
			<path clip-path="url(#SVGID_4_)" fill-rule="evenodd" clip-rule="evenodd" fill="#93BC8A" d="M286.144,379.369
				c0.421-2.73,1.203-5.367,2.039-7.99c0.285-0.896,0.602-1.769,0.623-2.748c0.057-2.58,0.957-3.478,3.517-3.693
				c2.271-0.19,2.5-0.553,1.723-2.687c-1.054-2.894,1.616-2.621,2.961-3.475c-0.074,6.419-0.169,12.839-0.203,19.26
				c-0.007,1.276-0.699,1.391-1.682,1.379C292.13,379.381,289.137,379.382,286.144,379.369"/>
			<path clip-path="url(#SVGID_4_)" fill-rule="evenodd" clip-rule="evenodd" fill="#92AC75" d="M295.043,295.424
				c1.177-10.824,1.96-21.679,2.601-32.548c0.696-11.833,1.44-23.659,1.302-35.52c-0.014-1.295,0.392-1.824,1.759-1.819
				c7.394,0.033,14.789,0.027,22.182-0.053c1.281-0.014,1.594,0.653,1.875,1.624c4.814,16.587,10.514,32.892,15.852,49.31
				c0.215,0.66,0.055,1.721,1.271,1.662c0.381,0.606,0.907,1.077,1.18,1.803c1.5,3.983,0.844,5.039-3.33,4.999
				c-2.147-0.02-4.536-0.226-5.943,1.542c-1.753,2.199-3.817,2.706-6.347,2.432c-3.371-9.087-6.737-18.177-10.119-27.26
				c-0.953-2.559-1.956-5.099-3.152-7.607c-0.982,10.602-1.447,21.181-1.705,31.77c-1.67,1.026-0.515,2.632-0.776,3.946
				c-0.194,0.975,0.1,2.199-1.121,2.585C305.512,293.888,300.513,295.84,295.043,295.424"/>
			<path clip-path="url(#SVGID_4_)" fill-rule="evenodd" clip-rule="evenodd" fill="#A2AE71" d="M367.109,282.246
				c-0.671-9.572-1.343-19.145-2.014-28.716c-0.193-0.017-0.386-0.032-0.578-0.049c-0.892,2.284-1.782,4.565-2.673,6.849
				c-0.937-0.97-2.174-1.403-3.393-1.832c-1.734-0.608-3.463-1.611-5.19,0.201c-0.519,0.547-1.433,0.317-1.868-0.426
				c-0.716-1.224-1.795-1.594-3.114-1.531c2.921-10.068,5.849-20.135,8.754-30.208c0.302-1.046,0.798-1.507,1.985-1.486
				c7.534,0.131,15.067-0.031,22.593-0.397c1.636-0.08,2.127,0.402,2.156,2.061c0.329,18.438,2.062,36.781,3.895,55.114
				c0.131,1.311,0.204,2.627,0.302,3.94c-2.117,0.373-4.126-0.207-6.2-0.513C376.813,284.523,372.488,280.775,367.109,282.246"/>
			<path clip-path="url(#SVGID_4_)" fill-rule="evenodd" clip-rule="evenodd" fill="#93BA83" d="M327.445,288.854
				c2.529,0.275,4.594-0.232,6.347-2.432c1.406-1.768,3.796-1.562,5.943-1.542c4.174,0.04,4.83-1.016,3.33-4.999
				c-0.272-0.726-0.798-1.196-1.18-1.803c0.143-0.548,0.019-1.177,0.506-1.616c1.46,1.202,2.037,0.089,2.57-1.01
				c0.809-1.667,2.005-1.883,3.605-1.156c1.164,0.528,2.043,1.363,2.911,2.248c1.062,1.086,2.118,2.192,3.659,2.616
				c-1.394,5.521-3.71,10.738-5.365,16.172c-0.312,1.022-1.108,0.931-1.927,1.007c-4.453,0.415-8.917,0.408-13.383,0.448
				c-4.315,0.038-4.322,0.077-5.726-3.979C328.285,291.498,327.875,290.173,327.445,288.854"/>
			<path clip-path="url(#SVGID_4_)" fill-rule="evenodd" clip-rule="evenodd" fill="#A1BE87" d="M367.109,282.246
				c5.379-1.471,9.704,2.277,14.654,3.008c2.074,0.306,4.083,0.886,6.2,0.513c0.382,2.961,0.739,5.925,1.149,8.881
				c0.172,1.236-0.252,1.681-1.526,1.674c-6.205-0.036-12.41-0.021-18.615,0.033c-1.23,0.011-1.583-0.419-1.658-1.639
				C367.055,290.559,367.081,286.404,367.109,282.246"/>
			<path clip-path="url(#SVGID_4_)" fill-rule="evenodd" clip-rule="evenodd" fill="#92AC75" d="M355.138,279.161
				c-1.54-0.424-2.597-1.53-3.659-2.616c-0.867-0.885-1.747-1.721-2.911-2.248c-1.601-0.726-2.797-0.51-3.605,1.156
				c-0.533,1.099-1.11,2.212-2.57,1.01c1.962-6.574,3.925-13.147,5.888-19.72c1.319-0.063,2.398,0.306,3.114,1.53
				c0.436,0.744,1.35,0.972,1.868,0.427c1.728-1.813,3.456-0.812,5.191-0.202c1.218,0.429,2.455,0.862,3.392,1.832
				C359.762,266.661,357.751,273.019,355.138,279.161"/>
			<path clip-path="url(#SVGID_4_)" fill-rule="evenodd" clip-rule="evenodd" fill="#A1BE87" d="M295.043,295.424
				c5.47,0.416,10.469-1.536,15.528-3.136c1.221-0.386,0.927-1.61,1.121-2.585c0.262-1.314-0.894-2.92,0.776-3.946
				c0.02,3.21-0.008,6.422,0.08,9.631c0.037,1.345-0.492,1.811-1.783,1.804c-4.817-0.027-9.635-0.034-14.451,0.034
				C294.83,297.246,294.808,296.488,295.043,295.424"/>
			<path clip-path="url(#SVGID_4_)" fill-rule="evenodd" clip-rule="evenodd" fill="#ABB06D" d="M455.047,152.622
				c6.144-0.162,12.287-0.296,18.429-0.504c1.674-0.056,2.331,0.2,1.904,2.196c-2.138,10.013-10.719,18.126-21.101,19.725
				c-1.51,0.232-3.003,0.619-4.55,0.444c-1.901-0.215-2.813,0.639-2.976,2.534c-0.435,5.084-0.918,10.165-1.407,15.243
				c-0.538,5.587-1.106,11.17-1.662,16.755c-0.016,0.146-0.044,0.29-0.062,0.435c-0.405,3.46-0.398,3.442-3.675,2.424
				c-8.929-2.772-18.087-2.958-27.31-2.385c-0.438,0.027-0.872,0.151-1.307,0.146c-6.446-0.08-12.885,0.122-19.317,0.493
				c-1.387,0.08-1.997-0.161-2.161-1.799c-0.709-7.053-1.609-14.086-2.473-21.123c-0.315-2.57-0.162-2.694,2.463-3.054
				c7.924-1.085,15.835-2.263,23.755-3.38c2.594-0.366,5.192-0.699,7.797-0.964c1.063-0.107,1.294-0.486,0.792-1.388
				c-0.638-1.149-1.273-2.3-1.91-3.45c0.061-0.744,0.438-1.128,1.182-1.356c5.689-1.75,10.518-5.333,15.994-7.565
				c1.653-0.674,2.811-2.166,1.583-4.273c-0.554-0.949-0.218-1.524,0.856-1.981c2.407-1.023,4.938-1.645,7.383-2.518
				C450.149,156.254,453.524,155.944,455.047,152.622"/>
			<path clip-path="url(#SVGID_4_)" fill-rule="evenodd" clip-rule="evenodd" fill="#B2B476" d="M455.047,152.622
				c-1.522,3.322-4.897,3.632-7.771,4.656c-2.445,0.873-4.976,1.495-7.383,2.518c-1.074,0.457-1.41,1.032-0.856,1.981
				c1.228,2.107,0.07,3.599-1.583,4.273c-5.477,2.232-10.305,5.815-15.994,7.565c-0.743,0.228-1.121,0.612-1.182,1.356
				c-8.442-0.324-16.863,0.638-25.304,0.387c-0.8-0.024-1.6-0.046-2.398-0.069c0.239-1.458,1.86-1.689,2.507-2.91
				c0.844-1.591,0.693-2.293-1.031-2.925c-2.119-0.778-4.17-0.236-6.229-0.015c-3.29,0.354-6.188,2.053-9.319,2.987
				c-0.862,0.257-2.183-0.27-2.618,1.086c-6.256-2.357-12.341-5.008-16.988-10.071c-1.98-2.158-3.209-4.628-3.392-7.634
				c-0.106-1.767,0.307-2.451,2.243-2.436c8.863,0.063,17.737,0.21,26.592-0.115c13.691-0.506,27.39,0.116,41.07-0.419
				C435.293,152.451,445.167,152.62,455.047,152.622"/>
			<path clip-path="url(#SVGID_4_)" fill-rule="evenodd" clip-rule="evenodd" fill="#A2AE71" d="M375.884,173.512
				c0.436-1.356,1.756-0.828,2.618-1.085c3.131-0.935,6.029-2.635,9.319-2.988c2.06-0.221,4.11-0.762,6.229,0.016
				c1.725,0.632,1.875,1.334,1.031,2.924c-0.646,1.22-2.268,1.452-2.507,2.911C386.936,175.399,381.252,175.927,375.884,173.512"/>
			<path clip-path="url(#SVGID_4_)" fill-rule="evenodd" clip-rule="evenodd" fill="#809A66" d="M579.88,341.222
				c1.081,3.848,0.957,7.811,1.036,11.742c0.187,9.271-0.981,18.321-4.831,26.872c-4.806,10.675-12.578,18.24-23.426,22.779
				c-4.574,1.914-9.144,3.762-13.969,4.878c-7.179,1.66-14.26,0.393-21.303-1.027c-2.127-0.43-5.088-0.428-6.003-2.053
				c-0.908-1.614,0.977-3.992,1.647-6.03c1.182-3.588,2.467-7.142,3.638-10.733c0.442-1.358,0.923-1.814,2.446-1.134
				c5.052,2.256,10.353,3.549,15.929,3.492c8.481-0.085,14.473-3.972,17.885-11.766c1.923-4.392,2.649-9.066,3.254-13.769
				c0.032-0.254-0.086-0.524-0.197-1.14c-15.851,12.293-31.04,11.888-45.567-1.885c0.269-0.6,0.774-0.779,1.385-0.923
				c7.746-1.816,15.471-3.712,22.897-6.631c1.638,0.745,3.222,1.946,4.923,2.146c4.515,0.527,8.988,0.21,13.097-2.183
				c3.782-2.204,3.82-2.161,3.203-6.478c3.927-1.622,7.965-3.186,12.125-3.688C572.104,343.204,576.055,342.623,579.88,341.222"/>
			<path clip-path="url(#SVGID_4_)" fill-rule="evenodd" clip-rule="evenodd" fill="#AABE83" d="M534.701,353.896
				c-7.427,2.919-15.151,4.814-22.896,6.631c-0.611,0.144-1.117,0.323-1.386,0.923c-4.264-4.894-6.226-10.736-6.488-17.076
				c-0.64-15.454,7.021-26.713,22.277-32.99c3.237-1.332,6.568-2.446,9.89-3.565c7.805-2.63,15.317-1.105,22.564,2.029
				c10.936,4.729,16.623,13.839,19.897,24.773c0.642,2.143,1.342,4.31,1.32,6.602c-3.825,1.401-7.777,1.982-11.831,2.472
				c-4.16,0.502-8.198,2.065-12.125,3.688c-0.051-0.436-0.099-0.87-0.153-1.304c-0.745-5.835-1.924-11.557-5.406-16.46
				c-2.999-4.223-7.219-6.2-12.374-5.491c-5.322,0.732-8.205,4.344-9.275,9.295C527.022,341.253,528.101,348.419,534.701,353.896"/>
			<path clip-path="url(#SVGID_4_)" fill-rule="evenodd" clip-rule="evenodd" fill="#ABB06D" d="M523.689,153.365
				c10.264,11.941,18.062,25.343,23.657,40.037c3.928,10.316,6.637,20.928,8.041,31.906c1.267,9.911,1.643,19.821,0.755,29.753
				c-0.958,10.691-2.972,21.198-6.418,31.394c-1.228,3.632-4.156,5.239-7.467,4.168c-3.301-1.067-4.957-4.064-3.854-7.478
				c2.479-7.651,4.367-15.441,5.303-23.417c0.988-8.429,1.337-16.875,0.721-25.396c-1.049-14.479-4.415-28.324-10.12-41.645
				c-5.079-11.861-11.682-22.76-20.22-32.463c-0.285-0.323-0.487-0.72-0.728-1.084c2.473-0.639,4.307-2.346,6.316-3.758
				C520.913,154.512,522.007,153.35,523.689,153.365"/>
			<path clip-path="url(#SVGID_4_)" fill-rule="evenodd" clip-rule="evenodd" fill="#ABB06D" d="M505.997,151.346
				c-4.064-3.657-8.175-7.255-12.473-10.644c-2.473-1.95-2.786-5.494-1.02-7.846c2.008-2.672,5.378-3.345,8.135-1.383
				c4.699,3.344,9.055,7.112,13.067,11.265C511.201,145.667,507.982,147.955,505.997,151.346"/>
			<path clip-path="url(#SVGID_4_)" fill-rule="evenodd" clip-rule="evenodd" fill="#BAB674" d="M505.997,151.346
				c1.985-3.392,5.204-5.679,7.71-8.608c3.687,3.206,6.887,6.867,9.982,10.627c-1.683-0.016-2.776,1.146-4.014,2.015
				c-2.009,1.414-3.843,3.12-6.315,3.759C510.905,156.543,508.451,153.945,505.997,151.346"/>
			<path clip-path="url(#SVGID_4_)" fill-rule="evenodd" clip-rule="evenodd" fill="#A2AE71" d="M399.709,287.951
				c0.169-7.903,0.497-15.806,0.303-23.713c-0.263-10.682-0.524-21.363-0.889-32.042c-0.068-2.037-0.277-4.082-0.433-6.121
				c-0.141-1.827,0.78-1.826,2.092-1.825c10.258,0.009,20.516,0.023,30.773-0.058c5.342-0.043,10.684-0.248,16.021-0.442
				c1.497-0.055,2.177,0.049,1.871,1.976c-0.57,3.596-0.732,7.258-1.017,10.897c-0.117,1.508-0.416,2.328-2.325,2.632
				c-3.703,0.587-7.241-0.181-10.859-0.385c-4.59-0.26-9.196-0.585-13.809-0.2c-1.042,0.087-1.16,0.632-1.158,1.441
				c0.008,3.664,0.049,7.328-0.021,10.989c-0.03,1.602,0.977,1.569,2.029,1.519c5.117-0.242,10.233-0.51,15.35-0.771
				c2.909-0.148,3.002-0.145,2.85,2.669c-0.2,3.72-0.609,7.428-0.832,11.146c-0.072,1.202-0.683,1.257-1.586,1.152
				c-5.253-0.61-10.536-0.244-15.799-0.494c-1.558-0.074-2.06,0.478-1.974,2.019c0.211,3.8,0.352,7.605,0.394,11.41
				c0.017,1.409,0.598,1.701,1.855,1.695c7.382-0.028,14.756,0.044,22.077-1.263c2.206-0.395,4.521-0.247,6.77,0.271
				c0.769,0.178,1.21,0.403,1.136,1.248c-0.26,2.979-0.365,5.975-0.953,8.918c-0.795-0.093-1.591-0.172-2.383-0.281
				c-3.081-0.425-6.025-1.063-9.207,0.357c-2.135,0.953-4.676,1.622-7.229,1.225c-3.401-0.53-6.594-2.006-10.227-1.62
				c-2.156,0.229-4.348-0.777-6.683-0.238c-1.572,0.361-3.314,0.169-5.006-0.152C407.142,289.212,403.58,287.678,399.709,287.951"/>
			<path clip-path="url(#SVGID_4_)" fill-rule="evenodd" clip-rule="evenodd" fill="#AABE83" d="M399.709,287.951
				c3.871-0.273,7.433,1.261,11.134,1.96c1.691,0.321,3.434,0.514,5.006,0.152c2.335-0.539,4.526,0.468,6.683,0.238
				c3.633-0.386,6.825,1.09,10.227,1.62c2.553,0.397,5.094-0.271,7.229-1.225c3.182-1.421,6.126-0.782,9.207-0.357
				c0.792,0.109,1.588,0.188,2.383,0.281c-0.197,5.249-0.197,5.239-5.347,5.243c-14.992,0.01-29.985,0.005-44.977,0.079
				c-1.666,0.009-2.364-0.401-1.921-2.098C399.839,291.905,399.479,289.909,399.709,287.951"/>
			<path clip-path="url(#SVGID_4_)" fill-rule="evenodd" clip-rule="evenodd" fill="#A2AE71" d="M500.197,290.68
				c-4.134-5.474-8.261-10.955-12.409-16.419c-0.813-1.072-4.22-1.771-5.368-1.162c-0.863,0.457-0.561,1.288-0.528,1.954
				c0.232,4.816,0.52,9.629,0.783,14.442c0.02,0.363-0.012,0.73-0.017,1.096c-2.653,1.548-5.537,1.721-8.551,1.856
				c-4.302,0.196-8.489-1.526-12.795-0.542c0.597-12.3,0.383-24.608,0.324-36.913c-0.048-9.74-0.392-19.476-1.218-29.186
				c-0.118-1.396,0.185-2.103,1.699-2.028c5.42,0.269,10.818-0.406,16.231-0.431c0.031,1.897-0.295,3.889,0.169,5.674
				c0.838,3.207,2.425,6.264,0.397,9.576c-0.366,0.599-0.001,1.297,0.27,1.892c0.949,2.09,0.778,4.123,0.28,6.355
				c-0.58,2.598-0.676,5.381,1.961,7.258c0.049,1.449,0.094,2.897,0.147,4.347c0.03,0.811,0.281,1.356,1.262,1.393
				c3.893,0.149,7.674-0.098,10.895-2.665c2,0.322,2.888-0.961,3.544-2.506c0.674-1.587,1.684-2.781,3.173-3.742
				c3.258-2.104,6.157-0.927,8.996,0.759c1.003,0.597,1.519,0.785,2.251-0.367c0.865-1.362,3.756-1.803,5.432-1.063
				c-1.592,6.864-5.712,11.782-11.778,15.147c-1.55,0.859-1.069,1.554-0.134,2.465c5.183,5.049,10.294,10.169,15.552,15.136
				c1.458,1.378,2.184,2.753,2.012,4.755c-0.156,1.813-0.057,3.649-0.068,5.475c-3.722,0.029-7.415,0.041-11.11-0.764
				C507.846,291.653,504.002,291.26,500.197,290.68"/>
			<path clip-path="url(#SVGID_4_)" fill-rule="evenodd" clip-rule="evenodd" fill="#ABB06D" d="M481.427,254.102
				c-2.637-1.877-2.54-4.66-1.961-7.258c0.498-2.233,0.67-4.266-0.28-6.355c-0.271-0.594-0.637-1.292-0.27-1.892
				c2.027-3.312,0.44-6.369-0.396-9.576c-0.465-1.785-0.139-3.777-0.17-5.674c10.356-1.344,20.703-2.312,30.008,3.968
				c7.202,4.863,10.073,11.825,9.192,20.392c-0.087,0.851,0.15,1.773-0.424,2.549c-1.676-0.739-4.566-0.298-5.432,1.063
				c-0.732,1.152-1.248,0.964-2.251,0.367c-2.839-1.686-5.738-2.863-8.996-0.759c-1.489,0.961-2.499,2.155-3.173,3.742
				c-0.656,1.545-1.544,2.828-3.543,2.506c4.439-4.451,4.122-11.68,1.757-15.825c-2.257-3.953-6.951-5.494-12.671-4.486
				c-1.403,0.248-1.39,0.905-1.388,1.902C481.44,243.879,481.43,248.991,481.427,254.102"/>
			<path clip-path="url(#SVGID_4_)" fill-rule="evenodd" clip-rule="evenodd" fill="#AABE83" d="M461.312,291.905
				c4.306-0.984,8.493,0.738,12.795,0.542c3.014-0.137,5.897-0.309,8.551-1.856c0.277,4.46,0.272,4.325-4.255,4.502
				c-4.606,0.179-9.209,0.364-13.819,0.344C461.045,295.42,461.045,295.436,461.312,291.905"/>
			<path clip-path="url(#SVGID_4_)" fill-rule="evenodd" clip-rule="evenodd" fill="#AABE83" d="M500.197,290.68
				c3.805,0.58,7.648,0.974,11.401,1.79c3.695,0.805,7.389,0.793,11.11,0.764c0.195,0.927-0.157,1.272-1.122,1.371
				c-5.833,0.602-11.687,0.255-17.527,0.462c-1.079,0.037-1.549-0.648-2.018-1.411C501.431,292.662,500.812,291.672,500.197,290.68"
				/>
			<path clip-path="url(#SVGID_4_)" fill-rule="evenodd" clip-rule="evenodd" fill="#AABE83" d="M472.265,371.115
				c-0.062-9.597-0.111-19.194-0.197-28.791c-0.02-2.118-0.209-4.235-0.235-6.354c-0.017-1.274-0.475-1.402-1.635-1.105
				c-3.739,0.955-7.519,1.751-11.273,2.649c-1.392,0.334-2.291,0.277-2.705-1.471c-0.709-2.982-1.635-5.921-2.636-8.821
				c-0.499-1.444-0.162-2.116,1.225-2.65c10.65-4.107,21.041-8.817,31.348-13.711c1.178-0.559,2.209-0.624,3.319,0.026
				c0.505,0.295,1.021,0.588,1.568,0.791c2.532,0.939,3.445,2.378,3.261,5.393c-0.942,15.433-0.567,30.895-0.538,46.349
				c0.002,0.804-0.045,1.607-0.07,2.41C486.386,366.918,479.437,369.467,472.265,371.115"/>
			<path clip-path="url(#SVGID_4_)" fill-rule="evenodd" clip-rule="evenodd" fill="#809A66" d="M472.265,371.115
				c7.172-1.648,14.121-4.197,21.431-5.285c0.153,4.164,0.339,8.325,0.454,12.489c0.198,7.228,0.494,14.45,1.171,21.651
				c0.098,1.025-0.004,1.466-1.146,1.481c-7.164,0.102-14.328,0.239-21.49,0.399c-1.043,0.024-1.451-0.306-1.352-1.383
				C472.244,390.705,472.179,380.907,472.265,371.115"/>
			<path clip-path="url(#SVGID_4_)" fill-rule="evenodd" clip-rule="evenodd" fill="#A1BE87" d="M384.271,365.379
				c-0.029-9.965,0.082-19.934-0.128-29.895c-0.184-8.7-0.269-17.417-1.216-26.084c-0.215-1.971,0.356-2.589,2.436-2.599
				c8.412-0.037,16.778-0.946,25.163-1.54c12.315-0.871,26.438,4.556,29.203,19.781c2.114,11.651-1.72,21.665-13.742,28.447
				c-4.799,2.706-9.887,4.739-15.269,5.952c-1.122,0.252-2.345,0.309-3.485,0.167c-2.039-0.253-2.568,0.594-2.361,2.473
				c0.17,1.521,0.089,3.072,0.119,4.61c-1.919,0.129-3.78,0.189-4.915-1.86c-0.21-0.379-0.89-0.472-1.302-0.769
				c-3.49-2.504-7.88-2.402-11.684-4.037c-1.61-0.693-1.624,0.598-1.363,1.695C386.103,363.309,386.4,364.812,384.271,365.379
				 M404.439,332.604h0.014c0,3.737-0.011,7.474,0.009,11.21c0.004,0.685-0.211,1.456,0.831,1.762
				c3.986,1.166,10.115-0.993,12.181-4.735c2.957-5.358,2.95-11.003,0.186-16.406c-2.097-4.099-7.88-6.094-12.23-4.742
				c-1.075,0.333-0.985,1.121-0.986,1.922C404.437,325.276,404.439,328.939,404.439,332.604"/>
			<path clip-path="url(#SVGID_4_)" fill-rule="evenodd" clip-rule="evenodd" fill="#93BC8A" d="M384.271,365.379
				c2.13-0.567,1.832-2.07,1.456-3.657c-0.261-1.098-0.247-2.389,1.364-1.695c3.803,1.635,8.192,1.533,11.683,4.037
				c0.412,0.296,1.091,0.39,1.302,0.769c1.135,2.05,2.996,1.989,4.915,1.86c0.257,3.275,0.481,6.553,0.784,9.824
				c0.116,1.27-0.365,1.632-1.597,1.63c-6.22-0.01-12.441,0.019-18.662,0.124c-1.51,0.025-1.864-0.552-1.776-1.939
				C383.975,372.684,384.102,369.03,384.271,365.379"/>
			<path clip-path="url(#SVGID_4_)" fill-rule="evenodd" clip-rule="evenodd" fill="#B2B476" d="M281.39,205.288
				c0.8-4.788,2.596-9.273,4.393-13.729c9.315-23.102,23.72-42.436,43.203-57.978c3.46-2.76,6.832-2.79,9.095,0.022
				c2.386,2.966,1.853,6.494-1.544,9.163c-12.526,9.845-22.733,21.708-30.915,35.347c-4.499,7.5-7.998,15.458-10.893,23.695
				c-0.7,0.161-1.398,0.325-2.099,0.481C288.842,203.135,285.305,204.919,281.39,205.288"/>
			<path clip-path="url(#SVGID_4_)" fill-rule="evenodd" clip-rule="evenodd" fill="#A2AE71" d="M281.39,205.288
				c3.915-0.369,7.452-2.153,11.24-2.999c0.7-0.156,1.398-0.32,2.099-0.481c-0.599,1.945-1.117,3.922-1.816,5.832
				c-1.127,3.083-3.839,4.467-7.172,3.796C282.969,210.879,281.27,208.477,281.39,205.288"/>
			<path clip-path="url(#SVGID_4_)" fill-rule="evenodd" clip-rule="evenodd" fill="#BAB674" d="M441.907,121.283
				c3.487-7.924,6.498-15.989,8.028-24.571c1.377-7.723,1.755-15.457,1.02-23.257c0.074-0.071,0.146-0.143,0.217-0.217
				c5.918,4.797,10.204,10.825,13.058,17.828c4.805,11.795,4.112,23.742,0.632,35.71c-1.533,5.268-3.59,10.321-6.207,15.147
				c-0.445,0.821-0.875,1.399-1.97,1.368c-9.44-0.262-18.868,0.405-28.307,0.405c-0.263,0-0.526-0.057-1.119-0.126
				c2.349-3.047,4.512-5.851,6.674-8.657c1.108,0.179,2.056,0.727,2.927,1.385c1.428,1.08,2.748,1.001,4.164-0.079
				c2.761-2.105,4.771-4.912,6.665-7.701c0.852-1.254,1.034-3.637-0.36-4.885C445.885,122.341,444.194,120.935,441.907,121.283"/>
			<path clip-path="url(#SVGID_4_)" fill-rule="evenodd" clip-rule="evenodd" fill="#ABB06D" d="M441.907,121.283
				c2.287-0.348,3.978,1.059,5.421,2.35c1.395,1.248,1.212,3.631,0.36,4.885c-1.895,2.789-3.904,5.595-6.665,7.701
				c-1.416,1.08-2.736,1.159-4.164,0.079c-0.871-0.658-1.818-1.207-2.927-1.385C436.786,130.483,439.464,125.952,441.907,121.283"/>
			<path clip-path="url(#SVGID_4_)" fill-rule="evenodd" clip-rule="evenodd" fill="#BAB674" d="M450.955,73.455
				c-0.152-0.129-0.269-0.273-0.045-0.423c0.027-0.02,0.171,0.133,0.262,0.207C451.101,73.312,451.029,73.384,450.955,73.455"/>
			<path clip-path="url(#SVGID_4_)" fill-rule="evenodd" clip-rule="evenodd" fill="#9BAF78" d="M202.905,197.531
				c0-2.197,0.059-4.397-0.021-6.591c-0.047-1.259,0.432-1.734,1.649-1.65c0.728,0.051,1.468,0.059,2.195-0.005
				c1.384-0.119,1.732,0.557,1.74,1.83c0.022,4.245,0.12,8.491,0.222,12.736c0.12,4.938-3.291,9.654-10.466,9.383
				c-5.745-0.218-9.267-3.556-9.32-9.325c-0.037-4.102-0.034-8.205-0.15-12.305c-0.047-1.595,0.252-2.402,2.13-2.354
				c3.425,0.088,3.404-0.023,3.465,3.443c0.067,3.805,0.183,7.61,0.279,11.416c0.062,2.441,1.555,4.026,3.898,4.141
				c2.473,0.121,4.383-1.59,4.466-4.126c0.072-2.195,0.015-4.395,0.015-6.593C202.973,197.531,202.939,197.531,202.905,197.531"/>
			<path clip-path="url(#SVGID_4_)" fill-rule="evenodd" clip-rule="evenodd" fill="#9BAF78" d="M252.288,212.487
				c-0.368,0.153-0.429,0.192-0.494,0.204c-4.065,0.781-7.039-0.288-8.358-4.614c-0.417-1.37-1.384-2.567-2.033-3.876
				c-0.507-1.024-1.327-1.035-2.231-0.817c-1.008,0.243-0.819,1.09-0.799,1.792c0.054,1.974,0.117,3.948,0.244,5.917
				c0.077,1.158-0.212,1.684-1.536,1.73c-4.197,0.15-4.142,0.209-4.211-4.031c-0.097-5.926,0.137-11.861-0.323-17.78
				c-0.095-1.222,0.331-1.812,1.593-1.678c0.072,0.008,0.146,0,0.22-0.004c3.858-0.189,3.854-0.189,3.866,3.579
				c0.002,1.171-0.009,2.345,0.052,3.514c0.038,0.727-0.342,1.721,0.95,1.832c1.006,0.086,1.821-0.013,2.337-1.117
				c0.927-1.983,2.12-3.849,2.966-5.861c0.681-1.622,1.692-2.285,3.366-1.964c1.135,0.218,2.7-0.862,3.283,0.143
				c0.608,1.048-0.781,2.188-1.282,3.288c-0.544,1.194-1.105,2.439-1.933,3.434c-2.558,3.074-2.119,5.884,0.115,8.96
				C249.697,207.36,250.846,209.923,252.288,212.487"/>
			<path clip-path="url(#SVGID_4_)" fill-rule="evenodd" clip-rule="evenodd" fill="#9BAF78" d="M148.402,201.145
				c0-3.366,0.046-6.731-0.021-10.095c-0.027-1.336,0.444-1.813,1.776-1.777c2.632,0.071,5.27-0.048,7.9,0.037
				c2.671,0.086,5.13,0.817,6.439,3.417c1.246,2.477,0.818,4.827-1,6.913c-0.435,0.499-0.703,0.852,0.082,1.364
				c2.777,1.812,3.061,4.51,2.225,7.372c-0.743,2.545-3.54,4.241-6.725,4.375c-2.992,0.125-5.989,0.172-8.974,0.384
				c-1.39,0.1-1.603-0.554-1.595-1.675c0.025-3.438,0.01-6.876,0.01-10.315H148.402z M154.195,205.225
				c0.005,2.862,0.1,3.021,1.655,3.03c2.982,0.017,4.482-0.881,4.511-2.698c0.027-1.79-1.087-2.404-3.802-2.56
				C154.597,202.884,153.799,203.509,154.195,205.225 M154.204,196.182c-0.002,1.288-0.338,2.705,1.604,2.419
				c1.53-0.225,3.512-0.064,3.552-2.325c0.033-1.847-1.393-2.025-2.938-2.035C154.884,194.233,153.759,194.372,154.204,196.182"/>
			<path clip-path="url(#SVGID_4_)" fill-rule="evenodd" clip-rule="evenodd" fill="#A1BE87" d="M429.1,365.446
				c-0.004-3.047,2.103-5.477,5.134-5.815c4.851-0.54,9.724-0.848,14.553-1.649c3.125-0.521,6.058,1.928,6.595,5.118
				c0.508,3.014-1.568,6.066-4.682,6.663c-5.1,0.977-10.278,1.375-15.448,1.683C431.776,371.651,429.104,368.87,429.1,365.446"/>
			<path clip-path="url(#SVGID_4_)" fill-rule="evenodd" clip-rule="evenodd" fill="#F6F7F5" d="M162.584,265.107
				c-0.202,4.71-0.639,9.207-2.711,13.362c-4.382,8.783-15.467,10.09-21.86,2.594c-3.496-4.1-5.009-9.048-5.722-14.218
				c-0.711-5.154-0.623-10.356,0.818-15.414c1.324-4.654,3.52-8.724,8.441-10.495c5.6-2.016,11.773-0.002,15.565,5.05
				C161.41,251.706,162.288,258.403,162.584,265.107 M160.369,264.974c-0.14-1.653-0.21-3.559-0.477-5.437
				c-0.75-5.297-2.236-10.3-6.312-14.106c-5.422-5.062-13.667-3.597-16.957,3.017c-0.549,1.104-0.981,2.284-1.329,3.471
				c-1.422,4.857-1.396,9.849-0.765,14.773c0.568,4.424,1.923,8.649,4.682,12.354c4.803,6.444,15.442,6.667,19.108-2.455
				C159.795,272.92,160.122,269.093,160.369,264.974"/>
			<path clip-path="url(#SVGID_4_)" fill-rule="evenodd" clip-rule="evenodd" fill="#8BAB78" d="M137.926,352.182
				c0.052-0.994-0.12-1.996,0.375-2.959c0.691-1.343,1.505-2.259,3.151-1.438c-0.439,0.993-1.073,1.948-1.269,2.987
				C139.909,352.221,138.975,352.196,137.926,352.182"/>
			<path clip-path="url(#SVGID_4_)" fill-rule="evenodd" clip-rule="evenodd" fill="#92AC75" d="M216.588,254.572
				c-0.013,0.34-0.05,0.693-0.423,0.646c-0.793-0.098-0.914-0.826-1.114-1.409c-0.136-0.396,0.19-0.824,0.534-0.728
				C216.289,253.274,216.366,254.023,216.588,254.572"/>
			<path clip-path="url(#SVGID_4_)" fill-rule="evenodd" clip-rule="evenodd" fill="#F6F7F5" d="M230.285,349.103
				c1.897-7.037,3.795-14.074,5.694-21.112c0.155-0.595-0.061-1.524,0.758-1.606c0.85-0.087,0.795,0.893,0.989,1.441
				c1.046,2.982,2.031,5.984,3.037,8.98c1.541,4.942,3.012,9.909,4.658,14.816c0.617,1.84,0.154,2.334-1.687,2.312
				c-4.322-0.051-8.647-0.006-12.969,0.092c-1.494,0.034-1.82-0.319-1.364-1.818C229.711,351.19,230.491,350.27,230.285,349.103
				 M237.077,332.988c-1.765,6.551-3.388,12.566-5.043,18.707h11.043C241.104,345.546,239.171,339.52,237.077,332.988"/>
			<path clip-path="url(#SVGID_4_)" fill-rule="evenodd" clip-rule="evenodd" fill="#F6F7F5" d="M534.701,353.896
				c-6.601-5.477-7.679-12.643-5.986-20.475c1.07-4.951,3.954-8.562,9.275-9.295c5.155-0.709,9.375,1.269,12.374,5.491
				c3.482,4.903,4.661,10.625,5.405,16.46c0.056,0.434,0.104,0.868,0.154,1.304c0.617,4.316,0.579,4.273-3.203,6.478
				c-4.108,2.393-8.582,2.711-13.097,2.183C537.922,355.842,536.339,354.641,534.701,353.896 M543.949,353.986
				c3.014,0.247,5.995-1.087,8.881-2.76c0.831-0.481,1.318-1.054,1.136-2.112c-0.482-2.798-0.739-5.644-1.375-8.405
				c-1.007-4.374-2.367-8.642-5.854-11.809c-5.511-5.006-13.351-2.95-15.63,4.101c-0.798,2.468-0.987,5.019-0.818,7.593
				C530.837,348.965,535.811,353.994,543.949,353.986"/>
			<path clip-path="url(#SVGID_4_)" fill-rule="evenodd" clip-rule="evenodd" fill="#F6F7F5" d="M481.427,254.102
				c0.003-5.111,0.014-10.222,0.003-15.333c-0.002-0.999-0.016-1.656,1.388-1.903c5.72-1.007,10.414,0.533,12.671,4.487
				c2.365,4.145,2.683,11.373-1.757,15.824c-3.222,2.566-7.003,2.814-10.895,2.666c-0.981-0.037-1.232-0.582-1.263-1.393
				C481.521,256.999,481.476,255.55,481.427,254.102 M483.66,248.141c0.044,0,0.088,0,0.133,0c0,2.707,0.042,5.418-0.021,8.124
				c-0.025,1.047,0.287,1.396,1.355,1.382c5.319-0.067,9.405-2.142,9.768-8.604c0.348-6.233-2.287-10.188-9.239-10.344
				c-1.45-0.034-2.126,0.336-2.031,1.974C483.767,243.154,483.66,245.65,483.66,248.141"/>
			<path clip-path="url(#SVGID_4_)" fill-rule="evenodd" clip-rule="evenodd" fill="#F6F7F5" d="M404.439,332.604
				c0-3.664-0.003-7.327,0.003-10.99c0.001-0.801-0.089-1.589,0.986-1.922c4.351-1.352,10.134,0.644,12.23,4.742
				c2.765,5.403,2.771,11.048-0.186,16.406c-2.065,3.742-8.194,5.901-12.181,4.735c-1.041-0.306-0.827-1.077-0.83-1.762
				c-0.021-3.736-0.01-7.473-0.01-11.21H404.439z M406.652,332.385h0.021c0,3.067,0,6.135,0.001,9.201
				c0,0.146,0.027,0.295,0.007,0.438c-0.148,1.008,0.202,1.348,1.289,1.378c4.198,0.117,7.403-1.963,8.664-5.949
				c0.943-2.98,0.906-6.052,0.188-9.069c-1.135-4.761-3.977-6.764-8.869-6.574c-1.071,0.042-1.343,0.353-1.323,1.375
				C406.69,326.25,406.652,329.317,406.652,332.385"/>
			<path clip-path="url(#SVGID_4_)" fill-rule="evenodd" clip-rule="evenodd" fill="#F6F7F5" d="M154.195,205.225
				c-0.396-1.716,0.403-2.341,2.364-2.228c2.715,0.156,3.831,0.77,3.802,2.56c-0.029,1.817-1.529,2.715-4.511,2.699
				C154.295,208.247,154.2,208.087,154.195,205.225"/>
			<path clip-path="url(#SVGID_4_)" fill-rule="evenodd" clip-rule="evenodd" fill="#F6F7F5" d="M154.204,196.182
				c-0.445-1.81,0.68-1.948,2.217-1.94c1.546,0.009,2.971,0.188,2.938,2.035c-0.04,2.261-2.021,2.1-3.552,2.325
				C153.866,198.887,154.202,197.469,154.204,196.182"/>
		</g>
	</g>
</g>
</svg>
