<?xml version="1.0" encoding="utf-8"?>
<!-- Generator: Adobe Illustrator 16.0.0, SVG Export Plug-In . SVG Version: 6.00 Build 0)  -->
<!DOCTYPE svg PUBLIC "-//W3C//DTD SVG 1.1//EN" "http://www.w3.org/Graphics/SVG/1.1/DTD/svg11.dtd">
<svg version="1.1" id="Layer_1" xmlns="http://www.w3.org/2000/svg" xmlns:xlink="http://www.w3.org/1999/xlink" x="0px" y="0px"
	 width="1154px" height="1106.167px" viewBox="-201.857 42 1154 1106.167" enable-background="new -201.857 42 1154 1106.167"
	 xml:space="preserve">
<g>
	<path fill-rule="evenodd" clip-rule="evenodd" fill="#172F3D" d="M918.727,200.785c0.125,4.847-0.021,9.719,0.431,14.535
		c0.996,10.622-3.358,18.435-11.25,25.293c-41.664,36.219-82.976,72.84-124.693,108.994
		c-51.57,44.688-103.461,89.007-155.139,133.57c-71.7,61.831-139.67,127.75-209.621,191.5c-1.537,1.399-2.739,3.17-4.097,4.769
		c-6.438,3.388-6.091,6.785-0.911,11.579c14.024,12.977,27.691,26.341,41.449,39.605c34.725,33.481,69.448,66.967,104.125,100.5
		c41.223,39.864,82.72,79.45,123.445,119.817c18.86,18.696,37.855,36.17,63.564,45.544c9.421,3.436,15.613,4.593,21.384-4.218
		c1.154-1.763,2.62-3.333,4.023-4.918c21.53-24.31,43.262-48.482,68.469-69.074c26.412-21.576,56.603-15.048,72.892,15.114
		c2.142,3.967,3.887,8.149,5.814,12.231c0.088,14.557,1.438,29.242-0.062,43.632c-1.823,17.506-11.828,31.262-25.229,42.498
		c-19.106,16.021-41.597,23.924-65.935,26.731c-14.409,1.661-28.975,1.96-43.461,2.982c-15.768,1.114-27.014-7.519-37.294-17.643
		c-19.656-19.357-38.362-39.718-58.563-58.479c-97.801-90.839-196.043-181.2-293.849-272.033c-7.126-6.618-10.99-6.616-18.118,0.001
		C275.166,807.021,173.827,900.291,72.868,993.971c-16.205,15.037-31.193,31.405-46.46,47.43
		c-13.967,14.659-29.767,22.017-50.952,19.706c-17.364-1.895-35.097-1.741-51.987-6.333c-32.801-8.919-60.716-24.962-70.578-60.307
		c-4.391-15.737-1.59-32.519-1.18-48.842c1.929-4.082,3.652-8.276,5.819-12.228c13.15-23.976,41.887-40.145,70.729-16.757
		c5.644,4.577,11.302,9.176,16.575,14.165c21.612,20.448,41.817,42.237,61.276,64.734c2.29,2.646,4.81,6.86,8.902,4.607
		c14.022-7.725,30.921-10.256,42.869-21.325c27.81-25.765,54.863-52.347,82.23-78.588c26.491-25.403,53.082-50.702,79.466-76.215
		c45.806-44.293,91.428-88.775,137.3-132.999c5.077-4.894,5.509-8.193-0.913-11.58c-19.898-20.855-41.833-39.559-62.904-59.164
		c-41.096-38.242-82.134-76.567-124.063-113.882c-40.761-36.274-82.725-71.195-123.954-106.95
		c-61.182-53.058-122.01-106.522-183.392-159.347c-13.181-11.344-10.209-25.341-10.057-39.322
		c15.601-29.737,47.804-29.105,67.346-6.812c19.976,22.785,41.996,43.779,63.134,65.543C5.118,283.23,28.25,306.87,51.212,330.67
		c46.716,48.42,92.722,97.547,140.186,145.222c47.304,47.513,96.019,93.624,144.153,140.312
		c14.805,14.36,29.875,28.454,44.509,42.986c3.961,3.933,6.26,3.931,10.209-0.004c12.888-12.844,26.23-25.228,39.319-37.872
		c38.621-37.312,77.248-74.617,115.783-112.014c26.526-25.742,52.401-52.111,77.775-79.008
		c29.982-31.781,60.982-62.598,91.385-93.987c47.909-49.463,95.588-99.151,143.613-148.502c8.471-8.704,19.427-11.15,31.669-9.538
		C904.14,180.153,911.841,189.759,918.727,200.785z"/>
	<path fill-rule="evenodd" clip-rule="evenodd" fill="#059D25" d="M918.727,200.785c-6.886-11.025-14.587-20.631-28.913-22.519
		c-12.242-1.612-23.198,0.834-31.669,9.538c-48.025,49.351-95.704,99.039-143.613,148.502
		c-30.402,31.389-61.402,62.206-91.385,93.987c-25.374,26.896-51.249,53.266-77.775,79.008
		c-38.535,37.396-77.162,74.702-115.783,112.014c-13.089,12.645-26.432,25.028-39.319,37.872c-3.949,3.935-6.248,3.937-10.209,0.004
		c-14.635-14.532-29.704-28.626-44.509-42.986c-48.134-46.688-96.849-92.799-144.153-140.312
		c-47.464-47.675-93.469-96.802-140.186-145.222C28.25,306.87,5.118,283.23-17.925,259.506
		c-21.138-21.764-43.158-42.758-63.134-65.543c-19.542-22.293-51.746-22.924-67.346,6.812c-3.223-12.51,7.608-26.942,20.764-32.681
		c12.353-5.388,28.375-2.649,37.742,6.765C-1.93,263.284,84.912,352.812,171.127,442.942
		c39.021,40.793,80.62,78.915,120.871,118.431c29.016,28.486,58.603,56.39,87.911,84.579c2.841,2.732,4.741,5.756,9.323,1.316
		c67.559-65.466,137.02-129.068,202.561-196.486c75.279-77.434,150.325-155.118,225.438-232.727
		c14.14-14.608,29.164-28.392,42.812-43.434c9.355-10.308,28.601-10.614,37.892-6.503
		C911.248,174.007,921.914,188.229,918.727,200.785z"/>
	<path fill-rule="evenodd" clip-rule="evenodd" fill="#172F3D" d="M385.535,181.929c61.267-2.304,114.268,44.604,122.94,103.643
		c7.434,50.617-11.406,91.783-52.988,121.887c-6.249,4.525-10.602,8.432-10.339,17.068c0.275,8.995-6.021,15.383-14.969,16.406
		c-15.389,1.759-26.192,14.414-28.54,31.562c-3.851,28.131-6.272,56.461-9.111,84.724c-0.436,4.357-1.814,6.721-6.548,6.7
		c-4.719-0.02-5.991-2.287-6.429-6.722c-2.814-28.564-6.021-57.091-8.903-85.649c-1.436-14.234-12.985-27.516-26.948-30.399
		c-12.253-2.531-17.071-7.204-17.12-19.286c-0.025-6.587-3.136-9.696-7.865-12.864c-28.071-18.808-46.655-44.671-53.661-77.636
		c-12.081-56.841,14.667-111.288,66.364-137.683C348.384,185.017,363.435,181.749,385.535,181.929z M271.738,305.192
		c0.064,63.412,51.295,114.417,114.652,114.148c63.113-0.271,113.757-50.982,113.862-114.014
		c0.104-63.501-50.765-114.57-114.188-114.636C322.709,190.627,271.673,241.741,271.738,305.192z"/>
	<path fill-rule="evenodd" clip-rule="evenodd" fill="#172F3D" d="M-5.657,635.88c-4.433-4.636-4.399-10.052-5.335-14.858
		c-5.434-27.888-28.799-38.024-45.676-39.836c-26.914-2.889-43.126,12.747-51.332,34.636
		c-12.371,32.996-12.139,67.259-1.616,100.721c9.181,29.19,42.424,42.955,70.1,30.76c8.79-3.873,14.387-9.352,13.481-20.009
		c-0.692-8.138,0.013-16.385-0.208-24.576c-0.357-13.272-3.103-16.445-15.81-19.069c-2.542-0.525-5.666,0.507-7.209-2.691
		c7.849-2.555,48.556-2.747,59.982,0.402C-7.091,685.624-2.702,698.484-3.053,709.3c-0.458,14.152,0.817,28.391-1.869,42.568
		c-0.699-0.283-1.111-0.313-1.243-0.521c-8.387-13.231-8.628-13.617-22.468-4.87c-30.712,19.41-83.624,8.113-100.801-28.654
		c-17.983-38.492-16.331-76.988,8.487-112.358c20.109-28.659,59.885-36.848,90.711-20.357c3.72,1.988,7.214,4.396,10.834,6.572
		c6.944,4.179,9.16,3.228,11.067-4.965c0.668-2.865,0.407-7.2,4.384-6.432c3.17,0.611,1.446,4.662,1.43,7.243
		c-0.08,11.837-0.18,23.673-0.338,35.51C-2.916,627.262-2.658,631.586-5.657,635.88z"/>
	<path fill-rule="evenodd" clip-rule="evenodd" fill="#059D25" d="M355.964,679.44c6.422,3.387,5.99,6.687,0.913,11.58
		c-45.873,44.224-91.495,88.706-137.3,132.999c-26.385,25.513-52.976,50.812-79.466,76.215
		c-27.367,26.241-54.42,52.823-82.23,78.588c-11.948,11.069-28.847,13.601-42.869,21.325c-4.092,2.253-6.613-1.961-8.902-4.607
		c-19.459-22.497-39.664-44.286-61.276-64.734c-5.272-4.989-10.931-9.588-16.575-14.165c-28.842-23.388-57.579-7.219-70.729,16.757
		c-2.167,3.951-3.89,8.146-5.819,12.228c-1.165-27.211,23.773-53.81,49.68-52.727c13.863,0.578,24.021,8.896,33.927,17.353
		c26.391,22.531,49.231,48.529,72.001,74.554c3.472,3.969,5.853,4.71,10.46,2.314c9.6-4.99,19.362-9.743,29.354-13.877
		c6.345-2.624,11.418-6.52,16.245-11.191c96.573-93.473,193.193-186.895,289.814-280.315
		C354.052,680.902,355.038,680.202,355.964,679.44z"/>
	<path fill-rule="evenodd" clip-rule="evenodd" fill="#059D25" d="M918.612,945.627c-1.928-4.082-3.673-8.265-5.814-12.231
		c-16.289-30.162-46.479-36.69-72.892-15.114c-25.207,20.592-46.938,44.765-68.469,69.074c-1.403,1.585-2.869,3.155-4.023,4.918
		c-5.771,8.811-11.963,7.653-21.384,4.218c-25.709-9.374-44.704-26.848-63.564-45.544c-40.726-40.367-82.223-79.953-123.445-119.817
		c-34.677-33.533-69.4-67.019-104.125-100.5c-13.758-13.265-27.425-26.629-41.449-39.605c-5.18-4.794-5.526-8.191,0.911-11.579
		c58.046,56.036,116.097,112.067,174.139,168.112c40.376,38.986,80.745,77.98,121.101,116.991c9.413,9.101,22.13,11.894,33.358,17.5
		c15.503,7.74,15.657,7.528,27.229-5.474c22.592-25.38,45.183-50.758,71.889-72.032c14.576-11.612,30.387-16.56,47.583-6.552
		C907.684,908.483,919.356,923.435,918.612,945.627z"/>
	<path fill-rule="evenodd" clip-rule="evenodd" fill="#172F3D" d="M88.338,581.406c21.723-1.899,41.829-1.425,62.32-0.297
		c-0.933,3.703-3.238,3.78-5.564,3.991c-9.796,0.888-13.308,6.851-13.291,16.058c0.078,43.397,0.068,86.794,0.013,130.188
		c-0.012,9.206,3.404,15.245,13.41,15.818c2.234,0.128,4.13,0.745,5.294,3.897c-20.368,1.636-40.41,1.912-62.221-0.235
		c2.504-1.869,3.337-2.928,4.377-3.202c15.585-4.116,16.166-4.639,16.199-20.547c0.082-40.362,0.063-80.725,0.008-121.088
		c-0.023-16.549-0.557-17.083-16.526-21.302C91.362,584.425,90.597,583.292,88.338,581.406z"/>
	<path fill-rule="evenodd" clip-rule="evenodd" fill="#059D25" d="M660.554,662.212c1.893,29.573-22.3,56.446-54.517,55.766
		c-38.121-0.808-58.135-27.914-57.178-59.563c0.879-29.102,25.008-53.523,54.025-53.148
		C638.57,605.729,662.812,631.331,660.554,662.212z M564.471,654.563c0.277,13.726,1.58,27.177,9.444,39.115
		c8.899,13.508,21.522,18.738,37.347,17.452c14.884-1.212,25.082-9.211,30.097-22.666c7.622-20.452,5.695-40.791-5.664-59.393
		c-9.053-14.817-23.689-19.267-40.247-16.648c-15.331,2.425-24.211,12.37-28.755,26.87
		C565.111,644.339,565.508,649.508,564.471,654.563z"/>
	<path fill-rule="evenodd" clip-rule="evenodd" fill="#059D25" d="M877.178,691.956c0-16.906-0.069-33.812,0.068-50.719
		c0.022-2.733-2.496-6.817,3.645-7.174c5.801-0.336,5.392,2.893,5.275,6.736c-0.756,24.819,0.9,49.703-1.922,76.925
		c-21-20.343-40.745-39.469-61.963-60.023c0,15.337-0.008,28.768,0.003,42.196c0.004,3.641-0.104,7.291,0.145,10.916
		c0.243,3.551-0.272,5.531-4.701,5.527c-4.603-0.004-4.597-2.289-4.506-5.675c0.423-15.762,0.809-31.526,0.94-47.292
		c0.061-7.271-0.544-14.542-0.728-21.817c-0.05-1.975-1.241-4.525,1.219-5.73c2.436-1.191,3.891,1.137,5.32,2.507
		c13.801,13.213,27.633,26.399,41.22,39.832c4.897,4.842,9.154,10.331,13.702,15.523
		C875.657,693.112,876.417,692.534,877.178,691.956z"/>
	<path fill-rule="evenodd" clip-rule="evenodd" fill="#059D25" d="M694.889,715.078c-0.542,0.323-0.788,0.587-1.062,0.62
		c-16.319,2.003-15.85,2.041-14.521-13.966c1.654-19.925,1.794-39.924-0.678-59.826c-0.682-5.491,0.018-8.371,6.706-7.858
		c8.127,0.621,16.353-0.155,24.513,0.208c12.398,0.553,19.382,6.569,22.257,18.45c2.473,10.212-2.074,20.451-11.383,26.302
		c-6.941,4.36-14.724,5.261-22.536,5.517c-4.165,0.139-5.984,0.615-5.443,5.472C693.676,698.374,692.262,706.946,694.889,715.078z
		 M718.479,657.31c-0.179-13.147-7.845-20.551-19.613-19.067c-3.634,0.457-6.102,1.302-5.946,5.954
		c0.327,9.941,0.29,19.905,0.014,29.851c-0.128,4.604,1.923,5.637,5.954,5.528C711.098,679.25,718.663,670.749,718.479,657.31z"/>
	<path fill-rule="evenodd" clip-rule="evenodd" fill="#059D25" d="M762.238,676.194c0,9.79,0.217,19.479-0.095,29.153
		c-0.149,4.651,1.688,5.794,5.876,5.283c7.222-0.881,14.476-1.509,21.712-2.288c1.881-0.202,4.072-0.487,4.142,2.014
		c0.057,2.046-0.747,4.017-3.702,4.122c-13.042,0.47-26.079,1.09-39.115,1.715c-3.826,0.183-3.62-2.345-3.36-4.826
		c2.512-23.924,2.608-47.848,0.019-71.768c-0.398-3.675,0.388-5.534,4.694-5.486c12.139,0.138,24.281-0.126,36.42-0.222
		c2.044-0.017,4.529-0.684,4.311,2.811c-0.192,3.045-2.418,3.045-4.577,3.021c-6.678-0.075-13.404,0.258-20.015-0.456
		c-5.535-0.6-6.99,1.483-6.334,6.406c0.158,1.191-0.007,2.426,0.026,3.639c0.188,6.646-1.975,15.021,1.262,19.45
		c3.2,4.382,11.833,0.19,18.084,0.402c2.595,0.089,5.879-0.769,6.142,3.382c0.342,5.384-3.854,3.479-6.401,3.575
		C775.278,676.349,769.218,676.194,762.238,676.194z"/>
	<path fill-rule="evenodd" clip-rule="evenodd" fill="#172F3D" d="M192.447,725.377c8.458-0.16,15.018,6.738,14.969,15.743
		c-0.037,6.914-8.399,14.811-15.599,14.73c-7.373-0.082-14.431-7.717-14.381-15.558C177.486,732.409,184.41,725.53,192.447,725.377z
		"/>
	<path fill-rule="evenodd" clip-rule="evenodd" fill="#172F3D" d="M48.131,725.461c8.636-0.052,15.056,6.208,15.063,14.685
		c0.009,8.209-6.547,14.791-14.89,14.951c-8.524,0.163-14.88-6.021-14.941-14.54C33.304,732.331,39.977,725.511,48.131,725.461z"/>
	<path fill-rule="evenodd" clip-rule="evenodd" fill="#FEFEFE" d="M271.738,305.192c-0.065-63.452,50.971-114.565,114.327-114.501
		c63.423,0.066,114.292,51.135,114.188,114.636c-0.105,63.032-50.749,113.743-113.862,114.014
		C323.033,419.609,271.802,368.604,271.738,305.192z M414.31,233.481c-3.759,2.09-6.322,5.456-9.257,8.458
		c-2.269,2.318-5.138,2.883-8.25,1.283c-2.663-1.372-5.212-4.341-4.097-6.294c5.139-8.999-3.279-11.754-7.536-18.733
		c0.605,7.46-9.65,7.434-6.228,14.537c2.067,4.291,1.324,7.694-2.481,10.122c-3.938,2.51-7.304,1.083-10.317-2.242
		c-2.807-3.095-5.865-6.025-10.166-7.055l-0.223-0.283l0.188,0.226c4.13,7.167,6.641,17.198,12.84,20.709
		c6.407,3.629,16.401,0.929,24.824,0.98c3.013,0.02,6.028,0.05,9.038-0.039c1.758-0.052,3.103-0.144,3.932-2.565
		c2.224-6.493,5.098-12.762,7.713-19.121l0.219-0.205L414.31,233.481z M479.189,258.586c6.765,46.161-6.975,84.047-42.281,111.921
		c-35.602,28.109-76.131,31.313-118.562,15.608c37.131,32.9,99.191,32.186,135.594,0.205
		C499.954,345.896,497.345,286.264,479.189,258.586z M329.533,248.561c3.173,10.298-2.293,18.191-5.919,26.623
		c-5.121,11.908-6.937,23.746,10.004,31.188c5.506,2.419,11.546,3.949,17.644,2.86c1.984-0.354,5.351-1.339,4.664-4.527
		c-0.606-2.821-3.526-1.517-5.431-1.613c-3.933-0.201-7.901,0.157-11.821-0.141c-8.077-0.614-15.789-7.053-15.106-14.063
		c1.125-11.548,7.095-21.94,8.458-34.35c4.896,4.179,4.019,7.726,2.85,11.769c-1.752,6.057-4.17,11.956-4.249,18.493
		c-0.06,5.13,3.187,8.185,6.933,7.484c7.308-1.366,15.676-1.969,21.118-7.263c4.679-4.552,9.188-5.413,14.642-4.059
		c9.702,2.408,19.254,0.88,28.862-0.342c2.65-0.336,5.644-1.432,7.609,1.277c4.553,6.277,11.812,6.96,18.324,9.053
		c10.307,3.312,14.99-0.941,12.832-11.769c-1.057-5.308-3.112-10.41-4.495-15.663c-0.839-3.191,2.409-7.909,2.736-7.31
		c3.447,6.304,3.882,0.247,3.64-0.973c-0.443-2.238,1.93-4.577-0.203-6.665c-8.312,4.756-10.95,11.484-7.509,20.325
		c1.767,4.538,3.022,9.108,2.955,14.048c-0.052,3.695-1.432,6.477-5.283,5.217c-6.743-2.208-14.773-2.234-19.288-8.919
		c-2.988-4.424-6.651-4.624-11.015-3.211c-10.677,3.46-21.383,3.814-32.069,0.183c-5.171-1.756-9.035-0.975-12.507,3.775
		c-3.163,4.324-20.376,10.258-22.088,7.957c-4.565-6.141-1.799-13.56,0.664-18.838C341.045,259.342,336.364,254.081,329.533,248.561
		z M422.014,331.468c-0.673-0.495-1.347-0.987-2.021-1.482c-5.698,6.135-11.396,12.271-17.142,18.457
		c-3.961-8.737-7.629-16.858-5.913-26.282c0.578-3.168,0.351-5.381,4.927-5.651c6.957-0.409,7.34-1.775,5.554-9.782
		c-13.909,8.796-17.42,19.167-10.979,33.997c1.477,3.397,1.444,4.748-2.311,5.715c-4.716,1.217-9.054,2.249-14.156,0.626
		c-4.966-1.578-6.194-2.541-3.615-7.775c6.347-12.875,1.245-25.484-12.697-32.713c-0.621,5.818-0.52,10.717,7.288,10.07
		c4.289-0.356,3.72,2.619,4.203,5.299c1.729,9.584-1.572,17.897-5.962,26.094c-7.085-5.493-10.958-14.25-19.426-17.886
		c5.915,8.375,12.295,16.251,18.8,24.021c2.195,2.622,4.193,5.223,3.825,8.866c-0.692,6.842,2.4,9.369,9.07,8.412
		c2.675-0.384,5.499-0.379,8.177-0.001c7.211,1.014,11.013-1.388,10.17-9.183c-0.406-3.755,2.197-6.105,4.279-8.675
		C410.062,346.22,416.038,338.844,422.014,331.468z M442.963,262.338c-0.868,0.19-1.734,0.381-2.603,0.571
		c1.21,3.116,2.5,6.203,3.606,9.354c1.297,3.691,2.684,7.379,3.588,11.173c2.49,10.465-3.304,18.575-13.955,19.508
		c-3.916,0.342-7.9-0.139-11.819,0.18c-1.978,0.16-5.814-1.677-5.461,2.279c0.301,3.342,5.686,5.399,6.726,4.375
		c5.435-5.363,12.79-2.039,18.648-5.099c4.274-2.234,7.284-4.803,8.873-9.49C454.913,282.35,446.489,273.018,442.963,262.338z
		 M367.218,260.072c-0.004,0.432-0.007,0.863-0.009,1.295c12.877,0,25.754,0,38.633,0c-0.005-0.432-0.009-0.863-0.012-1.295
		C392.958,260.072,380.088,260.072,367.218,260.072z"/>
	<path fill-rule="evenodd" clip-rule="evenodd" fill="#172F3D" d="M479.189,258.586c18.155,27.677,20.765,87.31-25.249,127.734
		c-36.402,31.981-98.463,32.695-135.594-0.205c42.43,15.706,82.959,12.501,118.562-15.608
		C472.215,342.633,485.954,304.748,479.189,258.586z"/>
	<path fill-rule="evenodd" clip-rule="evenodd" fill="#059D25" d="M329.533,248.561c6.831,5.52,11.512,10.782,6.952,20.546
		c-2.463,5.278-5.229,12.697-0.664,18.838c1.711,2.302,18.925-3.632,22.088-7.957c3.473-4.75,7.336-5.531,12.507-3.775
		c10.686,3.631,21.392,3.277,32.069-0.183c4.363-1.413,8.026-1.213,11.015,3.211c4.515,6.685,12.545,6.711,19.288,8.919
		c3.852,1.259,5.231-1.522,5.283-5.217c0.067-4.94-1.188-9.51-2.955-14.048c-3.441-8.841-0.804-15.568,7.509-20.325
		c2.133,2.088-0.24,4.427,0.203,6.665c0.242,1.22-0.192,7.277-3.64,0.973c-0.327-0.6-3.575,4.118-2.736,7.31
		c1.383,5.253,3.438,10.354,4.495,15.663c2.158,10.828-2.525,15.081-12.832,11.769c-6.513-2.092-13.771-2.775-18.324-9.053
		c-1.966-2.709-4.959-1.613-7.609-1.277c-9.608,1.222-19.16,2.75-28.862,0.342c-5.454-1.354-9.963-0.493-14.642,4.059
		c-5.442,5.294-13.81,5.897-21.118,7.263c-3.746,0.701-6.993-2.354-6.933-7.484c0.079-6.537,2.497-12.436,4.249-18.493
		c1.169-4.043,2.046-7.59-2.85-11.769c-1.364,12.409-7.333,22.801-8.458,34.35c-0.683,7.01,7.029,13.45,15.106,14.063
		c3.92,0.297,7.888-0.06,11.821,0.141c1.904,0.096,4.824-1.208,5.431,1.613c0.687,3.188-2.68,4.173-4.664,4.527
		c-6.098,1.089-12.137-0.441-17.644-2.86c-16.941-7.443-15.125-19.281-10.004-31.188
		C327.24,266.751,332.707,258.858,329.533,248.561z"/>
	<path fill-rule="evenodd" clip-rule="evenodd" fill="#059D25" d="M422.014,331.468c-5.976,7.376-11.952,14.752-17.928,22.127
		c-2.083,2.57-4.685,4.92-4.279,8.675c0.843,7.795-2.958,10.196-10.17,9.183c-2.679-0.377-5.502-0.383-8.177,0.001
		c-6.67,0.957-9.762-1.57-9.07-8.412c0.368-3.643-1.629-6.244-3.825-8.866c-6.505-7.77-12.885-15.646-18.8-24.021
		c8.468,3.636,12.341,12.393,19.426,17.886c4.39-8.197,7.691-16.509,5.962-26.094c-0.483-2.681,0.085-5.655-4.203-5.299
		c-7.808,0.647-7.909-4.251-7.288-10.07c13.942,7.229,19.044,19.837,12.697,32.713c-2.579,5.235-1.352,6.197,3.615,7.775
		c5.102,1.622,9.44,0.59,14.156-0.626c3.755-0.967,3.787-2.318,2.311-5.715c-6.441-14.83-2.93-25.201,10.979-33.997
		c1.786,8.006,1.403,9.373-5.554,9.782c-4.577,0.271-4.349,2.483-4.927,5.651c-1.716,9.424,1.952,17.545,5.913,26.282
		c5.746-6.187,11.443-12.322,17.142-18.457C420.667,330.48,421.341,330.973,422.014,331.468z M398.576,348.487
		c-7.717,2.521-14.38,4.394-21.209,1.149c-0.919-0.438-2.152-1.062-3.21,0.142c-1.8,2.048,1.61,16.013,4.256,17.289
		c9.3,4.488,17.984-0.02,19.363-10.089C398.095,354.644,398.225,352.284,398.576,348.487z"/>
	<path fill-rule="evenodd" clip-rule="evenodd" fill="#059D25" d="M355.978,233.556c4.301,1.032,7.359,3.961,10.166,7.057
		c3.014,3.325,6.379,4.751,10.317,2.242c3.805-2.428,4.548-5.831,2.481-10.122c-3.422-7.103,6.833-7.076,6.228-14.537
		c4.257,6.979,12.675,9.734,7.536,18.733c-1.116,1.953,1.434,4.922,4.097,6.294c3.113,1.601,5.982,1.035,8.25-1.283
		c2.935-3.002,5.498-6.368,9.257-8.458l-0.02-0.016c-2.617,6.359-5.491,12.628-7.715,19.121c-0.829,2.421-2.174,2.513-3.932,2.565
		c-3.01,0.089-6.025,0.059-9.038,0.039c-8.423-0.051-18.417,2.649-24.824-0.98c-6.199-3.511-8.709-13.542-12.84-20.709
		L355.978,233.556z"/>
	<path fill-rule="evenodd" clip-rule="evenodd" fill="#059D25" d="M442.963,262.338c3.526,10.68,11.95,20.012,7.604,32.852
		c-1.589,4.687-4.599,7.256-8.873,9.49c-5.858,3.06-13.214-0.265-18.648,5.099c-1.04,1.024-6.425-1.032-6.726-4.375
		c-0.354-3.956,3.483-2.119,5.461-2.279c3.919-0.318,7.903,0.162,11.819-0.18c10.651-0.934,16.445-9.043,13.955-19.508
		c-0.904-3.794-2.291-7.482-3.588-11.173c-1.106-3.152-2.396-6.238-3.606-9.354C441.229,262.719,442.095,262.528,442.963,262.338z"
		/>
	<path fill-rule="evenodd" clip-rule="evenodd" fill="#059D25" d="M367.218,260.072c12.87,0,25.74,0,38.612,0
		c0.003,0.432,0.007,0.863,0.012,1.295c-12.878,0-25.755,0-38.633,0C367.211,260.935,367.214,260.504,367.218,260.072z"/>
	<polygon fill-rule="evenodd" clip-rule="evenodd" fill="#059D25" points="355.942,233.501 355.754,233.275 355.978,233.556 	"/>
	<polygon fill-rule="evenodd" clip-rule="evenodd" fill="#059D25" points="414.31,233.481 414.507,233.261 414.288,233.465 	"/>
	<path fill-rule="evenodd" clip-rule="evenodd" fill="#FEFEFE" d="M398.576,348.487c-0.351,3.796-0.48,6.157-0.801,8.491
		c-1.378,10.07-10.063,14.578-19.363,10.089c-2.646-1.275-6.057-15.241-4.256-17.289c1.058-1.204,2.291-0.58,3.21-0.142
		C384.195,352.881,390.859,351.008,398.576,348.487z"/>
</g>
</svg>
