<?xml version="1.0" encoding="utf-8"?>
<!-- Generator: Adobe Illustrator 16.0.0, SVG Export Plug-In . SVG Version: 6.00 Build 0)  -->
<!DOCTYPE svg PUBLIC "-//W3C//DTD SVG 1.1//EN" "http://www.w3.org/Graphics/SVG/1.1/DTD/svg11.dtd">
<svg version="1.1" id="Layer_1" xmlns="http://www.w3.org/2000/svg" xmlns:xlink="http://www.w3.org/1999/xlink" x="0px" y="0px"
	 width="803.285px" height="799.334px" viewBox="-1.988 0 803.285 799.334" enable-background="new -1.988 0 803.285 799.334"
	 xml:space="preserve">
<g>
	<path fill-rule="evenodd" clip-rule="evenodd" d="M802.143,742.167c0-244.993-0.018-489.986,0.124-734.979
		c0.003-5.01-1.141-6.147-6.146-6.145C530.127,1.184,264.135,1.167-1.857,1.167c0.218-0.308-0.506-1.043,0.5-1.011
		c1.332,0.043,2.666,0.011,4,0.011c265.333,0,530.667,0.009,796-0.094c3.749-0.001,4.595,0.845,4.594,4.594
		c-0.104,244.333-0.091,488.667-0.155,733C803.08,739.13,804.234,741.058,802.143,742.167z"/>
	<path fill-rule="evenodd" clip-rule="evenodd" d="M99.081,467.282c0.919-2.15,1.05-2.414,3.526-3.091
		c15.995-4.37,31.98-8.784,48.019-12.987c15.12-3.963,30.25-7.909,45.47-11.453c17.319-4.033,34.724-7.653,52.257-10.749
		c14.4-2.542,28.868-4.559,43.314-6.697c11.001-1.628,22.162-2.222,33.266-3.073c2.627-0.201,5.024-1.593,7.757-1.123
		c1.415,0.243,1.331-0.975,1.469-1.989c1.539-11.303,5.375-21.853,10.499-31.988c0.855-1.692,1.527-3.094,3.877-3.007
		c8.271,0.305,16.459-1.607,24.763-0.981c4.555,0.344,9.037-0.37,13.728,0.769c4.633,1.124,9.732,0.47,14.514-1.376
		c2.819-1.088,5.479-1.245,6.056,3.332c0.704,5.583,2.664,11.006,3.399,16.588c0.355,2.696,1.401,2.764,3.416,2.743
		c3.622-0.039,7.048-1.306,10.761-1.115c13.103,0.673,24.731,4.684,34.315,13.914c1.027,0.988,1.822,2.134,3.635,2.227
		c10.682,0.547,21.397,0.888,32.019,2.051c11.022,1.207,22.069,2.241,33.081,3.636c11.159,1.414,22.33,2.859,33.479,4.359
		c12.043,1.621,24.032,3.775,35.95,6.165c22.943,4.601,45.841,9.489,68.378,15.807c17.492,4.903,35.217,9.116,52.12,15.964
		c0.417,0.169,0.771,0.496,1.082,0.993c-83.063-27.302-168.284-42.932-256.33-48.156c7.189,8.167,11.447,17.147,12.71,27.163
		c2.23,17.693,0.072,34.396-11.794,48.934c-7.363,9.02-16.49,14.821-27.482,18.043c-2.484,0.729-4.285,1.925-2.744,4.815
		c0.945,1.773,0.232,3.61,0.608,5.368c2.186,10.231,2.283,10.731,13.883,10.687c13.24-0.051,26.395,1.18,39.51,2.333
		c12.958,1.14,25.913,2.847,38.844,4.533c17.416,2.271,34.738,5.065,51.936,8.412c19.312,3.758,38.482,8.363,57.537,13.287
		c25.55,6.604,50.608,14.89,75.543,23.528c6.232,2.159,6.883,1.759,6.645-5.381c-0.432-12.95,0.853-25.846,1.271-38.757
		c0.547-16.842,1.668-33.667,1.885-50.535c0.054-4.23,1.114-8.461,0.914-12.768c-0.146-3.161,0.414-6.392-1.372-9.388
		c2.118,1.302,2.363,3.195,2.372,5.289c0.055,13.099-0.894,26.171-1.243,39.257c-0.396,14.838-1.32,29.683-1.965,44.527
		c-0.373,8.592-0.571,17.181-0.884,25.771c-0.194,5.354-1.449,5.731-6.321,3.976c-20.283-7.312-40.718-14.192-61.508-19.927
		c-14.594-4.025-29.242-7.886-43.968-11.397c-15.886-3.787-31.882-7.114-48.028-9.658c-14.432-2.273-28.822-4.825-43.283-6.882
		c-7.778-1.105-15.678-1.336-23.506-2.125c-15.396-1.554-30.802-2.685-46.288-3.135c-10.479-0.304-9.872-1.059-7.735,10.066
		c2.7,14.06,6.102,28.13,5.651,42.594c-0.515,16.555-11.219,26.224-24.462,29.341c-12.378,2.913-24.601,1.663-35.896-4.938
		c-13.223-7.73-18.509-23.91-12.344-37.239c3.845-8.312,11.222-12,20.376-11.643c9.231,0.361,16.53,3.784,20.429,12.895
		c3.473,8.113,2.761,15.692-2.914,22.264c-4.323,5.006-10.247,7.722-17.77,8.092c3.741,5.313,8.876,6.584,13.887,6.561
		c7.262-0.034,14.363-1.374,20.535-6.016c5.911-4.445,8.906-10.376,10.194-17.364c1.657-8.991-1.239-17.614-2.479-26.349
		c-1.252-8.823-3.116-17.56-4.401-26.379c-0.308-2.109-0.716-2.783-2.867-2.772c-15.83,0.08-31.688-0.508-47.484,0.229
		c-11.34,0.529-22.742,0.709-34.028,1.919c-14.444,1.55-28.902,3.036-43.338,4.683c-26.661,3.04-52.995,7.887-79.167,13.437
		c-22.667,4.807-45.082,10.855-67.291,17.64c-18.282,5.585-36.418,11.557-54.684,18.135c-0.738-6.707-0.827-13.338-0.944-19.786
		c-0.24-13.264-1.129-26.499-1.474-39.753c-0.489-18.842-1.879-37.665-1.798-56.532c0.011-2.451-0.78-5.484,3.105-6.002
		c-1.612,2.369-2.3,4.912-2.175,7.844c0.351,8.251-0.104,16.491,0.9,24.771c1.051,8.669,0.471,17.493,0.836,26.249
		c0.502,12.061,1.599,24.133,1.323,36.235c-0.189,8.265,1.865,16.422,0.774,25.32c7.424-2.6,14.186-5.091,21.026-7.342
		c33.662-11.082,67.635-20.96,102.387-28.172c19.183-3.981,38.386-7.801,57.74-10.731c16.272-2.464,32.631-4.554,49.024-5.972
		c17.877-1.546,35.829-2.337,53.765-3.048c10.811-0.429,21.652-0.079,32.479-0.079c11.896,0,11.509,0.08,9.062-11.729
		c-0.822-3.972-2.322-4.387-5.494-4.302c-9.522,0.254-18.969-0.216-28.239-2.804c-18.411-5.141-32.869-15.859-44.639-30.702
		c-12.248-15.447-16.152-33.338-15.752-52.465c0.057-2.683,0.736-5.471,0.914-8.258c0.176-2.778-1.339-3.305-3.296-2.626
		c-5.068,1.758-10.374,0.892-15.554,1.717c-9.995,1.593-20.191,1.884-30.224,3.288c-11.714,1.64-23.313,4.09-35.015,5.832
		c-17.455,2.599-34.666,6.419-51.784,10.542c-25.516,6.146-50.922,12.777-76.245,19.68
		C113.696,462.354,105.92,463.421,99.081,467.282z M390.07,483.249c-13.754-5.463-21.728-24.422-18.34-40.184
		c2.061-9.586,5.891-18.346,13.812-25.898c-8.158,0-15.412,0.128-22.66-0.046c-4.702-0.112-7.454,1.85-8.759,6.367
		c-2.713,9.389-3.739,18.86-3.064,28.662c1.006,14.601,5.54,27.774,15.902,38.15c12.396,12.411,27.858,18.022,45.422,17.882
		c10.726-0.086,10.381,0.059,8.156-10.332c-3.724-17.394-6.861-34.911-10.446-52.336c-1.402-6.812-2.153-13.812-4.555-20.458
		c-28.199,11.408-30.562,40.565-14.633,57.516C390.628,482.798,390.349,483.023,390.07,483.249z M432.558,505.844
		c17.079-6.004,29.601-16.514,35.087-34.548c5.749-18.9-0.055-33.95-15.187-44.185c-10.178-6.884-21.57-9.203-33.799-6.965
		c-2.938,0.538-2.822,2.655-2.452,4.529c3.072,15.521,6.304,31.01,9.443,46.518C427.958,482.594,430.2,494.009,432.558,505.844z
		 M357.221,416.167c8.334,0,16.589-0.055,24.844,0.031c2.68,0.028,5.107-0.563,7.39-1.895c3.341-1.947,6.539-4.216,10.057-5.759
		c2.617-1.148,2.991-2.927,2.572-5.104c-1.219-6.333-2.654-12.624-3.943-18.944c-0.376-1.845-1.521-2.245-3.202-2.358
		c-6.249-0.424-12.08-0.228-16.187,5.775c-1.847,2.7-4.759,4.645-6.95,7.14C366.045,401.606,360.613,408.403,357.221,416.167z"/>
	<path fill-rule="evenodd" clip-rule="evenodd" d="M676.894,444.862c-0.203,0.063-0.37,0.181-0.499,0.147
		c-4.333-1.105-10.507-0.906-12.499-3.694c-2.229-3.117-0.74-8.945-0.741-13.594c-0.018-63.992-0.055-127.984,0.091-191.976
		c0.009-3.973-1.261-5.954-4.644-7.885c-21.017-11.997-41.849-24.319-62.808-36.418c-18.578-10.725-37.284-21.229-55.857-31.961
		c-20.111-11.621-40.097-23.459-60.207-35.08c-18.573-10.732-37.235-21.312-55.869-31.939c-2.798-1.597-6.12-2.6-8.376-4.744
		c-3.244-3.084-5.927-2.092-9.014-0.295c-19.242,11.201-38.5,22.379-57.749,33.569c-22.31,12.971-44.588,25.996-66.933,38.904
		c-18.717,10.812-37.545,21.431-56.262,32.244c-19.97,11.538-39.637,23.631-59.934,34.557c-6.198,3.336-7.596,6.896-7.576,13.272
		c0.206,65.491,0.097,130.983,0.195,196.476c0.006,4.15-0.621,6.207-5.473,7.075c-8.69,1.554-8.596,2.078-8.596-6.775
		c0-69.825,0.031-139.649-0.09-209.475c-0.006-3.576,1.195-5.457,4.179-7.172c25.881-14.871,51.662-29.917,77.515-44.838
		c22.631-13.062,45.344-25.979,67.97-39.049c24.723-14.279,49.369-28.689,74.083-42.983c13.402-7.751,26.868-15.392,40.325-23.046
		c1.898-1.08,3.492-1.265,5.812,0.099c18.633,10.952,37.472,21.551,56.176,32.38c20.102,11.638,40.089,23.472,60.194,35.102
		c16.194,9.368,32.528,18.494,48.731,27.847c18.44,10.643,36.788,21.447,55.209,32.125c13.254,7.683,26.524,15.338,39.882,22.836
		c2.142,1.201,3.071,2.355,3.068,4.882c-0.071,72.658-0.061,145.315-0.074,217.974C677.123,443.913,676.971,444.4,676.894,444.862z
		 M674.143,441.199c0-20.579,0-40.732,0-60.886c0-50.498,0.009-100.995-0.034-151.493c-0.002-1.981,0.848-4.199-1.777-5.652
		c-9.456-5.233-18.82-10.634-28.199-16.007c-13.717-7.859-27.44-15.705-41.115-23.638c-16.19-9.393-32.291-18.94-48.506-28.291
		c-16.065-9.264-32.267-18.29-48.329-27.559c-16.21-9.354-32.288-18.938-48.486-28.312c-13.818-7.996-27.891-15.57-41.49-23.917
		c-3.883-2.383-6.672-2.388-10.157-0.282c-2.485,1.502-5.079,2.825-7.59,4.285c-19.937,11.597-39.828,23.27-59.805,34.796
		c-20.958,12.092-42.03,23.986-62.987,36.08c-24.729,14.271-49.391,28.659-74.077,43.007c-17.022,9.893-33.958,19.94-51.128,29.568
		c-2.857,1.602-3.371,3.154-3.368,5.988c0.063,68.997,0.084,137.994-0.029,206.991c-0.007,4.498,0.397,5.953,5.588,4.565
		c4.078-1.091,2.401-3.461,2.404-5.189c0.102-67.33,0.111-134.661,0.013-201.991c-0.005-3.317,0.84-5.071,3.958-6.638
		c7.045-3.54,13.801-7.663,20.628-11.63c24.552-14.263,49.042-28.631,73.635-42.823c25.003-14.431,50.133-28.643,75.144-43.059
		c25.3-14.582,50.749-28.93,75.612-44.226c5.933-3.65,9.721-2.429,14.506,0.358c23.429,13.641,46.844,27.304,70.313,40.872
		c13.683,7.91,27.485,15.61,41.186,23.489c14.259,8.2,28.457,16.508,42.688,24.758c13.54,7.851,27.096,15.673,40.631,23.532
		c16.186,9.4,32.257,19.005,48.615,28.094c3.313,1.841,4.24,3.589,4.23,7.107c-0.112,41.165-0.072,82.33-0.072,123.495
		c0,26.165,0.056,52.331-0.07,78.496c-0.016,3.24,0.828,4.936,4.185,5.113C671.348,440.262,672.417,440.741,674.143,441.199z"/>
	<path fill-rule="evenodd" clip-rule="evenodd" d="M441.119,275.596c0.397,10.709-1.337,21.132-3.862,31.507
		c-0.648,2.665-1.837,3.034-4.059,3.09c-15.938,0.403-31.819-1.762-47.762-1.027c-1.942,0.089-3.027-0.617-3.327-2.756
		c-1.555-11.123-2.945-22.337-1.839-33.502c1.886-19.034,6.154-37.561,13.687-55.29c3.67-8.638,7.998-16.918,12.2-25.275
		c1.194-2.375,1.946-4.525,5.133-0.797c12.37,14.473,19.491,31.463,24.792,49.364C439.422,252.188,441.706,263.706,441.119,275.596z
		 M404.864,308.167c4.141,0.974,8.671-0.096,11.805-5.007c4.248-6.657,8.475-13.295,11.663-20.578
		c7.585-17.325,2.964-33.122-5.774-48.414c-1.379-2.412-3.525-2.945-5.575-0.36c-0.913,1.152-1.958,2.204-2.83,3.386
		c-4.353,5.898-6.77,12.806-9.696,19.398c-5.934,13.368-9.877,27.345-10.267,42.077
		C393.938,308.161,394.143,308.167,404.864,308.167z"/>
	<path fill-rule="evenodd" clip-rule="evenodd" d="M584.785,567.923c0.182,0.74,0.249,0.898,0.257,1.061
		c0.697,14.841,0.704,14.854-13.835,23.172c-27.424,15.688-54.908,31.271-82.272,47.065c-24.587,14.19-49.16,28.414-73.478,43.057
		c-5.8,3.491-9.24-0.44-12.985-2.551c-18.683-10.532-37.112-21.515-55.652-32.3c-20.625-11.999-41.24-24.015-61.923-35.912
		c-16.068-9.243-32.228-18.329-48.368-27.447c-1.69-0.955-2.596-1.961-2.463-4.162c0.262-4.314,0.077-8.656,0.077-13.816
		c6.018,3.433,11.666,6.609,17.271,9.859c12.139,7.04,24.248,14.133,36.385,21.176c14.079,8.171,28.16,16.34,42.269,24.457
		c13.976,8.04,28.015,15.969,41.977,24.031c12.149,7.017,24.228,14.158,36.348,21.226c1.704,0.993,2.906,1.091,5.074-0.191
		c20.261-11.987,40.761-23.569,61.141-35.356c22.33-12.914,44.573-25.98,66.921-38.865
		C555.742,584.229,570.077,576.243,584.785,567.923z M237.617,571.953c-1.629,6.25,0.007,10.263,5.89,12.015
		c0.61,0.181,1.19,0.498,1.746,0.818c14.098,8.14,28.201,16.271,42.281,24.441c12.139,7.044,24.238,14.157,36.377,21.199
		c13.672,7.931,27.363,15.828,41.059,23.718c13.83,7.967,27.755,15.775,41.452,23.965c2.869,1.715,4.909,2.246,7.882,0.511
		c25.486-14.876,51.008-29.692,76.589-44.405c27.39-15.753,54.882-31.328,82.264-47.096c5.063-2.916,11.909-5.041,8.491-13.499
		c-0.618,0.228-1.424,0.398-2.101,0.792c-13.655,7.949-27.257,15.993-40.95,23.878c-20.96,12.069-42.02,23.967-62.965,36.062
		c-19.969,11.532-39.877,23.169-59.729,34.899c-3.242,1.916-5.773,2.752-9.27,0.219c-4.148-3.005-8.903-5.168-13.381-7.724
		c-14.006-7.991-28.029-15.953-41.999-24.009c-14.388-8.296-28.722-16.686-43.076-25.04c-11.985-6.976-23.944-13.995-35.952-20.931
		C260.808,585.172,249.342,578.661,237.617,571.953z"/>
	<path fill-rule="evenodd" clip-rule="evenodd" d="M620.435,515.167c-15.983,0.348-20.114-12.543-17.938-24.48
		c1.284-7.046,4.265-13.604,12.373-15.767c7.191-1.918,13.854-0.917,19.867,3.48c3.133,2.291-0.052,4.686-0.396,6.942
		c-0.186,1.213,1.106,4.369-2.282,3.74c-2.456-0.456-3.046-2.2-2.993-4.692c0.117-5.544-3.469-7.615-8.647-5.274
		c-8.511,3.848-13.357,19.493-8.42,27.342c0.918,1.458,2.012,2.715,3.662,3.625c3.6,1.984,5.674,1.275,6.45-2.836
		c0.3-1.587,0.871-3.146,0.971-4.738c0.09-1.434,0.868-3.41-2.039-3.465c-1.408-0.026-2.219-1.452-1.844-2.98
		c0.553-2.255,2.14-1.183,3.417-0.898c3.461,0.77,6.967,1.399,10.351,2.429c2.253,0.686,3.614,3.018,0.899,3.996
		c-3.465,1.249-3.374,3.697-4.053,6.26C627.869,515.182,627.813,515.167,620.435,515.167z"/>
	<path fill-rule="evenodd" clip-rule="evenodd" d="M641.627,479.207c7.609,2.206,15.138,4.468,22.716,6.547
		c2.97,0.815,4.589,1.508,3.055,5.321c-0.831,2.066-2.054,4.453-1.224,7.058c-4.529-0.583-6.523-2.165-4.264-6.439
		c0.704-1.333,0.333-2.352-1.628-2.627c-2.034-0.286-3.957-1.296-5.973-1.82c-0.907-0.235-1.828-0.258-2.201,1.196
		c-0.795,3.102-1.928,6.115-2.807,9.198c-0.407,1.427,0.698,2.409,1.802,2.398c1.397-0.014,3.222,1.207,4.265-1.19
		c0.39-0.894,0.146-3.509,3.149-2.108c3.202,1.493,0.603,3.038,0.476,4.282c-0.254,2.509-1.133,4.985-2.002,7.386
		c-0.297,0.821-0.504,2.345-1.748,2.197c-1.281-0.151-2.402-0.847-2.133-2.655c0.411-2.757-0.896-4.013-3.709-3.804
		c-1.209,0.09-2.258-0.047-2.312,1.733c-0.038,1.248-0.565,2.495-0.951,3.719c-2.382,7.549-1.317,9.11,6.687,9.793
		c2.174,0.186,2.014-1.73,2.529-2.9c0.929-2.105,1.944-3.777,4.563-2.304c2.234,1.257,1.112,2.839,0.425,4.469
		c-0.557,1.321-0.88,2.753-1.195,4.161c-0.458,2.049-1.643,2.721-3.614,2.121c-7.366-2.241-14.731-4.484-22.098-6.725
		c-0.905-0.275-2.817,0.465-1.992-1.618c0.47-1.188,0.958-3.322,2.946-2.284c2.271,1.187,2.371-0.156,2.761-1.696
		c2.009-7.944,3.934-15.915,6.192-23.789c0.623-2.172,1.756-3.739-1.083-5.194C640.537,482.748,640.893,480.862,641.627,479.207z"/>
	<path fill-rule="evenodd" clip-rule="evenodd" d="M681.059,496.65c0.357-1.802-1.424-1.693-2.21-2.055
		c-1.146-0.525-2.798-1.381-3.729,0.665c-0.537,1.182-1.432,2.236-1.782,3.458c-0.652,2.267-2.347,1.562-3.583,1.231
		c-1.443-0.385-1.884-1.729-1.483-3.215c0.041-0.152,0.226-0.267,0.265-0.418c2.086-8.009,2.139-8.209,10.077-6.099
		c6.82,1.813,13.52,4.1,20.23,6.302c1.474,0.484,3.339,1.333,1.863,3.449c-0.862,1.237-0.205,2.617-0.811,3.81
		c-1.026,2.021-0.964,5.301-4.649,4.338c-3.603-0.941-1.245-3.87-0.893-5.108c0.954-3.355-0.853-3.652-3.139-4.341
		c-2.824-0.849-2.622,0.988-3.175,2.768c-2.383,7.66-4.896,15.283-7.545,22.854c-0.817,2.338-0.321,3.915,1.907,4.524
		c2.257,0.617,0.679,1.829,0.742,2.785c0.126,1.921-1.326,1.793-2.347,1.462c-4.276-1.387-8.501-2.935-12.735-4.447
		c-1.293-0.462-2.565-1.135-1.771-2.785c0.567-1.179,1.335-2.264,3.073-1.073c1.066,0.73,2.239,0.981,2.847-1.126
		c2.535-8.796,6.212-17.237,8.258-26.195C680.537,497.143,680.858,496.907,681.059,496.65z"/>
	<path fill-rule="evenodd" clip-rule="evenodd" d="M589.844,467.165c2.653-0.076,3.345,1.283,3.313,3.462
		c-0.141,10.031,2.341,19.892,1.995,29.941c-0.069,2.019,0.413,3.782,2.459,4.783c1.36,0.666,1.909,1.819,1.342,3.293
		c-0.74,1.924-2.075,0.733-3.199,0.529c-3.642-0.661-7.268-1.43-10.929-1.964c-1.281-0.187-1.681-0.644-1.696-1.843
		c-0.018-1.305,0.098-2.288,1.805-2.218c1.577,0.064,3.462,0.546,3.245-2.262c-0.186-2.396,0.121-4.668-2.941-5.803
		c-6.585-2.439-8.078-2.016-10.177,3.195c-0.625,1.55-0.587,2.396,0.996,2.832c1.013,0.279,2.755-0.207,1.735,1.784
		c-0.521,1.019-0.706,2.729-2.628,2.269c-2.812-0.674-5.601-1.521-8.452-1.925c-1.846-0.262-1.489-1.364-1.565-2.465
		c-0.096-1.376,0.741-1.788,1.858-1.583c3.3,0.604,4.006-1.859,5.167-4.04c4.541-8.529,9.294-16.946,13.719-25.534
		C586.92,467.62,588.071,466.939,589.844,467.165z M585.432,477.674c-0.768,1.534-1.538,3.066-2.302,4.603
		c-3.434,6.905-3.433,6.906,3.771,8.417C588.15,486.251,585.271,482.086,585.432,477.674z"/>
	<path fill-rule="evenodd" clip-rule="evenodd" d="M502.312,482.169c-3.545-1.243-5.118,1.229-6.055,4.496
		c-0.304,1.06-1.721,2.561,1.182,2.68c1.642,0.067,2.067,2.068,1.62,3.609c-0.59,2.032-1.743-0.018-2.68,0.107
		c-2.45,0.326-4.975,0.115-7.47,0.093c-0.815-0.008-1.741,0.002-1.723-1.185c0.016-0.931-0.444-2.521,0.621-2.609
		c5.765-0.474,5.709-5.8,7.103-9.172c3.37-8.153,6.957-16.227,10.103-24.466c0.763-1.996,1.825-1.425,2.965-1.535
		c1.703-0.164,2.818,0.498,3.169,2.341c1.297,6.813,2.901,13.579,3.906,20.433c0.636,4.333,2.302,8.479,2.161,12.955
		c-0.048,1.536,1.181,2.168,2.708,2.297c1.882,0.158,1.142,1.698,1.159,2.697c0.026,1.523-1.29,1.411-2.156,1.214
		c-3.697-0.841-7.461-0.873-11.196-1.25c-0.831-0.084-2.754-0.352-2.587-2.312c0.089-1.041,0.559-1.319,1.546-1.427
		c4.558-0.497,2.252-3.938,2.365-6.117c0.145-2.794-2.361-2.566-4.229-2.835C504.173,482.09,503.496,482.169,502.312,482.169z
		 M500.006,477.612c2.523-0.717,6.18,2.688,6.897-1.067c0.629-3.291-0.729-6.962-1.208-10.465c-0.325,0.048-0.65,0.095-0.976,0.142
		C503.148,470.019,501.577,473.815,500.006,477.612z"/>
	<path fill-rule="evenodd" clip-rule="evenodd" d="M563.883,502.786c-7.815-1.224-15.457-2.488-23.124-3.569
		c-1.757-0.248-3.428-0.229-3.574-2.471c-0.154-2.354,1.728-1.441,2.838-1.558c3.796-0.396,2.669-3.937,2.899-5.661
		c0.885-6.605,2.213-13.135,3.061-19.728c0.291-2.259,1.96-5.997-2.692-6.666c-1.029-0.148-1.457-0.738-0.813-1.685
		c0.669-0.982,0.712-2.633,2.646-2.297c4.469,0.777,8.965,1.399,13.422,2.238c0.594,0.112,1.243,1.057,1.439,1.739
		c0.12,0.413-0.589,1.541-0.913,1.537c-7.008-0.101-4.9,5.92-5.729,9.289c-1.382,5.624-1.818,11.495-3.075,17.207
		c-0.472,2.142-1.115,4.831,2.694,5.501c3.006,0.529,5.773,1.579,7.164-2.338c0.322-0.909,0.824-1.78,0.987-2.713
		c0.43-2.46,2.319-1.315,3.53-1.372c2.244-0.104,1.725,1.927,1.384,2.877C564.874,496.341,564.305,499.669,563.883,502.786z"/>
	<path fill-rule="evenodd" clip-rule="evenodd" d="M432.143,325.83c0,3.988-0.112,7.982,0.042,11.965
		c0.093,2.407-0.362,3.53-3.186,3.479c-2.609-0.048-2.929-1.089-2.895-3.263c0.105-6.814-0.012-13.633,0.088-20.447
		c0.016-1.121-0.896-3.187,1.056-3.229c2.006-0.044,4.404-1.401,6.109,1.308c2.821,4.481,5.942,8.775,9.785,14.386
		c0-4.571-0.024-7.901,0.009-11.231c0.023-2.317-0.882-4.771,3.37-4.804c4.012-0.031,3.676,1.966,3.645,4.565
		c-0.073,5.984,0.081,11.973-0.095,17.953c-0.046,1.535,1.34,4.044-1.282,4.534c-2.696,0.504-5.688,0.691-7.501-2.284
		c-2.722-4.464-5.44-8.932-8.16-13.397C432.799,325.52,432.471,325.675,432.143,325.83z"/>
	<path fill-rule="evenodd" clip-rule="evenodd" d="M346.691,331.149c-3.12,0-5.118,0.072-7.108-0.021
		c-1.888-0.089-2.365-1.355-2.468-3.067c-0.13-2.17,1.299-1.886,2.603-1.89c3.493-0.009,6.997,0.161,10.478-0.059
		c2.503-0.158,3.067,0.74,3.001,3.1c-0.173,6.172-5.876,12.552-12.688,12.83c-6.07,0.247-12.602-2.581-14.415-9.833
		c-1.552-6.201-0.571-11.945,4.492-15.613c5.334-3.865,11.622-3.618,17.568-0.435c0.289,0.155,0.662,0.21,0.885,0.426
		c1.661,1.611,4.106,3.926,2.768,5.689c-1.431,1.885-4.968,1.801-6.991-0.119c-3.064-2.908-6.132-3.038-9.433-0.98
		c-3.12,1.945-3.724,5.109-3.196,8.466c0.535,3.398,2.713,5.287,6.05,6.128C342.072,336.737,343.668,333.927,346.691,331.149z"/>
	<path fill-rule="evenodd" clip-rule="evenodd" d="M517.143,331.042c0,2.632-0.065,4.586,0.018,6.533
		c0.09,2.128,0.189,3.723-2.937,3.714c-2.928-0.009-3.15-1.256-3.116-3.554c0.1-6.65,0.151-13.306-0.021-19.953
		c-0.07-2.681,0.484-3.949,3.477-3.671c2.803,0.261,5.651,0.136,8.475,0.036c3.739-0.132,6.805,1.763,7.797,4.843
		c1.061,3.29,1.23,7.548-2.16,9.982c-2.682,1.926-2.621,3.405-0.703,5.541c0.433,0.482,1.01,1.002,1.117,1.579
		c0.317,1.69,3.939,3.289,1.265,4.673c-1.868,0.967-5.224,1.808-7.339-1.627C521.439,336.58,520.584,333.417,517.143,331.042z
		 M519.899,319.187c-2.391-0.537-2.916,0.735-2.802,2.994c0.107,2.128,0.17,4.236,2.996,3.919c2.162-0.243,5.029-0.595,4.91-3.511
		C524.897,319.961,522.687,318.908,519.899,319.187z"/>
	<path fill-rule="evenodd" clip-rule="evenodd" d="M274.143,327.91c0,2.992-0.116,5.99,0.034,8.975
		c0.14,2.778,0.021,4.464-3.764,4.45c-3.88-0.016-3.032-2.178-3.333-4.398c-0.378-2.775,2.379-7.118-4.189-6.978
		c-4.777,0.103-6.425,1.141-5.907,5.98c0.171,1.603,2.234,4.955-2.102,5.253c-2.494,0.171-3.949-0.076-3.82-3.302
		c0.271-6.805,0.192-13.63,0.026-20.441c-0.062-2.562,0.626-3.371,3.281-3.385c2.744-0.014,2.993,1.277,2.779,3.341
		c-0.034,0.329-0.007,0.664-0.004,0.997c0.058,7.238,0.054,7.13,7.238,6.83c2.158-0.09,3.018-0.632,2.79-2.828
		c-0.154-1.479,0.076-2.998-0.052-4.482c-0.213-2.462,0.038-3.914,3.283-3.888c3.102,0.025,4.065,0.834,3.804,3.908
		C273.925,321.243,274.143,324.586,274.143,327.91z"/>
	<path fill-rule="evenodd" clip-rule="evenodd" d="M420.327,341.178c-3.546-0.355-6.824,1.434-8.456-3.426
		c-1.086-3.231-9.63-2.289-10.519,1.132c-1.155,4.448-4.536,2.355-6.276,1.983c-2.561-0.548-0.252-2.698,0.169-3.958
		c2.187-6.554,4.647-13.016,6.88-19.555c0.774-2.267,1.841-3.588,4.482-3.225c2.097,0.289,4.044-0.608,5.052,2.838
		C413.991,324.949,417.215,332.669,420.327,341.178z M404.454,330.999c1.624-0.031,4.002,1.065,4.43-0.597
		c0.5-1.941-0.399-4.305-2.279-6.203C405.853,326.578,405.169,328.739,404.454,330.999z"/>
	<path fill-rule="evenodd" clip-rule="evenodd" d="M464.143,323.997c11.714-9.946,11.714-9.946,15.904-9.365
		c-1.248,4.853-5.683,7.346-8.339,11.12c-1.78,2.529-1.084,3.414,0.583,5.146c2.809,2.917,5.34,6.101,8.057,9.251
		c-6.987,2.419-9.075,1.226-16.205-9.81c0,3.196-0.032,5.178,0.009,7.158c0.042,2.015,0.396,3.745-2.836,3.8
		c-3.381,0.058-3.231-1.629-3.202-3.957c0.083-6.641,0.152-13.286-0.031-19.923c-0.073-2.625,0.702-3.324,3.314-3.352
		c2.784-0.03,2.871,1.327,2.768,3.359C464.063,319.412,464.143,321.407,464.143,323.997z"/>
	<path fill-rule="evenodd" clip-rule="evenodd" d="M548.827,314.167c3.426,0.023,6.979-0.439,8.695,3.773
		c0.596,1.463,1.223,3.485-0.026,3.847c-1.938,0.562-4.708,1.646-6.24-0.683c-1.139-1.73-2.398-2.168-4.13-1.876
		c-1.363,0.229-1.665,1.831-1.563,2.568c0.261,1.882,1.903,2.774,3.64,3.351c1.973,0.656,4.054,1.113,5.878,2.061
		c5.004,2.599,5.429,9.37,0.908,12.579c-3.924,2.785-10.655,2.823-14.615,0.05c-1.979-1.387-3.608-4.022-2.395-5.564
		c1.618-2.056,5.116-2.293,6.757,0.357c1.272,2.055,2.685,1.377,4.148,1.488c1.129,0.086,1.87-0.781,2.171-1.721
		c0.393-1.226-0.062-2.427-1.275-2.925c-1.919-0.788-3.886-1.595-5.911-1.964c-4.485-0.818-6.453-4.047-6.426-7.879
		c0.036-5.104,3.313-7.427,8.886-7.463C547.828,314.164,548.327,314.167,548.827,314.167z"/>
	<path fill-rule="evenodd" clip-rule="evenodd" d="M229.142,576.479c-0.569,11.227,1.643,23.248,1.064,35.366
		c-0.16,3.343,0.041,4.779-4.556,3.753c-16.094-3.597-32.377-6.343-48.585-9.433c-15.568-2.969-31.103-6.134-46.718-8.829
		c-3.992-0.689-7.995-1.316-11.971-2.129c-1.501-0.307-3.256,0.543-3.337-2.285c-0.07-2.465,1.391-3.182,3.031-3.681
		c10.154-3.088,20.32-6.143,30.529-9.045c15.627-4.443,31.301-8.722,46.937-13.134c10.057-2.839,20.079-5.803,30.125-8.685
		c2.346-0.673,3.695-0.296,3.546,2.735C228.968,565.933,229.142,570.771,229.142,576.479z M229.098,615.043
		c0.417-18.722-1.975-37.168-0.777-56.085c-5.043,1.486-9.333,2.808-13.655,4.014c-17.043,4.756-34.12,9.395-51.139,14.233
		c-14.848,4.223-29.647,8.618-44.429,13.067c-1.142,0.344-3.186,0.481-2.919,2.622c0.271,2.181,2.042,1.028,3.148,1.258
		c11.26,2.341,22.657,3.993,33.923,6.216c15.39,3.037,30.832,5.786,46.222,8.807C209.135,611.071,218.793,613.001,229.098,615.043z"
		/>
	<path fill-rule="evenodd" clip-rule="evenodd" d="M703.361,594.122c-5.396,2.782-11.479,2.729-17.228,3.911
		c-15.05,3.094-30.251,5.437-45.356,8.272c-15.08,2.832-30.117,5.896-45.172,8.868c-0.945,0.187-1.896,0.401-2.807,0.71
		c-2.825,0.959-3.789,0.043-3.702-2.966c0.5-17.392,1.584-34.776,1.004-52.186c-0.098-2.948,1.491-2.929,3.41-2.391
		c19.964,5.595,39.935,11.162,59.858,16.894c15.743,4.528,31.426,9.27,47.13,13.933c2.55,0.757,5.369,1.438,2.739,5.046
		c-0.252-1.979-0.807-3.647-3.177-4.047c-1.901-0.32-3.797-0.766-5.64-1.334c-34.073-10.51-68.468-19.897-103.318-29.703
		c0.229,18.797,0.053,37.344-0.638,56.183c2.161-2.016,4.489-1.039,6.536-1.475c12.638-2.688,25.312-5.21,38-7.648
		c13.811-2.653,27.615-5.37,41.49-7.647C685.448,597.072,694.241,594.58,703.361,594.122z"/>
	<path fill-rule="evenodd" clip-rule="evenodd" d="M88.393,605.556c3.784-7.579,7.306-9.319,16.62-7.318
		c20.979,4.507,41.878,9.394,62.875,13.812c12.66,2.664,25.406,5.006,38.202,6.88c3.043,0.446,3.527,2.274,3.825,3.869
		c0.442,2.363-2.612,1.921-3.602,2.122c-20.557,4.163-40.856,9.418-61.244,14.281c-25.39,6.058-50.721,12.358-76.076,18.563
		c-1.719,0.42-3.439,1.103-4.93-0.521c0.252-0.255,0.505-0.51,0.757-0.765c0.767,0.218,1.625,0.779,2.287,0.604
		c11.212-2.964,22.473-5.703,33.771-8.335c24.179-5.633,48.242-11.761,72.385-17.551c10.513-2.521,21.118-4.66,31.646-7.121
		c1.2-0.281,3.132-0.339,3.199-2.373c0.078-2.357-1.813-1.316-2.902-1.551c-9.185-1.972-18.503-3.281-27.697-5.123
		c-22.641-4.535-45.093-10.028-67.757-14.436c-12.016-2.337-15.64-4.437-20.536,5.653C88.943,606.016,88.668,605.786,88.393,605.556
		z"/>
	<path fill-rule="evenodd" clip-rule="evenodd" d="M487.143,327.482c0-0.499,0-0.997,0-1.496c0-13.301-0.007-13.23,13.67-11.891
		c2.112,0.206,2.379,0.989,2.373,2.741c-0.007,1.644-0.425,2.507-2.222,2.343c-0.989-0.09-2.003-0.099-2.989,0.005
		c-2.128,0.224-5.048-1.325-4.952,3.161c0.092,4.293,2.965,2.293,4.794,2.852c1.469,0.448,3.804-1.481,4.343,1.651
		c0.66,3.836-1.915,3.128-4.192,3.397c-1.813,0.215-4.979-1.82-4.906,2.615c0.041,2.534,0.578,3.694,3.29,3.34
		c1.472-0.192,3,0.087,4.481-0.06c2.216-0.22,2.335,1.016,2.353,2.726c0.017,1.684-0.493,2.368-2.25,2.325
		c-3.821-0.093-7.651-0.136-11.47,0.013c-2.202,0.086-2.381-1.035-2.345-2.75C487.196,334.799,487.144,331.14,487.143,327.482z"/>
	<path fill-rule="evenodd" clip-rule="evenodd" d="M282.143,327.377c0-0.332,0-0.665,0-0.997c0-13.142-0.001-13.116,13.273-12.244
		c1.634,0.106,2.784,0.062,2.801,2.307c0.017,2.233-0.718,2.963-2.859,2.752c-1.482-0.146-3.01,0.129-4.482-0.061
		c-2.81-0.36-2.699,1.312-2.792,3.31c-0.104,2.249,0.726,3.036,2.852,2.729c0.326-0.047,0.714-0.115,0.989,0.012
		c1.722,0.797,5.031-2.087,5.224,2.271c0.214,4.822-3.405,2.25-5.31,2.622c-1.89,0.369-3.774-0.402-3.824,2.885
		c-0.051,3.34,1.636,2.987,3.915,3.34c2.091,0.322,5.547-2.306,6.201,2.173c0.25,1.712-0.108,3.01-2.3,2.693
		c-0.163-0.023-0.333-0.011-0.498,0C282.143,341.983,282.143,341.983,282.143,327.377z"/>
	<path fill-rule="evenodd" clip-rule="evenodd" d="M360.143,327.466c0-0.499,0-0.998,0-1.497c0-13.321-0.007-13.25,13.689-11.874
		c2.13,0.214,2.347,1.032,2.353,2.76c0.005,1.665-0.46,2.479-2.24,2.328c-1.155-0.098-2.326-0.033-3.49-0.012
		c-2.189,0.039-4.565-0.814-4.449,3.197c0.11,3.816,2.473,2.485,4.335,2.833c1.602,0.299,3.944-1.19,4.691,1.198
		c0.921,2.943-0.458,3.97-3.599,3.914c-1.817-0.033-5.351-2.24-5.36,2.566c-0.006,2.547,0.614,3.663,3.295,3.322
		c1.472-0.188,3-0.131,4.482,0.018c1.869,0.186,2.284,1.51,2.313,3.203c0.038,2.23-1.54,1.657-2.742,1.738
		C360.143,342.056,360.143,342.053,360.143,327.466z"/>
	<path fill-rule="evenodd" clip-rule="evenodd" d="M272.381,361.717c-2.082,4.159-4.153,8.323-6.248,12.477
		c-1.357,2.69-2.738,2.63-3.985-0.065c-2.074-4.481-4.098-8.986-7.008-13.404c0,4.331,0.022,8.662-0.016,12.993
		c-0.009,1.064,0.403,2.494-1.529,2.438c-1.908-0.056-1.425-1.496-1.432-2.53c-0.04-6.492-0.056-12.984,0.016-19.476
		c0.011-0.992-0.747-2.495,0.958-2.891c1.512-0.351,2.376,0.498,3.019,1.867c2.514,5.356,5.118,10.67,7.983,16.61
		c2.698-4.987,5.262-9.493,7.085-14.432c0.617-1.671,0.887-4.391,3.497-4.016c2.751,0.396,1.301,2.936,1.346,4.438
		c0.181,5.986,0.091,11.982,0.057,17.975c-0.006,1.058,0.419,2.493-1.512,2.455c-1.908-0.038-1.437-1.474-1.45-2.516
		c-0.048-3.955-0.019-7.912-0.019-11.868C272.89,361.754,272.636,361.735,272.381,361.717z"/>
	<path fill-rule="evenodd" clip-rule="evenodd" d="M386.084,154.847c-5.009-5.623-5.151-8.646-0.685-12.435
		c2.734-2.319,10.296-1.81,12.278,0.828c2.15,2.861,1.052,5.621-3.333,8.372c5.342,5.99,6.334,9.686,3.36,12.516
		c-2.977,2.834-12.062,3.431-14.209,0.589C380.403,160.624,382.541,157.417,386.084,154.847z M387.149,160.468
		c-0.77,2.685,1.366,4.17,3.56,4.295c1.784,0.101,3.472-1.945,3.325-3.968c-0.177-2.449-2.029-4.259-4.401-4.512
		C387.067,156.009,387.112,158.249,387.149,160.468z M394.18,146.312c-0.841-1.724-1.208-3.299-3.669-3.254
		c-2.548,0.047-3.312,1.887-3.155,3.283c0.228,2.039,1.941,3.719,4.243,3.757C394.311,150.145,392.552,147.027,394.18,146.312z"/>
	<path fill-rule="evenodd" clip-rule="evenodd" d="M727.216,598.086c9.295,18.234,18.574,36.478,27.907,54.693
		c0.924,1.802,0.481,3.702-0.34,4.937c-0.693,1.041-2.751,0.583-4.22,0.213c-22.021-5.548-43.994-11.303-66.079-16.586
		c-23.519-5.627-47.159-10.746-70.687-16.34c-1.32-0.313-6.357,0.94-3.731-3.915c0.253,0.255,0.507,0.509,0.76,0.763
		c-0.827,1.219,0.021,1.136,0.903,1.352c6.549,1.604,13.027,3.529,19.623,4.897c26.821,5.562,53.324,12.467,79.982,18.717
		c13.319,3.122,26.603,6.421,39.818,9.954c3.657,0.978,3.188-0.904,2.803-2.933c-0.2-1.059-1.064-1.979-1.57-2.992
		c-8.641-17.323-17.272-34.649-25.907-51.976C726.725,598.608,726.97,598.347,727.216,598.086z"/>
	<path fill-rule="evenodd" clip-rule="evenodd" d="M415.144,369.742c0-6.117-0.026-11.06,0.022-16.001
		c0.01-1.026-0.501-2.471,1.399-2.559c1.927-0.09,1.558,1.323,1.562,2.403c0.026,6.656,0.034,13.314-0.012,19.971
		c-0.006,0.873,0.532,2.119-0.843,2.493c-1.515,0.413-2.334-0.447-3.127-1.701c-2.589-4.095-5.39-8.056-7.957-12.163
		c-0.708-1.132-1.435-2.021-3.048-2.96c0,5.06,0.015,9.648-0.01,14.238c-0.006,1.254,0.372,2.651-1.791,2.748
		c-2.368,0.104-2.212-1.299-2.206-2.856c0.021-6.324-0.043-12.649,0.057-18.972c0.017-1.095-0.941-2.856,1.203-3.183
		c1.553-0.236,2.762,0.143,3.728,1.677C407.465,358.188,410.974,363.394,415.144,369.742z"/>
	<path fill-rule="evenodd" clip-rule="evenodd" d="M451.801,156.343c-3.824-0.713-8,1.307-10.286-3.29
		c-2.217-4.458-1.343-8.688,2.604-10.88c4.431-2.461,10.778-1.315,13.072,2.301c3.048,4.803,2.469,9.718-0.32,14.148
		c-2.875,4.566-7.667,6.729-12.808,8.118c-0.927,0.25-0.806-0.342-0.85-0.597c-0.178-1.045,0.113-1.611,1.297-2.157
		C447.797,162.469,450.583,160.275,451.801,156.343z M445.983,149.482c1.043,1.455,0.593,4.589,4.012,4.646
		c2.978,0.05,3.662-2.701,2.954-4.324c-0.968-2.22,0.747-6.511-3.396-6.472C446.573,143.361,446.432,146.478,445.983,149.482z"/>
	<path fill-rule="evenodd" clip-rule="evenodd" d="M348.265,364.84c4.063,3.572,8.006,7.037,12.731,11.189
		c-7.461,0.544-8.693-6.384-13.854-8.446c0,1.924-0.001,3.944,0.001,5.965c0.001,1.328,0.228,2.632-1.885,2.665
		c-1.919,0.03-2.144-0.882-2.133-2.429c0.046-6.818,0.031-13.638,0.011-20.457c-0.004-1.298,0.176-2.146,1.842-2.203
		c1.878-0.063,2.25,0.784,2.183,2.386c-0.082,1.991-0.02,3.989-0.02,6.075c5.423-0.966,5.306-10.109,12.685-8.212
		C357.48,356.466,352.833,359.491,348.265,364.84z"/>
	<path fill-rule="evenodd" clip-rule="evenodd" d="M506.143,361.481c0,2.161,0.175,4.34-0.038,6.479
		c-0.383,3.839,2.113,5.19,5.02,5.06c2.884-0.129,5.923-1.265,5.996-5.107c0.09-4.653,0.043-9.309,0.012-13.963
		c-0.011-1.583-0.103-2.938,2.231-2.826c2.173,0.104,1.76,1.525,1.768,2.765c0.028,4.654,0.171,9.315-0.032,13.961
		c-0.224,5.103-4.353,8.445-9.848,8.317c-6.276-0.146-9.06-2.836-9.103-8.865c-0.031-4.488-0.017-8.977,0.002-13.465
		c0.005-1.273-0.318-2.629,1.823-2.716c2.397-0.097,2.187,1.352,2.174,2.881C506.127,356.495,506.143,358.988,506.143,361.481z"/>
	<path fill-rule="evenodd" clip-rule="evenodd" d="M306.143,327.656c0-3.493,0.139-6.993-0.048-10.477
		c-0.128-2.396,0.646-3.097,3.055-3.101c2.429-0.005,3.118,0.742,3.043,3.113c-0.163,5.151,0.108,10.318-0.112,15.465
		c-0.121,2.824,0.728,3.946,3.573,3.538c1.139-0.163,2.359-0.179,3.479,0.049c1.841,0.374,2.057,1.854,2.017,3.473
		c-0.049,1.965-1.512,1.274-2.524,1.445c-0.162,0.027-0.332-0.002-0.498,0.006C306.143,341.711,306.143,341.711,306.143,327.656z"/>
	<path fill-rule="evenodd" clip-rule="evenodd" d="M316.822,351.188c2.841-0.051,5.319-0.398,7.062,2.147
		c0.776,1.134,1.995,2.321,0.897,3.369c-1.062,1.013-3.242,1.024-3.92-0.477c-1.233-2.734-3.369-2.019-5.367-2.028
		c-1.926-0.009-2.479,1.661-2.727,2.997c-0.226,1.218-0.127,2.709,1.876,3.097c1.695,0.328,3.26,1.29,4.92,1.859
		c5.343,1.835,7.624,4.97,6.29,8.742c-1.497,4.235-6.923,6.774-11.395,4.898c-1.58-0.663-3.758-0.891-4.54-3.179
		c-0.427-1.247-1.609-2.496,0.057-3.275c0.844-0.394,2.459-0.919,3.268,1.018c0.892,2.135,2.794,3.601,5.175,2.636
		c1.616-0.655,3.83-1.063,3.797-3.873c-0.029-2.527-1.954-2.841-3.43-3.614c-0.961-0.503-2.237-0.367-3.339-0.646
		c-4.115-1.041-6.786-3.519-6.224-7.953C309.787,352.47,312.509,350.257,316.822,351.188z"/>
	<path fill-rule="evenodd" clip-rule="evenodd" d="M434.081,351.167c1.895-0.218,4.062-0.111,5.727,2.089
		c0.841,1.113,2.061,2.437,1.055,3.361c-1.014,0.933-2.579,1.23-3.972-0.831c-1.754-2.595-6.743-2.371-7.521-0.027
		c-0.676,2.036-0.747,4.239,2.04,5.093c1.376,0.421,2.746,0.86,4.111,1.315c5.36,1.786,7.652,4.918,6.358,8.67
		c-1.474,4.271-6.811,6.827-11.33,4.986c-1.581-0.644-3.713-0.904-4.56-3.124c-0.476-1.245-1.625-2.485-0.113-3.334
		c0.78-0.438,2.619-1.041,3.281,0.895c0.405,1.184,1.641,1.453,2.47,2.147c1.962,1.644,3.433,0.229,4.968-0.395
		c1.663-0.677,1.905-2.354,1.454-3.82c-0.491-1.596-1.632-2.714-3.495-3.057c-2.337-0.43-4.948-0.392-6.823-2.002
		c-2.399-2.062-3.362-4.788-2.137-7.937C426.843,351.993,428.524,351.171,434.081,351.167z"/>
	<path fill-rule="evenodd" clip-rule="evenodd" d="M369.141,361.044c4.679-3.676,6.421-10.406,14.469-8.779
		c-3.031,2.675-6.078,5.332-9.087,8.03c-2.133,1.912-2.583,3.669-0.01,5.834c3.229,2.717,6.145,5.81,9.632,9.159
		c-3.786,0.785-3.786,0.785-15.006-9.293c0,3.083,0.004,5.617-0.002,8.151c-0.002,1.017-0.013,1.972-1.468,2.02
		c-1.509,0.051-1.517-0.936-1.519-1.952c-0.009-6.973-0.013-13.945,0.004-20.918c0.003-0.945-0.159-2.025,1.338-2.116
		c1.876-0.114,1.635,1.196,1.643,2.33C369.153,355.907,369.141,358.305,369.141,361.044z"/>
	<path fill-rule="evenodd" clip-rule="evenodd" d="M376.924,165.907c-4.859,0-9.72,0-16.03,0c10.891-4.697,4.507-13.071,6.19-19.438
		c0.175-0.659-0.306-1.113-1.1-1.298c-0.96-0.223-2.819,0.714-2.659-1.137c0.158-1.835,1.938-1.86,3.508-1.91
		c0.936-0.029,1.858-0.474,2.786-0.735c2.36-0.665,3.729-0.339,3.578,2.683c-0.215,4.32,0.152,8.672-0.119,12.985
		C372.853,160.663,373.014,163.782,376.924,165.907z"/>
	<path fill-rule="evenodd" clip-rule="evenodd" d="M436.259,165.362c-5.22,0.845-10.118,1.106-15.446-0.093
		c6.12-0.944,5.504-5.156,5.351-9.204c-0.107-2.828-0.003-5.664-0.031-8.495c-0.011-1.096,0.316-2.411-1.557-2.425
		c-0.854-0.007-2.303,0.486-2.271-1.021c0.026-1.271,1.141-1.717,2.425-1.986c7.422-1.56,7.413-1.601,7.413,6.332
		c0,2.998,0.222,6.018-0.058,8.99C431.753,160.99,432.327,163.795,436.259,165.362z"/>
	<path fill-rule="evenodd" clip-rule="evenodd" d="M302.143,362.024c0,1.664,0.001,3.328,0,4.991
		c-0.004,6.234-2.72,9.094-8.692,9.151c-6.404,0.062-9.275-2.755-9.305-9.163c-0.018-3.826-0.157-7.662,0.075-11.475
		c0.089-1.464-1.501-4.257,1.554-4.208c2.588,0.042,1.225,2.6,1.3,3.976c0.2,3.649,0.061,7.317,0.07,10.978
		c0.01,4.024,1.964,6.772,6.004,6.774c4.053,0.002,5.979-2.77,5.992-6.786c0.011-3.66-0.13-7.328,0.07-10.978
		c0.076-1.373-1.308-3.833,1.316-3.988c2.875-0.17,1.409,2.413,1.549,3.747C302.317,357.348,302.143,359.695,302.143,362.024z"/>
	<path fill-rule="evenodd" clip-rule="evenodd" d="M400.839,150.473c5.576-0.082,8.091-2.628,9.84-7.249
		c1.622,5.281,5.067,6.728,9.251,7.128c-3.697,4.58-3.697,4.58-3.964,10.581c-2.943-1.741-5.86-2.6-8.822-0.294
		c-1.499,1.167-2.507,0.02-1.905-1.192C407.225,155.451,404.138,153.638,400.839,150.473z"/>
	<path fill-rule="evenodd" clip-rule="evenodd" d="M610.066,621.088c5.502-3.4,11.944-3.481,17.976-4.809
		c19.101-4.205,38.301-7.963,57.476-11.824c12.369-2.491,24.751-4.921,37.16-7.197c1.386-0.254,3.321-0.979,4.538,0.828
		c-0.246,0.261-0.491,0.522-0.737,0.784c-0.774-0.848-1.838-0.854-2.78-0.671c-12.481,2.432-24.961,4.875-37.424,7.399
		c-17.204,3.485-34.409,6.97-51.583,10.601c-7.996,1.69-16.209,2.513-23.865,5.651C610.573,621.597,610.319,621.343,610.066,621.088
		z"/>
	<path fill-rule="evenodd" clip-rule="evenodd" d="M533.143,365.033c0-1.999-0.071-4.001,0.017-5.996
		c0.131-2.966,0.393-5.894-4.164-4.905c-1.089,0.236-1.924-0.215-1.845-1.617c0.086-1.515,1.182-1.328,2.123-1.334
		c3.831-0.025,7.662-0.028,11.493-0.001c1.095,0.008,2.467-0.327,2.36,1.591c-0.081,1.479-1.147,1.538-2.093,1.363
		c-4.143-0.767-4.036,1.771-3.929,4.659c0.148,3.992,0.287,8.017-0.075,11.981c-0.165,1.806,2.148,5.447-2.008,5.241
		c-3.705-0.184-1.406-3.593-1.803-5.502C532.855,368.757,533.143,366.865,533.143,365.033z"/>
	<path fill-rule="evenodd" clip-rule="evenodd" d="M555.144,365.196c-0.001-2-0.131-4.01,0.028-5.996
		c0.27-3.355-0.033-5.954-4.527-5.079c-1.004,0.195-2.457,0.435-2.49-1.451c-0.034-1.962,1.436-1.467,2.472-1.48
		c3.831-0.052,7.664-0.029,11.496-0.013c0.984,0.005,2.032-0.078,2.021,1.449c-0.011,1.43-0.938,1.714-1.965,1.509
		c-4.627-0.921-4.086,2.162-4.052,5.011c0.059,4.831,0.04,9.664-0.004,14.495c-0.01,1.042,0.46,2.482-1.453,2.515
		c-1.93,0.032-1.489-1.403-1.508-2.463C555.111,370.861,555.145,368.028,555.144,365.196z"/>
	<path fill-rule="evenodd" clip-rule="evenodd" d="M488.605,351.169c1.833,0.001,3.665-0.015,5.498,0.008
		c0.983,0.012,2.029-0.078,2.039,1.436c0.01,1.433-0.923,1.736-1.949,1.521c-5.492-1.151-5.266,2.252-5.098,6.009
		c0.199,4.489,0.072,8.995,0.025,13.493c-0.01,1.04,0.465,2.48-1.447,2.52c-1.931,0.038-1.505-1.397-1.513-2.457
		c-0.037-5.164-0.098-10.331,0.015-15.493c0.057-2.562,0.091-4.713-3.516-4.083c-1.01,0.176-2.451,0.442-2.505-1.44
		c-0.056-1.979,1.417-1.457,2.453-1.493C484.605,351.119,486.606,351.169,488.605,351.169z"/>
	<path fill-rule="evenodd" clip-rule="evenodd" d="M454.144,364.884c-0.001-1.832-0.083-3.67,0.018-5.497
		c0.17-3.114,0.519-6.243-4.316-5.251c-0.851,0.175-1.583-0.154-1.684-1.271c-0.124-1.374,0.613-1.697,1.766-1.694
		c4.165,0.01,8.33-0.002,12.495,0.014c0.836,0.003,1.625,0.083,1.703,1.246c0.089,1.318-0.572,1.948-1.749,1.706
		c-5.789-1.192-5.393,2.528-5.269,6.324c0.147,4.493,0.047,8.995,0.021,13.493c-0.006,0.931,0.221,2.051-1.272,2.188
		c-1.829,0.168-1.708-1.086-1.71-2.261C454.142,370.882,454.146,367.883,454.144,364.884z"/>
	<path fill-rule="evenodd" clip-rule="evenodd" d="M760.06,542.095c1.82-2.621-1.15-2.666-1.96-2.788
		c-8.13-1.232-16.063-3.34-24.08-5.069c-2.2-0.475-3.67-0.317-4.097,2.989c-0.485,3.757-0.837,7.471-0.759,11.224
		c0.249,12.054-1.793,24.039-0.997,36.103c0.027,0.416,0.324,0.83,0.57,1.195c0.031,0.047,0.512-0.208,0.784-0.323
		c0.234,0.271,0.47,0.543,0.704,0.814c-1.013,1.346-2.024,2.692-3.968,5.276c1.525-20.696,1.089-39.97,3.025-59.203
		c9.873,1.987,19.508,3.833,29.088,5.926c2.174,0.475,6.788,0.484,2.395,4.669C760.53,542.636,760.295,542.365,760.06,542.095z"/>
	<path fill-rule="evenodd" clip-rule="evenodd" d="M90.215,586.085c2.045-5.389,1.083-11.035,0.661-16.438
		c-0.265-3.401-0.871-6.862-0.667-10.271c0.455-7.637-1.119-15.155-1.004-22.743c0.047-3.128-1.93-2.728-3.578-2.4
		c-8.237,1.639-16.333,3.966-24.693,5.007c-0.157,0.02-0.306,0.21-0.45,0.2c-1.568-0.11-1.703,2.942-3.716,1.696
		c-0.316-0.195-0.368-0.818-0.542-1.244c1.637-0.574,3.233-1.336,4.917-1.691c9.466-1.999,18.954-3.899,28.814-5.911
		c0.956,19.078,2.453,38.114,2.153,57.292c-2.303,0.316-1.64-2.093-2.727-2.815C89.66,586.539,89.938,586.312,90.215,586.085z"/>
	<path fill-rule="evenodd" clip-rule="evenodd" d="M392.141,363.667c0,3.33-0.016,6.66,0.008,9.99c0.01,1.41,0.039,2.56-2.006,2.56
		s-2.01-1.149-2.006-2.56c0.017-6.66,0.017-13.32,0-19.98c-0.004-1.41-0.039-2.56,2.006-2.56s2.016,1.149,2.006,2.56
		C392.125,357.007,392.141,360.337,392.141,363.667z"/>
	<path fill-rule="evenodd" clip-rule="evenodd" d="M336.143,363.797c0,2.831,0.137,5.671-0.056,8.488
		c-0.102,1.472,1.294,3.988-2.075,3.891c-2.963-0.087-1.788-2.31-1.816-3.648c-0.123-5.825-0.135-11.656,0.005-17.48
		c0.035-1.459-1.293-4.062,2.072-3.866c3.199,0.187,1.685,2.665,1.804,4.13C336.305,358.123,336.143,360.967,336.143,363.797z"/>
	<path fill-rule="evenodd" clip-rule="evenodd" d="M532.618,482.171c-2.806,0.262-5.353-1.127-8.187-1.184
		c-2.437-0.048-0.971-2.603-1.249-4.016c-0.321-1.63,0.931-2.242,2.092-1.734c2.674,1.168,5.574,0.399,8.149,1.204
		c1.373,0.429,4.289,0.031,3.738,3.252C536.665,482.604,534.554,482.125,532.618,482.171z"/>
	<path fill-rule="evenodd" clip-rule="evenodd" d="M64.064,657.243c-1.286-0.497-1.185-1.771-0.817-2.495
		c8.333-16.423,16.747-32.804,25.146-49.192c0.275,0.23,0.55,0.46,0.825,0.69c-6.372,12.755-12.781,25.491-19.092,38.275
		c-1.929,3.907-4.862,7.386-5.305,11.957C64.569,656.733,64.316,656.988,64.064,657.243z"/>
	<path fill-rule="evenodd" clip-rule="evenodd" d="M473.141,363.311c0,3.499,0.011,6.999-0.007,10.499
		c-0.006,1.128,0.25,2.457-1.635,2.341c-1.494-0.093-1.343-1.174-1.345-2.128c-0.017-6.832-0.016-13.665-0.003-20.498
		c0.002-1.129-0.247-2.479,1.635-2.333c1.885,0.146,1.308,1.607,1.33,2.62C473.186,356.977,473.142,360.144,473.141,363.311z"/>
	<path fill-rule="evenodd" clip-rule="evenodd" d="M363.283,215.183c1.578-0.229,1.919,0.639,1.876,2.035
		c-0.053,1.731-0.693,2.906-2.55,2.915c-2.054,0.011-2.197-2.021-2.26-3.115C360.27,215.61,361.774,215.025,363.283,215.183z"/>
	<path fill-rule="evenodd" clip-rule="evenodd" d="M465.132,217.006c0.113,1.519-0.351,2.964-1.867,2.989
		c-1.546,0.025-2.834-1.374-2.949-2.812c-0.119-1.499,1.296-1.996,2.78-2.039C464.52,215.103,465.357,215.462,465.132,217.006z"/>
	<path fill-rule="evenodd" clip-rule="evenodd" d="M515.603,246.118c1.632,0.27,2.561,1.042,2.515,2.631
		c-0.038,1.291-0.789,2.477-2.012,2.271c-1.435-0.241-2.771-1.427-2.818-2.983C513.249,246.819,514.476,246.226,515.603,246.118z"/>
	<path fill-rule="evenodd" clip-rule="evenodd" d="M310.234,251.141c-1.393-0.347-2.102-1.233-2.093-2.724
		c0.007-1.146-0.137-2.296,1.616-2.267c1.4,0.023,2.531,0.004,2.425,1.979C312.104,249.583,311.658,250.576,310.234,251.141z"/>
	<path fill-rule="evenodd" clip-rule="evenodd" d="M343.462,285.042c-2.148,0.303-2.292-0.584-2.335-1.713
		c-0.056-1.479,0.36-2.812,1.869-3.02c1.297-0.179,2.008,0.922,2.125,2.227C345.275,284.245,344.05,284.733,343.462,285.042z"/>
	<path fill-rule="evenodd" clip-rule="evenodd" d="M485.142,282.35c0.012,1.657-0.743,2.574-2.292,2.792
		c-1.308,0.184-1.693-0.48-1.732-1.718c-0.047-1.481,0.333-2.826,1.792-3.114C484.207,280.053,484.898,281.183,485.142,282.35z"/>
	<path fill-rule="evenodd" clip-rule="evenodd" d="M525.073,276.187c1.344-0.165,2.145,0.229,2.083,1.791
		c-0.047,1.202-0.013,2.216-1.705,2.216c-1.514,0-2.426-0.241-2.344-2.08C523.17,276.694,523.603,276.001,525.073,276.187z"/>
	<path fill-rule="evenodd" clip-rule="evenodd" d="M569.123,296.098c0.165,1.344-0.229,2.145-1.791,2.083
		c-1.203-0.047-2.216-0.013-2.216-1.705c0-1.514,0.241-2.426,2.08-2.344C568.615,294.194,569.309,294.627,569.123,296.098z"/>
	<path fill-rule="evenodd" clip-rule="evenodd" d="M301.355,276.184c1.562-0.184,1.755,0.738,1.815,2.053
		c0.09,1.952-1.072,1.942-2.461,1.942c-1.764,0-1.504-1.21-1.571-2.319C299.035,276.167,300.116,276.104,301.355,276.184z"/>
	<path fill-rule="evenodd" clip-rule="evenodd" d="M357.132,263.932c0.026,1.154,0.142,2.392-1.624,2.225
		c-1.02-0.096-2.461,0.433-2.349-1.475c0.089-1.504,0.871-2.34,2.388-2.499C356.893,262.041,357.22,262.79,357.132,263.932z"/>
	<path fill-rule="evenodd" clip-rule="evenodd" d="M89.382,586.766c-1.269-0.955-1.615-2.377-2.293-3.911
		c2.542,0.035,1.916,2.441,3.126,3.23C89.938,586.312,89.66,586.539,89.382,586.766z"/>
	<path fill-rule="evenodd" clip-rule="evenodd" d="M733.41,579.535c1.031-0.714,0.342-2.788,2.459-2.687
		c0.986,1.722-0.311,2.568-1.651,3.398C733.948,580.01,733.68,579.772,733.41,579.535z"/>
	<path fill-rule="evenodd" clip-rule="evenodd" d="M60.79,544.448c1.209,0.87,1.739,2.06,1.749,4.578
		c-1.14-1.743-1.808-2.764-2.476-3.785C60.305,544.978,60.547,544.713,60.79,544.448z"/>
	<path fill-rule="evenodd" clip-rule="evenodd" d="M755.406,548.54c1.03-0.723,0.345-2.749,2.535-2.712
		c0.033,1.362-0.665,2.459-1.724,3.419C755.947,549.011,755.677,548.775,755.406,548.54z"/>
	<path fill-rule="evenodd" clip-rule="evenodd" d="M65.07,552.249c-0.688-1.054-1.377-2.107-2.171-3.322
		c2.573-0.35,1.965,1.926,3,2.638C65.623,551.792,65.346,552.021,65.07,552.249z"/>
	<path fill-rule="evenodd" clip-rule="evenodd" d="M756.218,549.247c-0.6,1.045-1.198,2.09-2.103,3.668
		c-0.598-2.24,0.105-3.383,1.291-4.375C755.677,548.775,755.947,549.011,756.218,549.247z"/>
	<path fill-rule="evenodd" clip-rule="evenodd" d="M732.225,583.239c-0.666,1-1.333,2-1.999,3c-0.234-0.271-0.47-0.543-0.704-0.814
		c0.736-0.951,0.677-2.434,1.997-2.997C731.754,582.698,731.989,582.969,732.225,583.239z"/>
	<path fill-rule="evenodd" clip-rule="evenodd" d="M731.519,582.428c0.762-0.878,0.604-2.357,1.892-2.893
		c0.27,0.237,0.538,0.475,0.808,0.712c-0.664,0.997-1.328,1.994-1.993,2.992C731.989,582.969,731.754,582.698,731.519,582.428z"/>
	<path fill-rule="evenodd" clip-rule="evenodd" d="M84.795,578.454c1.208,0.87,1.735,2.059,1.74,4.573
		c-1.139-1.743-1.806-2.765-2.473-3.785C84.307,578.979,84.551,578.717,84.795,578.454z"/>
	<path fill-rule="evenodd" clip-rule="evenodd" d="M82.792,575.45c1.321,0.565,1.225,2.077,2.004,3.004
		c-0.244,0.263-0.488,0.525-0.733,0.788c-0.667-1-1.333-2.001-2-3.001C82.306,575.978,82.548,575.714,82.792,575.45z"/>
	<path fill-rule="evenodd" clip-rule="evenodd" d="M739.225,573.239c-0.62,1.046-1.241,2.092-2.078,3.501
		c-0.721-2.179,0.191-3.292,1.371-4.311C738.753,572.699,738.989,572.97,739.225,573.239z"/>
	<path fill-rule="evenodd" clip-rule="evenodd" d="M65.899,551.564c1.223,0.934,1.735,2.121,1.358,4.32
		c-0.936-1.556-1.562-2.596-2.188-3.636C65.346,552.021,65.623,551.792,65.899,551.564z"/>
	<path fill-rule="evenodd" clip-rule="evenodd" d="M82.062,576.241c-0.697-1.006-1.394-2.013-2.213-3.194
		c2.511-0.698,2.011,1.674,2.942,2.403C82.548,575.714,82.306,575.978,82.062,576.241z"/>
	<path fill-rule="evenodd" clip-rule="evenodd" d="M738.518,572.43c0.888-0.786,0.412-2.764,2.604-2.636
		c-0.201,1.422-0.904,2.501-1.897,3.445C738.989,572.97,738.753,572.699,738.518,572.43z"/>
	<path fill-rule="evenodd" clip-rule="evenodd" d="M77.792,568.45c1.454,0.756,1.273,2.276,1.273,3.854
		c-0.667-1.021-1.335-2.042-2.002-3.063C77.306,568.978,77.548,568.714,77.792,568.45z"/>
	<path fill-rule="evenodd" clip-rule="evenodd" d="M750.406,555.54c1.03-0.723,0.345-2.749,2.535-2.712
		c0.033,1.362-0.665,2.459-1.724,3.419C750.947,556.011,750.677,555.775,750.406,555.54z"/>
	<path fill-rule="evenodd" clip-rule="evenodd" d="M744.226,566.239c-0.624,1.05-1.249,2.1-2.078,3.495
		c-0.724-2.177,0.193-3.289,1.374-4.31C743.756,565.696,743.991,565.968,744.226,566.239z"/>
	<path fill-rule="evenodd" clip-rule="evenodd" d="M77.062,569.241c-0.697-1.006-1.394-2.013-2.213-3.194
		c2.511-0.698,2.011,1.674,2.942,2.403C77.548,568.714,77.306,568.978,77.062,569.241z"/>
	<path fill-rule="evenodd" clip-rule="evenodd" d="M746.225,563.239c-0.666,1-1.333,2-1.999,3c-0.234-0.271-0.47-0.543-0.704-0.814
		c0.736-0.95,0.676-2.433,1.996-2.995C745.753,562.699,745.989,562.97,746.225,563.239z"/>
	<path fill-rule="evenodd" clip-rule="evenodd" d="M72.795,561.453c1.41,0.776,1.344,2.241,1.269,3.853
		c-0.667-1.021-1.334-2.043-2.001-3.063C72.307,561.979,72.551,561.716,72.795,561.453z"/>
	<path fill-rule="evenodd" clip-rule="evenodd" d="M745.518,562.43c0.888-0.786,0.412-2.764,2.604-2.636
		c-0.201,1.422-0.904,2.501-1.897,3.445C745.989,562.97,745.753,562.699,745.518,562.43z"/>
	<path fill-rule="evenodd" clip-rule="evenodd" d="M70.07,559.249c-0.693-1.061-1.386-2.122-2.171-3.322
		c2.573-0.35,1.965,1.926,3.001,2.638C70.623,558.793,70.346,559.021,70.07,559.249z"/>
	<path fill-rule="evenodd" clip-rule="evenodd" d="M70.9,558.564c1.293,0.529,1.092,2.038,1.895,2.889
		c-0.244,0.263-0.488,0.526-0.732,0.789c-0.664-0.998-1.329-1.996-1.993-2.993C70.346,559.021,70.623,558.793,70.9,558.564z"/>
	<path fill-rule="evenodd" clip-rule="evenodd" d="M751.218,556.247c-0.6,1.046-1.199,2.093-2.103,3.668
		c-0.598-2.24,0.105-3.383,1.291-4.375C750.677,555.775,750.947,556.011,751.218,556.247z"/>
	<path fill-rule="evenodd" clip-rule="evenodd" d="M760.766,542.907c-0.924,0.493-0.168,2.345-2.023,2.264
		c0.148-1.189,0.113-2.358,1.317-3.076C760.295,542.365,760.53,542.636,760.766,542.907z"/>
	<path fill-rule="evenodd" clip-rule="evenodd" d="M60.062,545.241c-1.208-0.723-1.177-1.887-1.303-3.089
		c1.839-0.041,1.09,1.803,2.03,2.296C60.547,544.713,60.305,544.978,60.062,545.241z"/>
	<path fill-rule="evenodd" clip-rule="evenodd" d="M138.991,509.822c1.729,5.479,3.451,10.962,5.194,16.438
		c0.563,1.771,1.972,1.961,3.575,1.939c0.866-0.013,2.089-0.48,2.347,1.029c0.232,1.36-0.436,2.376-1.583,2.8
		c-2.857,1.057-5.805,1.865-8.67,2.9c-1.289,0.466-1.95-0.276-2.375-1.098c-0.519-1.004-0.935-2.308,0.836-2.67
		c3.402-0.697,2.519-2.894,1.791-5.016c-2.556-7.442-5.219-14.849-7.65-22.331c-0.762-2.345-0.888-4.546-4.352-2.767
		c-1.803,0.927-1.616-1.157-2.171-2.255c-1.125-2.222,0.665-1.371,1.46-1.679c9.831-3.808,9.839-3.821,16.324,4.144
		c1.847,2.269,3.632,4.588,5.421,6.902c1.756,2.272,3.481,4.568,5.599,7.351c2.498-8.276,1.271-16.024,1.266-23.646
		c-0.002-3.722,1.166-5.251,4.63-5.737c1.892-0.266,3.737-0.935,5.568-1.53c1.1-0.357,2.354-1.11,2.81,0.512
		c0.257,0.918,0.767,2.348-0.731,3.018c-2.987,1.337-2.095,3.231-1.325,5.692c2.304,7.357,4.134,14.862,6.249,22.281
		c0.475,1.663,1.029,3.499,3.55,3.113c0.823-0.126,2.085-0.499,2.35,1.002c0.239,1.355-0.407,2.438-1.571,2.795
		c-3.991,1.225-8.097,2.1-12.033,3.47c-1.35,0.471-1.105-0.165-1.487-0.812c-0.5-0.849-1.54-1.871-0.266-2.47
		c3.749-1.762,2.141-4.383,1.394-6.914c-1.438-4.875-2.889-9.746-4.533-15.29c-0.998,8.379-1.768,15.997-1.534,23.695
		c0.043,1.432,1.18,3.517-0.943,4.355c-2.288,0.903-3.772-0.832-4.962-2.388c-3.838-5.015-7.556-10.123-11.302-15.208
		c-0.59-0.801-1.088-1.668-1.628-2.505C139.822,509.237,139.407,509.53,138.991,509.822z"/>
	<path fill-rule="evenodd" clip-rule="evenodd" d="M274.403,483.033c-5.073,3.752-2.11,8.209-1.552,12.345
		c0.107,0.796,0.423,1.976,1.866,1.804c1.441-0.172,2.837,0.009,2.359,2.026c-0.356,1.504-1.524,1.871-3.017,2.001
		c-3.247,0.283-6.689,0.259-9.634,1.419c-2.194,0.864-2.008-0.4-2.703-1.323c-1.113-1.479-0.34-1.877,1.017-2.326
		c1.907-0.632,2.803-1.938,2.419-4.102c-1.414-7.98-2.599-16.005-4.224-23.94c-0.32-1.563-0.357-4.656-3.79-3.812
		c-0.92,0.227-2.054,0.133-1.997-1.403c0.05-1.35,0.728-2.269,1.991-2.495c4.15-0.744,8.312-1.436,12.487-2.018
		c1.012-0.142,2.55-0.481,2.485,1.425c-0.034,1.029,0.537,2.445-1.4,2.55c-2.589,0.14-3.071,2.164-2.479,3.928
		c1.161,3.457,0.299,7.343,2.524,10.734c2.004-3.963,4.1-7.767,5.828-11.73c0.532-1.219,3.919-3.852-0.978-4.187
		c-0.201-0.014-0.428-1.807-0.379-2.758c0.06-1.169,1.12-0.99,1.896-0.988c2.794,0.01,5.412-1.815,8.225-0.952
		c1.004,0.308,2.087-1.771,2.695,0.081c0.498,1.516,0.121,3.277-1.563,3.747c-5.474,1.528-5.5,7.096-8.151,10.69
		c-0.719,0.975,0.17,2.038,0.886,3.067c3.415,4.906,6.625,9.954,9.98,14.902c0.842,1.241,1.387,2.86,3.614,2.545
		c1.504-0.214,2.364,1.04,2.301,2.597c-0.078,1.933-1.627,1.162-2.623,1.293c-3.236,0.424-6.487,0.74-9.719,1.197
		c-0.85,0.12-1.767,1.528-2.464,0.188c-0.399-0.768-0.425-2.385,0.085-2.857c2.265-2.092,0.805-3.521-0.437-5.255
		C278.012,488.714,276.262,485.865,274.403,483.033z"/>
	<path fill-rule="evenodd" clip-rule="evenodd" d="M308.966,477.673c-4.602,3.965-2.27,8.571-1.839,13.023
		c0.14,1.439,0.947,1.61,2.002,1.453c2.174-0.324,2.596,1.589,2.602,2.709c0.006,1.039-1.578,1.533-2.84,1.3
		c-3.52-0.651-6.763,1.431-10.252,1.005c-1.042-0.127-2.497,0.458-2.496-1.484c0-1.375-0.154-2.773,1.956-2.521
		c1.71,0.205,1.269-0.524,1.217-1.885c-0.347-9.178-2.667-18.113-3.132-27.255c-0.108-2.141-1.377-1.839-2.69-1.855
		c-1.144-0.015-2.36,0.223-2.38-1.637c-0.017-1.603,0.521-1.988,2.122-2.521c3.945-1.313,8.091-0.661,12.023-1.79
		c2.111-0.605,2.368,1.638,2.699,2.759c0.434,1.469-1.167,1.069-2.051,1.194c-2.207,0.312-2.823,0.888-2.132,3.566
		c0.909,3.521,0.379,7.402,1.784,11.146c2.594-4.5,5.034-9,7.757-13.322c1.057-1.677,1.104-2.233-0.98-2.434
		c-1.867-0.179-1.114-1.728-1.132-2.724c-0.026-1.528,1.271-1.251,2.17-1.209c2.652,0.125,5.195-0.3,7.768-0.937
		c0.972-0.24,2.868-0.897,2.986,1.372c0.071,1.348,0.029,2.134-1.86,2.686c-5.483,1.6-6.104,7.462-8.897,11.428
		c-0.366,0.521,0.468,2.107,1.031,3.024c3.211,5.228,6.579,10.36,9.735,15.62c0.936,1.561,2.118,1.846,3.69,1.807
		c1.538-0.038,1.227,1.179,1.313,2.113c0.109,1.188-0.284,1.929-1.604,1.846c-3.801-0.241-7.53,0.243-11.249,0.98
		c-0.72,0.143-1.845,0.289-2.026-0.789c-0.158-0.944,0.052-2.811,0.185-2.818c3.98-0.233,1.438-1.892,0.727-3.122
		C313.083,484.788,310.991,481.175,308.966,477.673z"/>
	<path fill-rule="evenodd" clip-rule="evenodd" d="M192.92,477.606c3.997-1.075,7.726-2.045,11.434-3.094
		c1.127-0.318,2.384-0.979,2.685,0.758c0.165,0.948,0.804,2.47-0.936,2.871c-3.743,0.861-2.286,3.729-1.712,5.523
		c2.07,6.475,3.607,13.104,4.553,19.763c0.713,5.021-1.661,12.15-8.608,14.126c-7.703,2.189-12.922,0.494-16.107-6.078
		c-3.384-6.982-4.364-14.757-6.969-22.012c-0.703-1.959-0.332-4.177-3.608-2.564c-2.002,0.985-1.122-1.297-1.624-2.058
		c-0.694-1.052-0.683-1.479,0.728-1.849c4.492-1.175,8.928-2.562,13.402-3.808c1.509-0.42,1.842,0.755,2.364,1.835
		c0.696,1.441-0.488,1.967-1.197,2.053c-3.19,0.387-2.712,2.685-2.112,4.438c2.343,6.836,3.024,14.209,6.487,20.66
		c1.66,3.092,4.302,4.944,7.986,3.733c3.388-1.113,4.401-3.775,4.523-7.249c0.229-6.51-2.265-12.418-3.714-18.545
		c-0.325-1.373,0.208-2.98-1.024-4.221c-0.687-0.691-0.45-2.353-2.312-1.277C193.859,482.518,194.05,479.337,192.92,477.606z"/>
	<path fill-rule="evenodd" clip-rule="evenodd" d="M223.177,511.13c-3.975,0.621-7.324-0.093-7.61-5.884
		c-0.102-2.063-1.025-4.02,1.384-4.971c2.43-0.96,3.333,0.918,4.206,2.802c2.278,4.92,3.364,5.147,8.099,2.581
		c1.942-1.053,2.965-2.55,2.819-4.563c-0.152-2.102-0.77-4.197-3.202-4.958c-3.196-1-6.464-1.817-9.577-3.03
		c-4.112-1.603-7.582-4.257-8.056-8.928c-0.454-4.466-0.823-9.182,4.106-12.065c5.042-2.948,10.232-3.963,15.8-1.869
		c0.986,0.371,2.123,8.116,1.445,8.965c-1.465,1.832-4.45,1.187-5.404-1.291c-0.819-2.127-1.024-4.484-4.406-4.067
		c-3.153,0.388-5.091,2.521-5.349,4.919c-0.301,2.807,2.049,5.255,4.688,6.198c1.41,0.504,3.076,0.872,4.645,1.217
		c8.672,1.908,13.116,6.966,12.369,14.038C238.437,506.82,232.218,511.688,223.177,511.13z"/>
	<path fill-rule="evenodd" clip-rule="evenodd" d="M245.689,506.096c-1.766,0.44-2.547-0.399-2.95-1.865
		c-0.429-1.56,0.583-1.87,1.725-2.049c3.068-0.48,1.77-2.943,1.528-4.268c-1.448-7.941-3.33-15.804-4.772-23.746
		c-0.431-2.374-1.453-3.052-3.6-3.039c-1.567,0.01-2.411-0.954-2.455-2.528c-0.057-1.991,1.495-1.254,2.496-1.432
		c3.826-0.681,7.646-1.411,11.487-1.989c0.944-0.142,2.256-2.479,2.932,0.196c0.394,1.562,0.021,3.484-1.681,3.634
		c-2.97,0.261-1.737,1.343-1.384,3.096c1.569,7.778,2.722,15.64,4.173,23.443c0.449,2.415,0.737,5.279,4.563,4.677
		c1.457-0.229,1.392,1.041,1.381,2.043c-0.009,0.82,0.05,1.679-1.093,1.858C253.876,504.782,249.715,505.452,245.689,506.096z"/>
	<path fill-rule="evenodd" clip-rule="evenodd" d="M390.906,482.572c0.306,0.452,0.612,0.904,0.918,1.355
		c-0.826,0.399-1.445,0.263-1.754-0.679C390.349,483.023,390.628,482.798,390.906,482.572z"/>
</g>
</svg>
