<?xml version="1.0" encoding="utf-8"?>
<!-- Generator: Adobe Illustrator 16.0.0, SVG Export Plug-In . SVG Version: 6.00 Build 0)  -->
<!DOCTYPE svg PUBLIC "-//W3C//DTD SVG 1.1//EN" "http://www.w3.org/Graphics/SVG/1.1/DTD/svg11.dtd">
<svg version="1.1" id="Layer_1" xmlns="http://www.w3.org/2000/svg" xmlns:xlink="http://www.w3.org/1999/xlink" x="0px" y="0px"
	 width="803.285px" height="799.334px" viewBox="-1.988 0 803.285 799.334" enable-background="new -1.988 0 803.285 799.334"
	 xml:space="preserve">
<g>
	<path fill="#FECB00" d="M207.651,666.354c0.004,0.085,0.008,0.171,0.013,0.256c-0.073-0.021-0.146-0.041-0.218-0.062
		c0.082-0.056,0.164-0.109,0.245-0.166L207.651,666.354z"/>
	<polygon fill="#FEFEFE" points="367.556,530.443 367.683,530.42 367.663,530.515 	"/>
</g>
<g>
	<path fill-rule="evenodd" clip-rule="evenodd" d="M746.8,192.156c-0.528,0.925-0.87,1.544-1.231,2.153
		c-11.68,19.686-23.344,39.381-35.077,59.035c-0.814,1.364-0.774,2.208,0.16,3.484c13.889,18.959,27.716,37.962,41.556,56.956
		c0.425,0.582,0.837,1.172,1.509,2.116C534.82,339.437,316.275,362.938,97.6,386.452c0-41.236,0-82.372,0-123.745
		C313.864,239.205,530.138,215.702,746.8,192.156z M401.851,311.903c0.037,0,0.073,0,0.109,0c0,4.924-0.072,9.85,0.035,14.771
		c0.044,2.042,0.985,2.726,2.985,2.506c5.486-0.606,10.96-1.346,16.452-1.882c12.42-1.213,19.284-11.979,18.41-21.426
		c-0.11-1.182,0.078-2.39,0.094-3.587c0.062-4.793-0.893-9.234-4.293-12.898c-1.939-2.088-1.918-2.56-0.341-5.042
		c4.132-6.503,4.748-13.444,2.341-20.647c-2.408-7.205-8.394-10.937-15.919-10.092c-5.155,0.578-10.306,1.199-15.449,1.869
		c-3.93,0.512-4.318,0.997-4.42,4.912c-0.012,0.466-0.003,0.932-0.003,1.398c0,8.188-0.066,16.377,0.049,24.563
		c0.027,1.9-0.528,3.052-2.137,4.039c-1.216,0.745-3.305,1.384-2.755,3.174c0.326,1.061,1.979,1.916,3.214,2.443
		c1.361,0.581,1.677,1.367,1.655,2.72C401.807,303.115,401.851,307.51,401.851,311.903z M288.946,323.043
		c0,4.461-0.006,8.923,0.002,13.384c0.005,3.267,0.549,3.754,3.729,3.396c1.719-0.193,3.444-0.339,5.155-0.584
		c2.91-0.416,3.498-1.112,3.502-4.026c0.007-5.46-0.027-10.921,0.021-16.381c0.014-1.589,0.12-3.2,0.419-4.755
		c0.333-1.734,1.702-2.551,3.35-2.618c1.595-0.065,2.292,1.114,2.66,2.503c0.12,0.45,0.239,0.899,0.35,1.351
		c1.519,6.196,3.019,12.398,4.562,18.588c0.687,2.753,1.324,3.208,4.216,3.003c1.79-0.127,3.582-0.325,5.348-0.632
		c4.591-0.797,4.889-1.292,3.69-5.749c-1.849-6.869-3.643-13.753-5.597-20.591c-0.831-2.908-0.394-5.348,1.196-7.941
		c1.283-2.091,2.496-4.578,2.63-6.951c0.36-6.368,0.271-12.774,0.082-19.156c-0.166-5.581-3.9-9.601-9.386-10.56
		c-8.05-1.408-15.883,0.541-23.752,1.707c-0.745,0.11-1.549,1.294-1.905,2.155c-0.362,0.872-0.261,1.96-0.263,2.954
		c-0.016,8.39-0.088,16.782,0.049,25.17c0.033,2-0.629,3.117-2.228,4.174c-1.119,0.74-2.511,1.954-2.646,3.091
		c-0.215,1.814,1.951,1.843,3.205,2.381c1.211,0.521,1.681,1.132,1.649,2.503C288.882,313.986,288.946,318.515,288.946,323.043z
		 M335.308,311.279c0,2.396-0.032,4.792,0.006,7.188c0.106,6.72,4.356,12.283,10.829,14.172c5.172,1.51,10.068,0.604,14.546-2.158
		c5.526-3.407,9.75-7.918,10.218-14.809c0.35-5.16,0.504-10.34,0.512-15.511c0.002-1.891,0.527-3.054,2.13-4.042
		c1.214-0.748,3.32-1.344,2.774-3.149c-0.318-1.053-1.974-1.877-3.197-2.435c-1.303-0.594-1.688-1.335-1.682-2.718
		c0.021-5.121,0.126-10.256-0.208-15.36c-0.617-9.43-7.047-15.05-16.393-14.667c-10.98,0.45-19.537,9.377-19.537,20.384
		c0,3.593-0.217,7.205,0.061,10.776c0.276,3.545-0.267,6.401-3.923,7.851c-0.06,0.024-0.112,0.072-0.163,0.114
		c-1.43,1.181-1.313,2.628,0.304,3.46c0.707,0.364,1.431,0.723,2.184,0.966c1.183,0.382,1.624,1.071,1.569,2.352
		C335.232,306.218,335.308,308.75,335.308,311.279z M476.827,320.478c1.706-0.261,4.066-0.657,6.438-0.975
		c2.09-0.28,2.771-1.589,2.694-3.492c-0.029-0.729-0.101-1.461-0.223-2.18c-1.244-7.341-2.391-14.701-3.812-22.007
		c-0.619-3.19-0.947-5.824,2.696-7.499c1.497-0.688,1.211-2.287-0.296-3.094c-0.877-0.47-1.782-0.914-2.722-1.233
		c-1.332-0.453-1.975-1.198-2.148-2.696c-0.345-2.967-0.967-5.902-1.488-8.848c-1.055-5.957-2.064-11.922-3.206-17.863
		c-0.445-2.315-1.307-2.896-3.433-2.664c-3.305,0.362-6.609,0.748-9.896,1.234c-3.003,0.444-3.746,1.165-4.261,4.129
		c-1.468,8.45-3.008,16.89-4.234,25.376c-0.398,2.758-1.507,4.508-3.806,5.995c-4.104,2.657-4.003,3.244,0.43,5.398
		c0.901,0.438,1.359,0.813,1.165,1.911c-1.02,5.761-1.979,11.531-2.944,17.301c-0.657,3.935-1.352,7.866-1.908,11.815
		c-0.315,2.24,0.275,2.843,2.48,2.661c2.583-0.213,5.156-0.552,7.727-0.896c1.562-0.209,2.477-1.134,2.737-2.726
		c0.481-2.953,1.058-5.891,1.498-8.85c0.717-4.816,1.421-5.523,6.298-5.982c3.201-0.301,4.515,0.698,5.006,3.913
		c0.432,2.828,0.759,5.671,1.197,8.498C473.162,319.938,474,320.594,476.827,320.478z M538.338,280.255
		c0,9.258-0.002,18.444,0.005,27.63c0,0.864,0.018,1.732,0.099,2.592c0.137,1.444,0.938,2.146,2.415,1.994
		c1.786-0.185,3.581-0.315,5.356-0.575c3.059-0.446,3.697-1.221,3.714-4.322c0.029-5.327-0.001-10.654,0.103-15.978
		c0.025-1.299,0.275-2.671,0.771-3.864c0.783-1.88,2.111-1.932,3.187-0.212c0.63,1.007,1.138,2.105,1.592,3.207
		c2.078,5.036,4.127,10.084,6.167,15.136c1.042,2.582,2.322,3.697,4.704,3.504c2.911-0.236,5.803-0.721,8.7-1.121
		c1.829-0.252,2.313-1.355,1.799-3.013c-0.196-0.633-0.432-1.258-0.694-1.867c-4.884-11.354-9.761-22.711-14.676-34.052
		c-0.772-1.782-0.729-3.44,0.129-5.169c1.447-2.917,2.833-5.863,4.226-8.807c2.642-5.587,5.295-11.168,7.89-16.777
		c1.219-2.633,0.813-3.192-2.107-2.92c-2.314,0.216-4.606,0.698-6.922,0.867c-2.207,0.16-3.51,1.301-4.401,3.202
		c-1.977,4.212-3.986,8.408-6.019,12.593c-0.433,0.89-0.915,1.796-1.558,2.535c-0.989,1.135-2.118,0.874-2.474-0.563
		c-0.269-1.085-0.378-2.231-0.396-3.353c-0.055-3.195,0.03-6.393-0.053-9.587c-0.058-2.228-0.829-2.807-3.033-2.552
		c-1.52,0.176-3.039,0.354-4.554,0.562c-3.493,0.479-3.963,1.024-3.966,4.618c-0.007,7.791-0.159,15.585,0.07,23.37
		c0.1,3.386-0.307,6.112-3.755,7.545c-0.18,0.074-0.337,0.218-0.48,0.355c-1.272,1.213-1.087,2.525,0.512,3.329
		C535.871,279.155,537.091,279.679,538.338,280.255z M244.117,328.5c0,4.396-0.007,8.791,0.002,13.187
		c0.007,3.558,0.294,3.855,3.745,3.645c1.525-0.093,3.053-0.252,4.561-0.493c3.501-0.557,4.068-1.246,4.079-4.869
		c0.017-5.395,0.004-10.789,0.004-16.184c0-6.198,0.194-6.598,6.48-7.293c9.243-1.022,15.931-9.474,16.404-16.406
		c0.37-5.431,0.543-10.934,0.104-16.348c-0.745-9.158-5.975-13.776-15.208-13.484c-5.565,0.176-11.116,1.062-16.653,1.782
		c-3.167,0.411-3.505,0.938-3.512,4.166c-0.017,7.992-0.174,15.989,0.071,23.973c0.108,3.545-0.297,6.404-3.938,7.875
		c-0.119,0.048-0.224,0.146-0.321,0.234c-1.286,1.166-1.173,2.34,0.343,3.156c0.759,0.409,1.54,0.81,2.356,1.072
		c1.226,0.395,1.53,1.167,1.511,2.399C244.074,319.441,244.116,323.971,244.117,328.5z M504.833,279.845
		c0-5.591-0.099-11.186,0.062-16.772c0.047-1.654,0.551-3.431,1.327-4.897c1.293-2.441,3.672-3.438,5.792-2.895
		c2.243,0.576,3.815,2.647,3.987,5.385c0.112,1.791,0.132,3.589,0.162,5.384c0.025,1.522,0.785,2.209,2.275,2.026
		c2.508-0.307,5.012-0.646,7.515-0.994c1.521-0.211,2.447-1.055,2.442-2.645c-0.011-3.317,0.201-6.67-0.225-9.937
		c-0.261-2-1.152-4.181-2.423-5.74c-4.103-5.033-9.275-7.697-15.994-5.848c-0.189,0.052-0.396,0.041-0.595,0.062
		c-8.598,0.954-16.01,9.192-16.043,17.882c-0.018,4.726-0.068,9.456,0.109,14.176c0.076,2.025-0.521,3.287-2.234,4.383
		c-1.124,0.719-1.872,2.024-2.789,3.067c1.099,0.835,2.098,1.888,3.322,2.447c1.302,0.595,1.708,1.31,1.685,2.701
		c-0.085,4.858-0.033,9.719-0.033,14.58c0,7.601,4.408,13.087,11.863,14.766c10.703,2.41,22.355-6.153,23.273-17.256
		c0.289-3.5,0.072-7.041,0.088-10.563c0.007-1.71-0.904-2.427-2.537-2.254c-2.312,0.245-4.615,0.575-6.929,0.806
		c-1.756,0.175-2.667,1.156-2.759,2.837c-0.117,2.123-0.126,4.252-0.149,6.379c-0.028,2.493-1.03,4.526-2.933,6.081
		c-2.747,2.248-6.239,1.401-7.48-1.903c-0.502-1.337-0.726-2.848-0.746-4.285C504.785,291.162,504.833,285.503,504.833,279.845z
		 M142.832,347.321c26.935-2.628,53.729-5.242,80.587-7.863c0-4.686,0-9.175,0-13.927c-26.97,2.631-53.758,5.244-80.587,7.86
		C142.832,338.099,142.832,342.599,142.832,347.321z M589.165,254.494c27.047-2.641,53.837-5.256,80.561-7.866
		c0-4.816,0-9.321,0-13.927c-26.939,2.629-53.739,5.246-80.561,7.864C589.165,245.292,589.165,249.796,589.165,254.494z
		 M223.422,296.616c0-4.749,0-9.238,0-13.928c-26.954,2.629-53.736,5.242-80.541,7.857c0,4.701,0,9.246,0,13.929
		C169.798,301.848,196.53,299.239,223.422,296.616z M669.764,271.972c-27.011,2.635-53.796,5.249-80.532,7.857
		c0,4.773,0,9.314,0,13.932c26.962-2.633,53.745-5.248,80.532-7.864C669.764,281.18,669.764,276.738,669.764,271.972z"/>
	<path fill-rule="evenodd" clip-rule="evenodd" d="M182.6,425.781c7.443-7.511,16.047-11.595,26.609-11.801
		c11.005-0.216,18.882,4.94,25.22,13.444c1.693-1.679,3.185-3.358,4.875-4.803c12.302-10.51,26.437-15.712,42.696-14.127
		c15.623,1.523,28.098,14.656,29.369,30.31c0.621,7.65-0.848,14.9-2.979,22.181c-8.889,30.371-17.648,60.78-26.359,91.203
		c-0.737,2.573-1.12,5.361-1.036,8.03c0.113,3.552,2.854,5.762,6.412,5.748c3.252-0.013,6.154-1.209,8.694-3.11
		c7.466-5.589,12.61-12.763,15.18-21.849c6.332-22.39,12.833-44.73,19.265-67.092c1.827-6.353,5.472-11.163,12.012-13.026
		c5.768-1.643,11.18-0.528,15.503,3.801c4.327,4.333,4.999,9.702,3.345,15.386c-4.178,14.363-8.442,28.702-12.677,43.049
		c-2.691,9.116-5.468,18.209-8.036,27.36c-0.673,2.397-0.959,4.972-0.978,7.468c-0.025,3.482,2.247,5.18,5.691,4.599
		c5.567-0.939,9.624-4.424,13.326-8.291c6.111-6.38,9.811-14.046,12.162-22.568c5.708-20.694,11.721-41.304,17.602-61.95
		c1.899-6.665,5.172-12.113,12.333-14.214c5.729-1.682,10.827-0.5,15.172,3.529c4.155,3.854,5.289,8.703,3.799,14.064
		c-4.042,14.54-8.19,29.05-12.311,43.568c-3.104,10.938-6.231,21.867-9.336,32.804c-0.217,0.766-0.409,1.551-0.487,2.339
		c-0.356,3.561,1.539,5.718,5.118,5.896c3.196,0.158,6.021-0.933,8.628-2.647c4.585-3.017,8.121-7.062,11.072-11.631
		c0.397-0.615,0.499-1.497,0.528-2.264c0.374-9.81,2.99-18.821,9.867-26.099c2.797-2.96,5.572-6.118,9.656-7.55
		c0.571-0.2,1.082-0.945,1.358-1.557c7.134-15.815,14.146-31.687,21.373-47.458c3.845-8.391,9.808-14.403,19.374-16.18
		c12.919-2.399,23.721,10.354,19.15,23.288c-1.415,4.003-3.769,7.342-7.513,9.509c-0.998,0.578-1.328,1.18-0.853,2.232
		c1.389,3.079,2.47,6.34,4.195,9.214c4.826,8.04,10.019,15.86,14.874,23.884c4.899,8.095,6.976,16.905,5.9,26.38
		c-0.036,0.315-0.005,0.638-0.005,1.546c2.468-2.149,4.764-3.847,6.684-5.897c2.357-2.518,4.657-5.166,6.497-8.065
		c1.534-2.418,2.679-5.191,3.461-7.958c5.715-20.216,11.277-40.476,16.926-60.71c1.857-6.65,5.424-11.933,12.044-14.759
		c9.597-4.097,19.263,2.18,19.516,12.641c0.139,5.729-1.854,10.99-3.347,16.351c-5.693,20.429-11.476,40.833-17.242,61.241
		c-0.86,3.047-0.969,5.915,1.489,8.352c2.534,2.513,5.584,2.579,8.744,1.717c4.852-1.323,8.518-4.452,11.323-8.422
		c2.715-3.841,5.051-7.964,7.351-12.076c0.599-1.071,0.359-2.583,0.646-3.861c1.642-7.32,3.151-14.677,5.038-21.934
		c2.644-10.163,5.092-20.417,8.493-30.334c6.509-18.979,23.895-31.47,43.692-32.188c16.97-0.616,30.977,11.472,32.907,28.405
		c0.961,8.422-0.28,16.484-4.354,23.955c-3.974,7.286-12.187,10.696-19.476,8.334c-7.611-2.466-11.18-9.871-8.42-17.369
		c0.8-2.177,1.684-4.366,2.102-6.628c0.512-2.764,0.255-5.539-2.48-7.258c-2.461-1.547-6-1.322-8.304,1.035
		c-1.851,1.895-3.72,4.2-4.476,6.663c-4.096,13.343-8.126,26.719-11.647,40.222c-4.163,15.96,7.944,24.595,20.046,24.689
		c14.358,0.113,25.96-5.963,35.615-16.185c7.305-7.732,12.475-16.777,15.331-26.993c2.776-9.931,16.271-12.817,23.432-6.055
		c2.926,2.762,3.88,6.115,2.812,9.821c-9.946,34.53-31.06,57.702-67.231,64.987c-14.35,2.891-28.527,1.885-41.823-4.961
		c-3.171-1.633-6.066-3.797-9.352-5.884c-8.239,9.86-18.749,16.528-31.964,18.327c-13.211,1.799-25.179-0.622-34.713-10.677
		c-3.924,2.422-7.768,5.042-11.832,7.256c-10.682,5.816-22.272,9.022-34.134,11.303c-6.463,1.242-12.944,2.499-19.475,3.259
		c-13.743,1.599-26.448-1.328-37.733-9.606c-0.263-0.191-0.544-0.356-1.003-0.656c-8.552,8.824-18.884,14.238-31.155,15.337
		c-12.466,1.116-23.466-2.207-31.727-11.579c-4.183,3.57-8.036,7.492-12.489,10.538c-11.292,7.726-23.546,9.456-36.398,4.249
		c-2.914-1.181-5.508-3.15-8.455-4.877c-5.37,4.521-11.701,7.938-18.762,9.955c-8.694,2.483-17.458,2.862-26.206,0.43
		c-14.088-3.917-22.634-14.621-23.559-29.248c-0.418-6.604,0.888-12.959,2.685-19.261c7.694-26.98,15.371-53.965,23.017-80.958
		c0.923-3.26,1.751-6.554,0.989-10.021c-1.227-5.572-5.782-8.633-11.423-7.638c-6.497,1.146-11.164,5.081-15.164,9.975
		c-4.38,5.357-6.841,11.648-8.692,18.235c-10.649,37.89-21.295,75.78-32.007,113.652c-2.697,9.535-10.726,15.597-20.113,15.495
		c-9.97-0.107-16.443-7.611-14.377-17.38c1.564-7.397,3.915-14.634,6.005-21.916c8.749-30.479,17.602-60.93,26.216-91.447
		c1.1-3.898,1.477-8.141,1.383-12.206c-0.164-7.062-4.691-10.065-11.526-8.278c-4.471,1.17-8.108,3.715-11.228,6.96
		c-5.613,5.839-9.73,12.566-11.952,20.452c-10.727,38.078-21.519,76.138-32.309,114.197c-2.342,8.262-7.654,13.738-16.071,15.496
		c-12.931,2.7-21.882-6.887-18.363-19.608c5.884-21.274,11.986-42.489,17.993-63.729c8.919-31.54,17.887-63.066,26.725-94.629
		c2.803-10.011,10.466-13.625,18.2-13.289C173.204,417.665,178.813,420.004,182.6,425.781z M454.752,545.779
		c0.884,1.21,1.386,2.045,2.027,2.752c2.556,2.814,5.945,3.884,9.562,4.445c9.169,1.423,17.545-3.756,19.91-12.378
		c1.162-4.237,1.335-8.551,0.318-12.832c-1.999-8.417-6.385-15.549-12.086-21.939c-0.152-0.172-0.421-0.24-0.695-0.39
		c-0.406,1.031-0.854,1.934-1.101,2.888c-0.123,0.476-0.072,1.239,0.231,1.544c5.181,5.211,6.161,11.562,5.049,18.459
		c-1.467,9.089-8.86,16.337-17.792,17.423C458.57,545.946,456.92,545.779,454.752,545.779z"/>
	<path fill-rule="evenodd" clip-rule="evenodd" d="M696.94,472.223c0-4.349,0.08-8.718-0.018-13.082
		c-0.165-7.369-1.933-14.386-6.694-20.081c-3.817-4.567-8.18-8.758-12.724-12.616c-4.12-3.5-9.254-5.323-14.684-5.66
		c-8.567-0.532-17.167-0.986-25.658,0.854c-9.133,1.979-17.078,6.179-23.689,12.851c-5.06,5.104-10.418,9.947-13.93,16.365
		c-0.57,1.04-1.131,2.086-1.981,3.657c-0.268-5.02,0.864-9.893-1.985-13.776c-2.693-3.671-6.026-6.872-9.269-10.492
		c1.787,0,3.481-0.008,5.175,0.001c5.325,0.029,9.885-1.755,13.604-5.629c1.938-2.018,3.974-3.94,5.922-5.947
		c3.446-3.549,5.248-7.799,5.26-12.766c0.015-5.716,0.004-11.433,0.004-17.452c55.239-5.608,110.974-11.267,166.887-16.943
		c0,67.674,0,135.174,0,202.989c-258.546,26.247-517.179,52.504-776.292,78.809c0.702-1.128,1.133-1.847,1.588-2.55
		c22.61-34.919,45.209-69.846,67.875-104.729c1.11-1.71,1.142-2.763-0.136-4.438c-22.656-29.7-45.232-59.461-67.825-89.21
		c-0.433-0.57-0.854-1.149-1.528-2.059c42.174-4.282,83.985-8.526,126.096-12.802c-1.242,4.448-2.385,8.594-3.556,12.731
		c-12.438,43.951-24.905,87.894-37.265,131.866c-0.761,2.705-0.903,5.641-0.958,8.477c-0.083,4.383,0.149,8.772,0.273,13.158
		c0.013,0.456,0.157,0.92,0.305,1.357c1.95,5.749,6.792,9.119,10.981,12.926c2.907,2.642,6.808,3.149,10.704,3.055
		c4.721-0.115,9.459,0.017,14.158-0.362c4.102-0.331,7.565-2.434,10.524-5.252c2.459-2.342,4.846-4.763,7.221-7.19
		c2.48-2.535,3.973-5.633,4.928-9.012c10.931-38.644,21.852-77.29,32.806-115.927c1.521-5.366,4.367-10.052,8.059-14.313
		c-1.16,4.061-2.312,8.124-3.48,12.182c-9.088,31.559-18.201,63.11-27.224,94.688c-0.667,2.334-0.88,4.842-0.985,7.282
		c-0.16,3.724-0.044,7.459-0.041,11.189c0.002,4.269,1.469,7.929,4.532,10.935c1.664,1.633,3.32,3.274,4.944,4.947
		c2.733,2.814,6.088,4.368,9.962,4.405c5.716,0.054,11.451,0.063,17.148-0.335c4.103-0.287,7.502-2.542,10.491-5.325
		c0.146-0.136,0.284-0.281,0.425-0.423c10.993-10.971,9.303-8.239,14.51-26.688c9.735-34.486,19.433-68.984,29.144-103.478
		c1.524-5.416,3.674-10.545,6.917-15.175c0.371-0.53,0.8-1.019,1.557-1.401c-0.156,0.712-0.275,1.434-0.473,2.132
		c-7.241,25.52-14.601,51.006-21.642,76.58c-1.379,5.007-1.938,10.335-2.139,15.544c-0.23,5.961,0.055,11.985,0.68,17.923
		c0.646,6.125,3.633,11.343,7.898,15.785c1.384,1.441,2.891,2.769,4.223,4.255c6.978,7.785,15.836,11.628,26.124,11.913
		c7.371,0.204,14.784,0.055,22.134-0.508c6.494-0.498,12.529-2.96,18.161-6.242c1.25-0.729,2.19-0.789,3.629-0.284
		c3.301,1.158,6.724,2.425,10.162,2.643c6.495,0.412,13.049,0.391,19.552,0.051c9.28-0.485,17.07-4.682,23.97-10.695
		c0.449-0.392,0.901-0.779,1.438-1.244c7.644,5.247,16.221,6.636,25.283,6.32c6.77-0.236,13.564,0.323,20.226-1.604
		c6.214-1.797,11.971-4.416,17.05-8.432c0.906-0.716,1.56-0.82,2.626-0.292c6.831,3.384,14.087,5.281,21.703,5.397
		c8.907,0.136,17.821,0.547,26.685-1.136c12.346-2.342,24.825-4.146,36.57-8.852c4.982-1.996,9.751-4.538,14.562-6.941
		c0.959-0.479,1.546-0.553,2.476,0.054c6.251,4.077,13.18,5.966,20.606,5.894c6.65-0.064,13.347,0.117,19.937-0.599
		c9.847-1.068,18.487-5.264,25.791-12.015c1.082-1,1.839-1.183,3.217-0.456c8.283,4.363,17.199,6.402,26.516,6.387
		c7.847-0.014,15.753,0.121,23.525-0.755c18.034-2.034,33.604-9.655,46.692-22.261c7.593-7.313,14.846-14.906,20.213-24.102
		c4.489-7.689,7.932-15.812,10.129-24.421c0.613-2.404,0.603-5.009,0.604-7.521c0.003-13.685,0.995-10.676-8.417-20.271
		c-2.215-2.258-4.802-4.079-7.949-4.185c-5.903-0.198-11.831-0.141-17.728,0.186C701.045,470.193,699.1,471.432,696.94,472.223z"/>
	<path fill-rule="evenodd" clip-rule="evenodd" d="M184.01,240.667c-11.159,1.216-22.12,2.41-33.349,3.633c0-0.803,0-1.447,0-2.091
		c0-17.517,0.02-35.035-0.036-52.551c-0.005-1.47,0.479-2.219,1.73-2.941C236.277,138.325,320.18,89.904,404.06,41.44
		c1.414-0.817,2.379-0.742,3.741,0.046c83.825,48.425,167.672,96.813,251.517,145.206c0.345,0.199,0.742,0.349,1.017,0.622
		c0.293,0.292,0.47,0.704,0.697,1.062c-0.374,0.203-0.731,0.542-1.123,0.587c-5.158,0.583-10.322,1.119-15.483,1.679
		c-11.712,1.271-23.429,2.506-35.131,3.863c-2.352,0.273-4.325-0.063-6.422-1.272c-65.021-37.482-130.076-74.9-195.104-112.369
		c-1.385-0.797-2.367-0.784-3.74,0.027c-72.749,42.995-145.519,85.955-218.312,128.876c-1.356,0.8-1.75,1.674-1.738,3.171
		c0.067,8.392,0.032,16.784,0.032,25.176C184.01,238.899,184.01,239.683,184.01,240.667z"/>
	<path fill-rule="evenodd" clip-rule="evenodd" d="M661.076,599.596c0,4.08,0.078,8.003-0.076,11.916
		c-0.025,0.66-0.936,1.482-1.636,1.889c-15.076,8.751-30.183,17.451-45.279,26.165c-68.805,39.711-137.61,79.419-206.395,119.166
		c-1.309,0.756-2.222,0.801-3.562,0.027c-64.575-37.323-129.175-74.601-193.771-111.886c-0.612-0.354-1.204-0.741-2.245-1.384
		c5.571-0.573,10.639-1.099,15.708-1.615c13.907-1.418,27.811-2.852,41.724-4.206c1.038-0.101,2.278,0.116,3.178,0.623
		c45.057,25.341,90.091,50.721,135.098,76.149c1.522,0.86,2.602,0.88,4.141,0.033c67.2-36.982,134.422-73.929,201.689-110.792
		c1.89-1.035,4.271-1.377,6.47-1.612c14.693-1.57,29.399-3.023,44.102-4.511C660.416,599.54,660.616,599.574,661.076,599.596z"/>
	<path fill-rule="evenodd" clip-rule="evenodd" d="M510.77,479.42c4.5-4.521,6.398-9.833,6.084-16.038
		c-0.169-3.322,0.012-6.66-0.041-9.989c-0.075-4.799-1.744-8.965-5.147-12.392c-1.971-1.985-3.916-3.998-5.941-5.927
		c-3.464-3.296-7.526-5.15-12.405-5.044c-3.661,0.079-7.325,0.064-10.987,0.07c-6.139,0.01-11.469,2.094-15.914,6.314
		c-2.558,2.43-5.04,4.943-7.482,7.489c-3.326,3.468-5.312,7.733-7.236,12.077c-5.953,13.429-12.025,26.805-18.109,40.175
		c-0.416,0.914-1.251,1.674-1.997,2.396c-2.244,2.17-4.541,4.285-7.163,6.745c1.486-5.233,2.888-10.035,4.21-14.859
		c1.23-4.484,2.891-8.932,3.426-13.505c0.607-5.188,0.305-10.5,0.145-15.75c-0.098-3.196-1.853-5.774-4.068-8.006
		c-1.877-1.891-3.763-3.772-5.65-5.652c-3.173-3.16-6.964-4.775-11.48-4.705c-3.796,0.059-7.593,0.008-11.389,0.013
		c-4.619,0.006-8.633,1.608-11.852,4.889c-3.566,3.636-7.85,6.733-9.717,11.747c-1.064,2.859-1.873,5.814-2.794,8.728
		c-0.279,0.88-0.551,1.763-0.946,3.024c-0.18-2.113-0.128-3.878-0.509-5.543c-1.465-6.403-10.804-15.593-17.212-17.015
		c-1.288-0.285-2.635-0.397-3.958-0.417c-3.729-0.054-7.459-0.007-11.189-0.021c-4.774-0.019-8.828,1.657-12.162,5.085
		c-2.121,2.181-4.264,4.341-6.779,6.286c0.24-1.472,0.69-2.942,0.687-4.413c-0.022-8.373,0.187-16.771-0.398-25.11
		c-0.269-3.843-2.163-7.572-3.361-11.488c78.835-8.003,157.921-16.032,237.225-24.083c0,3.793,0.074,7.379-0.017,10.961
		c-0.148,5.852,1.741,10.753,6.072,14.82c2.467,2.317,4.55,5.042,6.807,7.584c0.194-0.052,0.389-0.104,0.583-0.156
		c-0.855,0-1.712,0.033-2.566-0.005c-5.622-0.254-10.016,2.218-14.188,5.775c-7.089,6.043-10.982,13.601-13.226,22.597
		c-3.891,15.604-8.543,31.017-12.879,46.509c-0.159,0.569-0.344,1.131-0.532,1.75C521.381,496.005,516.118,487.779,510.77,479.42z"
		/>
	<path fill-rule="evenodd" clip-rule="evenodd" d="M303.021,640.978c82.645-8.264,165.289-16.527,247.932-24.791
		c0.043,0.099,0.084,0.198,0.126,0.297c-0.388,0.261-0.756,0.558-1.165,0.777c-47.594,25.541-95.192,51.072-142.774,76.632
		c-0.985,0.528-1.725,0.556-2.727,0.037c-33.482-17.354-66.981-34.677-100.476-52.005c-0.34-0.177-0.671-0.369-1.006-0.555
		C302.96,641.239,302.991,641.108,303.021,640.978z"/>
	<path fill-rule="evenodd" clip-rule="evenodd" d="M317.265,155.119c0.528-0.372,1.043-0.766,1.587-1.113
		c28.423-18.191,56.85-36.375,85.266-54.578c0.995-0.638,1.742-1.052,2.997-0.28c20.353,12.512,40.746,24.959,61.13,37.423
		c0.388,0.238,0.76,0.502,1.654,1.096c-51.188,5.953-101.832,11.843-152.476,17.733
		C317.371,155.307,317.318,155.213,317.265,155.119z"/>
	<path fill-rule="evenodd" clip-rule="evenodd" d="M781.846,359.808c-35.398,4.008-70.798,8.015-106.328,12.038
		c0-9.794,0-19.35,0-29.13c35.53,5.579,70.925,11.137,106.32,16.695C781.841,359.542,781.843,359.675,781.846,359.808z"/>
	<path fill-rule="evenodd" clip-rule="evenodd" d="M587.226,382.415c9.751,0.004,17.052,7.4,17.058,17.281
		c0.006,10.423-8.233,18.62-18.655,18.558c-9.601-0.057-16.965-7.74-16.979-17.715C568.633,390.389,576.812,382.41,587.226,382.415z
		"/>
	<path fill-rule="evenodd" clip-rule="evenodd" d="M633.614,374.093c0-10.909,0-21.662,0-32.632
		c9.066-0.98,18.101-1.958,27.304-2.953c0,10.889,0,21.694,0,32.793C651.917,372.221,642.829,373.15,633.614,374.093z"/>
	<path fill-rule="evenodd" clip-rule="evenodd" d="M249.952,204.512c0-4.754,0-9.251,0-13.926
		c16.141-1.432,32.234-2.86,48.469-4.301c0,4.636,0,9.14,0,13.925C282.401,201.632,266.325,203.059,249.952,204.512z"/>
	<path fill-rule="evenodd" clip-rule="evenodd" d="M468.822,173.971c0.305-0.329,0.601-0.665,0.915-0.983
		c2.121-2.147,4.687-2.748,7.513-1.895c2.671,0.806,3.716,3.083,3.848,5.547c0.221,4.114,0.374,8.277-0.002,12.368
		c-0.625,6.784-8.694,10.945-14.835,7.896c-2.203-1.094-3.318-3.006-3.808-5.32c-0.178-0.84-0.24-1.717-0.242-2.578
		c-0.019-7.191-0.054-14.382,0.002-21.572c0.052-6.775,3.755-10.569,10.417-10.821c5.056-0.191,8.033,2.405,8.504,7.459
		c0.08,0.855,0.011,1.724,0.011,2.789c-0.984,0.109-1.947,0.215-2.911,0.321c-0.917,0.102-1.833,0.204-2.913,0.324
		c-0.054-0.692-0.09-1.264-0.142-1.834c-0.15-1.636-0.579-3.056-2.581-3.189c-1.978-0.132-3.515,0.834-3.752,2.795
		c-0.342,2.82-0.364,5.679-0.523,8.521C468.489,173.856,468.655,173.914,468.822,173.971z M475.062,184.031
		c-0.046-0.001-0.093-0.002-0.139-0.004c0-1.262,0.032-2.524-0.008-3.785c-0.055-1.729-0.511-3.211-2.6-3.36
		c-1.976-0.141-3.479,0.979-3.634,3.133c-0.215,2.972-0.166,5.97-0.084,8.952c0.044,1.603,0.793,2.82,2.66,2.866
		c1.846,0.044,3.281-1.015,3.519-2.833C474.991,187.359,474.976,185.688,475.062,184.031z"/>
	<path fill-rule="evenodd" clip-rule="evenodd" d="M416.841,182.576c-0.001-3.663-0.029-7.325,0.005-10.987
		c0.07-7.552,7.077-12.46,14.186-9.928c3.521,1.254,4.809,4.17,4.874,7.534c0.148,7.721,0.217,15.452,0,23.17
		c-0.206,7.307-7.385,11.903-14.27,9.413c-2.9-1.048-4.724-3.869-4.781-7.616C416.796,190.3,416.842,186.438,416.841,182.576z
		 M423.169,182.048c0.019,0,0.037,0,0.055,0c0,3.785-0.023,7.571,0.012,11.355c0.014,1.535,0.602,2.735,2.317,2.977
		c1.826,0.257,3.315-0.671,3.77-2.457c0.226-0.887,0.291-1.834,0.294-2.754c0.023-6.508,0.015-13.018,0.01-19.526
		c-0.001-0.597-0.001-1.2-0.078-1.79c-0.184-1.404-0.662-2.628-2.321-2.775c-1.77-0.157-3.188,0.442-3.722,2.263
		c-0.256,0.873-0.312,1.826-0.322,2.745C423.147,175.406,423.169,178.727,423.169,182.048z"/>
	<path fill-rule="evenodd" clip-rule="evenodd" d="M496.35,183.087c0-4.782,0-9.274,0-13.932
		c12.548-1.425,24.999-2.839,37.681-4.279c0,4.696,0,9.171,0,13.919C521.619,180.209,509.1,181.635,496.35,183.087z"/>
	<path fill-rule="evenodd" clip-rule="evenodd" d="M183.989,389.8c0,5.924,0.028,11.569-0.073,17.21
		c-0.006,0.328-1.266,1.057-1.596,0.895c-8.367-4.116-17.217-2.481-25.926-2.166c-1.848,0.067-3.663,1.043-5.603,1.633
		c0-4.562,0-9.169,0-13.999C161.734,392.196,172.689,391.017,183.989,389.8z"/>
	<path fill-rule="evenodd" clip-rule="evenodd" d="M676.883,505.297c-3.979,6.607-10.16,10.507-16.995,13.518
		c-2.357,1.039-4.911,1.622-7.334,2.526c-3.997,1.492-7.564,0.125-10.704-2.037c-1.181-0.812-2.218-3.205-1.914-4.563
		c1.286-5.753,3.101-11.388,5.285-17.497c1.152,1.344,2.249,2.741,3.468,4.022c3.051,3.208,6.82,4.722,11.254,4.656
		c3.259-0.047,6.521,0.066,9.778-0.034C672.085,505.814,674.442,505.507,676.883,505.297z"/>
	<path fill-rule="evenodd" clip-rule="evenodd" d="M336.176,198.679c1.958-0.19,3.737-0.363,5.876-0.571
		c0,1.274-0.023,2.371,0.005,3.465c0.042,1.571,0.692,2.799,2.369,2.939c1.622,0.135,3.073-0.404,3.647-2.141
		c0.935-2.834,0.051-5.293-1.937-7.302c-1.725-1.743-3.705-3.232-5.52-4.89c-4.401-4.019-5.52-8.947-3.724-14.523
		c1.731-5.374,9.081-8.216,14.011-5.423c3.707,2.101,3.878,5.7,3.735,9.582c-1.91,0.199-3.733,0.388-5.771,0.6
		c-0.094-0.982-0.172-1.807-0.252-2.632c-0.135-1.393-0.703-2.494-2.229-2.621c-1.579-0.131-2.935,0.398-3.495,2.03
		c-0.997,2.898-0.106,5.412,1.936,7.488c1.534,1.558,3.286,2.902,4.942,4.34c4.701,4.079,6.251,9.537,4.287,15.09
		c-1.875,5.301-9.395,8.12-14.308,5.359c-2.149-1.207-3.229-3.178-3.529-5.501C336,202.284,336.176,200.548,336.176,198.679z"/>
	<path fill-rule="evenodd" clip-rule="evenodd" d="M316.104,172.772c5.624-0.567,11.215-1.13,16.871-1.701c0,2.023,0,3.856,0,5.796
		c-3.152,0.33-6.188,0.61-9.208,1.002c-0.506,0.065-1.349,0.604-1.36,0.945c-0.103,3.307-0.062,6.618-0.062,10.121
		c2.918-0.266,5.603-0.511,8.43-0.769c0,1.943,0,3.771,0,5.774c-2.304,0.235-4.619,0.412-6.91,0.747
		c-0.55,0.081-1.45,0.675-1.463,1.058c-0.114,3.438-0.067,6.881-0.067,10.596c3.645-0.333,7.054-0.646,10.765-0.985
		c0,1.724,0.089,3.299-0.061,4.851c-0.039,0.403-0.8,1.001-1.279,1.054c-5.147,0.565-10.305,1.039-15.656,1.557
		C316.104,199.426,316.104,186.178,316.104,172.772z"/>
	<path fill-rule="evenodd" clip-rule="evenodd" d="M394.826,204.949c-0.63-5.824,0.097-11.07,3.838-15.597
		c1.864-2.255,3.717-4.527,5.453-6.88c2.114-2.866,3.218-6.124,3.017-9.71c-0.141-2.513-1.121-3.545-2.949-3.458
		c-2.081,0.099-3.279,1.375-3.384,3.664c-0.07,1.523-0.085,3.049-0.13,4.573c-0.002,0.06-0.06,0.118-0.169,0.322
		c-1.808,0.172-3.706,0.353-6.128,0.583c0.366-3.088,0.315-6.005,1.108-8.67c1.638-5.502,9.477-8.305,14.39-5.309
		c3.508,2.139,3.812,5.72,3.617,9.336c-0.22,4.101-1.794,7.753-4.236,11.011c-1.994,2.661-4.154,5.197-6.146,7.859
		c-1.188,1.586-2.306,3.271-1.866,5.741c3.819-0.347,7.614-0.691,11.544-1.048c0,1.937,0,3.702,0,5.749
		C406.885,203.717,400.968,204.321,394.826,204.949z"/>
	<path fill-rule="evenodd" clip-rule="evenodd" d="M375.886,172.539c-1.592,0.178-3.099,0.49-4.603,0.475
		c-1.615-0.016-1.978,0.631-1.968,2.143c0.061,9.983,0.031,19.967,0.031,29.951c0,0.723,0,1.445,0,2.364
		c-2.092,0.212-4.044,0.41-6.256,0.634c0-11.455,0-22.732,0-34.19c-2.277,0.192-4.302,0.363-6.466,0.545c0-1.908,0-3.736,0-5.756
		c6.365-0.641,12.745-1.283,19.263-1.94C375.886,168.769,375.886,170.595,375.886,172.539z"/>
	<path fill-rule="evenodd" clip-rule="evenodd" d="M312.816,399.153c-3.802-3.789-7.744-7.718-11.569-11.532
		c3.844-3.842,7.775-7.772,11.487-11.482c3.773,3.773,7.737,7.736,11.535,11.534C320.695,391.256,316.734,395.226,312.816,399.153z"
		/>
	<path fill-rule="evenodd" clip-rule="evenodd" d="M371.037,384.049c-3.851,3.854-7.787,7.792-11.656,11.663
		c-3.812-3.866-7.763-7.872-11.589-11.751c3.765-3.765,7.73-7.731,11.581-11.583C363.173,376.181,367.106,380.116,371.037,384.049z"
		/>
	<path fill-rule="evenodd" clip-rule="evenodd" d="M394.159,380.41c3.87-3.885,7.797-7.83,11.633-11.681
		c3.837,3.839,7.772,7.777,11.527,11.534c-3.841,3.837-7.816,7.81-11.722,11.711C401.96,388.295,398.003,384.296,394.159,380.41z"/>
	<path fill-rule="evenodd" clip-rule="evenodd" d="M451.869,388.42c-3.645-3.636-7.552-7.535-11.245-11.22
		c3.929-3.918,7.904-7.884,11.75-11.719c3.553,3.555,7.487,7.493,11.205,11.213C459.825,380.453,455.854,384.43,451.869,388.42z"/>
	<path fill-rule="evenodd" clip-rule="evenodd" d="M498.827,361.729c3.722,3.72,7.622,7.62,11.345,11.341
		c-3.903,3.896-7.883,7.868-11.771,11.749c-3.643-3.642-7.583-7.583-11.345-11.343C490.925,369.615,494.906,365.642,498.827,361.729
		z"/>
	<path fill-rule="evenodd" clip-rule="evenodd" d="M454.828,198.888c-1.943,0.203-3.846,0.401-6.038,0.63
		c0-10.194,0-20.262,0-30.463c-1.729,0.159-3.173,0.292-4.968,0.456c0-1.287-0.096-2.458,0.051-3.598
		c0.054-0.415,0.637-1.011,1.06-1.088c2.756-0.508,4.264-2.219,5.598-4.6c0.556-0.992,2.597-1.15,4.298-1.82
		C454.828,172.259,454.828,185.512,454.828,198.888z"/>
	<path fill-rule="evenodd" clip-rule="evenodd" d="M381.214,206.286c-1.95,0.201-3.788,0.39-5.819,0.599c0-1.993,0-3.926,0-6.111
		c1.824-0.196,3.75-0.402,5.819-0.624C381.214,202.239,381.214,204.128,381.214,206.286z"/>
	<path fill-rule="evenodd" clip-rule="evenodd" fill="#FFFFFF" d="M454.752,545.779c2.168,0,3.818,0.167,5.424-0.028
		c8.932-1.086,16.325-8.334,17.792-17.423c1.112-6.897,0.132-13.248-5.049-18.459c-0.304-0.305-0.354-1.068-0.231-1.544
		c0.246-0.954,0.694-1.856,1.101-2.888c0.274,0.149,0.543,0.218,0.695,0.39c5.701,6.391,10.087,13.522,12.086,21.939
		c1.017,4.281,0.844,8.595-0.318,12.832c-2.365,8.622-10.741,13.801-19.91,12.378c-3.616-0.562-7.006-1.631-9.562-4.445
		C456.138,547.824,455.636,546.989,454.752,545.779z"/>
	<path fill-rule="evenodd" clip-rule="evenodd" fill="#FFFFFF" d="M475.062,184.031c-0.086,1.657-0.07,3.328-0.285,4.969
		c-0.237,1.818-1.673,2.878-3.519,2.833c-1.867-0.045-2.616-1.263-2.66-2.866c-0.082-2.982-0.131-5.98,0.084-8.952
		c0.155-2.154,1.658-3.274,3.634-3.133c2.089,0.149,2.545,1.631,2.6,3.36c0.04,1.261,0.008,2.523,0.008,3.785
		C474.969,184.029,475.016,184.03,475.062,184.031z"/>
	<path fill-rule="evenodd" clip-rule="evenodd" fill="#FFFFFF" d="M423.169,182.048c0-3.321-0.021-6.642,0.014-9.962
		c0.011-0.918,0.066-1.872,0.322-2.745c0.534-1.821,1.952-2.419,3.722-2.263c1.659,0.147,2.138,1.371,2.321,2.775
		c0.077,0.59,0.077,1.192,0.078,1.79c0.005,6.508,0.014,13.018-0.01,19.526c-0.003,0.92-0.068,1.868-0.294,2.754
		c-0.454,1.786-1.943,2.714-3.77,2.457c-1.716-0.242-2.304-1.441-2.317-2.977c-0.035-3.785-0.012-7.57-0.012-11.355
		C423.206,182.048,423.188,182.048,423.169,182.048z"/>
	<path fill-rule="evenodd" clip-rule="evenodd" d="M415.198,305.737c0-1.728-0.044-3.456,0.01-5.181
		c0.099-3.173,1.195-4.701,3.746-5.35c2.174-0.554,4.975,0.76,6.254,2.933c2.268,3.85,1.609,10.948-1.385,14.293
		c-1.713,1.915-3.989,2.54-6.474,2.49c-1.54-0.031-2.046-1.11-2.082-2.413c-0.062-2.256-0.017-4.515-0.017-6.772
		C415.233,305.737,415.216,305.737,415.198,305.737z"/>
	<path fill-rule="evenodd" clip-rule="evenodd" d="M414.794,275.131c0.146-1.45,0.278-2.901,0.441-4.349
		c0.304-2.713,1.259-3.877,3.415-4.202c2.949-0.444,5.149,0.563,6.084,2.938c1.396,3.549,1.06,7.04-0.789,10.331
		c-1.086,1.935-3.007,2.957-5.115,2.93c-1.005-0.013-2.483-0.958-2.888-1.864c-0.785-1.761-0.963-3.793-1.393-5.713
		C414.631,275.179,414.713,275.155,414.794,275.131z"/>
	<path fill-rule="evenodd" clip-rule="evenodd" d="M301.41,288.813c0-2.528-0.101-5.062,0.028-7.583
		c0.129-2.512,1.135-3.473,3.611-3.598c1.25-0.063,2.54,0.019,3.767,0.258c2.454,0.48,3.672,1.916,3.737,4.461
		c0.083,3.259,0.125,6.526-0.011,9.782c-0.167,4.026-3.417,7.228-7.28,7.404c-2.428,0.111-3.639-0.927-3.705-3.343
		c-0.067-2.459-0.015-4.921-0.015-7.381C301.498,288.813,301.454,288.813,301.41,288.813z"/>
	<path fill-rule="evenodd" clip-rule="evenodd" d="M347.697,295.679c0-6.259-0.021-12.518,0.009-18.777
		c0.016-3.253,1.691-5.424,4.627-6.163c2.657-0.669,5.007,0.696,5.634,3.365c0.226,0.961,0.305,1.977,0.307,2.969
		c0.02,11.852,0.012,23.704,0.014,35.556c0,2.576-0.543,4.91-2.894,6.413c-3.482,2.227-7.142,0.502-7.614-3.592
		c-0.083-0.725-0.08-1.462-0.081-2.193C347.694,307.397,347.697,301.538,347.697,295.679z"/>
	<path fill-rule="evenodd" clip-rule="evenodd" d="M465.121,293.42c-1.465,0.228-2.173-0.418-1.868-2.144
		c0.521-2.942,0.918-5.908,1.524-8.831c0.127-0.615,0.931-1.09,1.423-1.629c0.449,0.525,1.168,0.989,1.302,1.585
		c0.626,2.788,1.17,5.6,1.585,8.427C469.355,292.649,468.141,293.415,465.121,293.42z"/>
	<path fill-rule="evenodd" clip-rule="evenodd" d="M256.517,294.53c0-2.788-0.029-5.577,0.011-8.364
		c0.024-1.712,1.003-2.62,2.645-3.001c4.361-1.012,7.944,1.035,8.505,5.469c0.411,3.246,0.333,6.644-0.136,9.886
		c-0.543,3.751-4.271,6.494-7.832,6.425c-2.083-0.04-3.078-0.955-3.123-3.032c-0.053-2.46-0.012-4.922-0.012-7.383
		C256.556,294.53,256.536,294.53,256.517,294.53z"/>
</g>
</svg>
