<?xml version="1.0" encoding="utf-8"?>
<!-- Generator: Adobe Illustrator 16.0.0, SVG Export Plug-In . SVG Version: 6.00 Build 0)  -->
<!DOCTYPE svg PUBLIC "-//W3C//DTD SVG 1.1//EN" "http://www.w3.org/Graphics/SVG/1.1/DTD/svg11.dtd">
<svg version="1.1" id="Layer_1" xmlns="http://www.w3.org/2000/svg" xmlns:xlink="http://www.w3.org/1999/xlink" x="0px" y="0px"
	 width="803.285px" height="614.969px" viewBox="0 0 803.285 614.969" style="enable-background:new 0 0 803.285 614.969;"
	 xml:space="preserve">
<style type="text/css">
<![CDATA[
	.st0{fill-rule:evenodd;clip-rule:evenodd;fill:#85BA8D;}
	.st1{fill-rule:evenodd;clip-rule:evenodd;fill:#F4F6F4;}
]]>
</style>
<g>
	<path class="st1" d="M-88.955,672.393c0.333,0.333,0.667,0.667,1,1C-88.815,673.587-89.149,673.253-88.955,672.393z"/>
	<path class="st1" d="M904.045,673.393c0.333-0.333,0.667-0.667,1-1C905.24,673.253,904.906,673.587,904.045,673.393z"/>
	<path class="st1" d="M234.858,398.926c3.557,2.433,7.646,0.772,11.289,1.955c1.333,0.433,1.844-0.428,1.81-1.585
		c-0.229-7.758,0.493-15.46,0.982-23.194c1.153-18.22,2.708-36.438,2.131-54.734c-0.121-3.831,1.879-6.021,5.765-5.94
		c10.146,0.213,20.265-0.242,30.369-1.058c5.183-0.418,7.824,1.872,9.35,6.827c5.229,16.981,10.803,33.856,16.247,50.771
		c0.295,0.919,0.275,1.998,1.815,2.899c3.837-12.549,7.625-24.938,11.415-37.328c1.894-6.188,3.923-12.338,5.638-18.575
		c0.927-3.372,3.145-4.534,6.236-4.548c11.333-0.048,22.666-0.005,33.999-0.029c3.537-0.008,4.981,1.723,5.18,5.215
		c0.911,16.043,1.475,32.128,3.117,48.1c1.521,14.791,2.096,29.692,4.749,44.37c0.969,5.358-0.873,7.181-6.424,7.34
		c-7.793,0.223-15.567-0.302-23.391,0.83c-7.923,1.146-10.377-1.332-10.018-9.32c0.458-10.175-1.454-20.215-1.908-30.661
		c-1.424,3.685-2.926,7.342-4.256,11.06c-2.686,7.508-5.503,14.98-7.825,22.603c-1.403,4.607-4.346,6.396-8.738,6.44
		c-7.499,0.073-14.999,0.028-22.499,0.016c-0.659-0.001-1.521,0.113-1.947-0.239c-4.918-4.065-6.495,0.234-8.571,3.343
		c-6.451,9.663-12.737,19.442-19.422,28.94c-4.635,6.586-15.962,12.157-23.617,7.164c-3.471-2.264-5.85-5.302-6.136-9.201
		c-0.401-5.451,0.012-10.969,0.204-16.453c0.038-1.082,1.119-2.285-0.201-3.129c-1.235-0.79-2.1,0.311-3.055,0.974
		c-8.124,5.643-13.55,13.674-18.554,21.858c-12.108,19.803-21.265,40.957-26.881,63.513c-3.11,12.492-4.321,25.139-0.745,37.855
		c1.738,6.178,3.842,6.97,9.012,2.948c9.803-7.626,17.288-17.346,24.475-27.309c7.764-10.762,15.372-21.638,23.125-32.408
		c4.093-5.687,11.396-6.991,16.916-2.696c2.642,2.056,3.424,1.446,4.489-1.229c8.346-20.979,16.799-41.914,25.153-62.889
		c1.664-4.179,4.203-6.252,9.032-6.141c6.781,0.157,13.588,0.606,20.389-0.762c3.985-0.802,7.333,0.628,9.123,5.007
		c6.343,15.524,12.84,30.986,19.403,46.418c4.396,10.334,8.832,20.66,14.63,31.59c0.833-11.831,1.457-22.489,2.364-33.124
		c1.189-13.944,0.827-27.91,1.012-41.872c0.086-6.477,2.015-8.138,8.481-8.142c9.833-0.007,19.674,0.228,29.496-0.104
		c4.553-0.153,6.538,1.666,7.829,5.78c5.614,17.895,11.46,35.716,17.67,54.953c3.771-12.059,7.155-22.74,10.448-33.451
		c2.339-7.609,4.705-15.216,6.764-22.903c1.053-3.929,3.275-5.362,7.188-5.317c10.665,0.12,21.336,0.207,31.997-0.031
		c5.059-0.113,6.934,2.383,7.058,6.87c0.21,7.63,0.267,15.237,0.868,22.882c1.416,17.978,2.377,35.984,5.049,53.845
		c0.757,5.062,1.29,10.159,1.859,15.247c0.435,3.875-1.973,6.94-6.459,7.08c-9.489,0.295-18.999,0.286-28.489,0.011
		c-3.909-0.114-5.759-2.959-5.793-6.827c-0.034-3.999-0.247-8.017,0.044-11.995c0.489-6.694-1.491-13.2-1.841-20.095
		c-3.367,9.372-6.734,18.744-10.101,28.117c-0.729,2.031-1.436,4.071-2.188,6.095c-1.255,3.377-3.694,4.81-7.3,4.882
		c-7.461,0.15-14.934-0.589-22.388,0.852c-3.505,0.678-5.882-1.428-7.139-4.875c-3.983-10.917-8.081-21.793-12.154-32.677
		c-0.212-0.564-0.608-1.06-1.944-1.485c0,5.506,0,11.012,0,16.518c0,5.167,0.036,10.334-0.011,15.5
		c-0.045,4.96-2.149,7.197-7.445,7.066c-8.458-0.211-16.975-0.454-25.372-0.443c-8.738,0.011-17.581,0.25-26.372,0.462
		c-8.379,0.202-8.485,0.073-10.841-7.723c-2.938-9.722-1.744-8.055-11.592-8.23c-1.333-0.023-2.671-0.078-3.999,0.011
		c-4.122,0.276-8.602-1.227-12.291,0.987c-3.924,2.354-2.942,7.27-4.202,11.024c-1.015,3.026-2.967,4.885-6.158,4.926
		c-7.999,0.104-16-0.021-23.998,0.069c-3.632,0.041-4.442-2.806-6.156-6.651c-4.389,20.781-17.959,34.813-29.025,50.272
		c-17.802,24.871-50.622,21.023-65.351,4.956c-8.555-9.331-13.077-20.545-14.229-33.224c-2.745-30.233,6.032-57.992,17.932-85.105
		c5.973-13.609,14.147-25.87,24.38-38.4c-6.709,1.188-12.262,1.328-17.9,0.248c-7.102-1.36-13.897-3.356-19.951-7.278
		c-3.27-2.118-4.524-1.715-5.991,2.039c-9.99,25.568-23.974,48.887-41.207,70.177c-10.272,12.69-21.65,24.326-37.128,30.916
		c-15.428,6.568-30.026,4.435-44.305-3.655c-7.222-4.091-12.505-9.402-13.446-17.918c-0.644-5.829,0.737-11.517,2.456-17.056
		c6.199-19.977,17.273-37.243,29.955-53.611c2.756-3.557,5.764-6.864,8.972-10.013c0.844-0.828,2.702-1.695,1.557-3.138
		c-1.043-1.313-2.41,0.178-3.604,0.57c-6.931,2.282-13.873,5.194-21.326,3.41c-15.244-3.648-21.292-12.918-22.29-27.28
		c-0.673-9.692,2.608-18.595,6.438-27.34c7.604-17.356,18.5-32.349,32.832-44.638c12.564-10.774,26.291-19.91,42.831-23.415
		c9.256-1.961,18.542-2.292,26.335,4.81c2.163,1.971,4.019,2.202,6.748-0.03c3.179-2.601,6.703-5.929,11.626-4.193
		c6.991,2.465,14.093,5.358,17.311,12.467c2.034,4.496,1.93,9.791-2.417,13.813c-7.918,7.326-15.952,14.483-23.023,22.738
		c-5.082,5.932-18.899,7.723-23.305,1.462c-4.141-5.885-2.757-11.944-0.856-18.073c0.42-1.354,2.125-2.716,0.871-4.071
		c-1.163-1.258-2.912-0.006-4.169,0.382c-11.085,3.422-20.798,9.152-29.779,16.613c-13.371,11.105-21.494,25.498-27.917,41.158
		c-0.582,1.419-2.084,3.187-0.705,4.535c1.242,1.214,2.755-0.398,4.056-0.97c17.032-7.487,33.992-15.141,51.086-22.479
		c9.669-4.151,19.794-5.492,30.188-3.002c2.138,0.512,3.416,0.979,4.066-2.136c4.426-21.184,18.634-32.923,38.092-40.379
		c11.997-4.597,23.629-5.802,35.983-2.658c19.945,5.075,34.76,22.044,37.753,42.464c1.589,10.842,0.47,21.125-3.163,31.271
		C239.654,392.73,238.109,396.413,234.858,398.926z M150.017,397.899c0.531-10.757-1.951-20.092-10.008-26.845
		c-10.195-8.545-21.998-9.643-34.498-5.878c-14.921,4.493-28.398,12.333-42.683,18.301c-7.44,3.108-14.673,6.669-22.33,9.321
		c-4.22,1.463-3.844-0.348-3.471-3.199c0.415-3.176,1.959-5.93,3.067-8.837c11.05-29.016,29.977-50.179,60.188-59.942
		c2.662-0.86,5.606-3.069,8.276-0.182c2.609,2.821,1.056,5.879-0.064,8.811c-0.236,0.617-0.715,1.181-0.806,1.809
		c-0.627,4.329-2.249,8.854,1.413,12.632c3.824,3.945,8.029,2.472,12.367,0.766c4.618-1.816,6.958-5.854,10.143-9.173
		c5.391-5.619,11.231-10.814,16.987-16.073c1.888-1.726,2.63-3.602,2.485-6.136c-0.444-7.763-6.93-9.783-12.202-12.743
		c-3.898-2.188-7.559-0.926-10.718,2.2c-5.427,5.371-5.715,5.596-11.485,0.642c-6.963-5.979-15.226-6.244-23.05-4.505
		c-19.629,4.36-35.22,16.238-49.213,29.958c-6.881,6.747-12.914,14.565-17.486,23.234c-7.226,13.697-14.562,27.137-12.089,43.827
		c1.935,13.056,17.199,20.392,26.37,18.01c23.773-6.176,44.927-18.64,67.508-27.658c4.564-1.822,8.882-4.272,14.117-3.919
		c2.533,0.172,3.692,0.881,4.495,3.478c2.064,6.673-0.963,12.34-3.171,18.064c-5.304,13.749-12.877,26.387-20.042,39.205
		c-10.23,18.303-22.522,34.965-39.748,47.368c-5.061,3.645-10.583,6.764-17.141,6.936c-2.536,0.066-4.234,0.076-3.49-3.885
		c1.416-7.541,3.969-14.572,7.056-21.498c6.289-14.111,16.242-25.945,24.228-39.003c3.604-5.892,5.477-12.834,10.688-17.745
		c3.102-2.923,4.62-6.046,1.661-9.982c-2.903-3.862-6.471-3.634-10.109-1.464c-8.903,5.31-15.884,12.694-22.719,20.424
		c-11.47,12.971-20.703,27.32-28.295,42.773c-4.925,10.025-8.464,20.438-7.266,31.938c0.233,2.234,0.625,4.223,2.072,5.939
		c12.661,15.012,36.736,18.911,54.165,8.797c13.25-7.689,23.668-18.639,33.154-30.334c12.916-15.924,23.596-33.396,32.138-52.048
		C145.427,420.548,151.081,409.868,150.017,397.899z M185.179,539.376c-0.772-8.041,0.561-15.699,2.527-23.218
		c5.829-22.281,14.561-43.422,26.578-63.05c5.807-9.484,11.583-19.271,21.661-25.261c2.133-1.268,4.309-3.645,6.628-1.947
		c2.461,1.802,3.001,5.015,2.153,8.107c-1.44,5.251-0.703,10.599-0.502,15.866c0.115,3.012,2.237,5.378,5.353,6.54
		c5.11,1.905,13.234-0.776,16.968-6.17c7.867-11.364,15.541-22.862,23.231-34.348c1.336-1.996,1.501-4.141,0.786-6.62
		c-2.127-7.373-8.047-9.061-14.419-9.798c-6.127-0.709-12.121-0.494-15.026,6.572c-0.666,1.618-1.471,3.781-3.873,2.359
		c-5.769-3.415-12.297-3.154-18.553-4.4c-9.103-1.812-17.036-0.164-24.196,5.477c-15.033,11.844-26.663,26.573-35.559,43.391
		c-12.274,23.206-19.958,47.836-23.093,74.019c-2.031,16.966,0.684,32.51,10.285,46.598c11.934,17.51,41.832,20.442,56.041,5.418
		c7.424-7.851,13.468-16.669,19.811-25.307c4.299-5.854,8.662-11.712,11.011-18.664c3.113-9.21,6.29-18.382,10.316-27.243
		c1.744-3.838,0.837-7.281-2.421-9.735c-2.639-1.989-7.45-0.282-9.995,2.741c-8.087,9.61-14.278,20.564-21.81,30.562
		c-8.136,10.8-15.885,21.911-26.721,30.375c-7.25,5.662-11.582,5.243-15.213-4.848C185.125,551.172,184.415,545.215,185.179,539.376
		z M433.63,498.078c-7.444-22.789-14.517-44.364-21.516-65.964c-0.716-2.209-1.359-3.822-4.244-3.777
		c-9.829,0.152-19.663,0.097-29.495,0.029c-2.185-0.015-3.416,0.428-3.369,2.996c0.086,4.628-0.628,9.266-0.766,13.84
		c-0.43,14.242-1.089,28.453-2.11,42.668c-0.793,11.023-1.377,22.051-3.017,32.994c-0.52,3.468,0.17,5.815,4.604,5.596
		c5.651-0.28,11.331-0.183,16.993-0.025c3.255,0.09,4.392-1.2,4.379-4.415c-0.063-15.783-0.326-31.573,0.955-47.33
		c0.093-1.142,0.174-2.283,0.329-4.337c0.87,1.69,1.316,2.383,1.602,3.138c6.114,16.156,12.299,32.286,18.239,48.507
		c1.344,3.669,3.69,5.087,7.122,4.321c6.095-1.359,12.229-0.931,18.343-0.846c2.9,0.04,4.3-1.255,5.145-3.65
		c3.445-9.775,6.836-19.57,10.3-29.34c2.655-7.488,5.389-14.948,8.088-22.421c0.978,14.293,3.238,28.242,2.844,42.334
		c-0.069,2.498,0.072,5.002-0.027,7.498c-0.153,3.857,1.189,5.731,5.471,5.581c7.042-0.247,14.087-0.624,21.16-0.158
		c5.117,0.337,6.492-1.16,5.218-6.197c-1.068-4.224-1.287-8.551-1.603-12.715c-1.361-17.942-3.561-35.813-4.433-53.81
		c-0.328-6.777-0.685-13.557-0.782-20.344c-0.049-3.441-1.352-5.021-5.105-4.93c-9.16,0.221-18.329,0.119-27.494,0.046
		c-3.178-0.025-5.411,0.979-6.379,4.236c-3.65,12.29-7.296,24.582-11.057,36.838C440.097,477.978,437.002,487.463,433.63,498.078z
		 M345.667,360.619c1.418,10.332,1.854,19.173,2.575,27.998c0.651,7.965,0.746,15.892,0.754,23.841
		c0.003,2.638,1.559,4.115,3.521,3.731c8.432-1.65,16.897-0.455,25.334-0.729c2.79-0.091,3.591-1.213,3.121-3.635
		c-2.673-13.763-3.225-27.779-4.741-41.669c-1.736-15.915-2.247-31.967-3.12-47.969c-0.143-2.617-0.54-3.901-3.563-3.854
		c-10.159,0.16-20.322,0.105-30.483,0.03c-2.654-0.02-3.428,1.082-4.19,3.656c-6.506,21.991-13.297,43.899-20.24,66.609
		c-0.761-1.854-1.257-2.882-1.61-3.956c-6.68-20.315-13.44-40.605-19.924-60.983c-1.276-4.011-3.319-5.926-7.429-5.279
		c-8.409,1.322-16.878,1.147-25.321,0.896c-4.245-0.126-5.503,1.397-5.379,5.49c0.242,7.987,0.354,16.004-0.039,23.98
		c-0.756,15.34-1.87,30.663-2.909,45.988c-0.227,3.342,1.349,5.48,4.24,6.489c3.253,1.135,4.146-1.507,5.26-3.786
		c1.873-3.833,4.783-6.996,9.283-5.854c4.989,1.266,5.392-1.116,5.243-4.793c-0.334-8.218,0.292-16.381,1.391-25.033
		c0.589,0.881,1.047,1.351,1.259,1.913c6.025,16.008,12.14,31.983,17.938,48.073c1.224,3.397,2.856,4.804,6.431,4.673
		c5.656-0.208,11.328-0.163,16.988-0.021c4.465,0.111,6.744-1.771,8.204-6.132C333.671,394.121,339.503,378.088,345.667,360.619z
		 M192.208,317.415c-6.846-0.694-13.836,1.32-20.593,4.016c-17.112,6.824-30.926,16.772-34.981,36.413
		c-0.89,4.31,0.261,6.41,3.468,8.633c3.48,2.412,7.341,4.238,10.022,7.889c6.61,9.003,6.944,19.011,5.197,29.338
		c-0.792,4.687,0.102,7.938,4.619,10.193c9.202,4.595,18.879,6.799,29.117,6.458c3.851-0.129,7.313-1.227,10.042-4.406
		c2.811-3.275,5.805-6.502,9.18-9.165c6.766-5.337,12.94-12.046,22.773-11.438c2.355,0.146,3.326-1.752,4.283-3.574
		c6.198-11.797,6.838-24.313,4.316-37.034C235.346,333.03,214.029,316.597,192.208,317.415z M348.554,526.388
		c3.833,0,7.668-0.064,11.499,0.026c2.049,0.049,2.646-0.687,3.088-2.792c1.583-7.547-0.679-14.073-3.814-20.825
		c-6.103-13.144-11.625-26.558-17.259-39.915c-4.093-9.705-8-19.488-11.938-29.258c-1.201-2.979-3.023-5.799-6.418-5.062
		c-6.791,1.477-13.573,0.534-20.347,0.778c-2.88,0.104-4.4,1.104-5.461,3.924c-3.479,9.243-7.26,18.374-10.994,27.519
		c-6.908,16.917-13.819,33.833-20.831,50.707c-2.136,5.141-0.542,10.416,0.737,14.969c0.688,2.449,6.682,0.554,10.262,0.915
		c1.155,0.117,2.332,0.019,3.498,0.019c11.574,0,11.609,0.009,14.466-11.354c0.78-3.1,2.239-4.396,5.742-4.828
		c6.131-0.754,12.227-0.8,18.353-0.812c11.155-0.023,11.233-0.025,13.868,11.101c0.805,3.397,2.235,5.281,6.055,4.948
		C342.202,526.175,345.387,526.393,348.554,526.388z M119.984,386.402c-1.027,0.29-2.521,0.544-3.877,1.121
		c-8.09,3.443-16.106,7.066-24.24,10.402c-3.132,1.285-3.259,2.575-1.452,5.267c3.636,5.417,3.284,9.791-1.099,14.342
		c-3.056,3.172-5.33,6.771-7.188,10.689c-3.141,6.622-6.863,12.918-11.257,18.759c-8.428,11.202-15.688,23.048-20.158,36.384
		c-1,2.983-3.803,7.673-1.794,9.003c2.708,1.793,6.655-1.141,9.785-3.065c14.496-8.919,24.852-21.87,34.116-35.68
		c9.627-14.352,17.258-29.893,25.17-45.234c2.733-5.3,4.64-10.983,5.842-16.849C124.391,388.816,124.125,386.416,119.984,386.402z"
		/>
	<path class="st1" d="M599.634,139.303c1.854-7.679,3.468-15.282,1.548-23.091c-0.597-2.43-0.932-5.568,1.992-7.181
		c2.818-1.555,5.524-0.647,7.807,1.34c9.625,8.379,16.393,18.698,20.014,30.904c6.18,20.833,2.385,40.64-6.802,59.767
		c-5.904,12.294-3.042,11.327-18.629,11.348c-10.161,0.014-20.322,0.023-30.483-0.015c-2.068-0.008-4.451,0.666-5.551-2.094
		c-1.045-2.622-0.37-4.959,1.266-7.006c4.76-5.958,9.501-11.929,13.347-18.537c1.391-2.389,2.584-4.894,3.48-7.59
		c-3.096,1.281-4.021,4.338-5.791,6.661c-1.545,2.028-3.104,4.039-6.082,3.531c-2.699-0.46-3.774-2.386-4.115-5.038
		c-1.224,8.543-4.462,16.249-7.549,24.003c-1.721,4.325-4.53,6.735-9.553,6.149c-2.958-0.345-5.989-0.034-8.987-0.081
		c-0.984-0.015-2.655,0.061-2.842-0.391c-2.098-5.063-5.563-1.728-8.596-1.686c-11.491,0.159-22.985,0.088-34.479,0.08
		c-3.165-0.003-4.643-2.269-5.9-4.673c-5.604-10.706-8.761-22.007-9.844-34.137c-1.072-12.019,0.689-23.333,5.088-34.403
		c3.057-7.691,7.794-14.197,13.696-19.954c2.101-2.049,4.419-2.322,6.858-1.379c2.39,0.925,2.406,3.191,2.563,5.458
		c0.928,13.384,2.022,26.749,6.901,39.454c1.73,4.505,3.964,8.585,8.631,12.19c-0.259-5.605-2.815-9.395-4.593-13.296
		c-4.677-10.267-7.466-21.05-7.793-32.162c-0.328-11.144,2.479-21.971,6.461-32.452c2.501-6.584,5.926-12.635,9.856-18.397
		c3.412-5.004,5.112-5.203,10.202-2.12c0.819-0.896,1.117-1.976,1.289-3.162c2.365-16.323,9.41-30.593,19.146-43.699
		c1.733-2.334,3.557-3.876,6.691-2.819c3.025,1.02,3.163,3.313,3.2,5.982c0.282,20.173,3.939,39.424,14.14,57.274
		c5.827,10.198,11.858,20.604,13.284,32.579C600.236,126.794,599.634,133.084,599.634,139.303z M557.534,128.024
		c-0.304-0.435-0.422-1.448-1.111-0.967c-0.595,0.416-0.09,1.088,0.543,1.401c0.643,4.709,3.266,8.261,6.594,11.421
		C561.627,135.869,561.005,131.211,557.534,128.024z M576.355,183.116c1.636-1.126,2.766-2.336,3.809-3.896
		c4.606-6.89,8.564-14.134,11.365-21.906c5.333-14.805,6.854-29.819,1.595-45.064c-3.957-11.468-10.515-21.688-15.456-32.68
		c-2.767-6.154-4.982-12.478-6.729-19.032c-2.751-10.327-1.181-21.018-3.344-31.393c-2.568-0.312-3.112,2.134-4.133,3.578
		c-5.355,7.581-9.677,15.796-12.733,24.524c-6.506,18.578-7.246,37.15,1.903,55.208c4.772,9.419,10.405,18.424,14.812,28.001
		C573.579,153.786,578.371,167.592,576.355,183.116z M520.164,126.824c-1.282,10.997,2.316,21.326,6.812,31.594
		c6.066,13.854,12.387,27.645,16.019,42.427c1.854,7.545,1.816,7.324,9.492,7.634c4.688,0.189,7.723-1.095,8.657-5.981
		c0.181-0.948,0.777-1.814,1.162-2.726c7.479-17.692,8.41-35.53,0.261-53.182c-5.311-11.503-11.699-22.5-15.686-34.615
		c-3.236-9.839-5.933-19.802-7.856-29.979c-0.296-1.571,1.172-3.891-1.619-4.511c-2.502-0.556-3.065,1.842-3.875,3.17
		C524.982,94.683,518.835,109.467,520.164,126.824z M572.075,208.385c14.877,0,28.315-0.01,41.754,0.009
		c2.148,0.003,3.311-1.29,4.191-2.983c7.256-13.933,11.686-28.788,11.826-44.44c0.103-11.408-2.687-22.583-8.833-32.496
		c-4.046-6.526-8.879-12.449-16.257-17.968c3.168,18.852,0.096,35.743-5.743,52.164
		C593.169,179.104,584.176,193.841,572.075,208.385z M516.622,206.391c5.163,0,10.327-0.021,15.49,0.008
		c3.612,0.02,5.223-1.872,4.905-5.316c-0.909-9.867-4.362-18.538-12.037-25.213c-4.653-4.047-8.089-8.855-10.154-14.814
		c-4.304-12.414-5.75-25.275-6.802-38.238c-0.086-1.059,0.641-2.603-0.832-3.019c-0.74-0.21-2.069,0.347-2.62,0.993
		c-4.164,4.888-8.587,9.673-11.043,15.702c-9.33,22.902-7.266,45.247,3.558,67.123c0.993,2.008,2.194,2.921,4.548,2.833
		C506.624,206.262,511.625,206.392,516.622,206.391z"/>
	<path class="st1" d="M455.474,374.49c5.788-19.432,11.245-37.87,16.805-56.277c0.79-2.617,2.188-4.936,5.551-4.818
		c11.142,0.389,22.203-1.675,33.363-1.034c5.753,0.33,6.562,1.306,6.902,7.21c1.01,17.51,2.059,35.014,3.749,52.486
		c1.227,12.676,2.331,25.345,4.114,37.963c0.959,6.793-0.735,8.342-7.562,8.366c-8.497,0.029-16.995,0.053-25.492-0.011
		c-5.265-0.039-7.051-1.608-6.794-6.883c0.536-10.999-1.292-21.887-1.069-34.192c-4.318,8.557-6.022,16.76-9.17,24.396
		c-1.518,3.682-2.98,7.422-4.009,11.258c-1.129,4.207-4.071,5.311-7.79,5.42c-7.128,0.211-14.271-0.399-21.375,0.956
		c-3.979,0.76-6.465-1.187-7.887-5.117c-4.212-11.65-8.678-23.209-13.424-34.754c0.273,11.271-2.127,22.374-1.308,33.594
		c0.341,4.681-2.07,6.312-6.231,6.33c-7.164,0.03-14.329-0.032-21.493,0.025c-3.826,0.03-5.26-1.854-5.351-5.556
		c-0.257-10.486,1.607-20.817,2.447-31.204c0.559-6.907,0.811-13.89,1.306-20.786c0.947-13.226,1.858-26.522,1.343-39.842
		c-0.257-6.632,1.931-8.6,8.575-8.62c9.497-0.028,19.001,0.192,28.489-0.095c4.475-0.135,6.662,1.676,7.971,5.75
		c5.486,17.079,11.136,34.105,16.734,51.148C454.226,371.285,454.667,372.34,455.474,374.49z M418.225,359.113
		c3.549,9.242,6.684,17.316,9.752,25.416c3.32,8.765,6.552,17.562,9.883,26.321c0.945,2.484,1.931,5.44,5.459,4.449
		c5.913-1.661,11.902-0.903,17.828-0.785c4.451,0.088,6.602-1.607,7.966-5.671c4.188-12.474,8.459-24.925,13.096-37.235
		c1.386-3.678,2.003-7.848,5.325-11.729c0.55,6.848,1.072,12.834,1.503,18.826c0.761,10.592,1.343,21.193,0.997,31.819
		c-0.09,2.748,1.083,3.916,3.85,3.891c7.994-0.072,15.993-0.135,23.985,0.023c3.855,0.076,4.599-1.918,4.051-5.057
		c-3.145-18.032-3.969-36.316-5.776-54.488c-1.178-11.835-1.487-23.758-2.058-35.647c-0.104-2.174-0.881-2.895-2.98-2.875
		c-7.995,0.073-16.021-0.396-23.98,0.146c-10.703,0.729-10.814,1.339-13.021,8.895c-5.986,20.495-12.157,40.937-18.428,61.978
		c-1.383-3.741-2.656-6.888-3.716-10.105c-6.07-18.438-12.134-36.88-18.085-55.357c-1.044-3.239-2.509-4.779-6.276-4.639
		c-8.817,0.328-17.658,0.267-26.48,0.031c-3.98-0.106-5.322,1.305-5.12,5.209c0.679,13.122-0.19,26.241-1.149,39.3
		c-0.462,6.277-0.435,12.564-0.992,18.823c-0.92,10.338-1.848,20.675-2.825,31.007c-0.259,2.732,0.625,3.893,3.574,3.79
		c5.657-0.196,11.328-0.165,16.988-0.015c3.148,0.084,4.54-0.972,4.491-4.295C415.837,394.226,417.347,377.377,418.225,359.113z"/>
	<path class="st1" d="M533.968,255.393c-5.75,0-11.514,0.261-17.246-0.05c-16.411-0.888-30.667-6.88-42.046-18.918
		c-3.831-4.053-5.226-9.27-4.56-14.803c0.484-4.025,3.278-5.281,7.126-5.265c18.161,0.079,36.327,0.289,54.482-0.021
		c32.114-0.549,64.223-1.248,96.345-0.992c2.786,0.022,5.571-0.815,8.368-0.909c5.509-0.186,9.831,2.461,7.809,9.592
		c-4.601,16.227-15.092,25.706-31.172,29.273c-8.299,1.841-8.354,1.563-9.021,9.695c-0.99,12.035-1.982,24.069-3.04,36.099
		c-0.551,6.27-3.212,7.908-9.346,6.077c-7.969-2.378-16.039-3.786-24.443-3.877c-13.811-0.148-27.573,0.774-41.36,1.065
		c-6.773,0.143-8.393-1.849-8.892-8.401c-0.589-7.734-1.767-15.423-2.605-23.141c-0.25-2.307-0.211-4.643-0.322-6.965
		c-0.149-3.119,1.059-5.059,4.37-5.53c5.192-0.74,10.365-1.629,15.546-2.454C533.963,255.71,533.965,255.552,533.968,255.393z
		 M516.044,220.393c-11.332,0-22.663,0-33.994,0c-8.631,0-10.062,2.353-6.262,10.315c0.353,0.738,0.741,1.481,1.235,2.129
		c8.551,11.188,21.03,16.82,33.933,18.056c15.732,1.506,31.865,1.701,47.771-0.448c1.318-0.178,2.539,0.188,3.835,0.699
		c2.019,0.796,3.217,2.488,3.104,4.102c-0.143,2.06-2.414,0.82-3.725,1.134c-0.797,0.19-1.637,0.199-2.454,0.309
		c-11.731,1.566-23.44,3.331-35.201,4.624c-6.051,0.665-7.04,1.621-6.197,7.774c1.114,8.146,2.098,16.315,2.902,24.498
		c0.322,3.276,1.751,4.578,4.985,4.878c4.221,0.391,8.17-1.29,12.341-1.088c18.122,0.878,36.532-2.477,54.3,3.873
		c1.728,0.618,4.603,1.031,4.436-2.664c-0.21-4.645,0.377-9.226,0.921-13.841c1.233-10.472,2.099-20.987,3.084-31.488
		c0.167-1.778,1.039-2.887,2.819-2.801c2.531,0.123,4.89-0.701,7.332-1.008c14.042-1.765,25.447-12.314,29.106-26.105
		c1.124-4.235-0.802-4.785-3.626-4.852c-2.768-0.066-5.549,0.832-8.329,0.863c-27.607,0.313-55.223-0.529-82.826,0.956
		C535.731,220.836,525.875,220.393,516.044,220.393z"/>
	<path class="st1" d="M790.167,491.969c-0.473,18.297-4.54,35.434-16.022,50.248c-7.469,9.634-17.502,15.695-28.563,20.084
		c-8.308,3.297-16.854,6.476-25.847,6.84c-11.15,0.452-22.062-1.864-32.637-5.354c-3.246-1.072-3.624-4.153-2.621-7.131
		c2.597-7.708,5.186-15.425,8.052-23.034c1.472-3.908,4.338-4.93,8.452-3.326c8.174,3.186,16.383,5.712,25.528,4.229
		c9.344-1.515,14.847-9.676,17.169-17.433c0.25-0.836,0.469-1.754-0.398-2.185c-0.453-0.225-1.296,0.063-1.847,0.347
		c-18.321,9.428-35.392,5.33-51.404-5.422c-10.653-7.154-14.994-18.356-15.902-30.682c-1.892-25.655,13.882-42.776,38.198-51.768
		c14.542-5.377,28.675-6.734,43.458-0.355c13.938,6.015,22.913,16.161,28.195,29.874
		C788.302,468.125,790.195,479.886,790.167,491.969z M750.344,506.051c-1.157,4.932-1.728,9.902-3.491,14.406
		c-5.653,14.436-12.33,17.737-25.601,18.747c-6.152,0.469-12.383-1.347-18.218-3.806c-5.179-2.183-6.204-1.65-8.046,3.773
		c-1.64,4.829-3.41,9.613-5.049,14.442c-2.269,6.686-2.27,6.823,4.571,8.462c8.673,2.079,17.557,3.598,26.414,3.037
		c8.359-0.528,16.353-3.56,24.096-6.82c14.305-6.024,26.14-15.028,32.78-29.448c10.428-22.644,10.475-46.01,2.704-69.264
		c-7.509-22.473-26.5-34.239-48.242-32.81c-16.431,1.08-31.312,7.973-43.469,20.172c-12.145,12.187-13.375,33.455-6.66,47.562
		c9.889,20.771,44.461,28.891,61.713,14.734C745.507,507.877,747.226,506.056,750.344,506.051z"/>
	<path class="st1" d="M756.008,340.842c0.555,21.23-3.254,40.636-8.82,59.842c-3.089,10.656-14.132,12.933-21.201,7.709
		c-3.743-2.766-6.003-8.246-4.464-12.799c6.94-20.536,9.715-41.627,8.487-63.221c-1.061-18.677-5.253-36.688-12.466-53.961
		c-9.634-23.072-24.402-42.513-42.542-59.493c-4.227-3.956-8.681-7.732-13.382-11.102c-5.478-3.925-5.585-11.386-3.074-16.123
		c2.88-5.435,10.37-7.83,16.044-5.514c4.713,1.924,8.387,5.386,12.177,8.55c20.243,16.902,36.609,37.063,48.585,60.53
		c9.472,18.56,15.766,38.261,18.8,58.984C755.502,323.471,756.368,332.669,756.008,340.842z M752.002,340.224
		c0.983-8.637-0.539-18.709-2.209-28.592c-3.554-21.027-10.464-40.981-20.845-59.773c-10.528-19.059-24.207-35.485-40.181-50.043
		c-4.217-3.843-8.315-8.031-13.493-10.768c-5.392-2.849-9.935-2.112-12.559,2.092c-3.162,5.067-2.113,9.501,3.197,13.201
		c11.784,8.21,21.75,18.387,30.732,29.444c9.783,12.045,17.777,25.262,23.948,39.586c7.426,17.238,12.142,35.206,13.296,53.841
		c1.344,21.705-0.409,43.225-7.598,64.052c-0.84,2.433-2.155,5.199-0.76,8.179c1.737,3.708,4.687,5.838,8.489,5.794
		c4.492-0.052,7.611-2.673,9.006-7.153C748.945,381.085,752.522,361.732,752.002,340.224z"/>
	<path class="st1" d="M570.318,417.393c-10.832,0-21.664,0.004-32.496-0.001c-7.275-0.004-8.248-0.522-7.681-7.567
		c1.394-17.286,0.676-34.582,0.907-51.873c0.164-12.29-0.456-24.533-1.948-36.74c-0.822-6.73,1.444-9.655,8.505-9.727
		c21.829-0.219,43.661-0.092,65.492-0.083c4.168,0.002,6.244,2.269,5.896,6.301c-0.539,6.256-1.181,12.521-2.202,18.711
		c-0.6,3.64-3.476,4.903-7.053,5.008c-8.486,0.249-16.934-0.278-25.367-1.056c-4.255-0.393-5.637,1.47-5.396,5.531
		c0.149,2.521,0.91,3.581,3.527,3.529c5.997-0.119,11.999-0.104,17.997-0.011c5.175,0.079,6.856,2.213,5.949,7.244
		c-1.003,5.561,0.02,11.234-1.26,16.849c-0.786,3.445-2.161,4.943-5.574,4.899c-4.998-0.063-10.006,0.151-14.995-0.07
		c-3.692-0.164-5.815,0.266-5.742,4.95c0.067,4.318,1.564,5.08,5.518,5.23c9.509,0.36,18.895-1.438,28.373-1.13
		c1.989,0.064,3.928,0.296,5.906,0.636c3.393,0.583,4.599,2.481,4.335,5.514c-0.587,6.753-1.234,13.505-2.087,20.229
		c-0.396,3.113-2.845,3.661-5.608,3.648C593.649,417.361,581.984,417.392,570.318,417.393z M569.767,413.393
		c12.575,0,22.906-0.194,33.223,0.11c3.388,0.1,4.526-1.604,4.88-4.11c0.621-4.403,0.772-8.871,1.187-13.307
		c0.313-3.366-0.937-4.942-4.519-4.724c-11.374,0.692-22.754,1.346-34.141,1.766c-2.169,0.079-5.291,0.347-5.331-3.395
		c-0.05-4.662-0.022-9.326,0.002-13.988c0.008-1.561,0.247-2.214,2.345-1.766c6.82,1.458,13.898-0.715,20.768,1.236
		c1.747,0.496,2.815-0.867,2.816-2.63c0.004-5.465,1.305-10.811,1.181-16.322c-0.082-3.653-1.707-4.528-4.515-3.766
		c-6.414,1.74-12.904,0.428-19.335,0.908c-3.297,0.246-4.359-1.262-4.323-4.435c0.146-13.144-1.348-12.729,12.199-12.598
		c5.301,0.051,10.493,0.805,15.66,1.878c3.38,0.702,6.662-0.153,9.701-1.316c2.566-0.982,0.767-4.018,1.698-5.808
		c1.712-3.293,0.108-6.882,1.41-10.266c1.413-3.673,0.301-5.487-4.354-5.603c-15.632-0.386-31.184,1.624-46.803,1.156
		c-4.992-0.149-9.991-0.029-14.987-0.021c-5.694,0.009-6.272,0.624-5.438,6.295c1.325,9.005,1.982,18.051,1.958,27.151
		c-0.02,7.494,0.176,14.993-0.044,22.48c-0.376,12.764,1.122,25.569-0.913,38.3c-0.418,2.607,1.342,3.746,3.597,3.436
		C549.114,412.479,560.584,414.015,569.767,413.393z"/>
	<path class="st1" d="M654.026,389.202c0.29,6.285-0.303,11.347,0.794,16.505c1.728,8.124-0.633,10.872-8.814,10.63
		c-7.664-0.228-15.241,0.803-22.862,0.997c-6.535,0.167-9.201-3.242-7.681-9.54c0.481-1.994,0.573-3.935,0.574-5.92
		c0.015-19.656,0.378-39.323-0.179-58.965c-0.214-7.55-0.178-15.224-1.648-22.747c-1.045-5.349,1.803-8.919,7.128-8.726
		c14.473,0.526,28.771-2.78,43.219-1.981c12.738,0.703,24.211,4.778,32.139,15.431c10.646,14.305,7.909,35.212-6.391,46.423
		c-4.204,3.295-2.646,4.897,0.173,6.92c6.008,4.311,10.658,10.013,15.928,15.074c3.678,3.532,5.161,15.24,2.802,19.737
		c-1.479,2.817-4.22,3.217-6.801,3.275c-8.158,0.184-16.324,0.025-24.485,0.098c-2.969,0.026-4.377-1.923-5.867-3.982
		c-4.855-6.712-9.742-13.4-14.671-20.059C656.722,391.48,655.754,390.815,654.026,389.202z M690.395,412.387
		c3.33,0,6.66-0.051,9.988,0.022c1.593,0.035,3.091-0.367,4.084-1.464c2.776-3.065,1.948-13.419-1.607-16.113
		c-6.538-4.953-11.775-11.208-17.65-16.817c-4.489-4.285-4.369-4.316,0.503-7.989c1.581-1.192,2.898-2.736,4.327-4.13
		c9.451-9.218,11.363-20.425,6.793-32.207c-4.3-11.088-13.452-16.962-25.093-19.367c-11.273-2.328-22.463-0.291-33.627,0.335
		c-5.435,0.304-10.886,0.564-16.332,0.704c-2.783,0.071-4.001,1.186-3.629,3.981c1.2,9.004,1.86,18.051,1.882,27.134
		c0.04,16.98,0.054,33.961-0.021,50.941c-0.017,3.779,0.398,7.554-0.799,11.349c-0.896,2.836,0.378,4.53,3.855,4.704
		c8.321,0.414,16.503-1.561,24.812-1.123c3.166,0.167,3.695-2.335,3.068-4.458c-2.054-6.961,0.178-14.194-1.761-21.186
		c-0.986-3.557,1.09-4.886,4.476-3.424c1.499,0.648,2.747,1.431,3.844,2.854c5.119,6.648,10.611,13.015,15.025,20.185
		c2.619,4.253,6.083,6.743,11.373,6.116C686.042,412.182,688.231,412.393,690.395,412.387z"/>
	<path class="st1" d="M670.045,485.884c0,9.827-0.203,19.659,0.052,29.479c0.314,12.086,0.548,24.184,1.902,36.221
		c0.639,5.687-1.363,7.678-7.171,7.834c-8.953,0.24-17.897-0.462-26.872,0.836c-7.212,1.042-9.703-2.281-8.234-9.406
		c0.167-0.809,0.325-1.645,0.303-2.462c-0.42-15.132,2.146-30.235,0.884-45.331c-0.792-9.47-0.78-18.905-0.843-28.364
		c-0.018-2.636-0.906-3.646-3.637-2.978c-3.207,0.785-6.618,0.924-9.691,2.034c-4.081,1.474-6.085-0.364-7.284-3.716
		c-1.62-4.528-2.818-9.208-4.457-13.729c-1.648-4.548-0.048-7.238,4.197-8.999c11.955-4.957,23.873-10.006,35.802-15.027
		c1.071-0.451,2.237-0.802,3.156-1.475c7.216-5.286,13.702-2.562,20.082,1.709c2.957,1.979,3.224,5.056,2.743,8.024
		c-1.904,11.758-0.484,23.577-0.913,35.357C669.943,479.218,670.045,482.553,670.045,485.884z M666.045,455.902
		c0-2.664-0.067-5.33,0.019-7.99c0.09-2.788,0.249-5.555,0.595-8.353c0.708-5.717-9.024-8.82-14.622-6.234
		c-10.459,4.831-21.099,9.269-31.614,13.98c-3.713,1.665-8.988,1.451-10.909,5.067c-2.09,3.934,1.419,8.145,2.453,12.244
		c0.201,0.797,0.107,1.705,0.443,2.425c0.896,1.922,1.43,3.762,4.671,2.595c4.12-1.485,8.679-1.704,12.959-2.812
		c2.728-0.707,4.084-0.494,4.04,2.748c-0.077,5.62,0.566,11.235,0.784,16.823c0.854,21.915-0.092,43.843-1.007,65.747
		c-0.147,3.526,0.711,4.493,3.868,4.254c8.755-0.664,17.52-1.523,26.301-0.939c4.041,0.27,4.725-1.849,3.868-4.799
		c-1.879-6.47-1.217-13.188-1.552-19.685c-0.913-17.72-0.231-35.506-1.148-53.268C664.821,470.49,666.61,463.214,666.045,455.902z"
		/>
	<path class="st1" d="M528.43,528.392c-4.661-0.001-9.324-0.057-13.984,0.017c-3.776,0.059-5.554-1.708-5.398-5.46
		c0.391-9.445,0.484-18.92,0.683-28.348c0.382-18.039-0.205-36.144-1.598-54.183c-0.319-4.139-0.108-8.321-0.059-12.482
		c0.032-2.758,1.495-4.339,4.274-4.516c10.901-0.692,21.838-1.027,32.694-2.139c7.656-0.783,15.13-0.714,22.59,1.062
		c17.131,4.08,28.115,18.454,28.498,36.146c0.37,17.124-7.922,28.577-22.267,36.471c-6.718,3.697-13.747,6.656-21.417,7.771
		c-3.264,0.475-4.907,1.893-4.48,5.58c0.454,3.929,0.091,7.886,0.909,11.872c1.105,5.391-1.52,8.143-6.959,8.198
		C537.421,528.429,532.926,528.393,528.43,528.392z M528.879,524.387c4.163,0,8.328-0.048,12.49,0.018
		c2.477,0.039,4.28-1.107,3.564-3.501c-1.751-5.851,0.11-11.931-1.523-17.723c-0.765-2.714,0.505-3.672,2.984-3.781
		c13.42-0.593,24.788-6.166,34.864-14.646c10.182-8.568,12.385-20.28,10.428-32.383c-1.973-12.198-9.755-20.774-21.57-24.988
		c-7.5-2.675-15.317-2.717-23.256-2.082c-10.532,0.841-21.118,0.896-31.65,1.988c-2.791,0.29-3.12,1.372-3.227,3.701
		c-0.183,4.015,1.081,7.92,0.968,11.828c-0.55,18.957,1.728,37.857,1.016,56.796c-0.268,7.105-1.123,14.185-0.978,21.325
		c0.052,2.523,0.714,3.61,3.4,3.496C520.546,524.259,524.715,524.389,528.879,524.387z"/>
	<path class="st1" d="M367.883,291.474c1.926-9.108,5.062-17.818,8.795-26.337c11.047-25.203,27.082-46.79,47.407-65.238
		c3.675-3.336,7.545-6.472,11.473-9.509c6.488-5.016,14.984-4.233,19.569,1.638c4.619,5.914,2.837,13.351-3.877,18.888
		c-26.172,21.586-46.264,47.482-56.336,80.394c-1.667,5.446-3.595,10.734-9.984,12.663
		C377.954,306.077,366.652,300.308,367.883,291.474z M444.436,191.411c-3.201-0.846-5.702,1.216-8.095,3.234
		c-11.118,9.382-21.753,19.194-30.854,30.679c-14.91,18.813-25.841,39.653-33.001,62.469c-1.191,3.799-1.626,8.254,3.159,10.878
		c6.646,3.645,11.988,1.512,14.453-6.245c9.027-28.406,24.089-53.03,45.887-73.422c4.817-4.507,9.965-8.66,14.938-13
		c3.527-3.079,2.431-7.025,1.49-10.605C451.439,191.69,448.118,191.243,444.436,191.411z"/>
	<path class="st1" d="M260.045,288.711c0-5.725-0.039-11.45,0.011-17.174c0.048-5.428,2.226-7.138,8.913-7.145
		c6.513-0.007,8.369,1.321,7.972,7.164c-0.449,6.615,1.804,12.954,0.5,19.771c-2.403,12.555-11.979,16.548-22.381,14.853
		c-9.355-1.524-13.897-7.421-14.059-16.948c-0.092-5.453-0.876-10.899-0.891-16.35c-0.018-6.929,2.123-8.604,9.772-8.489
		c6.171,0.093,8.122,2.124,8.157,8.581c0.028,5.245,0.006,10.49,0.006,15.735C258.712,288.71,259.379,288.711,260.045,288.711z
		 M273.045,282.937c0-2.829-0.059-5.659,0.015-8.486c0.087-3.315,0.36-6.246-4.646-6.182c-4.723,0.062-4.423,2.82-4.384,5.939
		c0.056,4.492-0.199,8.999,0.08,13.475c0.234,3.763-1.801,6.219-4.844,6.306c-3.374,0.098-5.468-2.371-5.28-6.348
		c0.242-5.147-0.02-10.316,0.077-15.473c0.086-4.649-3.258-3.508-5.93-3.808c-3.256-0.366-3.709,1.896-3.45,3.991
		c0.761,6.141,0.207,12.278,0.314,18.412c0.047,2.654,0.842,4.786,2.611,6.723c4.981,5.455,13.704,6.51,20.248,2.711
		c3.714-2.155,5.515-4.974,5.222-9.275C272.898,288.271,273.045,285.599,273.045,282.937z"/>
	<path class="st1" d="M301.045,284.754c0-3.665-0.001-7.331,0-10.996c0.003-8.377,6.036-12.371,13.495-8.414
		c3.055,1.621,5.007,1.908,7.995-0.001c3.015-1.927,6.79-1.246,10.204-0.489c2.082,0.462,3.467,1.86,3.325,4.326
		c-0.097,1.661,0.254,3.493-0.883,4.821c-6.339,7.403-4.934,14.168,0.318,21.777c4.327,6.27,1.966,9.729-5.517,9.548
		c-3.509-0.084-6.962,0.587-10.624-1.45c-1.571-0.874-5.684,1.409-8.787,1.92c-6.652,1.095-9.442-0.895-9.516-7.546
		C301.005,293.752,301.045,289.253,301.045,284.754z M305.048,285.491c0,4.331,0.097,8.665-0.032,12.992
		c-0.094,3.159,1.481,3.964,4.319,3.959c2.889-0.004,4.976-0.455,4.733-4.036c-0.135-1.99-0.009-3.996-0.01-5.995
		c0-1.26,0.364-2.43,1.676-2.71c1.445-0.308,1.92,0.913,2.417,2.004c0.616,1.354,1.505,2.607,1.959,4.008
		c1.639,5.043,5.265,6.141,10.094,5.752c3.17-0.256,3.323-1.43,1.949-3.736c-1.854-3.112-3.704-6.227-5.553-9.341
		c-1.409-2.375-2.358-4.526-0.101-7.21c1.88-2.234,3.068-5.062,4.493-7.665c2.099-3.836,1.383-4.815-2.816-5.179
		c-5.82-0.503-6.895,4.112-9.033,7.709c-1.015,1.707-1.134,4.9-4.054,4.021c-2.117-0.638-0.702-3.211-1.02-4.889
		c-0.152-0.805-0.094-1.667-0.016-2.493c0.312-3.29-1.234-4.391-4.418-4.354c-2.994,0.034-4.772,0.694-4.631,4.171
		C305.181,276.823,305.048,281.16,305.048,285.491z"/>
	<path class="st1" d="M185.047,284.715c0-4.66,0.14-9.325-0.042-13.979c-0.158-4.037,2.028-6.002,5.569-6.187
		c6.113-0.318,12.267-0.686,18.277,1.242c6.292,2.019,10.097,8.253,8.597,14.732c-0.478,2.064-0.25,3.835,0.515,5.784
		c3.967,10.105-2.123,19.017-13.017,19.059c-4.155,0.017-8.142,1.409-12.357,1.081c-5.326-0.415-7.44-2.325-7.528-7.753
		C184.986,294.037,185.046,289.375,185.047,284.715z M200.008,268.399c-3.32,0-5.313,0.045-7.305-0.012
		c-2.464-0.069-3.677,0.976-3.665,3.533c0.042,8.966,0.043,17.932-0.002,26.897c-0.013,2.531,1.152,3.393,3.612,3.63
		c4.523,0.438,8.835-0.983,13.287-1.089c5.461-0.13,9.617-4.201,8.976-9.586c-0.601-5.052-4.182-9.823-0.995-15.169
		c0.193-0.324-0.506-1.146-0.73-1.759C210.573,267.69,204.404,268.544,200.008,268.399z"/>
	<path class="st1" d="M588.905,519.393c-10.568,0-15.589-2.938-17.354-9.023c-2.148-7.405,2.302-14.787,9.901-15.932
		c7.666-1.153,15.364-2.232,23.089-2.807c5.957-0.442,11.998,5.415,12.494,11.313c0.593,7.033-3.645,13.188-10.363,14.293
		C600.159,518.308,593.557,518.846,588.905,519.393z M586.865,515.657c6.371-0.782,12.778-1.354,19.103-2.416
		c4.581-0.77,7.582-5.37,7.063-9.896c-0.483-4.215-4.502-8.049-8.915-7.674c-6.69,0.566-13.322,1.8-20.001,2.554
		c-3.413,0.386-6.436,0.862-8.09,4.53C573.015,509.431,577.88,516.66,586.865,515.657z"/>
	<path class="st0" d="M150.017,397.899c1.064,11.969-4.589,22.648-9.506,33.384c-8.542,18.651-19.222,36.124-32.138,52.048
		c-9.486,11.695-19.905,22.645-33.154,30.334c-17.428,10.114-41.504,6.215-54.165-8.797c-1.448-1.717-1.839-3.705-2.072-5.939
		c-1.198-11.5,2.341-21.913,7.266-31.938c7.592-15.453,16.825-29.803,28.295-42.773c6.834-7.729,13.815-15.114,22.719-20.424
		c3.638-2.17,7.206-2.398,10.109,1.464c2.959,3.937,1.441,7.06-1.661,9.982c-5.211,4.911-7.084,11.854-10.688,17.745
		c-7.986,13.058-17.939,24.892-24.228,39.003c-3.087,6.926-5.64,13.957-7.056,21.498c-0.744,3.961,0.955,3.951,3.49,3.885
		c6.558-0.172,12.081-3.291,17.141-6.936c17.226-12.403,29.518-29.065,39.748-47.368c7.165-12.818,14.738-25.456,20.042-39.205
		c2.208-5.725,5.235-11.392,3.171-18.064c-0.803-2.597-1.962-3.306-4.495-3.478c-5.235-0.354-9.553,2.097-14.117,3.919
		c-22.581,9.019-43.735,21.482-67.508,27.658c-9.171,2.382-24.436-4.954-26.37-18.01c-2.473-16.69,4.864-30.13,12.089-43.827
		c4.573-8.669,10.605-16.487,17.486-23.234c13.993-13.72,29.583-25.598,49.213-29.958c7.824-1.739,16.087-1.475,23.05,4.505
		c5.77,4.954,6.058,4.729,11.485-0.642c3.159-3.126,6.82-4.389,10.718-2.2c5.271,2.96,11.758,4.98,12.202,12.743
		c0.145,2.534-0.597,4.41-2.485,6.136c-5.756,5.259-11.597,10.454-16.987,16.073c-3.184,3.319-5.525,7.356-10.143,9.173
		c-4.338,1.706-8.542,3.18-12.367-0.766c-3.661-3.777-2.04-8.303-1.413-12.632c0.091-0.628,0.57-1.191,0.806-1.809
		c1.121-2.932,2.673-5.989,0.064-8.811c-2.67-2.888-5.614-0.679-8.276,0.182c-30.211,9.764-49.138,30.927-60.188,59.942
		c-1.107,2.907-2.652,5.661-3.067,8.837c-0.373,2.852-0.75,4.662,3.471,3.199c7.656-2.652,14.889-6.213,22.33-9.321
		c14.285-5.968,27.762-13.808,42.683-18.301c12.5-3.765,24.303-2.667,34.498,5.878C148.066,377.808,150.548,387.143,150.017,397.899
		z"/>
	<path class="st0" d="M185.179,539.376c-0.764,5.839-0.054,11.796,1.969,17.417c3.632,10.091,7.964,10.51,15.213,4.848
		c10.836-8.464,18.585-19.575,26.721-30.375c7.532-9.998,13.722-20.952,21.81-30.562c2.544-3.023,7.355-4.73,9.995-2.741
		c3.258,2.454,4.165,5.897,2.421,9.735c-4.026,8.861-7.203,18.033-10.316,27.243c-2.35,6.952-6.712,12.811-11.011,18.664
		c-6.343,8.638-12.387,17.456-19.811,25.307c-14.209,15.024-44.107,12.092-56.041-5.418c-9.602-14.088-12.316-29.632-10.285-46.598
		c3.135-26.183,10.818-50.812,23.093-74.019c8.896-16.817,20.525-31.547,35.559-43.391c7.16-5.641,15.093-7.288,24.196-5.477
		c6.255,1.246,12.784,0.985,18.553,4.4c2.402,1.422,3.208-0.741,3.873-2.359c2.905-7.066,8.899-7.281,15.026-6.572
		c6.372,0.737,12.292,2.425,14.419,9.798c0.715,2.479,0.55,4.624-0.786,6.62c-7.69,11.485-15.364,22.983-23.231,34.348
		c-3.734,5.394-11.857,8.075-16.968,6.17c-3.115-1.162-5.238-3.528-5.353-6.54c-0.2-5.268-0.938-10.615,0.502-15.866
		c0.848-3.093,0.308-6.306-2.153-8.107c-2.319-1.697-4.495,0.68-6.628,1.947c-10.078,5.989-15.854,15.776-21.661,25.261
		c-12.018,19.628-20.749,40.769-26.578,63.05C185.739,523.677,184.407,531.335,185.179,539.376z"/>
	<path class="st0" d="M433.63,498.078c3.372-10.615,6.467-20.101,9.394-29.637c3.761-12.256,7.406-24.548,11.057-36.838
		c0.968-3.258,3.201-4.262,6.379-4.236c9.165,0.073,18.334,0.175,27.494-0.046c3.754-0.091,5.057,1.488,5.105,4.93
		c0.098,6.787,0.454,13.566,0.782,20.344c0.872,17.996,3.071,35.867,4.433,53.81c0.315,4.164,0.534,8.491,1.603,12.715
		c1.274,5.037-0.101,6.534-5.218,6.197c-7.073-0.466-14.118-0.089-21.16,0.158c-4.281,0.15-5.624-1.724-5.471-5.581
		c0.1-2.496-0.042-5,0.027-7.498c0.395-14.092-1.866-28.041-2.844-42.334c-2.699,7.473-5.433,14.933-8.088,22.421
		c-3.464,9.77-6.854,19.564-10.3,29.34c-0.845,2.396-2.244,3.69-5.145,3.65c-6.114-0.085-12.248-0.514-18.343,0.846
		c-3.432,0.766-5.778-0.652-7.122-4.321c-5.94-16.221-12.125-32.351-18.239-48.507c-0.285-0.755-0.731-1.447-1.602-3.138
		c-0.155,2.054-0.236,3.195-0.329,4.337c-1.281,15.757-1.019,31.547-0.955,47.33c0.013,3.215-1.124,4.505-4.379,4.415
		c-5.662-0.157-11.342-0.255-16.993,0.025c-4.434,0.22-5.123-2.128-4.604-5.596c1.64-10.943,2.224-21.971,3.017-32.994
		c1.021-14.215,1.681-28.426,2.11-42.668c0.138-4.574,0.852-9.212,0.766-13.84c-0.047-2.568,1.185-3.011,3.369-2.996
		c9.832,0.067,19.666,0.123,29.495-0.029c2.885-0.045,3.528,1.568,4.244,3.777C419.114,453.714,426.186,475.289,433.63,498.078z"/>
	<path class="st0" d="M345.667,360.619c-6.163,17.469-11.996,33.502-17.408,49.676c-1.459,4.361-3.739,6.243-8.204,6.132
		c-5.66-0.142-11.333-0.187-16.988,0.021c-3.575,0.131-5.208-1.275-6.431-4.673c-5.797-16.09-11.913-32.065-17.938-48.073
		c-0.212-0.562-0.67-1.032-1.259-1.913c-1.099,8.652-1.725,16.815-1.391,25.033c0.149,3.677-0.254,6.059-5.243,4.793
		c-4.5-1.142-7.41,2.021-9.283,5.854c-1.114,2.279-2.007,4.921-5.26,3.786c-2.892-1.009-4.467-3.147-4.24-6.489
		c1.039-15.325,2.153-30.648,2.909-45.988c0.393-7.977,0.281-15.993,0.039-23.98c-0.124-4.093,1.134-5.616,5.379-5.49
		c8.443,0.251,16.913,0.426,25.321-0.896c4.11-0.646,6.153,1.269,7.429,5.279c6.484,20.378,13.245,40.668,19.924,60.983
		c0.353,1.074,0.85,2.102,1.61,3.956c6.943-22.71,13.734-44.618,20.24-66.609c0.762-2.574,1.536-3.676,4.19-3.656
		c10.161,0.075,20.324,0.13,30.483-0.03c3.023-0.048,3.421,1.236,3.563,3.854c0.873,16.002,1.384,32.054,3.12,47.969
		c1.517,13.89,2.068,27.906,4.741,41.669c0.47,2.422-0.331,3.544-3.121,3.635c-8.437,0.274-16.902-0.921-25.334,0.729
		c-1.963,0.384-3.519-1.094-3.521-3.731c-0.008-7.949-0.103-15.876-0.754-23.841C347.52,379.792,347.084,370.951,345.667,360.619z"
		/>
	<path class="st0" d="M192.208,317.415c21.821-0.818,43.138,15.615,47.443,37.322c2.522,12.721,1.882,25.237-4.316,37.034
		c-0.958,1.822-1.928,3.72-4.283,3.574c-9.833-0.608-16.007,6.101-22.773,11.438c-3.375,2.663-6.369,5.89-9.18,9.165
		c-2.729,3.18-6.191,4.277-10.042,4.406c-10.237,0.341-19.915-1.863-29.117-6.458c-4.518-2.255-5.412-5.507-4.619-10.193
		c1.747-10.327,1.413-20.335-5.197-29.338c-2.681-3.65-6.542-5.477-10.022-7.889c-3.207-2.223-4.357-4.323-3.468-8.633
		c4.055-19.641,17.869-29.589,34.981-36.413C178.372,318.735,185.361,316.721,192.208,317.415z M208.921,371.178
		c0.901-8.03-0.925-15.578-4.823-22.776c-3.38-6.242-8.237-10.75-15.368-10.818c-10.378-0.101-16.74,4.77-19.718,13.427
		c-2.601,7.563-2.59,15.434-1.715,23.104c0.922,8.083,3.948,15.595,10.301,21.378c7.984,7.27,22,5.195,27.477-4.085
		C208.785,385.121,209.55,378.367,208.921,371.178z"/>
	<path class="st0" d="M348.554,526.39c-3.167,0.003-6.353-0.215-9.495,0.059c-3.82,0.333-5.25-1.551-6.055-4.948
		c-2.635-11.126-2.713-11.124-13.868-11.101c-6.125,0.012-12.221,0.058-18.353,0.812c-3.503,0.432-4.962,1.729-5.742,4.828
		c-2.857,11.362-2.892,11.354-14.466,11.354c-1.167,0-2.343,0.099-3.498-0.019c-3.58-0.361-9.573,1.534-10.262-0.915
		c-1.279-4.553-2.873-9.828-0.737-14.969c7.012-16.874,13.923-33.79,20.831-50.707c3.734-9.145,7.515-18.275,10.994-27.519
		c1.062-2.82,2.582-3.82,5.461-3.924c6.774-0.244,13.556,0.698,20.347-0.778c3.395-0.737,5.217,2.082,6.418,5.062
		c3.937,9.77,7.845,19.553,11.938,29.258c5.634,13.357,11.156,26.771,17.259,39.915c3.136,6.752,5.397,13.278,3.814,20.825
		c-0.441,2.105-1.039,2.841-3.088,2.792C356.222,526.323,352.387,526.388,348.554,526.39z M312.593,491.391
		c2.664,0,5.333-0.105,7.989,0.029c2.86,0.145,4.113-0.767,3.107-3.758c-3.566-10.597-7.113-21.2-10.634-31.812
		c-0.318-0.959-0.529-2.07-1.757-1.867c-0.836,0.139-1.024,1.107-1.253,1.957c-2.857,10.613-5.749,21.218-8.687,31.809
		c-0.702,2.532-0.122,3.796,2.745,3.668C306.929,491.291,309.763,491.39,312.593,491.391z"/>
	<path class="st0" d="M576.355,183.116c2.016-15.524-2.776-29.33-8.91-42.659c-4.407-9.577-10.04-18.582-14.812-28.001
		c-9.149-18.058-8.409-36.63-1.903-55.208c3.057-8.729,7.378-16.943,12.733-24.524c1.021-1.444,1.564-3.891,4.133-3.578
		c2.163,10.375,0.593,21.065,3.344,31.393c1.746,6.555,3.962,12.878,6.729,19.032c4.941,10.991,11.499,21.212,15.456,32.68
		c5.26,15.245,3.738,30.26-1.595,45.064c-2.801,7.772-6.759,15.017-11.365,21.906C579.121,180.78,577.991,181.99,576.355,183.116z"
		/>
	<path class="st0" d="M520.164,126.824c-1.328-17.357,4.818-32.142,13.366-46.17c0.81-1.328,1.373-3.726,3.875-3.17
		c2.791,0.62,1.323,2.939,1.619,4.511c1.924,10.178,4.62,20.141,7.856,29.979c3.986,12.115,10.375,23.112,15.686,34.615
		c8.149,17.651,7.218,35.489-0.261,53.182c-0.385,0.911-0.981,1.777-1.162,2.726c-0.935,4.887-3.97,6.171-8.657,5.981
		c-7.676-0.31-7.639-0.089-9.492-7.634c-3.632-14.782-9.952-28.573-16.019-42.427C522.48,148.15,518.881,137.821,520.164,126.824z"
		/>
	<path class="st0" d="M572.075,208.385c12.102-14.544,21.095-29.28,26.938-45.715c5.839-16.421,8.911-33.312,5.743-52.164
		c7.378,5.519,12.211,11.441,16.257,17.968c6.146,9.913,8.936,21.088,8.833,32.496c-0.141,15.652-4.57,30.508-11.826,44.44
		c-0.881,1.693-2.043,2.986-4.191,2.983C600.39,208.375,586.952,208.385,572.075,208.385z"/>
	<path class="st0" d="M516.622,206.392c-4.996,0-9.998-0.13-14.987,0.058c-2.354,0.088-3.555-0.825-4.548-2.833
		c-10.823-21.876-12.888-44.221-3.558-67.123c2.456-6.029,6.879-10.814,11.043-15.702c0.551-0.646,1.88-1.203,2.62-0.993
		c1.473,0.416,0.746,1.96,0.832,3.019c1.052,12.963,2.498,25.824,6.802,38.238c2.065,5.959,5.501,10.768,10.154,14.814
		c7.675,6.675,11.128,15.346,12.037,25.213c0.317,3.444-1.293,5.336-4.905,5.316C526.949,206.369,521.785,206.391,516.622,206.392z"
		/>
	<path class="st0" d="M557.541,128.016c3.465,3.195,4.087,7.854,6.019,11.864c-3.328-3.16-5.951-6.712-6.594-11.421
		C557.155,128.309,557.347,128.161,557.541,128.016z"/>
	<path class="st0" d="M556.965,128.459c-0.633-0.313-1.138-0.985-0.543-1.401c0.689-0.481,0.808,0.532,1.114,0.962
		C557.347,128.161,557.155,128.309,556.965,128.459z"/>
	<path class="st0" d="M418.225,359.113c-0.878,18.264-2.388,35.112-2.141,52.025c0.049,3.323-1.343,4.379-4.491,4.295
		c-5.66-0.15-11.331-0.182-16.988,0.015c-2.949,0.103-3.833-1.058-3.574-3.79c0.978-10.332,1.905-20.669,2.825-31.007
		c0.558-6.259,0.53-12.546,0.992-18.823c0.959-13.059,1.828-26.178,1.149-39.3c-0.202-3.904,1.14-5.315,5.12-5.209
		c8.822,0.235,17.663,0.297,26.48-0.031c3.768-0.141,5.232,1.399,6.276,4.639c5.951,18.478,12.015,36.919,18.085,55.357
		c1.06,3.218,2.333,6.364,3.716,10.105c6.271-21.041,12.441-41.482,18.428-61.978c2.207-7.556,2.318-8.166,13.021-8.895
		c7.96-0.543,15.985-0.073,23.98-0.146c2.1-0.02,2.876,0.701,2.98,2.875c0.57,11.89,0.88,23.812,2.058,35.647
		c1.808,18.172,2.632,36.456,5.776,54.488c0.548,3.139-0.195,5.133-4.051,5.057c-7.992-0.158-15.991-0.096-23.985-0.023
		c-2.767,0.025-3.939-1.143-3.85-3.891c0.346-10.626-0.236-21.228-0.997-31.819c-0.431-5.992-0.953-11.979-1.503-18.826
		c-3.322,3.882-3.939,8.052-5.325,11.729c-4.637,12.311-8.908,24.762-13.096,37.235c-1.364,4.063-3.515,5.759-7.966,5.671
		c-5.926-0.118-11.915-0.876-17.828,0.785c-3.528,0.991-4.514-1.965-5.459-4.449c-3.331-8.76-6.562-17.557-9.883-26.321
		C424.909,376.43,421.774,368.355,418.225,359.113z"/>
	<path class="st0" d="M516.044,220.393c9.831,0,19.687,0.443,29.49-0.085c27.604-1.485,55.219-0.643,82.826-0.956
		c2.78-0.031,5.562-0.93,8.329-0.863c2.824,0.066,4.75,0.616,3.626,4.852c-3.659,13.791-15.064,24.341-29.106,26.105
		c-2.442,0.307-4.801,1.131-7.332,1.008c-1.78-0.086-2.652,1.022-2.819,2.801c-0.985,10.501-1.851,21.017-3.084,31.488
		c-0.544,4.615-1.131,9.196-0.921,13.841c0.167,3.695-2.708,3.282-4.436,2.664c-17.768-6.35-36.178-2.995-54.3-3.873
		c-4.171-0.202-8.12,1.479-12.341,1.088c-3.234-0.3-4.663-1.602-4.985-4.878c-0.805-8.183-1.788-16.352-2.902-24.498
		c-0.843-6.153,0.146-7.109,6.197-7.774c11.761-1.293,23.47-3.058,35.201-4.624c0.817-0.109,1.657-0.118,2.454-0.309
		c1.311-0.313,3.582,0.926,3.725-1.134c0.112-1.613-1.086-3.306-3.104-4.102c-1.296-0.511-2.517-0.877-3.835-0.699
		c-15.905,2.149-32.038,1.954-47.771,0.448c-12.902-1.235-25.382-6.867-33.933-18.056c-0.494-0.647-0.883-1.391-1.235-2.129
		c-3.801-7.963-2.369-10.315,6.262-10.315C493.381,220.393,504.712,220.393,516.044,220.393z"/>
	<path class="st0" d="M750.344,506.051c-3.118,0.005-4.837,1.826-6.497,3.189c-17.252,14.156-51.824,6.037-61.713-14.734
		c-6.715-14.107-5.484-35.376,6.66-47.562c12.156-12.199,27.038-19.092,43.469-20.172c21.742-1.43,40.733,10.337,48.242,32.81
		c7.771,23.254,7.724,46.62-2.704,69.264c-6.641,14.42-18.476,23.424-32.78,29.448c-7.743,3.261-15.736,6.292-24.096,6.82
		c-8.857,0.561-17.741-0.958-26.414-3.037c-6.841-1.639-6.84-1.776-4.571-8.462c1.639-4.829,3.409-9.613,5.049-14.442
		c1.842-5.424,2.867-5.956,8.046-3.773c5.835,2.459,12.065,4.274,18.218,3.806c13.271-1.01,19.947-4.312,25.601-18.747
		C748.617,515.953,749.187,510.982,750.344,506.051z M733.907,494.337c4.819,0.901,9.382-1.469,13.955-3.878
		c1.887-0.994,3.277-2.199,3.185-4.558c-0.379-9.651-1.812-19.088-7.433-27.22c-4.379-6.337-10.635-9.574-18.449-8.144
		c-7.868,1.439-11.533,7.129-12.833,14.51c-0.456,2.589-0.216,5.302-0.285,7.958C711.709,485.871,721.733,495.43,733.907,494.337z"
		/>
	<path class="st0" d="M752.002,340.224c0.52,21.509-3.058,40.861-8.975,59.859c-1.395,4.48-4.514,7.102-9.006,7.153
		c-3.803,0.044-6.752-2.086-8.489-5.794c-1.396-2.979-0.08-5.746,0.76-8.179c7.188-20.827,8.941-42.347,7.598-64.052
		c-1.154-18.635-5.87-36.603-13.296-53.841c-6.171-14.324-14.165-27.541-23.948-39.586c-8.982-11.058-18.948-21.234-30.732-29.444
		c-5.311-3.7-6.359-8.134-3.197-13.201c2.624-4.204,7.167-4.94,12.559-2.092c5.178,2.736,9.276,6.925,13.493,10.768
		c15.974,14.558,29.652,30.984,40.181,50.043c10.381,18.792,17.291,38.746,20.845,59.773
		C751.463,321.515,752.986,331.587,752.002,340.224z"/>
	<path class="st0" d="M569.767,413.393c-9.183,0.622-20.653-0.913-32.078,0.664c-2.255,0.311-4.015-0.828-3.597-3.436
		c2.035-12.73,0.537-25.536,0.913-38.3c0.22-7.487,0.024-14.986,0.044-22.48c0.024-9.101-0.633-18.146-1.958-27.151
		c-0.835-5.671-0.257-6.286,5.438-6.295c4.996-0.008,9.995-0.128,14.987,0.021c15.619,0.468,31.171-1.542,46.803-1.156
		c4.655,0.115,5.768,1.93,4.354,5.603c-1.302,3.384,0.302,6.973-1.41,10.266c-0.932,1.79,0.868,4.825-1.698,5.808
		c-3.039,1.163-6.321,2.019-9.701,1.316c-5.167-1.073-10.359-1.827-15.66-1.878c-13.547-0.131-12.053-0.546-12.199,12.598
		c-0.036,3.173,1.026,4.681,4.323,4.435c6.431-0.48,12.921,0.832,19.335-0.908c2.808-0.763,4.433,0.112,4.515,3.766
		c0.124,5.512-1.177,10.857-1.181,16.322c-0.001,1.763-1.069,3.126-2.816,2.63c-6.869-1.951-13.947,0.222-20.768-1.236
		c-2.098-0.448-2.337,0.205-2.345,1.766c-0.024,4.662-0.052,9.326-0.002,13.988c0.04,3.741,3.162,3.474,5.331,3.395
		c11.387-0.42,22.767-1.073,34.141-1.766c3.582-0.219,4.832,1.357,4.519,4.724c-0.414,4.436-0.565,8.903-1.187,13.307
		c-0.354,2.507-1.492,4.21-4.88,4.11C592.673,413.198,582.342,413.393,569.767,413.393z"/>
	<path class="st0" d="M690.395,412.39c-2.164,0.003-4.354-0.208-6.487,0.045c-5.29,0.627-8.754-1.863-11.373-6.116
		c-4.414-7.17-9.906-13.536-15.025-20.185c-1.097-1.424-2.345-2.206-3.844-2.854c-3.386-1.462-5.462-0.133-4.476,3.424
		c1.938,6.991-0.293,14.225,1.761,21.186c0.627,2.123,0.098,4.625-3.068,4.458c-8.31-0.438-16.491,1.537-24.812,1.123
		c-3.478-0.174-4.751-1.868-3.855-4.704c1.197-3.795,0.782-7.569,0.799-11.349c0.074-16.98,0.061-33.961,0.021-50.941
		c-0.021-9.083-0.682-18.13-1.882-27.134c-0.372-2.796,0.846-3.91,3.629-3.981c5.446-0.14,10.897-0.4,16.332-0.704
		c11.164-0.626,22.354-2.663,33.627-0.335c11.641,2.405,20.793,8.279,25.093,19.367c4.57,11.782,2.658,22.989-6.793,32.207
		c-1.429,1.394-2.746,2.938-4.327,4.13c-4.872,3.673-4.992,3.704-0.503,7.989c5.875,5.609,11.112,11.864,17.65,16.817
		c3.556,2.694,4.384,13.048,1.607,16.113c-0.993,1.097-2.491,1.499-4.084,1.464C697.055,412.336,693.725,412.387,690.395,412.39z
		 M653.771,364.265c7.091,0.917,12.033-2.015,14.725-7.989c2.972-6.597,2.552-13.56-2.343-18.93
		c-3.811-4.181-9.122-6.098-15.301-4.176c-2.271,0.706-2.86,1.477-2.836,3.601c0.082,7.138,0.301,14.291-0.065,21.41
		C647.706,362.962,648.614,365.695,653.771,364.265z"/>
	<path class="st0" d="M666.045,455.902c0.564,7.312-1.225,14.588-0.852,21.804c0.917,17.762,0.235,35.548,1.148,53.268
		c0.335,6.496-0.327,13.215,1.552,19.685c0.856,2.95,0.173,5.068-3.868,4.799c-8.781-0.584-17.546,0.275-26.301,0.939
		c-3.157,0.239-4.016-0.728-3.868-4.254c0.915-21.904,1.861-43.832,1.007-65.747c-0.218-5.588-0.861-11.203-0.784-16.823
		c0.044-3.242-1.312-3.455-4.04-2.748c-4.28,1.108-8.839,1.327-12.959,2.812c-3.241,1.167-3.774-0.673-4.671-2.595
		c-0.336-0.72-0.242-1.628-0.443-2.425c-1.034-4.1-4.543-8.311-2.453-12.244c1.921-3.616,7.196-3.402,10.909-5.067
		c10.516-4.712,21.155-9.149,31.614-13.98c5.598-2.586,15.33,0.518,14.622,6.234c-0.346,2.798-0.505,5.564-0.595,8.353
		C665.978,450.572,666.045,453.238,666.045,455.902z"/>
	<path class="st0" d="M528.879,524.388c-4.164,0.001-8.333-0.129-12.489,0.048c-2.687,0.114-3.349-0.973-3.4-3.496
		c-0.146-7.141,0.71-14.22,0.978-21.325c0.712-18.938-1.565-37.839-1.016-56.796c0.113-3.908-1.15-7.813-0.968-11.828
		c0.106-2.329,0.436-3.411,3.227-3.701c10.532-1.093,21.118-1.147,31.65-1.988c7.938-0.635,15.756-0.593,23.256,2.082
		c11.815,4.214,19.598,12.79,21.57,24.988c1.957,12.103-0.246,23.814-10.428,32.383c-10.076,8.479-21.444,14.053-34.864,14.646
		c-2.479,0.109-3.749,1.067-2.984,3.781c1.634,5.792-0.228,11.872,1.523,17.723c0.716,2.394-1.088,3.54-3.564,3.501
		C537.208,524.339,533.042,524.387,528.879,524.388z M542.05,462.927c0,4.82,0.052,9.642-0.024,14.46
		c-0.032,2.021,0.561,2.87,2.787,3.062c8.574,0.741,14.812-3.46,17.58-11.697c0.95-2.828,0.592-5.575,0.61-8.346
		c0.072-10.546-6.351-16.49-16.849-16.068c-2.955,0.118-4.223,1.114-4.142,4.13C542.143,453.284,542.048,458.107,542.05,462.927z"/>
	<path class="st0" d="M444.436,191.411c3.682-0.168,7.003,0.279,7.978,3.987c0.94,3.58,2.037,7.526-1.49,10.605
		c-4.974,4.34-10.121,8.493-14.938,13c-21.798,20.392-36.859,45.016-45.887,73.422c-2.465,7.757-7.807,9.89-14.453,6.245
		c-4.785-2.624-4.351-7.079-3.159-10.878c7.16-22.815,18.091-43.655,33.001-62.469c9.102-11.484,19.736-21.297,30.854-30.679
		C438.734,192.627,441.235,190.565,444.436,191.411z"/>
	<path class="st0" d="M273.045,282.937c0,2.662-0.147,5.335,0.033,7.985c0.292,4.302-1.508,7.12-5.222,9.275
		c-6.543,3.799-15.266,2.744-20.248-2.711c-1.769-1.937-2.564-4.068-2.611-6.723c-0.107-6.134,0.446-12.271-0.314-18.412
		c-0.259-2.095,0.194-4.357,3.45-3.991c2.672,0.3,6.017-0.842,5.93,3.808c-0.097,5.156,0.165,10.325-0.077,15.473
		c-0.188,3.977,1.907,6.445,5.28,6.348c3.043-0.087,5.078-2.543,4.844-6.306c-0.279-4.476-0.024-8.982-0.08-13.475
		c-0.039-3.119-0.339-5.878,4.384-5.939c5.006-0.064,4.732,2.866,4.646,6.182C272.987,277.277,273.045,280.107,273.045,282.937z"/>
	<path class="st0" d="M305.048,285.491c0-4.331,0.133-8.668-0.042-12.992c-0.141-3.477,1.637-4.137,4.631-4.171
		c3.185-0.037,4.73,1.063,4.418,4.354c-0.079,0.826-0.136,1.688,0.016,2.493c0.317,1.678-1.097,4.251,1.02,4.889
		c2.919,0.88,3.039-2.313,4.054-4.021c2.138-3.597,3.213-8.212,9.033-7.709c4.199,0.363,4.915,1.343,2.816,5.179
		c-1.425,2.603-2.613,5.431-4.493,7.665c-2.258,2.684-1.309,4.835,0.101,7.21c1.849,3.114,3.699,6.229,5.553,9.341
		c1.374,2.307,1.221,3.48-1.949,3.736c-4.83,0.389-8.455-0.709-10.094-5.752c-0.455-1.4-1.343-2.653-1.959-4.008
		c-0.496-1.091-0.972-2.312-2.417-2.004c-1.312,0.28-1.676,1.45-1.676,2.71c0.001,1.999-0.125,4.005,0.01,5.995
		c0.243,3.581-1.844,4.032-4.733,4.036c-2.838,0.005-4.413-0.8-4.319-3.959C305.145,294.156,305.048,289.822,305.048,285.491z"/>
	<path class="st0" d="M200.008,268.399c4.396,0.145,10.565-0.709,13.178,6.446c0.224,0.612,0.923,1.435,0.73,1.759
		c-3.187,5.346,0.394,10.117,0.995,15.169c0.641,5.385-3.515,9.456-8.976,9.586c-4.452,0.105-8.764,1.526-13.287,1.089
		c-2.459-0.237-3.625-1.099-3.612-3.63c0.045-8.966,0.044-17.932,0.002-26.897c-0.012-2.558,1.201-3.603,3.665-3.533
		C194.694,268.444,196.688,268.399,200.008,268.399z M201.124,295.333c1.724-0.846,5.46,0.054,5.688-3.346
		c0.22-3.284-2.477-4.517-5.656-4.624c-2.899-0.099-4.221,0.982-4.151,4.001C197.063,293.893,197.685,295.572,201.124,295.333z
		 M201.642,275.448c-2.383-0.137-4.383-0.062-4.566,2.757c-0.14,2.147,0.101,4.126,2.912,4.145c2.143,0.015,4.452,0.036,5.007-2.773
		C205.559,276.718,203.637,275.877,201.642,275.448z"/>
	<path class="st0" d="M586.865,515.657c-8.984,1.003-13.85-6.227-10.84-12.901c1.654-3.668,4.677-4.145,8.09-4.53
		c6.679-0.754,13.311-1.987,20.001-2.554c4.413-0.375,8.432,3.459,8.915,7.674c0.519,4.525-2.482,9.126-7.063,9.896
		C599.643,514.304,593.236,514.875,586.865,515.657z"/>
	<path class="st1" d="M208.921,371.178c0.629,7.189-0.137,13.943-3.846,20.229c-5.477,9.28-19.493,11.354-27.477,4.085
		c-6.353-5.783-9.379-13.295-10.301-21.378c-0.875-7.671-0.886-15.541,1.715-23.104c2.978-8.657,9.339-13.527,19.718-13.427
		c7.131,0.068,11.988,4.576,15.368,10.818C207.997,355.6,209.823,363.147,208.921,371.178z M204.007,371.211
		c0.7-7.035-1.153-13.985-4.828-20.502c-5.419-9.61-18.175-10.943-23.677-1.272c-5.85,10.282-3.945,32.526,4.08,40.984
		c5.975,6.297,16.4,5.332,21.021-1.979C203.848,383.306,204.26,377.562,204.007,371.211z"/>
	<path class="st1" d="M312.593,491.39c-2.83,0-5.665-0.099-8.489,0.027c-2.867,0.128-3.447-1.136-2.745-3.668
		c2.938-10.591,5.83-21.195,8.687-31.809c0.229-0.85,0.417-1.818,1.253-1.957c1.228-0.203,1.439,0.908,1.757,1.867
		c3.521,10.611,7.068,21.215,10.634,31.812c1.006,2.991-0.247,3.902-3.107,3.758C317.926,491.285,315.257,491.391,312.593,491.39z"
		/>
	<path class="st1" d="M733.907,494.337c-12.174,1.093-22.197-8.466-21.86-21.331c0.069-2.656-0.171-5.369,0.285-7.958
		c1.3-7.381,4.965-13.07,12.833-14.51c7.814-1.431,14.07,1.807,18.449,8.144c5.62,8.132,7.054,17.568,7.433,27.22
		c0.093,2.358-1.298,3.563-3.185,4.558C743.289,492.868,738.726,495.238,733.907,494.337z M733.817,489.342
		c1.161,0,2.476,0.355,3.457-0.064c3.309-1.417,8.835-1.538,8.442-6.122c-0.653-7.643-2.02-15.429-6.776-21.988
		c-4.954-6.834-13.795-7.73-18.581-1.438c-4.761,6.257-4.342,13.301-1.469,20.274C721.618,486.623,726.854,489.42,733.817,489.342z"
		/>
	<path class="st1" d="M653.771,364.265c-5.157,1.431-6.065-1.303-5.82-6.084c0.366-7.119,0.147-14.272,0.065-21.41
		c-0.024-2.124,0.565-2.895,2.836-3.601c6.179-1.922,11.49-0.005,15.301,4.176c4.895,5.37,5.314,12.333,2.343,18.93
		C665.804,362.25,660.862,365.182,653.771,364.265z M665.038,348.449c0.029-5.47-3.671-9.622-9.198-10.676
		c-2.092-0.399-2.772,0.328-2.775,2.207c-0.01,5.467,0.056,10.935-0.039,16.399c-0.044,2.512,1.244,3.073,3.41,3.021
		C661.25,359.283,665.004,354.557,665.038,348.449z"/>
	<path class="st1" d="M542.049,462.927c-0.001-4.819,0.094-9.643-0.036-14.459c-0.081-3.016,1.187-4.012,4.142-4.13
		c10.498-0.422,16.921,5.522,16.849,16.068c-0.019,2.771,0.34,5.518-0.61,8.346c-2.768,8.237-9.006,12.438-17.58,11.697
		c-2.227-0.192-2.819-1.042-2.787-3.062C542.102,472.568,542.05,467.747,542.049,462.927z M547.049,462.28
		c0,3.328,0.057,6.658-0.017,9.985c-0.065,2.947,1.135,3.306,3.722,2.395c4.344-1.531,7.19-5.699,7.291-11.306
		c0.133-7.438-2.188-11.768-7.046-13.472c-2.891-1.014-4.051-0.08-3.97,2.911C547.116,455.954,547.049,459.118,547.049,462.28z"/>
	<path class="st1" d="M201.124,295.333c-3.439,0.239-4.061-1.44-4.119-3.969c-0.069-3.019,1.252-4.1,4.151-4.001
		c3.179,0.107,5.875,1.34,5.656,4.624C206.584,295.387,202.848,294.487,201.124,295.333z"/>
	<path class="st1" d="M201.642,275.448c1.995,0.429,3.917,1.27,3.353,4.128c-0.555,2.81-2.864,2.788-5.007,2.773
		c-2.811-0.019-3.051-1.997-2.912-4.145C197.259,275.387,199.259,275.312,201.642,275.448z"/>
</g>
</svg>
