<?xml version="1.0" encoding="utf-8"?>
<!-- Generator: Adobe Illustrator 16.0.0, SVG Export Plug-In . SVG Version: 6.00 Build 0)  -->
<!DOCTYPE svg PUBLIC "-//W3C//DTD SVG 1.1//EN" "http://www.w3.org/Graphics/SVG/1.1/DTD/svg11.dtd">
<svg version="1.1" id="Layer_1" xmlns="http://www.w3.org/2000/svg" xmlns:xlink="http://www.w3.org/1999/xlink" x="0px" y="0px"
	 width="803.285px" height="567.774px" viewBox="0 0 803.285 567.774" style="enable-background:new 0 0 803.285 567.774;"
	 xml:space="preserve">
<style type="text/css">
<![CDATA[
	.st0{fill-rule:evenodd;clip-rule:evenodd;fill:#85BA8D;}
	.st1{fill-rule:evenodd;clip-rule:evenodd;fill:#F4F6F4;}
	.st2{fill-rule:evenodd;clip-rule:evenodd;fill:#FFFFFF;}
]]>
</style>
<g>
	<path class="st1" d="M-88.955,643.274c0.333,0.333,0.667,0.667,1,1C-88.815,644.469-89.149,644.135-88.955,643.274z"/>
	<path class="st1" d="M904.045,644.274c0.333-0.333,0.667-0.667,1-1C905.24,644.135,904.906,644.469,904.045,644.274z"/>
	<path class="st2" d="M150.017,368.781c1.064,11.969-4.589,22.648-9.506,33.384c-8.542,18.651-19.222,36.124-32.138,52.048
		c-9.486,11.695-19.905,22.645-33.154,30.334c-17.428,10.114-41.504,6.215-54.165-8.797c-1.448-1.717-1.839-3.705-2.072-5.939
		c-1.198-11.5,2.341-21.913,7.266-31.938c7.592-15.453,16.825-29.803,28.295-42.773c6.834-7.729,13.815-15.114,22.719-20.424
		c3.638-2.17,7.206-2.398,10.109,1.464c2.959,3.937,1.441,7.06-1.661,9.982c-5.211,4.911-7.084,11.854-10.688,17.745
		c-7.986,13.058-17.939,24.892-24.228,39.003c-3.087,6.926-5.64,13.957-7.056,21.498c-0.744,3.961,0.955,3.951,3.49,3.885
		c6.558-0.172,12.081-3.291,17.141-6.936c17.226-12.403,29.518-29.065,39.748-47.368c7.165-12.818,14.738-25.456,20.042-39.205
		c2.208-5.725,5.235-11.392,3.171-18.064c-0.803-2.597-1.962-3.306-4.495-3.478c-5.235-0.354-9.553,2.097-14.117,3.919
		c-22.581,9.019-43.735,21.482-67.508,27.658c-9.171,2.382-24.436-4.954-26.37-18.01c-2.473-16.69,4.864-30.13,12.089-43.827
		c4.573-8.669,10.605-16.487,17.486-23.234c13.993-13.72,29.583-25.598,49.213-29.958c7.824-1.739,16.087-1.475,23.05,4.505
		c5.77,4.954,6.058,4.729,11.485-0.642c3.159-3.126,6.82-4.389,10.718-2.2c5.271,2.96,11.758,4.98,12.202,12.743
		c0.145,2.534-0.597,4.41-2.485,6.136c-5.756,5.259-11.597,10.454-16.987,16.073c-3.184,3.319-5.525,7.356-10.143,9.173
		c-4.338,1.706-8.542,3.18-12.367-0.766c-3.661-3.777-2.04-8.303-1.413-12.632c0.091-0.628,0.57-1.191,0.806-1.809
		c1.121-2.932,2.673-5.989,0.064-8.811c-2.67-2.888-5.614-0.679-8.276,0.182c-30.211,9.764-49.138,30.927-60.188,59.942
		c-1.107,2.907-2.652,5.661-3.067,8.837c-0.373,2.852-0.75,4.662,3.471,3.199c7.656-2.652,14.889-6.213,22.33-9.321
		c14.285-5.968,27.762-13.808,42.683-18.301c12.5-3.765,24.303-2.667,34.498,5.878C148.066,348.689,150.548,358.024,150.017,368.781
		z"/>
	<path class="st2" d="M185.179,510.258c-0.764,5.839-0.054,11.796,1.969,17.417c3.632,10.091,7.964,10.51,15.213,4.848
		c10.836-8.464,18.585-19.575,26.721-30.375c7.532-9.998,13.722-20.952,21.81-30.562c2.544-3.023,7.355-4.73,9.995-2.741
		c3.258,2.454,4.165,5.897,2.421,9.735c-4.026,8.861-7.203,18.033-10.316,27.243c-2.35,6.952-6.712,12.811-11.011,18.664
		c-6.343,8.638-12.387,17.456-19.811,25.307c-14.209,15.024-44.107,12.092-56.041-5.418c-9.602-14.088-12.316-29.632-10.285-46.598
		c3.135-26.183,10.818-50.812,23.093-74.019c8.896-16.817,20.525-31.547,35.559-43.391c7.16-5.641,15.093-7.288,24.196-5.477
		c6.255,1.246,12.784,0.985,18.553,4.4c2.402,1.422,3.208-0.741,3.873-2.359c2.905-7.066,8.899-7.281,15.026-6.572
		c6.372,0.737,12.292,2.425,14.419,9.798c0.715,2.479,0.55,4.624-0.786,6.62c-7.69,11.485-15.364,22.983-23.231,34.348
		c-3.734,5.394-11.857,8.075-16.968,6.17c-3.115-1.162-5.238-3.528-5.353-6.54c-0.2-5.268-0.938-10.615,0.502-15.866
		c0.848-3.093,0.308-6.306-2.153-8.107c-2.319-1.697-4.495,0.68-6.628,1.947c-10.078,5.989-15.854,15.776-21.661,25.261
		c-12.018,19.628-20.749,40.769-26.578,63.05C185.739,494.559,184.407,502.217,185.179,510.258z"/>
	<path class="st2" d="M433.63,468.96c3.372-10.615,6.467-20.101,9.394-29.637c3.761-12.256,7.406-24.548,11.057-36.838
		c0.968-3.258,3.201-4.262,6.379-4.236c9.165,0.073,18.334,0.175,27.494-0.046c3.754-0.091,5.057,1.488,5.105,4.93
		c0.098,6.787,0.454,13.566,0.782,20.344c0.872,17.996,3.071,35.867,4.433,53.81c0.315,4.164,0.534,8.491,1.603,12.715
		c1.274,5.037-0.101,6.534-5.218,6.197c-7.073-0.466-14.118-0.089-21.16,0.158c-4.281,0.15-5.624-1.724-5.471-5.581
		c0.1-2.496-0.042-5,0.027-7.498c0.395-14.092-1.866-28.041-2.844-42.334c-2.699,7.473-5.433,14.933-8.088,22.421
		c-3.464,9.77-6.854,19.564-10.3,29.34c-0.845,2.396-2.244,3.69-5.145,3.65c-6.114-0.085-12.248-0.514-18.343,0.846
		c-3.432,0.766-5.778-0.652-7.122-4.321c-5.94-16.221-12.125-32.351-18.239-48.507c-0.285-0.755-0.731-1.447-1.602-3.138
		c-0.155,2.054-0.236,3.195-0.329,4.337c-1.281,15.757-1.019,31.547-0.955,47.33c0.013,3.215-1.124,4.505-4.379,4.415
		c-5.662-0.157-11.342-0.255-16.993,0.025c-4.434,0.22-5.123-2.128-4.604-5.596c1.64-10.943,2.224-21.971,3.017-32.994
		c1.021-14.215,1.681-28.426,2.11-42.668c0.138-4.574,0.852-9.212,0.766-13.84c-0.047-2.568,1.185-3.011,3.369-2.996
		c9.832,0.067,19.666,0.123,29.495-0.029c2.885-0.045,3.528,1.568,4.244,3.777C419.114,424.596,426.186,446.171,433.63,468.96z"/>
	<path class="st2" d="M345.667,331.501c-6.163,17.469-11.996,33.502-17.408,49.676c-1.459,4.361-3.739,6.243-8.204,6.132
		c-5.66-0.142-11.333-0.187-16.988,0.021c-3.575,0.131-5.208-1.275-6.431-4.673c-5.797-16.09-11.913-32.065-17.938-48.073
		c-0.212-0.562-0.67-1.032-1.259-1.913c-1.099,8.652-1.725,16.815-1.391,25.033c0.149,3.677-0.254,6.059-5.243,4.793
		c-4.5-1.142-7.41,2.021-9.283,5.854c-1.114,2.279-2.007,4.921-5.26,3.786c-2.892-1.009-4.467-3.147-4.24-6.489
		c1.039-15.325,2.153-30.648,2.909-45.988c0.393-7.977,0.281-15.993,0.039-23.98c-0.124-4.093,1.134-5.616,5.379-5.49
		c8.443,0.251,16.913,0.426,25.321-0.896c4.11-0.646,6.153,1.269,7.429,5.279c6.484,20.378,13.245,40.668,19.924,60.983
		c0.353,1.074,0.85,2.102,1.61,3.956c6.943-22.71,13.734-44.618,20.24-66.609c0.762-2.574,1.536-3.676,4.19-3.656
		c10.161,0.075,20.324,0.13,30.483-0.03c3.023-0.048,3.421,1.236,3.563,3.854c0.873,16.002,1.384,32.054,3.12,47.969
		c1.517,13.89,2.068,27.906,4.741,41.669c0.47,2.422-0.331,3.544-3.121,3.635c-8.437,0.274-16.902-0.921-25.334,0.729
		c-1.963,0.384-3.519-1.094-3.521-3.731c-0.008-7.949-0.103-15.876-0.754-23.841C347.52,350.674,347.084,341.833,345.667,331.501z"
		/>
	<path class="st2" d="M192.208,288.297c21.821-0.818,43.138,15.615,47.443,37.322c2.522,12.721,1.882,25.237-4.316,37.034
		c-0.958,1.822-1.928,3.72-4.283,3.574c-9.833-0.608-16.007,6.101-22.773,11.438c-3.375,2.663-6.369,5.89-9.18,9.165
		c-2.729,3.18-6.191,4.277-10.042,4.406c-10.237,0.341-19.915-1.863-29.117-6.458c-4.518-2.255-5.412-5.507-4.619-10.193
		c1.747-10.327,1.413-20.335-5.197-29.338c-2.681-3.65-6.542-5.477-10.022-7.889c-3.207-2.223-4.357-4.323-3.468-8.633
		c4.055-19.641,17.869-29.589,34.981-36.413C178.372,289.617,185.361,287.603,192.208,288.297z M208.921,342.06
		c0.901-8.03-0.925-15.578-4.823-22.776c-3.38-6.242-8.237-10.75-15.368-10.818c-10.378-0.101-16.74,4.77-19.718,13.427
		c-2.601,7.563-2.59,15.434-1.715,23.104c0.922,8.083,3.948,15.595,10.301,21.378c7.984,7.27,22,5.195,27.477-4.085
		C208.785,356.003,209.55,349.249,208.921,342.06z"/>
	<path class="st2" d="M348.554,497.271c-3.167,0.003-6.353-0.215-9.495,0.059c-3.82,0.333-5.25-1.551-6.055-4.948
		c-2.635-11.126-2.713-11.124-13.868-11.101c-6.125,0.012-12.221,0.058-18.353,0.812c-3.503,0.432-4.962,1.729-5.742,4.828
		c-2.857,11.362-2.892,11.354-14.466,11.354c-1.167,0-2.343,0.099-3.498-0.019c-3.58-0.361-9.573,1.534-10.262-0.915
		c-1.279-4.553-2.873-9.828-0.737-14.969c7.012-16.874,13.923-33.79,20.831-50.707c3.734-9.145,7.515-18.275,10.994-27.519
		c1.062-2.82,2.582-3.82,5.461-3.924c6.774-0.244,13.556,0.698,20.347-0.778c3.395-0.737,5.217,2.082,6.418,5.062
		c3.937,9.77,7.845,19.553,11.938,29.258c5.634,13.357,11.156,26.771,17.259,39.915c3.136,6.752,5.397,13.278,3.814,20.825
		c-0.441,2.105-1.039,2.841-3.088,2.792C356.222,497.205,352.387,497.27,348.554,497.271z M312.593,462.272
		c2.664,0,5.333-0.105,7.989,0.029c2.86,0.145,4.113-0.767,3.107-3.758c-3.566-10.597-7.113-21.2-10.634-31.812
		c-0.318-0.959-0.529-2.07-1.757-1.867c-0.836,0.139-1.024,1.107-1.253,1.957c-2.857,10.613-5.749,21.218-8.687,31.809
		c-0.702,2.532-0.122,3.796,2.745,3.668C306.929,462.173,309.763,462.271,312.593,462.272z"/>
	<path class="st2" d="M576.355,153.998c2.016-15.524-2.776-29.33-8.91-42.659c-4.407-9.577-10.04-18.582-14.812-28.001
		c-9.149-18.058-8.409-36.63-1.903-55.208c3.057-8.729,7.378-16.943,12.733-24.524c1.021-1.444,1.564-3.891,4.133-3.578
		c2.163,10.375,0.593,21.065,3.344,31.393c1.746,6.555,3.962,12.878,6.729,19.032c4.941,10.991,11.499,21.212,15.456,32.68
		c5.26,15.245,3.738,30.26-1.595,45.064c-2.801,7.772-6.759,15.017-11.365,21.906C579.121,151.662,577.991,152.872,576.355,153.998z
		"/>
	<path class="st2" d="M526.975,129.3c-4.495-10.268-8.094-20.597-6.812-31.594c-1.328-17.357,4.818-32.142,13.366-46.17
		c0.81-1.328,1.373-3.726,3.875-3.17c2.791,0.62,1.323,2.939,1.619,4.511c1.924,10.178,4.62,20.141,7.856,29.979
		c3.986,12.115,10.375,23.112,15.686,34.615c8.149,17.651,7.218,35.489-0.261,53.182c-0.385,0.911-0.981,1.777-1.162,2.726
		c-0.935,4.887-3.97,6.171-8.657,5.981c-7.676-0.31-7.639-0.089-9.492-7.634"/>
	<path class="st2" d="M572.075,179.267c12.102-14.544,21.095-29.28,26.938-45.715c5.839-16.421,8.911-33.312,5.743-52.164
		c7.378,5.519,12.211,11.441,16.257,17.968c6.146,9.913,8.936,21.088,8.833,32.496c-0.141,15.652-4.57,30.508-11.826,44.44
		c-0.881,1.693-2.043,2.986-4.191,2.983C600.39,179.257,586.952,179.267,572.075,179.267z"/>
	<path class="st2" d="M516.622,177.273c-4.996,0-9.998-0.13-14.987,0.058c-2.354,0.088-3.555-0.825-4.548-2.833
		c-10.823-21.876-12.888-44.221-3.558-67.123c2.456-6.029,6.879-10.814,11.043-15.702c0.551-0.646,1.88-1.203,2.62-0.993
		c1.473,0.416,0.746,1.96,0.832,3.019c1.052,12.963,2.498,25.824,6.802,38.238c2.065,5.959,5.501,10.768,10.154,14.814
		c7.675,6.675,11.128,15.346,12.037,25.213c0.317,3.444-1.293,5.336-4.905,5.316C526.949,177.251,521.785,177.272,516.622,177.273z"
		/>
	<path class="st0" d="M557.541,98.897c3.465,3.195,4.087,7.854,6.019,11.864c-3.328-3.16-5.951-6.712-6.594-11.421
		C557.155,99.19,557.347,99.043,557.541,98.897z"/>
	<path class="st0" d="M556.965,99.341c-0.633-0.313-1.138-0.985-0.543-1.401c0.689-0.481,0.808,0.532,1.114,0.962
		C557.347,99.043,557.155,99.19,556.965,99.341z"/>
	<path class="st2" d="M418.225,329.995c-0.878,18.264-2.388,35.112-2.141,52.025c0.049,3.323-1.343,4.379-4.491,4.295
		c-5.66-0.15-11.331-0.182-16.988,0.015c-2.949,0.103-3.833-1.058-3.574-3.79c0.978-10.332,1.905-20.669,2.825-31.007
		c0.558-6.259,0.53-12.546,0.992-18.823c0.959-13.059,1.828-26.178,1.149-39.3c-0.202-3.904,1.14-5.315,5.12-5.209
		c8.822,0.235,17.663,0.297,26.48-0.031c3.768-0.141,5.232,1.399,6.276,4.639c5.951,18.478,12.015,36.919,18.085,55.357
		c1.06,3.218,2.333,6.364,3.716,10.105c6.271-21.041,12.441-41.482,18.428-61.978c2.207-7.556,2.318-8.166,13.021-8.895
		c7.96-0.543,15.985-0.073,23.98-0.146c2.1-0.02,2.876,0.701,2.98,2.875c0.57,11.89,0.88,23.812,2.058,35.647
		c1.808,18.172,2.632,36.456,5.776,54.488c0.548,3.139-0.195,5.133-4.051,5.057c-7.992-0.158-15.991-0.096-23.985-0.023
		c-2.767,0.025-3.939-1.143-3.85-3.891c0.346-10.626-0.236-21.228-0.997-31.819c-0.431-5.992-0.953-11.979-1.503-18.826
		c-3.322,3.882-3.939,8.052-5.325,11.729c-4.637,12.311-8.908,24.762-13.096,37.235c-1.364,4.063-3.515,5.759-7.966,5.671
		c-5.926-0.118-11.915-0.876-17.828,0.785c-3.528,0.991-4.514-1.965-5.459-4.449c-3.331-8.76-6.562-17.557-9.883-26.321
		C424.909,347.312,421.774,339.237,418.225,329.995z"/>
	<path class="st2" d="M516.044,191.274c9.831,0,19.687,0.443,29.49-0.085c27.604-1.485,55.219-0.643,82.826-0.956
		c2.78-0.031,5.562-0.93,8.329-0.863c2.824,0.066,4.75,0.616,3.626,4.852c-3.659,13.791-15.064,24.341-29.106,26.105
		c-2.442,0.307-4.801,1.131-7.332,1.008c-1.78-0.086-2.652,1.022-2.819,2.801c-0.985,10.501-1.851,21.017-3.084,31.488
		c-0.544,4.615-1.131,9.196-0.921,13.841c0.167,3.695-2.708,3.282-4.436,2.664c-17.768-6.35-36.178-2.995-54.3-3.873
		c-4.171-0.202-8.12,1.479-12.341,1.088c-3.234-0.3-4.663-1.602-4.985-4.878c-0.805-8.183-1.788-16.352-2.902-24.498
		c-0.843-6.153,0.146-7.109,6.197-7.774c11.761-1.293,23.47-3.058,35.201-4.624c0.817-0.109,1.657-0.118,2.454-0.309
		c1.311-0.313,3.582,0.926,3.725-1.134c0.112-1.613-1.086-3.306-3.104-4.102c-1.296-0.511-2.517-0.877-3.835-0.699
		c-15.905,2.149-32.038,1.954-47.771,0.448c-12.902-1.235-25.382-6.867-33.933-18.056c-0.494-0.647-0.883-1.391-1.235-2.129
		c-3.801-7.963-2.369-10.315,6.262-10.315C493.381,191.274,504.712,191.274,516.044,191.274z"/>
	<path class="st2" d="M750.344,476.933c-3.118,0.005-4.837,1.826-6.497,3.189c-17.252,14.156-51.824,6.037-61.713-14.734
		c-6.715-14.107-5.484-35.376,6.66-47.562c12.156-12.199,27.038-19.092,43.469-20.172c21.742-1.43,40.733,10.337,48.242,32.81
		c7.771,23.254,7.724,46.62-2.704,69.264c-6.641,14.42-18.476,23.424-32.78,29.448c-7.743,3.261-15.736,6.292-24.096,6.82
		c-8.857,0.561-17.741-0.958-26.414-3.037c-6.841-1.639-6.84-1.776-4.571-8.462c1.639-4.829,3.409-9.613,5.049-14.442
		c1.842-5.424,2.867-5.956,8.046-3.773c5.835,2.459,12.065,4.274,18.218,3.806c13.271-1.01,19.947-4.312,25.601-18.747
		C748.617,486.835,749.187,481.864,750.344,476.933z M733.907,465.219c4.819,0.901,9.382-1.469,13.955-3.878
		c1.887-0.994,3.277-2.199,3.185-4.558c-0.379-9.651-1.812-19.088-7.433-27.22c-4.379-6.337-10.635-9.574-18.449-8.144
		c-7.868,1.439-11.533,7.129-12.833,14.51c-0.456,2.589-0.216,5.302-0.285,7.958C711.709,456.753,721.733,466.312,733.907,465.219z"
		/>
	<path class="st2" d="M752.002,311.105c0.52,21.509-3.058,40.861-8.975,59.859c-1.395,4.48-4.514,7.102-9.006,7.153
		c-3.803,0.044-6.752-2.086-8.489-5.794c-1.396-2.979-0.08-5.746,0.76-8.179c7.188-20.827,8.941-42.347,7.598-64.052
		c-1.154-18.635-5.87-36.603-13.296-53.841c-6.171-14.324-14.165-27.541-23.948-39.586c-8.982-11.058-18.948-21.234-30.732-29.444
		c-5.311-3.7-6.359-8.134-3.197-13.201c2.624-4.204,7.167-4.94,12.559-2.092c5.178,2.736,9.276,6.925,13.493,10.768
		c15.974,14.558,29.652,30.984,40.181,50.043c10.381,18.792,17.291,38.746,20.845,59.773
		C751.463,292.396,752.986,302.469,752.002,311.105z"/>
	<path class="st2" d="M569.767,384.274c-9.183,0.622-20.653-0.913-32.078,0.664c-2.255,0.311-4.015-0.828-3.597-3.436
		c2.035-12.73,0.537-25.536,0.913-38.3c0.22-7.487,0.024-14.986,0.044-22.48c0.024-9.101-0.633-18.146-1.958-27.151
		c-0.835-5.671-0.257-6.286,5.438-6.295c4.996-0.008,9.995-0.128,14.987,0.021c15.619,0.468,31.171-1.542,46.803-1.156
		c4.655,0.115,5.768,1.93,4.354,5.603c-1.302,3.384,0.302,6.973-1.41,10.266c-0.932,1.79,0.868,4.825-1.698,5.808
		c-3.039,1.163-6.321,2.019-9.701,1.316c-5.167-1.073-10.359-1.827-15.66-1.878c-13.547-0.131-12.053-0.546-12.199,12.598
		c-0.036,3.173,1.026,4.681,4.323,4.435c6.431-0.48,12.921,0.832,19.335-0.908c2.808-0.763,4.433,0.112,4.515,3.766
		c0.124,5.512-1.177,10.857-1.181,16.322c-0.001,1.763-1.069,3.126-2.816,2.63c-6.869-1.951-13.947,0.222-20.768-1.236
		c-2.098-0.448-2.337,0.205-2.345,1.766c-0.024,4.662-0.052,9.326-0.002,13.988c0.04,3.741,3.162,3.474,5.331,3.395
		c11.387-0.42,22.767-1.073,34.141-1.766c3.582-0.219,4.832,1.357,4.519,4.724c-0.414,4.436-0.565,8.903-1.187,13.307
		c-0.354,2.507-1.492,4.21-4.88,4.11C592.673,384.08,582.342,384.274,569.767,384.274z"/>
	<path class="st2" d="M690.395,383.271c-2.164,0.003-4.354-0.208-6.487,0.045c-5.29,0.627-8.754-1.863-11.373-6.116
		c-4.414-7.17-9.906-13.536-15.025-20.185c-1.097-1.424-2.345-2.206-3.844-2.854c-3.386-1.462-5.462-0.133-4.476,3.424
		c1.938,6.991-0.293,14.225,1.761,21.186c0.627,2.123,0.098,4.625-3.068,4.458c-8.31-0.438-16.491,1.537-24.812,1.123
		c-3.478-0.174-4.751-1.868-3.855-4.704c1.197-3.795,0.782-7.569,0.799-11.349c0.074-16.98,0.061-33.961,0.021-50.941
		c-0.021-9.083-0.682-18.13-1.882-27.134c-0.372-2.796,0.846-3.91,3.629-3.981c5.446-0.14,10.897-0.4,16.332-0.704
		c11.164-0.626,22.354-2.663,33.627-0.335c11.641,2.405,20.793,8.279,25.093,19.367c4.57,11.782,2.658,22.989-6.793,32.207
		c-1.429,1.394-2.746,2.938-4.327,4.13c-4.872,3.673-4.992,3.704-0.503,7.989c5.875,5.609,11.112,11.864,17.65,16.817
		c3.556,2.694,4.384,13.048,1.607,16.113c-0.993,1.097-2.491,1.499-4.084,1.464C697.055,383.218,693.725,383.269,690.395,383.271z
		 M653.771,335.146c7.091,0.917,12.033-2.015,14.725-7.989c2.972-6.597,2.552-13.56-2.343-18.93
		c-3.811-4.181-9.122-6.098-15.301-4.176c-2.271,0.706-2.86,1.477-2.836,3.601c0.082,7.138,0.301,14.291-0.065,21.41
		C647.706,333.844,648.614,336.577,653.771,335.146z"/>
	<path class="st2" d="M666.045,426.784c0.564,7.312-1.225,14.588-0.852,21.804c0.917,17.762,0.235,35.548,1.148,53.268
		c0.335,6.496-0.327,13.215,1.552,19.685c0.856,2.95,0.173,5.068-3.868,4.799c-8.781-0.584-17.546,0.275-26.301,0.939
		c-3.157,0.239-4.016-0.728-3.868-4.254c0.915-21.904,1.861-43.832,1.007-65.747c-0.218-5.588-0.861-11.203-0.784-16.823
		c0.044-3.242-1.312-3.455-4.04-2.748c-4.28,1.108-8.839,1.327-12.959,2.812c-3.241,1.167-3.774-0.673-4.671-2.595
		c-0.336-0.72-0.242-1.628-0.443-2.425c-1.034-4.1-4.543-8.311-2.453-12.244c1.921-3.616,7.196-3.402,10.909-5.067
		c10.516-4.712,21.155-9.149,31.614-13.98c5.598-2.586,15.33,0.518,14.622,6.234c-0.346,2.798-0.505,5.564-0.595,8.353
		C665.978,421.454,666.045,424.12,666.045,426.784z"/>
	<path class="st2" d="M528.879,495.27c-4.164,0.001-8.333-0.129-12.489,0.048c-2.687,0.114-3.349-0.973-3.4-3.496
		c-0.146-7.141,0.71-14.22,0.978-21.325c0.712-18.938-1.565-37.839-1.016-56.796c0.113-3.908-1.15-7.813-0.968-11.828
		c0.106-2.329,0.436-3.411,3.227-3.701c10.532-1.093,21.118-1.147,31.65-1.988c7.938-0.635,15.756-0.593,23.256,2.082
		c11.815,4.214,19.598,12.79,21.57,24.988c1.957,12.103-0.246,23.814-10.428,32.383c-10.076,8.479-21.444,14.053-34.864,14.646
		c-2.479,0.109-3.749,1.067-2.984,3.781c1.634,5.792-0.228,11.872,1.523,17.723c0.716,2.394-1.088,3.54-3.564,3.501
		C537.208,495.221,533.042,495.269,528.879,495.27z M542.05,433.809c0,4.82,0.052,9.642-0.024,14.46
		c-0.032,2.021,0.561,2.87,2.787,3.062c8.574,0.741,14.812-3.46,17.58-11.697c0.95-2.828,0.592-5.575,0.61-8.346
		c0.072-10.546-6.351-16.49-16.849-16.068c-2.955,0.118-4.223,1.114-4.142,4.13C542.143,424.166,542.048,428.989,542.05,433.809z"/>
	<path class="st2" d="M444.436,162.293c3.682-0.168,7.003,0.279,7.978,3.987c0.94,3.58,2.037,7.526-1.49,10.605
		c-4.974,4.34-10.121,8.493-14.938,13c-21.798,20.392-36.859,45.016-45.887,73.422c-2.465,7.757-7.807,9.89-14.453,6.245
		c-4.785-2.624-4.351-7.079-3.159-10.878c7.16-22.815,18.091-43.655,33.001-62.469c9.102-11.484,19.736-21.297,30.854-30.679
		C438.734,163.509,441.235,161.447,444.436,162.293z"/>
	<path class="st2" d="M273.045,253.818c0,2.662-0.147,5.335,0.033,7.985c0.292,4.302-1.508,7.12-5.222,9.275
		c-6.543,3.799-15.266,2.744-20.248-2.711c-1.769-1.937-2.564-4.068-2.611-6.723c-0.107-6.134,0.446-12.271-0.314-18.412
		c-0.259-2.095,0.194-4.357,3.45-3.991c2.672,0.3,6.017-0.842,5.93,3.808c-0.097,5.156,0.165,10.325-0.077,15.473
		c-0.188,3.977,1.907,6.445,5.28,6.348c3.043-0.087,5.078-2.543,4.844-6.306c-0.279-4.476-0.024-8.982-0.08-13.475
		c-0.039-3.119-0.339-5.878,4.384-5.939c5.006-0.064,4.732,2.866,4.646,6.182C272.987,248.159,273.045,250.989,273.045,253.818z"/>
	<path class="st2" d="M305.048,256.373c0-4.331,0.133-8.668-0.042-12.992c-0.141-3.477,1.637-4.137,4.631-4.171
		c3.185-0.037,4.73,1.063,4.418,4.354c-0.079,0.826-0.136,1.688,0.016,2.493c0.317,1.678-1.097,4.251,1.02,4.889
		c2.919,0.88,3.039-2.313,4.054-4.021c2.138-3.597,3.213-8.212,9.033-7.709c4.199,0.363,4.915,1.343,2.816,5.179
		c-1.425,2.603-2.613,5.431-4.493,7.665c-2.258,2.684-1.309,4.835,0.101,7.21c1.849,3.114,3.699,6.229,5.553,9.341
		c1.374,2.307,1.221,3.48-1.949,3.736c-4.83,0.389-8.455-0.709-10.094-5.752c-0.455-1.4-1.343-2.653-1.959-4.008
		c-0.496-1.091-0.972-2.312-2.417-2.004c-1.312,0.28-1.676,1.45-1.676,2.71c0.001,1.999-0.125,4.005,0.01,5.995
		c0.243,3.581-1.844,4.032-4.733,4.036c-2.838,0.005-4.413-0.8-4.319-3.959C305.145,265.038,305.048,260.704,305.048,256.373z"/>
	<path class="st2" d="M200.008,239.281c4.396,0.145,10.565-0.709,13.178,6.446c0.224,0.612,0.923,1.435,0.73,1.759
		c-3.187,5.346,0.394,10.117,0.995,15.169c0.641,5.385-3.515,9.456-8.976,9.586c-4.452,0.105-8.764,1.526-13.287,1.089
		c-2.459-0.237-3.625-1.099-3.612-3.63c0.045-8.966,0.044-17.932,0.002-26.897c-0.012-2.558,1.201-3.603,3.665-3.533
		C194.694,239.326,196.688,239.281,200.008,239.281z M201.124,266.215c1.724-0.846,5.46,0.054,5.688-3.346
		c0.22-3.284-2.477-4.517-5.656-4.624c-2.899-0.099-4.221,0.982-4.151,4.001C197.063,264.774,197.685,266.454,201.124,266.215z
		 M201.642,246.33c-2.383-0.137-4.383-0.062-4.566,2.757c-0.14,2.147,0.101,4.126,2.912,4.145c2.143,0.015,4.452,0.036,5.007-2.773
		C205.559,247.6,203.637,246.759,201.642,246.33z"/>
	<path class="st2" d="M586.865,486.539c-8.984,1.003-13.85-6.227-10.84-12.901c1.654-3.668,4.677-4.145,8.09-4.53
		c6.679-0.754,13.311-1.987,20.001-2.554c4.413-0.375,8.432,3.459,8.915,7.674c0.519,4.525-2.482,9.126-7.063,9.896
		C599.643,485.186,593.236,485.757,586.865,486.539z"/>
</g>
</svg>
