<?xml version="1.0" encoding="utf-8"?>
<!-- Generator: Adobe Illustrator 16.0.0, SVG Export Plug-In . SVG Version: 6.00 Build 0)  -->
<!DOCTYPE svg PUBLIC "-//W3C//DTD SVG 1.1//EN" "http://www.w3.org/Graphics/SVG/1.1/DTD/svg11.dtd" [
	<!ENTITY ns_flows "http://ns.adobe.com/Flows/1.0/">
	<!ENTITY ns_extend "http://ns.adobe.com/Extensibility/1.0/">
	<!ENTITY ns_ai "http://ns.adobe.com/AdobeIllustrator/10.0/">
	<!ENTITY ns_graphs "http://ns.adobe.com/Graphs/1.0/">
	<!ENTITY ns_vars "http://ns.adobe.com/Variables/1.0/">
	<!ENTITY ns_imrep "http://ns.adobe.com/ImageReplacement/1.0/">
	<!ENTITY ns_sfw "http://ns.adobe.com/SaveForWeb/1.0/">
	<!ENTITY ns_custom "http://ns.adobe.com/GenericCustomNamespace/1.0/">
	<!ENTITY ns_adobe_xpath "http://ns.adobe.com/XPath/1.0/">
]>
<svg version="1.1" id="Layer_1" xmlns:x="&ns_extend;" xmlns:i="&ns_ai;" xmlns:graph="&ns_graphs;"
	 xmlns="http://www.w3.org/2000/svg" xmlns:xlink="http://www.w3.org/1999/xlink" xmlns:a="http://ns.adobe.com/AdobeSVGViewerExtensions/3.0/"
	 x="0px" y="0px" width="850.391px" height="850.39px" viewBox="0 0 850.391 850.39" enable-background="new 0 0 850.391 850.39"
	 xml:space="preserve">
<metadata><?xpacket begin="﻿" id="W5M0MpCehiHzreSzNTczkc9d"?>
<x:xmpmeta xmlns:x="adobe:ns:meta/" x:xmptk="Adobe XMP Core 5.3-c011 66.145661, 2012/02/06-14:56:27        ">
   <rdf:RDF xmlns:rdf="http://www.w3.org/1999/02/22-rdf-syntax-ns#">
      <rdf:Description rdf:about=""
            xmlns:xmp="http://ns.adobe.com/xap/1.0/"
            xmlns:xmpGImg="http://ns.adobe.com/xap/1.0/g/img/">
         <xmp:CreatorTool>Adobe Illustrator CS6 (Macintosh)</xmp:CreatorTool>
         <xmp:CreateDate>2019-09-16T19:39:40+08:00</xmp:CreateDate>
         <xmp:Thumbnails>
            <rdf:Alt>
               <rdf:li rdf:parseType="Resource">
                  <xmpGImg:width>160</xmpGImg:width>
                  <xmpGImg:height>256</xmpGImg:height>
                  <xmpGImg:format>JPEG</xmpGImg:format>
                  <xmpGImg:image>/9j/4AAQSkZJRgABAgEASABIAAD/7QAsUGhvdG9zaG9wIDMuMAA4QklNA+0AAAAAABAASAAAAAEA&#xA;AQBIAAAAAQAB/+4ADkFkb2JlAGTAAAAAAf/bAIQABgQEBAUEBgUFBgkGBQYJCwgGBggLDAoKCwoK&#xA;DBAMDAwMDAwQDA4PEA8ODBMTFBQTExwbGxscHx8fHx8fHx8fHwEHBwcNDA0YEBAYGhURFRofHx8f&#xA;Hx8fHx8fHx8fHx8fHx8fHx8fHx8fHx8fHx8fHx8fHx8fHx8fHx8fHx8fHx8f/8AAEQgBAACgAwER&#xA;AAIRAQMRAf/EAaIAAAAHAQEBAQEAAAAAAAAAAAQFAwIGAQAHCAkKCwEAAgIDAQEBAQEAAAAAAAAA&#xA;AQACAwQFBgcICQoLEAACAQMDAgQCBgcDBAIGAnMBAgMRBAAFIRIxQVEGE2EicYEUMpGhBxWxQiPB&#xA;UtHhMxZi8CRygvElQzRTkqKyY3PCNUQnk6OzNhdUZHTD0uIIJoMJChgZhJRFRqS0VtNVKBry4/PE&#xA;1OT0ZXWFlaW1xdXl9WZ2hpamtsbW5vY3R1dnd4eXp7fH1+f3OEhYaHiImKi4yNjo+Ck5SVlpeYmZ&#xA;qbnJ2en5KjpKWmp6ipqqusra6voRAAICAQIDBQUEBQYECAMDbQEAAhEDBCESMUEFURNhIgZxgZEy&#xA;obHwFMHR4SNCFVJicvEzJDRDghaSUyWiY7LCB3PSNeJEgxdUkwgJChgZJjZFGidkdFU38qOzwygp&#xA;0+PzhJSktMTU5PRldYWVpbXF1eX1RlZmdoaWprbG1ub2R1dnd4eXp7fH1+f3OEhYaHiImKi4yNjo&#xA;+DlJWWl5iZmpucnZ6fkqOkpaanqKmqq6ytrq+v/aAAwDAQACEQMRAD8A9U4q7FXYq7FXYq7FXYq0&#xA;7pGjSSMERAWZmNAANySTir5y/N//AJy00vSfX0byH6epakKpLrLjlaxHp+5X/dzD+b7H+tir5P1v&#xA;Xta13UJdR1m+m1C+mJaS4uHaRjXsOR2A7AbDFU18lfmL5y8l6il95e1KW0KmsltyLW8o7rLCfgYf&#xA;RUdiDir7V/Jb8/PL35jWos5gmm+Z4UrcaYzfDKAPiktid3XapX7S96jcqvVMVdirsVdirsVdirsV&#xA;dirsVdirsVdirsVdirsVfHP/ADkx+fl3rmpXXkvy1ctDoNm7Q6pdRMVN5MvwvGCP90oajwc77imK&#xA;vnjFXYq7FUTpupahpeoW+o6dcPa31q6y21zExV0dTUMpGKvuP8g/z80/8wdPXSdWZLXzdapWaEUV&#xA;LtFG80I/m/nTt1G3RV7DirsVdirsVdirsVdirsVdirsVdirsVdirzL/nIf8AMc+R/wAubye1l9PW&#xA;dVrYaWQaMryKfUmHh6UdSD/Nx8cVfn+SSancnFXYq7FXYq7FUZo+r6lo2q2uq6ZcNa6hZSrNbXCf&#xA;aR0NQfA+4Ox74q/Rj8sPPNr548j6X5kgAjkuo+N5AvSK5jPCZN96BwSteq0OKspxV2KuxV2KuxV2&#xA;KuxV2KuxV2KuxV2KviT/AJy586nXPzJXQ4JOVl5chEFAaqbmcCWdhv2HBD7qcVeG4q7FXYq7FXYq&#xA;7FX1H/zhR5tcT6/5RmeqMqapZoTsCpEFxQe/KL7sVfVWKuxV2KuxV2KuxV2KuxV2KuxV2KqN9eQW&#xA;VlcXtw3C3to3mmbwSNSzH7hir8x9f1i61vXdR1m6/wB6dSuZrubevxzuZGH3tiqAxV2KuxV2KuxV&#xA;2KvUf+cZ9cOk/nNoBLcYb5pbGUVpX14mEY/5GhMVffmKuxV2KuxV2KuxV2KuxV2KuxV2KsK/Ou+l&#xA;sfyl82TxVDnTLiIEbEeshiJ+gPir858VdirsVdirsVdirsVZB+X13LZ+ffLd3ECZLfVLKRQoqSVu&#xA;ENAO9cVfpbirsVdirsVdirsVdirsVdirsVdiqX+YtEtNd0HUdFvB/oupW0tpMaVIWZChI9xWoxV+&#xA;Z+t6ReaNrN9pF6vC80+4ltbhfCSFyjfiuKoLFXYq7FXYq7FXYqy38o9NbUvzR8qWiiobVbR3A/ki&#xA;mWR/+FQ4q/SDFXYq7FXYq7FXYq7FXYq7FXYq7FXYq+Jf+cuvJQ0P8x49cgTjZ+ZIfXNBQC6t+Mc4&#xA;HzUxufdjirwzFXYq7FXYq7FXYq9o/wCcSfL51T83re9ZaxaLaXF4x7cnUWyA+/7+o+WKvuXFXYq7&#xA;FXYq7FXYq7FXYq7FUs8x+Z/L/lrSpdV16/h07T4vtTzNQE9lUCrOx7KoJOKvDPMf/OaHkazZ49C0&#xA;i91eRfsyylLOFj7E+rJ98YxV5f5i/wCcxfzO1DkmkW9hosR+y8cRuJh82nLRn/kXiryrzb+YfnXz&#xA;e0LeZdXn1MW5ZoElKhIy/wBooiBVWtOwxVjuKuxV2KuxV2KuxVlPkL8zfOXkO7ubryzeJaSXirHd&#xA;B4YZg6oSVH71WK0LfskYq9P0v/nMn80baRPrtnpd/EP7wNDLE5FezRyhQf8AYnFXrXk7/nMP8vtW&#xA;9ODzDa3Pl+6agaUj61a1O395GBIPpjoPHFXtmia9omu6emo6LfQajYybJc20iyJUdVqpNCO4O4xV&#xA;H4q7FXYq7FXYq8T/ADu/5yU0jyHPJoWiQx6r5nC/vlZv9GtKio9bieTv/wAVgjbckbAqvj3zl578&#xA;2ectUOp+Y9RlvrjcRIxpFEpNeEUa0RF+Q+eKpBirsVdirsVdirsVdirsVdirsVdirsVZB5L8/ebf&#xA;JeqDUvLmoyWUxp60YPKGVR+zLE1UcfMbdqYq+wvyT/5yU0bz5PHoetQppPmcr+6RWP1a6IFT6JY8&#xA;lfv6bE7dCeyr2vFXYq7FWHfm559h8i+QdU8wEqbuJPR06J+j3UvwxCncKfjYfyg4q/Om9vLu+vJ7&#xA;28lae7uZGmuJ5Dyd5HJZmYnqSTXFVHFXYq7FXYq7FXYq7FXYq7FXYq7FXYq7FXYqrWV5d2N5Be2c&#xA;rQXdtIs1vPGeLpIhDKykdCCK4q/Rj8p/Ptt568h6Z5hjKi5lT0tRhX/dd1F8Mq07An4l/wAkjFWX&#xA;4q7FXxr/AM5gfmGdX832/k+zetjoA9S8p0e9nQGn/PKIgfNmGKvnzFXYq7FXYq7FXYq7FXYq7FXY&#xA;q7FXYq7FXYq7FXYq+gv+cPvzC/Q/nC58o3b0sfMC+pZ1OyXkClqeA9WIEHxKqMVfZeKqV1cwWtrN&#xA;dXDiOCBGllc9FRAWY/QBir8yfMutT675i1TWp6+tqd3PdyA9jNIXp9HKmKpbirsVdirsVdirsVdi&#xA;rsVdirsVdirsVdirsVdirsVTHy7rNxoev6brNtX19NuobuKhpVoZA4H08cVfptZ3cF5ZwXlu3O3u&#xA;Y0mhcdGR1DKfpBxVgP8AzkH5h/QX5P8AmS5VuM1zbfUIabEteMIGp8kdm+jFX57Yq7FXYq7FXYq7&#xA;FXYq7FXYq7FXYq7FXYq7FXYq7FXYq7FX6E/849+YTrv5PeW7l35TW1v9Qmr1Bs3MC1+aIrfTirzf&#xA;/nNbWzb+TdA0VTQ6hfvctv1S0i4kfLlcqcVfH2KuxV2KuxV2KuxV2KuxV2KuxV2KuxV2KuxV2Kux&#xA;V2KuxV9h/wDOFWuG58l67orNVtOv0uFHcJdxBQPlyt2OKsB/5zS1hrjz7o2lA1jsNN9Y+0lzM4Yf&#xA;8DCmKvnrFXYq7FXYq7FXYq7FXYq7FXYq7FXYq7FXYq7FXYq7FXYq+gv+cL9Z+rfmFq2ls1I9Q01p&#xA;FFestvMhUU/1JHOKsb/5ysu/X/OvV4q1+qwWcVKUpW2SWnv/AHmKvIcVdirsVdirsVdirsVdirsV&#xA;dirsVdirsVdirsVdirsVdir1z/nFW49L87dFj5EfWIbyOg6GlrJJQ+3wVxVJv+cg74Xv5zeapga8&#xA;LsQVJ5f7zxJDSp8PT+jFXnmKuxV2KuxV2KuxV2KuxV2KuxV2KuxV2KuxV2KuxV2KuxV6H/zj5fix&#xA;/ObyrMTTndmCoNP96Inh7V/35irHvzHv/wBIfmF5nvuXIXOq3sqnf7LXDlRvvQDpirHcVdirsVdi&#xA;rsVdirsVdirsVdirsVdirsVdirsVdirsVdiqfeQb79H+evLl/Wn1TVLOf/kXcI3f5YqlF9dPd3tx&#xA;dvXncSvK1TU1dixqe/XFVDFXYq7FXYq7FXYq7FXYq7FXYq7FXYq7FXYq7FXYq7FXYqvhleGZJozR&#xA;42Doeu6moxVaysrFWBVlNCDsQRirWKuxV2KuxV2KuxV2KuxV2KuxV2KuxV2KuxV2KuxV2KuxV2Kp&#xA;p5rtPqfmjWLOlPq19cw0rWnpzMvX6MVSvFXYq7FXYq7FXYq7FXYq7FXYq7FXYq7FXYq7FXYq7FXY&#xA;qmPlyyN95h0uyAqbq7ghpStfUlVeh69cVTz83bP6n+afm6CnFRq966KBQBZJ3dQB/qsMVYlirsVd&#xA;irsVdirsVdirsVdirsVdirsVdirsVdirsVdirsVZd+UFl9d/NTylbkclOrWbutOVVjnWRgR4UXfF&#xA;U7/5yOtPqn51+aIqU5TwzUrX++topf8AjfFXm2KuxV2KuxV2KuxV2KuxV2KuxV2KuxV2KuxV2Kux&#xA;V2KuxV6V/wA44Wgu/wA7PK8RAPGaaahJH9zayy9v9TFU6/5yzszb/nNfykU+t2lpMNqVpEIuvf8A&#xA;uuuKvG8VdirsVdirsVdirsVdirsVdirsVdirsVdirsVdirsVdir2D/nFC2eb86dLkVOQt7a8kc/y&#xA;gwNHX73A+nFWQf8AOaTw/wDKytJRYwJho8TSSjqwa6uAqkf5PE/fir5/xV2KuxV2KuxV2KuxV2Ku&#xA;xV2KuxV2KuxV2KuxV2KuxV2Kvf8A/nC97UfmXqiyAfWG0iUwMabAXMHMCp6kH7q4qt/5zN064g/M&#xA;zTr1lP1e80qIRvTbnFNKHX6Ayn6cVeBYq7FXYq7FXYq7FXYq7FXYq7FXYq7FXYq7FXYq7FXYq7FX&#xA;vf8Azhnp9zN+Z1/eIh+rWmlSiaTsGlmiCL824sfoOKvc/wDnKPyPaeZPyuvdR4gal5dBv7OXYH0x&#xA;QXEZJ7NGOVP5lXFXwjirsVdirsVdirsVdirsVdirsVdirsVdirsVdirsVdirsVfd3/OL3kSx8tfl&#xA;hZakFVtT8xKt/eTjr6bV+rxA/wAqRmv+szYqzT82LS4u/wAsPNltbCs8mkXojUCpY+g54j3bpir8&#xA;3cVdirsVdirsVdirsVdirsVdirsVdirsVdirsVdirsVdir9H/wAoLWe0/KzynBOpSZNKtC6HqOUK&#xA;tQ+++KstZVZSrAMrCjKdwQcVfnZ+dXkA+RfzE1PRIx/oDMLvTG8bWerIv/PM1jPuuKsGxV2KuxV2&#xA;KuxV2KuxV2KuxV2KuxV2KuxV2KuxV2Ks3/JnyC/nn8w9L0NlrYB/rWpt0paQENINt/j2Qe7Yq/RV&#xA;EREVEUKigBVAoAB0AGKt4q+VP+c1/Kc/1jQPN0YBtyjaTcnurgvcQfPkDL8qe+Kvl3FXYq7FXYq7&#xA;FXYq7FXYq7FXYq7FXYq7FXYq7FXYq+of+cKPKlybvX/NsgAtljXSbdu7OWS4mHtxAi+/FX1ZirsV&#xA;eLf85caZqF9+Ubmzt5LgWl/b3Nz6alikKpIrSMB+ypcVPbFXyB5U/LXz55tYf4d0O61CImn1lE4W&#xA;4PShnk4RA/NsVeqaH/zhv+Z16Y31O607SoiR6qPM80yg9aLEjRkj/jJir0e4/wCcJ/JzSk2/mHUY&#xA;4v2UkSCRh82Cxg/diqk3/OEvljiePmW9DU+EmCIgH3FRiqF/6Eh0v/qbZ/8ApCT/AKrYqhJf+cHj&#xA;RzD5zqd+CvptPkCwuvxpiqAn/wCcI9eUD0PNNrIf2udtIlPlR3xVAv8A84U+ew7BNd0spU8SfrAJ&#xA;Hao9M0+/FVv/AEJT59/6vmlffcf9UsVRcH/OEvmg8PX8y2SA09ThDK9D3pUpX8MVR8H/ADg/dNy9&#xA;fzjHH04+np5evjWtylMVRsP/ADg/YhKTeb5Xf+ZLBUFPkbh/14qiIP8AnCPQlJ9fzTdSDsEtY0Nf&#xA;pkfFVHUv+cI9MNu36M80zJcgHiLm2R0J7AlHQr898Veca3/ziN+b+n8jZwWWrqNx9UuVRiPlci33&#xA;xV53r/5a/mB5fP8AuZ8vX9mlaCZ7eQxE+AlUNGfobFX2N/zin5f1jRfymhXVLV7SS+vJ7y3ilBVz&#xA;DIqIjFTuOXpkj2ocVexYq//Z</xmpGImg:image>
               </rdf:li>
            </rdf:Alt>
         </xmp:Thumbnails>
      </rdf:Description>
      <rdf:Description rdf:about=""
            xmlns:xmpTPg="http://ns.adobe.com/xap/1.0/t/pg/"
            xmlns:stDim="http://ns.adobe.com/xap/1.0/sType/Dimensions#"
            xmlns:xmpG="http://ns.adobe.com/xap/1.0/g/">
         <xmpTPg:MaxPageSize rdf:parseType="Resource">
            <stDim:w>299.998915</stDim:w>
            <stDim:h>299.998743</stDim:h>
            <stDim:unit>Millimeters</stDim:unit>
         </xmpTPg:MaxPageSize>
         <xmpTPg:NPages>1</xmpTPg:NPages>
         <xmpTPg:HasVisibleTransparency>False</xmpTPg:HasVisibleTransparency>
         <xmpTPg:HasVisibleOverprint>False</xmpTPg:HasVisibleOverprint>
         <xmpTPg:PlateNames>
            <rdf:Seq>
               <rdf:li>Cyan</rdf:li>
               <rdf:li>Magenta</rdf:li>
               <rdf:li>Yellow</rdf:li>
               <rdf:li>Black</rdf:li>
            </rdf:Seq>
         </xmpTPg:PlateNames>
         <xmpTPg:SwatchGroups>
            <rdf:Seq>
               <rdf:li rdf:parseType="Resource">
                  <xmpG:groupName>Default Swatch Group</xmpG:groupName>
                  <xmpG:groupType>0</xmpG:groupType>
               </rdf:li>
            </rdf:Seq>
         </xmpTPg:SwatchGroups>
      </rdf:Description>
      <rdf:Description rdf:about=""
            xmlns:dc="http://purl.org/dc/elements/1.1/">
         <dc:format>image/svg+xml</dc:format>
      </rdf:Description>
   </rdf:RDF>
</x:xmpmeta>
                                                                                                    
                                                                                                    
                                                                                                    
                                                                                                    
                                                                                                    
                                                                                                    
                                                                                                    
                                                                                                    
                                                                                                    
                                                                                                    
                                                                                                    
                                                                                                    
                                                                                                    
                                                                                                    
                                                                                                    
                                                                                                    
                                                                                                    
                                                                                                    
                                                                                                    
                                                                                                    
                           
<?xpacket end="w"?>
	</metadata>
<path fill="#050505" d="M348.365,247.396c-1.521-8.188-4.893-15.283-7.511-22.632c-2.7-7.578-5.199-15.229-7.935-22.794
	c-1.854-5.125-1.729-10.357-1.038-15.573c2.008-15.209,5.796-29.981,11.352-44.293c1.521-3.916,2.84-7.911,4.425-11.799
	c1.188-2.907,2.591-5.729,4-8.539c2.615-5.217,5.153-10.482,8.021-15.562c1.706-3.026,3.771-5.904,6.02-8.56
	c6.746-7.976,14.468-14.854,23.341-20.456c5.925-3.738,11.686-7.736,17.438-11.733c3.044-2.115,6.215-3.393,10.002-3.608
	c7.246-0.413,14.479-1.072,21.438,1.662c2.146,0.844,4.27,1.925,6.146,3.256c4.664,3.308,9.226,6.766,13.734,10.279
	c2.108,1.645,4.091,3.481,5.994,5.361c7.984,7.864,15.979,15.721,23.856,23.691c6.26,6.333,10.271,14.115,13.694,22.221
	c5.937,14.069,9.268,28.853,11.808,43.835c1.306,7.703,2.662,15.409,2.248,23.292c-0.706,13.44-2.854,26.654-6.068,39.708
	c-0.922,3.739-1.88,7.47-2.786,11.213c-0.211,0.869-0.273,1.771-0.479,3.103c6.383,0.763,12.479,1.671,18.613,2.175
	c5.961,0.49,11.752,1.447,17.396,3.521c7.881,2.893,15.896,5.431,23.786,8.29c2.258,0.818,4.331,2.171,6.443,3.362
	c3.342,1.885,6.67,3.798,9.96,5.773c5.353,3.213,10.892,6.024,15.793,10.083c5.066,4.201,8.721,9.229,11.558,14.958
	c4.705,9.504,9.18,19.122,13.843,28.646c2.837,5.792,4.805,11.871,6.324,18.102c2.357,9.629,4.782,19.247,6.893,28.932
	c2.43,11.162,4.588,22.383,6.771,33.595c1.205,6.18,2.256,12.391,3.309,18.599c0.271,1.605,0.338,3.248,0.41,4.876
	c0.611,13.389,1.431,26.752,3.162,40.061c1.205,9.238,2.055,18.529,2.884,27.812c0.604,6.73,1.262,13.482,1.271,20.227
	c0.008,7.908-0.477,15.834-1.082,23.727c-0.972,12.537-2.277,25.051-3.339,37.582c-0.874,10.334-1.646,20.678-2.368,31.021
	c-0.354,4.998-0.422,10.016-0.752,15.016c-0.114,1.725-0.594,3.432-0.972,5.133c-0.56,2.492-1.192,4.967-1.744,7.463
	c-0.122,0.562-0.094,1.17-0.021,1.746c0.604,5.066,1.583,10.117,1.776,15.197c0.312,8.275-0.134,16.498-4.727,23.889
	c-1.774,2.867-3.279,5.914-4.816,8.926c-1.511,2.951-1.966,5.98-1.616,9.404c0.396,3.896-0.609,7.918-0.345,11.84
	c0.549,8.127-3.656,14.822-6.121,22.033c-0.854,2.48-2.378,4.736-3.661,7.061c-1.979,3.574-2.288,7.562-2.854,11.475
	c-0.507,3.479-1.169,6.916-3.049,9.955c-2.104,3.402-2.42,7.23-2.632,11.061c-0.154,2.795-0.019,5.605-0.036,8.41
	c-0.026,4.486-2.955,7.262-6.218,9.502c-1.216,0.834-3.467,0.842-5.016,0.404c-12.938-3.646-26.166-5.871-39.342-8.391
	c-1.133-0.217-2.354-0.488-3.28-1.107c-1.623-1.078-3.329-1.465-5.229-1.736c-5.42-0.77-10.766-1.449-16.314-1.01
	c-7.087,0.559-14.235,0.221-21.354,0.439c-12.473,0.385-24.941,0.857-37.411,1.369c-10.137,0.416-20.266,1.021-30.4,1.395
	c-9.324,0.344-18.666,0.805-27.988,0.637c-11.537-0.207-23.062-1.035-34.597-1.553c-11.531-0.518-23.062-1.104-34.604-1.441
	c-14.581-0.428-29.167-0.643-43.752-0.928c-1.159-0.02-2.32,0.154-3.48,0.189c-4.096,0.117-8.154-0.002-12.178-1.006
	c-1.539-0.385-3.191-0.309-5.083-0.465c-0.539,3.793-3.073,4.75-6.228,5.131c-11.635,1.406-22.948,4.166-33.854,8.488
	c-6.44,2.553-9.806-0.738-12.814-4.676c-0.662-0.867-0.763-2.482-0.544-3.646c1.072-5.725,0.204-11.381-0.396-17.041
	c-0.115-1.104-0.771-2.211-1.383-3.186c-2.694-4.281-3.514-9.078-4.048-13.975c-0.578-5.312-2.571-10.104-5.386-14.576
	c-0.368-0.586-0.731-1.189-0.995-1.822c-0.712-1.727-1.249-3.531-2.067-5.201c-3.172-6.473-3.965-13.297-3.594-20.418
	c0.191-3.67,0.012-7.414-0.521-11.051c-0.379-2.582-1.461-5.109-2.532-7.527c-1.038-2.336-2.438-4.514-3.729-6.73
	c-3.311-5.689-4.84-11.875-4.794-18.395c0.038-5.574,0.438-11.146,0.679-16.719c0.012-0.232-0.022-0.5,0.071-0.693
	c2.152-4.203,0.159-8.188-0.604-12.246c-0.387-2.051-0.705-4.123-0.87-6.199c-0.938-11.729-1.793-23.463-2.719-35.191
	c-0.479-6.039-1.068-12.061-1.543-18.104c-0.512-6.502-0.934-13.018-1.405-19.521c-0.579-7.895-1.394-15.793-1.702-23.705
	c-0.313-7.998-0.414-16.012,0.658-24.002c0.569-4.266,0.558-8.604,0.96-12.895c0.707-7.541,1.564-15.068,2.292-22.607
	c0.725-7.537,1.464-15.074,2.007-22.625c0.795-11.037,1.312-22.084,3.472-32.987c1.976-9.946,3.396-20.006,5.565-29.906
	c3.119-14.241,6.614-28.402,10.107-42.558c1.339-5.421,3.335-10.625,5.894-15.641c3.124-6.129,5.816-12.477,8.819-18.67
	c2.292-4.725,4.523-9.507,7.231-13.994c4.276-7.085,10.458-12.251,17.646-16.305c6.069-3.426,12.058-7.011,18.047-10.582
	c2.704-1.612,5.222-3.568,8.021-4.98c2.046-1.032,4.382-1.554,6.638-2.096c14.856-3.569,29.724-7.12,44.606-10.576
	C343.198,247.735,345.672,247.699,348.365,247.396z"/>
</svg>
