<?xml version="1.0" encoding="utf-8"?>
<!-- Generator: Adobe Illustrator 16.0.0, SVG Export Plug-In . SVG Version: 6.00 Build 0)  -->
<!DOCTYPE svg PUBLIC "-//W3C//DTD SVG 1.1//EN" "http://www.w3.org/Graphics/SVG/1.1/DTD/svg11.dtd" [
	<!ENTITY ns_flows "http://ns.adobe.com/Flows/1.0/">
	<!ENTITY ns_extend "http://ns.adobe.com/Extensibility/1.0/">
	<!ENTITY ns_ai "http://ns.adobe.com/AdobeIllustrator/10.0/">
	<!ENTITY ns_graphs "http://ns.adobe.com/Graphs/1.0/">
	<!ENTITY ns_vars "http://ns.adobe.com/Variables/1.0/">
	<!ENTITY ns_imrep "http://ns.adobe.com/ImageReplacement/1.0/">
	<!ENTITY ns_sfw "http://ns.adobe.com/SaveForWeb/1.0/">
	<!ENTITY ns_custom "http://ns.adobe.com/GenericCustomNamespace/1.0/">
	<!ENTITY ns_adobe_xpath "http://ns.adobe.com/XPath/1.0/">
]>
<svg version="1.1" id="Layer_1" xmlns:x="&ns_extend;" xmlns:i="&ns_ai;" xmlns:graph="&ns_graphs;"
	 xmlns="http://www.w3.org/2000/svg" xmlns:xlink="http://www.w3.org/1999/xlink" xmlns:a="http://ns.adobe.com/AdobeSVGViewerExtensions/3.0/"
	 x="0px" y="0px" width="850.391px" height="850.39px" viewBox="0 0 850.391 850.39" enable-background="new 0 0 850.391 850.39"
	 xml:space="preserve">
<metadata><?xpacket begin="﻿" id="W5M0MpCehiHzreSzNTczkc9d"?>
<x:xmpmeta xmlns:x="adobe:ns:meta/" x:xmptk="Adobe XMP Core 5.3-c011 66.145661, 2012/02/06-14:56:27        ">
   <rdf:RDF xmlns:rdf="http://www.w3.org/1999/02/22-rdf-syntax-ns#">
      <rdf:Description rdf:about=""
            xmlns:xmp="http://ns.adobe.com/xap/1.0/"
            xmlns:xmpGImg="http://ns.adobe.com/xap/1.0/g/img/">
         <xmp:CreatorTool>Adobe Illustrator CS6 (Macintosh)</xmp:CreatorTool>
         <xmp:CreateDate>2019-09-16T19:40:24+08:00</xmp:CreateDate>
         <xmp:Thumbnails>
            <rdf:Alt>
               <rdf:li rdf:parseType="Resource">
                  <xmpGImg:width>84</xmpGImg:width>
                  <xmpGImg:height>256</xmpGImg:height>
                  <xmpGImg:format>JPEG</xmpGImg:format>
                  <xmpGImg:image>/9j/4AAQSkZJRgABAgEASABIAAD/7QAsUGhvdG9zaG9wIDMuMAA4QklNA+0AAAAAABAASAAAAAEA&#xA;AQBIAAAAAQAB/+4ADkFkb2JlAGTAAAAAAf/bAIQABgQEBAUEBgUFBgkGBQYJCwgGBggLDAoKCwoK&#xA;DBAMDAwMDAwQDA4PEA8ODBMTFBQTExwbGxscHx8fHx8fHx8fHwEHBwcNDA0YEBAYGhURFRofHx8f&#xA;Hx8fHx8fHx8fHx8fHx8fHx8fHx8fHx8fHx8fHx8fHx8fHx8fHx8fHx8fHx8f/8AAEQgBAABUAwER&#xA;AAIRAQMRAf/EAaIAAAAHAQEBAQEAAAAAAAAAAAQFAwIGAQAHCAkKCwEAAgIDAQEBAQEAAAAAAAAA&#xA;AQACAwQFBgcICQoLEAACAQMDAgQCBgcDBAIGAnMBAgMRBAAFIRIxQVEGE2EicYEUMpGhBxWxQiPB&#xA;UtHhMxZi8CRygvElQzRTkqKyY3PCNUQnk6OzNhdUZHTD0uIIJoMJChgZhJRFRqS0VtNVKBry4/PE&#xA;1OT0ZXWFlaW1xdXl9WZ2hpamtsbW5vY3R1dnd4eXp7fH1+f3OEhYaHiImKi4yNjo+Ck5SVlpeYmZ&#xA;qbnJ2en5KjpKWmp6ipqqusra6voRAAICAQIDBQUEBQYECAMDbQEAAhEDBCESMUEFURNhIgZxgZEy&#xA;obHwFMHR4SNCFVJicvEzJDRDghaSUyWiY7LCB3PSNeJEgxdUkwgJChgZJjZFGidkdFU38qOzwygp&#xA;0+PzhJSktMTU5PRldYWVpbXF1eX1RlZmdoaWprbG1ub2R1dnd4eXp7fH1+f3OEhYaHiImKi4yNjo&#xA;+DlJWWl5iZmpucnZ6fkqOkpaanqKmqq6ytrq+v/aAAwDAQACEQMRAD8A9U4q1JJHHG0kjBI0BZ3Y&#xA;0AA3JJPQDFXwB+bX5jap53853upyXMh02CZ49Ht6kJFbo1EZV7O4HJj4+wGKrNE/OX80tFCrYeZr&#xA;4Rp9iKeT60gA7BLgSqB7UxVnuj/85dfmVZ0XULXT9TTuzxPDJ/wUTqn/AAmKvQvKf/OYXlq+u1t/&#xA;Mmjy6PG5oL2CT63EPd0CRyKP9UNir3XRNe0XXdPj1HRr6HULKT7E9u4kWvgadCO4O4xVH4q7FXYq&#xA;7FXYq8e/5yc/MQeWPIj6RZy8dX8wcrWMKfiS1p/pEn0qfTH+t7Yq+KsVdirsVdiqceV/OHmfytqA&#xA;v/L+pTafc7czE3wOB+zJGao49mBGKvrD8l/+ckNO83SxaF5lEWm+YmottOp4W123QKvI/BKf5K0b&#xA;9n+XFXt2KuxV2KoHXdb03QtGvNY1OUQWFhE09xIeyoK0A7segHc7Yq/P78yPPuqeefNl3r9/VFkP&#xA;p2VtWqwW6E+nEPlWrHuxJxVjGKuxV2KuxV2KtqzKwZSQwNQRsQRir7A/5xu/O2bzTaf4V8xT8/MF&#xA;nHysrtz8V3Ag3DHvLGOp6su/UMcVe64q7FXzL/zl5+YLAWPkaykoGC32r8T1FSLeI09wZCP9U4q+&#xA;Y8VdirsVdirsVdirsVRekatqOj6pa6pps7W1/ZSLNbTp1V0NR8x4jvir9DPIHmj/ABV5M0fzAY1i&#xA;fUbZJZYkNVWT7Mig+AdTiqf4q/PD8zvMcvmT8wNe1mRiRc3kggqa0hiPpQr9EaKMVYxirsVdirsV&#xA;dirsVdirsVfc/wDzjd5e1TQ/yn0yPUWPqXzyX8ELV/dQXFGjXf8AmA9T/ZYq9PxV+cnnjR5dG856&#xA;5pUgIayvriEE91WVgrf7JaHFUkxV2KuxV2KuxV2KuxVXsWtUvrd7tS9osqG4RftNGGHMDpuVxV+k&#xA;2l3dheabaXensj2FxDHLaPHshidQyFQO3EimKonFXyP/AM5Z/l7NpnmeHzlaITp+tBYb0gbR3kSc&#xA;Vr2AliQEe6tirwHFXYq7FXYq7FXYq7FXYq+wP+cTPPUmseTrnyzdvyutAcfVierWlwWZR7+nIGHy&#xA;KjFXu2KsY/M6Ly0/kHXG8ywLc6PDaSTXELGhJjHKPg3VZOYHAj9qmKvzwxV2KuxV2KuxV2KuxV2K&#xA;vT/+ccPNn+HfzV0wSvwtNXDaZcV6VnI9H/kuqfRir7nxV4V/zl35nbT/ACFY6HE/GXW7seqv81va&#xA;ASOP+RrRYq+PsVdirsVdirsVdirsVdiq+3nmt547iBzHNCyyRSLsVZTVSD4gjFX6Af8AKxLP/lU/&#xA;+O9vT/Rf170/+L/T/uvn63wYq+af+cttea+/MuHS1esWkWMUZj7CWcmZj9KPH92KvEsVdirsVdir&#xA;sVdirsVdirsVesf8rFb/AKFw/wAJer/pX6Z+r+lX/jxp9cr/ANJG2KsV/N3WTrP5neZr/lyVtQmh&#xA;iYd47dvQjP8AwEYxViOKuxV2KuxV2KuxV2KuxV2KuqaUrt1piqte3LXV5PctXlPI8h5Gpq7Ftz36&#xA;4qo4q7FXYq7FXYq7FXYq7FXYqiPqcn1D67yHp+r6PHvXjyr8sVXatZiy1W8swai2nlhB6/3blf4Y&#xA;qhcVdirsVdirsVdirsVdirsVTP8A6Zn/AKPf+ZWKpj+ZdobT8xfNFsQQItWvVWu1V+sPxP0jFWN4&#xA;q7FXYq7FXYq7FXYq7FXYqyT04/8AlW/qcR6n6Z486b0+q1pXwxVNvz0tfq35ueaI6ceV60tAa/3y&#xA;LJX6eeKsFxV2KuxV2KuxV2KuxV2KuxVk3/lM/wDt9f8AYrirKf8AnJa29D86NfIUKswtJFA97OEM&#xA;f+CBxV5hirsVdirsVdirsVdirsVdirJv/KZ/9vr/ALFcVZ7/AM5X23pfm1LJRR9YsLaTbqaBo/i9&#xA;/g+7FXjmKuxV2KuxV2KuxV2KuxV2Ko765F+hPqVT6v1n1qduPp8fvrir2P8A5zAiRPzOsGUUMujw&#xA;O/zFzcL+pRirw7FXYq7FXYq7FXYq7FXYq7FXYq9+/wCcx4aeedFm4U56YE5068LiU0r7c/xxV4Di&#xA;rsVdirsVdirsVdirsVdirsVfR3/OZ0KDWvLEwrze2ukPhRJIyP8AiZxV844q7FXYq7FXYq7FXYq7&#xA;FXYq7FX03/zmn/0x3/by/wCxTFXzJirsVdirsVdirsVdirsVdirsVfTv/OaUTmLyfKB+7VtQVj7s&#xA;LYj/AIicVfMWKuxV2KuxV2KuxV2KuxV2KuxV9W/85l2Zfy35cvK7Q3k0JH/GWIN/zKxV8pYq7FXY&#xA;q7FXYq7FXYq7FXYq7FX2V/zlzamb8rLeSh/0bVLeU0p3imj3/wCRmKvjXFXYq7FXYq7FXYq7FXYq&#xA;7FVb6pL9S+ubel6no9d+XHl08KYq+3f+cm7P6x+TWtOBya2ktJgKVP8AvVGhI8KK5+jFXw5irsVd&#xA;irsVdirsVdirsVdirO/8Kf8AIEP8T8T6v+Ifqf8Azx+p8uX/ACM+HFX1v/zkJ/5JvzN/xhi/6iYs&#xA;VfBuKuxV2KuxV2KuxV2KuxVuOOSSRY41LyOQqIoqSTsAAOpOKvuD/lTlv/yof/Afpr+kfqXr867f&#xA;pP8Av+XL+X1vh/1NsVTn897OW7/KHzRFEKstp6xpv8MEiyt/wqHFXwLirsVdirsVdirsVdirsVeq&#xA;f841eUIfMn5o2TXSCSz0aNtTmQjZmhZVhHh/eyK1PAHFX3FiqC1yCzn0TUIL2n1OW2mS55dPSaMh&#xA;67j9mvfFX5rYq7FXYq7FXYq7FXYq7FX0p/zhhYwte+ar8sPWiis4EXvxlaV2PyrEuKvqLFWM/mfd&#xA;T2n5b+abm3BM0WlXrIR1U+g/xf7Hrir878VdirsVdirsVdirsVdir0X8g/O975V/MnSzG5+oatNH&#xA;p2oQ/stHcOER6eMbkN49R3xV944qpXVrb3drNa3May29wjRTROKq6OCrKR4EGmKvlHz1/wA4jeZ7&#xA;W+nufJ9zDqGmuxaGxuJPRuYwdwnNv3TgfzFl+WKvJtd/Kr8x9C5HVPLl/DGn2p1haaEU/wCLYucf&#xA;/DYqxZ0dHKOpV1NGVhQg+4OKtYq7FXYq7FXYqzL8mtNt9R/NTyva3DhIv0hDKSehMB9ZU/2bIF+n&#xA;FX6CYq7FXYq7FVOe3t504TxJKla8XUMK9OhxVBR+W/LsTh49Ls0dfsssEQI+RC4qiP0Xpn/LJD/y&#xA;LT+mKvjr86fyS/MC285a/r1lpDXeg3NxLex3VqUYJG9ZGDxBua8N6njTFXi+KuxVXsL670++t7+y&#xA;laC8tJEnt5l+0kkbBkYe4IxV98/47v8A/lTv+N/qy/X/ANC/pP6tv6fq/V/Up48OW/yxVm2KuxV2&#xA;KuxV2KuxVC6tp8WpaVe6dKeMV7BLbyGlaLKhQ7fJsVfnHr2gavoGq3Gl6tayWl7bOySRyKy14kjk&#xA;vIDkppsw2IxVPfK/5T/mL5oZf0NoN1NC3S6lT0IKf8ZpuCGnsa4q9n8l/wDOHl60sVz5w1aOKEEM&#xA;+n6fV3YdeLTyBQvvxRvnir6Z/Rlh+jP0X6K/o/0fqv1ffj6PDhw8acdsVf/Z</xmpGImg:image>
               </rdf:li>
            </rdf:Alt>
         </xmp:Thumbnails>
      </rdf:Description>
      <rdf:Description rdf:about=""
            xmlns:xmpTPg="http://ns.adobe.com/xap/1.0/t/pg/"
            xmlns:stDim="http://ns.adobe.com/xap/1.0/sType/Dimensions#"
            xmlns:xmpG="http://ns.adobe.com/xap/1.0/g/">
         <xmpTPg:MaxPageSize rdf:parseType="Resource">
            <stDim:w>299.998915</stDim:w>
            <stDim:h>299.998743</stDim:h>
            <stDim:unit>Millimeters</stDim:unit>
         </xmpTPg:MaxPageSize>
         <xmpTPg:NPages>1</xmpTPg:NPages>
         <xmpTPg:HasVisibleTransparency>False</xmpTPg:HasVisibleTransparency>
         <xmpTPg:HasVisibleOverprint>False</xmpTPg:HasVisibleOverprint>
         <xmpTPg:PlateNames>
            <rdf:Seq>
               <rdf:li>Cyan</rdf:li>
               <rdf:li>Magenta</rdf:li>
               <rdf:li>Yellow</rdf:li>
               <rdf:li>Black</rdf:li>
            </rdf:Seq>
         </xmpTPg:PlateNames>
         <xmpTPg:SwatchGroups>
            <rdf:Seq>
               <rdf:li rdf:parseType="Resource">
                  <xmpG:groupName>Default Swatch Group</xmpG:groupName>
                  <xmpG:groupType>0</xmpG:groupType>
               </rdf:li>
            </rdf:Seq>
         </xmpTPg:SwatchGroups>
      </rdf:Description>
      <rdf:Description rdf:about=""
            xmlns:dc="http://purl.org/dc/elements/1.1/">
         <dc:format>image/svg+xml</dc:format>
      </rdf:Description>
   </rdf:RDF>
</x:xmpmeta>
                                                                                                    
                                                                                                    
                                                                                                    
                                                                                                    
                                                                                                    
                                                                                                    
                                                                                                    
                                                                                                    
                                                                                                    
                                                                                                    
                                                                                                    
                                                                                                    
                                                                                                    
                                                                                                    
                                                                                                    
                                                                                                    
                                                                                                    
                                                                                                    
                                                                                                    
                                                                                                    
                           
<?xpacket end="w"?>
	</metadata>
<path fill="#161616" d="M337.438,285.362c-1.146,3.42-1.976,6.459-3.17,9.348c-3.177,7.678-5.396,15.641-7.438,23.67
	c-0.654,2.591-1.674,5.097-2.247,7.703c-1.479,6.709-2.858,13.442-4.179,20.186c-1.001,5.134-1.854,10.298-2.734,15.454
	c-0.142,0.797-0.077,1.626-0.144,2.438c-0.37,4.859-0.801,9.714-1.098,14.578c-0.111,1.848-0.316,3.841,0.227,5.542
	c0.771,2.415,0.724,4.792,0.851,7.23c0.27,5.2,0.742,10.389,1.146,15.582c0.377,4.88,0.782,9.757,1.146,14.644
	c0.4,5.458,0.795,10.917,1.149,16.376c0.349,5.234,0.619,10.475,0.964,15.709c0.406,6.16,0.902,12.314,1.272,18.479
	c0.336,5.582,0.585,11.17,0.816,16.758c0.487,11.645,0.688,23.291,1.479,34.906c0.881,12.924,1.381,25.842,1.376,38.797
	c-0.003,8.98,0.293,17.951,0.705,26.914c0.234,5.113,1.021,10.199,1.464,15.312c0.704,8.113,1.312,16.254,1.995,24.377
	c0.565,6.725,1.193,13.438,1.776,20.168c0.078,0.928,0.082,1.857,0.083,2.799c0.007,7.354,0.139,14.711-0.036,22.061
	c-0.15,6.309,1.236,12.291,3.331,18.129c0.896,2.512,1.206,4.98,0.846,7.533c-0.976,6.92-2.038,13.828-3.094,20.736
	c-0.357,2.34-0.39,4.596,0.438,6.895c2.391,6.615,6.321,11.252,13.415,13.543c9.146,2.951,18.543,4.611,27.856,6.666
	c4.951,1.094,10.167,0.986,15.262,1.438c2.902,0.256,5.801,0.562,8.705,0.811c1.044,0.094,2.099,0.105,3.146,0.082
	c12.79-0.293,25.58-0.602,38.371-0.895c0.339-0.01,0.679,0.094,1.15,0.166c1.035,2.281,1.041,4.75,0.761,7.123
	c-0.521,4.453,1.098,6.771,5.896,7.992c3.037,0.773,6.162,1.199,9.692,1.865c-0.189,1.379-0.302,2.838-0.61,4.25
	c-0.529,2.377-0.297,4.527,0.848,6.76c0.935,1.818,1.446,3.902,1.854,5.93c0.565,2.852,2.237,4.373,4.896,5.348
	c6.479,2.379,12.946,1.684,19.276-0.166c8.943-2.604,17.776-5.604,26.644-8.496c1.656-0.533,3.238-1.311,4.838-2.02
	c3.164-1.396,5.441-3.463,5.935-7.17c0.155-1.209,0.928-2.379,1.567-3.479c1.24-2.104,1.345-4.186,0.134-6.295
	c-0.93-1.613-1.977-3.164-2.873-4.793c-1.232-2.232-2.394-4.512-3.562-6.781c-0.315-0.615-0.412-1.412-0.856-1.893
	c-2.161-2.311-1.312-4.564-0.355-7.111c2.634-7.023,3.772-14.268,0.617-21.402c-1.539-3.48-3.691-6.727-5.863-9.869
	c-1.318-1.912-1.601-3.76-1.244-5.922c1.176-7.125,2.193-14.275,3.492-21.377c0.434-2.363,1.41-4.65,2.341-6.895
	c1.249-3.008,2.782-5.896,4.035-8.906c2.062-4.947,3.854-10.014,6.017-14.916c2.312-5.232,2.41-10.895,3.548-16.35
	c1.864-8.969,1.229-18.109,1.514-27.184c0.174-5.539,0.369-11.08,0.399-16.621c0.021-4.049-0.266-8.102-0.298-12.146
	c-0.016-1.971,0.349-3.939,0.354-5.914c0.033-13.316-0.035-26.641,0.048-39.959c0.024-4.188,0.539-8.377,0.598-12.564
	c0.047-3.256-0.271-6.516-0.419-9.771c-0.086-1.979-0.159-3.965-0.206-5.945c-0.239-10.494-0.062-21.023-0.836-31.48
	c-0.653-8.873-0.339-17.717-0.564-26.57c-0.157-6.061-0.45-12.125-0.435-18.186c0.026-7.583,0.312-15.164,0.488-22.744
	c0.039-1.633,0.143-3.266,0.172-4.898c0.166-9.217,0.191-18.438,0.523-27.648c0.205-5.696,0.896-11.374,1.326-17.063
	c0.581-7.672-1.058-15.137-2.818-22.462c-2.344-9.725-5.298-19.315-8.307-28.865c-3.427-10.884-7.14-21.679-10.854-32.468
	c-0.945-2.744-2.33-5.346-3.615-7.961c-2.103-4.276-3.603-8.796-6.276-12.859c-2.072-3.142-1.31-7.085,0.004-10.486
	c1.626-4.228,3.58-8.351,5.676-12.372c1.794-3.444,2.587-6.705,0.311-10.208c-1.429-2.197-2.146-4.626-2.146-7.279
	c0-2.854-1.625-5.106-3.154-7.264c-4.247-5.991-8.564-11.936-13.064-17.736c-1.987-2.561-4.489-4.722-6.741-7.079
	c-5.246-5.492-10.979-10.437-17.076-14.947c-1.49-1.103-3.168-1.978-4.83-2.813c-7.271-3.658-14.567-7.257-21.848-10.894
	c-1.666-0.833-3.318-1.7-4.947-2.605c-4.633-2.573-9.854-2.61-14.877-3.527c-6.757-1.233-13.499-2.548-20.243-3.848
	c-5.372-1.035-10.747-2.058-16.103-3.177c-1.821-0.38-3.673-0.846-5.359-1.603c-3.848-1.727-7.021-0.562-9.979,1.939
	c-3.032,2.566-4.921,5.95-6.191,9.596c-2.902,8.29-6.899,16.073-10.98,23.794c-2.39,4.521-5.359,8.755-8.294,12.967
	c-5.261,7.565-9.857,15.491-13.925,23.759c-3.251,6.617-5.697,13.463-7.682,20.578c-2.079,7.453-1.657,14.631,0.217,21.92
	c0.959,3.728,1.853,7.473,2.871,11.184c0.368,1.339,0.878,2.679,1.561,3.883c2.872,5.067,5.658,10.198,8.854,15.062
	C333.424,282.417,335.661,283.765,337.438,285.362z"/>
</svg>
