<?xml version="1.0" encoding="utf-8"?>
<!-- Generator: Adobe Illustrator 16.0.0, SVG Export Plug-In . SVG Version: 6.00 Build 0)  -->
<!DOCTYPE svg PUBLIC "-//W3C//DTD SVG 1.1//EN" "http://www.w3.org/Graphics/SVG/1.1/DTD/svg11.dtd" [
	<!ENTITY ns_flows "http://ns.adobe.com/Flows/1.0/">
	<!ENTITY ns_extend "http://ns.adobe.com/Extensibility/1.0/">
	<!ENTITY ns_ai "http://ns.adobe.com/AdobeIllustrator/10.0/">
	<!ENTITY ns_graphs "http://ns.adobe.com/Graphs/1.0/">
	<!ENTITY ns_vars "http://ns.adobe.com/Variables/1.0/">
	<!ENTITY ns_imrep "http://ns.adobe.com/ImageReplacement/1.0/">
	<!ENTITY ns_sfw "http://ns.adobe.com/SaveForWeb/1.0/">
	<!ENTITY ns_custom "http://ns.adobe.com/GenericCustomNamespace/1.0/">
	<!ENTITY ns_adobe_xpath "http://ns.adobe.com/XPath/1.0/">
]>
<svg version="1.1" id="Layer_1" xmlns:x="&ns_extend;" xmlns:i="&ns_ai;" xmlns:graph="&ns_graphs;"
	 xmlns="http://www.w3.org/2000/svg" xmlns:xlink="http://www.w3.org/1999/xlink" xmlns:a="http://ns.adobe.com/AdobeSVGViewerExtensions/3.0/"
	 x="0px" y="0px" width="850.391px" height="850.39px" viewBox="0 0 850.391 850.39" enable-background="new 0 0 850.391 850.39"
	 xml:space="preserve">
<metadata><?xpacket begin="﻿" id="W5M0MpCehiHzreSzNTczkc9d"?>
<x:xmpmeta xmlns:x="adobe:ns:meta/" x:xmptk="Adobe XMP Core 5.3-c011 66.145661, 2012/02/06-14:56:27        ">
   <rdf:RDF xmlns:rdf="http://www.w3.org/1999/02/22-rdf-syntax-ns#">
      <rdf:Description rdf:about=""
            xmlns:xmp="http://ns.adobe.com/xap/1.0/"
            xmlns:xmpGImg="http://ns.adobe.com/xap/1.0/g/img/">
         <xmp:CreatorTool>Adobe Illustrator CS6 (Macintosh)</xmp:CreatorTool>
         <xmp:CreateDate>2019-09-30T19:57:40+08:00</xmp:CreateDate>
         <xmp:MetadataDate>2019-09-30T19:57:40+08:00</xmp:MetadataDate>
         <xmp:ModifyDate>2019-09-30T19:57:40+08:00</xmp:ModifyDate>
         <xmp:Thumbnails>
            <rdf:Alt>
               <rdf:li rdf:parseType="Resource">
                  <xmpGImg:width>84</xmpGImg:width>
                  <xmpGImg:height>256</xmpGImg:height>
                  <xmpGImg:format>JPEG</xmpGImg:format>
                  <xmpGImg:image>/9j/4AAQSkZJRgABAgEASABIAAD/7QAsUGhvdG9zaG9wIDMuMAA4QklNA+0AAAAAABAASAAAAAEA&#xA;AQBIAAAAAQAB/+4ADkFkb2JlAGTAAAAAAf/bAIQABgQEBAUEBgUFBgkGBQYJCwgGBggLDAoKCwoK&#xA;DBAMDAwMDAwQDA4PEA8ODBMTFBQTExwbGxscHx8fHx8fHx8fHwEHBwcNDA0YEBAYGhURFRofHx8f&#xA;Hx8fHx8fHx8fHx8fHx8fHx8fHx8fHx8fHx8fHx8fHx8fHx8fHx8fHx8fHx8f/8AAEQgBAABUAwER&#xA;AAIRAQMRAf/EAaIAAAAHAQEBAQEAAAAAAAAAAAQFAwIGAQAHCAkKCwEAAgIDAQEBAQEAAAAAAAAA&#xA;AQACAwQFBgcICQoLEAACAQMDAgQCBgcDBAIGAnMBAgMRBAAFIRIxQVEGE2EicYEUMpGhBxWxQiPB&#xA;UtHhMxZi8CRygvElQzRTkqKyY3PCNUQnk6OzNhdUZHTD0uIIJoMJChgZhJRFRqS0VtNVKBry4/PE&#xA;1OT0ZXWFlaW1xdXl9WZ2hpamtsbW5vY3R1dnd4eXp7fH1+f3OEhYaHiImKi4yNjo+Ck5SVlpeYmZ&#xA;qbnJ2en5KjpKWmp6ipqqusra6voRAAICAQIDBQUEBQYECAMDbQEAAhEDBCESMUEFURNhIgZxgZEy&#xA;obHwFMHR4SNCFVJicvEzJDRDghaSUyWiY7LCB3PSNeJEgxdUkwgJChgZJjZFGidkdFU38qOzwygp&#xA;0+PzhJSktMTU5PRldYWVpbXF1eX1RlZmdoaWprbG1ub2R1dnd4eXp7fH1+f3OEhYaHiImKi4yNjo&#xA;+DlJWWl5iZmpucnZ6fkqOkpaanqKmqq6ytrq+v/aAAwDAQACEQMRAD8A9U4q07pGjSSMERAWd2NA&#xA;ANySTir86fzk/M/VfPnnm91VrqT9F20zx6JbhmCRW6NRHVa7PIFDuetfYDFW/L/58fm9oIRbDzRe&#xA;vEmyxXbLeIFG3EC5EtB8sVeg6J/zmf8AmZZhU1Ow03VEH2pDHJBMT/rRv6f/ACTxV6N5Q/5zU8q3&#xA;92lt5n0WfRUchRe28v1yEf5UiBIpFH+qHxV79oPmLQfMGnpqOiahBqNjJ9me2kWRa9eJ4n4WHcHc&#xA;YqmOKuxV2KuxV2KvFP8AnKv8yh5V/L59FspuGs+Y+VrGFPxx2lP9Jk+lT6Y/1vbFXwtirsVdirsV&#xA;Tvyl5180+UNVXVPLmozadeCgdojVJFBrxljaqSL7MCMVfYH5Hf8AOT+l+cpofL/mlYtL8yvRLWdK&#xA;ra3bHYKvIn05T/KTRv2f5cVe84q7FXYqgdd1vTNC0a81jVJhb6fYQvPczH9lEFTQdyegHc4q/OT8&#xA;z/zC1Xz95xvfMOoEqsp9OxtSaiC1Qn0oh8q1Y92JPfFWKYq7FXYq7FXYquR3jdZI2KOhDI6mhBG4&#xA;IIxV9rf84zfn3L5ztP8ACvmWcHzNZR8rS6Y0N7Ag+InxmjH2v5h8XZsVe+Yq7FXyv/zmd+Y5VbDy&#xA;DYSkc+OoazxOxFSLaFqe4MhB/wAg4q+U8VdirsVdirsVdirsVR2iazqWiavZ6vpk7W2oWEqT2069&#xA;VdDUfMeIPUbYq/SL8t/OEfnLyLovmVFWNtStw88aGqpOhMcyKfBZUYYqyTFX5q/mn5om80/mJ5g1&#xA;2Qkrd3kggDdVgiPpQKf9WJFGKsVxV2KuxV2KuxV2KuxV2Kvvn/nFvyzrGg/lDpy6pIS2pSyajaQN&#xA;/um2uApjT/Z8fV/2eKvW8VfmP550abRPOeu6RMD6ljf3MBJ7hJWCt2+0N8VSPFXYq7FXYq7FXYq7&#xA;FVaza1W8ga7VntRIhuEQ0YxhhzCnsSuKv1C0a90y+0iyvNKdJNMuYI5bJ4tkMLoDGVHhxIxVGYq+&#xA;NP8AnMP8tbjSvNcXne0Qtpuu8Ib0gGkV5DGFFe1JYkqPdWxV87Yq7FXYq7FXYq7FXYq7FX2j/wA4&#xA;cefG1jyTd+Vbp63Xl6QNbEndrS5LMo9/TkDj5FRir6DxViP5tW3lef8ALfzB/iiD6xosNnJPcRBu&#xA;Dlohzj9Jv2ZPUC8D44q/NnFXYq7FXYq7FXYq7FXYq9X/AOcYvOP+Gvzc0pZZOFlrXLS7qvStwR6H&#xA;/JdU38K4q+/cVfP/APzmb5pfTfy6sdChfjLrt6PWWv2re0Alcf8AI1osVfFeKuxV2KuxV2KuxV2K&#xA;uxVUgnlgmjnhYpNEweNx1VlNQR8jir9FP+VoWf8Aypj/AJWH8NP0T9e9Kvw/WuHH0a/8xH7vFXy/&#xA;/wA5j+ZZtR/NCHRudbbQ7KJFjHaa5HryMfdkaMfRirwfFXYq7FXYq7FXYq7FXYq7FXrX/Kx5P+ha&#xA;v8G+p/pH6d9P06n/AHh4fXP+orFWO/ndrX6Z/NvzXfcua/pGa3jbxS1P1dCPbjEKYqwfFXYq7FXY&#xA;q7FXYq7FXYq7FW6mlK7daYqjNZuYrrWL65iJMU9xLJGWJY8XcsKk7nY4qgsVdirsVdirsVdirsVd&#xA;irsVdiqL1W1+qapeWvHh9Xnki4Vrx4OVpXfpTFUJirsVdirsVdirsVdirsVdiqa/9Mt/0ff8ycVT&#xA;L80bU2v5l+bLc1/daxfqCwoSouZOJ+kb4qxjFXYq7FXYq7FXYq7FXYq7FU6+rT/4N+s8P3H6R9Ln&#xA;tTn6HKn3Yqyj/nIG0Fp+c3myIADlembapH75Fl7/AOvvirz3FXYq7FXYq7FXYq7FXYq7FWV/+Us/&#xA;7fn/AGKYqyz/AJyltBb/AJ4+YSAAs4s5VA97OENX3LKTiryjFXYq7FXYq7FXYq7FXYq7FWV/+Us/&#xA;7fn/AGKYq9D/AOcwLcxfnFI5pSfT7WQU60HOPf3+DFXiOKuxV2KuxV2KuxV2KuxV2Kpn+kJP8N/o&#xA;6knpfXPrFafuuXpcOtftU/DFXt//ADmsq/8AKz9JYMeZ0SEFabAC7uaGvvU4q+fcVdirsVdirsVd&#xA;irsVdirsVX+rL6Xo829Llz9Op48qU5U6Vpir6O/5zdgQecvLs4J5yac6EdqJOxH/ABM4q+bsVdir&#xA;sVdirsVdirsVdirsVdir6g/5zjsuGq+Ub3/f8F7D1/3y8LdP+e2Kvl/FXYq7FXYq7FXYq7FXYq7F&#xA;XYq+q/8AnOcGnkk02H6TBPap+qYq+VMVdirsVdirsVdirsVdirsVdir61/5zj/45XlH/AIz3v/EI&#xA;cVfJWKuxV2KuxV2KuxV2KuxV2KuxV9hf85u2fPyl5bvKD9zfyw13r++hLfL/AHTir49xV2KuxV2K&#xA;uxV2KuxV2KuxV2Kvt/8A5zJsjcflHBNyp9T1a2nI8axTQ0/5K4q+IMVdirsVdirsVdirsVdirsVV&#xA;/TtfqXqeqfrXqcfRoaenxryr0+1tTFX3j/zlZarN+R+uSGlbWWylFRvU3cUW3/IzFXwPirsVdirs&#xA;VdirsVdirsVdirPv8JSf8qM/xTw3/wAR/UuW/wDd/U+XL5c9vnir7M/5yR/8kl5p/wCMEP8A1ExY&#xA;q/PXFXYq7FXYq7FXYq7FXYquRHd1RFLOxAVQKkk9ABir7v8A+VJr/wBC6f4A4D9LfUfrVdv+Ony+&#xA;s05eHq/uq/y4qyT8/bWa5/JvzZHCCXWweU0APwRMsj9f8lDir86sVdirsVdirsVdirsVdir1r/nF&#xA;/wAl2fmn82bFb1RJaaNC+rSwmlHa3dEiBr2E0qMR3Apir76xVBa3Dp8+jX8OpKH06W2mS8QmgMLR&#xA;kSAnb9muKvy4xV2KuxV2KuxV2KuxV2Kvpz/nB7S4pNc81aqSvq21ra2qCvxcbiR5G28K264q+uMV&#xA;Yr+a97NZflj5suoATNFpF6Y+PUN9XcBv9j1xV+auKuxV2KuxV2KuxV2KuxV6Z/zjx59vPJ/5oaTI&#xA;snHTtWmj03U4yaIYrhwqufeJyHr4VHfFX6EYqp3Vtb3VtLa3MazW86NFNE4qro44srDuCDTFXx9+&#xA;YP8Azht5ss764uvJVzBqemOzNBp9xIILuNSaiPm/7qTj05F1+WKvH9e/KH8z9BZv0p5Y1GFENGnS&#xA;B5oQf+M0PqR/8NirFZ7a4gYLPE8TEVCupUkeO+KqWKuxV2KuxV2KtgkEEGhG4I61xV+gn+LdX/6F&#xA;v/xN6z/pj/DH1j61y+P6z9Tp61afa9T48Ven4q7FXYqsmggnT05o1lTrxcBhUexxVCxaHosSlYtP&#xA;to1JJIWGMCp6nYYqwz83vyh0Lz95OudJW3gtNVjHraVfrGqtFOo2VmUV9OT7Lj6eoGKvz11TTL/S&#xA;tSutM1CBra+spXguYHFGSSMlWU/IjFULirsVdir7f+vf9Yfetw/6Zz0ONf8AJ9HlWn00xV7rirsV&#xA;dirsVdirsVfNn/OUn5Dal5inj85+U7JrrV1UQ6xYQisk6KKRzxr+06D4WA3IpTocVfJWqaRq2k3R&#xA;tNVsp7C7Xdre6ieGQDpukgVsVTTTfy88/amgk03y1qt5G3SSCyuJFoe/JUIxV69+UX/OKPmjzBqH&#xA;13ztbz6FoUBB+rNxS8uW/kVTyMSj9pmWvZR3Cr7D/wAM6D/hv/DX1KP9BfVfqH1Df0/q3D0/T61p&#xA;w2rWuKv/2Q==</xmpGImg:image>
               </rdf:li>
            </rdf:Alt>
         </xmp:Thumbnails>
      </rdf:Description>
      <rdf:Description rdf:about=""
            xmlns:xmpTPg="http://ns.adobe.com/xap/1.0/t/pg/"
            xmlns:stDim="http://ns.adobe.com/xap/1.0/sType/Dimensions#"
            xmlns:xmpG="http://ns.adobe.com/xap/1.0/g/">
         <xmpTPg:MaxPageSize rdf:parseType="Resource">
            <stDim:w>299.998915</stDim:w>
            <stDim:h>299.998743</stDim:h>
            <stDim:unit>Millimeters</stDim:unit>
         </xmpTPg:MaxPageSize>
         <xmpTPg:NPages>1</xmpTPg:NPages>
         <xmpTPg:HasVisibleTransparency>False</xmpTPg:HasVisibleTransparency>
         <xmpTPg:HasVisibleOverprint>False</xmpTPg:HasVisibleOverprint>
         <xmpTPg:PlateNames>
            <rdf:Seq>
               <rdf:li>Cyan</rdf:li>
               <rdf:li>Magenta</rdf:li>
               <rdf:li>Yellow</rdf:li>
               <rdf:li>Black</rdf:li>
            </rdf:Seq>
         </xmpTPg:PlateNames>
         <xmpTPg:SwatchGroups>
            <rdf:Seq>
               <rdf:li rdf:parseType="Resource">
                  <xmpG:groupName>Default Swatch Group</xmpG:groupName>
                  <xmpG:groupType>0</xmpG:groupType>
               </rdf:li>
            </rdf:Seq>
         </xmpTPg:SwatchGroups>
      </rdf:Description>
      <rdf:Description rdf:about=""
            xmlns:dc="http://purl.org/dc/elements/1.1/">
         <dc:format>image/svg+xml</dc:format>
      </rdf:Description>
      <rdf:Description rdf:about=""
            xmlns:xmpMM="http://ns.adobe.com/xap/1.0/mm/"
            xmlns:stRef="http://ns.adobe.com/xap/1.0/sType/ResourceRef#"
            xmlns:stEvt="http://ns.adobe.com/xap/1.0/sType/ResourceEvent#">
         <xmpMM:DerivedFrom rdf:parseType="Resource">
            <stRef:instanceID>xmp.iid:FA3F1AA85321681180839FCCDFDC130E</stRef:instanceID>
            <stRef:documentID>xmp.did:FA3F1AA85321681180839FCCDFDC130E</stRef:documentID>
            <stRef:originalDocumentID>xmp.did:F63F1AA85321681180839FCCDFDC130E</stRef:originalDocumentID>
         </xmpMM:DerivedFrom>
         <xmpMM:DocumentID>xmp.did:005A81E56D21681180839FCCDFDC130E</xmpMM:DocumentID>
         <xmpMM:InstanceID>xmp.iid:005A81E56D21681180839FCCDFDC130E</xmpMM:InstanceID>
         <xmpMM:OriginalDocumentID>xmp.did:F63F1AA85321681180839FCCDFDC130E</xmpMM:OriginalDocumentID>
         <xmpMM:History>
            <rdf:Seq>
               <rdf:li rdf:parseType="Resource">
                  <stEvt:action>saved</stEvt:action>
                  <stEvt:instanceID>xmp.iid:F63F1AA85321681180839FCCDFDC130E</stEvt:instanceID>
                  <stEvt:when>2019-09-30T18:39:11+08:00</stEvt:when>
                  <stEvt:softwareAgent>Adobe Illustrator CS6 (Macintosh)</stEvt:softwareAgent>
                  <stEvt:changed>/</stEvt:changed>
               </rdf:li>
               <rdf:li rdf:parseType="Resource">
                  <stEvt:action>saved</stEvt:action>
                  <stEvt:instanceID>xmp.iid:005A81E56D21681180839FCCDFDC130E</stEvt:instanceID>
                  <stEvt:when>2019-09-30T19:57:40+08:00</stEvt:when>
                  <stEvt:softwareAgent>Adobe Illustrator CS6 (Macintosh)</stEvt:softwareAgent>
                  <stEvt:changed>/</stEvt:changed>
               </rdf:li>
            </rdf:Seq>
         </xmpMM:History>
      </rdf:Description>
   </rdf:RDF>
</x:xmpmeta>
                                                                                                    
                                                                                                    
                                                                                                    
                                                                                                    
                                                                                                    
                                                                                                    
                                                                                                    
                                                                                                    
                                                                                                    
                                                                                                    
                                                                                                    
                                                                                                    
                                                                                                    
                                                                                                    
                                                                                                    
                                                                                                    
                                                                                                    
                                                                                                    
                                                                                                    
                                                                                                    
                           
<?xpacket end="w"?>
	</metadata>
<path d="M342.922,285.468c-1.453-1.306-2.732-2.438-3.988-3.593c-0.398-0.367-0.814-0.752-1.086-1.21
	c-1.745-2.937-3.448-5.897-5.172-8.847c-0.779-1.333-1.51-2.702-2.375-3.978c-2.499-3.687-3.566-7.905-4.648-12.128
	c-0.634-2.475-1.375-4.924-1.966-7.408c-0.375-1.581-0.75-3.2-0.799-4.812c-0.116-3.801-0.045-7.607-0.026-11.412
	c0.002-0.458,0.095-0.936,0.244-1.37c2.536-7.377,4.206-15.06,8.091-21.962c1.821-3.235,3.123-6.758,4.857-10.047
	c1.11-2.105,2.613-4,3.879-6.027c1.438-2.301,2.74-4.69,4.223-6.961c2.717-4.16,5.628-8.195,8.258-12.408
	c1.804-2.891,3.364-5.947,4.864-9.011c2.829-5.78,5.658-11.548,7.802-17.654c1.494-4.256,3.861-8.071,7.786-10.77
	c2.665-1.831,5.415-2.113,8.155-0.914c3.463,1.516,7.088,2.327,10.727,3.071c8.434,1.723,16.894,3.324,25.365,4.858
	c4.343,0.787,8.741,1.27,13.098,1.988c4.106,0.678,7.841,2.376,11.478,4.357c2.229,1.214,4.625,2.123,6.859,3.328
	c3.269,1.762,6.889,2.806,9.891,5.14c1.383,1.076,3.158,1.643,4.742,2.466c1.992,1.036,4.141,1.872,5.923,3.195
	c3.908,2.904,7.762,5.912,11.385,9.16c2.935,2.631,5.313,5.887,8.273,8.483c4.084,3.583,6.963,8.096,10.257,12.288
	c2.11,2.685,4.018,5.53,5.983,8.326c1.153,1.641,2.192,3.363,3.377,4.98c0.871,1.188,1.285,2.501,1.292,3.914
	c0.012,2.552,0.581,4.921,1.905,7.112c0.279,0.462,0.409,1.017,0.694,1.475c1.851,2.973,1.205,5.945-0.445,8.593
	c-2.617,4.195-4.226,8.811-6.092,13.318c-1.185,2.86-1.05,5.933-0.595,8.94c0.12,0.79,0.688,1.557,1.185,2.237
	c1.614,2.214,2.905,4.564,3.802,7.176c0.754,2.197,1.697,4.354,2.783,6.408c2.448,4.631,3.994,9.579,5.477,14.566
	c0.464,1.56,1.169,3.046,1.689,4.59c2.65,7.864,5.336,15.718,7.893,23.614c1.649,5.094,3.21,10.223,4.602,15.393
	c1.351,5.016,2.728,10.056,3.552,15.172c0.812,5.032,2.149,10.05,1.587,15.25c-0.284,2.621-0.446,5.256-0.664,7.884
	c-0.013,0.155-0.046,0.309-0.053,0.464c-0.22,4.964-0.519,9.925-0.638,14.892c-0.206,8.552-0.291,17.107-0.442,25.661
	c-0.1,5.676-0.205,11.353-0.349,17.027c-0.062,2.408-0.341,4.814-0.325,7.22c0.076,12.143,0.166,24.285,0.365,36.427
	c0.063,3.849,0.576,7.688,0.705,11.537c0.128,3.812-0.196,7.649,0.085,11.445c0.495,6.683,0.562,13.364,0.616,20.057
	c0.026,3.253,0.546,6.501,0.593,9.755c0.047,3.335-0.198,6.674-0.345,10.011c-0.05,1.16-0.269,2.317-0.271,3.476
	c-0.02,13.709,0.018,27.418-0.028,41.126c-0.016,4.807-0.229,9.611-0.321,14.418c-0.019,1.007,0.114,2.017,0.141,3.025
	c0.027,1.082,0.036,2.165,0.01,3.247c-0.023,0.931-0.223,1.871-0.146,2.79c0.489,5.818-0.017,11.613-0.271,17.42
	c-0.156,3.564-0.168,7.146,0.001,10.71c0.173,3.628-0.777,7.096-1.227,10.625c-0.597,4.69-1.31,9.405-2.52,13.965
	c-1.067,4.023-2.86,7.858-4.381,11.758c-1.214,3.113-2.435,6.227-3.773,9.287c-0.932,2.13-1.93,4.256-3.147,6.229
	c-1.788,2.899-2.274,6.117-2.53,9.359c-0.46,5.832-1.529,11.548-2.783,17.243c-0.167,0.759-0.232,1.543-0.443,2.288
	c-0.543,1.917,0.096,3.477,1.265,4.969c0.565,0.722,0.949,1.59,1.385,2.408c1.017,1.911,1.781,3.944,3.266,5.616
	c0.742,0.836,1.292,1.965,1.584,3.055c0.662,2.464,1.082,4.992,1.663,7.48c0.154,0.66,0.482,1.298,0.819,1.896
	c1.219,2.163,2.934,4.176,3.588,6.492c0.634,2.244,0.196,4.792,0.223,7.205c0.055,5.062,0.067,10.126,0.185,15.188
	c0.026,1.129,0.37,2.26,0.646,3.371c0.319,1.283,0.801,2.537,0.241,3.873c-0.675,1.609-0.848,3.298-0.676,5.017
	c0.097,0.957-0.287,1.592-0.983,2.215c-0.919,0.822-1.716,1.78-2.571,2.675c-0.321,0.335-0.606,0.76-1.001,0.962
	c-4.285,2.199-7.576,5.694-11.252,8.676c-1.483,1.204-2.974,1.725-4.849,1.844c-5.594,0.354-11.185,0.8-16.759,1.389
	c-2.222,0.235-4.408,0.886-6.588,1.437c-3.616,0.914-7.257,0.766-10.892,0.277c-0.977-0.131-1.881-0.726-2.851-0.984
	c-3.073-0.822-6.136-1.723-9.255-2.318c-1.753-0.336-2.874-1.095-3.858-2.563c-7.283-10.866-14.677-21.659-21.944-32.535
	c-1.035-1.549-2.136-2.156-3.98-2.077c-5.498,0.234-11.001,0.357-16.504,0.418c-2.865,0.031-5.719-0.166-8.58,0.331
	c-1.104,0.191-2.304-0.18-3.461-0.29c-5.022-0.481-10.062-0.827-15.057-1.506c-2.02-0.275-3.998-0.346-6.011-0.339
	c-0.923,0.003-1.858-0.145-2.77-0.321c-3.581-0.694-7.164-1.388-10.728-2.163c-1.59-0.346-3.113-1.098-4.712-1.293
	c-4.911-0.603-9.495-2.374-14.119-3.917c-3.095-1.032-5.826-2.932-7.629-5.842c-1.475-2.38-2.877-4.778-3.709-7.497
	c-0.539-1.762-0.705-3.448-0.42-5.274c1.066-6.832,2.053-13.676,3.027-20.521c0.24-1.687,0.347-3.395,0.454-5.096
	c0.027-0.438-0.126-0.914-0.292-1.334c-1.896-4.796-3.059-9.803-4.013-14.84c-0.399-2.109-0.342-4.363-0.13-6.517
	c0.261-2.642,0.003-5.245-0.037-7.867c-0.058-3.815,0.082-7.636-0.043-11.448c-0.114-3.483-0.461-6.96-0.716-10.438
	c-0.308-4.179-0.594-8.359-0.951-12.534c-0.396-4.638-0.121-9.305-0.988-13.936c-0.583-3.111-0.507-6.345-0.767-9.521
	c-0.195-2.396-0.48-4.782-0.681-7.177c-0.37-4.411-0.738-8.822-1.049-13.236c-0.197-2.787-0.34-5.579-0.406-8.371
	c-0.03-1.23,0.192-2.468,0.295-3.702c0.033-0.387,0.089-0.776,0.071-1.162c-0.121-2.635-0.316-5.268-0.38-7.904
	c-0.133-5.444-0.183-10.893-0.3-16.338c-0.092-4.276,0.125-8.6-0.439-12.816c-0.85-6.352-0.779-12.709-0.98-19.072
	c-0.146-4.658-0.293-9.325-0.737-13.96c-0.269-2.807-0.466-5.554,0.042-8.337c0.11-0.603,0.138-1.279-0.021-1.86
	c-0.838-3.058-0.517-6.185-0.692-9.284c-0.25-4.413-0.722-8.813-1.039-13.223c-0.173-2.403-0.173-4.819-0.335-7.224
	c-0.422-6.273-0.917-12.542-1.333-18.815c-0.297-4.496-0.458-9.001-0.779-13.495c-0.354-4.954-0.833-9.9-1.238-14.852
	c-0.209-2.551-0.38-5.105-0.567-7.658c-0.08-1.085-0.102-2.177-0.245-3.253c-0.285-2.141-0.912-4.248-0.414-6.446
	c0.099-0.436,0.056-0.957-0.084-1.385c-1.05-3.198-0.596-6.472-0.574-9.728c0.005-0.757-0.039-1.57-0.305-2.265
	c-1.223-3.188-1.087-6.387-0.286-9.625c0.185-0.749,0.365-1.515,0.405-2.28c0.153-2.938,0.651-5.934,0.252-8.801
	c-0.411-2.956,0.742-5.494,1.163-8.206c1.108-7.13,2.5-14.217,3.663-21.339c0.565-3.458,0.984-6.957,2.276-10.22
	c2.589-6.535,3.292-13.587,5.689-20.168c0.876-2.407,1.562-4.884,2.436-7.292C339.728,293.875,341.313,289.753,342.922,285.468z"/>
</svg>
