<?xml version="1.0" encoding="utf-8"?>
<!-- Generator: Adobe Illustrator 16.0.0, SVG Export Plug-In . SVG Version: 6.00 Build 0)  -->
<!DOCTYPE svg PUBLIC "-//W3C//DTD SVG 1.1//EN" "http://www.w3.org/Graphics/SVG/1.1/DTD/svg11.dtd" [
	<!ENTITY ns_flows "http://ns.adobe.com/Flows/1.0/">
	<!ENTITY ns_extend "http://ns.adobe.com/Extensibility/1.0/">
	<!ENTITY ns_ai "http://ns.adobe.com/AdobeIllustrator/10.0/">
	<!ENTITY ns_graphs "http://ns.adobe.com/Graphs/1.0/">
	<!ENTITY ns_vars "http://ns.adobe.com/Variables/1.0/">
	<!ENTITY ns_imrep "http://ns.adobe.com/ImageReplacement/1.0/">
	<!ENTITY ns_sfw "http://ns.adobe.com/SaveForWeb/1.0/">
	<!ENTITY ns_custom "http://ns.adobe.com/GenericCustomNamespace/1.0/">
	<!ENTITY ns_adobe_xpath "http://ns.adobe.com/XPath/1.0/">
]>
<svg version="1.1" id="Layer_1" xmlns:x="&ns_extend;" xmlns:i="&ns_ai;" xmlns:graph="&ns_graphs;"
	 xmlns="http://www.w3.org/2000/svg" xmlns:xlink="http://www.w3.org/1999/xlink" xmlns:a="http://ns.adobe.com/AdobeSVGViewerExtensions/3.0/"
	 x="0px" y="0px" width="850.391px" height="850.39px" viewBox="0 0 850.391 850.39" enable-background="new 0 0 850.391 850.39"
	 xml:space="preserve">
<metadata><?xpacket begin="﻿" id="W5M0MpCehiHzreSzNTczkc9d"?>
<x:xmpmeta xmlns:x="adobe:ns:meta/" x:xmptk="Adobe XMP Core 5.3-c011 66.145661, 2012/02/06-14:56:27        ">
   <rdf:RDF xmlns:rdf="http://www.w3.org/1999/02/22-rdf-syntax-ns#">
      <rdf:Description rdf:about=""
            xmlns:xmp="http://ns.adobe.com/xap/1.0/"
            xmlns:xmpGImg="http://ns.adobe.com/xap/1.0/g/img/">
         <xmp:CreatorTool>Adobe Illustrator CS6 (Macintosh)</xmp:CreatorTool>
         <xmp:CreateDate>2019-09-30T19:56:51+08:00</xmp:CreateDate>
         <xmp:MetadataDate>2019-09-30T19:56:51+08:00</xmp:MetadataDate>
         <xmp:ModifyDate>2019-09-30T19:56:51+08:00</xmp:ModifyDate>
         <xmp:Thumbnails>
            <rdf:Alt>
               <rdf:li rdf:parseType="Resource">
                  <xmpGImg:width>84</xmpGImg:width>
                  <xmpGImg:height>256</xmpGImg:height>
                  <xmpGImg:format>JPEG</xmpGImg:format>
                  <xmpGImg:image>/9j/4AAQSkZJRgABAgEASABIAAD/7QAsUGhvdG9zaG9wIDMuMAA4QklNA+0AAAAAABAASAAAAAEA&#xA;AQBIAAAAAQAB/+4ADkFkb2JlAGTAAAAAAf/bAIQABgQEBAUEBgUFBgkGBQYJCwgGBggLDAoKCwoK&#xA;DBAMDAwMDAwQDA4PEA8ODBMTFBQTExwbGxscHx8fHx8fHx8fHwEHBwcNDA0YEBAYGhURFRofHx8f&#xA;Hx8fHx8fHx8fHx8fHx8fHx8fHx8fHx8fHx8fHx8fHx8fHx8fHx8fHx8fHx8f/8AAEQgBAABUAwER&#xA;AAIRAQMRAf/EAaIAAAAHAQEBAQEAAAAAAAAAAAQFAwIGAQAHCAkKCwEAAgIDAQEBAQEAAAAAAAAA&#xA;AQACAwQFBgcICQoLEAACAQMDAgQCBgcDBAIGAnMBAgMRBAAFIRIxQVEGE2EicYEUMpGhBxWxQiPB&#xA;UtHhMxZi8CRygvElQzRTkqKyY3PCNUQnk6OzNhdUZHTD0uIIJoMJChgZhJRFRqS0VtNVKBry4/PE&#xA;1OT0ZXWFlaW1xdXl9WZ2hpamtsbW5vY3R1dnd4eXp7fH1+f3OEhYaHiImKi4yNjo+Ck5SVlpeYmZ&#xA;qbnJ2en5KjpKWmp6ipqqusra6voRAAICAQIDBQUEBQYECAMDbQEAAhEDBCESMUEFURNhIgZxgZEy&#xA;obHwFMHR4SNCFVJicvEzJDRDghaSUyWiY7LCB3PSNeJEgxdUkwgJChgZJjZFGidkdFU38qOzwygp&#xA;0+PzhJSktMTU5PRldYWVpbXF1eX1RlZmdoaWprbG1ub2R1dnd4eXp7fH1+f3OEhYaHiImKi4yNjo&#xA;+DlJWWl5iZmpucnZ6fkqOkpaanqKmqq6ytrq+v/aAAwDAQACEQMRAD8A9U4q7FXYq7FXnX5j/n5+&#xA;XPkMSW+o3/13V02/RFjxmuAfCTcJF/s2B8AcVeHav/znBrDs40fytbwKNke8uXnJHiUjSGny5fTi&#xA;rBNc/wCcsfzm1QMsGo22kxtWqWNtGNvAPP67j6GrirzbzD5183eZJRLr+s3mpshrGLqeSRUP+QjH&#xA;in+xGKvrz/nEb80NQ8z+WL3y3rN011qehFGtZpTykeykHFVLHdvSdStT2KjFXv2KuxV2KuxVKvNH&#xA;mnQfK2h3Ot67dpZabaLylmfcknZURRuzMdlUbnFXxj+a3/OVHnTzXNcaf5ckfQPLzckURGl5Oh2r&#xA;LMpPCo/ZjI8CWxV4eSSSSak7knrXFWsVdirsVZt+Tf5gyeQvzC0zX2LfUFY2+qRpUl7Sb4ZNh9op&#xA;tIo/mUYq/Rq1ube7torq2lWa2nRZYJkIZHRxyVlI2IINRiqpirsVQmr6tp2j6ZdapqdwlrYWUbTX&#xA;NxIaKiIKknFX5/fnZ+c2tfmT5haRma38u2TsNJ07oAvT1pQPtSuOv8o2HeqrzfFXYq7FXYq7FXYq&#xA;+t/+cQfzdN5aP+XusT1ubRWm0CRzu8I+KW2qepj+2g/l5dlGKvp3FXYq+Tf+cy/zKv8A9IWfkCxk&#xA;9OxWKO/1cqTWSR2b0YW/yUVfUI7kr/Lir5dxV2KuxV2KuxV2KuxVH6Dreo6FrVjrOmymG/0+ZLi3&#xA;kHZ425CviD0I7jbFX6H/APK2PL3/ACqj/lY+/wCi/qX1v0ajl61fS+r16cvX/dfPFWbYq+Cv+cqP&#xA;LmsaT+b+p3l+7TW2srHeafOakGIIIjH/AM8mjK08KHviryDFXYq7FXYq7FXYq7FXYqzj/lZt/wD8&#xA;qg/5V78Xo/pX9Ier29D0/wC469PX/efPFX6OYq+Xv+c3r7Qjp3lmxYq2vJNNPGoHxJZsoVyx7B5F&#xA;Xj48T4Yq+TMVdirsVdirsVdirsVdiqe/4R1L/BH+L+P+439Jfonl/wAXeh6//EcVfpuSFBJNANyT&#xA;0AxV+cP5y+fJPPH5i6troYtZGT6vpi9ltIPgi/4Pdz7scVYTirsVdirsVdirsVdiqra2tzd3UNra&#xA;xtNc3DrFBCgqzu5CqqgdSSaDFX3J/wBC/j/oXr/lX3OP9Oen9f8ArO3D9J8vV48v5f8AdHL+XfFW&#xA;T/8AOQHnI+U/yo1y/ik9O+u4v0fYkGjetdfu+S/5SRl3/wBjir878VdirsVdirsVdirsVdir27/n&#xA;ES38r3H5rJHrFuJtRW1km0JnPwJcxUZzw/af0ubKe1CetCFX3Nir5K/5zZ83mXVNB8owv+7tYm1O&#xA;8UbgySkwwA+BVUkPybFXzBirsVdirsVdirsVdirsVT3yL5mm8r+ctG8wQkhtNu4p3A/ajVh6ibfz&#xA;pyX6cVfpn9Yg+r/WPUX0OHqerX4eFK8q+FMVfnX+enmU+Y/za8zaiG5QpePaW5HT0rMC3Qj2YRcv&#xA;pxVgeKuxV2KuxV2KuxV2KuxV2KvtP/lY15/0KB/iD1f9yH6M/RHOvx8/X/R3Pr9vh8dfpxV8YXE8&#xA;txcS3Ezc5pnaSRz1LMak/ecVU8VdirsVdirsVdirsVdirsVeo/4zH/Qt/wDhj1R9Z/xLz9Pev1T6&#xA;r6v/ACfxV57r1ubfXNRtyQTDdTRkjpVZCNvuxVAYq7FXYq7FXYq7FXYq7FXYqu5vw4cjwrXjXavj&#xA;TFUz82f8pTrP/Mdc/wDJ5sVSrFXYq7FXYq7FXYq7FXYq7FVT0JvR9fgfR5cPUp8PKlaV8aYqnfn9&#xA;ETz55kRFCouqXoVQKAAXDgAAYqkGKuxV2KuxV2KuxV2KuxV2Ksv/AEUP+VSfpaiV/T/1Tlvz/wB4&#xA;vUp0pxxVB/mSYj+YvmkwqVhOr35jU7kL9akoD9GKscxV2KuxV2KuxV2KuxV2KuxV7L+jP+sTPrHG&#xA;T/lLvrNafD/vF9Xr0+z2/wBbFXnX5hf8p95l/wC2rff9RL4qx/FXYq7FXYq7FXYq7FXYq7FX0j+i&#xA;j/0JR9Zo/wDx0frddqf8dD6tXp9n+OKvB/Okzz+cddnenOXUbt2p0q07k0xVJsVdirsVdirsVdir&#xA;sVdirsVfXv6Ib/oSP6rxNfqX1ulRWn6U+tVr4d6fR1xV8oa7M8+t6hNJ9uW5mdqbCrSEnFUDirsV&#xA;dirsVdirsVdirsVdir7i+pRf9Cg+jVuP+GvXrtXl6frU6dOX4Yq+IZ5nnnkmenOVmdqdKsanFVPF&#xA;XYq7FXYq7FXYq7FXYq7FX6B/UH/6Fi+pemvq/wCDOHDanqfov7vt71xV8C6lGkeo3UaDiiTSKqjo&#xA;AGIAxVDYq7FXYq7FXYq7FXYq7FXYq/SP9Ezf8qe/RFT6/wDh76pWm/P6l6f2a+PauKvzn1b/AI6t&#xA;5/xnk/4mcVQmKuxV2KuxV2KuxV2KuxV2Kv0//wCmV/6Mf+ZOKvzL1b/jq3n/ABnk/wCJnFUJirsV&#xA;dirsVdirsVdirsVdir9RqQ/oKnpv6H1X+5/b4en9n/Wptir8xNW/46t5/wAZ5P8AiZxVCYq7FXYq&#xA;7FXYq7FXYq7FUVplmb3UrSzAJNzNHCACAf3jBdidu+Kv1KxV+X/mlEj8zavGgCol7cKqjoAJWAAx&#xA;VK8VdirsVdirsVdirsVdirJ/ywsWv/zI8rWagH1tWslatCOP1hCxIPWi12xV+luKvzZ/NzRzo/5o&#xA;eadP4cEi1O6aFfCKWUyRf8I4xViOKuxV2KuxV2KuxV2KuxVn/wCQdobv85PKcQBPG/SagIH9yrS9&#xA;/wDUxV+iuKvjT/nMzyM2m+c7Hzbbx/6LrsIhu2FaC7tVCAnw5w8Kf6pxV87Yq7FXYq7FXYq7FXYq&#xA;7FXqn/OL6I/56eWA4DAG9YA+K2FwQfoIxV+gGKvPvz68mWXmz8rNcs51/wBIsbeTUbCSlSlxaI0i&#xA;0/11DRn2Y4q/OzFXYq7FXYq7FXYq7FXYq9b/AOcVbWeb88tAkjXkltHeyzH+VDZTRg/8FIoxV984&#xA;qo3lpDeWc9pMKw3EbxSgdeLqVb8Dir8uL61NpfXFoXWQ28rxGRTVW4MVqD4GmKqGKuxV2KuxV2Ku&#xA;xV2Kvo7/AJwkgsG87a/NIlb+PTlFs/8ALE06+rtTqSExV9jYq8v/AOcj/Pt35M/K6+u9Pk9LU9Sd&#xA;dNspQaNG06sZJF78liR+PgaHFX594q7FXYq7FXYq7FXYq7FXuP8Azh3eTQfm/wClGKpd6ZdQynwU&#xA;NHLX/gohir7jxV8gf85uapft5r8vaUZm+oRWL3SQdF9aWZo2c+J4xKB4fScVfNWKuxV2KuxV2Kux&#xA;VMdP8u+YNSdY9O0y7vXehRLeCSUsD0oEU1xV6D5a/wCcZvzl11o2XQm0y3frcalIlsF/1omJn+6P&#xA;FX1J+Qn5A235Zx3moX14mo+Yb9FhkniUrFDCDyMURb4m5MAWYgVoNhTdV69ir4r/AOc07t5PzP02&#xA;2KcUt9IhKsR9ovcTkke2wGKvn/FXYq7FXtf/ADjJ+Tf+N/NH6b1e39Tytorhp1cVS5uhRo7eh2ZR&#xA;9uT2op+1ir7dTRtHRFRLG3VFACqIkAAGwAAGKuh0bR4JmnhsbeKdiC0qRIrkr0JYCu2KozFXYq7F&#xA;XYq8w/Oz8idB/MyxS4aU2HmOyiaPT9QG6FalhFOn7UfImhG61rvuCq+Ntd/Ir83NGvZbW48rahc+&#xA;kxUT2NvJdwuOzK8AcUI8fpocVYhqejaxpUwh1SxuLCYiojuYnhYjxo4U4qyXyP8AlF+YHnK9tYdI&#xA;0a6NlcuqtqksTx2caE/FI0zAIQo3opJPYE4q/QTyL5M0fyZ5WsPLmkpxtbKPi0hFHllO8kr/AOU7&#xA;VJ+7piqfYq7FXYq7FXYq7FX/2Q==</xmpGImg:image>
               </rdf:li>
            </rdf:Alt>
         </xmp:Thumbnails>
      </rdf:Description>
      <rdf:Description rdf:about=""
            xmlns:xmpTPg="http://ns.adobe.com/xap/1.0/t/pg/"
            xmlns:stDim="http://ns.adobe.com/xap/1.0/sType/Dimensions#"
            xmlns:xmpG="http://ns.adobe.com/xap/1.0/g/">
         <xmpTPg:MaxPageSize rdf:parseType="Resource">
            <stDim:w>299.998915</stDim:w>
            <stDim:h>299.998743</stDim:h>
            <stDim:unit>Millimeters</stDim:unit>
         </xmpTPg:MaxPageSize>
         <xmpTPg:NPages>1</xmpTPg:NPages>
         <xmpTPg:HasVisibleTransparency>False</xmpTPg:HasVisibleTransparency>
         <xmpTPg:HasVisibleOverprint>False</xmpTPg:HasVisibleOverprint>
         <xmpTPg:PlateNames>
            <rdf:Seq>
               <rdf:li>Cyan</rdf:li>
               <rdf:li>Magenta</rdf:li>
               <rdf:li>Yellow</rdf:li>
               <rdf:li>Black</rdf:li>
            </rdf:Seq>
         </xmpTPg:PlateNames>
         <xmpTPg:SwatchGroups>
            <rdf:Seq>
               <rdf:li rdf:parseType="Resource">
                  <xmpG:groupName>Default Swatch Group</xmpG:groupName>
                  <xmpG:groupType>0</xmpG:groupType>
               </rdf:li>
            </rdf:Seq>
         </xmpTPg:SwatchGroups>
      </rdf:Description>
      <rdf:Description rdf:about=""
            xmlns:dc="http://purl.org/dc/elements/1.1/">
         <dc:format>image/svg+xml</dc:format>
      </rdf:Description>
      <rdf:Description rdf:about=""
            xmlns:xmpMM="http://ns.adobe.com/xap/1.0/mm/"
            xmlns:stRef="http://ns.adobe.com/xap/1.0/sType/ResourceRef#"
            xmlns:stEvt="http://ns.adobe.com/xap/1.0/sType/ResourceEvent#">
         <xmpMM:DerivedFrom rdf:parseType="Resource">
            <stRef:instanceID>xmp.iid:FB3F1AA85321681180839FCCDFDC130E</stRef:instanceID>
            <stRef:documentID>xmp.did:FB3F1AA85321681180839FCCDFDC130E</stRef:documentID>
            <stRef:originalDocumentID>xmp.did:F63F1AA85321681180839FCCDFDC130E</stRef:originalDocumentID>
         </xmpMM:DerivedFrom>
         <xmpMM:DocumentID>xmp.did:FC3F1AA85321681180839FCCDFDC130E</xmpMM:DocumentID>
         <xmpMM:InstanceID>xmp.iid:FC3F1AA85321681180839FCCDFDC130E</xmpMM:InstanceID>
         <xmpMM:OriginalDocumentID>xmp.did:F63F1AA85321681180839FCCDFDC130E</xmpMM:OriginalDocumentID>
         <xmpMM:History>
            <rdf:Seq>
               <rdf:li rdf:parseType="Resource">
                  <stEvt:action>saved</stEvt:action>
                  <stEvt:instanceID>xmp.iid:F63F1AA85321681180839FCCDFDC130E</stEvt:instanceID>
                  <stEvt:when>2019-09-30T18:39:11+08:00</stEvt:when>
                  <stEvt:softwareAgent>Adobe Illustrator CS6 (Macintosh)</stEvt:softwareAgent>
                  <stEvt:changed>/</stEvt:changed>
               </rdf:li>
               <rdf:li rdf:parseType="Resource">
                  <stEvt:action>saved</stEvt:action>
                  <stEvt:instanceID>xmp.iid:FC3F1AA85321681180839FCCDFDC130E</stEvt:instanceID>
                  <stEvt:when>2019-09-30T19:56:51+08:00</stEvt:when>
                  <stEvt:softwareAgent>Adobe Illustrator CS6 (Macintosh)</stEvt:softwareAgent>
                  <stEvt:changed>/</stEvt:changed>
               </rdf:li>
            </rdf:Seq>
         </xmpMM:History>
      </rdf:Description>
   </rdf:RDF>
</x:xmpmeta>
                                                                                                    
                                                                                                    
                                                                                                    
                                                                                                    
                                                                                                    
                                                                                                    
                                                                                                    
                                                                                                    
                                                                                                    
                                                                                                    
                                                                                                    
                                                                                                    
                                                                                                    
                                                                                                    
                                                                                                    
                                                                                                    
                                                                                                    
                                                                                                    
                                                                                                    
                                                                                                    
                           
<?xpacket end="w"?>
	</metadata>
<path d="M520.648,298.026c0.873,2.408,1.559,4.885,2.436,7.292c2.397,6.582,3.101,13.633,5.689,20.168
	c1.293,3.263,1.711,6.763,2.276,10.22c1.163,7.123,2.556,14.209,3.663,21.339c0.422,2.712,1.574,5.25,1.163,8.206
	c-0.399,2.868,0.099,5.864,0.252,8.801c0.04,0.766,0.22,1.532,0.405,2.28c0.801,3.238,0.936,6.437-0.287,9.625
	c-0.266,0.694-0.311,1.508-0.305,2.265c0.022,3.256,0.477,6.53-0.574,9.728c-0.141,0.428-0.184,0.949-0.084,1.385
	c0.498,2.198-0.129,4.306-0.414,6.446c-0.143,1.076-0.166,2.168-0.245,3.253c-0.187,2.553-0.357,5.107-0.567,7.658
	c-0.405,4.951-0.883,9.897-1.238,14.852c-0.32,4.494-0.481,8.999-0.779,13.495c-0.415,6.273-0.91,12.542-1.332,18.815
	c-0.162,2.404-0.163,4.82-0.336,7.224c-0.316,4.409-0.789,8.81-1.039,13.223c-0.176,3.1,0.146,6.227-0.692,9.284
	c-0.159,0.581-0.132,1.258-0.021,1.86c0.507,2.783,0.311,5.53,0.042,8.337c-0.444,4.635-0.592,9.302-0.738,13.96
	c-0.201,6.363-0.131,12.721-0.98,19.072c-0.563,4.217-0.348,8.54-0.439,12.816c-0.117,5.445-0.166,10.894-0.3,16.338
	c-0.063,2.637-0.259,5.27-0.38,7.904c-0.018,0.386,0.039,0.775,0.071,1.162c0.103,1.234,0.325,2.472,0.295,3.702
	c-0.066,2.792-0.21,5.584-0.406,8.371c-0.312,4.414-0.679,8.825-1.049,13.236c-0.2,2.395-0.485,4.781-0.681,7.177
	c-0.26,3.176-0.184,6.409-0.767,9.521c-0.866,4.631-0.592,9.298-0.987,13.936c-0.357,4.175-0.644,8.355-0.951,12.534
	c-0.256,3.479-0.602,6.955-0.717,10.438c-0.124,3.812,0.016,7.633-0.043,11.448c-0.039,2.622-0.297,5.226-0.036,7.867
	c0.212,2.153,0.27,4.407-0.13,6.517c-0.955,5.037-2.117,10.044-4.014,14.84c-0.166,0.42-0.318,0.896-0.291,1.334
	c0.105,1.701,0.213,3.409,0.453,5.096c0.975,6.846,1.961,13.689,3.027,20.521c0.285,1.826,0.119,3.513-0.42,5.274
	c-0.832,2.719-2.234,5.117-3.709,7.497c-1.804,2.91-4.535,4.81-7.629,5.842c-4.624,1.543-9.208,3.314-14.119,3.917
	c-1.6,0.195-3.122,0.947-4.713,1.293c-3.564,0.775-7.146,1.469-10.728,2.163c-0.911,0.177-1.847,0.324-2.77,0.321
	c-2.014-0.007-3.991,0.063-6.011,0.339c-4.995,0.679-10.035,1.024-15.057,1.506c-1.157,0.11-2.357,0.481-3.461,0.29
	c-2.861-0.497-5.715-0.3-8.58-0.331c-5.502-0.061-11.006-0.184-16.504-0.418c-1.845-0.079-2.945,0.528-3.98,2.077
	c-7.268,10.876-14.661,21.669-21.944,32.535c-0.984,1.469-2.105,2.228-3.858,2.563c-3.119,0.596-6.182,1.496-9.255,2.318
	c-0.97,0.259-1.874,0.854-2.851,0.984c-3.635,0.488-7.275,0.637-10.892-0.277c-2.18-0.551-4.366-1.201-6.588-1.437
	c-5.574-0.589-11.165-1.035-16.759-1.389c-1.875-0.119-3.365-0.64-4.849-1.844c-3.676-2.981-6.967-6.477-11.252-8.676
	c-0.395-0.202-0.68-0.627-1.001-0.962c-0.855-0.895-1.652-1.853-2.571-2.675c-0.696-0.623-1.08-1.258-0.983-2.215
	c0.172-1.719-0.001-3.407-0.676-5.017c-0.56-1.336-0.078-2.59,0.241-3.873c0.276-1.111,0.62-2.242,0.646-3.371
	c0.117-5.062,0.13-10.125,0.185-15.188c0.026-2.413-0.411-4.961,0.223-7.205c0.654-2.316,2.369-4.329,3.588-6.492
	c0.337-0.599,0.665-1.236,0.819-1.896c0.581-2.488,1.001-5.017,1.663-7.48c0.292-1.09,0.842-2.219,1.584-3.055
	c1.484-1.672,2.249-3.705,3.266-5.616c0.436-0.818,0.819-1.687,1.385-2.408c1.169-1.492,1.808-3.052,1.265-4.969
	c-0.211-0.745-0.276-1.529-0.443-2.288c-1.254-5.695-2.323-11.411-2.783-17.243c-0.256-3.242-0.742-6.46-2.53-9.359
	c-1.218-1.974-2.216-4.1-3.147-6.229c-1.339-3.061-2.56-6.174-3.773-9.287c-1.521-3.899-3.313-7.734-4.381-11.758
	c-1.21-4.56-1.923-9.274-2.52-13.965c-0.449-3.529-1.399-6.997-1.227-10.625c0.169-3.563,0.157-7.146,0.001-10.71
	c-0.254-5.807-0.76-11.602-0.271-17.42c0.077-0.919-0.122-1.859-0.146-2.79c-0.026-1.082-0.018-2.165,0.01-3.247
	c0.026-1.009,0.159-2.019,0.141-3.025c-0.093-4.807-0.306-9.611-0.321-14.418c-0.046-13.708-0.009-27.417-0.028-41.126
	c-0.002-1.158-0.221-2.315-0.271-3.476c-0.146-3.337-0.392-6.676-0.345-10.011c0.047-3.254,0.566-6.502,0.593-9.755
	c0.054-6.692,0.121-13.374,0.616-20.057c0.281-3.796-0.043-7.633,0.085-11.445c0.129-3.85,0.642-7.688,0.705-11.537
	c0.199-12.142,0.289-24.284,0.365-36.427c0.016-2.406-0.264-4.812-0.325-7.22c-0.144-5.675-0.249-11.351-0.349-17.027
	c-0.151-8.554-0.236-17.109-0.442-25.661c-0.119-4.967-0.418-9.928-0.638-14.892c-0.007-0.155-0.04-0.309-0.053-0.464
	c-0.218-2.628-0.38-5.263-0.664-7.884c-0.562-5.199,0.775-10.217,1.587-15.25c0.824-5.117,2.201-10.157,3.552-15.172
	c1.392-5.17,2.952-10.299,4.602-15.393c2.557-7.896,5.242-15.75,7.893-23.614c0.521-1.544,1.226-3.031,1.689-4.59
	c1.482-4.987,3.028-9.935,5.477-14.566c1.086-2.055,2.029-4.211,2.783-6.408c0.896-2.612,2.188-4.962,3.802-7.176
	c0.496-0.68,1.064-1.447,1.185-2.237c0.455-3.008,0.59-6.08-0.595-8.94c-1.866-4.507-3.475-9.124-6.092-13.318
	c-1.65-2.647-2.296-5.62-0.445-8.593c0.285-0.458,0.415-1.012,0.694-1.475c1.324-2.19,1.894-4.56,1.905-7.112
	c0.007-1.413,0.421-2.726,1.292-3.914c1.185-1.617,2.224-3.339,3.377-4.98c1.966-2.796,3.873-5.642,5.983-8.326
	c3.294-4.192,6.173-8.705,10.257-12.288c2.96-2.597,5.339-5.852,8.273-8.483c3.623-3.248,7.477-6.256,11.385-9.16
	c1.782-1.324,3.931-2.16,5.923-3.195c1.584-0.824,3.359-1.391,4.742-2.466c3.002-2.334,6.622-3.378,9.891-5.14
	c2.234-1.205,4.63-2.113,6.859-3.328c3.637-1.981,7.371-3.679,11.478-4.357c4.357-0.719,8.755-1.202,13.099-1.988
	c8.471-1.534,16.931-3.135,25.365-4.858c3.638-0.744,7.263-1.555,10.727-3.071c2.74-1.199,5.49-0.917,8.154,0.914
	c3.926,2.699,6.293,6.514,7.786,10.77c2.144,6.106,4.973,11.874,7.802,17.654c1.5,3.064,3.061,6.121,4.864,9.011
	c2.63,4.213,5.541,8.249,8.259,12.408c1.482,2.271,2.785,4.66,4.223,6.961c1.266,2.027,2.77,3.921,3.879,6.027
	c1.734,3.289,3.035,6.812,4.857,10.047c3.885,6.902,5.555,14.584,8.09,21.962c0.15,0.435,0.242,0.912,0.244,1.37
	c0.02,3.804,0.091,7.611-0.025,11.412c-0.049,1.612-0.424,3.231-0.799,4.812c-0.592,2.484-1.332,4.933-1.967,7.408
	c-1.082,4.223-2.15,8.441-4.648,12.128c-0.865,1.276-1.596,2.645-2.375,3.978c-1.723,2.949-3.427,5.91-5.172,8.847
	c-0.271,0.458-0.688,0.843-1.086,1.21c-1.256,1.156-2.535,2.288-3.988,3.593C517.556,289.753,519.141,293.875,520.648,298.026z"/>
</svg>
