<?xml version="1.0" encoding="utf-8"?>
<!-- Generator: Adobe Illustrator 16.0.0, SVG Export Plug-In . SVG Version: 6.00 Build 0)  -->
<!DOCTYPE svg PUBLIC "-//W3C//DTD SVG 1.1//EN" "http://www.w3.org/Graphics/SVG/1.1/DTD/svg11.dtd">
<svg version="1.1" id="Layer_1" xmlns="http://www.w3.org/2000/svg" xmlns:xlink="http://www.w3.org/1999/xlink" x="0px" y="0px"
	 width="850.39px" height="850.39px" viewBox="0 0 850.39 850.39" enable-background="new 0 0 850.39 850.39" xml:space="preserve">
<path fill="#FFFFFF" d="M38.921,34.142c2.254,0.325,4.082,0.545,5.893,0.862c1.877,0.328,3.738,0.749,5.612,1.13
	c0.613-3.785,3.807-6.016,7.903-5.774c1.499,0.088,3.017,0.38,4.456,0.814s2.789,1.163,4.108,1.733
	c2.439-0.798,4.804-1.882,7.279-2.281c1.863-0.301,3.905,0.102,5.8,0.511c1.937,0.418,3.059,1.683,2.129,4.381
	c2.755-0.26,5.142-0.484,7.527-0.714c0.562-0.054,1.285-0.385,1.657-0.151c1.43,0.901,2.368-0.206,3.22-0.787
	c2.305,0.945,2.852,2.739,2.987,4.631c0.249,3.462,0.375,6.936,0.468,10.406c0.111,4.16,0.099,8.324,0.203,12.484
	c0.335,13.422,2.884,26.568,5.091,39.75c0.531,3.173,0.784,6.209-0.383,9.253c-0.731,1.91-0.888,3.799-0.138,5.782
	c0.315,0.834,0.414,1.876,0.22,2.734c-0.14,0.616-0.9,1.474-1.437,1.514c-0.562,0.041-1.617-0.696-1.702-1.216
	c-0.262-1.596-0.038-3.267-0.244-4.878c-0.138-1.082-0.601-2.15-1.065-3.156c-0.815-1.765-2.196-3.392-2.547-5.228
	c-1.551-8.108-3.241-16.228-4.077-24.425c-0.92-9.02-0.959-18.129-1.381-27.2c-0.117-2.506-0.232-5.013-0.358-7.75
	c-0.967,0-1.942,0-3.316,0c0.371,1.513,0.685,2.79,1.016,4.138c-1.664,1.48-3.351,0.743-4.864,0.009
	c-1.987-0.962-3.812-2.252-5.767-3.288c-1.062-0.562-2.247-0.89-3.612-1.414c0,1.556,0,2.683,0,3.823
	c0.499,0,0.844,0.027,1.184-0.004c2.496-0.23,3.043,0.288,2.418,2.531c-0.431,1.547-1.059,3.038-1.703,4.851
	c0.889,0.171,1.627,0.327,2.369,0.455c2.884,0.495,3.245,1.689,3.29,4.75c0.033,2.248-0.501,3.517-2.445,4.219
	c-0.736,0.266-1.619,0.272-2.416,0.196c-2.08-0.197-4.145-0.666-6.223-0.726c-2.31-0.067-4.626,0.252-6.942,0.307
	c-2.847,0.067-5.762,1.312-8.521-0.408c-0.391-0.244-0.743-0.55-1.214-0.903c0.048-0.671,0.246-1.381,0.111-2.021
	c-0.246-1.167-1.343-2.167-0.222-3.512c1.148-1.377,2.573-1.926,4.27-2.051c0.331-0.024,0.654-0.171,0.933-0.248
	c1.066-2.781-2.284-4.823-1.12-7.95c1.621,0.44,3.128,0.849,4.871,1.322c0-1.699,0-3.254,0-5.41
	c-2.188,1.003-4.081,1.796-5.902,2.729c-1.555,0.797-3.002,1.8-4.541,2.633c-3.079,1.668-4.402,0.815-4.409-2.778
	c-0.001-0.216-0.116-0.433-0.256-0.923c-0.828-0.214-1.795-0.463-3.143-0.811c0,4.43,0.121,8.576-0.029,12.712
	c-0.211,5.814-0.732,11.617-0.921,17.431c-0.208,6.427-1.11,12.752-2.31,19.047c-0.719,3.769-1.497,7.527-2.319,11.274
	c-0.222,1.014-0.421,2.28-1.109,2.901c-2.702,2.439-2.362,5.593-2.435,8.69c-0.011,0.457-0.099,0.912-0.19,1.707
	c-0.956,0.092-1.9,0.183-2.851,0.275c-0.187-0.604-0.312-0.922-0.375-1.251c-0.043-0.224-0.033-0.473,0.016-0.697
	c0.797-3.7,0.059-7.259-0.508-10.935c-0.464-3.009,0.281-6.244,0.72-9.346c1.466-10.342,3.414-20.632,4.439-31.016
	c0.725-7.345,0.22-14.809,0.338-22.218C36.512,40.973,36.239,37.17,38.921,34.142z"/>
<path fill="#161616" d="M44.165,35.724c-1.556-0.151-3.149-0.306-5.137-0.5c-0.536,0.936-1.264,2.208-2.003,3.5
	c-1.709-1.686-5.778-11.28-6.666-15.673c1.625-1.042,3.268-0.445,4.894,0.074c2.333,0.746,4.65,1.538,6.984,2.281
	c2.211,0.704,4.434,1.372,6.89,2.129c0.554-2.108,2.004-2.2,3.775-1.851c6.092,1.201,12.295,1.735,18.439,1.129
	c5.168-0.51,10.244-1.937,15.362-2.95c0.639-0.126,1.286-0.208,2.518-0.405c-0.465,1.345-0.771,2.233-1.266,3.665
	c2.306-0.58,4.386-1.035,6.426-1.63c2.797-0.818,5.541-1.819,8.349-2.592c1.713-0.472,2.499,0.337,1.938,2.044
	c-1.856,5.646-3.826,11.256-5.777,16.871c-0.099,0.283-0.435,0.484-0.86,0.938c-2.233-2.161-0.278-5.759-2.742-7.62
	c-1.567,0.22-3.145,0.442-4.954,0.696c0.211,3.196,0.524,6.608,0.641,10.027c0.154,4.532,0.191,9.069,0.194,13.604
	c0.001,1.022-0.181,2.111-0.559,3.057c-3.071,7.687-6.251,15.331-9.294,23.028c-0.66,1.669-1.642,2.378-3.39,2.369
	c-7.472-0.039-14.943-0.025-22.415-0.046c-0.333-0.001-0.665-0.161-1.254-0.314c-1.646-4.594-3.343-9.289-5.011-13.994
	c-1.636-4.615-3.152-9.274-4.897-13.847c-0.978-2.565-1.263-5.114-1.066-7.822c0.21-2.897,0.117-5.814,0.264-8.717
	C43.672,40.686,43.953,38.203,44.165,35.724z M58.339,38.407c0.083,0.372,0.165,0.743,0.248,1.115
	c-1.048,0.391-2.083,0.826-3.149,1.163c-1.431,0.452-2.89,0.811-4.327,1.242c-1.757,0.527-2.735,1.794-2.893,3.555
	c-0.141,1.58-0.029,3.182-0.029,5.347c4.027-0.712,6.603-3.261,9.689-4.644c3.168-1.418,6.368-2.767,9.643-4.185
	c0.438,0.292,0.974,0.771,1.598,1.041c4.904,2.118,9.832,4.169,14.361,7.07c0.854,0.547,2.119,0.453,3.274,0.669
	c-0.192-1.676-0.486-2.912-0.437-4.133c0.059-1.453-0.434-2.537-1.61-3.255c-1.073-0.654-2.225-1.193-3.38-1.697
	c-1.818-0.792-3.868-1.142-6.045-3.026c2.204-0.129,3.605-0.211,4.955-0.29c0.556-1.973,1.019-3.618,1.506-5.346
	c-3.776-2.888-7.682-2.243-11.346-0.552c-2.331,1.077-4.026,1.171-6.422,0.013c-4.151-2.005-8.509-2.351-12.361,1.316
	c0.476,1.708,0.932,3.345,1.417,5.084C54.831,38.729,56.585,38.568,58.339,38.407z M53.736,60.439
	c0.183,1.23,0.227,2.247,0.51,3.192c0.207,0.69,0.582,1.58,1.141,1.857c0.878,0.436,1.989,0.637,2.977,0.573
	c2.543-0.165,5.074-0.759,7.608-0.756c3.122,0.003,6.242,0.459,9.364,0.679c4.116,0.289,4.31,0.119,4.936-3.89
	c0.381-2.44-0.239-3.267-2.71-3.667c-0.984-0.159-1.961-0.367-3.127-0.588c0.882-2.563,1.644-4.777,2.405-6.991
	c-0.211-0.19-0.423-0.38-0.634-0.57c-1.026,0.387-2.087,0.705-3.075,1.172c-5.858,2.769-5.843,2.757-11.863-0.024
	c-1.051-0.485-2.235-0.682-3.797-1.141c1.073,2.88,2.466,4.998,1.858,7.687C57.274,58.465,54.89,58.087,53.736,60.439z"/>
</svg>
