<?xml version="1.0" encoding="utf-8"?>
<!-- Generator: Adobe Illustrator 16.0.0, SVG Export Plug-In . SVG Version: 6.00 Build 0)  -->
<!DOCTYPE svg PUBLIC "-//W3C//DTD SVG 1.1//EN" "http://www.w3.org/Graphics/SVG/1.1/DTD/svg11.dtd">
<svg version="1.1" id="Layer_1" xmlns="http://www.w3.org/2000/svg" xmlns:xlink="http://www.w3.org/1999/xlink" x="0px" y="0px"
	 width="850.39px" height="850.39px" viewBox="0 0 850.39 850.39" enable-background="new 0 0 850.39 850.39" xml:space="preserve">
<path fill="#4715D7" d="M84.573,110.251c-9.866-5.719-19.105-11.667-27.994-18.151c-9.254-6.75-18.17-13.896-25.845-22.467
	c-3.777-4.218-6.993-8.793-9.357-13.978c-3.162-6.933-6.487-13.792-9.727-20.689c-0.844-1.795-0.822-1.814,0.875-2.667
	c1.083-0.543,2.156-1.12,3.275-1.58c5.882-2.419,10.705-6.277,15.079-10.815c1.855-1.926,3.96-3.613,6.193-5.626
	c0.349,0.087,0.512,0.944,0.885,1.569c4.44,7.437,8.86,14.886,13.273,22.339c0.664,1.121,1.38,2.196,2.221,3.194
	c5.583,6.626,11.165,13.252,16.717,19.904c1.017,1.216,2.161,2.181,3.573,2.931c4.666,2.479,9.296,5.022,13.911,7.593
	c2.455,1.368,5.182,1.93,7.798,2.822c1.881,0.642,1.905,0.646,1.316,2.518c-1.06,3.375-2.149,6.739-3.324,10.41
	c3.122-0.346,5.942-0.018,8.781-0.336c2.483-0.278,5.005-0.231,7.51-0.319c5.181-0.182,10.362-0.319,15.542-0.547
	c6.812-0.3,13.635-0.295,20.44-0.818c1.777-0.137,3.576-0.021,5.279-0.021c0.309-1.013-0.047-1.64-0.25-2.289
	c-0.652-2.065-1.316-4.125-1.963-6.192c-0.645-2.059-0.666-2.169,1.299-2.693c8.42-2.244,15.398-7.423,23.047-11.235
	c0.807-0.401,1.301-1.129,1.855-1.79c5.408-6.433,10.805-12.877,16.229-19.295c1.291-1.528,2.439-3.139,3.455-4.862
	c4.314-7.31,8.66-14.602,12.994-21.899c0.305-0.513,0.611-1.025,0.801-1.339c1.756,1.578,3.605,3.002,5.172,4.688
	c4.775,5.136,10.135,9.404,16.664,12.128c1.477,0.615,3.684,0.96,4.029,2.407c0.285,1.186-1.082,2.778-1.742,4.178
	c-2.66,5.64-5.453,11.22-7.965,16.924c-2.875,6.522-7.002,12.126-11.875,17.243c-7.441,7.813-15.844,14.496-24.557,20.805
	c-8.074,5.847-16.439,11.255-25.023,16.318c-0.652,0.384-1.248,0.92-2.061,0.993c-0.74-0.471-0.848-1.308-1.131-2.001
	c-2.232-5.445-4.947-10.695-6.652-16.351c-0.271-0.897-0.723-1.247-1.65-1.234c-4.578,0.062-9.156,0.05-13.725,0.478
	c-2.412,0.226-4.842,0.068-7.267,0.189c-5.954,0.298-11.92,0.358-17.878,0.58c-6.554,0.244-13.104,0.593-19.659,0.821
	c-1.18,0.041-1.352,0.773-1.686,1.584C89.22,99.108,86.953,104.532,84.573,110.251z"/>
<path fill="#030303" d="M209.335,13.825c3.936,3.832,7.406,7.956,11.559,11.394c1.01,0.833,2.02,1.6,3.242,2.104
	c3.357,1.386,6.375,3.472,9.781,4.763c0.984,0.373,0.904,0.979,0.484,1.85c-2.713,5.608-5.352,11.252-8.035,16.874
	c-0.934,1.953-2.033,3.831-2.861,5.824c-0.623,1.498-1.562,2.074-3.145,2.125c-5.629,0.183-11.254,0.456-16.881,0.706
	c-6.666,0.295-13.33,0.604-19.994,0.904c-0.693,0.031-1.387,0.072-2.078,0.083c-1.625,0.025-1.625,0.019-1.662-1.872
	c-5.248,0.413-10.506,0.102-15.766,0.31c-7.777,0.307-15.572,0.164-23.354,0.402c-4.764,0.146-9.531-0.022-14.284,0.203
	c-8.818,0.417-17.646,0.256-26.461,0.53c-9.167,0.285-18.332,0.469-27.502,0.493c-1.72,0.004-3.683-0.177-5.107,0.424
	c-3.415,1.441-6.766,0.506-10.101,0.402c-10.391-0.326-20.771-0.963-31.161-1.346c-1.987-0.073-3.095-0.654-3.938-2.532
	c-3.407-7.575-6.992-15.069-10.498-22.599c-0.803-1.725-0.743-1.666,1.038-2.545c3.489-1.724,7.03-3.378,10.37-5.366
	c2.293-1.365,4.148-3.394,6.01-5.333c2.459-2.562,4.881-5.161,7.483-7.918c2.317,3.146,5.132,5.806,6.952,9.29
	c3.729,7.135,7.597,14.197,11.346,21.321c1.058,2.01,2.266,3.865,3.855,5.497c1.631,1.675,3.229,3.394,4.714,5.197
	c0.864,1.051,1.811,1.429,3.136,1.342c6.474-0.427,12.963-0.208,19.445-0.479c7.523-0.316,15.069-0.055,22.598-0.308
	c8.993-0.303,17.99-0.307,26.982-0.535c9.082-0.229,18.168-0.228,27.24-0.556c5.963-0.216,11.934,0.057,17.889-0.399
	c1.113-0.085,1.92-0.384,2.719-1.186c3.744-3.761,7.08-7.766,9.434-12.608c2.191-4.51,4.865-8.785,7.166-13.246
	C202.429,22.229,205.392,17.796,209.335,13.825z"/>
<path fill="#030303" d="M134.298,5.713c14.322,0.433,26.451,0.655,38.562,1.222c6.912,0.324,13.797,1.229,20.697,1.834
	c3.018,0.265,6.037,0.893,9.059,0.571c2.406-0.256,3.914,0.773,5.268,2.512c1.416,1.817,1.479,1.798,0.338,3.713
	c-5.09,8.556-9.496,17.5-14.625,26.025c-10.787,17.935-13.152,19.094-28.582,28.465c-3.375,2.05-6.883,3.581-10.84,4
	c-0.943,0.1-1.867,0.38-2.805,0.534c-0.83,0.136-1.725,0.959-2.447,0.375c-0.846-0.683-1.432-1.708-2.059-2.634
	c-0.229-0.34-0.312-0.815-0.354-1.239c-0.365-3.585-1.611-3.461,2.75-3.884c5.787-0.562,10.789-2.656,15.139-6.588
	c3.658-3.307,7.58-6.325,11.408-9.44c7.361-5.988,12.131-13.896,16.428-22.15c0.744-1.431,0.525-1.829-1.066-1.955
	c-6.646-0.525-13.303-0.957-19.951-1.472c-12.545-0.97-25.117-0.18-37.662-0.542c-17.252-0.498-34.407,1.033-51.599,1.783
	c-8.387,0.366-16.773,0.957-25.122,1.93c-0.687,0.08-1.375,0.173-2.053,0.31c-2.264,0.458-2.546,0.992-1.688,3.206
	c0.537,1.381,1.308,2.643,2.194,3.818c2.191,2.902,4.413,5.783,6.641,8.657c1.494,1.927,3.244,3.596,5.186,5.075
	c5.371,4.096,10.734,8.201,16.09,12.318c2.951,2.268,6.29,3.539,9.963,3.99c1.805,0.222,3.608,0.456,5.416,0.649
	c0.989,0.106,1.257,0.534,1.131,1.552c-0.251,2.014-0.647,3.891-2.14,5.431c-0.568,0.587-1.04,0.737-1.801,0.594
	c-2.893-0.542-5.797-1.023-8.695-1.527c-1.035-0.18-1.99-0.58-2.922-1.046c-6.043-3.025-11.888-6.396-17.506-10.151
	c-2.616-1.749-4.779-3.995-6.812-6.37c-4.632-5.414-8.611-11.299-12.176-17.445c-3.952-6.815-7.951-13.601-12.174-20.25
	c-0.794-1.251-0.739-1.98,0.233-3.094c3.92-4.49,3.879-4.482,9.714-4.897C56.062,8.838,66.682,8.01,77.305,7.236
	c3.714-0.271,7.438-0.422,11.149-0.715c9.505-0.75,19.023-0.918,28.554-0.821C123.504,5.766,130.002,5.713,134.298,5.713z"/>
<path fill="#38E10B" d="M97.201,114.566c-0.343-0.166-0.686-0.333-1.025-0.499c-0.164-0.014-0.33-0.028-0.495-0.043
	c-0.965-0.353-1.925-0.719-2.896-1.053c-0.423-0.146-0.875-0.309-0.997-0.742c-0.791-2.826-3.637-3.664-5.365-5.58
	c-0.545-0.604-1.84,0.394-2.167-0.781c-0.243-0.873,0.446-1.613,0.743-2.374c4.608-11.803,9.278-23.582,13.941-35.364
	c0.188-0.479,0.451-0.929,0.68-1.392c14.742-0.017,29.483-0.034,44.225-0.05c0.98-0.083,1.615,0.284,1.951,1.27
	c1.814,5.308,4.146,10.416,5.938,15.748c1.021,3.042,2.471,6.022,3.682,9.048c1.365,3.411,2.711,6.831,4.07,10.244
	c1.078,2.707,1.098,2.794-1.096,4.551c-1.221,0.978-2.232,2.021-2.994,3.446c-1.258,2.353-1.576,2.323-3.506,0.688
	c-1.994,1.047-3.309,3.026-5.447,3.904c-0.947,0.388-1.105,1.481-1.482,2.346c-0.434,0.994-0.641,2.383-2.305,1.488
	c-0.271-0.145-0.541-0.05-0.686,0.153c-0.967,1.37-2.674,2.184-2.908,4.115c-0.182,1.483-1.125,2.689-1.764,4.002
	c-0.902,1.859-1.793,3.726-2.729,5.567c-0.467,0.92-0.945,1.907-2.132,2.067c-0.676,0.091-0.778,0.624-0.976,1.066
	c-1.199,2.688-2.343,5.401-3.565,8.079c-0.515,1.124-0.196,2.336-0.688,3.512c-1.224,2.928-3,5.616-3.779,8.741
	c-0.179,0.716-0.913,1.112-1.614,1.119c-0.706,0.007-0.901-0.726-1.108-1.274c-0.314-0.832-0.152-1.712-0.137-2.574
	c0.044-0.043,0.133-0.12,0.126-0.129c-0.065-0.093-0.146-0.175-0.224-0.261c-0.045-0.39-0.09-0.779-0.136-1.167
	c0.045-0.136,0.008-0.244-0.11-0.322c-0.128-0.27-0.255-0.539-0.381-0.808c0.05-0.91-0.244-1.7-0.845-2.381
	c-0.708-0.757-1.436-1.498-2.12-2.277c-0.741-0.845-2.07-1.584-0.432-2.868c0.456-0.357-0.037-0.977-0.243-1.424
	c-1.27-2.746-2.561-5.481-3.858-8.214c-0.182-0.384-0.395-1.014-0.665-1.054c-1.918-0.289-1.892-1.938-2.44-3.223
	c-1.623-3.793-3.192-7.6-6.354-10.501c-1.457-1.338-2.636-2.979-3.938-4.482C98.449,114.337,97.808,114.549,97.201,114.566z"/>
<path fill="#0A0909" d="M150.023,122.601c4.303-1.687,4.23-1.645,6.416,2.056c4.412,7.475,7.189,15.552,8.486,24.071
	c0.854,5.609,1.441,11.265,0.357,17.019c-0.584,3.097-0.146,6.391-0.113,9.595c0.01,0.975-0.281,1.42-1.32,1.418
	c-0.992-0.003-1.393-0.335-1.354-1.368c0.066-1.729-0.055-3.468,0.033-5.196c0.316-6.185-0.973-12.227-1.541-18.333
	c-0.486-5.206-1.896-10.177-3.641-15.073c-0.613-1.724-0.633-1.719-2.381-1.11c-4.076,1.42-8.146,2.856-12.234,4.247
	c-0.738,0.252-1.484,0.462-2.129,0.912c-2.635,1.844-5.512,3.245-8.416,4.598c-0.597,0.278-1.288,0.456-1.77,1.16
	c1.02,1.237,2.39,2.009,3.546,3.02c0.58,0.508,1.262,0.894,1.639,1.632c0.791,1.554,0.396,2.12-1.295,2.293
	c-3.81,0.393-7.144-0.965-10.354-2.698c-1.605-0.867-3.024-0.907-4.634-0.099c-3.151,1.582-6.484,2.281-10.034,1.843
	c-1.533-0.189-1.921-0.811-1.197-2.192c0.338-0.645,0.914-1.027,1.477-1.431c1.254-0.903,2.508-1.805,3.816-2.747
	c-0.391-0.808-1.087-0.982-1.647-1.286c-3.196-1.736-6.359-3.499-9.131-5.916c-1.435-1.25-3.354-1.731-5.059-2.549
	c-2.872-1.376-5.802-2.633-8.91-4.03c-1.954,3.708-3.039,7.605-4.106,11.506c-1.146,4.185-1.386,8.514-2.027,12.781
	c-0.918,6.104-1.081,12.23-0.949,18.379c0.021,0.952-0.007,1.688-1.321,1.659c-1.267-0.028-1.342-0.723-1.339-1.69
	c0.011-3.204,0.356-6.467-0.138-9.596c-0.7-4.433-0.451-8.774-0.015-13.165c1.061-10.684,4.54-20.533,10.075-29.703
	c0.65-1.078,1.177-1.531,2.427-0.952c0.833,0.387,1.861,0.303,2.829,1.009c-1.102,1.809-2.205,3.622-3.439,5.649
	c1.729,0.821,3.319,1.589,4.922,2.336c2.975,1.385,5.995,2.676,8.916,4.167c1.808,0.922,3.791,1.166,5.646,1.866
	c3.316,1.254,6.673,2.436,9.781,4.158c1.445,0.801,2.684,0.757,4.142,0.079c3.219-1.499,6.594-2.599,10.004-3.581
	c0.664-0.191,1.33-0.395,2.01-0.498c6.117-0.926,11.641-3.729,17.49-5.494c1.074-0.324,1.166-0.837,0.666-1.683
	C152.843,127.358,151.476,125.054,150.023,122.601z"/>
<path fill="#3FF60F" d="M130.176,146.366c2.328-1.173,4.392-2.217,6.46-3.254c2.252-1.13,4.393-2.428,6.166-4.249
	c0.455-0.467,1.24-0.871,0.799-1.693c-0.34-0.638-0.984-0.917-1.748-0.898c-2.518,0.061-5,0.365-7.43,1.033
	c-1.059,0.292-2.104,0.627-3.185,0.952c-0.332-0.897,0.232-1.447,0.511-2.012c1.793-3.649,3.629-7.276,5.479-10.896
	c1.4-2.738,3.752-4.736,5.598-7.125c2.32-3.004,5.232-5.267,8.471-7.142c2.775-1.607,5.492-3.295,7.961-5.344
	c0.93-0.77,1.758-1.084,2.641,0.004c0.795,0.979,1.643,0.555,2.535,0.136c3.443-1.619,6.898-3.213,10.354-4.81
	c0.621-0.287,1.258-0.542,1.939-0.834c-0.311,1.881-12.715,27.401-15.777,32.528c-0.811-0.387-0.883-1.253-1.148-1.93
	c-1.143-2.918-2.91-5.497-4.326-8.263c-0.617-1.204-1.35-1.384-2.469-0.886c-0.311,0.139-0.66,0.21-0.996,0.284
	c-1.07,0.232-1.543,0.715-0.814,1.778c0.34,0.499,0.617,1.042,0.957,1.542c2.1,3.095,3.545,6.523,5.119,9.891
	c0.941,2.016,0.965,3.781-0.156,5.856c-2.67,4.945-5.221,9.958-7.883,14.911c-0.914,1.698-2.152,2.755-3.857,3.576
	c-6.732,3.237-13.91,5.249-20.913,7.736c-1.553,0.551-3.141,0.457-4.81-0.098c-7.152-2.375-14.167-5.051-20.887-8.491
	c-1.297-0.665-2.212-1.492-2.858-2.813c-2.701-5.515-5.426-11.021-8.278-16.459c-0.816-1.557-0.823-2.885-0.109-4.402
	c1.621-3.442,3.136-6.935,5.296-10.095c0.477-0.698,1.025-1.375,1.161-2.155c-0.058-0.422-0.32-0.478-0.561-0.554
	c-3.311-1.045-3.261-1.015-5.082,2.021c-1.506,2.511-2.769,5.144-4.131,8.304c-5.32-10.87-10.414-21.277-15.743-32.163
	c2.91,1.277,5.335,2.341,7.76,3.408c1.347,0.592,2.702,1.163,4.03,1.792c1.352,0.641,2.634,1.358,3.838-0.308
	c0.479-0.661,1.082-0.189,1.572,0.19c1.847,1.431,3.732,2.815,5.524,4.312c1.207,1.007,2.451,1.912,3.908,2.51
	c2.524,1.035,4.496,2.784,6.519,4.592c5.44,4.867,8.631,11.167,11.763,17.538c0.601,1.223,1.134,2.48,1.781,3.902
	c-1.543-0.162-2.67-0.806-3.832-1.276c-2.439-0.987-5.02-1.278-7.572-1.713c-0.337-0.058-0.699-0.075-1.033-0.018
	c-1.462,0.25-1.775,1.193-0.763,2.333c1.742,1.961,3.834,3.49,6.094,4.793c1.939,1.118,3.897,2.201,5.999,3.385
	c-1.137,1.29-2.581,1.922-3.755,2.887c-0.597,0.49-1.302,0.851-1.704,1.566c-0.771,1.373-0.414,2.029,1.206,2.112
	c2.862,0.148,5.657,0.084,8.341-1.254c1.768-0.881,1.855-0.715,2.652,1.013c0.571,1.238,1.126,2.483,1.8,3.972
	c1.2-1.033,1.481-2.323,1.959-3.441c0.5-1.172,1.026-1.768,2.274-0.917c2.371,1.616,5.112,1.387,7.772,1.486
	c1.43,0.053,1.822-0.666,1.229-1.956c-0.385-0.835-1.146-1.279-1.805-1.824C132.828,148.45,131.604,147.503,130.176,146.366z"/>
</svg>
