<?xml version="1.0" encoding="utf-8"?>
<!-- Generator: Adobe Illustrator 16.0.0, SVG Export Plug-In . SVG Version: 6.00 Build 0)  -->
<!DOCTYPE svg PUBLIC "-//W3C//DTD SVG 1.1//EN" "http://www.w3.org/Graphics/SVG/1.1/DTD/svg11.dtd">
<svg version="1.1" id="Layer_1" xmlns="http://www.w3.org/2000/svg" xmlns:xlink="http://www.w3.org/1999/xlink" x="0px" y="0px"
	 width="850.39px" height="850.39px" viewBox="0 0 850.39 850.39" enable-background="new 0 0 850.39 850.39" xml:space="preserve">
<path fill="#4715D7" d="M58.658,75.435c-5.984-2.892-11.588-5.9-16.98-9.18c-5.613-3.414-11.021-7.027-15.677-11.362
	c-2.291-2.133-4.242-4.447-5.676-7.069c-1.918-3.506-3.935-6.975-5.9-10.463c-0.512-0.908-0.499-0.917,0.531-1.349
	c0.657-0.275,1.308-0.566,1.987-0.799c3.568-1.223,6.493-3.174,9.146-5.469c1.125-0.975,2.402-1.828,3.757-2.845
	c0.211,0.044,0.31,0.477,0.537,0.793c2.693,3.761,5.374,7.528,8.051,11.297c0.403,0.567,0.837,1.11,1.347,1.615
	c3.387,3.351,6.772,6.702,10.14,10.066c0.617,0.615,1.311,1.103,2.167,1.482c2.83,1.253,5.638,2.54,8.438,3.84
	c1.489,0.692,3.143,0.976,4.73,1.427c1.141,0.325,1.155,0.327,0.798,1.273c-0.643,1.707-1.304,3.408-2.017,5.265
	c1.894-0.175,3.604-0.009,5.327-0.17c1.506-0.141,3.036-0.117,4.555-0.161c3.143-0.092,6.285-0.162,9.427-0.277
	c4.132-0.152,8.271-0.149,12.398-0.414c1.078-0.069,2.169-0.011,3.203-0.011c0.187-0.513-0.029-0.83-0.152-1.158
	c-0.396-1.044-0.798-2.086-1.19-3.131c-0.391-1.042-0.404-1.097,0.788-1.362c5.107-1.135,9.34-3.754,13.979-5.682
	c0.489-0.203,0.789-0.571,1.125-0.905c3.281-3.253,6.554-6.513,9.844-9.758c0.783-0.773,1.479-1.587,2.096-2.458
	c2.617-3.697,5.253-7.385,7.882-11.075c0.185-0.26,0.371-0.519,0.486-0.678c1.065,0.798,2.187,1.519,3.137,2.371
	c2.896,2.598,6.147,4.756,10.108,6.134c0.896,0.311,2.234,0.485,2.444,1.217c0.173,0.6-0.656,1.405-1.057,2.113
	c-1.614,2.853-3.308,5.674-4.832,8.559c-1.744,3.298-4.247,6.132-7.203,8.721c-4.514,3.951-9.61,7.331-14.896,10.521
	c-4.897,2.957-9.972,5.692-15.178,8.253c-0.396,0.194-0.757,0.465-1.25,0.502c-0.449-0.238-0.514-0.662-0.686-1.012
	c-1.354-2.753-3-5.409-4.035-8.269c-0.165-0.454-0.438-0.63-1.001-0.624c-2.777,0.031-5.554,0.025-8.325,0.242
	c-1.463,0.114-2.937,0.034-4.408,0.096c-3.611,0.151-7.23,0.181-10.844,0.293c-3.975,0.124-7.948,0.3-11.924,0.416
	c-0.716,0.021-0.82,0.391-1.022,0.801C61.477,69.8,60.102,72.543,58.658,75.435z"/>
<path fill="#030303" d="M134.335,26.669c2.387,1.938,4.493,4.024,7.011,5.763c0.612,0.421,1.225,0.809,1.967,1.064
	c2.036,0.701,3.867,1.756,5.933,2.409c0.597,0.188,0.549,0.495,0.294,0.936c-1.646,2.836-3.246,5.69-4.874,8.534
	c-0.566,0.988-1.233,1.938-1.736,2.946c-0.378,0.757-0.948,1.048-1.907,1.075c-3.415,0.092-6.826,0.23-10.24,0.356
	c-4.043,0.149-8.085,0.306-12.127,0.458c-0.421,0.016-0.841,0.036-1.261,0.042c-0.985,0.013-0.985,0.01-1.008-0.947
	c-3.183,0.209-6.372,0.052-9.562,0.157c-4.718,0.155-9.446,0.083-14.166,0.203c-2.89,0.074-5.781-0.011-8.664,0.103
	c-5.349,0.211-10.703,0.129-16.05,0.268c-5.561,0.145-11.12,0.237-16.682,0.25c-1.043,0.002-2.233-0.089-3.098,0.214
	c-2.072,0.729-4.104,0.256-6.127,0.204c-6.303-0.165-12.599-0.487-18.901-0.681c-1.206-0.037-1.877-0.331-2.389-1.281
	c-2.067-3.831-4.241-7.621-6.368-11.429c-0.487-0.873-0.451-0.843,0.63-1.287c2.116-0.872,4.264-1.708,6.29-2.714
	c1.391-0.69,2.517-1.717,3.646-2.697c1.492-1.296,2.96-2.61,4.539-4.004c1.406,1.591,3.113,2.936,4.217,4.698
	c2.262,3.608,4.608,7.18,6.882,10.783c0.641,1.017,1.374,1.955,2.338,2.78c0.989,0.847,1.959,1.716,2.859,2.628
	c0.524,0.531,1.098,0.722,1.902,0.678c3.927-0.216,7.863-0.105,11.795-0.242c4.563-0.16,9.141-0.027,13.707-0.156
	c5.455-0.153,10.913-0.155,16.367-0.271c5.509-0.116,11.02-0.115,16.523-0.281c3.617-0.109,7.238,0.029,10.851-0.202
	c0.675-0.043,1.165-0.194,1.649-0.6c2.271-1.902,4.295-3.928,5.722-6.376c1.329-2.281,2.951-4.443,4.347-6.699
	C130.146,30.919,131.943,28.677,134.335,26.669z"/>
<path fill="#030303" d="M88.82,22.566c8.687,0.219,16.044,0.332,23.391,0.618c4.192,0.164,8.369,0.622,12.554,0.927
	c1.831,0.134,3.662,0.452,5.495,0.289c1.459-0.13,2.374,0.391,3.195,1.271c0.859,0.919,0.896,0.909,0.205,1.877
	c-3.087,4.327-5.76,8.851-8.871,13.162c-6.543,9.071-7.978,9.657-17.337,14.396c-2.047,1.037-4.175,1.811-6.575,2.023
	c-0.572,0.051-1.133,0.192-1.701,0.27c-0.504,0.069-1.046,0.485-1.485,0.19c-0.513-0.346-0.868-0.864-1.249-1.332
	c-0.139-0.172-0.189-0.412-0.214-0.627c-0.222-1.813-0.978-1.75,1.668-1.964c3.51-0.284,6.544-1.343,9.183-3.332
	c2.219-1.672,4.598-3.199,6.92-4.774c4.465-3.028,7.358-7.027,9.964-11.202c0.452-0.724,0.319-0.925-0.646-0.989
	c-4.032-0.266-8.069-0.484-12.102-0.745c-7.609-0.491-15.235-0.091-22.844-0.274c-10.465-0.252-20.87,0.522-31.299,0.902
	c-5.087,0.185-10.174,0.484-15.238,0.976c-0.417,0.041-0.834,0.088-1.245,0.157c-1.373,0.232-1.544,0.502-1.024,1.622
	c0.326,0.698,0.793,1.337,1.331,1.931c1.329,1.468,2.677,2.925,4.028,4.378c0.907,0.975,1.968,1.819,3.146,2.566
	c3.258,2.072,6.511,4.148,9.76,6.23c1.79,1.147,3.815,1.79,6.043,2.018c1.095,0.112,2.189,0.23,3.285,0.328
	c0.6,0.054,0.763,0.27,0.686,0.785c-0.152,1.019-0.393,1.968-1.298,2.747c-0.345,0.297-0.631,0.373-1.092,0.301
	c-1.754-0.274-3.516-0.518-5.274-0.772c-0.628-0.091-1.207-0.293-1.772-0.529c-3.666-1.53-7.211-3.235-10.619-5.134
	c-1.587-0.884-2.899-2.02-4.132-3.221c-2.81-2.738-5.223-5.714-7.385-8.823c-2.397-3.446-4.823-6.878-7.384-10.241
	c-0.481-0.632-0.449-1.001,0.142-1.564c2.377-2.271,2.353-2.267,5.892-2.477c6.445-0.382,12.887-0.801,19.33-1.192
	c2.253-0.137,4.511-0.213,6.763-0.362c5.766-0.379,11.539-0.464,17.32-0.415C82.272,22.593,86.214,22.566,88.82,22.566z"/>
<path fill="#38E10B" d="M66.318,77.617c-0.208-0.084-0.416-0.168-0.622-0.252c-0.1-0.007-0.2-0.014-0.3-0.022
	c-0.585-0.179-1.167-0.363-1.756-0.532c-0.257-0.074-0.531-0.157-0.605-0.375c-0.48-1.429-2.206-1.853-3.254-2.822
	c-0.331-0.305-1.116,0.199-1.314-0.395c-0.147-0.441,0.271-0.815,0.451-1.2c2.795-5.97,5.628-11.926,8.457-17.885
	c0.114-0.242,0.274-0.47,0.412-0.704c8.942-0.009,17.884-0.018,26.826-0.025c0.595-0.042,0.98,0.144,1.184,0.642
	c1.101,2.685,2.515,5.268,3.602,7.964c0.62,1.539,1.499,3.046,2.233,4.576c0.828,1.725,1.645,3.455,2.469,5.181
	c0.654,1.369,0.666,1.413-0.665,2.301c-0.741,0.495-1.354,1.022-1.816,1.743c-0.763,1.19-0.956,1.175-2.126,0.348
	c-1.209,0.53-2.007,1.531-3.304,1.975c-0.575,0.196-0.67,0.749-0.899,1.187c-0.263,0.502-0.389,1.205-1.398,0.752
	c-0.165-0.073-0.329-0.025-0.416,0.077c-0.586,0.693-1.622,1.105-1.764,2.081c-0.11,0.75-0.682,1.36-1.07,2.024
	c-0.547,0.94-1.087,1.884-1.655,2.815c-0.283,0.465-0.574,0.964-1.293,1.045c-0.41,0.046-0.472,0.315-0.592,0.539
	c-0.728,1.359-1.421,2.731-2.163,4.085c-0.312,0.569-0.119,1.182-0.417,1.776c-0.742,1.481-1.82,2.84-2.292,4.421
	c-0.108,0.362-0.554,0.562-0.979,0.566c-0.428,0.003-0.547-0.368-0.672-0.645c-0.191-0.421-0.093-0.866-0.083-1.302
	c0.026-0.022,0.081-0.061,0.076-0.065c-0.04-0.047-0.089-0.088-0.135-0.132c-0.027-0.197-0.055-0.394-0.083-0.59
	c0.027-0.068,0.005-0.123-0.067-0.163c-0.078-0.137-0.155-0.273-0.231-0.409c0.03-0.46-0.148-0.86-0.513-1.204
	c-0.429-0.383-0.871-0.758-1.286-1.152c-0.45-0.427-1.256-0.801-0.262-1.45c0.277-0.181-0.022-0.494-0.147-0.72
	c-0.77-1.389-1.553-2.772-2.34-4.154c-0.11-0.194-0.239-0.513-0.403-0.533c-1.163-0.146-1.147-0.979-1.48-1.63
	c-0.984-1.918-1.936-3.843-3.854-5.311c-0.884-0.677-1.599-1.506-2.389-2.267C67.075,77.501,66.686,77.609,66.318,77.617z"/>
<path fill="#0A0909" d="M91.03,91.421c-1.088-0.236-2.145-0.165-3.173-0.103c-4.445,0.264-8.883,0.261-13.328,0.002
	c-0.995-0.058-1.974-0.173-2.961-0.253c-0.923-0.075-1.684-0.46-2.447-0.843C68.571,89.95,68.37,89.52,68.386,89
	c0.017-0.575,0.587-0.71,1.052-0.841c2.338-0.658,4.729-1.083,7.214-1.119c1.617-0.024,3.261-0.157,4.847-0.113
	c3.586,0.1,7.216,0.124,10.735,0.841c0.909,0.185,1.348,0.057,1.684-0.639c0.614-1.275,1.768-2.256,2.725-3.343
	c0.186-0.21,0.394-0.411,0.547-0.637c0.341-0.498,0.22-0.716-0.409-0.812c-0.052-0.008-0.105-0.011-0.158-0.009
	c-3.716,0.123-7.396-0.473-11.141-0.245c-3.285,0.2-6.61-0.116-9.912-0.033c-2.345,0.058-4.701-0.031-7.047,0.333
	c-1.529,0.238-3.143,0.216-4.638-0.356c-0.238-0.091-0.5-0.147-0.718-0.262c-1.376-0.73-1.344-1.228-0.139-2.12
	c2.585-1.917,5.676-2.522,9.001-2.554c2.994-0.029,5.991-0.075,8.981,0.016c2.416,0.074,4.786-0.39,7.194-0.274
	c0.778,0.037,1.538,0.037,2.318,0.208c0.683,0.149,1.414,0.291,2.164,0.244c2.129-0.131,4.013,0.506,5.806,1.374
	c0.68,0.329,1.326,0.708,2.007,1.033c0.571,0.273,0.958,0.565,0.479,1.131c0.575,2.374-1.596,3.731-2.99,5.302
	c-1.229,1.384-2.15,2.875-3.113,4.37c-1.41,2.187-2.308,4.558-3.58,6.793c-0.203,0.355-0.384,0.723-0.637,1.053
	c-0.449,0.588-1.063,0.807-1.723,0.411c-0.641-0.384-1.18-0.239-1.76-0.109c-3.722,0.836-7.477,0.59-11.229,0.233
	c-1.216-0.116-2.345-0.444-3.111-1.35c-0.644-0.761-0.598-1.227,0.313-1.765c0.337-0.199,0.726-0.396,1.121-0.461
	c2.091-0.342,4.149-0.717,6.346-0.422c1.69,0.227,3.458,0.053,5.191,0.063c0.734,0.005,1.474-0.018,2.202,0.05
	c1.362,0.126,1.551,0.133,1.977-0.839C90.375,93.269,91.02,92.44,91.03,91.421z"/>
<path fill="#3FF60F" d="M67.376,77.703c-2.022,0.423-3.384,1.477-4.853,2.382c-0.469,0.289-0.465,0.609-0.109,1.004
	c0.911,1.012,2.251,1.242,3.608,1.35c1.142,0.091,2.312,0.09,3.437-0.201c0.101-0.026,0.199-0.061,0.302-0.075
	c2.323-0.329,2.801-0.122,3.901,1.64c0.557,0.891,1.139,1.771,1.718,2.653c0.151,0.23,0.352,0.443,0.137,0.858
	c-1.639-0.209-3.22,0.283-4.834,0.619c-0.306,0.063-0.618,0.113-0.909,0.207c-0.575,0.187-1.263,0.305-1.312,0.966
	c-0.044,0.589,0.375,0.954,0.947,1.259c0.771,0.411,1.605,0.647,2.498,0.742c1.813,0.191,3.624,0.444,5.459,0.375
	c0.704-0.026,1.048,0.174,1.212,0.749c0.24,0.842,0.804,1.606,0.988,2.579c-1.572,0.085-3.066,0.175-4.537,0.425
	c-0.788,0.133-1.512,0.346-2.115,0.803c-0.497,0.377-0.621,0.792-0.212,1.275c0.525,0.622,1.133,1.177,2.067,1.332
	c4.902,0.811,9.772,0.878,14.557-0.532c1.261-0.372,1.586-0.783,1.363-1.609c-0.198-0.727-0.842-1.053-1.652-1.24
	c-1.129-0.261-2.278-0.271-3.435-0.252c-0.573,0.009-1.147,0.001-1.847,0.001c0.266-1.149,0.8-2.121,1.347-3.096
	c0.195-0.348,0.467-0.418,0.859-0.427c1.411-0.034,2.807-0.234,4.228-0.193c1.475,0.043,2.778-0.425,3.861-1.25
	c1.083-0.825,0.889-1.533-0.537-1.9c-1.499-0.387-3.041-0.627-4.607-0.744c-0.312-0.023-0.627-0.009-1.008-0.191
	c0.306-1.132,1.225-2.051,1.713-3.125c0.668-1.474,1.659-2.248,3.88-1.86c1.736,0.303,3.654,0.248,5.47-0.123
	c0.861-0.176,1.489-0.538,1.935-1.212c0.333-0.505,0.243-0.796-0.312-1.053c-1.584-0.732-3.002-1.721-4.967-2.137
	c1.226-0.896,2.48-1.526,3.721-2.134c1.586-0.779,3.138-1.591,4.556-2.562c0.567-0.39,0.999-0.428,1.469,0.022
	c0.474,0.455,0.946,0.365,1.534,0.127c2.071-0.835,4.159-1.641,6.259-2.425c0.44-0.165,0.984-0.57,1.418-0.194
	c0.385,0.333-0.112,0.739-0.311,1.066c-2.312,3.816-4.709,7.6-6.962,11.44c-1.726,2.941-3.286,5.949-5.126,8.844
	c-1.595,2.508-3.201,5.01-4.784,7.523c-0.262,0.415-0.649,0.666-1.131,0.865c-2.254,0.929-4.576,1.718-6.957,2.392
	c-2.078,0.589-4.166,1.151-6.235,1.765c-1.132,0.335-2.267,0.351-3.37,0.046c-4.173-1.151-8.271-2.455-12.22-4.089
	c-1.263-0.523-2.079-1.233-2.68-2.243c-2.537-4.256-5.126-8.491-7.646-12.753c-2.592-4.386-5.136-8.792-7.67-13.201
	c-0.3-0.521-0.898-0.94-0.974-1.721c2.126,0.587,4.021,1.275,5.903,1.992c0.571,0.218,1.158,0.408,1.726,0.632
	c0.702,0.276,1.337,0.488,1.899-0.232c0.314-0.402,0.754-0.146,1.091,0.063c1.008,0.628,2.054,1.222,2.99,1.919
	c1.031,0.769,2.186,1.335,3.423,1.817C66.151,76.899,66.79,77.104,67.376,77.703z"/>
</svg>
