<?xml version="1.0" encoding="utf-8"?>
<!-- Generator: Adobe Illustrator 16.0.0, SVG Export Plug-In . SVG Version: 6.00 Build 0)  -->
<!DOCTYPE svg PUBLIC "-//W3C//DTD SVG 1.1//EN" "http://www.w3.org/Graphics/SVG/1.1/DTD/svg11.dtd" [
	<!ENTITY ns_extend "http://ns.adobe.com/Extensibility/1.0/">
	<!ENTITY ns_ai "http://ns.adobe.com/AdobeIllustrator/10.0/">
	<!ENTITY ns_graphs "http://ns.adobe.com/Graphs/1.0/">
	<!ENTITY ns_vars "http://ns.adobe.com/Variables/1.0/">
	<!ENTITY ns_imrep "http://ns.adobe.com/ImageReplacement/1.0/">
	<!ENTITY ns_sfw "http://ns.adobe.com/SaveForWeb/1.0/">
	<!ENTITY ns_custom "http://ns.adobe.com/GenericCustomNamespace/1.0/">
	<!ENTITY ns_adobe_xpath "http://ns.adobe.com/XPath/1.0/">
]>
<svg version="1.1" id="Layer_1" xmlns:x="&ns_extend;" xmlns:i="&ns_ai;" xmlns:graph="&ns_graphs;"
	 xmlns="http://www.w3.org/2000/svg" xmlns:xlink="http://www.w3.org/1999/xlink" x="0px" y="0px" width="850.39px"
	 height="850.39px" viewBox="0 0 850.39 850.39" enable-background="new 0 0 850.39 850.39" xml:space="preserve">
<metadata><?xpacket begin="﻿" id="W5M0MpCehiHzreSzNTczkc9d"?>
<x:xmpmeta xmlns:x="adobe:ns:meta/" x:xmptk="Adobe XMP Core 5.3-c011 66.145661, 2012/02/06-14:56:27        ">
   <rdf:RDF xmlns:rdf="http://www.w3.org/1999/02/22-rdf-syntax-ns#">
      <rdf:Description rdf:about=""
            xmlns:xmp="http://ns.adobe.com/xap/1.0/"
            xmlns:xmpGImg="http://ns.adobe.com/xap/1.0/g/img/">
         <xmp:CreatorTool>Adobe Illustrator CS6 (Macintosh)</xmp:CreatorTool>
         <xmp:CreateDate>2019-09-16T20:02:35+08:00</xmp:CreateDate>
         <xmp:MetadataDate>2019-09-16T20:02:35+08:00</xmp:MetadataDate>
         <xmp:ModifyDate>2019-09-16T20:02:35+08:00</xmp:ModifyDate>
         <xmp:Thumbnails>
            <rdf:Alt>
               <rdf:li rdf:parseType="Resource">
                  <xmpGImg:width>196</xmpGImg:width>
                  <xmpGImg:height>256</xmpGImg:height>
                  <xmpGImg:format>JPEG</xmpGImg:format>
                  <xmpGImg:image>/9j/4AAQSkZJRgABAgEASABIAAD/7QAsUGhvdG9zaG9wIDMuMAA4QklNA+0AAAAAABAASAAAAAEA&#xA;AQBIAAAAAQAB/+4ADkFkb2JlAGTAAAAAAf/bAIQABgQEBAUEBgUFBgkGBQYJCwgGBggLDAoKCwoK&#xA;DBAMDAwMDAwQDA4PEA8ODBMTFBQTExwbGxscHx8fHx8fHx8fHwEHBwcNDA0YEBAYGhURFRofHx8f&#xA;Hx8fHx8fHx8fHx8fHx8fHx8fHx8fHx8fHx8fHx8fHx8fHx8fHx8fHx8fHx8f/8AAEQgBAADEAwER&#xA;AAIRAQMRAf/EAaIAAAAHAQEBAQEAAAAAAAAAAAQFAwIGAQAHCAkKCwEAAgIDAQEBAQEAAAAAAAAA&#xA;AQACAwQFBgcICQoLEAACAQMDAgQCBgcDBAIGAnMBAgMRBAAFIRIxQVEGE2EicYEUMpGhBxWxQiPB&#xA;UtHhMxZi8CRygvElQzRTkqKyY3PCNUQnk6OzNhdUZHTD0uIIJoMJChgZhJRFRqS0VtNVKBry4/PE&#xA;1OT0ZXWFlaW1xdXl9WZ2hpamtsbW5vY3R1dnd4eXp7fH1+f3OEhYaHiImKi4yNjo+Ck5SVlpeYmZ&#xA;qbnJ2en5KjpKWmp6ipqqusra6voRAAICAQIDBQUEBQYECAMDbQEAAhEDBCESMUEFURNhIgZxgZEy&#xA;obHwFMHR4SNCFVJicvEzJDRDghaSUyWiY7LCB3PSNeJEgxdUkwgJChgZJjZFGidkdFU38qOzwygp&#xA;0+PzhJSktMTU5PRldYWVpbXF1eX1RlZmdoaWprbG1ub2R1dnd4eXp7fH1+f3OEhYaHiImKi4yNjo&#xA;+DlJWWl5iZmpucnZ6fkqOkpaanqKmqq6ytrq+v/aAAwDAQACEQMRAD8A4b51stV0/wA3avYapcS3&#xA;V/ZXk1vNczu0kjmKQqHLuSx5AVriqceVvzj/ADL8sMo0vXrn6uu31S5b6zBTwEc3ML/saHFXsXlT&#xA;/nMi6QJD5r0JZqUDXmmvwbb/AIomJBP/AD0HyxV7J5V/PT8rvMvBLLXIba6k2Fnff6LLyP7I9Xij&#xA;n/UY4qz0EEAg1B3BGKuxV2KuxV2KuxV2KuxV2KuxV2KuxV2KuxV8ufmF/wA5Z+YLPzPdWHlK0sn0&#xA;qxlaEXd2kkrXDRnizrweMLGSPh7kb1HTFX0j5Zu9VvfLumXmrwpbapc2sU17bRhgkcsiBnQBiW+E&#xA;mm5xVGXd7Z2Vu9zeTx21um7zTOsaL82YgDFXnPmb/nI38ptBLodXGqXCf7o01Dc1p4SjjB/yUxV5&#xA;N5m/5zI1KQPF5Z0GK3G4S61CQytQ9/Ri9MKf9m2KvIfMH5yfmfr1yZ77zHeoKkrBaytaxL4Ujg9N&#xA;dvE74q9n/wAXeff+hU/0x+kbz9IfW/Q/SfNvrH1P616dfWrzpz/d8q1ptirEv+csvKLaT+YcWuRJ&#xA;S11+3WQt2+sWwWKUf8B6bfM4q8SxV2KuxVk3lX8zPPnlVl/QOt3VpEpr9V5+pbn5wSc4v+FxV7F5&#xA;U/5zE8wWwSHzPo0OoxjZruzY28tP5mjb1I3Py4Yq9u8hfnp+Xfna7i07SrySDV5lZ0027iaOUhFL&#xA;NxYc4mIUE0VyaDFXoGKuxV2KuxV2KuxV2KuxV2KuxVhv5w+bP8K/lvrmro/C6W3MFkR1FxcH0oyP&#xA;9Vn5fIYq+A9PvDZX9teCGO4NtKk3oTAtFJ6bBuEgUqSrUoaEbYq9Y8xf85UfmrqyGOzmtdGiIofq&#xA;UNZCPd5zMR/saYq8w1rzH5g1y4+sazqV1qU/aS6meYj5cyaD5Yql2KuxVVtLW4vLuG0tkMlxcSLF&#xA;DGOrO5Cqo+ZOKv0D/wCVeaf/AMqu/wACfD9X/Rn6P9Xenq+nT1vn6v7z54qxf/nJbyZ/iT8sby5h&#xA;j53+ht+kbcjqY4wRcL8vSJb5qMVfD+KuxV2KuxV2Kpj5d17UPL+u2Gt6c/p3unzJcQHsShrxbxVh&#xA;sw7jFX6L6Dq9rrWiafrFrX6tqNtFdQg9QkyB1B96NiqOxV2KuxV2KuxV2KuxV2KuxV8x/wDOY/m0&#xA;8tD8pQvsA2p3qD6Ybf8A5mmnyxV8y4q7FXYq7FXYq9X/AOcZvKJ8wfmlY3Mq8rPQ0bUpq9OcZCwA&#xA;Hx9V1b5KcVfb+KrZI45Y3ikUPG4KujCoKkUIIxV+fH5q+SpPJnnzVdC4kWsUplsHP7VrL8cRr3IU&#xA;8W9wcVYlirsVdirsVcASQAKk7ADFX6L/AJf6Jc6H5H0DR7r/AHqsLC3guB2EqRKHAp4NXFU/xV2K&#xA;uxV2KuxV2KuxV2KuxV+ff5webP8AFX5ka5rCPztWuDBZEdDb249KMj/WVOXzOKsNxV2KuxV2KuxV&#xA;9gf84jeU/wBG+RbzzBMlJ9duSIWPe2tKxr98rSfhir3bFXYq8F/5yx/Lx9Y8s2/m2xi5XuhApfBR&#xA;8T2UjDfbr6Lnl/qsx7Yq8u/5xi/K5fNHmlvMWpwCTQ9CcMqOKpPeEVjSh2IjHxt/sexxV7d5t/5x&#xA;e/LHzBftfQRXGiTSHlLHprRxwsSdz6UiSKn+w4j2xV8+/wDOQf5a+V/IGtaPpWgm4f6xZtcXUt04&#xA;kdj6hRT8Koo+yei4q8oxVtWZWDKSGBqCNiCMVfor+X/mmHzX5L0fzBEQTf2yPOBSizr8Eybfyyqw&#xA;xVkGKuxV2KuxV2KuxV2KuxVhX5zebP8ACv5a65qqPwuzAbWyING9e5/dIy+6cuf0Yq/P7FXYq9A/&#xA;IzyPonnXz9Doeter9Ra3mmYQOI3LRAEDkQ23jir6p03/AJxt/Jyx4t+gvrUg/wB2XNxcSV6dU9QR&#xA;9v5cVeKf85RflLoPlb9F+YvLtotjYXjmyvbSIUiWZU5xOg7F0RuQ/wAmvUnFXhFhY3V/fW1jaRmW&#xA;6u5Ugt4h1aSRgqKPmxxV+jXlTy/beXfLOl6FbUMOm20VsGApyMagM593arH54qmuKuxVTuba3ure&#xA;W2uI1mt50aOaJwGV0ccWVgeoINDiqV+UvKWheU9Dg0TRIPq9hAXZVJLMWkYszMx3Y1PftiqcYq+O&#xA;f+cvboy/mfZxdrfSYEpWu7TzvWnbZhirw/FXYq9b/Jb87vPHlJoPLGlaYmvWV3cF4dNo4uPUkADC&#xA;CROXEHjU8kYdTtvir7T0+a7nsbea8tvqd1JGrT2vNZfScipTmvwtx6VG2KojFXYq7FXYq7FXYq7F&#xA;XzH/AM5keam5aD5UiYgUbVLtexqWgg/VLir5lxV2KvYf+cU//JuW/wDzBXX/ABEYq+1cVeO/85XW&#xA;JufykmmAqLK+tZydtgxaGv8AyVxV4P8A84v+U/07+aNreypytNCie/kJFV9Ufu4BXxDvzH+rir7a&#xA;xV2KuxV2KuxV2KviT/nKWZpPzh1BCABDbWiLTuDCH3/4LFXkmKvefyt/5xY1nzDaW+sea7l9H0yc&#xA;CSGxiAN5LGwqGblVYQR05Kx/yRir6T8lfld5F8mR/wDOv6VFb3JXhJfPWW5cHqDM/JgD/KtB7Yqy&#xA;rFXYq7FXYq7FXYq7FXYqwv8AML8ofJHn30pNftZDeW6GK3vbeVopY0J5FR9qNt9/iU4q+Y/za/5x&#xA;r8w+ToZtY0OR9Z8vRDlM3EC6t1HUyouzoP51+kAb4q8ZxV67/wA4rzLH+b9khBrNa3SLTxERff6F&#xA;xV9s4qk3nPyvZeavK2p+Xr08YNRgaH1AKlH+1HIB3KOFYfLFWJfkd+VC/l55Xktrpo5tc1CT1dTu&#xA;IiSnwVEUaEhTxRTXcfaJxV6NirsVdirsVdirsVfDf/OTcJj/ADo1xy1RKlm4HhSziSn/AAtcVY7+&#xA;T+iW+t/md5b025QSW0l7HJNE26ukFZmRgezCOhxV+g2KuxV2KuxV2KuxV2KuxV2KuxV2KtMqspVg&#xA;CpFCDuCDir4B/O3y5YeXPzT8w6Tp8axWUU6TQQoKKi3MKXHBR2VfVoBiqff84wyon5zaMrGhkivF&#xA;QeJFrI36lOKvuHFXYq7FXYq7FXYq7FXYq7FXw9/zk9Ij/nNrCqamOKzVx4H6rG1PuYYqlH5DXcFp&#xA;+b/liWduCNdmEE/zzRPEg+l3AxV953V1a2lvJc3UyW9vEpeWaVgiIo6lmYgAfPFXz7+av/OVmnac&#xA;ZdK8ihNQvRVZdZlBNtGeh9FDT1WH8x+D/WGKvGPJn5u+dJPzK0HWNe128u4Fv4hdRyzN6KwzP6cv&#xA;GEFYlARyaBQMVfd2KuxV2KuxV2KuxV87/wDORv52+aPKPmzStG8rXy20tvbm51MGOOZXMzARROJF&#xA;anFYy3w0PxYqv/Lj/nLTRtSeLT/OlsulXTUUanb8mtWP/FiHlJF86sPlir3+zvbO9tYruynjurWZ&#xA;ecNxC6yRup7q6kqR8sVfFX/OU1l9X/ODUJqU+uW1pPWlK0hENff+6xVL/wDnG2RI/wA6vLbOaAm7&#xA;UH3aynUD7zir7rxV2KuxV2KuxV2KuxV2KuxV8B/nneNd/m55olYklb1oanwgVYgP+ExVhEM00E0c&#xA;8EjRTRMHilQlWVlNVZWG4IPQ4qmOq+a/NGsRLDq2sX2oxJThHd3M06rTpQSMwFMVSvFXYq/RX8vP&#xA;MB8w+RdB1pm5y3tjBJcN1/fcAsw+iQMMVZDirsVdirsVWySRxRvLIwSNAWd2NAFAqSTir87fzE81&#xA;Sea/O+s+YGJ4X1y7W4bqsCfBApr/ACxKoxVjuKp35d87eb/LZY6DrF3pyuavHbyukbHxaOvBvpGK&#xA;obzD5l1/zHqH6R1y+l1C94CP1525MEWpCjwAqcVZh/zj66J+cflkuQoM8i1Pi1vIAPpJxV96Yq7F&#xA;XYq7FXYq7FXYq7FXYq+A/wA87NrT83PNETAgtetNQ+E6rKD/AMPirBcVdirsVdir7K/5xK8wfpD8&#xA;s5NMd6y6NeyxKnhDPSdT9LvJ92KvbMVdirsVdirzT/nInzcfLX5V6o8Mnp3uq00y1PetwD6pHgRC&#xA;rkHxxV8KYq7FXYq7FWdfkZ/5Nzyv/wAxq/8AEWxV9+Yq7FXYq7FXYq7FXYq7FXYq+NP+ctNBew/M&#xA;5NTC0i1iyhlL+MsFYGHzCIn34q8UxV2KuAJNB1xV6F5a/IL81/MMSXFpocltayCq3F8yWoIPQhJC&#xA;JCD4hcVfRv8Azj5+TnnD8u7jVpdavbOW31SOEC2tGlkKyQsxVmZ0jH2ZGG1cVez4q7FXYq7FXjn/&#xA;ADkF+UXnL8xBpS6Le2cFrpiys1rdNLGZJZSo5BkSQbKlBXxOKvm/zD+QH5taFDJcXWgy3NtGCWms&#xA;njuhQbk8ImaQAe64q88IIND1xV2KuxVmH5Okj81PKlP+rnbf8nBir9BsVdirsVdirsVdirsVdirs&#xA;VeIf85ZeT21f8v4NcgTldeX5/Ucjc/Vrmkcv3OI2+QOKvjjFXYq9I/5x2s9Lu/zh8vw6lEs0XOeS&#xA;FHAK+vFbySREg/yuoI96Yq+7sVdirsVdirsVdirsVdir4a/5yW0nTdN/N3VU0+NIUuY4LmeKMBVW&#xA;aWMGQ0Hdz8Z9ziry7FXYqzf8kbK5vPzZ8rRW6F3S/jmYDskFZZD9CITir7/xV2KuxV2KuxV2KuxV&#xA;2KuxVCavpdnq2lXml3qc7S/gktrhPGOVSjD7jir85vMuhXegeYNR0S7/AN6dOuZbaQ9mMbFeQ9mA&#xA;qMVS3FWbfkpeWFn+a3lm4v5hBbJeKGlYgKGZWVOROwHMiuKv0AxV2KuxV2KuxV2KuxV2KvhX/nI7&#xA;VtM1T83NYuNOuUurdFggaWI8k9SKFUkUMNjxYEGmKvM8Vdir6V/5w88lc7nVvOVzH8MI/R2nEj9t&#xA;qSXDj5LwUH3YYq+ocVdirsVdirsVdirsVdirsVdir4//AOcufKf6N89WfmCFKQa7bATMO9zaUjb7&#xA;4jH+OKvCcVdirJNL/Mr8wtKgW307zJqVtboAEgS6m9NQP5ULcR9AxVNv+V5/m5/1NF7/AMEv/NOK&#xA;qEv5z/mtLMkzeatSDxsrqFnZFJU1HJForDxBFD3xV9pflL59j88+RdP10hVvSDBqUSdEuoqCQAb0&#xA;DVDqPBhirMcVfIX5yf8AORPnhvOep6R5X1T9H6Jp0xtY3gjj9SWSH4ZXMrBmp6gbjxIHGmKsFt/z&#xA;9/OC3blH5nuWOx/eLDKNvaRGGKqGv/nd+auv2klnqfmO5e2lBWWKARWqupFCrfV0i5A9wcVYPirs&#xA;VXwwyzzRwwoZJZWCRxqKlmY0AA8ScVfoZ+Wfk+Lyf5F0jQFUCa1gBvGFDyuZP3kzVHUeoxA9qYqy&#xA;fFXYq7FXYq7FXYq7FXYq7FXYq8p/5yY8pDX/AMrL65jTleaIy6jAe/COqzj5ekzN9AxV8P4q7FXY&#xA;q7FXYq+g/wDnETz1Fp3mG/8AKV5Lwh1hRcafyO31qFTzQe8kW/8AsAMVfQP5v+dR5N/L3VtaRgt6&#xA;Ivq+nDubmf4IyPHhXmfZTir8+ySSSTUnck4q7FXYq7FXYq9Z/wCcZvJJ8yfmVbXs8fPTtAX6/OT0&#xA;Mymlsvz9T4/9icVfbuKuxV2KuxV2KuxV2KuxV2KuxV2KqdzbQXVtLbXCCS3nRopo26Mjjiyn5g4q&#xA;/Ojzt5auPLHm3VtAnqW065khRzsXjBrE/wDs4yrfTiqSYq7FXYq7FVW0u7qzuobu0laC6t3WWCaM&#xA;lXR0PJWUjoQRXFWe/mP+dfmjz9oGj6TrCRodMZ5bieH4RcysoRJHjpRWReX2dviOwxV57irsVdir&#xA;sVdir7X/AOcX/JP+Hvy3i1G4j4ah5gf67KSKMIAONsvy4VkH+vir1/FXYq7FXYq7FXYq7FXYq7FX&#xA;Yq7FXYq+Tf8AnMDyh9T8zaX5pgQCHVYTa3bAf8fFt9hmPi8TBR/qYq+e8VdirsVdirsVdirsVdir&#xA;sVdirIvy78pTebvOukeXoweN9OouHXqkCfHM/wDsY1YjFX6IW9vBbW8VvAgighRY4o1FFVFFFUDw&#xA;AGKqmKuxV2KuxV2KuxV2KuxV2KuxV2KuxV53+f8A5Q/xP+Vur28ac73T0/SNn3PO2BZwPdouaj3O&#xA;Kvg3FXYq7FXYq7FXYq7FXYq7FXYq+m/+cPPJX/HX85XKf9q3TyfokuHFf9goP+tir6bxV2KuxV2K&#xA;uxV2KuxV2KuxV2KuxV2KuxVplVlKsAVIoQdwQcVfnp+aflJvKXn/AFrQgvG3trhns/8AmHmAlh37&#xA;0jcA++KsVxV2KuxV2KuxV2KuxV2Kr4IJp5o4IUMk0rBIo1FWZmNFUDxJxV+iH5c+UovKPkjR/L6A&#xA;c7K3UXLL0a4f453/ANlIzEe2KsjxV2KuxV2KuxV2KuxV2KuxV2KuxV2KuxV2KvmD/nMbyhxm0Xzd&#xA;Ag4yBtNvmAp8S8pbcnxqPUFfYYq+aMVdirsVdirsVdirsVdir1//AJxl/L+fzJ+YFvq88BbR/L5F&#xA;3PIw+Frkf7zxjxPP4/kvuMVfa+KuxV2KuxV2KuxV2KuxV2KuxV2KuxV2KuxV2Kse8/eSNJ87eV7r&#xA;y9qjPHbXJjdZ4uPqxvE4dWQsGAO1Dt0JxV5F/wBCceRv+r3qf32//VLFVaH/AJw6/LsKfW1bV3au&#xA;xSS2QU+Rt3xVU/6E8/LP/q561/yPtP8AslxV3/Qnn5Z/9XPWv+R9p/2S4q7/AKE8/LP/AKuetf8A&#xA;I+0/7JcVWyf84d/luUIj1XWFf9lmmtWA+YFsv68VQ/8A0Jx5G/6vep/fb/8AVLFVey/5w9/LyK4W&#xA;S51PVLmJdzD6kEYb/WKxcqfIj54q9j8s+V9B8saPDo+hWaWOnwVKRJUkseruzEs7HuzGuKppirsV&#xA;dirsVdirsVdirsVdirsVdirsVdirsVdirsVdirsVdirsVdirsVdirsVdirsVdirsVdirsVdirsVd&#xA;irsVdirsVdirsVdirsVdirsVdirsVdirsVdirsVdirsVdirsVdirsVdirsVdirsVdirsVdirsVdi&#xA;rsVdirsVdirsVdirsVdirsVdirsVdirsVdirsVdirsVdirsVdirsVdirsVdirsVdirsVdirsVdir&#xA;sVdirsVdirsVdirsVdirsVdirsVdirsVdirsVdirsVdirsVdirsVdirsVdirsVdirsVdirsVdirs&#xA;VdirsVdirsVdirsVdirsVdirsVdirsVdirsVdirsVdirsVdirsVdirsVdirsVdirsVdirsVdirsV&#xA;dirsVdirsVdirsVdirsVdirsVdirsVdirsVdirsVdirsVdirsVdirsVdirsVdirsVdirsVdirsVd&#xA;irsVdirsVdirsVdirsVdirsVdirsVdirsVdirsVdirsVdirsVdirsVdirsVdirsVdirsVdirsVdi&#xA;rsVdirsVdirsVdirsVdirsVdirsVdirsVdirsVdirsVdirsVdirsVdirsVdirsVdirsVdirsVdir&#xA;sVdirsVdirsVdirsVdirsVdirsVdirsVf//Z</xmpGImg:image>
               </rdf:li>
            </rdf:Alt>
         </xmp:Thumbnails>
      </rdf:Description>
      <rdf:Description rdf:about=""
            xmlns:xmpTPg="http://ns.adobe.com/xap/1.0/t/pg/"
            xmlns:stDim="http://ns.adobe.com/xap/1.0/sType/Dimensions#"
            xmlns:xmpG="http://ns.adobe.com/xap/1.0/g/">
         <xmpTPg:MaxPageSize rdf:parseType="Resource">
            <stDim:w>299.998570</stDim:w>
            <stDim:h>299.998743</stDim:h>
            <stDim:unit>Millimeters</stDim:unit>
         </xmpTPg:MaxPageSize>
         <xmpTPg:NPages>1</xmpTPg:NPages>
         <xmpTPg:HasVisibleTransparency>False</xmpTPg:HasVisibleTransparency>
         <xmpTPg:HasVisibleOverprint>False</xmpTPg:HasVisibleOverprint>
         <xmpTPg:PlateNames>
            <rdf:Seq>
               <rdf:li>Cyan</rdf:li>
               <rdf:li>Magenta</rdf:li>
               <rdf:li>Yellow</rdf:li>
               <rdf:li>Black</rdf:li>
            </rdf:Seq>
         </xmpTPg:PlateNames>
         <xmpTPg:SwatchGroups>
            <rdf:Seq>
               <rdf:li rdf:parseType="Resource">
                  <xmpG:groupName>Default Swatch Group</xmpG:groupName>
                  <xmpG:groupType>0</xmpG:groupType>
               </rdf:li>
            </rdf:Seq>
         </xmpTPg:SwatchGroups>
      </rdf:Description>
      <rdf:Description rdf:about=""
            xmlns:dc="http://purl.org/dc/elements/1.1/">
         <dc:format>image/svg+xml</dc:format>
      </rdf:Description>
      <rdf:Description rdf:about=""
            xmlns:xmpMM="http://ns.adobe.com/xap/1.0/mm/"
            xmlns:stRef="http://ns.adobe.com/xap/1.0/sType/ResourceRef#"
            xmlns:stEvt="http://ns.adobe.com/xap/1.0/sType/ResourceEvent#">
         <xmpMM:DerivedFrom rdf:parseType="Resource">
            <stRef:instanceID>xmp.iid:A258AB8C16206811822AB5C3ECB2026F</stRef:instanceID>
            <stRef:documentID>xmp.did:A258AB8C16206811822AB5C3ECB2026F</stRef:documentID>
            <stRef:originalDocumentID>xmp.did:0280117407206811822AB5C3ECB2026F</stRef:originalDocumentID>
         </xmpMM:DerivedFrom>
         <xmpMM:DocumentID>xmp.did:A358AB8C16206811822AB5C3ECB2026F</xmpMM:DocumentID>
         <xmpMM:InstanceID>xmp.iid:A358AB8C16206811822AB5C3ECB2026F</xmpMM:InstanceID>
         <xmpMM:OriginalDocumentID>xmp.did:0280117407206811822AB5C3ECB2026F</xmpMM:OriginalDocumentID>
         <xmpMM:History>
            <rdf:Seq>
               <rdf:li rdf:parseType="Resource">
                  <stEvt:action>saved</stEvt:action>
                  <stEvt:instanceID>xmp.iid:0280117407206811822AB5C3ECB2026F</stEvt:instanceID>
                  <stEvt:when>2019-09-16T18:25:08+08:00</stEvt:when>
                  <stEvt:softwareAgent>Adobe Illustrator CS6 (Macintosh)</stEvt:softwareAgent>
                  <stEvt:changed>/</stEvt:changed>
               </rdf:li>
               <rdf:li rdf:parseType="Resource">
                  <stEvt:action>saved</stEvt:action>
                  <stEvt:instanceID>xmp.iid:A358AB8C16206811822AB5C3ECB2026F</stEvt:instanceID>
                  <stEvt:when>2019-09-16T20:02:35+08:00</stEvt:when>
                  <stEvt:softwareAgent>Adobe Illustrator CS6 (Macintosh)</stEvt:softwareAgent>
                  <stEvt:changed>/</stEvt:changed>
               </rdf:li>
            </rdf:Seq>
         </xmpMM:History>
      </rdf:Description>
   </rdf:RDF>
</x:xmpmeta>
                                                                                                    
                                                                                                    
                                                                                                    
                                                                                                    
                                                                                                    
                                                                                                    
                                                                                                    
                                                                                                    
                                                                                                    
                                                                                                    
                                                                                                    
                                                                                                    
                                                                                                    
                                                                                                    
                                                                                                    
                                                                                                    
                                                                                                    
                                                                                                    
                                                                                                    
                                                                                                    
                           
<?xpacket end="w"?>
	</metadata>
<rect x="408.459" y="288.996" display="none" fill="#161616" width="33.875" height="46.061"/>
<path fill="#FFFFFF" d="M397.714,295.719c1.966-0.454,3.507-0.943,5.085-1.137c1.728-0.212,3.495-0.083,5.233-0.232
	c0.993-0.086,2.126-0.184,2.918-0.702c4.434-2.896,8.834-2.268,13.283-0.144c0.526,0.251,1.049,0.508,1.579,0.752
	c0.101,0.046,0.224,0.044-0.182-0.029c2.995-0.906,5.512-1.767,8.083-2.416c2.254-0.569,4.397,0.097,6.398,1.152
	c1.154,0.609,1.834,1.56,1.084,2.87c-1.012,1.766-0.108,4.67-3.775,5.237c1.869,0.694,3.137,1.166,4.604,1.711
	c0.222-0.982,0.345-1.649,0.524-2.301c1.02-3.697,3.577-5.301,7.402-4.658c2.105,0.354,2.105,0.354,3.831-0.502
	c2.021,0.798,2.567,2.595,2.706,4.484c0.254,3.461,0.379,6.934,0.472,10.404c0.111,4.16,0.093,8.322,0.198,12.482
	c0.341,13.419,2.884,26.564,5.087,39.744c0.529,3.167,0.819,6.202-0.364,9.253c-0.737,1.898-0.894,3.798-0.162,5.781
	c0.31,0.839,0.421,1.871,0.235,2.732c-0.133,0.622-0.865,1.493-1.4,1.546c-0.558,0.056-1.627-0.657-1.724-1.174
	c-0.276-1.471-0.208-3.013-0.205-4.527c0.003-1.427-0.238-2.603-1.245-3.83c-1.133-1.38-2.045-3.155-2.434-4.896
	c-2.263-10.11-4.106-20.305-4.708-30.665c-0.405-6.975-0.5-13.967-0.743-20.952c-0.028-0.805-0.12-1.609-0.207-2.727
	c-0.891,0.156-1.626,0.41-2.353,0.385c-1.26-0.042-2.8,0.162-3.722-0.469c-5.227-3.574-11.034-5.938-17.16-8.493
	c-3.649,1.655-7.612,3.454-11.666,5.292c0.441,0.711,0.667,1.268,0.79,1.246c2.969-0.524,5.397,0.942,7.752,2.283
	c2.408,1.371,4.54,1.173,6.822-0.117c1.314-0.743,2.7-1.399,4.12-1.911c1.892-0.683,2.938,0.272,2.419,2.229
	c-0.441,1.66-1.121,3.256-1.763,5.069c0.539,0.168,0.937,0.355,1.352,0.413c4.079,0.567,4.397,1.046,4.059,5.238
	c-0.077,0.965,0.764,2.141-0.504,2.751c-1.212,0.584-2.536,1.034-3.858,1.261c-1.005,0.172-2.134,0.074-3.124-0.202
	c-4.758-1.325-9.482-0.366-14.203,0.127c-2.469,0.258-4.632,0.122-6.099-2.262c-0.265-0.431-0.955-0.605-1.454-0.888
	c-2.026-1.145-3.396-2.811-3.988-5.076c-0.592-2.266-1.525-4.322-3.654-6.07c-0.184,4.522-0.416,8.776-0.518,13.034
	c-0.266,11.074-0.933,22.098-3.482,32.931c-0.612,2.601-1.021,5.249-1.596,7.859c-0.225,1.017-0.358,2.312-1.036,2.924
	c-2.909,2.627-2.438,6.049-2.575,9.361c-0.014,0.337-0.138,0.67-0.283,1.333c-0.898,0.059-1.843,0.12-3.193,0.208
	c0.24-2.968,0.695-5.586,0.593-8.184c-0.103-2.632-1.26-5.282-1.058-7.853c0.372-4.729,1.465-9.397,2.142-14.108
	c0.908-6.322,1.842-12.645,2.518-18.994c0.958-8.989,1.19-18.004,0.852-27.055C395.298,301.972,395.28,298.417,397.714,295.719z"/>
<path fill="#161616" d="M413.354,349.243c-2.064-5.832-4.006-11.314-5.944-16.799c-1.048-2.968-1.973-5.986-3.16-8.897
	c-1.562-3.83-2.472-7.667-1.832-11.86c0.33-2.161,0.025-4.413,0.123-6.619c0.116-2.625,0.356-5.244,0.566-8.199
	c-0.667,0.112-1.515,0.434-2.311,0.334c-0.754-0.093-1.454-0.628-2.449-1.097c-0.792,1.332-1.587,2.671-2.417,4.067
	c-1.805-2.184-6.014-12.512-6.504-15.859c1.678-0.941,3.317-0.341,4.963,0.187c5.103,1.634,10.208,3.26,15.485,4.945
	c0.696,1.832,2.159,3.442,0.985,6.004c-0.514,1.124,0.668,3.024,1.085,4.592c0.663,0.252,1.354,0.514,2.487,0.944
	c-0.975,0.733-1.516,1.355-2.196,1.619c-4.867,1.882-5.319,2.496-5.138,7.541c0.017,0.451,0.202,0.896,0.346,1.501
	c3.544,0.86,5.357-3.059,8.74-3.091c0.837,3.458,1.678,6.933,2.565,10.601c-1.491,0.287-2.642,0.412-3.732,0.741
	c-1.896,0.571-2.319,1.446-1.809,3.55c0.295,1.22-0.663,2.998,1.288,3.499c1.196,0.307,2.48,0.289,3.728,0.356
	c0.813,0.044,1.634-0.002,2.45-0.042c0.684-0.033,1.366-0.115,1.963-0.168c2.137,2.005,1.511,5.716,4.853,7.342
	c0.998-2.443,1.865-4.565,2.698-6.605c2.884-1.662,6.528,1.221,9.116-1.965c0-0.726-0.102-1.625,0.02-2.494
	c0.306-2.185-0.338-3.172-2.489-3.59c-0.981-0.191-1.963-0.385-3.29-0.646c1.252-3.603,2.373-6.829,3.519-10.123
	c3.242,0.465,5.282,3.668,8.594,2.837c-0.131-1.554-0.334-3.001-0.356-4.452c-0.03-1.993-1.586-2.754-2.882-3.658
	c-0.73-0.51-1.715-0.657-2.598-0.972c-0.09-0.402-0.307-0.779-0.215-1.055c1.651-4.98,3.324-9.954,5.029-14.917
	c0.514-1.494,1.44-2.35,3.448-1.58c-0.346,0.995-0.662,1.902-1,2.871c0.352,0.039,0.717,0.18,1.02,0.096
	c3.705-1.022,7.403-2.069,11.098-3.129c0.896-0.257,1.752-0.676,2.66-0.859c1.572-0.317,2.187,0.337,1.899,1.892
	c-0.042,0.227-0.147,0.442-0.222,0.664c-1.714,5.081-3.411,10.168-5.159,15.238c-0.241,0.699-0.732,1.312-1.265,2.238
	c-2.266-2.409-0.359-5.989-2.827-7.739c-1.584,0.211-3.072,0.41-4.646,0.621c0,1.792-0.046,3.929,0.009,6.062
	c0.156,6.156,0.385,12.31,0.496,18.466c0.017,0.887-0.374,1.817-0.717,2.671c-2.903,7.252-5.916,14.462-8.722,21.752
	c-0.881,2.287-2.104,3.277-4.622,3.232C428.623,349.158,421.159,349.243,413.354,349.243z"/>
</svg>
