<?xml version="1.0" encoding="utf-8"?>
<!-- Generator: Adobe Illustrator 16.0.0, SVG Export Plug-In . SVG Version: 6.00 Build 0)  -->
<!DOCTYPE svg PUBLIC "-//W3C//DTD SVG 1.1//EN" "http://www.w3.org/Graphics/SVG/1.1/DTD/svg11.dtd">
<svg version="1.1" id="Layer_1" xmlns="http://www.w3.org/2000/svg" xmlns:xlink="http://www.w3.org/1999/xlink" x="0px" y="0px"
	 width="850.39px" height="850.39px" viewBox="0 0 850.39 850.39" enable-background="new 0 0 850.39 850.39" xml:space="preserve">
<path fill="#FFFFFF" d="M377.573,161.047c-9.866-5.719-19.105-11.667-27.994-18.151c-9.254-6.75-18.17-13.896-25.845-22.467
	c-3.777-4.218-6.993-8.793-9.357-13.978c-3.162-6.933-6.487-13.792-9.727-20.689c-0.844-1.795-0.822-1.814,0.875-2.667
	c1.083-0.543,2.156-1.12,3.275-1.58c5.882-2.419,10.705-6.277,15.079-10.815c1.855-1.926,3.96-3.613,6.193-5.626
	c0.349,0.087,0.512,0.944,0.885,1.569c4.44,7.437,8.86,14.886,13.273,22.339c0.664,1.121,1.38,2.196,2.221,3.194
	c5.583,6.626,11.165,13.252,16.717,19.904c1.017,1.216,2.161,2.181,3.573,2.931c4.666,2.479,9.296,5.022,13.911,7.593
	c2.455,1.368,5.182,1.93,7.798,2.822c1.881,0.642,1.905,0.646,1.316,2.518c-1.06,3.375-2.149,6.739-3.324,10.41
	c3.122-0.346,5.942-0.018,8.781-0.336c2.483-0.278,5.005-0.231,7.51-0.319c5.181-0.182,10.362-0.319,15.542-0.547
	c6.812-0.3,13.635-0.295,20.44-0.818c1.777-0.137,3.576-0.021,5.279-0.021c0.309-1.013-0.047-1.64-0.25-2.289
	c-0.652-2.065-1.316-4.125-1.963-6.192c-0.645-2.059-0.666-2.169,1.299-2.693c8.42-2.244,15.398-7.423,23.047-11.235
	c0.807-0.401,1.301-1.129,1.855-1.79c5.408-6.433,10.805-12.877,16.229-19.295c1.291-1.528,2.439-3.139,3.455-4.862
	c4.314-7.31,8.66-14.602,12.994-21.899c0.305-0.513,0.611-1.025,0.801-1.339c1.756,1.578,3.605,3.002,5.172,4.688
	c4.775,5.136,10.135,9.404,16.664,12.128c1.477,0.615,3.684,0.96,4.029,2.407c0.285,1.186-1.082,2.778-1.742,4.178
	c-2.66,5.64-5.453,11.22-7.965,16.924c-2.875,6.522-7.002,12.126-11.875,17.243c-7.441,7.813-15.844,14.496-24.557,20.805
	c-8.074,5.847-16.439,11.255-25.023,16.318c-0.652,0.384-1.248,0.92-2.061,0.993c-0.74-0.471-0.848-1.308-1.131-2.001
	c-2.232-5.445-4.947-10.695-6.652-16.351c-0.271-0.897-0.723-1.247-1.65-1.234c-4.578,0.062-9.156,0.05-13.725,0.478
	c-2.412,0.226-4.842,0.068-7.267,0.189c-5.954,0.298-11.92,0.358-17.878,0.58c-6.554,0.244-13.104,0.593-19.659,0.821
	c-1.18,0.041-1.352,0.773-1.686,1.584C382.22,149.904,379.953,155.328,377.573,161.047z"/>
<path fill="#030303" d="M502.335,64.621c3.936,3.832,7.406,7.956,11.559,11.394c1.01,0.833,2.02,1.6,3.242,2.104
	c3.357,1.386,6.375,3.472,9.781,4.763c0.984,0.373,0.904,0.979,0.484,1.85c-2.713,5.608-5.352,11.252-8.035,16.874
	c-0.934,1.953-2.033,3.831-2.861,5.824c-0.623,1.498-1.562,2.074-3.145,2.125c-5.629,0.183-11.254,0.456-16.881,0.706
	c-6.666,0.295-13.33,0.604-19.994,0.904c-0.693,0.031-1.387,0.072-2.078,0.083c-1.625,0.025-1.625,0.019-1.662-1.872
	c-5.248,0.413-10.506,0.102-15.766,0.31c-7.777,0.307-15.572,0.164-23.354,0.402c-4.764,0.146-9.531-0.022-14.284,0.203
	c-8.818,0.417-17.646,0.256-26.461,0.53c-9.167,0.285-18.332,0.469-27.502,0.493c-1.72,0.004-3.683-0.177-5.107,0.424
	c-3.415,1.441-6.766,0.506-10.101,0.402c-10.391-0.326-20.771-0.963-31.161-1.346c-1.987-0.073-3.095-0.654-3.938-2.532
	c-3.407-7.575-6.992-15.069-10.498-22.599c-0.803-1.725-0.743-1.666,1.038-2.545c3.489-1.724,7.03-3.378,10.37-5.366
	c2.293-1.365,4.148-3.394,6.01-5.333c2.459-2.562,4.881-5.161,7.483-7.918c2.317,3.146,5.132,5.806,6.952,9.29
	c3.729,7.135,7.597,14.197,11.346,21.321c1.058,2.01,2.266,3.865,3.855,5.497c1.631,1.675,3.229,3.394,4.714,5.197
	c0.864,1.051,1.811,1.429,3.136,1.342c6.474-0.427,12.963-0.208,19.445-0.479c7.523-0.316,15.069-0.055,22.598-0.308
	c8.993-0.303,17.99-0.307,26.982-0.535c9.082-0.229,18.168-0.228,27.24-0.556c5.963-0.216,11.934,0.057,17.889-0.399
	c1.113-0.085,1.92-0.384,2.719-1.186c3.744-3.761,7.08-7.766,9.434-12.608c2.191-4.51,4.865-8.785,7.166-13.246
	C495.429,73.025,498.392,68.592,502.335,64.621z"/>
<path fill="#030303" d="M427.298,56.509c14.322,0.433,26.451,0.655,38.562,1.222c6.912,0.324,13.797,1.229,20.697,1.834
	c3.018,0.265,6.037,0.893,9.059,0.571c2.406-0.256,3.914,0.773,5.268,2.512c1.416,1.817,1.479,1.798,0.338,3.713
	c-5.09,8.556-9.496,17.5-14.625,26.025c-10.787,17.935-13.152,19.094-28.582,28.465c-3.375,2.05-6.883,3.581-10.84,4
	c-0.943,0.1-1.867,0.38-2.805,0.534c-0.83,0.136-1.725,0.959-2.447,0.375c-0.846-0.683-1.432-1.708-2.059-2.634
	c-0.229-0.34-0.312-0.815-0.354-1.239c-0.365-3.585-1.611-3.461,2.75-3.884c5.787-0.562,10.789-2.656,15.139-6.588
	c3.658-3.307,7.58-6.325,11.408-9.44c7.361-5.988,12.131-13.896,16.428-22.15c0.744-1.431,0.525-1.829-1.066-1.955
	c-6.646-0.525-13.303-0.957-19.951-1.472c-12.545-0.97-25.117-0.18-37.662-0.542c-17.252-0.498-34.407,1.033-51.599,1.783
	c-8.387,0.366-16.773,0.957-25.122,1.93c-0.687,0.08-1.375,0.173-2.053,0.31c-2.264,0.458-2.546,0.992-1.688,3.206
	c0.537,1.381,1.308,2.643,2.194,3.818c2.191,2.902,4.413,5.783,6.641,8.657c1.494,1.927,3.244,3.596,5.186,5.075
	c5.371,4.096,10.734,8.201,16.09,12.318c2.951,2.268,6.29,3.539,9.963,3.99c1.805,0.222,3.608,0.456,5.416,0.649
	c0.989,0.106,1.257,0.534,1.131,1.552c-0.251,2.014-0.647,3.891-2.14,5.431c-0.568,0.587-1.04,0.737-1.801,0.594
	c-2.893-0.542-5.797-1.023-8.695-1.527c-1.035-0.18-1.99-0.58-2.922-1.046c-6.043-3.025-11.888-6.396-17.506-10.151
	c-2.616-1.749-4.779-3.995-6.812-6.37c-4.632-5.414-8.611-11.299-12.176-17.445c-3.952-6.815-7.951-13.601-12.174-20.25
	c-0.794-1.251-0.739-1.98,0.233-3.094c3.92-4.49,3.879-4.482,9.714-4.897c10.625-0.755,21.245-1.583,31.868-2.357
	c3.714-0.271,7.438-0.422,11.149-0.715c9.505-0.75,19.023-0.918,28.554-0.821C416.504,56.562,423.002,56.509,427.298,56.509z"/>
<path fill="#FFFFFF" d="M390.201,165.362c-0.343-0.166-0.686-0.333-1.025-0.499c-0.164-0.014-0.33-0.028-0.495-0.043
	c-0.965-0.353-1.925-0.719-2.896-1.053c-0.423-0.146-0.875-0.309-0.997-0.742c-0.791-2.826-3.637-3.664-5.365-5.58
	c-0.545-0.604-1.84,0.394-2.167-0.781c-0.243-0.873,0.446-1.613,0.743-2.374c4.608-11.803,9.278-23.582,13.941-35.364
	c0.188-0.479,0.451-0.929,0.68-1.392c14.742-0.017,29.483-0.034,44.225-0.05c0.98-0.083,1.615,0.284,1.951,1.27
	c1.814,5.308,4.146,10.416,5.938,15.748c1.021,3.042,2.471,6.022,3.682,9.048c1.365,3.411,2.711,6.831,4.07,10.244
	c1.078,2.707,1.098,2.794-1.096,4.551c-1.221,0.978-2.232,2.021-2.994,3.446c-1.258,2.353-1.576,2.323-3.506,0.688
	c-1.994,1.047-3.309,3.026-5.447,3.904c-0.947,0.388-1.105,1.481-1.482,2.346c-0.434,0.994-0.641,2.383-2.305,1.488
	c-0.271-0.145-0.541-0.05-0.686,0.153c-0.967,1.37-2.674,2.184-2.908,4.115c-0.182,1.483-1.125,2.689-1.764,4.002
	c-0.902,1.859-1.793,3.726-2.729,5.567c-0.467,0.92-0.945,1.907-2.132,2.067c-0.676,0.091-0.778,0.624-0.976,1.066
	c-1.199,2.688-2.343,5.401-3.565,8.079c-0.515,1.124-0.196,2.336-0.688,3.512c-1.224,2.928-3,5.616-3.779,8.741
	c-0.179,0.716-0.913,1.112-1.614,1.119c-0.706,0.007-0.901-0.726-1.108-1.274c-0.314-0.832-0.152-1.712-0.137-2.574
	c0.044-0.043,0.133-0.12,0.126-0.129c-0.065-0.093-0.146-0.175-0.224-0.261c-0.045-0.39-0.09-0.779-0.136-1.167
	c0.045-0.136,0.008-0.244-0.11-0.322c-0.128-0.27-0.255-0.539-0.381-0.808c0.05-0.91-0.244-1.7-0.845-2.381
	c-0.708-0.757-1.436-1.498-2.12-2.277c-0.741-0.845-2.07-1.584-0.432-2.868c0.456-0.357-0.037-0.977-0.243-1.424
	c-1.27-2.746-2.561-5.481-3.858-8.214c-0.182-0.384-0.395-1.014-0.665-1.054c-1.918-0.289-1.892-1.938-2.44-3.223
	c-1.623-3.793-3.192-7.6-6.354-10.501c-1.457-1.338-2.636-2.979-3.938-4.482C391.449,165.133,390.808,165.345,390.201,165.362z"/>
<path fill="#0A0909" d="M430.941,192.656c-1.793-0.467-3.535-0.325-5.23-0.204c-7.329,0.521-14.645,0.517-21.973,0.004
	c-1.64-0.115-3.254-0.342-4.882-0.5c-1.522-0.148-2.776-0.91-4.035-1.666c-0.905-0.543-1.236-1.393-1.21-2.421
	c0.027-1.137,0.969-1.404,1.735-1.663c3.854-1.301,7.797-2.14,11.893-2.213c2.666-0.047,5.377-0.31,7.99-0.223
	c5.913,0.198,11.896,0.246,17.699,1.663c1.498,0.366,2.223,0.113,2.775-1.264c1.012-2.521,2.914-4.46,4.492-6.61
	c0.307-0.417,0.648-0.813,0.902-1.26c0.562-0.984,0.363-1.417-0.674-1.607c-0.086-0.016-0.174-0.021-0.26-0.017
	c-6.127,0.243-12.193-0.936-18.367-0.484c-5.416,0.396-10.898-0.229-16.342-0.066c-3.866,0.115-7.75-0.062-11.618,0.659
	c-2.521,0.47-5.181,0.427-7.646-0.704c-0.393-0.18-0.824-0.291-1.184-0.519c-2.27-1.443-2.216-2.426-0.229-4.191
	c4.263-3.789,9.357-4.986,14.84-5.05c4.936-0.058,9.877-0.149,14.807,0.031c3.982,0.146,7.891-0.771,11.86-0.543
	c1.283,0.074,2.535,0.073,3.822,0.412c1.125,0.296,2.33,0.575,3.566,0.483c3.51-0.259,6.615,1.001,9.572,2.716
	c1.121,0.65,2.186,1.399,3.309,2.043c0.941,0.54,1.578,1.118,0.789,2.236c0.947,4.693-2.631,7.378-4.93,10.483
	c-2.025,2.737-3.545,5.685-5.133,8.64c-2.324,4.325-3.805,9.013-5.902,13.432c-0.334,0.703-0.633,1.43-1.051,2.082
	c-0.74,1.163-1.752,1.596-2.84,0.812c-1.057-0.76-1.946-0.473-2.901-0.216c-6.137,1.652-12.327,1.166-18.514,0.46
	c-2.005-0.229-3.866-0.879-5.128-2.669c-1.062-1.505-0.986-2.426,0.516-3.49c0.557-0.394,1.196-0.784,1.849-0.912
	c3.447-0.676,6.84-1.418,10.462-0.834c2.787,0.449,5.701,0.104,8.559,0.125c1.211,0.009,2.431-0.036,3.63,0.099
	c2.246,0.25,2.557,0.263,3.26-1.66C429.861,196.31,430.925,194.671,430.941,192.656z"/>
<path fill="#FFFFFF" d="M391.945,165.531c-3.334,0.837-5.579,2.921-8,4.711c-0.773,0.572-0.767,1.204-0.181,1.985
	c1.502,2.001,3.712,2.456,5.949,2.669c1.883,0.18,3.811,0.177,5.666-0.397c0.166-0.051,0.328-0.121,0.498-0.149
	c3.83-0.651,4.617-0.241,6.432,3.243c0.918,1.762,1.878,3.502,2.832,5.246c0.249,0.455,0.58,0.876,0.226,1.697
	c-2.701-0.413-5.309,0.56-7.97,1.224c-0.504,0.125-1.02,0.223-1.499,0.409c-0.947,0.369-2.082,0.602-2.163,1.909
	c-0.072,1.166,0.618,1.886,1.562,2.49c1.271,0.812,2.647,1.28,4.118,1.466c2.989,0.378,5.975,0.879,9,0.743
	c1.16-0.052,1.728,0.344,1.999,1.481c0.396,1.664,1.325,3.175,1.629,5.099c-2.592,0.168-5.055,0.347-7.479,0.84
	c-1.3,0.264-2.493,0.684-3.486,1.588c-0.819,0.746-1.024,1.568-0.35,2.522c0.866,1.229,1.867,2.328,3.408,2.633
	c8.082,1.604,16.111,1.736,24-1.052c2.078-0.735,2.615-1.549,2.246-3.182c-0.326-1.438-1.389-2.083-2.723-2.453
	c-1.861-0.516-3.756-0.534-5.663-0.498c-0.945,0.018-1.891,0.003-3.045,0.003c0.438-2.273,1.319-4.193,2.221-6.121
	c0.322-0.688,0.771-0.827,1.417-0.845c2.326-0.067,4.626-0.463,6.97-0.382c2.432,0.085,4.58-0.84,6.365-2.471
	s1.465-3.031-0.885-3.757c-2.471-0.764-5.014-1.239-7.596-1.47c-0.516-0.046-1.035-0.018-1.662-0.378
	c0.504-2.238,2.02-4.054,2.824-6.178c1.102-2.915,2.734-4.444,6.396-3.678c2.861,0.599,6.023,0.49,9.018-0.242
	c1.42-0.348,2.455-1.064,3.189-2.397c0.549-0.998,0.4-1.575-0.514-2.082c-2.611-1.449-4.949-3.404-8.189-4.226
	c2.021-1.772,4.09-3.017,6.135-4.22c2.615-1.54,5.174-3.146,7.512-5.067c0.936-0.77,1.646-0.845,2.422,0.045
	c0.781,0.899,1.561,0.721,2.529,0.252c3.414-1.652,6.857-3.244,10.318-4.795c0.727-0.325,1.623-1.127,2.338-0.383
	c0.635,0.658-0.186,1.461-0.512,2.108c-3.812,7.547-7.764,15.027-11.479,22.622c-2.846,5.815-5.418,11.763-8.451,17.487
	c-2.629,4.958-5.277,9.907-7.887,14.875c-0.432,0.821-1.07,1.317-1.865,1.71c-3.717,1.836-7.545,3.396-11.469,4.729
	c-3.425,1.165-6.869,2.277-10.279,3.489c-1.866,0.663-3.737,0.693-5.556,0.091c-6.88-2.276-13.636-4.854-20.146-8.086
	c-2.083-1.034-3.427-2.439-4.418-4.435c-4.182-8.416-8.451-16.788-12.605-25.216c-4.273-8.672-8.467-17.384-12.646-26.103
	c-0.494-1.03-1.481-1.858-1.605-3.403c3.505,1.16,6.628,2.522,9.731,3.938c0.941,0.43,1.909,0.807,2.845,1.25
	c1.156,0.546,2.204,0.966,3.131-0.458c0.519-0.796,1.244-0.29,1.8,0.125c1.662,1.242,3.386,2.417,4.929,3.795
	c1.7,1.519,3.604,2.639,5.643,3.593C389.926,163.942,390.979,164.346,391.945,165.531z"/>
</svg>
