<?xml version="1.0" encoding="utf-8"?>
<!-- Generator: Adobe Illustrator 16.0.0, SVG Export Plug-In . SVG Version: 6.00 Build 0)  -->
<!DOCTYPE svg PUBLIC "-//W3C//DTD SVG 1.1//EN" "http://www.w3.org/Graphics/SVG/1.1/DTD/svg11.dtd">
<svg version="1.1" id="Layer_1" xmlns="http://www.w3.org/2000/svg" xmlns:xlink="http://www.w3.org/1999/xlink" x="0px" y="0px"
	 width="850.39px" height="850.39px" viewBox="0 0 850.39 850.39" enable-background="new 0 0 850.39 850.39" xml:space="preserve">
<path fill="#3AE90B" d="M669.574,110.769c-9.867-5.719-19.105-11.667-27.994-18.151c-9.254-6.75-18.17-13.896-25.846-22.467
	c-3.777-4.218-6.992-8.793-9.357-13.978c-3.162-6.933-6.486-13.792-9.727-20.689c-0.844-1.795-0.822-1.814,0.875-2.667
	c1.084-0.543,2.156-1.12,3.275-1.58c5.883-2.419,10.705-6.277,15.08-10.815c1.855-1.926,3.959-3.613,6.193-5.626
	c0.348,0.087,0.512,0.944,0.885,1.569c4.439,7.437,8.859,14.886,13.273,22.339c0.664,1.121,1.379,2.196,2.221,3.194
	c5.582,6.626,11.164,13.252,16.717,19.904c1.016,1.216,2.16,2.181,3.572,2.931c4.666,2.479,9.297,5.022,13.912,7.593
	c2.455,1.368,5.182,1.93,7.797,2.822c1.881,0.642,1.906,0.646,1.316,2.518c-1.059,3.375-2.148,6.739-3.324,10.41
	c3.123-0.346,5.943-0.018,8.781-0.336c2.484-0.278,5.006-0.231,7.51-0.319c5.182-0.182,10.363-0.319,15.543-0.547
	c6.811-0.3,13.635-0.295,20.439-0.818c1.777-0.137,3.576-0.021,5.279-0.021c0.309-1.013-0.047-1.64-0.25-2.289
	c-0.652-2.065-1.316-4.125-1.963-6.192c-0.645-2.059-0.666-2.169,1.299-2.693c8.42-2.244,15.398-7.423,23.047-11.235
	c0.807-0.401,1.301-1.129,1.855-1.79c5.408-6.433,10.805-12.877,16.229-19.295c1.291-1.528,2.439-3.139,3.455-4.862
	c4.314-7.31,8.66-14.602,12.994-21.899c0.305-0.513,0.611-1.025,0.801-1.339c1.756,1.578,3.605,3.002,5.172,4.688
	c4.775,5.136,10.135,9.404,16.664,12.128c1.477,0.615,3.684,0.96,4.029,2.407c0.285,1.186-1.082,2.778-1.742,4.178
	c-2.66,5.64-5.453,11.22-7.965,16.924c-2.875,6.522-7.002,12.126-11.875,17.243c-7.441,7.813-15.844,14.496-24.557,20.805
	c-8.074,5.847-16.439,11.255-25.023,16.318c-0.652,0.384-1.248,0.92-2.061,0.993c-0.74-0.471-0.848-1.308-1.131-2.001
	c-2.232-5.445-4.947-10.695-6.652-16.351c-0.271-0.897-0.723-1.247-1.65-1.234c-4.578,0.062-9.156,0.05-13.725,0.478
	c-2.412,0.226-4.842,0.068-7.268,0.189c-5.953,0.298-11.92,0.358-17.877,0.58c-6.555,0.244-13.104,0.593-19.66,0.821
	c-1.18,0.041-1.352,0.773-1.686,1.584C674.22,99.625,671.953,105.05,669.574,110.769z"/>
<path fill-rule="evenodd" clip-rule="evenodd" fill="#030202" d="M423.717,92.89c-5.4-0.32-10.214-0.618-15.028-0.886
	c-3.184-0.177-6.371-0.3-9.556-0.467c-7.601-0.397-15.23-0.514-22.795-1.279c-10.672-1.08-21.293-2.659-31.412-6.52
	c-3.731-1.424-7.319-3.125-10.511-5.567c-1.52-1.164-2.917-2.445-3.919-4.11c-0.449-0.747-0.644-1.346,0.27-1.96
	c3.591-2.416,7.157-4.871,10.705-7.349c0.514-0.358,0.917-0.236,1.436-0.126c8.97,1.892,17.929,3.841,26.924,5.608
	c7.738,1.521,15.593,2.274,23.437,2.972c10.177,0.906,20.365,1.841,30.603,1.623c9.279-0.198,18.479-1.323,27.643-2.706
	c12.066-1.82,24.046-4.124,35.92-6.947c1.2-0.286,2.136-0.134,3.131,0.602c1.738,1.284,3.584,2.424,5.357,3.664
	c1.429,1,3.028,1.591,4.636,2.224c1.858,0.731,1.848,0.925,0.877,2.597c-1.432,2.464-3.53,4.25-5.896,5.744
	c-4.441,2.803-9.36,4.438-14.386,5.789c-6.451,1.734-13.045,2.677-19.647,3.601c-6.345,0.887-12.751,0.974-19.111,1.631
	c-5.733,0.593-11.468,1.179-17.202,1.761C424.505,92.855,423.816,92.883,423.717,92.89z"/>
<path fill-rule="evenodd" clip-rule="evenodd" fill="#0B0909" d="M341.707,64.628c0.93-2.284,2.317-2.231,4.25-1.767
	c10.703,2.569,21.579,4.136,32.515,5.345c15.438,1.707,30.92,2.288,46.438,1.921c15.163-0.358,30.221-1.825,45.188-4.316
	c5.204-0.866,10.421-1.652,15.542-2.909c1.956-0.48,2.588,0.865,3.574,1.857c-0.17,0.851-0.915,0.719-1.447,0.877
	c-9.298,2.772-18.778,4.728-28.376,6.083c-7.595,1.073-15.143,2.526-22.809,3.056c-5.596,0.387-11.189,1.002-16.809,0.448
	c-3.957-0.39-7.895-0.349-11.868-0.045c-4.576,0.35-9.102-0.678-13.652-1.061c-5.494-0.462-10.979-1.094-16.442-1.836
	c-4.191-0.569-8.351-1.379-12.51-2.161c-7.567-1.422-15.08-3.1-22.514-5.113C342.462,64.918,342.149,64.785,341.707,64.628z"/>
<path fill="#030303" d="M141.603,32.389c0.062,0.185,0.127,0.369,0.189,0.553c-0.012,0.569-0.086,1.161,0.539,1.502
	c2.768,6.428,5.066,13.037,7.592,19.56c2.369,6.126,4.723,12.258,7.08,18.389c0.75,1.952,0.758,1.972-0.818,2.908
	c-11.67,6.936-23.369,13.826-34.996,20.833c-1.939,1.169-3.427,1.254-5.42,0.05c-11.695-7.063-23.456-14.017-35.245-20.922
	c-1.396-0.817-1.197-1.608-0.753-2.754c3.609-9.328,7.271-18.637,10.752-28.012c1.396-3.757,3.16-7.389,4.086-11.321
	c0.069-0.295,0.423-0.523,0.645-0.782C110.703,32.391,126.153,32.39,141.603,32.389z"/>
<path fill="#4715D7" d="M80.305,112.883c-9.866-5.719-19.105-11.667-27.994-18.151c-9.254-6.75-18.17-13.896-25.845-22.467
	c-3.777-4.218-6.993-8.793-9.357-13.978c-3.162-6.933-6.487-13.792-9.727-20.689c-0.844-1.795-0.822-1.814,0.875-2.667
	c1.083-0.543,2.156-1.12,3.275-1.58c5.882-2.419,10.705-6.277,15.079-10.815c1.855-1.926,3.96-3.613,6.193-5.626
	c0.349,0.087,0.512,0.944,0.885,1.569c4.44,7.437,8.86,14.886,13.273,22.339c0.664,1.121,1.38,2.196,2.221,3.194
	c5.583,6.626,11.165,13.252,16.717,19.904c1.017,1.216,2.161,2.181,3.573,2.931c4.666,2.479,9.296,5.022,13.911,7.593
	c2.455,1.368,5.182,1.93,7.798,2.822c1.881,0.642,1.905,0.646,1.316,2.518c-1.06,3.375-2.149,6.739-3.324,10.41
	c3.122-0.346,5.942-0.018,8.781-0.336c2.483-0.278,5.005-0.231,7.51-0.319c5.181-0.182,10.362-0.319,15.542-0.547
	c6.811-0.3,13.635-0.295,20.439-0.818c1.777-0.137,3.576-0.021,5.279-0.021c0.309-1.013-0.047-1.64-0.25-2.289
	c-0.652-2.065-1.316-4.125-1.963-6.192c-0.645-2.059-0.666-2.169,1.299-2.693c8.42-2.244,15.398-7.423,23.047-11.235
	c0.807-0.401,1.301-1.129,1.855-1.79c5.408-6.433,10.805-12.877,16.229-19.295c1.291-1.528,2.439-3.139,3.455-4.862
	c4.314-7.31,8.66-14.602,12.994-21.899c0.305-0.513,0.611-1.025,0.801-1.339c1.756,1.578,3.605,3.002,5.172,4.688
	c4.775,5.136,10.135,9.404,16.664,12.128c1.477,0.615,3.684,0.96,4.029,2.407c0.285,1.186-1.082,2.778-1.742,4.178
	c-2.66,5.64-5.453,11.22-7.965,16.924c-2.875,6.522-7.002,12.126-11.875,17.243c-7.441,7.813-15.844,14.496-24.557,20.805
	c-8.074,5.847-16.439,11.255-25.023,16.318c-0.652,0.384-1.248,0.92-2.061,0.993c-0.74-0.471-0.848-1.308-1.131-2.001
	c-2.232-5.445-4.947-10.695-6.652-16.351c-0.271-0.897-0.723-1.247-1.65-1.234c-4.578,0.062-9.156,0.05-13.725,0.478
	c-2.412,0.226-4.842,0.068-7.268,0.189c-5.953,0.298-11.919,0.358-17.877,0.58c-6.554,0.244-13.104,0.593-19.659,0.821
	c-1.18,0.041-1.352,0.773-1.686,1.584C84.951,101.74,82.685,107.164,80.305,112.883z"/>
<path fill="#4715D7" d="M80.305,126.865c-9.866-5.719-19.105-11.667-27.994-18.151c-9.254-6.75-18.17-13.896-25.845-22.467
	c-3.777-4.218-6.993-8.793-9.357-13.978c-3.162-6.933-6.487-13.792-9.727-20.689c-0.844-1.795-0.822-1.814,0.875-2.667
	c1.083-0.543,2.156-1.12,3.275-1.58c5.882-2.419,10.705-6.277,15.079-10.815c1.855-1.926,3.96-3.613,6.193-5.626
	c0.349,0.087,0.512,0.944,0.885,1.569c4.44,7.437,8.86,14.886,13.273,22.339c0.664,1.121,1.38,2.196,2.221,3.194
	C54.767,64.62,60.349,71.246,65.9,77.898c1.017,1.216,2.161,2.181,3.573,2.931c4.666,2.479,9.296,5.022,13.911,7.593
	c2.455,1.368,5.182,1.93,7.798,2.822c1.881,0.642,1.905,0.646,1.316,2.518c-1.06,3.375-2.149,6.739-3.324,10.41
	c3.122-0.346,5.942-0.018,8.781-0.336c2.483-0.278,5.005-0.231,7.51-0.319c5.181-0.182,10.362-0.319,15.542-0.547
	c6.811-0.3,13.635-0.295,20.439-0.818c1.777-0.137,3.576-0.021,5.279-0.021c0.309-1.013-0.047-1.64-0.25-2.289
	c-0.652-2.065-1.316-4.125-1.963-6.192c-0.645-2.059-0.666-2.169,1.299-2.693c8.42-2.244,15.398-7.423,23.047-11.235
	c0.807-0.401,1.301-1.129,1.855-1.79c5.408-6.433,10.805-12.877,16.229-19.295c1.291-1.528,2.439-3.139,3.455-4.862
	c4.314-7.31,8.66-14.602,12.994-21.899c0.305-0.513,0.611-1.025,0.801-1.339c1.756,1.578,3.605,3.002,5.172,4.688
	c4.775,5.136,10.135,9.404,16.664,12.128c1.477,0.615,3.684,0.96,4.029,2.407c0.285,1.186-1.082,2.778-1.742,4.178
	c-2.66,5.64-5.453,11.22-7.965,16.924c-2.875,6.522-7.002,12.126-11.875,17.243c-7.441,7.813-15.844,14.496-24.557,20.805
	c-8.074,5.847-16.439,11.255-25.023,16.318c-0.652,0.384-1.248,0.92-2.061,0.993c-0.74-0.471-0.848-1.308-1.131-2.001
	c-2.232-5.445-4.947-10.695-6.652-16.351c-0.271-0.897-0.723-1.247-1.65-1.234c-4.578,0.062-9.156,0.05-13.725,0.478
	c-2.412,0.226-4.842,0.068-7.268,0.189c-5.953,0.298-11.919,0.358-17.877,0.58c-6.554,0.244-13.104,0.593-19.659,0.821
	c-1.18,0.041-1.352,0.773-1.686,1.584C84.951,115.722,82.685,121.146,80.305,126.865z"/>
</svg>
