<?xml version="1.0" encoding="utf-8"?>
<!-- Generator: Adobe Illustrator 23.1.1, SVG Export Plug-In . SVG Version: 6.00 Build 0)  -->
<svg version="1.1" id="Layer_1" xmlns="http://www.w3.org/2000/svg" xmlns:xlink="http://www.w3.org/1999/xlink" x="0px" y="0px"
	 viewBox="0 0 850.4 850.4" style="enable-background:new 0 0 850.4 850.4;" xml:space="preserve">
<style type="text/css">
	.st0{fill:#FFFFFF;}
	.st1{fill:#7A2426;}
</style>
<polyline class="st0" points="340.9,695.6 521.6,695.6 521.6,674.5 340.9,674.5 "/>
<polyline class="st1" points="340.9,690 521.6,690 521.6,680.1 340.9,680.1 "/>
<path d="M339.4,283.3c-2.1-3.2-3.9-6.7-5.8-10.1c-0.2-0.4-0.4-0.9-0.6-1.2c-2.9-3.5-4.3-7.7-5.4-12c-0.6-2.4-0.9-4.9-1.8-7.2
	c-1-2.8-1.4-5.5-1.5-8.4c-0.1-1.6-0.3-3.1-0.2-4.7c0.1-2.4,0.2-4.8,0.7-7.2c0.6-2.8,1.7-5.4,2.6-8.1c1-2.9,1.8-5.8,3.1-8.5
	c2.7-5.6,5.2-11.4,8.6-16.7c2-3.1,3.6-6.3,5.6-9.4c2-3.1,4.1-6.3,6.3-9.3c4.6-6.3,7.8-13.4,11.2-20.4c2.1-4.3,3.8-8.8,5.6-13.3
	c1.1-2.7,2.7-4.9,4.8-6.8c2.8-2.6,6.1-4,9.8-2.4c2.8,1.2,5.7,2,8.7,2.6c4.1,0.9,8.2,1.5,12.4,2.3c6.5,1.3,12.9,2.6,19.4,3.8
	c1.6,0.3,3.2,0.7,4.8,0.8c5.2,0.1,9.9,2,14.4,4.2c3.1,1.4,6.1,2.9,9.1,4.6c3,1.6,6.4,2.5,9,4.8c0.3,0.3,0.8,0.4,1.3,0.6
	c5.3,2.4,10.3,5.4,14.8,9.1c0.8,0.7,1.8,1.2,2.6,2c3.2,3,6.3,6,9.4,9.1c1.5,1.5,2.9,3.2,4.4,4.8c0.7,0.7,1.6,1.2,2.2,2
	c1.3,1.7,2.5,3.5,3.8,5.3c3.1,4.3,6.4,8.4,9.4,12.8c1.4,1.9,3.1,3.9,3.1,6.4c0.1,3.2,0.9,6.1,2.5,8.8c2,3.3,1.3,6.4-0.5,9.4
	c-2.2,3.5-3.7,7.3-5.1,11.2c-0.6,1.6-1.2,3.2-1.5,4.9c-0.4,2.9-0.4,5.8,1.6,8.4c1.4,1.9,2.6,3.9,3.3,6.1c0.5,1.5,1.2,3,1.9,4.5
	c2.4,4.8,4.4,9.8,6,14.9c1.4,4.2,2.7,8.4,4.1,12.6c1.4,4.3,2.9,8.5,4.3,12.8c1,3.2,2,6.4,3,9.6c1.6,5.3,3.4,10.7,4.7,16.1
	c1.2,5,1.9,10.2,3,15.3c0.9,3.9,0.8,7.9,0.6,11.8c-0.3,5.3-1,10.7-1.2,16c-0.3,6.1-0.3,12.3-0.5,18.4c-0.1,5.2-0.2,10.4-0.3,15.6
	c-0.1,7.2-0.3,14.5-0.3,21.7c0,4.1,0.3,8.2,0.3,12.4c0.1,6.9-0.1,13.9,0,20.8c0.1,3.5-0.3,7.1,0.7,10.6c0.1,0.3,0,0.6,0,0.9
	c0.2,11.4,0.4,22.7,0.6,34.1c0,0.8,0.2,1.5,0.2,2.3c0.2,3.8,0.4,7.6,0.4,11.4c0,3.2-0.6,6.3-0.6,9.5c-0.1,17.2,0,34.4,0,51.6
	c0,0.8-0.1,1.6-0.1,2.3c-0.1,3.9-0.1,7.9-0.2,11.8c0,0.2,0.1,0.3,0.1,0.5c0.1,2.3,0.2,4.6,0.2,7c-0.1,3.7-0.4,7.4-0.5,11.2
	c-0.1,3.6,0,7.1,0,10.7c0,0.8-0.1,1.6-0.2,2.3c-0.8,5.2-1.7,10.4-2.6,15.6c-0.2,1.4-0.4,2.8-0.8,4.1c-0.9,2.8-1.8,5.6-2.9,8.4
	c-1.3,3.4-2.8,6.7-4.3,10.1c-1.4,3.1-2.7,6.3-4.3,9.3c-1.2,2.2-1.9,4.5-2.2,7.1c-0.5,4-1,8-1.7,12c-0.5,3.5-1.2,6.9-1.9,10.3
	c-0.3,1.4,0.1,2.6,0.8,3.7c0.9,1.5,1.7,3,2.6,4.4c0.9,1.5,1.7,3,2.7,4.3c1.9,2.5,2.5,5.6,2.9,8.5c0.3,2.4,1.2,4.3,2.4,6.2
	c0.5,0.7,0.9,1.5,1.4,2.2c0.8,1.1,1.1,2.3,1.1,3.7c0,7,0.1,14,0.2,21c0,1,0.2,2,0.6,2.9c0.6,1.6,0.7,3.1,0.2,4.8
	c-0.3,1.1-0.5,2.3-0.5,3.4c0,1.5-0.2,2.7-1.6,3.6c-0.7,0.4-1.2,1.2-1.8,1.8c-0.6,0.6-1.2,1.2-1.9,1.7c-1.3,0.9-2.6,1.7-3.8,2.6
	c-2.6,2-5.1,4.1-7.6,6.3c-0.8,0.7-1.6,1.1-2.7,1.2c-2.6,0.1-5.1,0.4-7.7,0.6c-6,0.4-11.9,1-17.7,2.5c-3.7,0.9-7.7,1-11.3-0.2
	c-3.7-1.3-7.4-2.5-11.2-3c-1.6-0.2-2.6-1-3.5-2.3c-7.4-11-14.8-21.9-22.2-32.9c-0.9-1.3-1.7-2-3.4-1.9c-3.1,0.2-6.2,0.4-9.3,0.4
	c-3.7,0-7.5-0.3-11.2-0.2c-3.2,0.1-6.3,0.7-9.5,0.2c-3.1-0.5-6.2-0.7-9.3-0.9c-3.6-0.3-7.2-1.3-10.9-1c-1,0.1-2-0.2-3-0.4
	c-5.5-1.2-11.1-2.5-16.6-3.8c-2.8-0.6-5.6-1.3-8.3-2.1c-1.1-0.3-2.2-0.9-3.3-1.1c-2.1-0.5-3.9-1.6-5.5-2.8c-3.3-2.5-5-6-6.5-9.8
	c-0.7-1.7-1.3-3.5-1-5.4c0.4-2.3,0.8-4.6,1.2-6.9c0.9-6.5,1.7-13.1,2.5-19.6c0.1-0.5-0.2-1-0.4-1.5c-2.3-6.9-4.6-13.9-4.1-21.4
	c0.2-2.2,0.1-4.3,0-6.5c-0.3-7.3,0.3-14.6-0.7-21.9c-0.3-2.3-0.3-4.7-0.4-7c-0.3-4.7-0.6-9.4-1-14.2c-0.1-1.9-0.4-3.9-0.5-5.8
	c-0.1-0.8-0.1-1.5-0.2-2.3c-0.4-4.6-0.3-9.4-1.1-13.9c-1.4-7.9-1-15.8-1.6-23.7c-0.1-1.4,0.4-2.8,0.3-4.2c-0.1-3.9-0.5-7.8-0.6-11.6
	c-0.2-9.8,0.1-19.6-1-29.3c-0.7-6.3-0.5-12.7-0.8-19.1c-0.2-4-0.5-8.1-0.7-12.1c-0.1-1.5,0.1-3.1,0.2-4.6c0-1.2,0.2-2.5,0.1-3.7
	c-0.4-5.4-0.9-10.8-1.3-16.2c-0.2-3.6-0.3-7.3-0.5-10.9c-0.1-2.2-0.3-4.3-0.5-6.5c-0.3-3.9-0.6-7.9-0.9-11.8
	c-0.2-2.6-0.3-5.3-0.5-7.9c-0.4-5.4-0.8-10.8-1.2-16.3c-0.3-3.5-0.6-7-0.8-10.5c-0.2-4.5-1.2-8.9-1-13.4c0-0.5,0.1-1.1-0.1-1.6
	c-1-3.1-0.6-6.3-0.6-9.5c0-0.8,0-1.7-0.3-2.5c-1.1-2.6-1.2-5.4-0.6-8c0.8-3.2,0.4-6.3,0.8-9.5c0.2-1.4,0.1-2.8,0.2-4.2
	c0.1-1.2,0.1-2.5,0.3-3.7c0.1-1.1,0.5-2.1,0.7-3.2c0.2-1.1,0.1-2.3,0.3-3.5c0.9-4.8,1.7-9.6,2.7-14.4c1-4.9,1.5-9.8,3.1-14.6
	c1.2-3.4,2.1-7,3.1-10.5c0.8-2.8,1.4-5.7,2.3-8.5c2.3-6.8,4.8-13.6,7-20C342.4,286.6,340.6,285.1,339.4,283.3z M409.5,694.5
	c34.2,0,68.2,0,102.5,0c-0.4-1.4-0.6-2.6-1.1-3.8c-0.1-0.4-0.8-0.7-1.3-0.8c-0.7-0.1-1.4,0-2.1,0c-31.9,0-63.9,0-95.8,0
	c-0.9,0-1.8,0-3,0C409,691.5,409.3,693,409.5,694.5z M508.2,682.7c-0.2-0.4-0.8-0.7-1.3-0.8c-0.5-0.1-1.1,0-1.6,0
	c-31.8,0-63.5,0-95.2,0c-0.8,0-1.7,0-2.8,0c0.3,1.8,0.6,3.2,0.9,4.7c33.8,0,67.5,0,101.5,0C509.1,685.2,508.7,683.9,508.2,682.7z
	 M506.5,679.1c0-1.7-0.9-3.1-1.6-4.6c-32.9,0-65.8,0-98.9,0c0.3,1.6,0.5,3,0.8,4.6C440.2,679.1,473.3,679.1,506.5,679.1z"/>
<rect x="735.8" y="93.5" class="st1" width="73.3" height="43.4"/>
</svg>
