<?xml version="1.0" encoding="utf-8"?>
<!-- Generator: Adobe Illustrator 16.0.0, SVG Export Plug-In . SVG Version: 6.00 Build 0)  -->
<!DOCTYPE svg PUBLIC "-//W3C//DTD SVG 1.1//EN" "http://www.w3.org/Graphics/SVG/1.1/DTD/svg11.dtd" [
	<!ENTITY ns_flows "http://ns.adobe.com/Flows/1.0/">
	<!ENTITY ns_extend "http://ns.adobe.com/Extensibility/1.0/">
	<!ENTITY ns_ai "http://ns.adobe.com/AdobeIllustrator/10.0/">
	<!ENTITY ns_graphs "http://ns.adobe.com/Graphs/1.0/">
	<!ENTITY ns_vars "http://ns.adobe.com/Variables/1.0/">
	<!ENTITY ns_imrep "http://ns.adobe.com/ImageReplacement/1.0/">
	<!ENTITY ns_sfw "http://ns.adobe.com/SaveForWeb/1.0/">
	<!ENTITY ns_custom "http://ns.adobe.com/GenericCustomNamespace/1.0/">
	<!ENTITY ns_adobe_xpath "http://ns.adobe.com/XPath/1.0/">
]>
<svg version="1.1" id="Layer_1" xmlns:x="&ns_extend;" xmlns:i="&ns_ai;" xmlns:graph="&ns_graphs;"
	 xmlns="http://www.w3.org/2000/svg" xmlns:xlink="http://www.w3.org/1999/xlink" xmlns:a="http://ns.adobe.com/AdobeSVGViewerExtensions/3.0/"
	 x="0px" y="0px" width="850.391px" height="850.39px" viewBox="0 0 850.391 850.39" enable-background="new 0 0 850.391 850.39"
	 xml:space="preserve">
<metadata><?xpacket begin="﻿" id="W5M0MpCehiHzreSzNTczkc9d"?>
<x:xmpmeta xmlns:x="adobe:ns:meta/" x:xmptk="Adobe XMP Core 5.3-c011 66.145661, 2012/02/06-14:56:27        ">
   <rdf:RDF xmlns:rdf="http://www.w3.org/1999/02/22-rdf-syntax-ns#">
      <rdf:Description rdf:about=""
            xmlns:xmp="http://ns.adobe.com/xap/1.0/"
            xmlns:xmpGImg="http://ns.adobe.com/xap/1.0/g/img/">
         <xmp:CreatorTool>Adobe Illustrator CS6 (Macintosh)</xmp:CreatorTool>
         <xmp:CreateDate>2019-09-30T19:41:03+08:00</xmp:CreateDate>
         <xmp:MetadataDate>2019-09-30T19:41:04+08:00</xmp:MetadataDate>
         <xmp:ModifyDate>2019-09-30T19:41:04+08:00</xmp:ModifyDate>
         <xmp:Thumbnails>
            <rdf:Alt>
               <rdf:li rdf:parseType="Resource">
                  <xmpGImg:width>188</xmpGImg:width>
                  <xmpGImg:height>256</xmpGImg:height>
                  <xmpGImg:format>JPEG</xmpGImg:format>
                  <xmpGImg:image>/9j/4AAQSkZJRgABAgEASABIAAD/7QAsUGhvdG9zaG9wIDMuMAA4QklNA+0AAAAAABAASAAAAAEA&#xA;AQBIAAAAAQAB/+4ADkFkb2JlAGTAAAAAAf/bAIQABgQEBAUEBgUFBgkGBQYJCwgGBggLDAoKCwoK&#xA;DBAMDAwMDAwQDA4PEA8ODBMTFBQTExwbGxscHx8fHx8fHx8fHwEHBwcNDA0YEBAYGhURFRofHx8f&#xA;Hx8fHx8fHx8fHx8fHx8fHx8fHx8fHx8fHx8fHx8fHx8fHx8fHx8fHx8fHx8f/8AAEQgBAAC8AwER&#xA;AAIRAQMRAf/EAaIAAAAHAQEBAQEAAAAAAAAAAAQFAwIGAQAHCAkKCwEAAgIDAQEBAQEAAAAAAAAA&#xA;AQACAwQFBgcICQoLEAACAQMDAgQCBgcDBAIGAnMBAgMRBAAFIRIxQVEGE2EicYEUMpGhBxWxQiPB&#xA;UtHhMxZi8CRygvElQzRTkqKyY3PCNUQnk6OzNhdUZHTD0uIIJoMJChgZhJRFRqS0VtNVKBry4/PE&#xA;1OT0ZXWFlaW1xdXl9WZ2hpamtsbW5vY3R1dnd4eXp7fH1+f3OEhYaHiImKi4yNjo+Ck5SVlpeYmZ&#xA;qbnJ2en5KjpKWmp6ipqqusra6voRAAICAQIDBQUEBQYECAMDbQEAAhEDBCESMUEFURNhIgZxgZEy&#xA;obHwFMHR4SNCFVJicvEzJDRDghaSUyWiY7LCB3PSNeJEgxdUkwgJChgZJjZFGidkdFU38qOzwygp&#xA;0+PzhJSktMTU5PRldYWVpbXF1eX1RlZmdoaWprbG1ub2R1dnd4eXp7fH1+f3OEhYaHiImKi4yNjo&#xA;+DlJWWl5iZmpucnZ6fkqOkpaanqKmqq6ytrq+v/aAAwDAQACEQMRAD8A655n/NScSy2eiIEVGKG9&#xA;ejE02rGvSngTX5YoYTc+ZPMF0T6+o3Lg/smVwv8AwINMVS5mZmLMSzHqTucVaxV2Kou31fVrb/ee&#xA;9nhp09OV1/URirKfL35n61YSLHqJOoWldy1BMo8Vf9r5N94xV65aXMN1aw3UDcoZ0WSNvFWFRilV&#xA;xV2KuxV2KuxV2KuxV2KuxV2KuxV2KuxV2KuxV2KvCfNPk/UtAuD6qmSxdqQXS/ZPcK38rU7fdihI&#xA;MVdirsVdirsVTHQ9A1LW70WlhHyYbySMaIi1pyY/5nFXvGj6cum6Va2AcyC2iWMue5Ubn78UozFX&#xA;Yq7FXYq7FXYq7FXYq7FXYq7FXYq7FXYq7FXYqhdV0y01SwmsbtOcEy0bxB7MvuDuMVeD+YdBvND1&#xA;OSxuhWnxQygUWSM9GH8ffFCWYq7FXYqr2dnc3t1Fa2sZluJmCxoOpJxV7n5S8s2+gaWtstHupKPd&#xA;zD9p/Af5K9BilO8VdirsVdirsVdirsVdirsVdirsVdirsVdirsVdirsVdiqTeavLFn5g042837u4&#xA;jq1tcUqUb+KnuMVeMa15Z1rR5mjvbZ1QH4Z1BaJh4hxt/HFCVYqitO0y/wBSuVtbGBp52/ZQdB4k&#xA;9APc4q9h8keSIdAgNxclZdUlFHcbrGp/YT+JxSyrFXYq7FXYq7FXYq7FXYq7FXYq7FXYq7FXYq7F&#xA;XYq7FXYq7FXYq7FUO2m6cxLNawknqTGpP6sVVIbe3gBWGJIlO5CKFBP0YqqYq7FXYq7FXYq7FXYq&#xA;7FXYq7FXYq7FXYq7FXYq7FXYq7FXYq7FXYq7FXYq7FXYq7FXYq7FXYq7FXYq7FXYq7FWndERndgq&#xA;KCzMxoABuSScVeaecPz+8k6A7W1k7a1ersyWjL6Kn/KnNV/4ANigl55qn/OUXmGUEaZotraV2DXE&#xA;klwR7jj6Aw0jiYbrH52/mXqitHJrD2sTVHp2iJBSvg6ASf8ADYotnv8Azj5+ZesT67J5Z1q+lvIb&#xA;uNpNPkuHMkiTRjk0YdiW4sgJpXYjbrikF9CYGTsVdirsVdirsVdirsVdirsVdirsVdirsVdirsVd&#xA;irsVSPzj5y0Tylo0mq6tKVjB4QwJQyzSHcJGpIqfwHfFSXyr59/NnzV5wuJEuJ2s9JJ/daXAxEfE&#xA;Hb1DsZG9228AMLAlheKHYq7FUVpWp3mlala6lZP6d3ZypNA/g6HkK+I23GKvtbyd5psPNPl2z1qy&#xA;NI7lP3sVamKVdpI291b7xvgbAnWKuxV2KuxV2KuxV2KuxV2KuxV2KuxV2KuxV2KuxVC6rqljpWnX&#xA;OpX8ogs7SNpZ5W6BVH4nwGKvjn8xvP2pedPMEmoXBaOyiJTT7Mn4Yoq+HTm3Vj/ADCwJYrih2Kux&#xA;V2KuxV6j+Qfn9vL3mddHvJKaRrLrEan4Yrk/DFJ4AN9hvoPbFIL6pwM3Yq7FXYq7FXYq7FXYq7FX&#xA;Yq7FXYq7FXYq7FXYq8f/AOcmtUubfyZY2MVRFfXg9dh0KwoXCH5tRvowhjJ8y4sXYq7FXYq7FXYq&#xA;4Eggg0I6HFX2f+VvmhvM3kbS9Tmfneen6F6T1M0J4Mx93oH+nAzDK8UuxV2KuxV2KuxV2KuxV2Ku&#xA;xV2KuxV2KuxV2KsJ/OfR7LVPy31lboqhs4TeW8r/ALMsHxKF93FY/wDZYoL47wsHYq7FXYq7FXYq&#xA;7FX1H/zjTBPF+XkzyV4T6jPJDX+QRxIaf7NGwFnF6vil2KuxV2KuxV2KuxV2KuxV2KuxV2KuxV2K&#xA;uxV4X/zk35ueGysPK1u9Ddf6ZfgHrGjcYUPszhm/2IwhjJ884sXYq7FXYq7FXYqrWVnc3t5BZ2sZ&#xA;lubmRYoIl6s7kKqj5k4q+1vInlkeWPKOmaHyDyWkX7916NK7GSUj25sae2BsCfYq7FXYq7FXYq7F&#xA;XYq7FXYq7FXYq7FXYq7FXYq+LvzP8ynzH551bUlfnbesYLQjp6EP7tCP9YLy+ZwsCxbFDsVdirsV&#xA;dirsVem/848S6Ov5iwR6hAstxLBKNNkb/ddwo5VArSpiDgYpD6twM3Yq7FXYq7FXYq7FXYq7FXYq&#xA;7FXYq7FXYq7FWMfmb5g/QHkTWdSV+Ey27Q2zDqJp/wB1GR8meuKC+LMLB2KuxV2KuxV2KuxVMPLu&#xA;rzaNr2n6tDX1LG4inAHcRsGK/wCyG2KvueCeG4gjnhcSQyqHjdejKwqCPmMDYvxV2KuxV2KuxV2K&#xA;uxV2KuxV2KuxV2KuxV2KvGv+cn9TMPlPS9OU0N5e+q3ukEbVH/BSqcIYyfNWLF2KuxV2KuxV2Kux&#xA;V2Kvsn8ntU/SX5a6DOTVorf6q3t9WYwiv0RjAzDMcUuxV2KuxV2KuxV2KuxV2KuxV2KuxV2KuxV4&#xA;d/zlLAW0fQZ/2Y7idCKbVdFPX/YYQxk+dsWLsVdirsVdirsVdirsVfUP/ONFzJN+XtxG5+G31KaO&#xA;P/VMUMn/ABJzgLOL1nFLsVdirsVdirsVdirsVdirsVdirsVdirsVeM/85Q/8ojpX/bQH/JmTCGMn&#xA;zXixdirsVdirsVdirsVdir6a/wCcYoHTyPqEzE8ZdSkCL2osEVT9JNPoxLKL2DAydirsVdirsVdi&#xA;rsVdirsVdirsVdirsVdirxv/AJygRz5O0twPgXUVUn3aCUj/AIicIYyfNOLF2KuxV2KuxV2KuxV2&#xA;Kvq7/nHa2EP5Z20lP96Lm4kP0P6f/GmBmHpmKXYq7FXYq7FXYq7FXYq7FXYq7FXYql2vapJptkLh&#xA;EEjFwnFiQNwT2+WYHaOsOnx8YF702YocRpj3+Orv/llj/wCCbNF/oin/ADA5H5Yd7zD/AJyA8z3O&#xA;p+VrC1eJY4xfLKeJJJKwyKOv+uc2XZnaktTMxIAoW0Z8QiHg2btxk/8ALXkrV/MUM0unvABbsFkW&#xA;VyrDkKg0CtscwNZ2jj05Ane/c248RnyTj/lT/mz+e1/5GN/zRmH/AC/p/wCl8v2tn5WTv+VP+bP5&#xA;7X/kY3/NGP8AL+n/AKXy/av5WTv+VP8Amz+e1/5GN/zRj/L+n/pfL9q/lZO/5U/5s/ntf+Rjf80Y&#xA;/wAv6f8ApfL9q/lZMc8xeXL/AEC+SyvmjaZ4xKPSYsArMyitQu/w5sdJq4aiPFC6ut2nJjMTRSvM&#xA;pg+mvyl8z3Gmfl5o9klurrGsrBmJBPqTySf8bZzmt7bliyygIg05mPADEG2Xf46u/wDllj/4Jsxf&#xA;9EU/5gbPyw70V/i+5/Rv1v6unL1vS41NKcOVcyP5cn4PicI+qvstj4A4qtlGdI4rsVdirsVdirsV&#xA;dirsVdirsVSHzp/xx1/4zL+ps0nb/wDi/wDnD9Lfp/qYLnGOc89/Oj/jg2P/ADFf8y2zoPZ3+9l/&#xA;V/SHF1f0h4/nXuAz78nNR9DzBcWTGiXkBIHi8R5D/hS2aH2hw8WES/mn7/wHK0svVT2TOOc92Kux&#xA;V2KvDvzYm9TzjMlf7mGJPvXn/wAbZ2/YUa0w8yXXak+th2bhx30R5Mi9LynpK0pW1ienX7ahv455&#xA;52jK9RP+sXa4vpCdZhtiYf8ATPf9Hf8AzKzO/wCQv/JT/etf8fwekZ6A652KuxV2KuxV2KuxV2Ku&#xA;xV2KpD50/wCOOv8AxmX9TZpO3/8AF/8AOH6W/T/UwXOMc55v+dR/3GaaK9Z32/2GdH7Of3k/c4mr&#xA;5B5LnWOCm3lTWo9F8wWmpyIzx25bmiU5EOjIaV2/azE12nObDKA5n9bPHPhkC9K/5XRoP/LDdf8A&#xA;JP8A5qzm/wDQ7l/nR+39Tmfm49zv+V0aD/yw3X/JP/mrH/Q7l/nR+39S/m49zv8AldGg/wDLDdf8&#xA;k/8AmrH/AEO5f50ft/Uv5uPc7/ldGg/8sN1/yT/5qx/0O5f50ft/Uv5uPc81816zFrXmC71OJGjj&#xA;uCnBHpyASNU3pUfs50mh05w4YwPMfrtw8k+KRKU5lsH0l5ei9Hy/pkW/7u0gTfr8MajPN9XK8sz3&#xA;yP3u2gPSEwyhmmH/AEz3/R3/AMyszv8AkL/yU/3rX/H8HpGegOudirsVdirsVdirsVdirsVdirFv&#xA;zHvjZeX1mCc/9IReJNOqtmHrtGNRDgJre2cJ8Jt5h/ih/wDlnH/B/wBmaj/Q7D+eW780e5gX5r6q&#xA;19b6aDGI/TeU7GtahfYeGbHs/s2OmJIN8TTmy8TzrNm0InTLL69fwWnP0/Wbjzpyp9FRirKf+Vdf&#xA;9rD/AJI/8342mnf8q6/7WH/JH/m/G1p3/Kuv+1h/yR/5vxtad/yrr/tYf8kf+b8bWmI3UPoXM0HL&#xA;l6TsnKlK8TStMUKeKvetP8yyR2FtGbcVSJFPxeCgeGc9P2fhKRPEd3MGpNckR/ih/wDlnH/B/wBm&#xA;Q/0Ow/nlP5o9ybf4hf8Awn9Y9Af73+nx5f8AFNa1pl/8hw8Lw+I/Vf2Ux/MG7p7Fm8aHYq7FXYq7&#xA;FXYq7FXYq7FXYqwz82P+UXT/AJiY/wDiL4q8dxQxH8wwv1ayP7XN6D2oK4QgsIxYpp5XUtr9kB/v&#xA;yv3AnFIeo4GTsVdirTuqIztsqgkn2GKvHZZDJK8jdXYsfmTXCwW4q9kjXjGq/wAoA+7AzbxVPP8A&#xA;piP+3n/2L4q95xS7FXYq7FXYq7FXYq7FXYq7FWGfmx/yi6f8xMf/ABF8VeO4oYj+YfH6tZbfFzeh&#xA;9qCuIQWEYWKJ0y/ewvortFDtESQp2BqCP44qyP8A5WHe/wDLJH/wTY0m3f8AKw73/lkj/wCCbGlt&#xA;3/Kw73/lkj/4JsaW1k3n68lhki+qxjmpWvJtqimNLbFsULoQDKgO4LCo+nFXseBm7FU8/wCmI/7e&#xA;f/Yvir3nFLsVdirsVdirsVdirsVdirsVSrzJ5ette08WNzI8UYkWXlHTlVQRTcHxxVjH/KoNE/5b&#xA;bn/kn/zTiryz8/PJNh5e0jSprWeWZp7h0YS8aABK7cQMIYyeKYsXYq7FXYq7FXYq7FVfT4Wnv7aB&#xA;RVpZUQAdaswGKvrf/lUGif8ALbc/8k/+acDY7/lUGif8ttz/AMk/+acVRf8AyrHSf0T+jPrVx6X1&#xA;j6zz+Dly4cKfZpSmKsxxV2KuxV2KuxV2KuxV2KuxV2KuxV2KvE/+co1Y+XtEenwi7kBPapi2/VhD&#xA;GT5xxYuxV2KuxV2KuxV2Kp55EtfrfnbQLYjksuo2quNj8PrLy2Ptiofb2BsdirsVdirsVdirsVdi&#xA;rsVdirsVdirsVdirsVeRf85NWUk3kWzuV6WuoRlx/kvFItf+CpiESfMWFg7FXYq7FXYq7FXYqzD8&#xA;oLZbj8y/L8bdFuhJ36xI0g6f6uKQ+ysDN2KuxV2KuxV2KuxV2KuxV2KuxV2KuxV2KuxVjP5k+WT5&#xA;l8k6rpMYrcyxepaf8Z4SJIx/smXifY4oL4rIKkqwoRsQeoOFg7FXYq7FXYq7FXYqz78hlr+a2h7V&#xA;A+tE/wDSHNikPrzAzdirsVdirsVdirsVdirsVdirsVdirsVdirsVdir5A/O7QLfRfzH1OK2T07e7&#xA;4XkaAUAM61kp7epywsCwTFDsVdirsVdirsVek/8AOPVlc3H5nWU0VfTs4Lma4p04NEYhX/ZyrikP&#xA;rHAzdirsVdirsVdirsVdirsVdirsVdirsVdirsVdir5c/wCcktQ0u78+xRWjB7mzs44L5l6CTm8i&#xA;r/rBXFfu7YQwk8oxQ7FXYq7FXYq7FXsP/OMNzGnnXUbdh8c2nuUbf9iaOo+kGv0YllF9M4GTsVdi&#xA;rsVdirsVdirsVdirsVdirsVdirsVdiqD1nU4dK0e+1SdS0Fhby3Uqr9opChdgPei4q+G9W1G41PV&#xA;LzUrg1nvZpLiU9filYufxOFrQuKuxV2KuxV2KuxV7T/zjf5N1l/MbeZpoZINKt4JIoJmHETySfDR&#xA;K/aVRUkjvQYllEPpHAydirsVdirsVdirsVdirsVdirsVdirsVdirsVY5+ZEvpfl95kala6bdJTp9&#xA;uFlr9FcUF8UYWDsVdir0z8m/ykXzpPc32qtNb6Fa/uw8JCvNOd+CswYUQbsaeA+SkB6kf+cY/IFW&#xA;P13VBXoPWt9t67fuP14LZcKOtP8AnHT8tYBSWG7uj4y3DD/k0I8Vpk+j/lh+X+jlWsNCtVkXdZZU&#xA;9eQH2eYyMPvxWmTgAAACgGwAxS7FXYq7FXYq7FXYq7FXYq7FXYq7FXYq7FXYq7FULqum2mqaZdab&#xA;eLztbyJ4J17lJFKmh8aHbFXyl55/JLzh5c1Ix2Fnca1pslWt7u0heRgB1WaOMOUI8eh7eALAhg9/&#xA;pGraeVF/ZT2hb7InieKvy5gYoTryf+XvmjzTqFtBYWM4s5pAsuotGwt4l/aZpCOOw/ZrU4pAfYnl&#xA;3QdO8v6LaaPpyenaWcYjQHqx6s7HuzMSx98DNMcVdirsVdirsVdirsVf/9k=</xmpGImg:image>
               </rdf:li>
            </rdf:Alt>
         </xmp:Thumbnails>
      </rdf:Description>
      <rdf:Description rdf:about=""
            xmlns:xmpTPg="http://ns.adobe.com/xap/1.0/t/pg/"
            xmlns:stDim="http://ns.adobe.com/xap/1.0/sType/Dimensions#"
            xmlns:xmpG="http://ns.adobe.com/xap/1.0/g/">
         <xmpTPg:MaxPageSize rdf:parseType="Resource">
            <stDim:w>299.998915</stDim:w>
            <stDim:h>299.998743</stDim:h>
            <stDim:unit>Millimeters</stDim:unit>
         </xmpTPg:MaxPageSize>
         <xmpTPg:NPages>1</xmpTPg:NPages>
         <xmpTPg:HasVisibleTransparency>False</xmpTPg:HasVisibleTransparency>
         <xmpTPg:HasVisibleOverprint>False</xmpTPg:HasVisibleOverprint>
         <xmpTPg:PlateNames>
            <rdf:Seq>
               <rdf:li>Cyan</rdf:li>
               <rdf:li>Magenta</rdf:li>
               <rdf:li>Yellow</rdf:li>
               <rdf:li>Black</rdf:li>
            </rdf:Seq>
         </xmpTPg:PlateNames>
         <xmpTPg:SwatchGroups>
            <rdf:Seq>
               <rdf:li rdf:parseType="Resource">
                  <xmpG:groupName>Default Swatch Group</xmpG:groupName>
                  <xmpG:groupType>0</xmpG:groupType>
               </rdf:li>
            </rdf:Seq>
         </xmpTPg:SwatchGroups>
      </rdf:Description>
      <rdf:Description rdf:about=""
            xmlns:dc="http://purl.org/dc/elements/1.1/">
         <dc:format>image/svg+xml</dc:format>
      </rdf:Description>
      <rdf:Description rdf:about=""
            xmlns:xmpMM="http://ns.adobe.com/xap/1.0/mm/"
            xmlns:stRef="http://ns.adobe.com/xap/1.0/sType/ResourceRef#"
            xmlns:stEvt="http://ns.adobe.com/xap/1.0/sType/ResourceEvent#">
         <xmpMM:DerivedFrom rdf:parseType="Resource">
            <stRef:instanceID>xmp.iid:F73F1AA85321681180839FCCDFDC130E</stRef:instanceID>
            <stRef:documentID>xmp.did:F73F1AA85321681180839FCCDFDC130E</stRef:documentID>
            <stRef:originalDocumentID>xmp.did:F63F1AA85321681180839FCCDFDC130E</stRef:originalDocumentID>
         </xmpMM:DerivedFrom>
         <xmpMM:DocumentID>xmp.did:F83F1AA85321681180839FCCDFDC130E</xmpMM:DocumentID>
         <xmpMM:InstanceID>xmp.iid:F83F1AA85321681180839FCCDFDC130E</xmpMM:InstanceID>
         <xmpMM:OriginalDocumentID>xmp.did:F63F1AA85321681180839FCCDFDC130E</xmpMM:OriginalDocumentID>
         <xmpMM:History>
            <rdf:Seq>
               <rdf:li rdf:parseType="Resource">
                  <stEvt:action>saved</stEvt:action>
                  <stEvt:instanceID>xmp.iid:F63F1AA85321681180839FCCDFDC130E</stEvt:instanceID>
                  <stEvt:when>2019-09-30T18:39:11+08:00</stEvt:when>
                  <stEvt:softwareAgent>Adobe Illustrator CS6 (Macintosh)</stEvt:softwareAgent>
                  <stEvt:changed>/</stEvt:changed>
               </rdf:li>
               <rdf:li rdf:parseType="Resource">
                  <stEvt:action>saved</stEvt:action>
                  <stEvt:instanceID>xmp.iid:F83F1AA85321681180839FCCDFDC130E</stEvt:instanceID>
                  <stEvt:when>2019-09-30T19:41:04+08:00</stEvt:when>
                  <stEvt:softwareAgent>Adobe Illustrator CS6 (Macintosh)</stEvt:softwareAgent>
                  <stEvt:changed>/</stEvt:changed>
               </rdf:li>
            </rdf:Seq>
         </xmpMM:History>
      </rdf:Description>
   </rdf:RDF>
</x:xmpmeta>
                                                                                                    
                                                                                                    
                                                                                                    
                                                                                                    
                                                                                                    
                                                                                                    
                                                                                                    
                                                                                                    
                                                                                                    
                                                                                                    
                                                                                                    
                                                                                                    
                                                                                                    
                                                                                                    
                                                                                                    
                                                                                                    
                                                                                                    
                                                                                                    
                                                                                                    
                                                                                                    
                           
<?xpacket end="w"?>
	</metadata>
<rect x="273.696" y="507.695" fill="#8E908F" width="310" height="72.22"/>
<rect x="273.696" y="435.475" fill="#D7C834" width="310" height="72.22"/>
<path fill="#3E4545" d="M514.467,285.792c0.756,2.22,1.578,4.626,2.394,7.034c2.083,6.158,4.183,12.312,6.23,18.481
	c0.438,1.322,0.688,2.707,1.023,4.062c0.801,3.23,1.462,6.48,2.758,9.59c1.835,4.401,2.082,9.205,3.045,13.827
	c1.059,5.085,2.079,10.187,2.829,15.323c0.391,2.673,0.672,5.337,1.365,7.968c0.359,1.365,0.138,2.885,0.157,4.336
	c0.031,2.466,0.028,4.933,0.08,7.399c0.013,0.613,0.09,1.254,0.29,1.83c0.846,2.423,0.531,4.925,0.571,7.402
	c0.007,0.386,0.033,0.828-0.131,1.151c-1.272,2.5-0.689,5.172-0.81,7.784c-0.086,1.853-0.52,3.702-0.481,5.547
	c0.078,3.818-0.672,7.551-0.921,11.333c-0.239,3.631-0.654,7.25-0.939,10.879c-0.194,2.475-0.268,4.96-0.451,7.437
	c-0.326,4.405-0.716,8.807-1.034,13.213c-0.168,2.321-0.199,4.653-0.37,6.975c-0.313,4.248-0.699,8.491-1.025,12.738
	c-0.154,2.011-0.253,4.026-0.354,6.041c-0.17,3.41-0.229,6.829-0.503,10.23c-0.454,5.635-0.262,11.316-1.288,16.915
	c-0.203,1.112,0.093,2.311,0.107,3.47c0.023,1.931,0.047,3.862-0.005,5.792c-0.086,3.184-0.202,6.367-0.359,9.548
	c-0.226,4.568-0.499,9.135-0.753,13.702c-0.004,0.078-0.005,0.156-0.009,0.233c-0.211,5.354-0.198,10.727-0.688,16.053
	c-0.646,6.999-0.198,13.995-0.437,20.986c-0.125,3.638-0.567,7.266-0.698,10.903c-0.062,1.768,0.424,3.552,0.381,5.322
	c-0.123,5.122-0.337,10.244-0.626,15.36c-0.105,1.85-0.579,3.676-0.786,5.524c-0.249,2.232-0.379,4.479-0.588,6.716
	c-0.13,1.388-0.357,2.768-0.458,4.157c-0.334,4.642-0.584,9.289-0.954,13.927c-0.346,4.322-0.836,8.633-1.194,12.954
	c-0.135,1.626,0.101,3.293-0.135,4.897c-1.099,7.499-0.797,15.041-0.851,22.573c-0.008,1.157-0.214,2.312-0.298,3.471
	c-0.038,0.53-0.034,1.067,0.008,1.598c0.079,1.003,0.231,2.001,0.299,3.005c0.432,6.42-1.218,12.506-3.321,18.439
	c-1.021,2.883-1.162,5.719-0.772,8.586c1.021,7.521,2.245,15.014,3.362,22.521c0.076,0.515-0.01,1.072-0.113,1.592
	c-0.804,4.042-2.641,7.651-5.073,10.898c-1.74,2.323-4.259,3.809-6.989,4.813c-2.036,0.75-4.098,1.443-6.184,2.039
	c-1.779,0.509-3.607,0.842-5.414,1.256c-1.44,0.329-2.881,0.659-4.319,0.997c-2.49,0.586-4.974,1.199-7.469,1.76
	c-1.741,0.391-3.524,0.619-5.242,1.09c-2.062,0.565-4.105,0.795-6.225,0.438c-0.512-0.087-1.067,0.055-1.6,0.117
	c-3.385,0.392-6.769,0.8-10.153,1.186c-2.545,0.289-5.091,0.563-7.64,0.821c-0.771,0.078-1.569,0.205-2.324,0.095
	c-5.107-0.752-10.229,0.05-15.338-0.181c-3.474-0.157-6.952-0.247-10.418-0.496c-1.621-0.117-2.513,0.547-3.382,1.847
	c-7.307,10.927-14.705,21.793-22.009,32.723c-0.986,1.477-2.174,2.278-3.89,2.514c-3.783,0.52-7.459,1.423-10.966,3.003
	c-0.894,0.402-1.958,0.514-2.956,0.583c-4.378,0.304-8.738-0.014-12.92-1.314c-3.11-0.966-6.286-0.915-9.437-1.24
	c-4.091-0.422-8.206-0.622-12.302-1.006c-0.625-0.059-1.276-0.503-1.793-0.92c-2.721-2.196-5.377-4.472-8.11-6.652
	c-1.081-0.862-2.315-1.531-3.452-2.328c-0.568-0.397-1.099-0.856-1.598-1.338c-0.333-0.321-0.507-0.84-0.875-1.084
	c-2.322-1.536-3.149-3.674-2.701-6.368c-1.332-2.757-0.687-5.435-0.106-8.292c0.595-2.927,0.374-6.029,0.41-9.056
	c0.052-4.361,0.056-8.724-0.01-13.085c-0.023-1.547,0.324-2.912,1.19-4.169c0.177-0.257,0.359-0.511,0.517-0.778
	c1.444-2.442,3.189-4.677,3.251-7.799c0.036-1.802,0.873-3.606,1.46-5.372c0.287-0.861,0.69-1.76,1.283-2.427
	c1.37-1.539,2.149-3.394,3.102-5.163c0.695-1.292,1.469-2.54,2.214-3.805c0.677-1.147,1.154-2.231,0.819-3.712
	c-0.821-3.63-1.48-7.302-2.061-10.979c-0.579-3.67-1.049-7.36-1.441-11.055c-0.274-2.589-0.997-4.979-2.261-7.257
	c-1.202-2.164-2.347-4.371-3.34-6.637c-1.773-4.046-3.514-8.112-5.082-12.241c-1.917-5.051-3.837-10.074-4.286-15.593
	c-0.356-4.385-1.448-8.708-2.185-13.062c-0.129-0.763-0.159-1.549-0.163-2.323c-0.017-3.481,0.079-6.965-0.03-10.442
	c-0.122-3.874-0.45-7.74-0.623-11.613c-0.037-0.83,0.443-1.722,0.278-2.498c-0.479-2.252,0.242-4.466,0.032-6.68
	c-0.219-2.312-0.233-4.596-0.013-6.909c0.108-1.135-0.191-2.308-0.296-3.465c-0.056-0.618-0.17-1.244-0.12-1.855
	c0.478-5.811-0.184-11.616-0.044-17.428c0.142-5.916,0.031-11.839,0.031-17.759c0-5.841,0.056-11.684-0.02-17.524
	c-0.049-3.802-0.44-7.602-0.416-11.401c0.048-7.306-0.069-14.64,0.535-21.908c0.626-7.536,0.209-15.089,0.771-22.586
	c0.998-13.297,0.194-26.59,0.546-39.877c0.053-2.012,0.514-4.028,0.417-6.025c-0.649-13.529-0.37-27.071-0.702-40.6
	c-0.118-4.809,0.284-9.714-0.513-14.415c-0.683-4.027-0.255-8.058-0.979-12.052c-0.424-2.339-0.049-4.816-0.12-7.228
	c-0.104-3.514,0.243-6.944,1.032-10.392c1.087-4.75,1.605-9.633,2.774-14.359c1.261-5.101,2.995-10.084,4.512-15.122
	c0.402-1.336,0.732-2.695,1.154-4.025c1.662-5.246,3.28-10.507,5.046-15.717c1.363-4.021,2.957-7.963,4.386-11.963
	c0.91-2.546,1.673-5.145,2.569-7.696c0.665-1.895,1.38-3.777,2.175-5.621c1.257-2.916,2.753-5.739,3.855-8.709
	c0.846-2.279,1.78-4.507,3.3-6.35c2.288-2.773,2.242-5.941,1.652-9.056c-0.499-2.628-1.62-5.151-2.581-7.677
	c-1.181-3.107-2.822-5.987-4.407-8.91c-1.275-2.352-2.019-5.089-0.285-7.743c0.291-0.445,0.352-1.037,0.625-1.498
	c1.416-2.389,2.08-4.937,2.167-7.733c0.039-1.239,0.622-2.574,1.289-3.662c3.932-6.412,8.672-12.25,13.073-18.33
	c1.705-2.356,3.644-4.378,5.682-6.383c1.103-1.085,1.982-2.397,3.079-3.489c3.016-3.002,6.073-5.963,9.16-8.892
	c0.723-0.686,1.646-1.154,2.445-1.766c3.795-2.909,7.525-5.879,12.003-7.78c2.186-0.928,4.108-2.454,6.233-3.546
	c2.754-1.416,5.593-2.665,8.392-3.994c2.155-1.023,4.376-1.936,6.444-3.113c4.921-2.802,10.092-4.689,15.792-5.071
	c1.925-0.129,3.838-0.531,5.737-0.904c6.552-1.29,13.092-2.639,19.643-3.932c4.942-0.976,9.908-1.843,14.837-2.88
	c1.571-0.331,3.063-1.045,4.587-1.597c3.104-1.124,5.962-1.057,8.776,1.059c2.951,2.219,5.154,4.9,6.518,8.302
	c1.034,2.58,1.95,5.213,3.109,7.734c2.522,5.48,4.854,11.084,7.841,16.306c3.572,6.243,7.789,12.114,11.645,18.198
	c2.021,3.189,3.762,6.559,5.814,9.727c3.502,5.404,5.93,11.347,8.75,17.089c1.286,2.618,2.095,5.477,3.044,8.252
	c0.921,2.696,1.932,5.383,2.555,8.153c0.538,2.394,0.668,4.893,0.819,7.355c0.085,1.378-0.215,2.776-0.229,4.167
	c-0.033,3.042-0.471,5.965-1.513,8.868c-0.885,2.468-1.238,5.125-1.854,7.693c-1.003,4.185-2.456,8.167-5.219,11.564
	c-0.335,0.412-0.49,0.966-0.76,1.437c-1.884,3.295-3.626,6.685-5.722,9.839C518.009,282.471,516.213,283.936,514.467,285.792z
	 M363.954,439.947c2.101,7.931,4.269,15.783,6.248,23.683c1.998,7.978,3.119,16.116,3.874,24.437c36.065,0,71.995,0,108.157,0
	c1.45-16.065,2.891-32.012,4.345-48.119C445.509,439.947,404.746,439.947,363.954,439.947z M373.502,557.293
	c2.878,0.499,99.786,0.39,101.615-0.112c0.195-2.326,0.43-4.709,0.585-7.097c0.182-2.786,0.019-5.624,0.486-8.356
	c1.559-9.104,3.38-18.165,3.414-27.459c0.007-1.592,0.187-3.183,0.284-4.744c-3.103-0.496-103.554-0.359-105.428,0.156
	C374.141,525.526,373.821,541.429,373.502,557.293z"/>
<path fill="#8E908F" d="M74.602,9.717c3.604,0,7.207-0.02,10.81,0.008c1.982,0.015,3.963,0.148,5.945,0.159
	c2.292,0.012,4.584-0.065,6.876-0.079c1.904-0.011,3.808,0.024,5.711,0.018c1.61-0.005,3.219-0.043,4.829-0.062
	c6.237-0.074,12.475-0.233,18.71-0.179c2.76,0.024,5.522,0.422,8.271,0.754c5.362,0.647,10.715,1.371,16.072,2.059
	c3.446,0.442,6.896,0.858,10.337,1.333c0.675,0.093,1.353,0.335,1.977,0.626c6.75,3.15,13.321,6.622,19.325,11.123
	c0.964,0.723,1.71,1.503,2.092,2.7c1.117,3.496,2.593,6.842,2.395,10.711c-0.203,3.945-1.925,6.938-4.778,9.287
	c-2.333,1.921-4.93,3.508-7.375,5.293c-0.734,0.536-1.492,1.141-2,1.883c-8.498,12.415-18.019,23.984-28.172,35.007
	c-4.983,5.411-10.554,10.13-17.271,13.286c-1.421,0.667-2.565,1.927-3.961,2.672c-1.192,0.636-2.541,1.034-3.864,1.333
	c-1.081,0.244-2.34-0.29-3.192,0.884c-0.096,0.132-0.417,0.133-0.633,0.13c-5.551-0.083-11.104-0.152-16.656-0.274
	c-2.695-0.06-5.421,0.013-8.076-0.378c-8.393-1.237-16.837-2.352-24.189-7.27c-4.751-3.178-8.963-6.994-12.674-11.324
	c-9.09-10.608-17.996-21.376-25.916-32.942c-0.775-1.131-1.739-1.918-2.885-2.632c-3.353-2.089-6.636-4.264-9.486-7.091
	c-3.715-3.685-4.047-8.066-2.999-12.84c0.033-0.152,0.1-0.297,0.149-0.446c2.225-6.663,2.181-6.743,8.254-10.17
	c5.132-2.895,10.39-5.558,15.573-8.361c2.415-1.306,5.09-1.18,7.67-1.547c5.27-0.75,10.542-1.499,15.832-2.076
	C65.728,10.828,70.076,9.446,74.602,9.717z"/>
</svg>
