<?xml version="1.0" encoding="utf-8"?>
<!-- Generator: Adobe Illustrator 16.0.0, SVG Export Plug-In . SVG Version: 6.00 Build 0)  -->
<!DOCTYPE svg PUBLIC "-//W3C//DTD SVG 1.1//EN" "http://www.w3.org/Graphics/SVG/1.1/DTD/svg11.dtd" [
	<!ENTITY ns_flows "http://ns.adobe.com/Flows/1.0/">
	<!ENTITY ns_extend "http://ns.adobe.com/Extensibility/1.0/">
	<!ENTITY ns_ai "http://ns.adobe.com/AdobeIllustrator/10.0/">
	<!ENTITY ns_graphs "http://ns.adobe.com/Graphs/1.0/">
	<!ENTITY ns_vars "http://ns.adobe.com/Variables/1.0/">
	<!ENTITY ns_imrep "http://ns.adobe.com/ImageReplacement/1.0/">
	<!ENTITY ns_sfw "http://ns.adobe.com/SaveForWeb/1.0/">
	<!ENTITY ns_custom "http://ns.adobe.com/GenericCustomNamespace/1.0/">
	<!ENTITY ns_adobe_xpath "http://ns.adobe.com/XPath/1.0/">
]>
<svg version="1.1" id="Layer_1" xmlns:x="&ns_extend;" xmlns:i="&ns_ai;" xmlns:graph="&ns_graphs;"
	 xmlns="http://www.w3.org/2000/svg" xmlns:xlink="http://www.w3.org/1999/xlink" xmlns:a="http://ns.adobe.com/AdobeSVGViewerExtensions/3.0/"
	 x="0px" y="0px" width="850.391px" height="850.39px" viewBox="0 0 850.391 850.39" enable-background="new 0 0 850.391 850.39"
	 xml:space="preserve">
<metadata><?xpacket begin="﻿" id="W5M0MpCehiHzreSzNTczkc9d"?>
<x:xmpmeta xmlns:x="adobe:ns:meta/" x:xmptk="Adobe XMP Core 5.3-c011 66.145661, 2012/02/06-14:56:27        ">
   <rdf:RDF xmlns:rdf="http://www.w3.org/1999/02/22-rdf-syntax-ns#">
      <rdf:Description rdf:about=""
            xmlns:xmp="http://ns.adobe.com/xap/1.0/"
            xmlns:xmpGImg="http://ns.adobe.com/xap/1.0/g/img/">
         <xmp:CreatorTool>Adobe Illustrator CS6 (Macintosh)</xmp:CreatorTool>
         <xmp:CreateDate>2019-09-30T22:04:08+08:00</xmp:CreateDate>
         <xmp:MetadataDate>2019-09-30T22:04:08+08:00</xmp:MetadataDate>
         <xmp:ModifyDate>2019-09-30T22:04:08+08:00</xmp:ModifyDate>
         <xmp:Thumbnails>
            <rdf:Alt>
               <rdf:li rdf:parseType="Resource">
                  <xmpGImg:width>184</xmpGImg:width>
                  <xmpGImg:height>256</xmpGImg:height>
                  <xmpGImg:format>JPEG</xmpGImg:format>
                  <xmpGImg:image>/9j/4AAQSkZJRgABAgEASABIAAD/7QAsUGhvdG9zaG9wIDMuMAA4QklNA+0AAAAAABAASAAAAAEA&#xA;AQBIAAAAAQAB/+4ADkFkb2JlAGTAAAAAAf/bAIQABgQEBAUEBgUFBgkGBQYJCwgGBggLDAoKCwoK&#xA;DBAMDAwMDAwQDA4PEA8ODBMTFBQTExwbGxscHx8fHx8fHx8fHwEHBwcNDA0YEBAYGhURFRofHx8f&#xA;Hx8fHx8fHx8fHx8fHx8fHx8fHx8fHx8fHx8fHx8fHx8fHx8fHx8fHx8fHx8f/8AAEQgBAAC4AwER&#xA;AAIRAQMRAf/EAaIAAAAHAQEBAQEAAAAAAAAAAAQFAwIGAQAHCAkKCwEAAgIDAQEBAQEAAAAAAAAA&#xA;AQACAwQFBgcICQoLEAACAQMDAgQCBgcDBAIGAnMBAgMRBAAFIRIxQVEGE2EicYEUMpGhBxWxQiPB&#xA;UtHhMxZi8CRygvElQzRTkqKyY3PCNUQnk6OzNhdUZHTD0uIIJoMJChgZhJRFRqS0VtNVKBry4/PE&#xA;1OT0ZXWFlaW1xdXl9WZ2hpamtsbW5vY3R1dnd4eXp7fH1+f3OEhYaHiImKi4yNjo+Ck5SVlpeYmZ&#xA;qbnJ2en5KjpKWmp6ipqqusra6voRAAICAQIDBQUEBQYECAMDbQEAAhEDBCESMUEFURNhIgZxgZEy&#xA;obHwFMHR4SNCFVJicvEzJDRDghaSUyWiY7LCB3PSNeJEgxdUkwgJChgZJjZFGidkdFU38qOzwygp&#xA;0+PzhJSktMTU5PRldYWVpbXF1eX1RlZmdoaWprbG1ub2R1dnd4eXp7fH1+f3OEhYaHiImKi4yNjo&#xA;+DlJWWl5iZmpucnZ6fkqOkpaanqKmqq6ytrq+v/aAAwDAQACEQMRAD8A9U4q7FXYq7FXYq7FXYq7&#xA;FXEgCp2A6nFXzN+ff/OUsOm/WfK/kK4WbURyiv8AXUo0cB6FLY7h5PGTovap3VV8oprespqg1ZL+&#xA;4XVQ/qi/Er/WPU/n9WvPl71xV9O/k5/zl3QW+h/mJ7RweYol+gfW41/5OIPmvVsVfUlle2d9aQ3l&#xA;lPHc2lwokguIWDxujbhlZSQQfbFVbFXYq7FXYq7FXYq7FXYq7FXYq7FXYq7FXYq7FXYq7FVC+vrK&#xA;wsp76+nS2s7ZGluLiVgiIiCrMzHYADFXxv8An1/zk9e+aPrHlrybJJZeXTyiu9RFY571ehVejRwt&#xA;4faYfaoKrir56xV2KuxV7r/zjP8AnnJ5M1hPLOvXB/wpqUlI5ZDtZXDkASAnpE5/vB0H2v5qqvt8&#xA;EMAQag7gjoRirsVdirsVdirsVdirsVdirsVdirsVdirsVdirsVdir5l/5zP/ADBa00nTfI1lLSXU&#xA;CL/VVU7/AFeNqQRn2eVS3+wGKvkXFXYq7FXYq7FX1/8A84ofnc+rW0X5f6/MX1K0jP6Du3NTNbxL&#xA;U27E/tRIKp4oKfs7qvpXFXYq7FXYq7FXYq7FXYq7FXYq7FXYq7FXYq7FVK6ure0tZrq5kWK2t0aW&#xA;aVjRURAWZifAAVxV+bH5nedbjzr561fzJLyEd7OfqkTdY7aP4IE8KiNRWnepxVi+KuxV2KuxV2Kp&#xA;p5Y8wX3l3zFpuu2Bpd6ZcR3MO9ATGwbifZhsfbFX6ZaFrNjreiWGs2D+pZajbxXVu3ikqB1r70O+&#xA;Ko7FXYq7FXYq7FXYq7FXYq7FXYq7FXYq7FXYq8O/5y38/wD+Hfy6/QNrJx1LzK5tvhNCtpHRrhv9&#xA;lVY/cMcVfDmKuxV2KuxV2KuxV2KvtT/nDnzz+l/Id15YuZOV55em/cAnc2l0WdOvXhJzHsOOKvoD&#xA;FXYq7FXYq7FXYq7FXYq7FXYq7FXYq7FXYq+SP+c4NLnTW/K2q8mME9tc2oX9lXhkSSvzYTfhir5i&#xA;xV2KuxV2KuxV2KuxV7d/ziDr36O/N+KxZqJrNjc2nHsXjAuVPzpAQPnir7mxV2KuxV2KuxV2KuxV&#xA;2KuxV2KuxV2KuxV2Kvmr/nN7UtOTyt5b0x1J1Ke+luYHHRYIIeEoP+s80dPkcVfIGKuxV2KuxV2K&#xA;uxV2Kvbv+cU/y817XPzFsfM0cLxaDoMjyXN8aqjzmIqkEZ/aarhnA6L16iqr7mxV2KuxV2KuxV2K&#xA;uxV2KuxV2KuxV2KuxVSu7u2s7Wa7uZBFbW8bSzyt9lUQFmY+wArir83PzO/MXW/P3my713U5WMbM&#xA;Y9Pta/Bb2wY+nGg+W7Hu1TirE8VdirsVdirsVdirsVekfk3+d/mP8tNRcWqre6FeSI+paZJty4/C&#xA;ZIW/3XJx2r0O1RsKKvvvy75g0rzFodlrekzi407UIlmtpR3VuxHZlPwsOx2xVMcVdirsVdirsVdi&#xA;rsVdirsVdirsVdir5e/5y9/N3V9OkT8vtJLW0V5bLcaxdg0aWGUsq2yeCHhWQ9/s9OVVXyZirsVd&#xA;irsVdirsVdirsVdir3//AJxb/O8+VdXj8na5J/zr2qzj6pcOf95LqT4RUn/dUpoG/lb4v5sVfauK&#xA;uxV2KuxV2KuxV2KuxV2KuxVTubq2tLeW5upUgtoVLzTysEREUVLMzUAAHc4q+cvzb/5y80fS1l0r&#xA;yAE1TUd0k1iVT9UiPT9ypoZm99k/1xir5P8AMXmTXfMmsXGs67eyX+p3TcprmUip8FUCiqqjZVUA&#xA;AbAYqlmKuxV2KuxV2KuxV2KuxV2KuxV79+Un/OWPmXy19X0jzcr65oMYWKO6FPr0CDYUY0E6jwc8&#xA;v8rtir648m+e/KfnPSxqflvUotQtthKEJWSJjvxliajof9YYqn2KuxV2KuxV2KuxV2Ksc84/mH5Q&#xA;8mjT28yaimnpqc5trV5ASvIKWLMQDxRdgWOwqK4q+IPzv/PHX/zD125gt7mW28pQSU07TAeCuqdJ&#xA;p1H25GI5AN9joO5Kry3FXYq7FXYq7FXYq7FXYq7FXYq7FXYq7FU48q+bfMXlTWYdZ8v30lhqEH2Z&#xA;Yzsy90kQ1V0NN1YEYq+5Pyr/AOch/JvnPT9Ds7u6jsvNmpmWCXSgGIE1unN2Vtwsci7x8jUn4RUg&#xA;4q9YxV2KuxV2KuxV2KvgX/nJn8xf8ZfmVdQ2snLSNB5adY0Pwu6MfrEo/wBeTYHuqriryXFXYq7F&#xA;XYq7FXYq7FXYq7FXYq7FXYq7FXYq7FUVpep32lanaanYSmC+sZkuLWZeqSxMHRh8iMVfpT+XvnC1&#xA;84+S9I8y2wCrqVusksamojmWqTR1P8kqsv0YqyHFXYq7FXYqw/8AN/zY/lP8tPMOuxP6d1bWjJZu&#xA;OouJyIYT9EkinFX5uEkmp3JxVrFXYq7FXYq7FXYq7FXYq7FXYq7FXYq7FXYq7FXYq+v/APnCjzcb&#xA;ry5rflWeSsmmzre2anr6NyOMgX2SSOvzfFX0rirsVdirsVfO/wDzmp5jFn5E0jQUakurXxmcV6w2&#xA;aVYf8jJoz9GKvjPFXYq7FXYq7FXYq7FXYq7FXYq7FXYq7FXYq7FXYq7FXrf/ADi15mOh/nJpUbPw&#xA;t9Yjm02f39VecQ+meKMYq++cVdirsVdir4p/5zN19r38zLLSVasOkafGGTwmuXaVz9Mfp4q8BxV2&#xA;KuxV2KuxV2KuxV2KuxV2KuxV2KuxV2KuxV2KuxVMPL+rz6Lr2m6xb19fTbqG7ipseUEgkH4rir9Q&#xA;La4hubeK5gYPDOiyROOhVxVSPmDiqpirsVdir86fz71f9LfnH5su619O/e0B36Wara9/+MOKsBxV&#xA;2KuxV2KuxV2KuxV2KuxV2KuxV2KuxV2KuxV2KuxV2Kv0g/JfWTrH5UeVL9jydtNghlY9TJbr6Dn6&#xA;WjJxVmmKuxV2Kvy617UDqWuajqJPI3t1NcFt9/VkZ67798VQGKuxV2KuxV2KuxV2KuxV2KuxV2Ku&#xA;xV2KuxV2KuxV2KuxV94f84lXj3H5K6dExqLO6vIV3rQGZpfo3lxV7JirsVQmsXZs9JvbwHiba3lm&#xA;5AVI4IWrQ9emKvy2xV2KuxV2KuxV2KuxV2KuxV2KuxV2KuxV2KuxV2KuxV2KuxV9rf8AOFt2Jfyu&#xA;1K3JHO31iYAAH7D29uwJP+tyxV79irsVYp+bN8bH8r/Nt0Nnj0i99Mj+drd1XrT9ojFX5rYq7FXY&#xA;q7FXYq7FXYq7FXYq7FXYq7FXYq7FXYq7FXYq7FXYq+tv+cHb8vpHmzT67QXFncBd/wDd6SoT1p/u&#xA;nFX09irsVeaf85J3htPyR80yivxQwQ7AH+/uoou/+vir89sVdirsVdirsVdirsVdirsVdirsVdir&#xA;sVdirsVdirsVdirsVfS//OEFzx8z+Z7XkP3tlBLx7n05StR8vUxV9e4q7FXk3/OVEbv+RvmBlcqI&#xA;3smdR+0PrsK8T9LA/Rir4ExV2KuxV2KuxV2KuxV2KuxV2KuxV2KuxV2KuxV2KuxV2KuxV9Ff84S/&#xA;8p/rv/bKP/UTFir7KxV2KvNf+ckbT61+SXmmKnLjBDLStP7m5ilr9HDFX564q7FXYq7FXYq7FXYq&#xA;7FXYq7FXYq7FXYq7FXYq7FXYq7FXYq+mv+cH7Ln5h8033H+4tLaDlTp60rtTl2r6PTFX11irsVYh&#xA;+b9ib78q/NtsAGZtJvHRSAatHA0ijf3Xr2xV+bWKuxV2KuxV2KuxV2KuxV2KuxV2KuxV2KuxV2Ku&#xA;xV2KuxV2Kvrb/nB2y4aT5tvf9/z2UNf+MKTN/wAzsVfT2KuxVA6/Z/XtC1Gypy+tWs0PECpPqRst&#xA;Kd+uKvy5xV2KuxV2KuxV2KuxV2KuxV2KuxV2KuxV2KuxV2KuxV2KuxV9q/8AOFln6X5YanckfFca&#xA;xNQ1/YS3gA/4blir3/FXYq7FX5b6vZ/UtWvbKnH6tPLDxrWnpuVpX6MVQeKuxV2KuxV2KuxV2Kux&#xA;V2KuxV2KuxV2KuxV2KuxV2KuxV92f84i2xi/Jm0k4gfWL27kBHU0k9Op9/gpir2jFXYq7FX5p/mk&#xA;LYfmZ5tFt/vONZ1AR71HH61J0Ph4YqxfFXYq7FXYq7FXYq7FXYq7FXYq7FXYq7FXYq7FXYq7FXYq&#xA;/Qv/AJxwS0X8k/KwtRxjMEpf/jIbmUyn/kZyxV6TirsVdir8/vPv5N/mnP558xT2vlbUrm2l1O9e&#xA;C5htpGjkja4cq6NTdWG4OKpD/wAqU/Nz/qUNV/6RZf6Yq7/lSn5uf9Shqv8A0iy/0xVLte/Lfz/5&#xA;fsP0hrfl6/06xDrGbm4t5I4w7fZBYigrTFWN4q7FXYq7FXYq7FXYq7FXYq7FXYqmnl7yv5i8yXr2&#xA;OgabcapeRxmeS3tY2ldYlZVLlVr8IZ1FffFWQ/8AKlPzc/6lDVf+kWX+mKu/5Up+bn/Uoar/ANIs&#xA;v9MVd/ypT83P+pQ1X/pFl/pir7c/5x98v6t5e/J/y9pOrW0lpqECXLz20y8JEM13NMqsp6HjIMVe&#xA;h4q7FXj/APyobzB/1P8Aqv8AyU/6r5V4R73Zfn4/zI/j4PNfzd/K+w8npZ6prnn+4gXUHaES3Npd&#xA;3Lu8agjeC4qKL4jCIebVPVgnaEfx8nm3reRP/LlH/uF6p/1Xw8Hmw/M/0Y/b+t3reRP/AC5R/wC4&#xA;Xqn/AFXx4PNfzP8ARj9v60j85v5UfQZhp/nT9NXYZDHYGwvoOXxCp9SeV4xxG+4wiNdWE8/EK4Yj&#xA;5/redZJodirsVdirsVdirsVdirsVdirsVZT5B/Qi310+q+YP8PqIgIp/q1zdeoSwJSls8bLSldzT&#xA;ARbZjycJugfezj1vIn/lyj/3C9U/6r5Hg8278z/Rj9v63et5E/8ALlH/ALheqf8AVfHg81/M/wBG&#xA;P2/rTnyd5f8AKnmjzNYaDp/5itNd3zlY4l03UYy3FS7APJcKg+FTuceDzUakfzY/b+t7wn5B66iK&#xA;iefdUVFACqPUAAGwAHr5Hwz3uR+fj/Mj+Pgu/wCVDeYP+p/1X/kp/wBV8fCPev5+P8yP4+CtZ/kb&#xA;r1veQXDee9UlWGRJGib1OLBWB4n9+djSmPhnvRLXRIrgH4+D1rLXXPnb/nNmzaTyBod4Iywg1URt&#xA;IP2RLbymhHuY+uKvjTFXYq7FXYq7FXYq7FXYq7FXYq7FXYq7FXYq7FXYq7FXrf8AzirZzT/njoMk&#xA;a8ktY72aY+CmzljB/wCDkXFX3zirsVdirsVYl+a/kaLzx5A1fy4xCXF1FzspT0S5hIkhJPYF1Ct/&#xA;kk4q/Ny4gmt55LedDHNCzRyxtsVZTRgfkcVU8VdirsVdirsVdirsVdirsVdirsVdirsVdirsVdir&#xA;66/5ww/L36rpOo+ertf32o8tP0wHtbxODO/+zlUKP9Q+OKvprFXYq7FXYq7FX54f85BeVZ/Lf5ue&#xA;YbZ04wX1y2pWhHQxXjGXb/VdmT6MVedYq7FXYq7FXYq7FXYq7FXYq7FXYq7FXYq7FXYq2ASaDcnF&#xA;X6T/AJT+VZfKn5b+XtAnUJdWVon1tBuBcSkyzCveksjYqyzFXYq7FXYq7FXyF/zmV5N8y3XnXTfM&#xA;Nlpdxc6QNLjtp723iaREmiuJmIlKA8PglTiW69umKvCfLv5e+efMbhdD0G+1AGlZYYHMQr05SkBF&#xA;+k4q9G0r/nEf85r1Q1xZWem13pdXcZI+f1f18VfSnlL/AJxp/K7S/LFhp2saHa6pqkUCrqGoP6hM&#xA;s5FZGU8gVXl9npQYqj/+hbvyS/6laD/kdc/9VcVWyf8AONf5ISIUbytCA2xKz3an6CswIxVAT/8A&#xA;OKn5HSMCmhSQgCnFL28IPv8AHK5xVK5/+cPfyekACLqMJHUpdAk/Pmj4qhpv+cMvymkTil3rEJrX&#xA;mlzAT8vjt2H4Yqqxf84cflEjqzPqkoHVHuUAPz4xKfuOKphB/wA4l/krEtH026nNa8pLycGnh8DI&#xA;MVTOD/nGT8jYCSnldDy687q9k6eHOdqYqrf9C3fkl/1K0H/I65/6q4qi/wDlQP5Nf9SnY/8AAt/z&#xA;Vir5s8//APOIn5hW+v6jceVLe1v9Flnkl061W4WKeOF25JEwn4LVAeNee9K4q8p178p/zL0HmdV8&#xA;s6jbxJ9qcW7yQj/ntGHj/wCGxVb+XHkjzF5s83afpmkWUtw31mM3UqrSOCNWBd5XPwqFUE79egqd&#xA;sVfpVirsVdirsVf/2Q==</xmpGImg:image>
               </rdf:li>
            </rdf:Alt>
         </xmp:Thumbnails>
      </rdf:Description>
      <rdf:Description rdf:about=""
            xmlns:xmpTPg="http://ns.adobe.com/xap/1.0/t/pg/"
            xmlns:stDim="http://ns.adobe.com/xap/1.0/sType/Dimensions#"
            xmlns:xmpG="http://ns.adobe.com/xap/1.0/g/">
         <xmpTPg:MaxPageSize rdf:parseType="Resource">
            <stDim:w>299.998915</stDim:w>
            <stDim:h>299.998743</stDim:h>
            <stDim:unit>Millimeters</stDim:unit>
         </xmpTPg:MaxPageSize>
         <xmpTPg:NPages>1</xmpTPg:NPages>
         <xmpTPg:HasVisibleTransparency>False</xmpTPg:HasVisibleTransparency>
         <xmpTPg:HasVisibleOverprint>False</xmpTPg:HasVisibleOverprint>
         <xmpTPg:PlateNames>
            <rdf:Seq>
               <rdf:li>Cyan</rdf:li>
               <rdf:li>Magenta</rdf:li>
               <rdf:li>Yellow</rdf:li>
               <rdf:li>Black</rdf:li>
            </rdf:Seq>
         </xmpTPg:PlateNames>
         <xmpTPg:SwatchGroups>
            <rdf:Seq>
               <rdf:li rdf:parseType="Resource">
                  <xmpG:groupName>Default Swatch Group</xmpG:groupName>
                  <xmpG:groupType>0</xmpG:groupType>
               </rdf:li>
            </rdf:Seq>
         </xmpTPg:SwatchGroups>
      </rdf:Description>
      <rdf:Description rdf:about=""
            xmlns:dc="http://purl.org/dc/elements/1.1/">
         <dc:format>image/svg+xml</dc:format>
      </rdf:Description>
      <rdf:Description rdf:about=""
            xmlns:xmpMM="http://ns.adobe.com/xap/1.0/mm/"
            xmlns:stRef="http://ns.adobe.com/xap/1.0/sType/ResourceRef#"
            xmlns:stEvt="http://ns.adobe.com/xap/1.0/sType/ResourceEvent#">
         <xmpMM:DerivedFrom rdf:parseType="Resource">
            <stRef:instanceID>xmp.iid:035A81E56D21681180839FCCDFDC130E</stRef:instanceID>
            <stRef:documentID>xmp.did:035A81E56D21681180839FCCDFDC130E</stRef:documentID>
            <stRef:originalDocumentID>xmp.did:015A81E56D21681180839FCCDFDC130E</stRef:originalDocumentID>
         </xmpMM:DerivedFrom>
         <xmpMM:DocumentID>xmp.did:AF4842987621681180839FCCDFDC130E</xmpMM:DocumentID>
         <xmpMM:InstanceID>xmp.iid:AF4842987621681180839FCCDFDC130E</xmpMM:InstanceID>
         <xmpMM:OriginalDocumentID>xmp.did:015A81E56D21681180839FCCDFDC130E</xmpMM:OriginalDocumentID>
         <xmpMM:History>
            <rdf:Seq>
               <rdf:li rdf:parseType="Resource">
                  <stEvt:action>saved</stEvt:action>
                  <stEvt:instanceID>xmp.iid:015A81E56D21681180839FCCDFDC130E</stEvt:instanceID>
                  <stEvt:when>2019-09-30T20:05:57+08:00</stEvt:when>
                  <stEvt:softwareAgent>Adobe Illustrator CS6 (Macintosh)</stEvt:softwareAgent>
                  <stEvt:changed>/</stEvt:changed>
               </rdf:li>
               <rdf:li rdf:parseType="Resource">
                  <stEvt:action>saved</stEvt:action>
                  <stEvt:instanceID>xmp.iid:AF4842987621681180839FCCDFDC130E</stEvt:instanceID>
                  <stEvt:when>2019-09-30T22:04:08+08:00</stEvt:when>
                  <stEvt:softwareAgent>Adobe Illustrator CS6 (Macintosh)</stEvt:softwareAgent>
                  <stEvt:changed>/</stEvt:changed>
               </rdf:li>
            </rdf:Seq>
         </xmpMM:History>
      </rdf:Description>
   </rdf:RDF>
</x:xmpmeta>
                                                                                                    
                                                                                                    
                                                                                                    
                                                                                                    
                                                                                                    
                                                                                                    
                                                                                                    
                                                                                                    
                                                                                                    
                                                                                                    
                                                                                                    
                                                                                                    
                                                                                                    
                                                                                                    
                                                                                                    
                                                                                                    
                                                                                                    
                                                                                                    
                                                                                                    
                                                                                                    
                           
<?xpacket end="w"?>
	</metadata>
<rect x="178.363" y="642.674" fill="#FFFFFF" width="534" height="86.667"/>
<rect x="177.029" y="677.842" fill="#7A2426" width="534" height="8.166"/>
<path fill-rule="evenodd" clip-rule="evenodd" d="M213.462,692.209c24.691,0,49.277,0,74.082,0c0-1.796,0-3.385,0-5.249
	c-0.942-0.042-1.92-0.122-2.897-0.123c-23.291-0.007-46.582-0.006-69.873-0.006c-0.545,0-1.103-0.073-1.634,0.014
	c-1.836,0.302-2.751-0.588-3.159-2.565c25.765,0,51.473,0,77.407,0c-0.116-1.89-0.214-3.479-0.332-5.394c-1.175,0-2.159,0-3.143,0
	c-24.615,0-49.229,0-73.845,0c-0.623,0-1.25-0.041-1.869,0.006c-1.421,0.109-1.91-0.68-2.056-2.121c26.865,0,53.631,0,80.758,0
	c-0.233-1.79-0.438-3.359-0.678-5.201c-1.03-0.056-2.006-0.154-2.981-0.154c-25.316-0.009-50.632-0.007-75.948-0.007
	c-1,0-2,0-3.252,0c-0.444-3.104-1.076-5.997-1.22-8.914c-0.176-3.562-0.054-7.151,0.148-10.716c0.188-3.325,0.687-6.631,0.984-9.951
	c0.301-3.366-0.463-6.639-0.926-9.945c-0.569-4.063-1.022-8.148-1.377-12.237c-0.489-5.639-0.833-11.29-1.251-16.935
	c-0.361-4.876-0.67-9.757-1.126-14.624c-0.644-6.869-1.421-13.726-2.102-20.592c-0.252-2.549-0.392-5.107-0.587-7.661
	c-0.456-5.954-0.978-11.904-1.353-17.864c-0.297-4.727-0.417-9.465-0.613-14.198c-0.105-2.559-0.329-5.119-0.278-7.675
	c0.08-4.035,0.296-8.07,0.549-12.1c0.199-3.173,0.528-6.338,0.822-9.504c0.69-7.412,1.375-14.824,2.099-22.232
	c0.513-5.248,1.177-10.483,1.612-15.738c0.562-6.801,1.047-13.61,1.417-20.424c0.713-13.124,3.045-26.021,5.184-38.954
	c2.752-16.644,6.945-32.958,10.885-49.336c1.637-6.805,3.373-13.572,5.632-20.193c0.926-2.717,2.055-5.377,3.279-7.975
	c3.782-8.02,7.644-16.002,11.501-23.986c0.672-1.393,1.47-2.725,2.25-4.157c2.601,0.966,4.05,3.136,5.958,5.091
	c0.688-1.311,1.37-2.505,1.954-3.746c0.929-1.977,2.1-3.709,3.833-5.12c0.785-0.64,1.159-1.78,1.725-2.69
	c0.282-0.454,0.48-1.146,0.884-1.308c1.999-0.796,3.268-2.454,4.855-3.747c2.009-1.635,4.224-3.012,6.559-4.228
	c3.609-1.881,6.94-4.313,10.597-6.081c4.207-2.033,7.75-5.029,11.723-7.38c1.799-1.065,3.537-2.234,5.331-3.309
	c0.447-0.268,1.011-0.333,1.506-0.531c0.557-0.223,1.177-0.39,1.63-0.755c1.595-1.286,3.118-2.661,4.691-3.975
	c1.215-1.014,1.496-2.294,1.196-3.774c-0.229-1.13-0.48-2.257-0.667-3.395c-0.189-1.154,0.141-2.12,1.098-2.882
	c0.606-0.482,1.1-1.102,1.667-1.634c2.049-1.921,4.071-3.894,5.095-6.569c0.474-1.237,1.353-1.836,2.425-2.257
	c1.259-0.494,1.935-1.303,2.375-2.618c1.004-2.994,2.285-5.894,3.342-8.872c0.408-1.15,0.518-2.408,0.756-3.618
	c0.31-1.573,1.12-2.749,2.323-3.874c2.425-2.269,4.707-4.709,6.857-7.24c0.695-0.819,0.878-2.125,1.141-3.244
	c0.351-1.497,0.381-3.086,0.86-4.532c0.578-1.743,1.354-3.455,2.295-5.029c0.5-0.835,0.518-1.448,0.331-2.331
	c-1.655-7.823-3.342-15.642-4.813-23.5c-0.729-3.893-0.173-7.751,1.435-11.42c9.081-20.713,18.146-41.433,27.241-62.14
	c1.489-3.39,3.644-6.273,6.525-8.678c15.147-12.65,30.249-25.355,45.354-38.056c3.081-2.59,6.376-4.72,10.458-5.315
	c4.736-0.69,9.147,0.215,13.137,2.863c4.797,3.185,9.541,6.45,14.308,9.68c5.024,3.405,10.022,6.85,15.084,10.197
	c2.794,1.847,4.767,4.436,6.774,7.01c8.701,11.153,17.33,22.362,26.122,33.442c2.917,3.676,4.673,7.846,6.331,12.129
	c4.939,12.759,9.878,25.519,14.888,38.25c1.463,3.717,2.255,7.58,3.02,11.468c1.05,5.332,2.178,10.649,3.236,15.979
	c1.389,6.998-2.056,14.854-8.325,18.629c-0.792,0.477-1.585,0.952-2.429,1.458c1.518,3.703,3.75,6.757,6.886,9.219
	c1.231,0.967,2.486,1.714,3.899,2.368c1.214,0.562,2.428,1.484,3.206,2.562c2.893,4.003,5.657,8.102,8.367,12.232
	c2.12,3.233,4.244,6.45,6.9,9.281c1.006,1.072,1.954,2.197,2.924,3.302c0.152,0.174,0.394,0.369,0.397,0.558
	c0.05,2.323,1.809,3.503,3.294,4.789c1.684,1.457,2.422,3.477,3.516,5.286c0.665,1.1,1.468,1.949,2.679,2.475
	c0.667,0.29,1.175,0.928,1.802,1.336c0.686,0.447,1.417,0.829,2.146,1.207c0.816,0.423,1.69,0.747,2.474,1.222
	c2.647,1.607,5.28,3.24,7.89,4.909c0.945,0.604,1.748,1.443,2.718,1.996c3.609,2.057,7.431,3.792,10.836,6.138
	c2.25,1.549,4.961,2.306,6.938,3.956c1.962,1.638,4.827,2.076,6.084,4.68c0.349,0.722,1.393,1.207,2.217,1.579
	c1.369,0.618,2.245,1.589,2.759,2.965c0.419,1.121,1.18,1.897,2.172,2.625c0.891,0.654,1.526,1.73,2.103,2.721
	c0.971,1.665,1.807,3.409,2.751,5.221c1.979-1.664,3.31-4.042,6.116-4.727c0.864,1.58,1.777,3.103,2.551,4.692
	c3.097,6.364,6.372,12.653,9.145,19.156c2.126,4.984,3.707,10.214,5.332,15.396c3.091,9.857,6.336,19.67,8.7,29.744
	c2.75,11.714,5.552,23.416,7.54,35.291c1.436,8.574,2.94,17.138,4.231,25.733c0.495,3.29,0.452,6.659,0.707,9.988
	c0.69,9.044,1.37,18.09,2.132,27.128c0.392,4.636,0.961,9.256,1.427,13.886c0.669,6.637,1.414,13.268,1.947,19.915
	c0.472,5.878,0.729,11.773,1.023,17.664c0.167,3.335,0.426,6.685,0.278,10.011c-0.385,8.677-0.414,17.375-1.617,26.009
	c-0.428,3.067-0.353,6.201-0.606,9.297c-0.411,5.021-0.906,10.037-1.363,15.055c-0.781,8.576-1.647,17.146-2.313,25.731
	c-0.492,6.343-0.671,12.709-1.088,19.059c-0.306,4.644-0.565,9.313-1.805,13.828c-1.206,4.39-0.807,8.764-0.249,13.172
	c0.959,7.581,1.129,15.162-0.22,22.723c-0.121,0.675-0.348,1.331-0.569,2.16c-27.473,0-54.87,0-82.502,0
	c-0.29,1.808-0.555,3.463-0.854,5.336c27.229,0,54.31,0,81.436,0c-0.495,2.107-0.495,2.114-2.181,2.167
	c-0.623,0.02-1.246,0.004-1.87,0.004c-24.771,0-49.541,0-74.312,0c-0.99,0-1.98,0-3.116,0c-0.195,1.873-0.362,3.462-0.558,5.332
	c26.161,0,52.12,0,78.167,0c-0.885,2.602-0.885,2.612-3.3,2.612c-23.914,0.002-47.828,0.001-71.742,0.001
	c-1.001,0.001-2.002,0-3.022,0c-0.78,1.846-0.523,3.499-0.049,5.34c24.818,0,49.646,0,74.511,0
	c-0.284,7.142-0.44,14.105-0.899,21.049c-0.172,2.601-0.874,5.208-1.642,7.718c-1.501,4.91-3.408,9.667-5.98,14.143
	c-2.715,4.726-3.945,9.939-4.781,15.263c-0.618,3.937-1.648,7.744-3.382,11.347c-1.651,3.433-2.117,7.119-2.205,10.861
	c-0.078,3.264-0.133,6.521-0.999,9.697c-0.183,0.672-0.412,1.332-0.642,1.99c-0.888,2.564-2.342,4.423-5.235,5.032
	c-2.727,0.573-5.341,1.699-8.074,2.209c-1.449,0.271-3.071-0.132-4.573-0.438c-11.428-2.324-22.841-4.719-34.269-7.044
	c-2.434-0.495-4.897-0.871-7.363-1.161c-1.602-0.189-2.519-0.977-3.028-2.449c-0.859-2.486-1.777-4.952-2.747-7.64
	c-3.202-0.764-6.607-1.026-10.068-0.282c-0.598,0.129-1.236,0.09-1.856,0.095c-10.977,0.093-21.953,0.122-32.928,0.292
	c-5.896,0.092-11.788,0.392-17.68,0.661c-4.019,0.184-8.031,0.495-12.048,0.715c-4.489,0.245-8.981,0.442-13.471,0.676
	c-4.484,0.233-8.977,0.381-13.45,0.753c-9.93,0.826-19.875,0.619-29.818,0.622c-3.267,0.001-6.536-0.061-9.8-0.195
	c-4.646-0.19-9.288-0.472-13.932-0.721c-4.02-0.217-8.038-0.443-12.057-0.667c-4.411-0.244-8.844-0.289-13.226-0.787
	c-5.109-0.58-10.226-0.393-15.331-0.655c-10.102-0.521-20.204-0.362-30.308-0.437c-4.511-0.033-9.026-0.072-13.53-0.283
	c-3.767-0.177-7.52,0.159-11.282,0.048c-1.891-0.057-2.019,0.107-2.687,1.912c-0.753,2.034-1.502,4.07-2.221,6.117
	c-0.462,1.316-1.312,1.928-2.741,2.074c-4.093,0.421-8.174,0.96-12.257,1.479c-8.125,1.035-16.01,3.068-23.843,5.431
	c-2.933,0.885-6.091,1.089-9.166,1.399c-1.019,0.104-2.117-0.38-3.153-0.682c-2.757-0.801-5.483-1.711-8.255-2.454
	c-1.477-0.396-2.156-1.345-2.568-2.692c-0.92-3.008-1.144-6.101-1.135-9.213c0.009-3.58-0.034-7.151-0.889-10.651
	c-0.276-1.13-0.572-2.289-1.092-3.318c-2.241-4.435-3.31-9.19-4.046-14.051c-0.705-4.652-2.21-9.001-4.467-13.161
	c-3.083-5.684-5.641-11.634-6.897-18.01c-0.581-2.948-0.677-6.006-0.826-9.021c-0.199-4.034-0.213-8.077-0.359-12.114
	C213.874,694.558,213.637,693.497,213.462,692.209z"/>
<path d="M394.243,190.903c3.632,0,7.265-0.02,10.896,0.008c1.998,0.015,3.995,0.146,5.992,0.157c2.31,0.012,4.619-0.064,6.93-0.078
	c1.919-0.011,3.837,0.024,5.756,0.018c1.623-0.005,3.244-0.042,4.866-0.061c6.286-0.073,12.572-0.23,18.854-0.177
	c2.781,0.023,5.565,0.417,8.335,0.746c5.404,0.641,10.801,1.357,16.197,2.038c3.474,0.438,6.949,0.849,10.418,1.319
	c0.683,0.092,1.363,0.332,1.992,0.62c6.803,3.118,13.425,6.555,19.477,11.011c0.973,0.716,1.725,1.488,2.107,2.673
	c1.126,3.461,2.613,6.773,2.413,10.604c-0.204,3.906-1.939,6.868-4.815,9.193c-2.352,1.901-4.969,3.473-7.433,5.24
	c-0.74,0.531-1.504,1.129-2.016,1.864c-8.564,12.29-18.159,23.742-28.394,34.653c-5.021,5.356-10.637,10.028-17.405,13.152
	c-1.434,0.661-2.586,1.908-3.991,2.645c-1.202,0.629-2.562,1.023-3.896,1.319c-1.089,0.241-2.356-0.287-3.217,0.875
	c-0.097,0.131-0.42,0.132-0.638,0.129c-5.597-0.082-11.191-0.15-16.786-0.271c-2.716-0.059-5.463,0.013-8.141-0.375
	c-8.458-1.225-16.969-2.328-24.378-7.197c-4.789-3.146-9.033-6.923-12.771-11.209c-9.161-10.501-18.137-21.161-26.118-32.609
	c-0.781-1.12-1.752-1.899-2.907-2.605c-3.379-2.068-6.688-4.221-9.561-7.02c-3.744-3.647-4.078-7.984-3.022-12.71
	c0.034-0.151,0.103-0.294,0.151-0.442c2.242-6.596,2.197-6.675,8.317-10.067c5.173-2.866,10.473-5.501,15.694-8.276
	c2.435-1.293,5.13-1.168,7.73-1.531c5.311-0.743,10.625-1.483,15.954-2.055C385.302,192.003,389.683,190.634,394.243,190.903z"/>
</svg>
