<?xml version="1.0" encoding="utf-8"?>
<!-- Generator: Adobe Illustrator 16.0.0, SVG Export Plug-In . SVG Version: 6.00 Build 0)  -->
<!DOCTYPE svg PUBLIC "-//W3C//DTD SVG 1.1//EN" "http://www.w3.org/Graphics/SVG/1.1/DTD/svg11.dtd">
<svg version="1.1" id="Layer_1" xmlns="http://www.w3.org/2000/svg" xmlns:xlink="http://www.w3.org/1999/xlink" x="0px" y="0px"
	 width="850.39px" height="850.39px" viewBox="0 0 850.39 850.39" enable-background="new 0 0 850.39 850.39" xml:space="preserve">
<path fill="#2F4CA3" d="M232.999,630.625c1.788,0.09,3.023,0.777,4.275,1.312c13.686,5.873,27.722,10.711,41.999,14.957
	c13.185,3.922,26.472,7.359,39.956,10.02c8.802,1.734,17.651,3.207,26.549,4.404c10.185,1.371,20.383,2.559,30.636,3.297
	c7.768,0.559,15.538,0.863,23.322,1.094c5.54,0.164,11.073,0.23,16.611,0.248c4.383,0.014,4.383-0.033,4.383-4.271
	c0-7.539,0.001-15.074,0-22.615c0-2.418,0.156-2.199-2.275-2.201c-5.546-0.008-11.092-0.072-16.636,0.008
	c-8.143,0.119-16.238-0.68-24.356-1.025c-9.665-0.41-19.228-1.936-28.844-2.855c-10.433-0.996-20.632-3.264-30.95-4.867
	c-8.466-1.316-16.693-3.684-24.991-5.742c-12.761-3.166-25.283-7.131-37.698-11.416c-6.529-2.252-12.894-4.984-19.321-7.531
	c-0.84-0.33-1.863-0.537-1.773-1.871c0.367-5.42,0.083-10.854,0.219-16.432c4.587,1.783,9.052,3.375,13.4,5.24
	c7.076,3.033,14.318,5.564,21.677,7.801c5.201,1.58,10.338,3.375,15.562,4.869c4.565,1.307,9.215,2.312,13.819,3.48
	c5.609,1.42,11.194,2.967,16.897,3.945c11.137,1.918,22.239,4.107,33.474,5.355c8.825,0.98,17.618,2.232,26.525,2.592
	c5.853,0.236,11.731,0.48,17.58,1.102c2.729,0.291,5.521-0.162,8.298-0.113c5.802,0.1,11.608,0.027,17.412-0.025
	c1.916-0.02,1.993,0.277,1.986-2c-0.015-4.506-0.04-9.014,0.019-13.52c0.017-1.291-0.254-1.734-1.708-1.711
	c-5.542,0.086-11.097-0.227-16.63,0.002c-5.964,0.242-11.877-0.068-17.812-0.516c-4.391-0.328-8.808-0.289-13.202-0.561
	c-6.032-0.373-12.013-1.271-18.007-2.02c-6.249-0.783-12.515-1.438-18.711-2.594c-7.719-1.443-15.458-2.781-23.15-4.344
	c-4.056-0.822-8.033-2.018-12.041-3.062c-4.092-1.064-8.222-2.016-12.257-3.27c-7.336-2.283-14.596-4.812-21.922-7.129
	c-9.409-2.977-18.201-7.432-27.31-11.117c-2.859-1.158-4.235-2.508-3.597-5.582c0.254-1.223-0.353-2.096-1.219-2.938
	c-3.043-2.961-6.082-5.932-8.997-9.016c-1.095-1.158-2.338-1.693-3.813-1.869c-7.875-0.938-15.755-1.83-23.628-2.789
	c-10.606-1.295-21.205-2.656-31.811-3.953c-7.871-0.963-15.751-1.855-23.625-2.799c-6.836-0.818-13.669-1.666-20.905-2.551
	c2.876-5.469,1.66-11.137,1.336-16.965c21.91,2.656,43.567,5.281,65.327,7.918c0.766-3.711,0.819-7.422,1.231-11.09
	c0.202-1.799,0.35-3.605,0.525-5.402c0.102-1.041-0.217-1.445-1.407-1.574c-7.245-0.773-14.479-1.658-21.711-2.549
	c-10.881-1.338-21.757-2.717-32.637-4.061c-3.315-0.41-6.638-0.766-9.957-1.146c-1.291-0.148-2.07-0.723-2.647-2.041
	c-1.83-4.184-2.654-8.535-2.729-13.061c-0.01-0.588,0.177-1.18,0.209-1.771c0.037-0.691,0.444-0.891,1.026-0.82
	c1.199,0.137,2.392,0.33,3.59,0.477c7.789,0.932,15.58,1.84,23.367,2.787c10.692,1.301,21.38,2.637,32.071,3.941
	c3.595,0.439,7.191,0.873,10.795,1.232c1.613,0.162,1.8-0.074,1.941-1.637c0.887-9.785,1.763-19.572,2.664-29.355
	c0.284-3.086,0.649-6.164,0.938-9.25c0.15-1.6-0.08-1.748-1.607-1.922c-8.906-1.012-17.8-2.119-26.698-3.199
	c-14.288-1.729-28.576-3.465-42.863-5.205c-1.32-0.158-2.07-1.152-1.247-2.068c1.826-2.033,0.707-4.383,1.159-6.531
	c0.457-2.176,0.404-4.457,0.585-6.691c0.127-1.574,0.447-1.875,1.867-1.689c14.191,1.869,28.404,3.556,42.625,5.195
	c8.846,1.018,17.668,2.236,26.499,3.385c0.819,0.105,1.358-0.025,1.443-0.963c0.462-5.061,0.876-10.125,1.434-15.177
	c0.158-1.427-0.399-1.81-1.627-1.955c-8.68-1.025-17.358-2.063-26.032-3.131c-10.544-1.297-21.083-2.637-31.626-3.938
	c-3.658-0.451-7.318-0.898-10.989-1.219c-1.273-0.111-1.757-0.264-1.59-1.791c0.507-4.623,0.815-9.271,1.089-13.916
	c0.084-1.431,0.815-1.469,1.873-1.34c4.534,0.552,9.071,1.072,13.603,1.63c6.328,0.779,12.653,1.587,18.98,2.372
	c11.119,1.378,22.236,2.764,33.357,4.117c7.873,0.958,15.753,1.854,23.627,2.803c8.042,0.969,16.076,2.008,24.125,2.917
	c1.454,0.165,1.651,0.723,1.482,1.994c-0.586,4.441-1.063,8.896-1.62,13.342c-0.143,1.142-0.646,1.78-2.043,1.587
	c-3.741-0.519-7.507-0.857-11.257-1.317c-5.269-0.647-10.531-1.35-15.799-2.006c-2.545-0.317-5.127-0.432-7.635-0.931
	c-1.534-0.305-1.821,0.409-1.929,1.519c-0.267,2.746-0.463,5.499-0.711,8.247c-0.186,2.062-0.394,4.119-0.621,6.176
	c-0.136,1.234,0.231,1.938,1.604,2.094c7.743,0.893,15.48,1.84,23.219,2.766c3.998,0.479,7.998,0.949,12.2,1.449
	c-0.348,2.869-0.526,5.703-1.078,8.461c-0.44,2.203-0.737,4.414-0.973,6.631c-0.139,1.301-0.503,1.789-1.915,1.598
	c-4.953-0.672-9.923-1.215-14.885-1.82c-6.072-0.742-12.141-1.521-18.216-2.24c-1.643-0.193-1.726-0.064-1.873,1.594
	c-0.753,8.502-1.48,17.004-2.267,25.502c-0.397,4.287-0.903,8.562-1.359,12.844c-0.182,1.703-0.051,1.939,1.838,2.189
	c5.209,0.697,10.425,1.344,15.64,1.994c5.3,0.664,10.6,1.334,15.906,1.938c1.029,0.117,1.322,0.516,1.218,1.49
	c-0.538,5.051-1.04,10.105-1.566,15.268c-2.877,0.436-5.647-0.365-8.417-0.645c-6.909-0.693-13.789-1.686-20.681-2.553
	c-1.445-0.182-2.889-0.373-4.339-0.504c-0.715-0.064-1.28,0.018-1.367,1.043c-0.466,5.48-1.018,10.957-1.546,16.508
	c2.416,0.736,4.824,0.773,7.18,1.072c8.589,1.088,17.186,2.117,25.787,3.104c1.262,0.146,1.595,0.689,1.521,1.844
	c-0.203,3.189-0.35,6.375-0.514,9.564c-0.035,0.674-0.18,1.32,0.436,1.916c2.163,2.092,4.269,4.242,6.488,6.463
	c0.66-1.143,0.084-2.238,0.53-3.174c0.569-0.303,0.967,0.139,1.408,0.348c7.96,3.771,15.776,7.861,23.911,11.246
	c4.94,2.055,10.05,3.701,15.085,5.529c7.793,2.83,15.68,5.361,23.64,7.693c11.864,3.477,23.879,6.197,36.067,8.271
	c6.636,1.129,13.26,2.307,19.938,3.133c4.706,0.582,9.403,1.223,14.148,1.547c5.167,0.355,10.322,0.832,15.504,1.043
	c9.342,0.381,18.685,0.502,28.03,0.467c6.057-0.02,12.08-0.58,18.118-0.953c4.482-0.275,8.934-0.807,13.4-1.203
	c7.398-0.66,14.771-1.578,22.104-2.752c12.705-2.037,25.324-4.516,37.807-7.674c23.699-5.994,46.646-14.123,68.939-24.145
	c6.697-3.012,13.279-6.264,20.275-9.6c0,3.803,0,7.359,0,11.02c1.852,0.215,3.07-0.748,3.916-1.578c1.912-1.875,4-3.812,3.592-6.986
	c-0.318-2.479-0.035-4.994-0.492-7.482c-0.346-1.875,0.01-2.191,1.961-2.422c11.66-1.393,23.32-2.771,34.982-4.16
	c7.229-0.859,14.453-1.719,21.682-2.588c2.195-0.266,2.26-0.314,1.994-2.549c-0.609-5.121-1.264-10.238-1.914-15.488
	c-2.539-0.232-4.896,0.371-7.229,0.652c-7.141,0.854-14.283,1.688-21.42,2.566c-10.125,1.246-20.248,2.518-30.381,3.707
	c-1.434,0.168-1.686-0.307-1.777-1.334c-0.221-2.492-0.391-4.986-0.555-7.48c-0.17-2.57-0.918-5.088-0.693-7.891
	c2.756-0.359,5.559-0.756,8.363-1.1c14.201-1.738,28.4-3.471,42.604-5.188c2.312-0.279,4.639-0.453,6.951-0.725
	c1.852-0.217,2.098-0.484,1.881-2.211c-0.934-7.439-1.92-14.865-2.848-22.303c-0.639-5.133-1.229-10.271-1.809-15.406
	c-0.254-2.242-0.285-2.369-2.496-2.123c-6.426,0.719-12.85,1.477-19.27,2.262c-6.24,0.764-12.475,1.602-18.717,2.363
	c-5.986,0.73-11.979,1.436-17.979,2.104c-2.461,0.275-2.482,0.227-2.848-2.057c-0.664-4.166-1.115-8.361-1.938-12.506
	c-0.367-1.857-0.246-1.887,1.779-2.131c12.93-1.562,25.857-3.121,38.787-4.695c6.467-0.787,12.93-1.604,19.391-2.416
	c0.24-0.029,0.469-0.148,0.85-0.277c-0.455-3.854-0.908-7.687-1.363-11.521c-0.162-1.369-0.285-2.746-0.514-4.104
	c-0.33-1.969-0.365-1.974-2.49-1.764c-1.795,0.177-3.586,0.366-5.377,0.579c-7.32,0.868-14.643,1.733-21.963,2.625
	c-9.439,1.151-18.879,2.329-28.318,3.486c-1.176,0.144-2.615,0.689-3.473,0.217c-1.004-0.557-0.541-2.202-0.678-3.373
	c-0.51-4.353-1.518-8.653-1.521-13.278c40.32-4.88,80.588-9.753,120.891-14.631c0.766,2.436,0.375,4.886,0.703,7.272
	c0.354,2.551,0.445,5.133,1.049,7.666c0.375,1.58-0.053,2.083-1.594,2.268c-7.229,0.867-14.463,1.698-21.693,2.566
	c-9.434,1.132-18.863,2.301-28.299,3.409c-0.943,0.111-1.418,0.258-1.27,1.37c0.693,5.122,1.387,10.245,1.924,15.385
	c0.133,1.262,0.812,1.148,1.535,1.07c3.24-0.348,6.475-0.754,9.709-1.143c12.84-1.547,25.68-3.084,38.516-4.662
	c0.916-0.111,1.85,0.119,2.686-0.41c0.604,1.33,0.158,2.57,0.475,3.758c0.762,2.887,1.658,5.76,1.578,8.803
	c-0.006,0.254,0.117,0.506,0.146,0.762c0.34,3.367,0.26,3.566-3.113,4.021c-4.869,0.66-9.756,1.186-14.633,1.766
	c-10.699,1.273-21.396,2.551-32.096,3.832c-0.254,0.029-0.492,0.174-0.746,0.223c-1.826,0.361-1.912,0.5-1.691,2.264
	c1.029,8.205,2.057,16.412,3.064,24.621c0.545,4.447,1.047,8.9,1.596,13.348c0.072,0.586,0.318,1.15,0.533,1.904
	c16.896-2.041,33.771-4.076,50.721-6.123c0.617,3.402-0.367,6.375-1.252,9.322c-0.789,2.625-2.678,4.836-2.965,7.682
	c-0.072,0.729-0.783,0.785-1.396,0.857c-4.342,0.506-8.682,1.016-13.021,1.535c-9.525,1.143-19.051,2.301-28.58,3.42
	c-1.182,0.141-1.658,0.582-1.49,1.832c0.715,5.371,1.365,10.748,2.059,16.256c14.172-1.709,28.188-3.398,42.432-5.115
	c0.236,2.938-0.512,5.76,0.068,8.561c0.561,2.729,2.111,5.1,2.752,7.986c-2.535,0.855-5.189,0.84-7.771,1.166
	c-11.029,1.4-22.064,2.754-33.1,4.096c-6.162,0.75-12.332,1.42-18.492,2.172c-11.035,1.346-22.064,2.734-33.098,4.088
	c-4.533,0.557-9.07,1.094-13.611,1.574c-0.859,0.09-1.533,0.314-1.904,1.084c-1.986,4.088-5.963,5.533-9.689,7.287
	c-0.631,0.299-1.291,0.348-1.414,1.248c-0.111,0.82-0.951,0.945-1.559,1.211c-14.582,6.393-29.336,12.334-44.438,17.41
	c-9.352,3.143-18.785,6.016-28.318,8.5c-8.268,2.154-16.594,4.133-25.004,5.732c-6.354,1.207-12.709,2.387-19.09,3.434
	c-9.113,1.494-18.264,2.695-27.445,3.654c-5.928,0.619-11.861,1.182-17.822,1.424c-0.604,0.025-1.207,0.15-1.811,0.146
	c-0.812-0.006-1.035,0.426-1.033,1.143c0.006,5.361,0.002,10.727,0.002,16.225c4.713-0.287,9.23-0.656,13.752-0.818
	c7.076-0.254,14.053-1.424,21.076-2.152c11.852-1.229,23.562-3.381,35.227-5.754c14.557-2.959,29.012-6.303,43.27-10.582
	c11.357-3.408,22.496-7.377,33.67-11.295c5.891-2.062,11.561-4.625,17.332-6.947c0.553-0.223,1.117-0.402,2.057-0.738
	c0,0.816,0,1.459,0,2.098c0,4.768,0.006,9.533-0.002,14.299c-0.006,2.215-0.02,2.205-2.189,3.092
	c-18.35,7.49-37.123,13.721-56.209,19.057c-12.574,3.516-25.26,6.562-38.088,8.934c-9.748,1.803-19.479,3.781-29.379,4.711
	c-6.436,0.605-12.824,1.66-19.256,2.318c-4.207,0.432-8.451,0.502-12.678,0.754c-2.068,0.125-4.137,0.281-6.205,0.443
	c-2.365,0.186-2.379,0.195-2.381,2.467c-0.008,5.719-0.002,11.439-0.002,17.158c0,2.426,0.008,4.854-0.004,7.279
	c-0.012,2.582,0.143,2.201,2.057,2.111c3.799-0.176,7.617-0.178,11.387-0.615c3.094-0.357,6.197-0.42,9.291-0.723
	c9.449-0.922,18.877-2.014,28.268-3.381c9.396-1.367,18.729-3.135,28.021-5.064c17.701-3.674,35.09-8.57,52.262-14.152
	c11.174-3.635,22.303-7.475,33.137-12.08c0.561-0.236,1.096-0.52,1.867-0.424c0.088,2.461,0.111,4.939,0.287,7.408
	c0.178,2.484,0.469,4.963,0.785,7.434c0.307,2.4,0.254,2.615-1.941,3.5c-12.672,5.115-25.482,9.834-38.498,14.023
	c-7.811,2.518-15.666,4.928-23.598,7.004c-6.096,1.596-12.232,3.07-18.385,4.469c-12.559,2.854-25.227,5.107-37.953,6.965
	c-5.707,0.832-11.461,1.508-17.227,2.029c-4.725,0.428-9.457,0.854-14.186,1.242c-4.561,0.375-9.129,0.768-13.717,0.719
	c-1.807-0.02-1.84,0.025-1.85,1.873c-0.02,5.199-0.02,10.398,0,15.6c0.01,1.695,0.072,1.875,1.699,1.627
	c4.287-0.652,8.652,0.047,12.914-0.875c1.781-0.385,3.609-0.168,5.416-0.312c5.918-0.473,11.814-1.094,17.713-1.75
	c5.49-0.607,10.963-1.35,16.41-2.188c8.354-1.285,16.678-2.76,24.939-4.564c7.418-1.617,14.814-3.332,22.17-5.229
	c9.449-2.438,18.787-5.254,28.098-8.145c5.693-1.768,11.275-3.898,16.891-5.912c4.879-1.75,9.75-3.518,14.592-5.367
	c2.811-1.072,5.551-2.322,8.502-3.568c0.412,2.914,0.846,5.678,1.182,8.453c0.268,2.225,0.43,4.463,0.609,6.695
	c0.168,2.062,0.182,2.143-1.705,2.881c-5.795,2.27-11.6,4.52-17.432,6.691c-17.02,6.34-34.361,11.652-51.967,16.133
	c-13.305,3.387-26.732,6.207-40.273,8.42c-9.779,1.6-19.609,2.912-29.494,3.812c-7.312,0.666-14.619,1.217-21.943,1.666
	c-6.92,0.424-13.845,0.275-20.759,0.533c-7.006,0.258-13.994-0.041-20.979-0.281c-8.192-0.281-16.379-0.865-24.548-1.66
	c-8.932-0.869-17.834-1.961-26.696-3.342c-8.867-1.383-17.687-3.033-26.465-4.912c-19.717-4.223-39.049-9.781-58.02-16.594
	c-9.357-3.359-18.609-7.004-27.789-10.828c-1.123-0.469-1.825-0.965-1.574-2.461c0.737-4.406,1.655-8.793,1.727-13.289
	c0.006-0.406,0.258-0.807,0.476-1.445c2.012,0.771,4.035,1.426,5.955,2.303c9.923,4.535,20.196,8.154,30.504,11.676
	c10.062,3.438,20.257,6.449,30.55,9.111c7.521,1.943,15.08,3.736,22.695,5.305c6.169,1.27,12.354,2.463,18.572,3.414
	c5.282,0.807,10.545,1.746,15.879,2.299c4.621,0.48,9.248,1.047,13.868,1.605c2.393,0.291,4.799,0.48,7.205,0.646
	c6.097,0.42,12.196,1.127,18.293,1.094c4.917-0.027,9.812,0.627,14.739,0.184c3.355-0.303,6.73,0.545,10.116,0.033
	c1.792-0.271,1.839-0.18,1.846-1.936c0.019-5.113-0.045-10.227,0.038-15.338c0.023-1.422-0.496-1.754-1.788-1.717
	c-3.29,0.094-6.591,0.17-9.87,0.111c-5.183-0.094-10.365,0.064-15.554-0.361c-4.559-0.377-9.149-0.395-13.723-0.732
	c-10.848-0.812-21.659-1.922-32.433-3.451c-8.554-1.211-17.068-2.623-25.537-4.293c-14.339-2.828-28.494-6.424-42.462-10.717
	c-9.749-2.998-19.403-6.279-28.981-9.805c-5.925-2.186-11.723-4.65-17.599-6.939c-1.141-0.441-1.372-0.99-1.373-2.08
	c-0.004-3.201,0.774-6.316,0.979-9.494C232.541,634.505,232.792,632.632,232.999,630.625z"/>
<path fill="#F2AF32" d="M596.148,526.537c-2.926-1.137-5.619-5.168-5.965-8.051c-0.615-5.141-1.361-10.264-2.057-15.393
	c-0.996-7.35-2.008-14.697-2.99-22.049c-0.791-5.9-1.539-11.807-2.328-17.707c-0.938-7.01-1.904-14.016-2.852-21.021
	c-0.254-1.883-0.529-3.764-0.699-5.652c-0.326-3.648,1.381-5.697,5.025-6.133c2.576-0.309,2.561-0.307,2.289-2.859
	c-0.119-1.117-0.291-2.215-0.574-3.308c-0.23-0.885,0.082-1.447,1.15-1.563c4.709-0.514,9.41-1.077,14.113-1.648
	c9.4-1.147,18.795-2.33,28.195-3.467c6.24-0.755,12.49-1.436,18.73-2.195c9.484-1.153,18.967-2.359,28.449-3.513
	c6.24-0.759,12.486-1.463,18.73-2.198c2.82-0.332,5.637-0.717,8.461-1.006c2.812-0.288,2.693-0.239,2.895,2.434
	c0.287,3.865,0.371,7.753,1.145,11.576c0.496,2.463,0.367,2.65-2.127,2.958c-4.615,0.562-9.24,1.039-13.855,1.604
	c-8.205,1.006-16.398,2.072-24.604,3.07c-6.242,0.758-12.494,1.42-18.736,2.176c-9.486,1.15-18.967,2.361-28.453,3.516
	c-6.068,0.738-12.146,1.412-18.217,2.137c-3.848,0.457-7.693,0.938-11.537,1.432c-1.609,0.205-1.758,0.139-2.186-1.65
	c-0.121-0.51-0.117-1.051-0.68-1.289c-0.494-0.213-1.045-0.217-1.52,0.008c-0.594,0.283-0.438,0.902-0.373,1.385
	c0.523,4.02,1.078,8.033,1.623,12.049c0.803,5.896,1.6,11.793,2.408,17.689c0.994,7.262,2.018,14.521,2.988,21.785
	c0.963,7.184,1.883,14.373,2.811,21.561c0.332,2.564,0.639,5.133,0.953,7.701c0.102,0.836,0.35,1.551,1.377,1.543
	c0.506-0.004,1.117,0.041,0.846-0.809c-0.023-0.082-0.031-0.172-0.039-0.258c-0.227-2.828-0.223-2.793,2.686-3.15
	c10.68-1.312,21.354-2.674,32.033-3.975c7.867-0.959,15.744-1.828,23.613-2.779c9.23-1.113,18.451-2.291,27.68-3.408
	c6.242-0.756,12.49-1.455,18.734-2.184c1.539-0.182,3.08-0.354,4.613-0.578c1.174-0.172,1.734,0.146,1.783,1.469
	c0.168,4.736,0.68,9.465,0.146,14.213c-0.107,0.947-0.359,1.309-1.359,1.42c-5.816,0.646-11.627,1.373-17.438,2.09
	c-9.57,1.178-19.139,2.385-28.713,3.549c-6.066,0.74-12.146,1.4-18.211,2.141c-9.744,1.188-19.484,2.406-29.23,3.609
	c-4.354,0.537-8.713,1.098-13.078,1.566c-0.816,0.09-2.023,0.508-1.982-1.635c-1.205,4.861-0.697,9.213-0.855,13.52
	c-0.164,4.584-0.871,9.105-1.215,13.664c-0.326,4.297-0.971,8.568-1.402,12.857c-0.225,2.23-0.002,4.604-2.68,5.666
	c-0.311,0.123-0.506,0.525-0.439,0.881c0.314,1.787-1.018,2.119-2.223,2.648c-12.297,5.387-24.932,9.914-37.678,14.043
	c-12.826,4.156-25.781,7.908-38.967,10.904c-13.338,3.029-26.77,5.51-40.227,7.869c-5.699,1-11.498,1.432-17.24,2.201
	c-7.895,1.059-15.842,1.439-23.771,2.082c-10.723,0.863-21.466,0.436-32.195,0.746c-8.151,0.234-16.247-0.531-24.356-0.881
	c-10.271-0.438-20.477-1.84-30.676-3.203c-11.836-1.584-23.603-3.57-35.301-5.92c-5.93-1.188-11.732-2.988-17.638-4.318
	c-5.496-1.238-10.866-2.896-16.251-4.506c-13.932-4.17-27.543-9.223-40.923-14.916c-1.368-0.582-1.934-1.283-1.747-2.689
	c0.034-0.256-0.007-0.52,0.011-0.779c0.206-2.959,0.207-2.959-3.122-3.705c0,0.955,0.003,1.861,0,2.77
	c-0.048,10.137,0.192,20.283-0.222,30.402c-0.486,11.861-0.037,23.721-0.425,35.574c-0.032,0.986-0.316,2.074,0.458,2.992
	c0.681-0.055,0.529-0.572,0.56-0.92c0.063-0.693,0.395-0.922,1.026-0.662c1.12,0.459,2.226,0.951,3.343,1.418
	c15.742,6.584,31.852,12.15,48.209,16.955c15.19,4.461,30.575,8.207,46.175,10.982c10.901,1.939,21.864,3.518,32.873,4.658
	c8.337,0.861,16.701,1.508,25.086,1.895c8.737,0.4,17.477,0.562,26.214,0.545c6.575-0.014,13.151-0.34,19.725-0.592
	c8.289-0.318,16.564-0.99,24.795-1.928c9.098-1.035,18.178-2.283,27.219-3.826c9.812-1.674,19.566-3.59,29.26-5.82
	c8.764-2.018,17.455-4.314,26.092-6.859c8.963-2.641,17.873-5.436,26.684-8.533c8.16-2.865,16.271-5.885,24.244-9.25
	c0.615-0.26,1.25-0.467,2.064-0.77c0.197,5.363,1.326,10.432,1.645,15.596c0.082,1.34-0.16,2.146-1.621,2.742
	c-10.729,4.379-21.574,8.457-32.555,12.129c-13.035,4.359-26.232,8.211-39.598,11.486c-14.625,3.584-29.361,6.543-44.252,8.758
	c-6.668,0.992-13.355,1.826-20.059,2.562c-8.686,0.953-17.4,1.473-26.113,2.02c-4.748,0.301-9.525,0.115-14.289,0.248
	c-8.727,0.244-17.454,0.146-26.167-0.266c-10.624-0.5-21.228-1.334-31.8-2.574c-8.678-1.02-17.316-2.271-25.921-3.777
	c-14.324-2.512-28.47-5.807-42.488-9.668c-19.791-5.453-39.119-12.223-58.004-20.264c-0.319-0.137-0.639-0.27-0.955-0.412
	c-1.936-0.883-2.041-1.041-1.818-3.129c0.064-0.598,0.272-1.178,0.354-1.773c0.251-1.832,0.321-3.332-1.847-4.467
	c-3.294-1.719-4.778-4.691-4.689-8.561c0.455-19.912,0.488-39.828,0.634-59.744c0.03-4.047,0.205-8.115,0.304-12.174
	c0.028-1.172-0.112-2.186-1.035-3.053c-0.708-0.668-0.891-1.631-0.976-2.611c-0.335-3.865-0.718-7.73-1.083-11.592
	c-0.165-1.75,0.098-3.418,0.654-5.105c2.682-8.125,5.282-16.277,7.926-24.42c0.729-2.244,0.515-2.48-2.022-2.504
	c-0.329,1.127-0.386,2.314-0.347,3.504c0.039,1.189-0.603,1.543-1.63,1.412c-7.427-0.949-14.85-1.936-22.279-2.865
	c-4.7-0.59-9.411-1.08-14.113-1.658c-8.202-1.008-16.398-2.062-24.601-3.064c-6.412-0.783-12.83-1.52-19.246-2.271
	c-7.439-0.873-14.881-1.729-22.317-2.629c-2.198-0.268-2.168-0.389-2.287-2.562c-0.218-3.986,0.426-7.936,0.421-11.914
	c-0.001-0.92-0.619-2.006-0.025-2.705c0.721-0.854,1.796,0.023,2.686,0.125c12.152,1.371,24.297,2.812,36.44,4.273
	c8.376,1.008,16.746,2.074,25.119,3.117c12.044,1.5,24.084,3.035,36.136,4.473c2.305,0.277,4.609,0.516,7.005,0.867
	c-0.094,1.367-0.208,2.637-0.256,3.906c-0.022,0.572-0.22,1.322,0.476,1.598c0.875,0.35,1.813,0.662,2.781,0.408
	c0.516-0.137,0.409-0.67,0.527-1.07c0.667-2.266,0.522-4.627,0.789-6.936c0.751-6.512,1.198-13.061,1.785-19.594
	c0.625-6.951,1.458-13.891,1.858-20.854c0.44-7.672,1.816-15.314,1.068-23.021c-0.319-3.283-0.21-6.561-0.444-9.838
	c-0.082-1.141-0.348-1.635-1.606-1.775c-7.533-0.842-15.055-1.777-22.578-2.707c-10.592-1.309-21.179-2.648-31.771-3.947
	c-6.412-0.785-12.833-1.498-19.247-2.275c-7.863-0.955-15.721-1.953-23.583-2.916c-4.527-0.555-9.061-1.064-13.589-1.611
	c-1.64-0.197-1.662-0.219-1.528-2.04c0.336-4.557,0.718-9.109,1.032-13.667c0.076-1.102,0.433-1.499,1.609-1.354
	c12.648,1.558,25.302,3.062,37.953,4.595c9.916,1.202,19.828,2.426,29.742,3.634c10,1.219,20.002,2.426,30.001,3.651
	c5.126,0.627,10.249,1.279,15.373,1.924c1.871,0.235,1.997,0.384,1.791,2.282c-0.064,0.596-0.304,1.177-0.328,1.771
	c-0.043,1.066-0.73,2.289,1.074,2.847c0.994,0.309,1.311,1.516,1.352,2.615c0.218,5.871,0.535,11.742,0.622,17.617
	c0.033,2.258,0.435,4.469,0.425,6.715c-0.019,4.238-0.614,8.436-0.931,12.648c-0.687,9.115-1.382,18.23-2.236,27.332
	c-0.693,7.387-1.457,14.766-2.077,22.158c-0.159,1.891-0.388,3.775-0.518,5.674c-0.156,2.262-1.272,4.271-1.94,6.396
	c-2.615,8.332-5.221,16.668-8.076,24.918c-0.981,2.838-0.954,5.607-0.627,8.422c0.148,1.283,0.43,2.598,0.346,3.854
	c-0.146,2.182,0.682,3.666,2.5,4.693c0.872,0.494,1.607,1.799,2.649,1.275c1.022-0.514,0.446-1.859,0.48-2.832
	c0.09-2.619,0.082-2.648,2.374-1.662c1.748,0.752,3.476,1.551,5.225,2.305c6.106,2.629,12.051,5.67,18.388,7.715
	c9.708,3.135,19.27,6.711,29.128,9.396c7.593,2.068,15.178,4.189,22.853,5.896c7.674,1.703,15.461,2.895,23.197,4.318
	c10.126,1.861,20.381,2.77,30.584,4.043c4.706,0.586,9.491,0.514,14.238,0.795c4.146,0.246,8.281,0.615,12.428,0.836
	c1.722,0.092,3.461,0.145,5.181-0.211c1.732-0.357,3.447,0.188,5.169,0.199c6.839,0.047,13.674,0.027,20.512-0.346
	c7.684-0.42,15.354-0.982,23.008-1.709c5.678-0.535,11.33-1.334,16.982-2.102c12.771-1.734,25.477-3.906,38.062-6.688
	c20.211-4.465,40.023-10.248,59.408-17.551c9.48-3.57,18.789-7.51,28.143-11.373c1.572-0.65,2.158-1.615,2.244-3.023
	c0.311-5.086,1.084-10.123,1.371-15.217c0.268-4.752,0.176-9.504,0.416-14.25C593.412,528.48,594.439,527.369,596.148,526.537z"/>
<path fill="#EFEFEF" d="M597.896,682.048c0.871,2.92,0.795,5.719,1.191,8.447c0.457,3.146,0.418,6.346,1.225,9.486
	c0.324,1.27-0.092,2.848-0.025,4.297c0.125,2.789,0.443,5.553,1.621,8.098c2.482,5.363,0.928,10.275-1.486,15.125
	c-0.346,0.697-0.84,1.342-1.066,2.072c-0.873,2.811-2.799,4.752-5.15,6.305c-3.902,2.572-7.85,5.078-11.783,7.596
	c-0.654,0.418-1.324,0.861-2.047,1.119c-7.355,2.617-13.924,6.863-21.029,10.018c-10.295,4.568-21.02,7.408-32.086,9.184
	c-4.354,0.699-8.689,1.508-13.029,2.285c-4.729,0.85-9.105,2.771-13.428,4.73c-5.287,2.396-10.652,4.557-16.156,6.373
	c-2.053,0.678-4.172,1.025-6.355,1.176c-3.793,0.26-7.574,0.736-11.352,1.195c-4.387,0.531-8.771,0.805-13.201,0.674
	c-7.703-0.227-15.365,0.043-23.004,1.434c-4.062,0.74-8.297,0.555-12.417,0.012c-2.398-0.312-4.785-0.754-7.206-0.807
	c-4.076-0.086-8.106-0.576-12.127-1.207c-2.151-0.338-4.293-0.293-6.461-0.043c-4.22,0.484-8.491,0.77-12.688,0.154
	c-6.546-0.961-13.091-1.205-19.673-0.848c-3.825,0.209-7.609-0.061-11.377-0.684c-2.988-0.492-5.991-0.803-9.018-0.969
	c-4.509-0.246-8.581-2.021-12.497-4.047c-5.314-2.746-10.75-5.215-16.439-7.014c-4.533-1.434-9.281-2.057-13.973-2.836
	c-10.197-1.689-20.159-4.104-29.409-8.939c-2.986-1.562-6.117-2.848-9.187-4.244c-1.734-0.791-3.454-1.586-4.907-2.875
	c-0.502-0.445-1.163-0.807-1.812-0.98c-4.951-1.338-8.984-4.406-13.268-6.996c-1.479-0.895-2.857-1.953-4.279-2.939
	c-2.526-1.756-4.494-3.855-5.769-6.805c-1.236-2.857-2.56-5.645-3.309-8.688c-0.447-1.814-0.658-3.594,0.066-5.35
	c1.833-4.443,2.04-9.244,3.08-13.861c0.423-1.875-0.331-2.771-2.348-3.002c-0.686-0.078-1.381-0.1-2.072-0.1
	c-7.751,0-15.502-0.061-23.254,0.123c-3.485,0.084-6.847,0.951-10.288,1.309c-2.584,0.268-5.15,0.598-7.75,0.521
	c-1.164-0.029-2.258,0.156-3.145,0.963c-2.049,1.863-4.609,2.693-7.145,3.57c-2.208,0.762-4.432,1.479-6.644,2.23
	c-0.652,0.223-1.465,0.326-1.897,0.777c-1.819,1.906-4.244,2.004-6.573,2.605c-5.104,1.312-10.06,3.166-15.185,4.438
	c-6.478,1.607-13.038,2.547-19.706,3.006c-5.811,0.402-11.587,0.062-17.38-0.041c-1.308-0.02-1.75-0.445-2.311-1.729
	c-2.451-5.604-2.042-11.264-1.18-17.078c0.711-4.801,0.66-9.678-0.112-14.486c-0.411-2.559-0.153-5.197-1.01-7.695
	c-0.074-0.215-0.016-0.535,0.1-0.74c1.136-2.021,0.776-4.191,0.723-6.346c-0.123-4.986,1.062-9.791,2.221-14.578
	c1.484-6.135,3.531-12.131,4.67-18.352c1.684-9.188,3.157-18.408,4.159-27.705c0.313-2.896,0.3-5.883,1.456-8.654
	c0.129-0.312,0.185-0.689,0.155-1.021c-0.465-5.334,1.368-10.387,1.938-15.596c0.687-6.27,1.896-12.48,2.943-18.705
	c0.538-3.195,0.1-6.395,0.126-9.584c0.049-5.996,0.667-11.92,1.798-17.793c0.444-2.309,0.656-2.344,2.88-2.066
	c9.089,1.133,18.182,2.238,27.275,3.344c10.812,1.311,21.626,2.604,32.438,3.918c10.552,1.283,21.102,2.586,31.654,3.877
	c3.345,0.408,6.693,0.797,10.037,1.219c2.112,0.264,2.117,0.283,2.198,2.508c0.016,0.443,0.043,0.861,0.397,1.186
	c0.601-0.107,0.5-0.602,0.509-0.996c0.062-2.752-0.286-5.541,0.757-8.203c0.169-0.436-0.03-0.84-0.08-1.266
	c-0.441-3.701,1.522-6.504,5.208-7.023c1.517-0.215,2.033-0.635,2.063-2.195c0.104-5.365,0.467-10.725,0.545-16.088
	c0.072-4.857,0.783-9.652,1.126-14.482c0.319-4.48,0.729-8.959,1.19-13.43c0.127-1.232-0.154-1.75-1.449-1.756
	c-1.403-0.008-2.689-0.541-3.833-1.436c-1.034,0.752-0.833,1.783-0.943,2.656c-0.269,2.146-0.427,4.307-0.669,6.453
	c-0.239,2.119-0.266,2.16-2.295,1.939c-3.437-0.377-6.867-0.812-10.298-1.23c-9.263-1.133-18.526-2.27-27.789-3.406
	c-10.978-1.35-21.953-2.715-32.933-4.045c-10.636-1.289-21.276-2.541-31.913-3.816c-2.399-0.287-4.792-0.619-7.4-0.959
	c0.268-3.963,0.518-7.834,0.794-11.703c0.469-6.562,1.877-13.01,2.247-19.59c0.151-2.688-0.02-5.361,0.163-8.037
	c0.167-2.439,0.184-2.52,2.585-2.234c6.353,0.746,12.698,1.557,19.048,2.328c9.265,1.125,18.532,2.225,27.796,3.357
	c10.811,1.318,21.618,2.68,32.429,4c9.007,1.1,18.018,2.168,27.027,3.252c1.373,0.166,2.744,0.348,4.117,0.51
	c1.729,0.207,1.755,0.207,1.526,1.844c-0.539,3.855-1.111,7.707-1.655,11.562c-0.095,0.676-0.12,1.357-0.203,2.344
	c2.197-0.557,4.268-1.113,6.379,0.055c0.935-4.48,2.01-8.541,2.153-12.826c0.351-10.551,0.906-21.096,1.396-31.643
	c0.406-8.734,1.882-17.351,3.005-26c0.305-2.345-0.623-3.708-2.508-5.309c-0.427,3.003-0.8,5.63-1.185,8.337
	c-38.714-4.706-77.35-9.402-116.138-14.118c0.117-3.294,0.624-6.517,0.958-9.76c0.69-6.711,0.936-13.462,1.933-20.149
	c0.893-5.987,1.596-12.002,2.38-18.005c0.19-1.458,0.533-2.917,0.531-4.375c-0.007-5.43,1.618-10.579,2.599-15.836
	c1.095-5.865,2.124-11.735,2.656-17.683c0.031-0.342,0.01-0.744,0.181-1.01c2.193-3.419,2.909-7.381,3.932-11.187
	c1.211-4.507,2.873-8.868,4.028-13.385c0.449-1.759,0.978-3.494,1.06-5.331c0.076-1.689,1.13-3.061,1.609-4.634
	c2.524-8.286,4.48-16.701,6.02-25.218c0.521-2.882,1.546-5.696,1.207-8.698c-0.01-0.085-0.024-0.183,0.006-0.258
	c2.359-5.781,2.774-12.077,4.876-17.957c2.375-6.643,5.307-13.006,8.897-19.016c9.018-15.094,18.742-29.734,29.672-43.529
	c9.489-11.977,20.07-22.92,31.82-32.711c8.106-6.754,16.995-12.207,26.817-16.11c1.04-0.414,2.076-0.897,3.007-1.511
	c1.547-1.02,3.15-1.554,5.026-1.827c2.183-0.319,4.271-1.318,6.384-2.069c8.494-3.021,16.606-6.919,24.728-10.794
	c1.087-0.519,2.194-1.049,2.924-2.093c0.366-0.523,0.979-0.686,1.499-0.99c0.962-0.566,1.496-0.318,1.96,0.722
	c1.479,3.316,3.054,6.591,4.599,9.879c2.169,4.619,4.15,9.341,6.571,13.825c2.551,4.727,5.917,8.922,9.625,12.832
	c9.342,9.854,20.093,17.99,31.227,25.662c5.772,3.978,11.828,7.52,17.688,11.353c9.262,6.058,18.923,11.427,28.4,17.112
	c3.774,2.266,7.569,4.503,11.312,6.824c1.188,0.735,2.101,0.685,3.313-0.05c8.65-5.23,17.347-10.382,26.041-15.541
	c3.047-1.809,6.189-3.463,9.176-5.366c15.455-9.848,31.125-19.411,44.906-31.625c6.223-5.516,12.209-11.298,16.688-18.403
	c3.006-4.767,5.238-9.941,7.676-15.003c1.941-4.034,3.801-8.108,5.701-12.177c8.807,4.931,17.818,8.89,26.994,12.513
	c2.494,0.985,5.146,1.516,7.553,2.731c0.562,0.283,1.166,0.285,1.775,0.306c1.24,0.043,2.408,0.416,3.414,1.106
	c1.947,1.334,4.094,2.252,6.258,3.126c10.99,4.437,20.469,11.212,29.225,19.043c15.111,13.515,28.354,28.693,39.562,45.587
	c5.455,8.219,11.268,16.203,16.232,24.751c5.863,10.091,10.678,20.576,12.973,32.095c0.406,2.031,0.506,4.134,1.379,6.056
	c0.193,0.425,0.346,0.944-0.064,1.17c-1.434,0.789-0.764,1.817-0.451,2.849c2.998,9.938,5.797,19.943,9.072,29.788
	c1.266,3.794,1.816,7.719,3.051,11.495c2.117,6.483,4.09,13.017,6.148,19.519c0.311,0.973,0.496,2.028,1.336,2.769
	c0.41,0.363,0.49,0.883,0.531,1.417c0.578,7.514,1.979,14.906,3.711,22.212c0.945,3.986,1.328,7.986,1.768,12.023
	c0.619,5.672,1.553,11.311,2.369,16.961c1.105,7.627,1.896,15.283,2.453,22.97c0.301,4.135,0.963,8.244,1.459,12.365
	c0.062,0.515,0.084,1.037,0.172,1.547c0.182,1.066-0.17,1.488-1.324,1.619c-7.041,0.797-14.07,1.691-21.105,2.545
	c-10.895,1.323-21.787,2.647-32.682,3.956c-10.811,1.298-21.623,2.573-32.434,3.867c-10.125,1.211-20.248,2.431-30.369,3.661
	c-0.764,0.093-1.549,0.189-2.412,0.857c-0.979-3.988-0.99-8.034-1.822-11.935c-0.854,0.094-0.707,0.719-0.691,1.188
	c0.277,8.045,0.449,16.097,0.912,24.132c0.293,5.086,1.031,10.147,1.562,15.22c0.619,5.932,1.25,11.859,1.848,17.793
	c0.633,6.279,1.219,12.564,1.854,18.846c0.205,2.029,0.359,2.127,2.377,2.18c3.625,0.1,3.633,0.1,3.133-3.352
	c-0.615-4.26-1.24-8.518-1.857-12.752c13.115-1.598,26.064-3.189,39.016-4.752c12.271-1.48,24.547-2.91,36.814-4.396
	c12.012-1.449,24.018-2.943,36.027-4.416c1.715-0.211,3.441-0.324,5.145-0.611c1.129-0.191,1.676,0.109,1.621,1.275
	c-0.422,8.979,1.982,17.686,2.551,26.566c0.254,3.971,0.461,7.947,1.072,11.893c0.291,1.879,0.111,1.93-1.855,2.166
	c-16.811,2.037-33.621,4.094-50.438,6.115c-12.268,1.479-24.539,2.904-36.805,4.373c-8.496,1.018-16.984,2.076-25.48,3.086
	c-0.703,0.084-1.336,0.227-2.037,0.943c-0.41-3.963-0.811-7.652-1.164-11.346c-0.248-2.561-0.369-2.709-2.975-2.84
	c-3.912-0.197-3.771-0.211-3.422,3.775c0.83,9.475,2.039,18.916,2.328,28.438c0.213,7.006,0.576,14.008,0.988,21.002
	c0.104,1.732-0.461,2.559-2.025,3.338c-16.436,8.191-33.291,15.389-50.574,21.574c-16.145,5.779-32.607,10.43-49.369,14.074
	c-14.631,3.182-29.385,5.551-44.26,7.162c-11.172,1.213-22.364,2.111-33.618,2.33c-9.521,0.186-19.012-0.215-28.517-0.523
	c-6.486-0.211-12.951-0.619-19.399-1.291c-16.181-1.684-32.18-4.457-48.074-7.914c-7.958-1.73-15.687-4.234-23.513-6.42
	c-10.425-2.91-20.452-6.975-30.652-10.531c-6.7-2.336-12.918-5.828-19.306-8.896c-2.847-1.369-5.876-2.395-8.461-4.309
	c-0.715-0.529-1.42-0.234-1.321,0.756c0.227,2.281-0.641,4.598,0.365,6.871c0.467,1.055-0.091,2.178-0.946,2.756
	c-0.86,0.582-1.009,1.348-1.202,2.164c-0.568,2.412-2.016,4.025-4.404,4.623c-1.152,0.289-1.46,0.816-1.497,1.957
	c-0.337,10.297-0.74,20.592-1.121,30.889c-0.15,4.066-0.304,8.133-0.434,12.199c-0.061,1.908-0.039,1.924,1.784,2.281
	c1.033,0.201,1.999,0.539,2.853,1.166c0.629,0.461,1.281,0.844,2.058,1.055c2.605,0.705,3.085,0.393,3.103-2.23
	c0.018-2.766,0.003-5.529,0.003-8.104c0.929-0.602,1.442-0.139,1.977,0.078c13.561,5.467,27.271,10.463,41.315,14.605
	c10.713,3.16,21.535,5.818,32.384,8.398c8.081,1.922,16.31,3.104,24.507,4.42c12.207,1.957,24.469,3.51,36.805,4.352
	c10.607,0.729,21.208,1.771,31.855,1.541c7.354-0.154,14.71,0.275,22.058-0.199c6.292-0.406,12.58-0.939,18.876-1.279
	c9.68-0.523,19.283-1.809,28.854-3.166c14.121-2.006,28.148-4.576,42.062-7.828c14.67-3.432,29.164-7.443,43.449-12.17
	c10.912-3.609,21.803-7.332,32.391-11.855c0.531-0.227,1.051-0.65,2.008-0.338c0,2.105,0,4.312,0,6.521
	c0,0.605,0.039,1.215-0.004,1.816c-0.074,1.064,0.311,1.619,1.453,1.607c2.686-0.029,5.369-0.033,8.055-0.002
	c1.199,0.014,1.428-0.635,1.387-1.652c-0.188-4.67-0.34-9.344-0.52-14.016c-0.535-13.754-1.082-27.512-1.617-41.266
	c-0.023-0.6-0.004-1.197-0.004-2.018c4.176-0.533,8.254-1.07,12.338-1.57c9.52-1.166,19.045-2.316,28.566-3.469
	c10.643-1.283,21.281-2.553,31.924-3.838c10.811-1.305,21.617-2.621,32.432-3.926c0.943-0.115,1.895-0.189,2.842-0.277
	c2.311-0.211,2.641,0.023,3.002,2.371c0.975,6.35,1.293,12.738,1.055,19.152c-0.066,1.828,0.146,3.6,0.428,5.408
	c1.225,7.859,2.887,15.654,3.617,23.592c0.031,0.344,0.029,0.711,0.15,1.025c1.107,2.883,0.654,5.982,1.178,8.893
	c2.348,13.008,3.289,26.244,6.297,39.133c1.275,5.469,2.998,10.832,4.373,16.279c1.355,5.363,2.73,10.738,2.264,16.375
	c-0.127,1.529-0.16,3.125,0.783,4.525c0.17,0.254,0.271,0.705,0.164,0.969c-0.678,1.654-0.398,3.428-0.699,5.121
	c-1.205,6.805-1.172,13.607,0.012,20.398c0.881,5.037-0.094,9.779-1.93,14.438c-0.324,0.824-0.934,0.887-1.656,0.914
	c-5.971,0.252-11.938,0.355-17.914,0.109c-11.6-0.475-22.797-2.945-33.729-6.699c-2.559-0.877-5.568-0.369-7.729-1.902
	c-2.209-1.564-4.6-2.316-7.041-3.141c-2.215-0.746-4.436-1.471-6.645-2.229c-1.479-0.51-2.93-1.113-4.119-2.15
	c-1.32-1.146-2.795-1.596-4.535-1.496c-4.092,0.234-8.125-0.457-12.117-1.168c-4.389-0.781-8.783-0.779-13.195-0.77
	c-1.469,0.002-2.938-0.08-4.4-0.062c-0.859,0.012-1.275-0.395-1.422-1.18c-0.031-0.17-0.055-0.346-0.041-0.518
	c0.473-6.604-1.605-12.814-2.914-19.146c-1.58-7.621-3-15.271-4.73-22.867c-0.664-2.922-0.602-6.02-0.736-9.045
	c-0.311-6.668-1.207-13.268-2.244-19.85c-0.354-2.227-0.373-2.238-2.562-2.25c-2.771-0.016-5.543,0.033-8.312-0.018
	c-1.129-0.021-1.477,0.418-1.521,1.52c-0.061,1.52,0.697,3.359-0.453,4.475c-0.979,0.951-2.629,1.23-3.996,1.768
	c-17.312,6.82-34.969,12.629-52.881,17.689c-19.088,5.393-38.438,9.535-58.053,12.443c-11.283,1.674-22.604,3.053-34.002,3.795
	c-6.561,0.426-13.119,0.766-19.687,1.057c-6.319,0.279-12.637,0.312-18.945,0.199c-11.583-0.209-23.156-0.662-34.707-1.748
	c-10.498-0.984-20.975-2.1-31.388-3.744c-17.438-2.76-34.688-6.398-51.688-11.195c-17.585-4.963-34.849-10.824-51.661-18.002
	c-1.179-0.504-1.968-0.992-1.55-2.426c0.118-0.404,0.121-0.857,0.113-1.289c-0.02-1.096-0.595-1.688-1.665-1.314
	c-2.442,0.85-4.535,0.299-6.589-1.158c-1.51-1.072-2.096-0.809-2.374,0.961c-0.725,4.613-1.59,9.209-1.894,13.879
	c-0.315,4.838-0.435,9.701-1.046,14.502c-0.533,4.188-1.66,8.297-2.473,12.451c-1.263,6.449-2.246,12.953-3.872,19.33
	c-0.083,0.322-0.046,0.674-0.078,1.246c4.391,0,8.702-0.004,13.014,0.004c0.72,0.002,1.082-0.266,1.166-1.029
	c0.123-1.111,0.358-2.211,0.589-3.57c3.27,1.32,6.437,2.566,9.579,3.877c15.585,6.5,31.542,11.941,47.76,16.605
	c14.712,4.229,29.611,7.717,44.68,10.436c13.7,2.469,27.479,4.387,41.354,5.545c10.425,0.871,20.862,1.418,31.329,1.658
	c9.609,0.225,19.203,0.051,28.791-0.334c13.734-0.551,27.428-1.771,41.043-3.646c23.238-3.203,46.146-7.998,68.709-14.459
	c16.898-4.84,33.494-10.527,49.846-16.955C593.824,683.736,595.73,682.931,597.896,682.048z"/>
<g>
	<path fill="#2F4CA3" d="M443.679,127.208c-2.119-1.231-4.588-0.315-6.752-1.21c0.188-0.983,0.938-0.726,1.418-0.661
		c2.906,0.39,5.846,0.402,8.75,0.876c2.518,0.411,5.029-0.202,7.436-0.887c5.418-1.543,10.947-2.566,16.457-3.668
		c2.18-0.436,3.717-1.33,4.891-3.299c2.037-3.419,4.369-6.662,6.545-9.999c0.951-1.458,0.916-1.481-0.887-2.136
		c2.014-2.519,3.975-5.03,5.996-7.489c3.264-3.966,6.148-8.161,8.113-12.938c1.662-4.04,4.424-7.41,6.732-11.056
		c0.461-0.73,0.992-0.871,1.736-0.458c0.371,0.206,0.779,0.338,1.121,0.482c0.836-0.295,0.535-1.075,0.846-1.554
		c0.729-1.128,1.762-1.623,2.854-0.868c1.998,1.381,4.484,2.039,5.924,4.329c0.572,0.914,1.918,1.561,3.037,1.866
		c2.217,0.603,3.865,2.134,5.826,3.133c0.754,0.385,1.354,1.023,2.297,1.076c0.611,0.034,1.197,0.418,1.447,0.989
		c0.77,1.758,2.416,2.461,3.936,3.205c9.174,4.492,18.346,8.995,28.143,12.057c1.893,0.592,3.664,1.502,5.723,1.515
		c0.551,0.003,1.15,0.387,1.631,0.732c1.986,1.437,4.23,2.375,6.479,3.273c9.271,3.708,17.5,9.12,25.107,15.488
		c13.543,11.336,25.557,24.153,36.061,38.332c8.77,11.832,17.051,24.014,24.578,36.678c5.645,9.498,10.051,19.543,12.309,30.446
		c0.488,2.357,0.5,4.828,1.625,7.053c0.439,0.869-0.338,1.234-0.936,1.562c-2.199,1.208-4.359,2.5-6.631,3.552
		c-2.76,1.278-5.32,2.907-8.035,4.252c-1.145,0.569-1.314,1.408-1.225,2.553c0.191,2.417,0.576,4.796,1.693,6.948
		c0.508,0.977,0.869,1.69-0.223,2.4c-0.408,0.265-0.588,0.669-0.523,1.108c0.152,1.026-0.205,1.658-1.234,1.911
		c-0.236,0.058-0.617,0.24-0.631,0.393c-0.221,2.404-2.75,2.524-3.732,4.13c-4.08-4.347-5.75-9.846-8.518-14.715
		c-0.393-0.688-0.875-1.266-1.447-1.813c-14.27-13.661-28.527-27.33-42.777-41.011c-1.066-1.027-2.209-1.929-3.479-2.696
		c-5.412-3.266-10.812-6.552-16.201-9.858c-1.281-0.786-2.65-1.205-4.119-1.479c-16.158-3.022-32.307-6.082-48.463-9.117
		c-16.154-3.035-32.312-6.053-48.469-9.08c-5.018-0.939-10.029-1.902-15.053-2.817c-5.346-0.974-10.691-1.943-16.053-2.833
		c-1.672-0.277-3.328-0.533-4.496,1.463c-0.471,0.803-1.885,1.11-2.838,1.92c-0.695-2.404,2.533-2.192,2.5-4.235
		c-4.086-0.768-8.195-1.538-12.307-2.312c-0.594-0.112-1.186-0.234-1.771-0.364c-1.662-0.369-3.204-0.241-4.749,0.645
		c-2.102,1.205-4.352,2.147-6.469,3.329c-1.484,0.83-2.783,1.038-4.354,0.104c-1.552-0.92-3.364-1.365-4.896-2.375
		c-0.371-0.245-0.822-0.459-1.223-0.264c-1.609,0.785-3.174,0.489-4.779-0.009c-0.474-0.147-1.038-0.09-1.547-0.02
		c-2.964,0.406-5.925,0.844-9.245,1.322c1.19,1.935,3.314,3.009,3.837,5.524c-2.842-1.492-5.417-2.767-7.904-4.193
		c-0.814-0.467-1.558-0.667-2.439-0.524c-4.341,0.702-8.68,1.42-13.025,2.103c-15.978,2.512-31.809,5.825-47.708,8.76
		c-18.121,3.344-36.219,6.811-54.328,10.22c-4.931,0.929-9.86,1.872-14.802,2.739c-1.563,0.274-3,0.751-4.354,1.58
		c-5.024,3.073-10.042,6.156-15.112,9.153c-2.887,1.707-5.021,4.241-7.393,6.497c-12.867,12.243-25.655,24.569-38.492,36.844
		c-1.27,1.215-2.306,2.531-3.082,4.122c-1.633,3.347-3.45,6.604-5.064,9.958c-0.847,1.76-2.506,2.267-4.033,2.864
		c-0.97,0.378-2.355-0.18-2.671-1.129c-0.625-1.883-2.098-3.498-1.755-5.726c0.407-2.648,0.554-5.336,0.956-7.985
		c0.173-1.138-0.104-1.789-1.12-2.281c-3.021-1.462-5.65-3.664-9.041-4.453c-1.919-0.447-3.536-1.769-5.449-2.384
		c-1.284-0.413-1.686-1.395-1.076-3.473c1.923-6.548,2.914-13.331,5.346-19.758c2.559-6.759,5.868-13.119,9.506-19.321
		c6.624-11.292,14.094-22.041,21.739-32.642c11.393-15.799,24.529-30.041,39.658-42.382c7.774-6.341,16.276-11.45,25.611-15.154
		c0.482-0.191,0.996-0.342,1.43-0.613c2.351-1.465,4.817-2.405,7.582-3.032c3.765-0.855,7.37-2.479,10.986-3.917
		c6.522-2.592,12.859-5.604,19.166-8.677c0.854-0.416,1.736-0.843,2.46-1.441c3.021-2.499,6.758-3.79,9.957-5.947
		c3.332-2.247,7.254-3.628,9.893-6.941c1.212-1.524,2.735-1.324,3.892,0.248c2.763,3.759,5.582,7.47,7.384,11.855
		c2.406,5.854,6.474,10.61,10.55,15.34c2.094,2.427,4.101,4.934,6.764,6.788c1.162,0.81,1.849,1.775,1.383,3.293
		c-0.284,0.923,0.119,1.642,0.842,2.278c3.903,3.433,7.779,6.896,11.665,10.349c0.395,0.349,0.806,0.68,1.361,0.68
		c0.489,0,0.918,0.092,1.041-0.718c0.262-1.726,0.526-1.88,2.047-1.3c1.936,0.739,3.856,1.535,5.718,2.448
		c2.074,1.018,4.311,1.194,6.524,1.504c7.195,1.007,14.4,1.974,21.647,2.553c8.294,0.664,16.592,0.809,24.908,0.27
		C431.792,128.7,437.763,128.533,443.679,127.208z M396.02,163.305c0.771-0.087,1.663,0.312,2.417-0.472
		C397.496,162.665,396.706,162.665,396.02,163.305z"/>
	<path fill="#F1DD99" d="M396.02,163.305c0.688-0.64,1.478-0.64,2.417-0.472C397.683,163.617,396.789,163.217,396.02,163.305z"/>
</g>
</svg>
