<?xml version="1.0" encoding="utf-8"?>
<!-- Generator: Adobe Illustrator 16.0.0, SVG Export Plug-In . SVG Version: 6.00 Build 0)  -->
<!DOCTYPE svg PUBLIC "-//W3C//DTD SVG 1.1//EN" "http://www.w3.org/Graphics/SVG/1.1/DTD/svg11.dtd" [
	<!ENTITY ns_flows "http://ns.adobe.com/Flows/1.0/">
	<!ENTITY ns_extend "http://ns.adobe.com/Extensibility/1.0/">
	<!ENTITY ns_ai "http://ns.adobe.com/AdobeIllustrator/10.0/">
	<!ENTITY ns_graphs "http://ns.adobe.com/Graphs/1.0/">
	<!ENTITY ns_vars "http://ns.adobe.com/Variables/1.0/">
	<!ENTITY ns_imrep "http://ns.adobe.com/ImageReplacement/1.0/">
	<!ENTITY ns_sfw "http://ns.adobe.com/SaveForWeb/1.0/">
	<!ENTITY ns_custom "http://ns.adobe.com/GenericCustomNamespace/1.0/">
	<!ENTITY ns_adobe_xpath "http://ns.adobe.com/XPath/1.0/">
]>
<svg version="1.1" id="Layer_1" xmlns:x="&ns_extend;" xmlns:i="&ns_ai;" xmlns:graph="&ns_graphs;"
	 xmlns="http://www.w3.org/2000/svg" xmlns:xlink="http://www.w3.org/1999/xlink" xmlns:a="http://ns.adobe.com/AdobeSVGViewerExtensions/3.0/"
	 x="0px" y="0px" width="850.391px" height="850.39px" viewBox="0 0 850.391 850.39" enable-background="new 0 0 850.391 850.39"
	 xml:space="preserve">
<metadata><?xpacket begin="﻿" id="W5M0MpCehiHzreSzNTczkc9d"?>
<x:xmpmeta xmlns:x="adobe:ns:meta/" x:xmptk="Adobe XMP Core 5.3-c011 66.145661, 2012/02/06-14:56:27        ">
   <rdf:RDF xmlns:rdf="http://www.w3.org/1999/02/22-rdf-syntax-ns#">
      <rdf:Description rdf:about=""
            xmlns:xmp="http://ns.adobe.com/xap/1.0/"
            xmlns:xmpGImg="http://ns.adobe.com/xap/1.0/g/img/">
         <xmp:CreatorTool>Adobe Illustrator CS6 (Macintosh)</xmp:CreatorTool>
         <xmp:CreateDate>2019-09-30T21:46:22+08:00</xmp:CreateDate>
         <xmp:MetadataDate>2019-09-30T21:46:22+08:00</xmp:MetadataDate>
         <xmp:ModifyDate>2019-09-30T21:46:22+08:00</xmp:ModifyDate>
         <xmp:Thumbnails>
            <rdf:Alt>
               <rdf:li rdf:parseType="Resource">
                  <xmpGImg:width>256</xmpGImg:width>
                  <xmpGImg:height>256</xmpGImg:height>
                  <xmpGImg:format>JPEG</xmpGImg:format>
                  <xmpGImg:image>/9j/4AAQSkZJRgABAgEASABIAAD/7QAsUGhvdG9zaG9wIDMuMAA4QklNA+0AAAAAABAASAAAAAEA&#xA;AQBIAAAAAQAB/+4ADkFkb2JlAGTAAAAAAf/bAIQABgQEBAUEBgUFBgkGBQYJCwgGBggLDAoKCwoK&#xA;DBAMDAwMDAwQDA4PEA8ODBMTFBQTExwbGxscHx8fHx8fHx8fHwEHBwcNDA0YEBAYGhURFRofHx8f&#xA;Hx8fHx8fHx8fHx8fHx8fHx8fHx8fHx8fHx8fHx8fHx8fHx8fHx8fHx8fHx8f/8AAEQgBAAEAAwER&#xA;AAIRAQMRAf/EAaIAAAAHAQEBAQEAAAAAAAAAAAQFAwIGAQAHCAkKCwEAAgIDAQEBAQEAAAAAAAAA&#xA;AQACAwQFBgcICQoLEAACAQMDAgQCBgcDBAIGAnMBAgMRBAAFIRIxQVEGE2EicYEUMpGhBxWxQiPB&#xA;UtHhMxZi8CRygvElQzRTkqKyY3PCNUQnk6OzNhdUZHTD0uIIJoMJChgZhJRFRqS0VtNVKBry4/PE&#xA;1OT0ZXWFlaW1xdXl9WZ2hpamtsbW5vY3R1dnd4eXp7fH1+f3OEhYaHiImKi4yNjo+Ck5SVlpeYmZ&#xA;qbnJ2en5KjpKWmp6ipqqusra6voRAAICAQIDBQUEBQYECAMDbQEAAhEDBCESMUEFURNhIgZxgZEy&#xA;obHwFMHR4SNCFVJicvEzJDRDghaSUyWiY7LCB3PSNeJEgxdUkwgJChgZJjZFGidkdFU38qOzwygp&#xA;0+PzhJSktMTU5PRldYWVpbXF1eX1RlZmdoaWprbG1ub2R1dnd4eXp7fH1+f3OEhYaHiImKi4yNjo&#xA;+DlJWWl5iZmpucnZ6fkqOkpaanqKmqq6ytrq+v/aAAwDAQACEQMRAD8A5RmC9g7FXYq+qP8AnGf/&#xA;AMl1L/20J/8Ak3FmTh5PP9p/3vwesZa692KuxV2KuxV2KuxV2KuxV2KuxV2KuxV2KuxV2KuxV2Ku&#xA;xV2KuxV2KuxV2KuxV2KuxV2Kvgf9Hah/yzS/8A39Mwaeu4h3u/R2of8ALNL/AMA39MaXiHe79Hah&#xA;/wAs0v8AwDf0xpeId76j/wCcbIZYvy8kWVGjb9ITniwINOEfjmTh5Oh7SP7z4PVctde7FXYq7FXY&#xA;q7FXYq7FXYq7FXYq7FXYq7FXYqp3Fxb20Lz3EqQwRisksjBUUeJY0AxVejo6K6MGRgCrA1BB3BBG&#xA;Kt4q7FXYq7FXYq7FXYq7FXYq7FXYq7FXYq7FXYq7FXYq7FXYq7FXYq7FXYq7FXYq7FXYqxDz9+bH&#xA;kPyHamXzFqccNyy8odOi/e3cg7cIV+Khp9pqL74q+d/Mv/ObmtPdOvlny7bQ2q1EcupPJLIw7M0c&#xA;DRKny5t88Veea3/zlL+dOqVVNaTToj1jsreGP7ndZJf+GxV55rvm7zV5gcPrusXuqMDVfrdxLMFP&#xA;+SHZgv0Yq+lf+cMvzHupn1HyLqNy0kcUf17RVkavBVPG4hSvb4lcL/rHFX1RirsVdirsVdirsVdi&#xA;rsVdirsVdirsVdirsVdirsVdirsVdirsVdirsVdirsVdiriQBU7AdTir5W/Pf/nKq4hurnyz+X1w&#xA;q+kTFfeYUo1WGzJaVqKDoZf+B7MVXy3e317f3ct5fXEl1dztzmuJ3aSR2PVmdiWY/PFVDFXYq7FU&#xA;78lea9R8pea9M8x6cf8AStNnWYJWgkT7MkTH+WRCVPscVfpL5W8y6T5n8vWGv6RL62n6hEs0LbVF&#xA;dmRgK0dGqrDsRiqaYq7FXYq7FXYq7FXYq7FXYq7FXYq7FXYq7FXYq7FXYq7FXYq7FXYq7FXYq7FX&#xA;y9/zlf8AnlLaep+X3lu5KXDr/wA7DeRGhVHG1orDuwNZadqL3YYq+TMVdirsVdirsVdir6G/5xH/&#xA;ADZOg+Y28larPx0jW5AdOZz8MN+QAFHgJwAv+sF8Tir7OxV2KuxV2KuxV2KuxV2KuxV2KuxV2Kux&#xA;V2KuxV2KuxV2KuxV2KuxV2KuxVIfPnma38r+TNZ8wTvwXTrSWZCRWsvGkS0/ypCq4q/M+8u7q9u5&#xA;7y7lae6uZGmnmc1Z5JGLMzHuSTU4qo4q7FXYq7FXYq7FV8M0sEyTQu0c0TB45FJDKymoYEdCDir9&#xA;Ifyi88L53/LzRvMLUF1cQ+nfoO1zATFNsOgZl5KPAjFWYYq7FXYq7FXYq7FXYq7FXYq7FXYq7FXY&#xA;q7FXYq7FXYq7FXYq7FXYq7FUq81+W9O8zeW9R0DUl5WWpQPby06ryHwuv+UjUYe4xV+Z+v6NeaHr&#xA;moaNeil3ptzLaTgdOcLlGp7VXbFUBirsVdirsVdirsVdir7H/wCcJL24k8ka/ZO1YLfUlliHg00C&#xA;h/o/djFX0birsVdirsVdirsVdirsVdirsVdirsVdirsVdirsVdirsVdirsVdirsVSfzh5msfK/lf&#xA;VPMN8f8ARtMt5LhlrQuyj4Iwf5neij3OKvzS17WLvW9c1DWbyn1vUrma7uOPT1J5DI1K9qtiqAxV&#xA;2KuxV2KuxV2KuxV93/8AOJ3laTRPyitLqeL07nXLiXUGDD4vTakUP0NHEHH+tir2XFXYq7FXYq7F&#xA;XYq7FXYq7FXYq7FXYq7FXYq7FXYq7FXYq7FXYq7FXYq+bP8AnNXzj9U8s6P5TgkpLqk7Xl4oO/oW&#xA;20at7PK/Ie6Yq+PsVdirsVdirsVdirsVei/kX+Vc/wCYvnaHT3ZY9HseN1rD8grm3VgPTjHUtIfh&#xA;r+z19iq/QyCCG3gjggRYoYlCRRoAqqqiiqoHQAYqvxV2KuxV2KuxV2KuxV2KuxV2KuxV2KuxV2Ku&#xA;xV2KuxV2KuxV2KuxV2Kvz5/5yP8AODeaPzc1qZJOdnpb/ouz3qAloSsnE+DTGRhTxxV5jirsVdir&#xA;sVdirsVdir0r/nHbzi3lb82tEuXfhZ6jJ+jL3wMd2Qi19lm9Nz8sVfoVirsVdirsVdirsVdirsVd&#xA;irsVdirsVdirsVdirsVdirsVdirsVdirsVSLz35kXyz5L1vXzQtpllPcRKRUNKiExr/snoMVfmXN&#xA;NLPM80zmSWVi8jsalmY1JJ9ziqzFXYq7FXYq7FXYq7FV8UskMqSxMUljYOjjYhlNQR8jir9NfI3m&#xA;RPM3k3RfMCgKdTs4bmRB0WR0BkX/AGL1GKp5irsVdirsVdirsVdirsVdirsVdirsVdirsVdirsVd&#xA;irsVdirsVdirx/8A5yv1Gaz/ACV1WOL/AI/Z7S3kboQnrrIafP06fLFXwXirsVdirsVdirsVdirs&#xA;Vdir7w/5xK1v9JfkzY25NX0m6urFj3+39YWvyW4AxV7JirsVdirsVdirsVdirsVdirsVdirsVdir&#xA;sVdirsVdirsVdirsVdirx/8A5yxszP8Aklq8tP8AeS4s5jvTrcpF9P8Ae4q+C8VdirsVdirsVdir&#xA;sVdirsVfYX/OEV07eUPMdoXqkWoRyiKu4MsIUtT/ACvSH3Yq+ksVdirsVdirsVdirsVdirsVdirs&#xA;VdirsVdirsVdirsVdirsVdirsVeVf85R/wDkifM3/Rj/AN1C3xV8AYq7FXYq7FXYq7FXYq7FXYq+&#xA;vv8AnCC2C+WfM9zxIMt7BHy/ZPpxM1B7j1N8VfS2KuxV2KuxV2KuxV2KuxV2KuxV2KuxV2KuxV2K&#xA;uxV2KuxV2KuxV2KvNf8AnJH/AMkl5p/4wQ/9RMWKvz1xV2KuxV2KuxV2KuxV2KuxV9r/APOF1kkP&#xA;5Xahc1q9zq8xPsqQQKB99Tir33FXYq7FXYq7FXYq7FXYq7FXYq7FXYq7FXYq7FXYq7FXYq7FXYq7&#xA;FXmv/OSP/kkvNP8Axgh/6iYsVfnrirsVdirsVdirsVdirsVdir7y/wCcTLQwfkppcprS6ubyUV6b&#xA;XDRbf8i8VexYq7FXYq7FXYq7FXYq7FXYq7FXYq7FXYq7FXYq7FXYq7FXYq7FXYq81/5yR/8AJJea&#xA;f+MEP/UTFir89cVdirsVdirsVdirsVdirsVfoV/zjdZ/VPyS8rRUpygmm61/v7mWX/jfFXpWKuxV&#xA;2KuxV2KuxV2KuxV2KuxV2KuxV2KuxV2KuxV2KuxV2KuxV2KvJv8AnKi6eD8j9fVKgzvZxFgaEA3k&#xA;TH7wtMVfAmKuxV2KuxV2KuxV2KuxV2Kv0e/JG1+q/lF5QjoRy0u2loev75BJX/h9sVZtirsVdirs&#xA;VdirsVdirsVdirsVdirsVdirsVdirsVSnzb5gTy75b1DW3gNythEZTAG4FqECnIhqdfDBI0LbMOP&#xA;jkI97x3/AKGrsP8AqXJf+kpf+qWU+N5Oy/ko/wA77Hf9DV2H/UuS/wDSUv8A1Sx8byX+Sj/O+x3/&#xA;AENXYf8AUuS/9JS/9UsfG8l/ko/zvsd/0NXYf9S5L/0lL/1Sx8byX+Sj/O+xgP55fn5Z+b/y5v8A&#xA;QY9Gks3uZbdhO06yAelMr04hF68fHJRy2aadRoDjhxXb5hy117sVfUf5Tfnpofl38vNG0W48tC9m&#xA;s45Fe6Mka8+UzvWhjY/tU65VLLRp2WHs45ICV82Xf9DK+W/+pQX/AJGxf9Ucj43k2fyUf532O/6G&#xA;V8t/9Sgv/I2L/qjj43kv8lH+d9jv+hlfLf8A1KC/8jYv+qOPjeS/yUf532LZf+cmPLaRO/8AhBfh&#xA;UneWKmw/4w4fG8kHssgXxfY+MSSSSTUnck9a5c6prFX2H5L/AOcl7LSfJ2haU/l93fT9OtLVnS4V&#xA;FYwwJGSq+maA8dhXKTmp2kOzDKIPFzTn/oauw/6lyX/pKX/qlg8byZfyUf532O/6GrsP+pcl/wCk&#xA;pf8Aqlj43kv8lH+d9jv+hq7D/qXJf+kpf+qWPjeS/wAlH+d9jv8Aoauw/wCpcl/6Sl/6pY+N5L/J&#xA;R/nfY7/oauw/6lyX/pKX/qlj43kv8lH+d9jv+hq7D/qXJf8ApKX/AKpY+N5L/JR/nfY7/oauw/6l&#xA;yX/pKX/qlj43kv8AJR/nfY7/AKGrsP8AqXJf+kpf+qWPjeS/yUf532O/6GrsP+pcl/6Sl/6pY+N5&#xA;L/JR/nfY94y91LsVdirsVdirsVdirD/zf/8AJZ+Yf+YQ/wDEhkMn0lydH/ex974vzEendirsVdiq&#xA;S+bgToz07OhP35Zi+pwO0f7r4sFzKeedir0Hy5/xxLX/AFT/AMSOYmT6i9Lov7qKZ5By3Yq7FUNq&#xA;cnp6ddP/ACxOR8+Jwx5tWc1CR8i80zNeUdir02yXjZW6+EaD7lGYUub1mIVAe5XwNjsVdirsVdir&#xA;sVdirsVdir9AMznj3Yq7FXYq7FXYq7FUs8z6BbeYdAvtFuZHigvozFJJHTmoJBqvIEdsBFimzFkM&#xA;JCQ6PKv+hWvKH/V21D/kj/1TyrwQ5/8AKk+4O/6Fa8of9XbUP+SP/VPHwQv8qT7g7/oVryh/1dtQ&#xA;/wCSP/VPHwQv8qT7g7/oVryh/wBXbUP+SP8A1Tx8EL/Kk+4PPfz6/Iny75S/LPUNcstQvLi4t5bZ&#xA;Fim9LgRJMqGvFFPRvHJRxgG2rPr5ZI8JAfKuWOC7FX1N+Wf5X/lNqfkPRb/VvOEdhqNxbh7mzN5Z&#xA;xmN6n4eEnxj6cqOIE27DF2jOEREAbMph/Jb8mJ39OHzwkr9eKXtixoPYDB4IZ/ypPuC6f8kvyct+&#xA;P1jzqsPKvH1LyxWtOtKj3x8EL/Kk+4KX/KnfyR/6nyL/AKTrDHwQv8qT7gw384Py6/KzQvy71bUt&#xA;D82x6nqsXoLbWK3VpKZPUuI0f4IhzPGNmbbwwxxAG2vL2hOcTEgbvmXLXAdir7pi/wCcWPKSRIra&#xA;vfllUAkeiBUDt+7ynwQ7MdqTHQL/APoVryh/1dtQ/wCSP/VPHwQv8qT7g7/oVryh/wBXbUP+SP8A&#xA;1Tx8EL/Kk+4O/wChWvKH/V21D/kj/wBU8fBC/wAqT7g7/oVryh/1dtQ/5I/9U8fBC/ypPuDv+hWv&#xA;KH/V21D/AJI/9U8fBC/ypPuDv+hWvKH/AFdtQ/5I/wDVPHwQv8qT7g7/AKFa8of9XbUP+SP/AFTx&#xA;8EL/ACpPuDv+hWvKH/V21D/kj/1Tx8EL/Kk+4O/6Fa8of9XbUP8Akj/1Tx8EL/Kk+4PaMudY7FXY&#xA;q7FXYq7FXYq7FXYq7FXYq7FXkH/OWH/kktX/AOM9n/1Epir4KxV2KuxV2KuxV2KuxV2Kr4o2kkSN&#xA;acnYKtTQVJp1OKv1RxV2KuxV2KuxV2KuxV2KuxV2KuxV2KuxV2KuxV2KuxV2KuxV2KuxV2KvIP8A&#xA;nLD/AMklq/8Axns/+olMVfBWKuxV2KuxV2KuxV2KuxVF6TB6+q2cHD1PVniT06V5cnApT3xV+pOK&#xA;uxV2KuxV2KuxV2KuxV2KuxV2KuxV2KuxV2KuxV2KuxV2KuxV2KuxV5H/AM5WQvJ+R+uutKQy2TvX&#xA;wN5Em30sMVfA+KuxV2KuxV2KuxV2KuxVlH5W2a3v5meU7Vl5xzaxYLIo/k+spz6/5NcVfpZirsVd&#xA;irsVdirsVdirsVdirsVdirsVdirsVdirsVdirsVdirsVdirsVebf85HabLqH5J+arePZkt4rk/6t&#xA;rcRXDf8ACxHFX56Yq7FXYq7FXYq7FXYq7FXof/OPtqLr85/KkZAPG89X4un7mN5Pv+DbFX6I4q7F&#xA;XYq7FXYq7FXYq7FXYq7FXYq7FXYq7FXYq7FXYq7FXYq7FXYq7FUFrmkWus6JqGj3dfqupW01pPTr&#xA;6c8Zjan0Nir8yfMWhX2ga9qOiX68bzTbiW1nA6FomKkivY0qPbFUuxV2KuxV2KuxV2KuxV6p/wA4&#xA;uqrfnr5YDAEVvTQ77jT7gg/fir9AMVdirsVdirsVdirsVdirsVdirsVdirsVdirsVdirsVdirsVd&#xA;irsVdirsVfG3/OZ/kq20zzfpfmm1Xj+noXivVH/LRZhFD/7KJ1H+xxV86Yq7FXYq7FXYq7FXYq9c&#xA;/wCcVLSaf88dBljFUtY72aY+CGzliH/DSLir74xV2KuxV2KuxV2KuxV2KuxV2KuxV2KuxV2KuxV2&#xA;KuxV2KuxV2KuxV2KuxV8+/8AOaemxz/lrpd/UCWz1WNVBNKpNBKGAHc1RT8q4q+LcVdirsVdirsV&#xA;dirsVfRv/OEkNo3njX5XUG7j00CFj1CNOnqU+kJir7HxV2KuxV2KuxV2KuxV2KuxV2KuxV2KuxV2&#xA;KuxV2KuxV2KuxV2KuxV2KuxV8R/85eef7rW/zB/wzDMG0ry6ir6aH4Wu5kDys3iUUqn+TRvE4q8H&#xA;xV2KuxV2KuxV2KuxV7r/AM4bTXcf5tzJAhaGbSrlLogVCxiSJwT4fvFUYq+38VdirsVdirsVdirs&#xA;VdirsVdirsVdirsVdirsVdirsVdirsVdirsVdirsVfmH5xllm83a5LK5klkv7pndjUkmZiSScVSf&#xA;FXYq7FWTaH+Wf5ha9p6alo3lzUL+wkLLHdQW8jxsVNG4sBQ0O23fFUwH5J/m4TT/AAhqv/SLJ/TF&#xA;U3sP+ca/ztvd4vLE0a1oTPPawU96Syo33DFWeeXf+cKvPV2UfXdYsdKib7SQiS7mHzWkMf3SYq+j&#xA;fym/Jbyn+WljPHpJlutRvAovtTuCPUkCbhFVQFRASTxG/iTirPsVdirsVdirsVdirsVdirsVdirs&#xA;VdirsVdirsVdirsVdirsVdirsVdirsVfl1r9tqNtruoW+pxtFqMVzKt5G/IMsoc8weXxfa8cVQGK&#xA;uxVmv5RflnqX5iec7XQrYtFZr+/1S8AqILZCObf6zVCoPE+FcVfono2j6boulWmk6ZAttp9jEkFt&#xA;AnRUQUA9/cnriqMxV2KuxV2KuxV2KuxV2KuxV2KuxV2KuxV2KuxV2KuxV2KuxV2KuxV2KuxV2Kux&#xA;V2KuxV5d+cH/ADj95S/MeL62xGk+Y0oI9YhjDF1ApwuI6p6op0NQw7GmxVeH6h/zhF5ujUnTvMmn&#xA;3DdhcRTQDp4oJ/1Yqk+kf84afmhdXxi1G707T7RT8Vz6rzlhWn7uNEFf9kVxV9Nfk3+T+jfll5el&#xA;060m+vajeSCXUdSZBG0rKKIiqC3FEBPEcjuSe+Ks/wAVdirsVdirsVdirsVdirsVdirsVdirsVdi&#xA;rsVf/9k=</xmpGImg:image>
               </rdf:li>
            </rdf:Alt>
         </xmp:Thumbnails>
      </rdf:Description>
      <rdf:Description rdf:about=""
            xmlns:xmpTPg="http://ns.adobe.com/xap/1.0/t/pg/"
            xmlns:stDim="http://ns.adobe.com/xap/1.0/sType/Dimensions#"
            xmlns:xmpG="http://ns.adobe.com/xap/1.0/g/">
         <xmpTPg:MaxPageSize rdf:parseType="Resource">
            <stDim:w>299.998915</stDim:w>
            <stDim:h>299.998743</stDim:h>
            <stDim:unit>Millimeters</stDim:unit>
         </xmpTPg:MaxPageSize>
         <xmpTPg:NPages>1</xmpTPg:NPages>
         <xmpTPg:HasVisibleTransparency>False</xmpTPg:HasVisibleTransparency>
         <xmpTPg:HasVisibleOverprint>False</xmpTPg:HasVisibleOverprint>
         <xmpTPg:PlateNames>
            <rdf:Seq>
               <rdf:li>Cyan</rdf:li>
               <rdf:li>Magenta</rdf:li>
               <rdf:li>Yellow</rdf:li>
               <rdf:li>Black</rdf:li>
            </rdf:Seq>
         </xmpTPg:PlateNames>
         <xmpTPg:SwatchGroups>
            <rdf:Seq>
               <rdf:li rdf:parseType="Resource">
                  <xmpG:groupName>Default Swatch Group</xmpG:groupName>
                  <xmpG:groupType>0</xmpG:groupType>
               </rdf:li>
            </rdf:Seq>
         </xmpTPg:SwatchGroups>
      </rdf:Description>
      <rdf:Description rdf:about=""
            xmlns:dc="http://purl.org/dc/elements/1.1/">
         <dc:format>image/svg+xml</dc:format>
      </rdf:Description>
      <rdf:Description rdf:about=""
            xmlns:xmpMM="http://ns.adobe.com/xap/1.0/mm/"
            xmlns:stRef="http://ns.adobe.com/xap/1.0/sType/ResourceRef#"
            xmlns:stEvt="http://ns.adobe.com/xap/1.0/sType/ResourceEvent#">
         <xmpMM:DerivedFrom rdf:parseType="Resource">
            <stRef:instanceID>xmp.iid:095A81E56D21681180839FCCDFDC130E</stRef:instanceID>
            <stRef:documentID>xmp.did:095A81E56D21681180839FCCDFDC130E</stRef:documentID>
            <stRef:originalDocumentID>xmp.did:F63F1AA85321681180839FCCDFDC130E</stRef:originalDocumentID>
         </xmpMM:DerivedFrom>
         <xmpMM:DocumentID>xmp.did:0A5A81E56D21681180839FCCDFDC130E</xmpMM:DocumentID>
         <xmpMM:InstanceID>xmp.iid:0A5A81E56D21681180839FCCDFDC130E</xmpMM:InstanceID>
         <xmpMM:OriginalDocumentID>xmp.did:F63F1AA85321681180839FCCDFDC130E</xmpMM:OriginalDocumentID>
         <xmpMM:History>
            <rdf:Seq>
               <rdf:li rdf:parseType="Resource">
                  <stEvt:action>saved</stEvt:action>
                  <stEvt:instanceID>xmp.iid:F63F1AA85321681180839FCCDFDC130E</stEvt:instanceID>
                  <stEvt:when>2019-09-30T18:39:11+08:00</stEvt:when>
                  <stEvt:softwareAgent>Adobe Illustrator CS6 (Macintosh)</stEvt:softwareAgent>
                  <stEvt:changed>/</stEvt:changed>
               </rdf:li>
               <rdf:li rdf:parseType="Resource">
                  <stEvt:action>saved</stEvt:action>
                  <stEvt:instanceID>xmp.iid:0A5A81E56D21681180839FCCDFDC130E</stEvt:instanceID>
                  <stEvt:when>2019-09-30T21:46:22+08:00</stEvt:when>
                  <stEvt:softwareAgent>Adobe Illustrator CS6 (Macintosh)</stEvt:softwareAgent>
                  <stEvt:changed>/</stEvt:changed>
               </rdf:li>
            </rdf:Seq>
         </xmpMM:History>
      </rdf:Description>
   </rdf:RDF>
</x:xmpmeta>
                                                                                                    
                                                                                                    
                                                                                                    
                                                                                                    
                                                                                                    
                                                                                                    
                                                                                                    
                                                                                                    
                                                                                                    
                                                                                                    
                                                                                                    
                                                                                                    
                                                                                                    
                                                                                                    
                                                                                                    
                                                                                                    
                                                                                                    
                                                                                                    
                                                                                                    
                                                                                                    
                           
<?xpacket end="w"?>
	</metadata>
<polyline fill="#FFFFFF" points="745.696,564.362 211.696,564.362 211.696,477.695 745.696,477.695 "/>
<polyline fill="#7A2426" points="745.696,541.362 211.696,541.362 211.696,500.696 745.696,500.696 "/>
<path fill-rule="evenodd" clip-rule="evenodd" d="M514.106,285.514c1.687,4.526,3.451,8.999,5.022,13.538
	c2.34,6.758,4.424,13.593,5.88,20.611c0.391,1.882,1.187,3.684,1.849,5.503c1.717,4.714,2.091,9.715,3.125,14.573
	c1.001,4.708,1.813,9.456,2.661,14.195c0.204,1.143,0.157,2.329,0.333,3.479c0.163,1.063,0.541,2.094,0.693,3.157
	c0.174,1.209,0.226,2.438,0.289,3.661c0.089,1.698-0.006,3.419,0.238,5.093c0.422,2.903-0.016,5.827,0.798,8.769
	c0.685,2.476,0.522,5.24-0.566,7.795c-0.316,0.741-0.318,1.649-0.325,2.481c-0.026,3.177,0.449,6.378-0.581,9.5
	c-0.142,0.429-0.138,0.925-0.115,1.386c0.23,4.664-0.749,9.236-1.036,13.861c-0.289,4.651-0.66,9.298-1.014,13.946
	c-0.342,4.487-0.726,8.972-1.051,13.46c-0.163,2.248-0.196,4.506-0.358,6.754c-0.312,4.334-0.685,8.664-1.011,12.996
	c-0.146,1.938-0.269,3.878-0.354,5.818c-0.167,3.802-0.213,7.611-0.472,11.406c-0.352,5.185-0.886,10.355-1.273,15.537
	c-0.098,1.306,0.066,2.63,0.111,3.945c0.053,1.551,0.211,3.106,0.137,4.65c-0.174,3.641-0.534,7.272-0.683,10.913
	c-0.272,6.683-0.033,13.413-0.759,20.041c-1.088,9.936-0.89,19.871-1.042,29.815c-0.059,3.8-0.472,7.592-0.621,11.392
	c-0.048,1.226,0.421,2.477,0.333,3.693c-0.57,7.971-0.256,15.986-1.627,23.926c-0.776,4.497-0.785,9.126-1.149,13.694
	c-0.08,1.003-0.213,2.002-0.306,3.004c-0.158,1.699-0.327,3.397-0.449,5.1c-0.345,4.801-0.678,9.603-0.995,14.405
	c-0.159,2.401-0.107,4.83-0.441,7.205c-1.024,7.284-0.354,14.604-0.672,21.896c-0.091,2.093-0.09,4.15,0.054,6.229
	c0.493,7.15-1.537,13.849-3.775,20.497c-0.45,1.338-0.717,2.57-0.489,4.043c0.497,3.22,0.6,6.498,1.026,9.73
	c0.56,4.233,1.074,8.49,1.988,12.654c0.727,3.308,0.368,6.353-1.031,9.302c-1.497,3.153-2.987,6.349-5.973,8.477
	c-1.709,1.218-3.434,2.362-5.53,2.857c-1.204,0.284-2.339,0.851-3.537,1.169c-2.92,0.778-5.85,1.525-8.791,2.214
	c-5.516,1.29-11.041,2.541-16.569,3.778c-0.752,0.168-1.557,0.295-2.313,0.214c-3.689-0.39-7.241,0.671-10.863,0.958
	c-3.095,0.246-6.2,0.455-9.268,0.905c-3.202,0.47-6.33-0.093-9.495-0.216c-3.724-0.146-7.464,0.181-11.196,0.158
	c-3.088-0.019-6.179-0.177-9.259-0.409c-1.608-0.12-2.535,0.501-3.414,1.81c-7.376,10.991-14.838,21.926-22.22,32.913
	c-0.882,1.313-1.82,2.122-3.465,2.351c-3.933,0.548-7.685,1.787-11.452,3.07c-3.566,1.216-7.435,1.124-11.077,0.201
	c-6.147-1.558-12.393-2.14-18.678-2.566c-2.33-0.158-4.668-0.275-6.981-0.576c-0.862-0.112-1.778-0.55-2.469-1.093
	c-2.571-2.021-5.031-4.182-7.591-6.217c-1.209-0.962-2.565-1.736-3.825-2.637c-0.625-0.446-1.214-0.952-1.76-1.492
	c-0.77-0.76-1.401-1.683-2.244-2.341c-0.968-0.757-1.249-1.608-1.255-2.805c-0.006-1.366-0.196-2.771-0.565-4.086
	c-0.444-1.586-0.307-3.043,0.206-4.563c0.315-0.934,0.58-1.936,0.596-2.911c0.117-7.087,0.184-14.175,0.217-21.263
	c0.006-1.213,0.213-2.297,0.93-3.288c0.41-0.566,0.741-1.188,1.107-1.786c1.328-2.17,2.476-4.276,2.855-6.981
	c0.486-3.462,1.191-7.11,4.069-9.71c0.324-0.293,0.443-0.81,0.667-1.217c1.155-2.104,2.283-4.223,3.483-6.3
	c0.646-1.118,1.006-2.195,0.729-3.537c-0.707-3.424-1.357-6.862-1.906-10.315c-0.634-3.984-1.194-7.982-1.672-11.988
	c-0.31-2.59-1.088-4.96-2.331-7.26c-1.437-2.659-2.676-5.429-3.912-8.19c-1.173-2.623-2.234-5.296-3.336-7.95
	c-0.625-1.504-1.257-3.006-1.84-4.526c-0.667-1.738-1.38-3.467-1.892-5.252c-0.512-1.783-0.862-3.62-1.172-5.452
	c-0.895-5.281-1.742-10.571-2.588-15.861c-0.122-0.763-0.186-1.543-0.19-2.315c-0.02-3.571,0.065-7.144-0.029-10.712
	c-0.099-3.729-0.419-7.45-0.526-11.178c-0.066-2.313,0.081-4.634,0.137-6.95c0.003-0.154,0.071-0.308,0.069-0.461
	c-0.054-3.949-0.11-7.899-0.177-11.849c-0.014-0.776-0.116-1.553-0.116-2.329c-0.007-17.121,0.027-34.241-0.035-51.361
	c-0.012-3.253-0.542-6.503-0.577-9.757c-0.04-3.724,0.195-7.451,0.338-11.176c0.042-1.083,0.236-2.161,0.259-3.244
	c0.229-11.202,0.437-22.403,0.653-33.605c0.006-0.312-0.035-0.647,0.067-0.928c1-2.775,0.565-5.68,0.635-8.507
	c0.173-7.005,0.016-14.019,0.072-21.028c0.035-4.354,0.326-8.708,0.307-13.061c-0.033-7.703-0.202-15.406-0.34-23.108
	c-0.084-4.664-0.221-9.327-0.326-13.99c-0.146-6.528-0.16-13.062-0.462-19.583c-0.248-5.342-0.959-10.662-1.228-16.003
	c-0.199-3.948-0.301-7.902,0.593-11.848c1.164-5.14,1.798-10.404,3.049-15.519c1.306-5.343,3.06-10.578,4.642-15.853
	c1.184-3.943,2.35-7.892,3.628-11.805c1.131-3.464,2.432-6.874,3.61-10.324c1.377-4.033,2.607-8.119,4.078-12.117
	c1.364-3.707,2.31-7.556,4.098-11.127c1.701-3.397,2.994-6.996,4.599-10.445c0.78-1.677,1.743-3.302,2.837-4.793
	c1.803-2.456,1.963-5.264,1.493-7.976c-0.47-2.718-1.515-5.365-2.537-7.953c-1.224-3.098-2.668-6.092-4.385-8.98
	c-1.543-2.596-2.129-5.449-0.422-8.397c1.688-2.914,2.688-6.026,2.77-9.5c0.058-2.459,1.884-4.374,3.178-6.367
	c1.688-2.599,3.593-5.059,5.445-7.549c1.576-2.119,3.225-4.184,4.808-6.297c0.837-1.116,1.604-2.285,2.402-3.43
	c0.267-0.382,0.48-0.819,0.809-1.139c3.338-3.243,6.705-6.456,10.041-9.7c1.666-1.62,3.25-3.324,4.937-4.92
	c1.008-0.954,2.156-1.759,3.222-2.655c4.477-3.76,9.439-6.729,14.763-9.116c0.496-0.222,1.07-0.37,1.457-0.719
	c2.607-2.354,6.032-3.153,9.016-4.786c2.908-1.591,5.898-3.039,8.898-4.451c4.653-2.188,9.381-4.082,14.667-4.188
	c1.913-0.038,3.819-0.626,5.723-0.991c5.485-1.049,10.966-2.122,16.451-3.168c4.875-0.93,9.78-1.721,14.622-2.8
	c2.784-0.621,5.46-1.717,8.199-2.553c2.878-0.879,5.573-0.837,8.154,1.126c2.856,2.173,5.099,4.735,6.461,8.068
	c1.816,4.446,3.439,8.991,5.56,13.289c3.432,6.956,6.55,14.095,11.197,20.401c2.209,2.996,4.272,6.106,6.265,9.252
	c1.942,3.068,3.61,6.312,5.578,9.363c3.418,5.3,5.823,11.109,8.559,16.746c1.347,2.774,2.204,5.791,3.218,8.72
	c0.907,2.618,1.919,5.223,2.524,7.915c0.522,2.324,0.624,4.758,0.747,7.151c0.083,1.623-0.129,3.259-0.191,4.89
	c-0.106,2.797-0.362,5.537-1.479,8.185c-0.625,1.481-0.783,3.16-1.144,4.752c-1.188,5.251-2.498,10.439-6.049,14.741
	c-0.671,0.812-0.892,1.98-1.433,2.919c-1.628,2.825-3.17,5.717-5.028,8.386c-1.044,1.499-2.646,2.606-3.998,3.89
	C514.755,284.903,514.477,285.164,514.106,285.514z M374.64,488.667c0.963,21.615-0.628,42.958-0.513,64.26
	c2.827,0.534,99.058,0.42,100.922-0.114c0.05-0.701,0.1-1.463,0.158-2.224c0.268-3.485,0.319-7.005,0.853-10.449
	c1.095-7.063,2.498-14.068,2.955-21.234c0.52-8.145,1.378-16.268,2.083-24.4c0.165-1.901,0.308-3.804,0.471-5.838
	C445.837,488.667,410.375,488.667,374.64,488.667z"/>
<rect x="39.029" y="90.898" fill="#7A2426" width="73.333" height="43.398"/>
</svg>
