<?xml version="1.0" encoding="utf-8"?>
<!-- Generator: Adobe Illustrator 16.0.0, SVG Export Plug-In . SVG Version: 6.00 Build 0)  -->
<!DOCTYPE svg PUBLIC "-//W3C//DTD SVG 1.1//EN" "http://www.w3.org/Graphics/SVG/1.1/DTD/svg11.dtd" [
	<!ENTITY ns_flows "http://ns.adobe.com/Flows/1.0/">
	<!ENTITY ns_extend "http://ns.adobe.com/Extensibility/1.0/">
	<!ENTITY ns_ai "http://ns.adobe.com/AdobeIllustrator/10.0/">
	<!ENTITY ns_graphs "http://ns.adobe.com/Graphs/1.0/">
	<!ENTITY ns_vars "http://ns.adobe.com/Variables/1.0/">
	<!ENTITY ns_imrep "http://ns.adobe.com/ImageReplacement/1.0/">
	<!ENTITY ns_sfw "http://ns.adobe.com/SaveForWeb/1.0/">
	<!ENTITY ns_custom "http://ns.adobe.com/GenericCustomNamespace/1.0/">
	<!ENTITY ns_adobe_xpath "http://ns.adobe.com/XPath/1.0/">
]>
<svg version="1.1" id="Layer_1" xmlns:x="&ns_extend;" xmlns:i="&ns_ai;" xmlns:graph="&ns_graphs;"
	 xmlns="http://www.w3.org/2000/svg" xmlns:xlink="http://www.w3.org/1999/xlink" xmlns:a="http://ns.adobe.com/AdobeSVGViewerExtensions/3.0/"
	 x="0px" y="0px" width="850.391px" height="850.39px" viewBox="0 0 850.391 850.39" enable-background="new 0 0 850.391 850.39"
	 xml:space="preserve">
<metadata><?xpacket begin="﻿" id="W5M0MpCehiHzreSzNTczkc9d"?>
<x:xmpmeta xmlns:x="adobe:ns:meta/" x:xmptk="Adobe XMP Core 5.3-c011 66.145661, 2012/02/06-14:56:27        ">
   <rdf:RDF xmlns:rdf="http://www.w3.org/1999/02/22-rdf-syntax-ns#">
      <rdf:Description rdf:about=""
            xmlns:xmp="http://ns.adobe.com/xap/1.0/"
            xmlns:xmpGImg="http://ns.adobe.com/xap/1.0/g/img/">
         <xmp:CreatorTool>Adobe Illustrator CS6 (Macintosh)</xmp:CreatorTool>
         <xmp:CreateDate>2019-09-30T21:47:06+08:00</xmp:CreateDate>
         <xmp:MetadataDate>2019-09-30T21:47:06+08:00</xmp:MetadataDate>
         <xmp:ModifyDate>2019-09-30T21:47:06+08:00</xmp:ModifyDate>
         <xmp:Thumbnails>
            <rdf:Alt>
               <rdf:li rdf:parseType="Resource">
                  <xmpGImg:width>256</xmpGImg:width>
                  <xmpGImg:height>256</xmpGImg:height>
                  <xmpGImg:format>JPEG</xmpGImg:format>
                  <xmpGImg:image>/9j/4AAQSkZJRgABAgEASABIAAD/7QAsUGhvdG9zaG9wIDMuMAA4QklNA+0AAAAAABAASAAAAAEA&#xA;AQBIAAAAAQAB/+4ADkFkb2JlAGTAAAAAAf/bAIQABgQEBAUEBgUFBgkGBQYJCwgGBggLDAoKCwoK&#xA;DBAMDAwMDAwQDA4PEA8ODBMTFBQTExwbGxscHx8fHx8fHx8fHwEHBwcNDA0YEBAYGhURFRofHx8f&#xA;Hx8fHx8fHx8fHx8fHx8fHx8fHx8fHx8fHx8fHx8fHx8fHx8fHx8fHx8fHx8f/8AAEQgBAAEAAwER&#xA;AAIRAQMRAf/EAaIAAAAHAQEBAQEAAAAAAAAAAAQFAwIGAQAHCAkKCwEAAgIDAQEBAQEAAAAAAAAA&#xA;AQACAwQFBgcICQoLEAACAQMDAgQCBgcDBAIGAnMBAgMRBAAFIRIxQVEGE2EicYEUMpGhBxWxQiPB&#xA;UtHhMxZi8CRygvElQzRTkqKyY3PCNUQnk6OzNhdUZHTD0uIIJoMJChgZhJRFRqS0VtNVKBry4/PE&#xA;1OT0ZXWFlaW1xdXl9WZ2hpamtsbW5vY3R1dnd4eXp7fH1+f3OEhYaHiImKi4yNjo+Ck5SVlpeYmZ&#xA;qbnJ2en5KjpKWmp6ipqqusra6voRAAICAQIDBQUEBQYECAMDbQEAAhEDBCESMUEFURNhIgZxgZEy&#xA;obHwFMHR4SNCFVJicvEzJDRDghaSUyWiY7LCB3PSNeJEgxdUkwgJChgZJjZFGidkdFU38qOzwygp&#xA;0+PzhJSktMTU5PRldYWVpbXF1eX1RlZmdoaWprbG1ub2R1dnd4eXp7fH1+f3OEhYaHiImKi4yNjo&#xA;+DlJWWl5iZmpucnZ6fkqOkpaanqKmqq6ytrq+v/aAAwDAQACEQMRAD8A9U4q7FXYq7FXYq7FXYq7&#xA;FXYq7FXYq7FXYq7FXYq7FXYq7FXYq7FXYq7FXYq7FXYq7FXYq7FXk/8Azkx/5LqL/toQf8m5cqzc&#xA;nYdmf3vwfK+Yz0DsVdir9AMznj3Yq7FXYq7FXYq7FXYq7FXYq7FWndERndgqKCWYmgAG5JJxVZb3&#xA;FvcwpPbypNBIKxyxsGRh4hhUHFVTFXYq7FXYq7FXYq7FXYq7FXYq7FXYq7FXYq7FXlX/ADknDLL+&#xA;XkaxI0jfpCA8VBJpwk8MqzcnYdmn958Hy5+jtQ/5Zpf+Ab+mY1O+4h3u/R2of8s0v/AN/TGl4h3u&#xA;/R2of8s0v/AN/TGl4h3vvjM55F2KuxV2KuxV2KuxV2KuxV2KuxV8r/8AOZn5kXUL6d5F026aJJI/&#xA;rutrG1OaseNvC9O3ws7KevwnwxV81aD5v81+X3LaFrF7pZY8nFpcSwhj/lBGUN9OKvQ9E/5yl/On&#xA;S6K+tJqMQ6R3tvDJ97oscv8Aw2KvQ/Lf/Obmtpcovmby7bTWp2kl015IZF9xHM0wb5c1+eKvofyD&#xA;+bXkLz3bCTy9qcc1yF5TadL+6u4/HlC25A/mWq++KswxV2KuxV2KuxV2KuxV2KuxV2KuxV2KuxV2&#xA;KuxV2KuxV2KuxV2KuxV2KuxV2KuxV2KpX5p8y6T5Y8vX+v6vL6On6fE00zbVNNlRQaVd2oqjuTir&#xA;82vOvmvUfNvmvU/Meon/AErUp2mKVqI0+zHEp/ljQBR7DFUkxV2KuxVXsr69sLuK8sbiS1u4G5w3&#xA;EDtHIjDoyupDKflir6k/Ij/nKq5murfy1+YNwreqRHY+YWolGOypd0otD0Ev/Bd2Cr6pBBFRuD0O&#xA;KuxV2KuxV2KuxV2KuxV2KuxV2KuxV2KuxV2KuxV2KuxV2KuxV2KuxV2KuxV2KvjH/nLj82Tr3mNf&#xA;JWlT8tI0SQnUWQ/DNfgEFT4iAEr/AKxbwGKvnnFXYq7FXYq7FXYq+s/+cUPzylu/T/L7zJcl7hF/&#xA;5168lNSyIN7RmPdQKxV7VXsoxV9Q4q7FXYq7FXYq7FXYq7FXYq7FXYq7FXYq7FXYq7FXYq7FXYq7&#xA;FXYq7FXYqw/83fPC+SPy81nzCtDdW8Pp2CHvczkRQ7HqFZuTDwBxV+b000s8zzTO0k0rF5JGJLMz&#xA;GpYk9STiqzFXYq7FXYq7FXYqrWd3dWV3BeWkrQXVtIs0EyGjJJGwZWU9iCKjFX6YeQ/M1v5o8maN&#xA;5ggfmuo2kUzkClJeNJVp/kyBlxVPsVdirsVdirsVdirsVdirsVdirsVdirsVdirsVdirsVdirsVd&#xA;irsVdir5y/5zbvbiPyRoFkjUguNSaWUeLQwME+j94cVfHGKuxV2KuxV2KuxV2Ko/QNGvNc1zT9Gs&#xA;hW71K5itIAenOZwi19qtvir9MPKnlvTvLPlvTtA01eNlpsCW8VercR8Tt/lO1WPucVTXFXYq7FXY&#xA;q7FXYq7FXYq7FXYq7FXYq7FXYq7FXYq7FXYq7FXYq7FXYq8a/wCcsfK0mt/lFd3UEXqXOh3EWoKF&#xA;HxemtYpvoWOUuf8AVxV8IYq7FXYq7FXYq7FXYqj9B1i70TXNP1mzp9b025hu7fl09SCQSLWnaq4q&#xA;/S3yf5msfNHlfS/MNif9G1O3juFWtSjMPjjJ/mR6qfcYqnGKuxV2KuxV2KuxV2KuxV2KuxV2KuxV&#xA;2KuxV2KuxV2KuxV2KuxV2KuxVZPBDcQSQTossMqlJY3AZWVhRlYHqCMVfnn+en5Vz/l152m09GWT&#xA;R77ldaO/IM4t2Yj05B1DRn4a/tdfYKvOsVdirsVdirsVdirsVfYP/OFXnH635Z1jynPJWXS51vLN&#xA;Sd/QudpFX2SVOR93xV9J4q7FXYq7FXYq7FXYq7FXYq7FXYq7FXYq7FXYq7FXYq7FXYq7FXYq7FXY&#xA;q/PX/nInzi3mn82tbuUfnZ6dJ+jLLwEdoSjU9mm9Rx88Vea4q7FXYq7FXYq7FXYq9O/5xw84N5X/&#xA;ADc0WZ5OFnqj/ou83oCl2QsfI+CzCNjXwxV+g2KuxV2KuxV2KuxV2KuxV2KuxV2KuxV2KuxV2Kux&#xA;V2KuxV2KuxV2KuxVI/PPmRPLPk3WvMDAMdMs5rmND0aREJjX/ZPQYq/MqWWSaV5ZWLyyMXdzuSzG&#xA;pJ+ZxVZirsVdirsVdirsVdiq+KWSGVJYmKSxsHRxsQymoI+RxV+mnkTzGPM3kvRNf2DanZQXEqjo&#xA;sjoDIv8AsXqMVT3FXYq7FXYq7FXYq7FXYq7FXYq7FXYq7FXYq7FXYq7FXYq7FXYq7FXjf/OWut/o&#xA;38mb63Bo+rXVrYqe/wBv6w1PmtuRir4PxV2KuxV2KuxV2KuxV2KuxV96/wDOKGozXn5K6THJ/wAe&#xA;U93bo1akr67SD7vUp9GKvX8VdirsVdirsVdirsVdirsVdirsVdirsVdirsVdirsVdirsVdirsVfN&#xA;v/Obt26+UfLdoHok2oSymPxMUJUN/sfVP34q+PcVdirsVdirsVdirsVdirsVfen/ADifZ/V/yS0i&#xA;X/lrnvJutely8X/MrFXsGKuxV2KuxV2KuxV2KuxV2KuxV2KuxV2KuxV2KuxV2KuxV2KuxV2Kvmn/&#xA;AJzftg3lnyxc8STFezx8v2R6kStQ+59PbFXyDirsVdirsVdirsVdirsVdir7/wD+cXP/ACRPln/o&#xA;+/7qFxir1XFXYq7FXYq7FXYq7FXYq7FXYq7FXYq7FXYq7FXYq7FXYq7FXYq7FXgP/OaNms35Xadc&#xA;9HttXhI91e3nUj76Yq+KcVdirsVdirsVdirsVdirsVfoV/zjd/5JLyt/xgm/6iZcVelYq7FXYq7F&#xA;XYq7FXYq7FXYq7FXYq7FXYq7FXYq7FXYq7FXYq7FXYq8d/5yztDP+SmqSitLW5s5TTpvcLFv/wAj&#xA;MVfBuKuxV2KuxV2KuxV2KuxV2Kv0K/5xu/8AJJeVv+ME3/UTLir0rFXYq7FXYq7FXYq7FXYq7FXY&#xA;q7FXYq7FXYq7FXYq7FXYq7FXYq7FXmv/ADkjZ/W/yS80xUrxghm60/uLmKX/AI0xV+euKuxV2Kux&#xA;V2KuxV2KuxV2Kv0K/wCcbv8AySXlb/jBN/1Ey4q9KxV2KuxV2KuxV2KuxV2KuxV2KuxV2KuxV2Ku&#xA;xV2KuxV2KuxV2KuxVhP53Wv1r8ovN8dCeOl3MtB1/coZK/8ACb4q/OHFXYq7FXYq7FXYq7FXYq7F&#xA;X33/AM4r3Tz/AJH6Ar1Jge8iDE1JAvJWH3BqYq9ZxV2KuxV2KuxV2KuxV2KuxV2KuxV2KvB/+hq7&#xA;D/qXJf8ApKX/AKpZR43k7b+Sj/O+x3/Q1dh/1Lkv/SUv/VLHxvJf5KP877Hf9DV2H/UuS/8ASUv/&#xA;AFSx8byX+Sj/ADvsd/0NXYf9S5L/ANJS/wDVLHxvJf5KP877Hf8AQ1dh/wBS5L/0lL/1Sx8byX+S&#xA;j/O+x3/Q1dh/1Lkv/SUv/VLHxvJf5KP877Hf9DV2H/UuS/8ASUv/AFSx8byX+Sj/ADvsd/0NXYf9&#xA;S5L/ANJS/wDVLHxvJf5KP877Hf8AQ1dh/wBS5L/0lL/1Sx8byX+Sj/O+xJvOn/OS9lq3k7XdKTy+&#xA;6Pf6dd2qu9wrqpmgeMFl9MVA5biuEZrLGfZhjEni5PjzLnVtgkEEGhG4I61xV9nRf85MeW3iR/8A&#xA;CC/EoO0sVNx/xhynxvJ2o7LJF8X2Lv8AoZXy3/1KC/8AI2L/AKo4PG8k/wAlH+d9jv8AoZXy3/1K&#xA;C/8AI2L/AKo4+N5L/JR/nfY7/oZXy3/1KC/8jYv+qOPjeS/yUf532MR/Nn89ND8xfl5rOi2/loWU&#xA;15HGqXQkjbhxmR60Ean9mnXJRy2aa83ZxxwMr5PlzLXWuxV9Pfkb+fln5Q/Lmw0GTRpLx7aW4Yzr&#xA;OsYPqzM9OJRunLxyqWWjTsNPoDkhxXTPv+hq7D/qXJf+kpf+qWR8bybv5KP877Hf9DV2H/UuS/8A&#xA;SUv/AFSx8byX+Sj/ADvsd/0NXYf9S5L/ANJS/wDVLHxvJf5KP877Hf8AQ1dh/wBS5L/0lL/1Sx8b&#xA;yX+Sj/O+x7F5S8wJ5i8t6fraQG2W/iEogLcytSRTkAtenhl0TYt1ubHwSMe5NsLW7FXYq7FXYq7F&#xA;XYq/P/MF7B2KuxV2KuxV2KuxV2KuxVQvV5WVwvjG4+9Thjza8ouB9zzLM15N2KvS9Mk9TTrV/wCa&#xA;JCfnxGYUub1eA3CJ8gicDa7FXYqlnmP/AI4l1/qj/iQyeP6g4mt/upPPsy3mnYqzryiCNGSvd3I+&#xA;/MXL9T0PZ3918U6ytz3Yq7FXYq+0Pyg/8ln5e/5hB/xI5l4/pDzGs/vZe9mGTcZ2KuxV2KuxV2Ku&#xA;xV4v/wBCteUP+rtqH/JH/qnlPgh2f8qT7g7/AKFa8of9XbUP+SP/AFTx8EL/ACpPuDv+hWvKH/V2&#xA;1D/kj/1Tx8EL/Kk+4O/6Fa8of9XbUP8Akj/1Tx8EL/Kk+4O/6Fa8of8AV21D/kj/ANU8fBC/ypPu&#xA;Dv8AoVryh/1dtQ/5I/8AVPHwQv8AKk+4O/6Fa8of9XbUP+SP/VPHwQv8qT7g7/oVryh/1dtQ/wCS&#xA;P/VPHwQv8qT7g7/oVryh/wBXbUP+SP8A1Tx8EL/Kk+4LJf8AnFjyk8Tqur34ZlIBPokVI7/u8fBC&#xA;ntSZ6B8LZc6x2Kvpr8n/AMuvys138u9J1LXPNsemarL663Ni11aRGP07iRE+CUcxyjVW38cqliBN&#xA;ufi7QnCIiANmZf8AKnfyR/6nyL/pOsMHghs/lSfcFaD8kfycuATB51WYL9ox3li1K+NBj4IX+VJ9&#xA;wWTfkv8AkvC5jm88JHIOqPe2Knf2Ix8EL/Kk+4MW/Mz8r/ym0zyHrV/pPnCO/wBRt7cvbWYvLOQy&#xA;PUfDwj+M/RhGIA2wy9oznExIG75Zy117sVfVX5C/kT5d82/lnp+uXuoXlvcXEtyjRQ+lwAjmZBTk&#xA;jHovjlcsYJtzsGvljjwgB6F/0K15Q/6u2of8kf8AqnkfBDb/ACpPuDv+hWvKH/V21D/kj/1Tx8EL&#xA;/Kk+4O/6Fa8of9XbUP8Akj/1Tx8EL/Kk+4O/6Fa8of8AV21D/kj/ANU8fBC/ypPuD1XyxoFt5e0C&#xA;x0W2keWCxjEUcklObAEmrcQB3y0ChTgZchnIyPVM8LW7FXYq7FXYq7FXYq7FXYq7FXYq7FXYq7FX&#xA;Yq7FXYq/K6WNo5HjanJGKtQ1FQadRiqzFXYq7FXYq7FXYq7FXYq+9f8AnE//AMklpH/Ge8/6iXxV&#xA;6/irsVdirsVdirsVdirsVdirsVdirsVdirsVdirsVdirsVdirsVdirsVfltq0HoareQcPT9KeVPT&#xA;pTjxcilPbFUJirsVdirsVdirsVdirsVfev8Azif/AOSS0j/jPef9RL4q9fxV2KuxV2KuxV2KuxV2&#xA;KuxV2KuxV2KuxV2KuxV2KuxV2KuxV2KuxV2KvzT/ADSs1svzM82Wqrwjh1i/WNT/ACfWX4dP8mmK&#xA;sXxV2KuxV2KuxV2KuxV2Kvvj/nFOF4/yP0J2pSaW9dKeAvJU3+lTir1zFXYq7FXYq7FXYq7FXYq7&#xA;FXYq7FXYq7FXYq7FXYq7FXYq7FXYq7FXYq/O7/nIK1Fr+c/muMADleer8PT99Gkn3/HvirzzFXYq&#xA;7FXYq7FXYq7FXYq/Qv8A5xx02XT/AMk/KtvJuz28tyP9W6uJbhf+FlGKvScVdirsVdirsVdirsVd&#xA;irsVdirsVdirsVdirsVdirsVdirsVdirsVdir8//APnKJVX89fM4UACtkaDbc6fbkn78VeV4q7FX&#xA;Yq7FXYq7FXYqmPl3Qr/X9e0/RNPXle6lcR2sANac5WCgtTsK1Ptir9NtD0i10bRNP0e0r9V022ht&#xA;IK9fTgjEa1+hcVRuKuxV2KuxV2KuxV2KuxV2KuxV2KuxV2KuxV2KuxV2KuxV2KuxV2KuxV8D/wDO&#xA;VdpNB+eOvSyCiXUdlNCfFBZxRH/ho2xV5HirsVdirsVdirsVdir6L/5ww8lW2p+b9U803S8v0DCk&#xA;Vkp/5aLwOpf/AGMSMP8AZYq+ycVdirsVdirsVdirsVdirsVdirsVdirsVdirsVdirsVdirsVdirs&#xA;VdirsVfHH/ObcNovnjQJUUC7k00iZh1KLO/p1+kvir5yxV2KuxV2KuxV2KuxV9pf84WabHB+WuqX&#xA;9QZbzVZFYA1okMEQUEdjV2Pypir6CxV2KuxV2KuxV2KuxV2KuxV2KuxV2KuxV2KuxV2KuxV2KuxV&#xA;2KuxV2KuxV8Qf85kTXkn5txJOpWGLS7ZLQkUDRmSVyR4/vGYYq8KxV2KuxV2KuxV2KuxV7x/ziH5&#xA;/utE/MH/AAzNMF0rzEjL6bn4Vu4ULxMvgXUMn+VVfAYq+3MVdirsVdirsVdirsVdirsVdirsVdir&#xA;sVdirsVdirsVdirsVdirsVdirsVYD+bP5LeU/wAy7GCPVjLa6jZhhY6nbkepGH3KMrAq6EgHid/A&#xA;jFXzl5i/5wq89Whd9C1ix1WJfspMJLSY/JaTR/fJirA7/wD5xr/O2y3l8sTSLWgME9rPX3pFK7fe&#xA;MVSg/kn+bgNP8Iar/wBIsn9MVS/XPyz/ADC0HT31LWfLmoWFhGVWS6nt5EjUsaLyYigqdt++KsZx&#xA;V2KuxVOPJ0ssPm7Q5YnMcsd/asjqaEETKQQRir9PMVdirsVdirsVdirsVdirsVdirsVdirsVdirs&#xA;VdirsVdirsVdirsVdirsVdirsVdirsVQes6PputaVd6TqcC3On30TwXMD9GRxQj29iOmKvzs/N38&#xA;s9S/LvzndaFclpbNv3+l3hFBPbOTwb/WWhVx4jwpirCsVdiqP0C21G513T7fTI2l1GW5iWzjTkWa&#xA;UuOAHH4vteGKv1FxV2KuxV2KuxV2KuxV2KuxV2KuxV2KuxV2KuxV2KuxV2KuxV2KuxV2KuxV2Kux&#xA;V2KuxV2KsA/OT8n9G/M3y9Fp13N9R1GzkMunakqCRomYUdGUleSOAOQ5DcA9sVfMur/84afmha3w&#xA;i06707ULRj8Nz6rwFRWn7yN0NP8AYlsVTjT/APnCLzdIoOo+ZNPt27i3imnHTxcQfqxV7h+T/wDz&#xA;j95S/LiL62pGreY3qJNYmjClFIpwt46v6Qp1NSx7mmwVeo4q7FXYq7FXYq7FXYq7FXYq7FXYq7FX&#xA;Yq//2Q==</xmpGImg:image>
               </rdf:li>
            </rdf:Alt>
         </xmp:Thumbnails>
      </rdf:Description>
      <rdf:Description rdf:about=""
            xmlns:xmpTPg="http://ns.adobe.com/xap/1.0/t/pg/"
            xmlns:stDim="http://ns.adobe.com/xap/1.0/sType/Dimensions#"
            xmlns:xmpG="http://ns.adobe.com/xap/1.0/g/">
         <xmpTPg:MaxPageSize rdf:parseType="Resource">
            <stDim:w>299.998915</stDim:w>
            <stDim:h>299.998743</stDim:h>
            <stDim:unit>Millimeters</stDim:unit>
         </xmpTPg:MaxPageSize>
         <xmpTPg:NPages>1</xmpTPg:NPages>
         <xmpTPg:HasVisibleTransparency>False</xmpTPg:HasVisibleTransparency>
         <xmpTPg:HasVisibleOverprint>False</xmpTPg:HasVisibleOverprint>
         <xmpTPg:PlateNames>
            <rdf:Seq>
               <rdf:li>Cyan</rdf:li>
               <rdf:li>Magenta</rdf:li>
               <rdf:li>Yellow</rdf:li>
               <rdf:li>Black</rdf:li>
            </rdf:Seq>
         </xmpTPg:PlateNames>
         <xmpTPg:SwatchGroups>
            <rdf:Seq>
               <rdf:li rdf:parseType="Resource">
                  <xmpG:groupName>Default Swatch Group</xmpG:groupName>
                  <xmpG:groupType>0</xmpG:groupType>
               </rdf:li>
            </rdf:Seq>
         </xmpTPg:SwatchGroups>
      </rdf:Description>
      <rdf:Description rdf:about=""
            xmlns:dc="http://purl.org/dc/elements/1.1/">
         <dc:format>image/svg+xml</dc:format>
      </rdf:Description>
      <rdf:Description rdf:about=""
            xmlns:xmpMM="http://ns.adobe.com/xap/1.0/mm/"
            xmlns:stRef="http://ns.adobe.com/xap/1.0/sType/ResourceRef#"
            xmlns:stEvt="http://ns.adobe.com/xap/1.0/sType/ResourceEvent#">
         <xmpMM:DerivedFrom rdf:parseType="Resource">
            <stRef:instanceID>xmp.iid:085A81E56D21681180839FCCDFDC130E</stRef:instanceID>
            <stRef:documentID>xmp.did:085A81E56D21681180839FCCDFDC130E</stRef:documentID>
            <stRef:originalDocumentID>xmp.did:F63F1AA85321681180839FCCDFDC130E</stRef:originalDocumentID>
         </xmpMM:DerivedFrom>
         <xmpMM:DocumentID>xmp.did:AE4842987621681180839FCCDFDC130E</xmpMM:DocumentID>
         <xmpMM:InstanceID>xmp.iid:AE4842987621681180839FCCDFDC130E</xmpMM:InstanceID>
         <xmpMM:OriginalDocumentID>xmp.did:F63F1AA85321681180839FCCDFDC130E</xmpMM:OriginalDocumentID>
         <xmpMM:History>
            <rdf:Seq>
               <rdf:li rdf:parseType="Resource">
                  <stEvt:action>saved</stEvt:action>
                  <stEvt:instanceID>xmp.iid:F63F1AA85321681180839FCCDFDC130E</stEvt:instanceID>
                  <stEvt:when>2019-09-30T18:39:11+08:00</stEvt:when>
                  <stEvt:softwareAgent>Adobe Illustrator CS6 (Macintosh)</stEvt:softwareAgent>
                  <stEvt:changed>/</stEvt:changed>
               </rdf:li>
               <rdf:li rdf:parseType="Resource">
                  <stEvt:action>saved</stEvt:action>
                  <stEvt:instanceID>xmp.iid:AE4842987621681180839FCCDFDC130E</stEvt:instanceID>
                  <stEvt:when>2019-09-30T21:47:06+08:00</stEvt:when>
                  <stEvt:softwareAgent>Adobe Illustrator CS6 (Macintosh)</stEvt:softwareAgent>
                  <stEvt:changed>/</stEvt:changed>
               </rdf:li>
            </rdf:Seq>
         </xmpMM:History>
      </rdf:Description>
   </rdf:RDF>
</x:xmpmeta>
                                                                                                    
                                                                                                    
                                                                                                    
                                                                                                    
                                                                                                    
                                                                                                    
                                                                                                    
                                                                                                    
                                                                                                    
                                                                                                    
                                                                                                    
                                                                                                    
                                                                                                    
                                                                                                    
                                                                                                    
                                                                                                    
                                                                                                    
                                                                                                    
                                                                                                    
                                                                                                    
                           
<?xpacket end="w"?>
	</metadata>
<polyline fill="#FFFFFF" points="111.026,567.853 645.026,567.853 645.026,481.187 111.026,481.187 "/>
<polyline fill="#7A2426" points="111.026,544.853 645.026,544.853 645.026,504.187 111.026,504.187 "/>
<path fill-rule="evenodd" clip-rule="evenodd" d="M341.69,288.132c-1.352-1.284-2.954-2.392-3.998-3.89
	c-1.858-2.668-3.4-5.561-5.028-8.386c-0.541-0.939-0.762-2.107-1.433-2.919c-3.551-4.302-4.86-9.489-6.049-14.741
	c-0.36-1.592-0.519-3.271-1.144-4.752c-1.117-2.647-1.373-5.387-1.479-8.185c-0.062-1.631-0.274-3.268-0.191-4.89
	c0.123-2.394,0.225-4.827,0.747-7.151c0.605-2.691,1.617-5.296,2.524-7.915c1.014-2.929,1.871-5.945,3.218-8.72
	c2.735-5.637,5.141-11.446,8.559-16.746c1.968-3.052,3.636-6.295,5.578-9.363c1.992-3.146,4.056-6.256,6.265-9.252
	c4.647-6.306,7.766-13.446,11.197-20.401c2.12-4.298,3.743-8.843,5.56-13.289c1.362-3.333,3.604-5.895,6.461-8.068
	c2.581-1.963,5.276-2.005,8.154-1.126c2.739,0.836,5.415,1.933,8.199,2.553c4.842,1.079,9.747,1.87,14.622,2.8
	c5.485,1.046,10.966,2.119,16.451,3.168c1.903,0.364,3.81,0.953,5.723,0.991c5.286,0.105,10.014,1.999,14.668,4.188
	c3,1.412,5.99,2.86,8.898,4.451c2.983,1.633,6.408,2.431,9.016,4.786c0.387,0.35,0.961,0.497,1.457,0.719
	c5.323,2.387,10.286,5.356,14.763,9.116c1.065,0.896,2.214,1.701,3.222,2.655c1.688,1.596,3.271,3.3,4.937,4.92
	c3.336,3.244,6.703,6.457,10.041,9.7c0.329,0.319,0.542,0.756,0.809,1.139c0.798,1.146,1.565,2.314,2.401,3.43
	c1.584,2.113,3.232,4.178,4.809,6.297c1.852,2.49,3.758,4.95,5.445,7.549c1.295,1.993,3.12,3.908,3.178,6.367
	c0.082,3.473,1.082,6.585,2.77,9.5c1.707,2.949,1.121,5.801-0.422,8.397c-1.716,2.889-3.16,5.883-4.385,8.98
	c-1.021,2.588-2.066,5.235-2.536,7.953c-0.47,2.712-0.31,5.521,1.493,7.976c1.094,1.491,2.057,3.116,2.837,4.793
	c1.604,3.449,2.897,7.048,4.599,10.445c1.789,3.572,2.734,7.42,4.099,11.127c1.471,3.998,2.7,8.084,4.077,12.117
	c1.179,3.45,2.479,6.859,3.611,10.324c1.277,3.913,2.443,7.862,3.627,11.805c1.583,5.274,3.337,10.509,4.643,15.853
	c1.251,5.115,1.886,10.379,3.049,15.519c0.895,3.946,0.793,7.9,0.594,11.848c-0.27,5.342-0.98,10.661-1.229,16.003
	c-0.303,6.521-0.316,13.056-0.463,19.583c-0.104,4.664-0.241,9.326-0.325,13.99c-0.138,7.702-0.307,15.405-0.34,23.108
	c-0.019,4.354,0.272,8.707,0.308,13.061c0.055,7.01-0.102,14.023,0.071,21.029c0.069,2.826-0.364,5.73,0.635,8.506
	c0.102,0.281,0.062,0.617,0.067,0.928c0.215,11.203,0.424,22.404,0.652,33.605c0.022,1.084,0.217,2.162,0.259,3.244
	c0.143,3.725,0.378,7.453,0.338,11.176c-0.034,3.254-0.565,6.504-0.577,9.758c-0.062,17.119-0.027,34.24-0.035,51.361
	c0,0.775-0.102,1.553-0.115,2.328c-0.067,3.949-0.123,7.9-0.178,11.85c-0.002,0.152,0.066,0.307,0.07,0.461
	c0.056,2.316,0.203,4.637,0.137,6.949c-0.107,3.729-0.428,7.449-0.526,11.178c-0.095,3.568-0.01,7.141-0.029,10.713
	c-0.005,0.771-0.067,1.553-0.19,2.314c-0.846,5.291-1.692,10.58-2.588,15.861c-0.31,1.832-0.66,3.67-1.172,5.453
	c-0.512,1.785-1.225,3.514-1.892,5.252c-0.583,1.52-1.216,3.021-1.84,4.525c-1.103,2.654-2.163,5.328-3.337,7.951
	c-1.234,2.762-2.475,5.531-3.911,8.189c-1.243,2.301-2.021,4.67-2.331,7.26c-0.479,4.006-1.039,8.004-1.672,11.988
	c-0.55,3.453-1.199,6.893-1.906,10.316c-0.277,1.342,0.083,2.418,0.729,3.537c1.2,2.076,2.328,4.195,3.483,6.299
	c0.224,0.408,0.343,0.924,0.667,1.217c2.879,2.6,3.584,6.248,4.07,9.711c0.379,2.705,1.527,4.811,2.855,6.98
	c0.365,0.598,0.697,1.221,1.106,1.787c0.717,0.99,0.925,2.074,0.931,3.287c0.033,7.088,0.1,14.176,0.217,21.264
	c0.017,0.975,0.281,1.977,0.596,2.91c0.514,1.521,0.65,2.979,0.206,4.564c-0.368,1.314-0.559,2.719-0.565,4.086
	c-0.006,1.195-0.287,2.047-1.254,2.805c-0.844,0.658-1.475,1.58-2.244,2.34c-0.546,0.541-1.136,1.047-1.76,1.492
	c-1.26,0.9-2.617,1.676-3.826,2.637c-2.56,2.035-5.02,4.197-7.59,6.217c-0.691,0.543-1.607,0.98-2.47,1.094
	c-2.313,0.301-4.651,0.418-6.981,0.576c-6.285,0.426-12.53,1.008-18.678,2.566c-3.642,0.922-7.51,1.014-11.076-0.201
	c-3.768-1.283-7.52-2.523-11.452-3.07c-1.645-0.229-2.583-1.037-3.465-2.352c-7.382-10.986-14.844-21.922-22.22-32.912
	c-0.879-1.309-1.807-1.93-3.414-1.811c-3.08,0.232-6.171,0.391-9.259,0.41c-3.732,0.021-7.473-0.305-11.196-0.158
	c-3.165,0.123-6.293,0.686-9.495,0.215c-3.067-0.449-6.173-0.658-9.268-0.904c-3.622-0.287-7.174-1.348-10.863-0.959
	c-0.757,0.082-1.562-0.045-2.313-0.213c-5.528-1.238-11.054-2.488-16.569-3.779c-2.941-0.688-5.871-1.436-8.791-2.213
	c-1.198-0.318-2.333-0.885-3.537-1.17c-2.097-0.494-3.821-1.639-5.53-2.857c-2.985-2.127-4.476-5.322-5.973-8.477
	c-1.399-2.949-1.758-5.994-1.031-9.301c0.914-4.164,1.429-8.422,1.988-12.654c0.427-3.232,0.529-6.512,1.026-9.73
	c0.228-1.473-0.039-2.705-0.489-4.043c-2.238-6.648-4.269-13.348-3.775-20.498c0.144-2.078,0.145-4.137,0.054-6.229
	c-0.318-7.293,0.353-14.613-0.672-21.896c-0.334-2.375-0.282-4.805-0.441-7.205c-0.317-4.803-0.65-9.605-0.995-14.406
	c-0.122-1.701-0.291-3.4-0.449-5.1c-0.093-1.002-0.226-2-0.306-3.004c-0.364-4.568-0.373-9.197-1.149-13.693
	c-1.371-7.939-1.057-15.955-1.627-23.926c-0.088-1.217,0.381-2.469,0.333-3.693c-0.149-3.801-0.562-7.592-0.621-11.393
	c-0.152-9.943,0.046-19.879-1.042-29.814c-0.726-6.629-0.486-13.359-0.759-20.041c-0.148-3.641-0.509-7.273-0.683-10.914
	c-0.074-1.543,0.084-3.1,0.137-4.65c0.045-1.314,0.209-2.639,0.111-3.945c-0.388-5.182-0.922-10.352-1.273-15.537
	c-0.259-3.795-0.305-7.604-0.472-11.406c-0.085-1.939-0.207-3.881-0.354-5.818c-0.326-4.332-0.698-8.662-1.011-12.996
	c-0.162-2.248-0.195-4.506-0.358-6.754c-0.325-4.488-0.709-8.973-1.051-13.459c-0.354-4.648-0.725-9.295-1.014-13.946
	c-0.287-4.625-1.267-9.197-1.036-13.861c0.022-0.461,0.026-0.957-0.115-1.387c-1.03-3.121-0.555-6.322-0.581-9.499
	c-0.007-0.833-0.009-1.741-0.325-2.481c-1.089-2.555-1.251-5.319-0.566-7.795c0.813-2.941,0.376-5.866,0.798-8.77
	c0.244-1.674,0.149-3.395,0.238-5.092c0.063-1.223,0.115-2.452,0.289-3.662c0.152-1.063,0.53-2.094,0.693-3.157
	c0.176-1.149,0.129-2.335,0.333-3.479c0.848-4.739,1.66-9.487,2.661-14.195c1.034-4.858,1.408-9.859,3.125-14.573
	c0.662-1.819,1.458-3.621,1.849-5.503c1.456-7.019,3.54-13.854,5.88-20.611c1.571-4.54,3.336-9.012,5.022-13.538
	C342.244,288.656,341.966,288.395,341.69,288.132z M375.152,492.158c0.163,2.035,0.306,3.938,0.471,5.838
	c0.705,8.133,1.563,16.256,2.083,24.4c0.457,7.166,1.86,14.172,2.955,21.234c0.533,3.445,0.585,6.965,0.853,10.449
	c0.059,0.762,0.108,1.523,0.158,2.225c1.864,0.533,98.096,0.648,100.923,0.113c0.115-21.301-1.477-42.645-0.514-64.26
	C446.346,492.158,410.884,492.158,375.152,492.158z"/>
<rect x="744.359" y="94.39" fill="#7A2426" width="73.334" height="43.398"/>
</svg>
