<?xml version="1.0" encoding="utf-8"?>
<!-- Generator: Adobe Illustrator 16.0.0, SVG Export Plug-In . SVG Version: 6.00 Build 0)  -->
<!DOCTYPE svg PUBLIC "-//W3C//DTD SVG 1.1//EN" "http://www.w3.org/Graphics/SVG/1.1/DTD/svg11.dtd" [
	<!ENTITY ns_flows "http://ns.adobe.com/Flows/1.0/">
	<!ENTITY ns_extend "http://ns.adobe.com/Extensibility/1.0/">
	<!ENTITY ns_ai "http://ns.adobe.com/AdobeIllustrator/10.0/">
	<!ENTITY ns_graphs "http://ns.adobe.com/Graphs/1.0/">
	<!ENTITY ns_vars "http://ns.adobe.com/Variables/1.0/">
	<!ENTITY ns_imrep "http://ns.adobe.com/ImageReplacement/1.0/">
	<!ENTITY ns_sfw "http://ns.adobe.com/SaveForWeb/1.0/">
	<!ENTITY ns_custom "http://ns.adobe.com/GenericCustomNamespace/1.0/">
	<!ENTITY ns_adobe_xpath "http://ns.adobe.com/XPath/1.0/">
]>
<svg version="1.1" id="Layer_1" xmlns:x="&ns_extend;" xmlns:i="&ns_ai;" xmlns:graph="&ns_graphs;"
	 xmlns="http://www.w3.org/2000/svg" xmlns:xlink="http://www.w3.org/1999/xlink" xmlns:a="http://ns.adobe.com/AdobeSVGViewerExtensions/3.0/"
	 x="0px" y="0px" width="850.391px" height="850.39px" viewBox="0 0 850.391 850.39" enable-background="new 0 0 850.391 850.39"
	 xml:space="preserve">
<metadata><?xpacket begin="﻿" id="W5M0MpCehiHzreSzNTczkc9d"?>
<x:xmpmeta xmlns:x="adobe:ns:meta/" x:xmptk="Adobe XMP Core 5.3-c011 66.145661, 2012/02/06-14:56:27        ">
   <rdf:RDF xmlns:rdf="http://www.w3.org/1999/02/22-rdf-syntax-ns#">
      <rdf:Description rdf:about=""
            xmlns:xmp="http://ns.adobe.com/xap/1.0/"
            xmlns:xmpGImg="http://ns.adobe.com/xap/1.0/g/img/">
         <xmp:CreatorTool>Adobe Illustrator CS6 (Macintosh)</xmp:CreatorTool>
         <xmp:CreateDate>2019-09-30T21:39:53+08:00</xmp:CreateDate>
         <xmp:MetadataDate>2019-09-30T21:39:53+08:00</xmp:MetadataDate>
         <xmp:ModifyDate>2019-09-30T21:39:53+08:00</xmp:ModifyDate>
         <xmp:Thumbnails>
            <rdf:Alt>
               <rdf:li rdf:parseType="Resource">
                  <xmpGImg:width>192</xmpGImg:width>
                  <xmpGImg:height>256</xmpGImg:height>
                  <xmpGImg:format>JPEG</xmpGImg:format>
                  <xmpGImg:image>/9j/4AAQSkZJRgABAgEASABIAAD/7QAsUGhvdG9zaG9wIDMuMAA4QklNA+0AAAAAABAASAAAAAEA&#xA;AQBIAAAAAQAB/+4ADkFkb2JlAGTAAAAAAf/bAIQABgQEBAUEBgUFBgkGBQYJCwgGBggLDAoKCwoK&#xA;DBAMDAwMDAwQDA4PEA8ODBMTFBQTExwbGxscHx8fHx8fHx8fHwEHBwcNDA0YEBAYGhURFRofHx8f&#xA;Hx8fHx8fHx8fHx8fHx8fHx8fHx8fHx8fHx8fHx8fHx8fHx8fHx8fHx8fHx8f/8AAEQgBAADAAwER&#xA;AAIRAQMRAf/EAaIAAAAHAQEBAQEAAAAAAAAAAAQFAwIGAQAHCAkKCwEAAgIDAQEBAQEAAAAAAAAA&#xA;AQACAwQFBgcICQoLEAACAQMDAgQCBgcDBAIGAnMBAgMRBAAFIRIxQVEGE2EicYEUMpGhBxWxQiPB&#xA;UtHhMxZi8CRygvElQzRTkqKyY3PCNUQnk6OzNhdUZHTD0uIIJoMJChgZhJRFRqS0VtNVKBry4/PE&#xA;1OT0ZXWFlaW1xdXl9WZ2hpamtsbW5vY3R1dnd4eXp7fH1+f3OEhYaHiImKi4yNjo+Ck5SVlpeYmZ&#xA;qbnJ2en5KjpKWmp6ipqqusra6voRAAICAQIDBQUEBQYECAMDbQEAAhEDBCESMUEFURNhIgZxgZEy&#xA;obHwFMHR4SNCFVJicvEzJDRDghaSUyWiY7LCB3PSNeJEgxdUkwgJChgZJjZFGidkdFU38qOzwygp&#xA;0+PzhJSktMTU5PRldYWVpbXF1eX1RlZmdoaWprbG1ub2R1dnd4eXp7fH1+f3OEhYaHiImKi4yNjo&#xA;+DlJWWl5iZmpucnZ6fkqOkpaanqKmqq6ytrq+v/aAAwDAQACEQMRAD8A9U4q7FXYq7FXYq7FXYq7&#xA;FXYq7FXYq7FXYq7FXYq7FXYq7FXYq7FXy/8A85Q/8p/p/wD2yof+om4zGzc3fdl/3Z/rfoDx/KnZ&#xA;OxV6B+Qn/k2dC/6O/wDqDmyeL6nD1/8Acy+H3h9gZlvNuxV2KuxV2KuxV2KuxV2KuxV2KuxV2Kux&#xA;V2KuxV2KuxV2KuxV8v8A/OUP/Kf6f/2yof8AqJuMxs3N33Zf92f636A8fyp2TsVegfkJ/wCTZ0L/&#xA;AKO/+oObJ4vqcPX/ANzL4feH2BmW827FXYq7FXYq7FXYq7FXYq7FXYq7FXYq7FXYq7FXYq7FXYq7&#xA;FXYq7FXYq7FXYq7FXYq7FXYq7FXYq7FXYq7FXYq7FXYq7FXYq7FXYq7FXYq7FXYq7FXYq7FXYq7F&#xA;XYq7FXYq7FXYq7FXYq7FXYq7FXYq7FXYq7FXYq7FXYq7FXYq7FXYq7FXYq7FXYq7FXYq7FXYq7FX&#xA;Yq7FXYq7FXYq7FXYq7FXYq7FXYq7FXYq7FXYq7FXYq7FXYq7FXYq7FXYq7FXYq7FXYq7FXYq7FXY&#xA;q7FXYq7FXYq7FXYq7FXYq7FXYq7FXYq7FXYq7FXYq7FXYq7FXYq7FXYq7FXYq7FXYq7FXYq7FXYq&#xA;7FXYq7FXYq7FXYq7FXYq7FXYq7FXYq7FXYq7FXYq7FXYq7FXYq7FXYq7FXYq7FXYq7FXYq7FXYq7&#xA;FXYq7FXYq7FXYq7FXYq7FXYq7FXYq7FXYq7FXYq7FXYq7FXYq7FXYq7FXYq7FXYq7FXYq7FXYq7F&#xA;XYq7FXYq7FXYq7FXYq7FXYq7FXYq7FXYq7FXYq7FXYq7FXYq7FXYq7FXYq7FXYq7FXYq7FXYq7FX&#xA;Yq7FXYq7FXYq7FXYq7FXYq7FXYq7FXYq7FXYq7FXYq7FXYq7FXYq7FXYq7FXYq7FXYq7FXYq7FXY&#xA;q7FXYq7FXYq7FXYq7FXYq7FXYq7FXYq7FXYq7FXYq7FXYq7FXYq7FXYq7FXYq7FXzXo3/OS/ne71&#xA;extbiw0wW9xcRRTGOK4D8HcK3EmcitDtUZjjMXeT7MxiJIJ/HwfSmZDo3Yq7FXYq7FXYq7FXYq7F&#xA;WB/nL581jyT5YtdV0qG3nuJ72O1dLpXdAjxSyEgRvGeVYx3yGSVBy9HgjlmQe5S/Jj8wta876Ffa&#xA;hqsNtBNbXX1eNbVZEUr6avUiR5TWreODHIyCdbp44pADueg5Y4bsVdirsVdirsVdirsVdirsVdir&#xA;sVfAUEphnjlAqY2DgHvxNcwXryLffiMrqHUhlYAqR0IOZzyDeKvjDzJ5+8/w+YtUi/xFqcXp3c6e&#xA;kl5OirxkYcVVXCgDwGYZkb5vT49Pj4R6Ry7ku/5WH5//AOpm1X/pOuf+a8HGe9n+Xx/zY/IO/wCV&#xA;h+f/APqZtV/6Trn/AJrx4z3r+Xx/zY/IO/5WH5//AOpm1X/pOuf+a8eM96/l8f8ANj8g7/lYfn//&#xA;AKmbVf8ApOuf+a8eM96/l8f82PyD0H8ifMPnbXPzEtILzXdQu7C2hnubu3nuppY2QJ6a1V2Yf3si&#xA;ZZjJJcPX48cMRqIB9z6fzJdC8c/5yi9T/Aum0p6X6Uj5ePL6vPx/CuU5uTsuy/7w+79IUv8AnFr/&#xA;AJRDVv8Atof8yY8cPJPan1j3PaMudY7FXYq7FXYq7FXYq7FXYq7FXYq7FX5/5gvYPvHy9c/WtA0y&#xA;5rX17SCStKV5xq3T6czRyeSyCpEeaPwsHyt5w/I78yrzzZrV5p+jCWwub65mtJBc2q8opJWdDR5V&#xA;YfCR1GYssZt6DDrsQgATvQ6FKP8AlQn5s/8AVi/6e7P/AKrYPCk2fn8P877D+p3/ACoT82f+rF/0&#xA;92f/AFWx8KS/n8P877D+p3/KhPzZ/wCrF/092f8A1Wx8KS/n8P8AO+w/qd/yoT82f+rF/wBPdn/1&#xA;Wx8KS/n8P877D+p6/wDkB+WnmHyodXvvMFoLS8uvSgtY/UilPpLVnasTSD4mK9+2XYoEc3W9oamO&#xA;ShE2HsOWuteP/wDOUP8AygGn/wDbVh/6hrjKs3J2XZf94f6v6Qh/+cWv+UQ1b/tof8yY8GHkntT6&#xA;x7ntGXOsdirsVdirsVdirsVdirsVdirsVdir4H/R2of8s0v/AADf0zBp67iHe+2fy+dn8h+XGckv&#xA;+jLMScqg8hAgatfcZmR5B5fUf3kveU/yTS7FXYq7FXYq7FXYq7FXk/8AzkvaPcfl9bemjO8WpQuq&#xA;oKn+6mXcAH+bKs3J2HZhrJ8EF/zjBBND5R1VZY2jJ1CoDgqaejH44MPJn2obmPc9ly51jsVdirsV&#xA;dirsVdirsVdirsVdirsVdirsVdirsVdirsVdirsVdirsVdirsVdirsVdirsVdirsVdirsVdirsVd&#xA;irsVfO//ADlX/wAdDy7/AMYrr/iUeY+bo7nsrlL4PUPyRl9X8rNAblzpFKlev2J5Fp9FKZbj+kOD&#xA;rh++kzjJuI8C/wCcjPNXmzQvMOlLpGq3NhbXFoxeK3laMNIsrVYgbdGGUZZEF2/Z2KE4niAO7yT/&#xA;AJWj+Yv/AFMmof8ASRJ/XKuM97sfyuL+aHf8rR/MX/qZNQ/6SJP648Z71/K4v5od/wArR/MX/qZN&#xA;Q/6SJP648Z71/K4v5od/ytH8xf8AqZNQ/wCkiT+uPGe9fyuL+aH1x+Xt9d3/AJF0G8vJWnup7GB5&#xA;pnNWdjGKsx7k9zmVA7PO6iIGSQHeyDJNLzT/AJyJER/K+95/aFxbel/reqP+Na5Xl+lzuzv70fFI&#xA;v+cWv+UQ1b/tof8AMmPI4eTb2p9Y9z2jLnWOxV2KuxV2KuxV2KuxV2KuxV2KuxV4R/zkt5c8w6xf&#xA;aC2k6Xd6isMVwJmtIJZwhZo6BvTVqVp3yjMCadt2ZkjES4iAzv8AI6x1Sw/LTS7HU7SWyurd7kG3&#xA;uI3ikCtcSOCyOAd+e23TLMY9Lia6QOUkG+X3M8ybiPIP+chfIHmDzRa6Nc6FZm8ubJ5o54lZFPpz&#xA;BCG+MrWhj7eOVZYk8nZdn6iOMkSNW8W/5Ul+aX/Vgl/5Gwf9VMp8OXc7P89i/nO/5Ul+aX/Vgl/5&#xA;Gwf9VMfDl3L+exfznf8AKkvzS/6sEv8AyNg/6qY+HLuX89i/nO/5Ul+aX/Vgl/5Gwf8AVTHw5dy/&#xA;nsX859U+QNOvdN8k6Hp99EYLy1soYriEkEq6oAwqCRtmTEUHQaiQlkkRytP8k0vOfz90rVNU/L2a&#xA;00yznvro3MDCC2jeaQqrGp4oGNBleUWHN0ExHJZNbJV/zjfomtaR5W1ODVbC50+aS+5xxXUMkLMv&#xA;ooOQWQKSKjrgxAgNnaU4ymKN7PW8tdc7FXYq7FXYq7FXYq7FXYq7FXYq7FXYq7FXYq7FXYq7FXYq&#xA;7FXYq7FXYq7FXYq7FXYq7FXYq7FXYq7FXYq7FXYq7FXYq7FXYq7FXYq7FXYq7FXYq7FXYq7FXYq7&#xA;FXYq7FXYq7FXYq7FXYq7FXYq7FXYq7FXYq7FXYq7FXYq7FXYq7FXYq7FXYq7FXYq7FXYq7FXYq7F&#xA;XYq7FXYq7FXYq7FXYq7FXYq7FXYq7FXYq7FXYq7FXYq7FXYq7FXYq7FXYq7FXYq7FXYq7FXYq7FX&#xA;Yq7FXYq7FXYq7FXYq7FXYq7FXYq7FXYq7FXYq7FXYq7FXYq7FXYq7FXYq7FXYq7FXYq7FXYq7FXY&#xA;q7FXYq7FXYq7FXYq7FXYq7FXYq7FXYq7FXYq7FXYq7FXYq7FXYq7FXYq7FXYq7FXYq7FXYq7FXYq&#xA;7FXYq7FXYq7FXYq7FXYq7FXYq7FXYq7FXYq7FXYq7FXYq7FXYq7FXYq7FXYq7FXYq7FXYq7FXYq7&#xA;FXYq7FXYq7FXYq7FXYq7FXYq7FXYq7FXYq7FXYq7FXYq7FXYq7FXYq7FXYq7FXYq7FXYq7FXYq7F&#xA;XYq7FXYq7FXYq7FXYq7FXYq7FXYq7FXYq7FXYq7FXYq7FXYq7FXYq7FXYq7FXYq7FXYq7FXYq7FX&#xA;Yq7FXYq7FXYq7FXYq7FXYq7FXYq7FXYq7FX/2Q==</xmpGImg:image>
               </rdf:li>
            </rdf:Alt>
         </xmp:Thumbnails>
      </rdf:Description>
      <rdf:Description rdf:about=""
            xmlns:xmpTPg="http://ns.adobe.com/xap/1.0/t/pg/"
            xmlns:stDim="http://ns.adobe.com/xap/1.0/sType/Dimensions#"
            xmlns:xmpG="http://ns.adobe.com/xap/1.0/g/">
         <xmpTPg:MaxPageSize rdf:parseType="Resource">
            <stDim:w>299.998915</stDim:w>
            <stDim:h>299.998743</stDim:h>
            <stDim:unit>Millimeters</stDim:unit>
         </xmpTPg:MaxPageSize>
         <xmpTPg:NPages>1</xmpTPg:NPages>
         <xmpTPg:HasVisibleTransparency>False</xmpTPg:HasVisibleTransparency>
         <xmpTPg:HasVisibleOverprint>False</xmpTPg:HasVisibleOverprint>
         <xmpTPg:PlateNames>
            <rdf:Seq>
               <rdf:li>Cyan</rdf:li>
               <rdf:li>Magenta</rdf:li>
               <rdf:li>Yellow</rdf:li>
               <rdf:li>Black</rdf:li>
            </rdf:Seq>
         </xmpTPg:PlateNames>
         <xmpTPg:SwatchGroups>
            <rdf:Seq>
               <rdf:li rdf:parseType="Resource">
                  <xmpG:groupName>Default Swatch Group</xmpG:groupName>
                  <xmpG:groupType>0</xmpG:groupType>
               </rdf:li>
            </rdf:Seq>
         </xmpTPg:SwatchGroups>
      </rdf:Description>
      <rdf:Description rdf:about=""
            xmlns:dc="http://purl.org/dc/elements/1.1/">
         <dc:format>image/svg+xml</dc:format>
      </rdf:Description>
      <rdf:Description rdf:about=""
            xmlns:xmpMM="http://ns.adobe.com/xap/1.0/mm/"
            xmlns:stRef="http://ns.adobe.com/xap/1.0/sType/ResourceRef#"
            xmlns:stEvt="http://ns.adobe.com/xap/1.0/sType/ResourceEvent#">
         <xmpMM:DerivedFrom rdf:parseType="Resource">
            <stRef:instanceID>xmp.iid:005A81E56D21681180839FCCDFDC130E</stRef:instanceID>
            <stRef:documentID>xmp.did:005A81E56D21681180839FCCDFDC130E</stRef:documentID>
            <stRef:originalDocumentID>xmp.did:F63F1AA85321681180839FCCDFDC130E</stRef:originalDocumentID>
         </xmpMM:DerivedFrom>
         <xmpMM:DocumentID>xmp.did:085A81E56D21681180839FCCDFDC130E</xmpMM:DocumentID>
         <xmpMM:InstanceID>xmp.iid:085A81E56D21681180839FCCDFDC130E</xmpMM:InstanceID>
         <xmpMM:OriginalDocumentID>xmp.did:F63F1AA85321681180839FCCDFDC130E</xmpMM:OriginalDocumentID>
         <xmpMM:History>
            <rdf:Seq>
               <rdf:li rdf:parseType="Resource">
                  <stEvt:action>saved</stEvt:action>
                  <stEvt:instanceID>xmp.iid:F63F1AA85321681180839FCCDFDC130E</stEvt:instanceID>
                  <stEvt:when>2019-09-30T18:39:11+08:00</stEvt:when>
                  <stEvt:softwareAgent>Adobe Illustrator CS6 (Macintosh)</stEvt:softwareAgent>
                  <stEvt:changed>/</stEvt:changed>
               </rdf:li>
               <rdf:li rdf:parseType="Resource">
                  <stEvt:action>saved</stEvt:action>
                  <stEvt:instanceID>xmp.iid:085A81E56D21681180839FCCDFDC130E</stEvt:instanceID>
                  <stEvt:when>2019-09-30T21:39:53+08:00</stEvt:when>
                  <stEvt:softwareAgent>Adobe Illustrator CS6 (Macintosh)</stEvt:softwareAgent>
                  <stEvt:changed>/</stEvt:changed>
               </rdf:li>
            </rdf:Seq>
         </xmpMM:History>
      </rdf:Description>
   </rdf:RDF>
</x:xmpmeta>
                                                                                                    
                                                                                                    
                                                                                                    
                                                                                                    
                                                                                                    
                                                                                                    
                                                                                                    
                                                                                                    
                                                                                                    
                                                                                                    
                                                                                                    
                                                                                                    
                                                                                                    
                                                                                                    
                                                                                                    
                                                                                                    
                                                                                                    
                                                                                                    
                                                                                                    
                                                                                                    
                           
<?xpacket end="w"?>
	</metadata>
<polyline fill="#7A2426" points="298.946,483.185 547.946,483.185 547.946,405.019 298.946,405.019 "/>
<polyline fill="#7A2426" points="309.446,546.685 547.946,546.685 547.946,506.019 309.446,506.019 "/>
<path fill="#FFFFFF" d="M333.014,280.443c-2.111-3.246-3.888-6.711-5.798-10.088c-0.229-0.405-0.348-0.892-0.64-1.238
	c-2.947-3.496-4.326-7.684-5.361-12.026c-0.577-2.42-0.87-4.945-1.75-7.247c-1.054-2.754-1.375-5.545-1.486-8.418
	c-0.061-1.553-0.261-3.112-0.182-4.657c0.122-2.394,0.193-4.832,0.717-7.153c0.624-2.767,1.665-5.445,2.595-8.138
	c0.985-2.856,1.822-5.797,3.132-8.503c2.728-5.642,5.177-11.429,8.572-16.74c1.955-3.059,3.621-6.302,5.562-9.372
	c1.989-3.147,4.058-6.255,6.264-9.253c4.643-6.308,7.784-13.436,11.209-20.394c2.117-4.3,3.774-8.831,5.555-13.291
	c1.062-2.664,2.727-4.862,4.783-6.798c2.804-2.64,6.068-4.034,9.777-2.427c2.819,1.222,5.72,2,8.674,2.617
	c4.099,0.856,8.246,1.475,12.357,2.27c6.474,1.251,12.932,2.577,19.401,3.847c1.596,0.313,3.206,0.731,4.815,0.762
	c5.2,0.1,9.858,1.994,14.441,4.144c3.073,1.441,6.122,2.942,9.11,4.55c2.994,1.611,6.401,2.449,8.998,4.814
	c0.328,0.299,0.834,0.407,1.26,0.598c5.398,2.412,10.43,5.411,14.945,9.255c0.824,0.702,1.806,1.227,2.594,1.963
	c2.604,2.432,5.189,4.885,7.707,7.404c1.812,1.813,3.401,3.86,5.283,5.592c1.726,1.587,3.176,3.319,4.539,5.229
	c3.788,5.306,7.882,10.395,11.65,15.714c1.314,1.854,2.963,3.787,2.996,6.201c0.043,3.223,0.881,6.132,2.511,8.849
	c1.965,3.274,1.361,6.427-0.519,9.436c-2.198,3.521-3.684,7.349-5.104,11.21c-0.586,1.593-1.205,3.215-1.461,4.877
	c-0.449,2.933-0.354,5.813,1.543,8.405c1.09,1.491,1.986,3.148,2.79,4.817c0.942,1.955,1.645,4.025,2.534,6.008
	c1.207,2.694,2.674,5.287,3.703,8.044c1.602,4.284,2.914,8.674,4.381,13.008c0.372,1.101,0.93,2.14,1.292,3.244
	c1.063,3.239,2.067,6.498,3.101,9.746c2.498,7.842,5.064,15.663,7.475,23.531c1.615,5.269,3.039,10.598,3.829,16.072
	c0.266,1.838,0.382,3.725,0.896,5.494c1.787,6.137,1.084,12.345,0.707,18.543c-0.234,3.867-0.711,7.722-0.916,11.591
	c-0.24,4.499-0.341,9.006-0.432,13.511c-0.148,7.311-0.263,14.622-0.348,21.934c-0.048,4.05,0.033,8.102-0.023,12.15
	c-0.042,2.953-0.31,5.905-0.303,8.856c0.006,3.418,0.28,6.836,0.302,10.256c0.049,7.945-0.011,15.891,0.032,23.834
	c0.012,2.305,0.193,4.607,0.344,6.908c0.082,1.234,0.359,2.461,0.387,3.693c0.135,6.146,0.154,12.295,0.331,18.441
	c0.185,6.445,0.565,12.887,0.739,19.332c0.117,4.344,0.074,8.691,0.004,13.037c-0.047,2.793-0.391,5.582-0.399,8.373
	c-0.044,13.396-0.02,26.795-0.021,40.191c0,3.1,0,6.201-0.002,9.301c-0.002,2.555-0.008,5.107-0.012,7.662
	c-0.001,0.234-0.009,0.467-0.01,0.701c-0.003,2.242,0.002,4.484-0.01,6.729c-0.01,1.932,0.003,3.865-0.07,5.795
	c-0.15,3.961-0.375,7.918-0.517,11.881c-0.036,1,0.272,2.025,0.169,3.012c-0.432,4.086-0.027,8.203-0.898,12.293
	c-1.211,5.689-1.949,11.477-2.993,17.203c-0.232,1.275-0.89,2.475-1.366,3.703c-1.037,2.676-2.062,5.354-3.13,8.016
	c-0.81,2.02-1.637,4.035-2.524,6.021c-1.391,3.115-2.729,6.262-4.299,9.287c-1.166,2.248-1.935,4.543-2.24,7.049
	c-0.49,4.006-1.031,8.006-1.662,11.99c-0.549,3.453-1.193,6.895-1.916,10.314c-0.304,1.436,0.119,2.572,0.801,3.75
	c1.127,1.941,2.196,3.914,3.281,5.879c0.262,0.477,0.379,1.092,0.754,1.436c2.914,2.674,3.583,6.385,4.155,9.928
	c0.378,2.338,1.183,4.271,2.407,6.164c0.423,0.652,0.763,1.365,1.228,1.984c0.931,1.242,1.218,2.602,1.22,4.146
	c0.01,6.854,0.081,13.707,0.205,20.561c0.021,1.127,0.318,2.281,0.666,3.365c0.492,1.537,0.552,3.008,0.089,4.568
	c-0.323,1.092-0.589,2.273-0.517,3.391c0.106,1.648-0.383,2.814-1.744,3.746c-0.621,0.424-1.028,1.15-1.576,1.695
	c-0.598,0.596-1.202,1.203-1.881,1.699c-1.312,0.959-2.738,1.77-4.01,2.777c-2.504,1.982-4.949,4.037-7.384,6.102
	c-0.802,0.682-1.626,1.115-2.709,1.172c-2.487,0.129-4.97,0.361-7.455,0.537c-6.05,0.432-12.061,1.025-17.979,2.518
	c-3.725,0.939-7.659,1.021-11.303-0.227c-3.617-1.238-7.209-2.473-10.998-2.955c-1.799-0.229-2.875-1.098-3.854-2.559
	c-7.287-10.863-14.681-21.656-21.944-32.535c-1.043-1.561-2.159-2.162-3.992-2.055c-4.016,0.234-8.04,0.361-12.063,0.414
	c-2.795,0.037-5.608-0.334-8.385-0.133c-3.096,0.225-6.15,0.607-9.267,0.18c-2.996-0.41-6.02-0.639-9.036-0.883
	c-3.622-0.295-7.175-1.34-10.862-0.971c-0.759,0.076-1.564-0.033-2.315-0.201c-5.224-1.172-10.431-2.42-15.66-3.562
	c-3.26-0.711-6.591-1.1-9.709-2.402c-1.144-0.479-2.323-0.922-3.529-1.189c-2.112-0.469-3.842-1.621-5.542-2.84
	c-3.105-2.225-4.64-5.562-6.178-8.883c-1.318-2.844-1.446-5.738-0.889-8.865c1.146-6.42,2.009-12.895,2.846-19.365
	c0.385-2.975,0.288-5.879-0.814-8.861c-2.216-5.994-3.742-12.201-3.267-18.699c0.158-2.16,0.124-4.297,0.042-6.463
	c-0.277-7.295,0.323-14.613-0.67-21.896c-0.313-2.301-0.273-4.648-0.428-6.973c-0.322-4.881-0.652-9.76-1.006-14.639
	c-0.122-1.701-0.318-3.396-0.486-5.096c-0.084-0.846-0.2-1.691-0.267-2.541c-0.359-4.646-0.343-9.357-1.141-13.928
	c-1.374-7.863-1.032-15.801-1.634-23.691c-0.105-1.371,0.36-2.777,0.312-4.16c-0.143-4.033-0.514-8.061-0.608-12.094
	c-0.191-8.09-0.255-16.184-0.387-24.275c-0.01-0.617-0.156-1.23-0.217-1.848c-0.185-1.85-0.399-3.697-0.521-5.551
	c-0.082-1.242,0.017-2.494-0.036-3.738c-0.31-7.219-0.637-14.438-0.968-21.656c-0.032-0.697-0.178-1.391-0.185-2.086
	c-0.019-1.852-0.001-3.705,0.021-5.557c0.015-1.24,0.166-2.488,0.076-3.721c-0.401-5.492-0.916-10.977-1.293-16.471
	c-0.244-3.562-0.308-7.137-0.479-10.705c-0.094-1.939-0.226-3.877-0.371-5.814c-0.319-4.256-0.668-8.51-0.985-12.766
	c-0.197-2.635-0.35-5.271-0.539-7.906c-0.377-5.266-0.768-10.529-1.149-15.794c-0.258-3.563-0.564-7.124-0.752-10.691
	c-0.238-4.551-1.273-9.041-1.015-13.629c0.026-0.461,0.043-0.962-0.101-1.388c-1.05-3.118-0.554-6.322-0.61-9.498
	c-0.016-0.905-0.068-1.869-0.387-2.697c-0.989-2.575-1.155-5.316-0.476-7.814c0.861-3.166,0.413-6.327,0.803-9.466
	c0.17-1.376,0.153-2.774,0.233-4.163c0.07-1.222,0.085-2.453,0.257-3.662c0.162-1.14,0.559-2.246,0.739-3.385
	c0.183-1.148,0.141-2.333,0.344-3.477c0.775-4.355,1.52-8.721,2.445-13.047c1.072-5.011,1.52-10.144,3.129-15.053
	c1.256-3.831,2.302-7.731,3.405-11.61c0.893-3.138,1.606-6.332,2.628-9.426c1.312-3.974,2.876-7.863,4.287-11.804
	c0.863-2.411,1.645-4.85,2.331-6.888C335.986,283.812,334.226,282.306,333.014,280.443z M488.414,421.288
	c-39.936-0.01-79.87-0.008-119.806-0.008c-0.39,0-0.78-0.013-1.167,0.02c-1.514,0.127-1.816,0.329-1.807,1.824
	c0.027,4.358,0.03,8.721,0.264,13.071c0.313,5.824,0.822,11.639,1.277,17.455c0.089,1.139,0.319,2.266,0.516,3.613
	c1.048,0,1.887,0,2.727,0c36.588,0,73.176,0,109.763,0c0.468,0,0.937-0.033,1.401-0.004c1.039,0.062,1.503-0.441,1.766-1.43
	c2.231-8.41,4.588-16.789,6.721-25.225c0.717-2.83,0.896-5.797,1.377-9.077C490.076,421.416,489.245,421.289,488.414,421.288z
	 M372.772,511.531c0.44,5.578,0.771,11.168,1.403,16.725c0.456,4.01,1.331,7.971,2.001,11.955c0.154,0.916,0.272,1.842,0.337,2.77
	c0.136,1.973,0.169,2.023,2.225,2.068c0.312,0.006,0.623,0,0.935,0c31.76,0,63.52,0,95.279,0c0.847,0,1.693,0,2.312,0
	c0.281-0.236,0.348-0.281,0.399-0.34c0.05-0.055,0.122-0.125,0.122-0.189c-0.072-8.318-0.114-16.639-0.246-24.957
	c-0.054-3.412-0.302-6.82-0.459-10.182c-1.774-0.537-99.786-0.754-104.317-0.223C372.763,510.019,372.712,510.779,372.772,511.531z"
	/>
<rect x="744.36" y="90.722" fill="#7A2426" width="73.333" height="43.398"/>
</svg>
