<?xml version="1.0" encoding="utf-8"?>
<!-- Generator: Adobe Illustrator 16.0.0, SVG Export Plug-In . SVG Version: 6.00 Build 0)  -->
<!DOCTYPE svg PUBLIC "-//W3C//DTD SVG 1.1//EN" "http://www.w3.org/Graphics/SVG/1.1/DTD/svg11.dtd" [
	<!ENTITY ns_flows "http://ns.adobe.com/Flows/1.0/">
	<!ENTITY ns_extend "http://ns.adobe.com/Extensibility/1.0/">
	<!ENTITY ns_ai "http://ns.adobe.com/AdobeIllustrator/10.0/">
	<!ENTITY ns_graphs "http://ns.adobe.com/Graphs/1.0/">
	<!ENTITY ns_vars "http://ns.adobe.com/Variables/1.0/">
	<!ENTITY ns_imrep "http://ns.adobe.com/ImageReplacement/1.0/">
	<!ENTITY ns_sfw "http://ns.adobe.com/SaveForWeb/1.0/">
	<!ENTITY ns_custom "http://ns.adobe.com/GenericCustomNamespace/1.0/">
	<!ENTITY ns_adobe_xpath "http://ns.adobe.com/XPath/1.0/">
]>
<svg version="1.1" id="Layer_1" xmlns:x="&ns_extend;" xmlns:i="&ns_ai;" xmlns:graph="&ns_graphs;"
	 xmlns="http://www.w3.org/2000/svg" xmlns:xlink="http://www.w3.org/1999/xlink" xmlns:a="http://ns.adobe.com/AdobeSVGViewerExtensions/3.0/"
	 x="0px" y="0px" width="850.391px" height="850.39px" viewBox="0 0 850.391 850.39" enable-background="new 0 0 850.391 850.39"
	 xml:space="preserve">
<metadata><?xpacket begin="﻿" id="W5M0MpCehiHzreSzNTczkc9d"?>
<x:xmpmeta xmlns:x="adobe:ns:meta/" x:xmptk="Adobe XMP Core 5.3-c011 66.145661, 2012/02/06-14:56:27        ">
   <rdf:RDF xmlns:rdf="http://www.w3.org/1999/02/22-rdf-syntax-ns#">
      <rdf:Description rdf:about=""
            xmlns:xmp="http://ns.adobe.com/xap/1.0/"
            xmlns:xmpGImg="http://ns.adobe.com/xap/1.0/g/img/">
         <xmp:CreatorTool>Adobe Illustrator CS6 (Macintosh)</xmp:CreatorTool>
         <xmp:CreateDate>2019-09-30T19:54:34+08:00</xmp:CreateDate>
         <xmp:MetadataDate>2019-09-30T19:54:34+08:00</xmp:MetadataDate>
         <xmp:ModifyDate>2019-09-30T19:54:34+08:00</xmp:ModifyDate>
         <xmp:Thumbnails>
            <rdf:Alt>
               <rdf:li rdf:parseType="Resource">
                  <xmpGImg:width>180</xmpGImg:width>
                  <xmpGImg:height>256</xmpGImg:height>
                  <xmpGImg:format>JPEG</xmpGImg:format>
                  <xmpGImg:image>/9j/4AAQSkZJRgABAgEASABIAAD/7QAsUGhvdG9zaG9wIDMuMAA4QklNA+0AAAAAABAASAAAAAEA&#xA;AQBIAAAAAQAB/+4ADkFkb2JlAGTAAAAAAf/bAIQABgQEBAUEBgUFBgkGBQYJCwgGBggLDAoKCwoK&#xA;DBAMDAwMDAwQDA4PEA8ODBMTFBQTExwbGxscHx8fHx8fHx8fHwEHBwcNDA0YEBAYGhURFRofHx8f&#xA;Hx8fHx8fHx8fHx8fHx8fHx8fHx8fHx8fHx8fHx8fHx8fHx8fHx8fHx8fHx8f/8AAEQgBAAC0AwER&#xA;AAIRAQMRAf/EAaIAAAAHAQEBAQEAAAAAAAAAAAQFAwIGAQAHCAkKCwEAAgIDAQEBAQEAAAAAAAAA&#xA;AQACAwQFBgcICQoLEAACAQMDAgQCBgcDBAIGAnMBAgMRBAAFIRIxQVEGE2EicYEUMpGhBxWxQiPB&#xA;UtHhMxZi8CRygvElQzRTkqKyY3PCNUQnk6OzNhdUZHTD0uIIJoMJChgZhJRFRqS0VtNVKBry4/PE&#xA;1OT0ZXWFlaW1xdXl9WZ2hpamtsbW5vY3R1dnd4eXp7fH1+f3OEhYaHiImKi4yNjo+Ck5SVlpeYmZ&#xA;qbnJ2en5KjpKWmp6ipqqusra6voRAAICAQIDBQUEBQYECAMDbQEAAhEDBCESMUEFURNhIgZxgZEy&#xA;obHwFMHR4SNCFVJicvEzJDRDghaSUyWiY7LCB3PSNeJEgxdUkwgJChgZJjZFGidkdFU38qOzwygp&#xA;0+PzhJSktMTU5PRldYWVpbXF1eX1RlZmdoaWprbG1ub2R1dnd4eXp7fH1+f3OEhYaHiImKi4yNjo&#xA;+DlJWWl5iZmpucnZ6fkqOkpaanqKmqq6ytrq+v/aAAwDAQACEQMRAD8A9U4q7FXYq7FXYq7FXYq7&#xA;FXYq7FXYq7FXYq7FXYq8484/mZc213PpujqEeBjHNeOAx5LswjU7bHap+7FWBXPmLXrkn6xqNzID&#xA;+yZX4/QtaYoS9mZiWYlmPUnc4q1irsVRltrOr2tPq19cQ06COV1/UcVZPoP5oa5YOI9QP6Qtu/Oi&#xA;yr8nHX/ZYq9O/wAR6X+gP07zb6j6fq1p8fXjxpWnLl8PXrilNMVdirsVdirsVdirsVdirsVdirsV&#xA;dirsVdirsVeD+ddKi03zFdwx3CTrI7S0UksnqHlwev7QrihIsVdirsVdirsVXRpzkVOQXkQOTGgF&#xA;T1J8MVey/wCGYf8AlXn6H+ux8PR9b67y/c19T161/kr38N8UsuxV2KuxV2KuxV2KuxV2KuxV2Kux&#xA;V2KuxV2KuxV4H5u0zUbDX70XqMGmmkljlI+GRXYkMp+n6MUJNirsVdirsVdiq5EeR1RFLuxAVVFS&#xA;SegAGKvXf0Frf/Ksf0XxP6R9Ll6P7XD1vU9P/W4bU+jFLNsVdirsVdirsVdirsVdirsVdirsVdir&#xA;sVdirsVSzzHoFprmly2Nx8LH4oZaVMcg6MP4+2KvB9T02702+msbtOE8LcWHY+BHiCNxihC4q7FX&#xA;Yq7FXrv5ceThp1qNVvov9PuBWFGG8UZ+fRm7+304pZxirsVdirsVdirsVdirsVdirsVdirsVdirs&#xA;VdirsVdirGfO3k2HzBaCSGkepQD9xKejDr6b+3ge2KvFryzurO5ktrqJoZ4jR43FCDihRxV2KvRP&#xA;y88iSSzR6xqsRWBKNaWzihdu0jA/sjt4/Lqq9RxS7FXYq7FXYq7FXYqx3zZ+YXlHypFy1rUEhmK8&#xA;o7RP3lw/hxjWrb+JoPfJxgZcmUYE8nkmqf8AOVMQd10vy+zJX4Jrq4Ckj3jjRv8AieXDTd5bhg82&#xA;I6r/AM5IfmNeAi0a001ext4ObfSZzKPwywYIsxhikOl/nF+YdlrUWpya1c3gR1eWzmkJt5FGzIYv&#xA;sKCD+yPfJHFGqpkccafX+lanaapplpqVm3O1vYUnhbxSRQwr775gkUacMikVgQ7FXYq7FXYq7FXY&#xA;ql2s+XdG1mIJqNssxX7Em6uvydaNT26Yqkiflf5RWtYJXr/NK+33UxVMtO8l+WNPdZLbT4/VXdZJ&#xA;KysCO4Mhah+WKp1irsVdirsVdirsVczBQWY0UbknoBir58/NX/nIK4NxNovk2YRxRkpcaytCXI2K&#xA;29dgv+X3/Z8TlY8HUuRjw9S8Iubq5uriS5upnnuJWLSzSsXdmPUszVJOZLkKeKuxV2Kvo7/nGvz5&#xA;HdaXL5RvJALqyLT6byP24HPKSMe8bnl8j7Zi54b242aHV7hmM0OxV2KuxV2KuxV2KuxV2KuxV2Ku&#xA;xV2KuxV2KuxV4L/zkN+aTQq/k3RpqSOAdZuIzuFO4tgR/MN5Pb4e7DMnBj6lyMMOpfPeZTkOxV2K&#xA;uxV2Ko3RdY1DRtVtdV0+Uw3tnIJYXHiOx8QRsR3GAixSCLfa3krzXY+avLVlrdp8K3Kfvoa1Mcq/&#xA;DJGf9Vht4jfNfOPCacKUaNJ3kWLsVdirsVdirsVdirsVdirsVdirsVdirsVWTy+lBJLTl6aluI78&#xA;RWmKvgzUL641C/ub+5bncXcrzzP4vIxZj95zZgU7ABD4q7FXYq7FXYq7FXuP/OMPmqWHV9Q8szSE&#xA;293H9ctEJ2WaKiyBfd0IJ/1cx9RHa2jPHa30bmI4zsVdirsVdirsVdirsVdirsVdirsVdirsVdir&#xA;4t/NfR7LR/zE1ywsgotUuPUjRCCq+siylBTpwL8ads2GM3EObjNxDE8mzdirsVdirsVdir0P8gIZ&#xA;ZPzV0d0UlYVunlI7KbWRKn/ZMBlWb6S15fpfXeYLhuxV2KuxV2KuxV2KuxV2KuxV2KuxV2KuxVJ/&#xA;OHmKHy35Y1LXJlDrYwtIkZ2DyH4Y0J/ynYDJRjZplEWafD97eXN7eT3l1IZbm5kaaeVurO5LMx+Z&#xA;ObEBzgFHFXYq7FXYq7FXYq+hf+cY/JlxBFe+bbpOKXKGy08EbsgcNNIPbmgUfI5i6ifRx88uj3nM&#xA;Zx3Yq7FXYq7FXYq7FXYq7FXYq7FXYq7FXYq8P/5yg8ym30bTPLsL0e+kN1dAf76h+FAfZnav+xzJ&#xA;08d7b8Ed7fOOZTkuxV2KuxV2KuxVtCqupZeSgglTUVHhtir7p8qy6RL5a0uXR4lg0uW1iezhTokb&#xA;ICq/MV39810rvdwJXe6aZFDsVdirsVdirsVdirsVdirsVdirsVdirsVfHn53+YTrf5kaq6tWCwYW&#xA;EArWgt6q/wB8pc5n4Y1FzMQqLBMsbHYq7FXYq7FXYq7FX1V/zjhrv6Q/L4WDvym0m5kg4k1Iik/f&#xA;IflV2UfLMLOKk4mYUXqmUtTsVdirsVdirsVdirsVdirsVdirsVdiqH1G9jsdPur2T+7tYpJn/wBW&#xA;NSx/VhAtID4NubiW5uJbiZi80ztJIx6lmNSfvObJz1PFXYq7FXYq7FXYq7FXtn/OLep+l5k1nTC1&#xA;Bd2iXAFerW8gX76TnMfUDYFozjZ9JZiOM7FXYq7FXYq7FXYq7FXYq7FXYq7FXYqgPMFv9Z0HUran&#xA;L1rWeOhNK842HX6cMeaRzfCGbJz3Yq7FXYq7FXYq7FXYq9F/5x+u5IPzT0uNTRbmO5ik+Qt3kH/D&#xA;RjKs49LXm+l9c5guG7FXYq7FXYq7FXYq7FXYq7FXYq7FXYqoagCbC5AFSYnAA/1ThCh8EZsnYOxV&#xA;2KuxV2KuxV2KuxVnf5GW31j81NCWrAI88hK/8V20jCvsSKZXm+kteX6S+w8wHDdirsVdirsVdirs&#xA;VdirsVdirsVdirsVdir4BzZuwdirsVdirsVdirsVdir0/wD5xytvV/MyCSlfq9rcSdelVEf/ABvl&#xA;Of6WrN9L6vzCcR2KuxV2KuxV2KuxV2KuxV2KuxV2KuxV2KvgHNm7B2KuxV2KuxV2KuxV2KvYv+cX&#xA;oA3njUZjT93prqBTu88O4/4HKNR9LTn5PpzMNxXYq7FXYq7FXYq7FXYq7FXYq7FXYq7FWmZVUsxC&#xA;qoqzHYADucVfAWbN2DsVdirsVdirsVdirsVe5/8AOK8IOsa/P+0lvAgFOzux6/7DMfU8g0Z+QfRe&#xA;YjjOxV2KuxV2KuxV2KuxV2KuxV2KuxV2KobVHVNMu3c0VYZCxPYBCThHNIfBWbJz3Yq7FXYq7FXY&#xA;q7FXYq+hf+cVLfjaeZLih/eSWkYPb4FlO3/B5i6no4+fo95zGcd2KuxV2KuxV2KuxV2KuxV2KuxV&#xA;2KuxVLfM0ixeW9Wlf7KWdwzU8BExOGPNMeb4TzZOe7FUytPLXmO9t1ubPSry5t3rwmht5ZEahoaM&#xA;qkGhGAyCDIK3+DfN/wD1Y9Q/6RZv+aceId68Q73f4N83/wDVj1D/AKRZv+aceId68Q73f4N83/8A&#xA;Vj1D/pFm/wCaceId68Q70DqGk6ppzomoWc9m8g5ItxG8RYDaoDgVwggpBtC4q+kP+cWVYeXdbeh4&#xA;m7jAPaoi3/XmJqOYcbPzD27MdodirsVdirsVdirsVdirsVdirsVdirw//oajQP8Aqx3f/I2PKfGD&#xA;tf5Kl/OCG1P/AJyd0K8027tF0S6VriGSJWMkdAXUrU/fhjmFhf5MkN7D56zcNTsVe4eRP+cg9F8s&#xA;+UtO0KXSbm4ksY2R5lkjCsWdn2B/1s1efKBMtg7OlP1XzT7/AKGo0D/qx3f/ACNjyrxgn+Spfzg7&#xA;/oajQP8Aqx3f/I2PHxgv8lS/nB3/AENRoH/Vju/+RsePjBf5Kl/ODyv83PzIt/PWsWV7a2klnb2l&#xA;v6IilZWYuXZmaq9qcc2GlNxtrOnOI0TbBcyUPVPyk/OTTPI2iXmn3enTXkl1c/WFeJ0UAemqU+L/&#xA;AFcwNXkqQHkzjojlFg0zr/oajQP+rHd/8jY8xfGDL+Spfzgn/kX8+dJ83eZLfQrbS7i1luFkcTSO&#xA;jKPTQudhvvxwxy2aac+gljjxEvUctcB2KuxV2KuxV2KuxV2KuxV2Kvz/AMwXsHZKH1BjPkV2b90L&#xA;sVaoMolpoSNkN8dTOIoF1BkfyePuZfm8ne6gx/J4+5fzeTvdQY/k8fcv5vJ3uy6GMRFBpnMyNlvJ&#xA;sFp65qtd9fwdrovo+Lsw3Lekf849f+TS03/jFc/8mHyzF9Tg9of3J+D64zKeddirsVdirsVdirsV&#xA;dirsVdir8/8AMF7B2GPMMZciuzoHQuxV2KuxV2KuxV2KuxVaeuanW/X8Ha6P6Pi7MRy3pH/OPX/k&#xA;0tN/4xXP/Jh8sxfU4PaH9yfg+uMynnXYq7FXYq7FXYq7FXYq7FXYq+b/APoVfX/+r5af8ipMx/BL&#xA;u/5Vj/NKnP8A84ua9DBJKdbtSI1LkCOTfiK4Y4SCg9qRIqi8VzdOK7FXYq7FXYq7FXYq7FXqfkv8&#xA;gNZ81eWbLXoNUt7WK9EhSCWNyyiOVotyNt+Fc1epxmUy5GPXxxjhpO/+hV9f/wCr5af8ipMo8Es/&#xA;5Vj/ADSyj8tPyG1fyj5utddudUt7qK3SVDDGjqx9SMoNzttyyUMVG3H1OvjkgYgPaMudY7FXYq7F&#xA;XYq7FXYq7FXYq7FXYqsmiWaGSJqhZFKMR1owptir4Ju7aS1u5raTaSCRonH+UhKn9WbMOwUsVdir&#xA;sVdirsVdirsVfZ/5Q2/oflp5eTjxraLJStf7xi9fp5VzAy/UXCyfUWX5WwdirsVdirsVdirsVdir&#xA;sVdirsVdirsVdir5A/PHys2gfmFflFpaamfr9sQKD98SZF8PhlDbeFMz8Mri5mKVxYBljY7FXYq7&#xA;FXYq7FXYq+3fy7RV8geWgooP0XZGg8TboT+Oa+f1FwZ8yyHIMXYq7FXYq7FXYq7FXYq7FXYq7FXY&#xA;q7FXYq8h/wCcl9BtbvyVBq5T/S9MuUVJB/vqf4HU+3Lgcv08t6bsJ3p8v5mOU7FXYq7FXYq7FXYq&#xA;+5/J9jNp/lLRLCcUntLC1glHT44oVRvxGa6RslwJHcpvkUOxV2KuxV2KuxV2KuxV2KuxV2KuxV2K&#xA;uxV57+fWoaZa/llqkN6w53pigtI+7zCRZFp/qiMsfYZbhB4mzEPU+Q8znMdirsVdirsVdiqrZ3Bt&#xA;ruC4ADGGRZAp6HiwNN/liVL73ikSWNJYzyR1DI3iCKg5rHXrsVdirsVdirsVdirsVdirsVdirsVd&#xA;irsVdir5j/5yY8zrf+bLXQYgwTRYqzE7AzXSpJt4gR8N/c5maeNC3Kwx2t47l7c7FXYq7FXYq7FU&#xA;x8v+XtX8warBpelW73F1OwUBQSFBNC7kfZRepY9MEpACygkB9y6bZiy061sg3MW0McPM9W9NQtdy&#xA;etM1xLgkojAh2KuxV2KuxV2KuxV2KuxV2KuxV2KuxV2Kvj7895Ek/NfXWQ1ANsp+a2kKn8Rmfh+k&#xA;OZi+kMCyxsdiqZeW/L2peYtctNG06Pnd3jhF/lVerO3+SigsfbBKVC0SNC30hb/84y+QVt0Se6v5&#xA;ZwoEkyyxoGam7BfTanyqcxPzEnG8cr7b/nGf8u4TWSbUbgeEk8YHT/iuJMfzEl8aSe6b+Rv5X2Eg&#xA;kTRVncGoNzLLMu3+Q7lD92ROaR6sTlkzPT9L0zTYPq+nWkNlAOkNvGkSf8CgAysklgTaJwIdirsV&#xA;dirsVdirsVdirsVdirsVdirsVdirsVeIfnV+SN9rV9c+afLzGbUJQhvdMPWTgoTnC383FRVD16g1&#xA;2OTizVsW/FlrYvB7zyd5usgzXmiX9sqirNLazIAPGrKBmSJDvcgSHegbHTNR1C4FvYWs13cHpDBG&#xA;0r/8CgJwk0kmn0/+RH5Xy+V9Kk1nV4PT17UF4iJx8Vvb1qEPgzkcm+gdQcw82SzQ5OLlnewerZQ0&#xA;uxV2KuxV2KuxV2KuxV2KuxV2KuxV2KuxV2KuxV2Kv//Z</xmpGImg:image>
               </rdf:li>
            </rdf:Alt>
         </xmp:Thumbnails>
      </rdf:Description>
      <rdf:Description rdf:about=""
            xmlns:xmpTPg="http://ns.adobe.com/xap/1.0/t/pg/"
            xmlns:stDim="http://ns.adobe.com/xap/1.0/sType/Dimensions#"
            xmlns:xmpG="http://ns.adobe.com/xap/1.0/g/">
         <xmpTPg:MaxPageSize rdf:parseType="Resource">
            <stDim:w>299.998915</stDim:w>
            <stDim:h>299.998743</stDim:h>
            <stDim:unit>Millimeters</stDim:unit>
         </xmpTPg:MaxPageSize>
         <xmpTPg:NPages>1</xmpTPg:NPages>
         <xmpTPg:HasVisibleTransparency>False</xmpTPg:HasVisibleTransparency>
         <xmpTPg:HasVisibleOverprint>False</xmpTPg:HasVisibleOverprint>
         <xmpTPg:PlateNames>
            <rdf:Seq>
               <rdf:li>Cyan</rdf:li>
               <rdf:li>Magenta</rdf:li>
               <rdf:li>Yellow</rdf:li>
               <rdf:li>Black</rdf:li>
            </rdf:Seq>
         </xmpTPg:PlateNames>
         <xmpTPg:SwatchGroups>
            <rdf:Seq>
               <rdf:li rdf:parseType="Resource">
                  <xmpG:groupName>Default Swatch Group</xmpG:groupName>
                  <xmpG:groupType>0</xmpG:groupType>
               </rdf:li>
            </rdf:Seq>
         </xmpTPg:SwatchGroups>
      </rdf:Description>
      <rdf:Description rdf:about=""
            xmlns:dc="http://purl.org/dc/elements/1.1/">
         <dc:format>image/svg+xml</dc:format>
      </rdf:Description>
      <rdf:Description rdf:about=""
            xmlns:xmpMM="http://ns.adobe.com/xap/1.0/mm/"
            xmlns:stRef="http://ns.adobe.com/xap/1.0/sType/ResourceRef#"
            xmlns:stEvt="http://ns.adobe.com/xap/1.0/sType/ResourceEvent#">
         <xmpMM:DerivedFrom rdf:parseType="Resource">
            <stRef:instanceID>xmp.iid:F83F1AA85321681180839FCCDFDC130E</stRef:instanceID>
            <stRef:documentID>xmp.did:F83F1AA85321681180839FCCDFDC130E</stRef:documentID>
            <stRef:originalDocumentID>xmp.did:F63F1AA85321681180839FCCDFDC130E</stRef:originalDocumentID>
         </xmpMM:DerivedFrom>
         <xmpMM:DocumentID>xmp.did:FB3F1AA85321681180839FCCDFDC130E</xmpMM:DocumentID>
         <xmpMM:InstanceID>xmp.iid:FB3F1AA85321681180839FCCDFDC130E</xmpMM:InstanceID>
         <xmpMM:OriginalDocumentID>xmp.did:F63F1AA85321681180839FCCDFDC130E</xmpMM:OriginalDocumentID>
         <xmpMM:History>
            <rdf:Seq>
               <rdf:li rdf:parseType="Resource">
                  <stEvt:action>saved</stEvt:action>
                  <stEvt:instanceID>xmp.iid:F63F1AA85321681180839FCCDFDC130E</stEvt:instanceID>
                  <stEvt:when>2019-09-30T18:39:11+08:00</stEvt:when>
                  <stEvt:softwareAgent>Adobe Illustrator CS6 (Macintosh)</stEvt:softwareAgent>
                  <stEvt:changed>/</stEvt:changed>
               </rdf:li>
               <rdf:li rdf:parseType="Resource">
                  <stEvt:action>saved</stEvt:action>
                  <stEvt:instanceID>xmp.iid:FB3F1AA85321681180839FCCDFDC130E</stEvt:instanceID>
                  <stEvt:when>2019-09-30T19:54:34+08:00</stEvt:when>
                  <stEvt:softwareAgent>Adobe Illustrator CS6 (Macintosh)</stEvt:softwareAgent>
                  <stEvt:changed>/</stEvt:changed>
               </rdf:li>
            </rdf:Seq>
         </xmpMM:History>
      </rdf:Description>
   </rdf:RDF>
</x:xmpmeta>
                                                                                                    
                                                                                                    
                                                                                                    
                                                                                                    
                                                                                                    
                                                                                                    
                                                                                                    
                                                                                                    
                                                                                                    
                                                                                                    
                                                                                                    
                                                                                                    
                                                                                                    
                                                                                                    
                                                                                                    
                                                                                                    
                                                                                                    
                                                                                                    
                                                                                                    
                                                                                                    
                           
<?xpacket end="w"?>
	</metadata>
<rect x="274.088" y="463.684" fill="#FFFFFF" width="310" height="72.22"/>
<rect x="274.088" y="535.904" fill="#7A2426" width="310" height="72.22"/>
<path fill="#8E908F" d="M755.573,9.717c-3.604,0-7.206-0.02-10.81,0.008c-1.981,0.015-3.964,0.148-5.945,0.159
	c-2.292,0.012-4.584-0.065-6.876-0.079c-1.904-0.011-3.809,0.024-5.711,0.018c-1.611-0.005-3.22-0.043-4.829-0.062
	c-6.237-0.074-12.476-0.233-18.71-0.179c-2.76,0.024-5.523,0.422-8.271,0.754c-5.361,0.647-10.715,1.371-16.071,2.059
	c-3.446,0.442-6.896,0.858-10.337,1.333c-0.676,0.093-1.354,0.335-1.977,0.626c-6.75,3.15-13.321,6.622-19.325,11.123
	c-0.964,0.723-1.71,1.503-2.093,2.7c-1.117,3.496-2.592,6.842-2.395,10.711c0.203,3.945,1.926,6.938,4.779,9.287
	c2.333,1.921,4.93,3.508,7.375,5.293c0.734,0.536,1.492,1.141,2,1.883c8.498,12.415,18.018,23.984,28.172,35.007
	c4.982,5.411,10.554,10.13,17.271,13.286c1.421,0.667,2.564,1.927,3.961,2.672c1.192,0.636,2.541,1.034,3.864,1.333
	c1.081,0.244,2.34-0.29,3.192,0.884c0.096,0.132,0.416,0.133,0.633,0.13c5.551-0.083,11.104-0.152,16.655-0.274
	c2.694-0.06,5.421,0.013,8.075-0.378c8.394-1.237,16.838-2.352,24.189-7.27c4.752-3.178,8.964-6.994,12.674-11.324
	c9.09-10.608,17.996-21.376,25.916-32.942c0.775-1.131,1.739-1.918,2.885-2.632c3.354-2.089,6.637-4.264,9.486-7.091
	c3.716-3.685,4.047-8.066,2.999-12.84c-0.033-0.152-0.101-0.297-0.149-0.446c-2.225-6.663-2.181-6.743-8.254-10.17
	c-5.133-2.895-10.391-5.558-15.574-8.361c-2.414-1.306-5.09-1.18-7.67-1.547c-5.27-0.75-10.542-1.499-15.832-2.076
	C764.447,10.828,760.099,9.446,755.573,9.717z"/>
<path fill="#552E5F" d="M520.648,298.026c0.873,2.408,1.559,4.885,2.436,7.292c2.397,6.582,3.101,13.633,5.689,20.168
	c1.293,3.263,1.711,6.763,2.276,10.22c1.163,7.123,2.556,14.209,3.663,21.339c0.422,2.712,1.574,5.25,1.163,8.206
	c-0.399,2.868,0.099,5.864,0.252,8.801c0.04,0.766,0.22,1.532,0.405,2.28c0.801,3.238,0.936,6.437-0.287,9.625
	c-0.266,0.694-0.311,1.508-0.305,2.265c0.022,3.256,0.477,6.53-0.574,9.728c-0.141,0.428-0.184,0.949-0.084,1.385
	c0.498,2.198-0.129,4.306-0.414,6.446c-0.143,1.076-0.166,2.168-0.245,3.253c-0.187,2.553-0.357,5.107-0.567,7.658
	c-0.405,4.951-0.883,9.897-1.238,14.852c-0.32,4.494-0.481,8.999-0.779,13.495c-0.415,6.273-0.91,12.542-1.332,18.815
	c-0.162,2.404-0.163,4.82-0.336,7.224c-0.316,4.409-0.789,8.81-1.039,13.223c-0.176,3.1,0.146,6.227-0.692,9.284
	c-0.159,0.581-0.132,1.258-0.021,1.86c0.507,2.783,0.311,5.53,0.042,8.337c-0.444,4.635-0.592,9.302-0.738,13.96
	c-0.201,6.363-0.131,12.721-0.98,19.072c-0.563,4.217-0.348,8.54-0.439,12.816c-0.117,5.445-0.166,10.894-0.3,16.338
	c-0.063,2.637-0.259,5.27-0.38,7.904c-0.018,0.386,0.039,0.775,0.071,1.162c0.103,1.234,0.325,2.472,0.295,3.702
	c-0.066,2.792-0.21,5.584-0.406,8.371c-0.312,4.414-0.679,8.825-1.049,13.236c-0.2,2.395-0.485,4.781-0.681,7.177
	c-0.26,3.176-0.184,6.409-0.767,9.521c-0.866,4.631-0.592,9.298-0.987,13.936c-0.357,4.175-0.644,8.355-0.951,12.534
	c-0.256,3.479-0.602,6.955-0.717,10.438c-0.124,3.812,0.016,7.633-0.043,11.448c-0.039,2.622-0.297,5.226-0.036,7.867
	c0.212,2.153,0.27,4.407-0.13,6.517c-0.955,5.037-2.117,10.044-4.014,14.84c-0.166,0.42-0.318,0.896-0.291,1.334
	c0.105,1.701,0.213,3.409,0.453,5.096c0.975,6.846,1.961,13.689,3.027,20.521c0.285,1.826,0.119,3.513-0.42,5.274
	c-0.832,2.719-2.234,5.117-3.709,7.497c-1.804,2.91-4.535,4.81-7.629,5.842c-4.624,1.543-9.208,3.314-14.119,3.917
	c-1.6,0.195-3.122,0.947-4.713,1.293c-3.564,0.775-7.146,1.469-10.728,2.163c-0.911,0.177-1.847,0.324-2.77,0.321
	c-2.014-0.007-3.991,0.063-6.011,0.339c-4.995,0.679-10.035,1.024-15.057,1.506c-1.157,0.11-2.357,0.481-3.461,0.29
	c-2.861-0.497-5.715-0.3-8.58-0.331c-5.502-0.061-11.006-0.184-16.504-0.418c-1.845-0.079-2.945,0.528-3.98,2.077
	c-7.268,10.876-14.661,21.669-21.944,32.535c-0.984,1.469-2.105,2.228-3.858,2.563c-3.119,0.596-6.182,1.496-9.255,2.318
	c-0.97,0.259-1.874,0.854-2.851,0.984c-3.635,0.488-7.275,0.637-10.892-0.277c-2.18-0.551-4.366-1.201-6.588-1.437
	c-5.574-0.589-11.165-1.035-16.759-1.389c-1.875-0.119-3.365-0.64-4.849-1.844c-3.676-2.981-6.967-6.477-11.252-8.676
	c-0.395-0.202-0.68-0.627-1.001-0.962c-0.855-0.895-1.652-1.853-2.571-2.675c-0.696-0.623-1.08-1.258-0.983-2.215
	c0.172-1.719-0.001-3.407-0.676-5.017c-0.56-1.336-0.078-2.59,0.241-3.873c0.276-1.111,0.62-2.242,0.646-3.371
	c0.117-5.062,0.13-10.125,0.185-15.188c0.026-2.413-0.411-4.961,0.223-7.205c0.654-2.316,2.369-4.329,3.588-6.492
	c0.337-0.599,0.665-1.236,0.819-1.896c0.581-2.488,1.001-5.017,1.663-7.48c0.292-1.09,0.842-2.219,1.584-3.055
	c1.484-1.672,2.249-3.705,3.266-5.616c0.436-0.818,0.819-1.687,1.385-2.408c1.169-1.492,1.808-3.052,1.265-4.969
	c-0.211-0.745-0.276-1.529-0.443-2.288c-1.254-5.695-2.323-11.411-2.783-17.243c-0.256-3.242-0.742-6.46-2.53-9.359
	c-1.218-1.974-2.216-4.1-3.147-6.229c-1.339-3.061-2.56-6.174-3.773-9.287c-1.521-3.899-3.313-7.734-4.381-11.758
	c-1.21-4.56-1.923-9.274-2.52-13.965c-0.449-3.529-1.399-6.997-1.227-10.625c0.169-3.563,0.157-7.146,0.001-10.71
	c-0.254-5.807-0.76-11.602-0.271-17.42c0.077-0.919-0.122-1.859-0.146-2.79c-0.026-1.082-0.018-2.165,0.01-3.247
	c0.026-1.009,0.159-2.019,0.141-3.025c-0.093-4.807-0.306-9.611-0.321-14.418c-0.046-13.708-0.009-27.417-0.028-41.126
	c-0.002-1.158-0.221-2.315-0.271-3.476c-0.146-3.337-0.392-6.676-0.345-10.011c0.047-3.254,0.566-6.502,0.593-9.755
	c0.054-6.692,0.121-13.374,0.616-20.057c0.281-3.796-0.043-7.633,0.085-11.445c0.129-3.85,0.642-7.688,0.705-11.537
	c0.199-12.142,0.289-24.284,0.365-36.427c0.016-2.406-0.264-4.812-0.325-7.22c-0.144-5.675-0.249-11.351-0.349-17.027
	c-0.151-8.554-0.236-17.109-0.442-25.661c-0.119-4.967-0.418-9.928-0.638-14.892c-0.007-0.155-0.04-0.309-0.053-0.464
	c-0.218-2.628-0.38-5.263-0.664-7.884c-0.562-5.199,0.775-10.217,1.587-15.25c0.824-5.117,2.201-10.157,3.552-15.172
	c1.392-5.17,2.952-10.299,4.602-15.393c2.557-7.896,5.242-15.75,7.893-23.614c0.521-1.544,1.226-3.031,1.689-4.59
	c1.482-4.987,3.028-9.935,5.477-14.566c1.086-2.055,2.029-4.211,2.783-6.408c0.896-2.612,2.188-4.962,3.802-7.176
	c0.496-0.68,1.064-1.447,1.185-2.237c0.455-3.008,0.59-6.08-0.595-8.94c-1.866-4.507-3.475-9.124-6.092-13.318
	c-1.65-2.647-2.296-5.62-0.445-8.593c0.285-0.458,0.415-1.012,0.694-1.475c1.324-2.19,1.894-4.56,1.905-7.112
	c0.007-1.413,0.421-2.726,1.292-3.914c1.185-1.617,2.224-3.339,3.377-4.98c1.966-2.796,3.873-5.642,5.983-8.326
	c3.294-4.192,6.173-8.705,10.257-12.288c2.96-2.597,5.339-5.852,8.273-8.483c3.623-3.248,7.477-6.256,11.385-9.16
	c1.782-1.324,3.931-2.16,5.923-3.195c1.584-0.824,3.359-1.391,4.742-2.466c3.002-2.334,6.622-3.378,9.891-5.14
	c2.234-1.205,4.63-2.113,6.859-3.328c3.637-1.981,7.371-3.679,11.478-4.357c4.357-0.719,8.755-1.202,13.099-1.988
	c8.471-1.534,16.931-3.135,25.365-4.858c3.638-0.744,7.263-1.555,10.727-3.071c2.74-1.199,5.49-0.917,8.154,0.914
	c3.926,2.699,6.293,6.514,7.786,10.77c2.144,6.106,4.973,11.874,7.802,17.654c1.5,3.064,3.061,6.121,4.864,9.011
	c2.63,4.213,5.541,8.249,8.259,12.408c1.482,2.271,2.785,4.66,4.223,6.961c1.266,2.027,2.77,3.921,3.879,6.027
	c1.734,3.289,3.035,6.812,4.857,10.047c3.885,6.902,5.555,14.584,8.09,21.962c0.15,0.435,0.242,0.912,0.244,1.37
	c0.02,3.804,0.091,7.611-0.025,11.412c-0.049,1.612-0.424,3.231-0.799,4.812c-0.592,2.484-1.332,4.933-1.967,7.408
	c-1.082,4.223-2.15,8.441-4.648,12.128c-0.865,1.276-1.596,2.645-2.375,3.978c-1.723,2.949-3.427,5.91-5.172,8.847
	c-0.271,0.458-0.688,0.843-1.086,1.21c-1.256,1.156-2.535,2.288-3.988,3.593C517.556,289.753,519.141,293.875,520.648,298.026z
	 M476.721,553.127c0.117-0.589,0.306-1.101,0.308-1.613c0.01-7.114,1.295-14.07,2.523-21.039c0.498-2.83,0.809-5.694,1.166-8.548
	c0.084-0.676,0.012-1.371,0.012-2.281c-0.913-0.067-1.662-0.171-2.412-0.171c-33.082-0.008-66.164-0.007-99.247-0.007
	c-0.389,0-0.777,0.01-1.167,0.009c-0.941-0.003-1.456,0.434-1.465,1.404c-0.003,0.312-0.021,0.622-0.026,0.934
	c-0.165,9.571-0.331,19.144-0.493,28.715c-0.013,0.767-0.001,1.533-0.001,2.598C409.72,553.127,443.158,553.127,476.721,553.127z"/>
<path fill="#8E908F" d="M755.573,39.625c-3.604,0-7.206-0.02-10.81,0.008c-1.981,0.015-3.964,0.148-5.945,0.159
	c-2.292,0.012-4.584-0.065-6.876-0.079c-1.904-0.011-3.809,0.024-5.711,0.018c-1.611-0.005-3.22-0.043-4.829-0.062
	c-6.237-0.074-12.476-0.233-18.71-0.179c-2.76,0.024-5.523,0.422-8.271,0.754c-5.361,0.647-10.715,1.371-16.071,2.059
	c-3.446,0.442-6.896,0.858-10.337,1.333c-0.676,0.093-1.354,0.335-1.977,0.626c-6.75,3.15-13.321,6.622-19.325,11.123
	c-0.964,0.723-1.71,1.503-2.093,2.7c-1.117,3.496-2.592,6.842-2.395,10.711c0.203,3.945,1.926,6.938,4.779,9.287
	c2.333,1.921,4.93,3.508,7.375,5.293c0.734,0.536,1.492,1.141,2,1.883c8.498,12.415,18.018,23.984,28.172,35.007
	c4.982,5.411,10.554,10.13,17.271,13.286c1.421,0.667,2.564,1.927,3.961,2.672c1.192,0.636,2.541,1.034,3.864,1.333
	c1.081,0.244,2.34-0.29,3.192,0.884c0.096,0.132,0.416,0.133,0.633,0.13c5.551-0.083,11.104-0.152,16.655-0.274
	c2.694-0.06,5.421,0.013,8.075-0.378c8.394-1.237,16.838-2.352,24.189-7.27c4.752-3.178,8.964-6.994,12.674-11.324
	c9.09-10.608,17.996-21.376,25.916-32.942c0.775-1.131,1.739-1.918,2.885-2.632c3.354-2.089,6.637-4.264,9.486-7.091
	c3.716-3.685,4.047-8.066,2.999-12.84c-0.033-0.152-0.101-0.297-0.149-0.446c-2.225-6.663-2.181-6.743-8.254-10.17
	c-5.133-2.895-10.391-5.558-15.574-8.361c-2.414-1.306-5.09-1.18-7.67-1.547c-5.27-0.75-10.542-1.499-15.832-2.076
	C764.447,40.736,760.099,39.354,755.573,39.625z"/>
</svg>
