<?xml version="1.0" encoding="utf-8"?>
<!-- Generator: Adobe Illustrator 16.0.0, SVG Export Plug-In . SVG Version: 6.00 Build 0)  -->
<!DOCTYPE svg PUBLIC "-//W3C//DTD SVG 1.1//EN" "http://www.w3.org/Graphics/SVG/1.1/DTD/svg11.dtd" [
	<!ENTITY ns_flows "http://ns.adobe.com/Flows/1.0/">
	<!ENTITY ns_extend "http://ns.adobe.com/Extensibility/1.0/">
	<!ENTITY ns_ai "http://ns.adobe.com/AdobeIllustrator/10.0/">
	<!ENTITY ns_graphs "http://ns.adobe.com/Graphs/1.0/">
	<!ENTITY ns_vars "http://ns.adobe.com/Variables/1.0/">
	<!ENTITY ns_imrep "http://ns.adobe.com/ImageReplacement/1.0/">
	<!ENTITY ns_sfw "http://ns.adobe.com/SaveForWeb/1.0/">
	<!ENTITY ns_custom "http://ns.adobe.com/GenericCustomNamespace/1.0/">
	<!ENTITY ns_adobe_xpath "http://ns.adobe.com/XPath/1.0/">
]>
<svg version="1.1" id="Layer_1" xmlns:x="&ns_extend;" xmlns:i="&ns_ai;" xmlns:graph="&ns_graphs;"
	 xmlns="http://www.w3.org/2000/svg" xmlns:xlink="http://www.w3.org/1999/xlink" xmlns:a="http://ns.adobe.com/AdobeSVGViewerExtensions/3.0/"
	 x="0px" y="0px" width="850.391px" height="850.39px" viewBox="0 0 850.391 850.39" enable-background="new 0 0 850.391 850.39"
	 xml:space="preserve">
<metadata><?xpacket begin="﻿" id="W5M0MpCehiHzreSzNTczkc9d"?>
<x:xmpmeta xmlns:x="adobe:ns:meta/" x:xmptk="Adobe XMP Core 5.3-c011 66.145661, 2012/02/06-14:56:27        ">
   <rdf:RDF xmlns:rdf="http://www.w3.org/1999/02/22-rdf-syntax-ns#">
      <rdf:Description rdf:about=""
            xmlns:xmp="http://ns.adobe.com/xap/1.0/"
            xmlns:xmpGImg="http://ns.adobe.com/xap/1.0/g/img/">
         <xmp:CreatorTool>Adobe Illustrator CS6 (Macintosh)</xmp:CreatorTool>
         <xmp:CreateDate>2019-09-30T21:34:11+08:00</xmp:CreateDate>
         <xmp:MetadataDate>2019-09-30T21:34:11+08:00</xmp:MetadataDate>
         <xmp:ModifyDate>2019-09-30T21:34:11+08:00</xmp:ModifyDate>
         <xmp:Thumbnails>
            <rdf:Alt>
               <rdf:li rdf:parseType="Resource">
                  <xmpGImg:width>228</xmpGImg:width>
                  <xmpGImg:height>256</xmpGImg:height>
                  <xmpGImg:format>JPEG</xmpGImg:format>
                  <xmpGImg:image>/9j/4AAQSkZJRgABAgEASABIAAD/7QAsUGhvdG9zaG9wIDMuMAA4QklNA+0AAAAAABAASAAAAAEA&#xA;AQBIAAAAAQAB/+4ADkFkb2JlAGTAAAAAAf/bAIQABgQEBAUEBgUFBgkGBQYJCwgGBggLDAoKCwoK&#xA;DBAMDAwMDAwQDA4PEA8ODBMTFBQTExwbGxscHx8fHx8fHx8fHwEHBwcNDA0YEBAYGhURFRofHx8f&#xA;Hx8fHx8fHx8fHx8fHx8fHx8fHx8fHx8fHx8fHx8fHx8fHx8fHx8fHx8fHx8f/8AAEQgBAADkAwER&#xA;AAIRAQMRAf/EAaIAAAAHAQEBAQEAAAAAAAAAAAQFAwIGAQAHCAkKCwEAAgIDAQEBAQEAAAAAAAAA&#xA;AQACAwQFBgcICQoLEAACAQMDAgQCBgcDBAIGAnMBAgMRBAAFIRIxQVEGE2EicYEUMpGhBxWxQiPB&#xA;UtHhMxZi8CRygvElQzRTkqKyY3PCNUQnk6OzNhdUZHTD0uIIJoMJChgZhJRFRqS0VtNVKBry4/PE&#xA;1OT0ZXWFlaW1xdXl9WZ2hpamtsbW5vY3R1dnd4eXp7fH1+f3OEhYaHiImKi4yNjo+Ck5SVlpeYmZ&#xA;qbnJ2en5KjpKWmp6ipqqusra6voRAAICAQIDBQUEBQYECAMDbQEAAhEDBCESMUEFURNhIgZxgZEy&#xA;obHwFMHR4SNCFVJicvEzJDRDghaSUyWiY7LCB3PSNeJEgxdUkwgJChgZJjZFGidkdFU38qOzwygp&#xA;0+PzhJSktMTU5PRldYWVpbXF1eX1RlZmdoaWprbG1ub2R1dnd4eXp7fH1+f3OEhYaHiImKi4yNjo&#xA;+DlJWWl5iZmpucnZ6fkqOkpaanqKmqq6ytrq+v/aAAwDAQACEQMRAD8A9U4q7FXYq7FXYq7FXYq7&#xA;FXYq7FXYq7FXYq7FXYq7FXYq7FXYq7FXYq7FXYq7FXYq7FXYq7FXYq7FXYq7FXYq7FXYq7FXYq7F&#xA;XYq7FXYq7FXYq7FXYq7FXYq7FXYq7FXYq7FXYq7FXYq7FXYq7FXYq7FXYq7FXYq7FXYq7FXYq7FX&#xA;Yq7FXYq7FXYq7FXYq7FXYq7FXYq7FXYq7FXYq7FXYq7FXYq7FXYq7FXYq7FXYq7FXYq7FXYq7FXY&#xA;q7FXYq7FXYq7FXYq7FXYq7FXYq7FXYq7FXYq7FXYq7FXYq7FXYq7FXYq7FXYq7FXYq7FXYq7FXYq&#xA;7FXYq7FXYq7FXYq7FXYq7FXYq7FXYq7FXYq7FXYq7FXYq7FXYq7FXYq7FXYq7FXYq7FXYq7FXYq7&#xA;FXYq7FXYq7FXYq7FXYq7FXYq7FXYq7FXYq7FXYq7FXYq7FXYq7FXYq7FXYq7FXYq7FXYq7FXYq7F&#xA;XYq7FXYq7FXYq7FXYq7FXYq7FXYq7FXYq7FXYq7FXYq7FXYq7FXYq7FXYq7FXYq7FXYq7FXYq7FX&#xA;Yq7FXYq7FXYq7FXYq7FXYq7FXYq7FXYq7FXYq7FXYq7FXYq7FXYq7FXYq7FXYq7FXYq7FXYq7FXY&#xA;q7FXYq7FXYq7FXYq7FXYq7FXYq7FXYq7FXYq7FXYq7FXYq7FXYq7FXYq7FXYq7FXYq7FXYq7FXYq&#xA;7FXYq7FXYq7FXYq7FXYq7FXYq7FXYq7FXYq7FXYq7FXYq7FXYq7FXYq7FXYq7FXYq7FXYq7FXYq7&#xA;FXYq7FXYq7FXYq7FXYq7FXYq7FXYq7FXYq7FXYq7FXYq7FXYq7FXYq7FXYq7FXYq7FXYq7FXYq7F&#xA;XYq7FXYq7FXYq7FXYq7FXYq7FXYq7FXYq7FXYq7FXYq7FXYq7FXYq7FXYq7FXYq7FXYq7FXYq7FX&#xA;Yq7FXYq7FXYq7FXYq7FXYq7FXYq7FXYq7FXYq7FXYq7FXYq7FXYq7FXYq7FXYq7FXYq7FXYq7FXY&#xA;q7FXYq7FXYq7FXYq7FXYq7FXYq7FXYq7FXYq7FXYq7FXYq7FXYq7FXYq7FXYq7FXYq7FXYq7FXYq&#xA;7FXYq7FXYq7FXYq7FXg352/mv528q+ck0zRbxILNrOKYo0MUh5uzgnk6k/sjKMkyDs7fQ6THkhch&#xA;vad/kJ5984+cJNZl126Se3sRAsCrFHH8cpkLGqKK0EY+/JYpE82rX6eGOuEc3r2WutdirsVdirsV&#xA;dirsVdirsVdirsVdirsVdirsVdirsVdirz/87fM/mTyz5Pj1bQZ1guI7uOO4Zo0kBhkVx0cHfnx6&#xA;ZXkJA2czQ4oznwy7ng//AEML+aX/AFcov+kaD/mjKfFk7b+T8Pd9rv8AoYX80v8Aq5Rf9I0H/NGP&#xA;iyX+T8Pd9qb/APK9PzI/wl+kf0hF9b+v/V+f1eGnp+jzpTjT7WHxDTX+RxcdVtT6hzJdC7FXYq7F&#xA;XYq+V/8AnJj/AMmLH/2z4P8AicmY2bm7/sz+6+KT/lt+cGoeRdOu7O002G8+uTCZ5ZXdSOKhQoC7&#xA;ZGGThbdToxlIJNUzD/oajX/+rHaf8jZMn4xcb+So/wA4u/6Go1//AKsdp/yNkx8Yr/JUf5xd/wBD&#xA;Ua//ANWO0/5GyY+MV/kqP84voy2lM1tFKRQyIrkDtyFcyHSkUVTFDsVdirsVdirsVdirsVdirsVd&#xA;ir5917/nJjW9N13UdPi0W2kis7qa3jd5JAzLFIyAmm1SBlBzG3cY+zIyiDZ3CB/6Go1//qx2n/I2&#xA;TB4xZ/yVH+cXf9DUa/8A9WO0/wCRsmPjFf5Kj/OKRed/z71Xzb5Zu9BudJtreK6MZ9dHdmQxSrIK&#xA;A7b8KfTkZZbFNuDQDHMSBeWZW7B2Ksg/6YD/ALev/Yth6NP+U/zf0vuDM15V2KuxV2KuxV8r/wDO&#xA;TH/kxY/+2fB/xOTMbNzd/wBmf3XxYTo35eedtbsE1DStHuLuykLKk8ajiSpo1KkdDlYiS5U9Rjia&#xA;Joo7/lUH5mf9S9d/8Cv9cPhy7mP5zF/ODv8AlUH5mf8AUvXf/Ar/AFx8OXcv5zF/ODv+VQfmZ/1L&#xA;13/wK/1x8OXcv5zF/OD7E0aOePR7GOcETpbxLKG3YOEAavvXMscnmp/UaRmFi7FXYq7FXYq7FXYq&#xA;7FXYq7FXYq+Ptf8Ayq/Mq717UrpdBupFuLqaVZAq0YPIzVG/euYhgb5PSY9XiEQOIckB/wAqg/Mz&#xA;/qXrv/gV/rg8OXcz/OYv5wd/yqD8zP8AqXrv/gV/rj4cu5fzmL+cFG9/Kz8wrKznvLvQrmG1to3m&#xA;nlYLxSONSzMd+gArjwFMdVjJoSDFci5DsVZB/wBMB/29f+xbD0af8p/m/pfcGZryrsVdirsVdir5&#xA;X/5yY/8AJix/9s+D/icmY2bm7/sz+6+L2/8AJC0Fr+VugpSheOWU9N/Vnkft7Nl2P6XV643mkznJ&#xA;uI7FXYq7FXYq7FXYq7FXYq7FXYq7FXYq7FXYq7FXYq7FUv8AMNn9d0DU7OlfrNpPDTx9SNl9/HAe&#xA;TPGakD5vg/MJ612Ksg/6YD/t6/8AYth6NP8AlP8AN/S+4MzXlXYq7FXYq7FULc6TpV3J6t1ZwTy0&#xA;485YkdqDtVgcFMhMjkURDDFDEsUKLHEgokaAKoHgANhhQTa7FDsVdirsVdirsVdirsVdirsVdirs&#xA;VdirsVdirsVdirsVdiqX/wCHtA/6tlp/yIj/AOacFBn4ku8u/wAPaB/1bLT/AJER/wDNONBfEl3l&#xA;d+gtD9P0/wBHW3p15cPRj48qUrSnXGgviS7yjsLB2KuxV2KuxV8r/wDOTH/kxY/+2fB/xOTMbNzd&#xA;/wBmf3XxQ+nf85Fef9P0+1sII7AwWkMcERaFy3CNQi1PqDegwDKWUuzsZJO+6I/6GY/MX/fWn/8A&#xA;Ih/+qmPjFj/JmLzd/wBDMfmL/vrT/wDkQ/8A1Ux8Yr/JmLzd/wBDMfmL/vrT/wDkQ/8A1Ux8Yr/J&#xA;mLzfTHl29ub7y/pl7dcfrV1aQTT8QVX1JI1ZqKSaCp6VzJHJ0eSIEiB3phhYOxV2KuxV2KuxV2Ku&#xA;xV2KuxV2Kvly7/5yS/MWG7mhEVhSKRkFYJK/CSP9+ZjeKXfDs3ER1Uv+hmPzF/31p/8AyIf/AKqY&#xA;PGKf5Mxebv8AoZj8xf8AfWn/APIh/wDqpj4xX+TMXm7/AKGY/MX/AH1p/wDyIf8A6qY+MV/kzF5v&#xA;LLu5ku7ua6lp6s8jSvx2HJyWNPvyt2AFClLFLIP+mA/7ev8A2LYejT/lP839L7gzNeVdirsVdirs&#xA;VfK//OTH/kxY/wDtnwf8TkzGzc3f9mf3XxSHRPyT/MPWtKttV0+wjksrtPUgkNxChKk0+yzAjIjG&#xA;S3T1uOJIJ3CO/wChevzS/wCrbF/0kwf814fCkw/lDD3/AGO/6F6/NL/q2xf9JMH/ADXj4Ul/lDD3&#xA;/YiNP/5x2/MaS/to76ySCyeVFup0ngdkiLAO6rz+IqtTTEYiiXaOKtju+rLe3it7eK3hXjFCixxr&#xA;1oqigG/sMynnybNqmKHYq7FXYq7FXYq7FXYq7FXYq7FXy/5x/wCcffPUnmjU5tFtUutLnuHmtZnm&#xA;ijbjKefEqzV+AsVr3pXMaWI3s77D2hj4BxHdJ/8AoXr80v8Aq2xf9JMH/NeDwpNn8oYe/wCx3/Qv&#xA;X5pf9W2L/pJg/wCa8fCkv8oYe/7Fkv8Azj9+aEUbyPp0QRAWY/WYOgFT+3g8KSR2hi7/ALHnWQc1&#xA;2Ksg/wCmA/7ev/Yth6NP+U/zf0vuDM15V2KuxV2KuxV2KuxV2KuxV2KuxV2KuxV2KuxV2KuxV2Ku&#xA;xV2KuxV2KuxV2KuxV2KuxV2KuxV2KuxV2KuxV2KuxV2KuxV2KuxV2KuxV2KuxV2KuxV2KuxV2Kux&#xA;V2KuxV2KuxV2KuxV2KuxV2KuxV2KuxV2KuxV2KuxV2KuxV2KuxV2KuxV2KuxV2KuxV2KuxV2KuxV&#xA;2KuxV2KuxV2KuxV2KuxV2KuxV2KuxV2KuxV2KuxV2KuxV2KuxV2KuxV2KuxV2KuxV2KuxV2KuxV2&#xA;KuxV2KuxV2KuxV2KuxV2KuxV2KuxV2KuxV2KuxV2KuxV2KuxV2KuxV2KuxV2KuxV2KuxV2KuxV2K&#xA;uxV2KuxV2KuxV2KuxV2KuxV2KuxV2KuxV2KuxV2KuxV2KuxV2KuxV2KuxV2KuxV2KuxV2KuxV2Ku&#xA;xV2KuxV2KuxV2KuxV2KuxV2KuxV2KuxV2KuxV2KuxV2KuxV2KuxV2KuxV2KuxV2KuxV2KuxV2Kux&#xA;V2KuxV2KuxV2KuxV2KuxV2KuxV2KuxV2KuxV2KuxV2KuxV2KuxV2KuxV2KuxV2KuxV2KuxV2KuxV&#xA;2KuxV2KuxV2KuxV2KuxV2KuxV2KuxV2KuxV2KuxV2KuxV2KuxV2KuxV2KuxV2KuxV2KuxV2KuxV2&#xA;KuxV2KuxV2KuxV2KuxV2KuxV2KuxV2KuxV2KuxV2KuxV2KuxV2KuxV2KuxV2KuxV2KuxV2Kv/9k=</xmpGImg:image>
               </rdf:li>
            </rdf:Alt>
         </xmp:Thumbnails>
      </rdf:Description>
      <rdf:Description rdf:about=""
            xmlns:xmpTPg="http://ns.adobe.com/xap/1.0/t/pg/"
            xmlns:stDim="http://ns.adobe.com/xap/1.0/sType/Dimensions#"
            xmlns:xmpG="http://ns.adobe.com/xap/1.0/g/">
         <xmpTPg:MaxPageSize rdf:parseType="Resource">
            <stDim:w>299.998915</stDim:w>
            <stDim:h>299.998743</stDim:h>
            <stDim:unit>Millimeters</stDim:unit>
         </xmpTPg:MaxPageSize>
         <xmpTPg:NPages>1</xmpTPg:NPages>
         <xmpTPg:HasVisibleTransparency>False</xmpTPg:HasVisibleTransparency>
         <xmpTPg:HasVisibleOverprint>False</xmpTPg:HasVisibleOverprint>
         <xmpTPg:PlateNames>
            <rdf:Seq>
               <rdf:li>Cyan</rdf:li>
               <rdf:li>Magenta</rdf:li>
               <rdf:li>Yellow</rdf:li>
               <rdf:li>Black</rdf:li>
            </rdf:Seq>
         </xmpTPg:PlateNames>
         <xmpTPg:SwatchGroups>
            <rdf:Seq>
               <rdf:li rdf:parseType="Resource">
                  <xmpG:groupName>Default Swatch Group</xmpG:groupName>
                  <xmpG:groupType>0</xmpG:groupType>
               </rdf:li>
            </rdf:Seq>
         </xmpTPg:SwatchGroups>
      </rdf:Description>
      <rdf:Description rdf:about=""
            xmlns:dc="http://purl.org/dc/elements/1.1/">
         <dc:format>image/svg+xml</dc:format>
      </rdf:Description>
      <rdf:Description rdf:about=""
            xmlns:xmpMM="http://ns.adobe.com/xap/1.0/mm/"
            xmlns:stRef="http://ns.adobe.com/xap/1.0/sType/ResourceRef#"
            xmlns:stEvt="http://ns.adobe.com/xap/1.0/sType/ResourceEvent#">
         <xmpMM:DerivedFrom rdf:parseType="Resource">
            <stRef:instanceID>xmp.iid:055A81E56D21681180839FCCDFDC130E</stRef:instanceID>
            <stRef:documentID>xmp.did:055A81E56D21681180839FCCDFDC130E</stRef:documentID>
            <stRef:originalDocumentID>xmp.did:015A81E56D21681180839FCCDFDC130E</stRef:originalDocumentID>
         </xmpMM:DerivedFrom>
         <xmpMM:DocumentID>xmp.did:065A81E56D21681180839FCCDFDC130E</xmpMM:DocumentID>
         <xmpMM:InstanceID>xmp.iid:065A81E56D21681180839FCCDFDC130E</xmpMM:InstanceID>
         <xmpMM:OriginalDocumentID>xmp.did:015A81E56D21681180839FCCDFDC130E</xmpMM:OriginalDocumentID>
         <xmpMM:History>
            <rdf:Seq>
               <rdf:li rdf:parseType="Resource">
                  <stEvt:action>saved</stEvt:action>
                  <stEvt:instanceID>xmp.iid:015A81E56D21681180839FCCDFDC130E</stEvt:instanceID>
                  <stEvt:when>2019-09-30T20:05:57+08:00</stEvt:when>
                  <stEvt:softwareAgent>Adobe Illustrator CS6 (Macintosh)</stEvt:softwareAgent>
                  <stEvt:changed>/</stEvt:changed>
               </rdf:li>
               <rdf:li rdf:parseType="Resource">
                  <stEvt:action>saved</stEvt:action>
                  <stEvt:instanceID>xmp.iid:065A81E56D21681180839FCCDFDC130E</stEvt:instanceID>
                  <stEvt:when>2019-09-30T21:34:11+08:00</stEvt:when>
                  <stEvt:softwareAgent>Adobe Illustrator CS6 (Macintosh)</stEvt:softwareAgent>
                  <stEvt:changed>/</stEvt:changed>
               </rdf:li>
            </rdf:Seq>
         </xmpMM:History>
      </rdf:Description>
   </rdf:RDF>
</x:xmpmeta>
                                                                                                    
                                                                                                    
                                                                                                    
                                                                                                    
                                                                                                    
                                                                                                    
                                                                                                    
                                                                                                    
                                                                                                    
                                                                                                    
                                                                                                    
                                                                                                    
                                                                                                    
                                                                                                    
                                                                                                    
                                                                                                    
                                                                                                    
                                                                                                    
                                                                                                    
                                                                                                    
                           
<?xpacket end="w"?>
	</metadata>
<rect x="177.696" y="405.028" fill="#7A2426" width="534" height="86.667"/>
<rect x="177.696" y="514.362" fill="#7A2426" width="534" height="45"/>
<path fill="#FFFFFF" d="M300.517,775.183c-0.239,1.244-0.403,2.095-0.586,3.049c-0.928-0.186-1.592-0.318-2.432-0.486
	c-0.327,0.734-0.786,1.463-0.977,2.256c-0.479,1.996-1.808,2.646-3.705,2.83c-3.863,0.377-7.715,0.876-11.566,1.361
	c-8.126,1.024-16.01,3.07-23.843,5.432c-2.933,0.884-6.09,1.119-9.167,1.381c-1.25,0.106-2.594-0.404-3.836-0.812
	c-2.354-0.773-4.251,0.096-6.177,1.484c-2.641-3.643-4.906-7.411-4.953-12.171c-0.035-3.568-0.13-7.151-0.5-10.696
	c-0.239-2.291-0.683-4.68-1.631-6.752c-1.999-4.366-3.23-8.899-3.932-13.606c-0.729-4.891-2.255-9.468-4.635-13.837
	c-3.055-5.609-5.548-11.5-6.807-17.796c-0.559-2.796-0.69-5.692-0.831-8.553c-0.202-4.111-0.219-8.231-0.344-12.348
	c-0.119-3.946-1.848-7.345-3.728-10.679c-2.1-3.726-4.162-7.455-5.412-11.588c-1.269-4.196-1.86-8.492-2.053-12.843
	c-0.268-6.071,0.37-12.09,1.164-18.104c0.483-3.661-0.359-7.26-0.872-10.876c-0.598-4.216-1.01-8.461-1.383-12.704
	c-0.475-5.405-0.824-10.822-1.236-16.234c-0.365-4.797-0.686-9.6-1.129-14.39c-0.643-6.948-1.402-13.885-2.064-20.832
	c-0.302-3.167-0.519-6.343-0.714-9.52c-0.084-1.372-0.014-2.753-0.014-4.484c14.318-0.032,28.776-0.01,43.234-0.014
	c14.463-0.004,28.925-0.001,43.764-0.001c-0.71-1.273-1.219-2.187-1.767-3.168c0.539-0.683,1.082-1.332,1.582-2.013
	c1.546-2.106,2.691-4.424,2.909-7.038c0.521-6.284,0.921-12.578,1.361-18.868c0.016-0.227-0.053-0.457-0.121-0.985
	c-0.768-0.057-1.581-0.166-2.394-0.169c-5.296-0.016-10.594-0.008-15.891-0.008c-23.835,0-47.671,0-71.507,0
	c-0.995,0-1.99,0-2.912,0c-0.98-3.623,3.097-53.297,4.748-58.255c29.017,0,58.115,0,87.187,0
	c-0.488-10.793-0.966-21.348-1.456-32.187c-27.904,0-55.657,0-83.688,0c0.411-3.533,0.66-6.769,1.181-9.96
	c1.561-9.569,2.94-19.181,4.924-28.665c2.813-13.448,6.122-26.793,9.179-40.191c1.574-6.898,3.397-13.727,5.685-20.42
	c0.929-2.716,2.043-5.382,3.268-7.979c3.815-8.091,7.714-16.142,11.604-24.196c0.64-1.325,1.401-2.591,2.266-4.176
	c1.359,0.961,2.638,1.865,4.066,2.875c0.553-1.175,0.996-2.415,1.681-3.501c1.169-1.854,2.004-3.923,3.935-5.294
	c0.791-0.561,1.052-1.851,1.597-2.783c0.229-0.393,0.507-0.94,0.867-1.041c2.349-0.653,3.308-3.159,5.566-4.008
	c1.233-0.463,2.154-1.7,3.322-2.413c1.441-0.88,2.996-1.573,4.496-2.358c0.339-0.178,0.667-0.386,0.976-0.612
	c3.144-2.298,6.542-4.133,10.028-5.865c2.472-1.228,4.708-2.929,7.058-4.407c2.945-1.854,5.897-3.694,8.844-5.544
	c0.128-0.081,0.24-0.302,0.343-0.292c1.645,0.163,2.334-1.244,3.417-2.019c1.026-0.734,2.03-1.398,2.278-2.786
	c0.043-0.243,0.66-0.384,1.17-0.655c-0.831-1.9-0.965-4.098-0.578-6.301c0.124-0.703,0.546-1.41,0.997-1.986
	c0.665-0.85,1.44-1.625,2.236-2.359c2.003-1.848,3.815-3.813,4.963-6.348c0.549-1.212,1.506-2.137,2.805-2.667
	c0.873-0.355,1.308-0.953,1.647-1.982c0.889-2.688,2.237-5.221,3.256-7.872c0.399-1.039,0.496-2.22,0.58-3.348
	c0.15-2.012,1.238-3.419,2.619-4.764c2.39-2.327,4.725-4.716,6.975-7.178c0.493-0.54,0.531-1.495,0.763-2.208
	c-1.977-2.282-3.756-4.5-4.776-7.273c-2.046-5.562-1.485-10.881,1.465-15.899c5.913-10.057,11.95-20.041,17.933-30.056
	c0.353-0.59,0.677-1.198,1.025-1.815c-1.071-1.156-2.122-2.181-3.048-3.308c-5.064-6.159-5.611-15.112-0.812-21.645
	c2.8-3.811,6.022-7.317,9.134-10.891c8.427-9.673,16.903-19.304,25.348-28.961c8.906-10.184,17.732-20.439,26.725-30.545
	c4.941-5.553,11.181-7.609,18.554-5.995c0.927,0.203,2.013,0.152,2.924-0.12c8.115-2.421,16.17,0.301,20.909,7.308
	c3.397,5.022,6.627,10.157,10.011,15.362c0.575-0.076,1.178-0.118,1.766-0.239c4.788-0.985,9.298-0.207,13.471,2.281
	c5.744,3.424,11.45,6.915,17.145,10.421c4.008,2.467,6.635,6.057,8.089,10.491c2.809,8.567,5.569,17.149,8.336,25.73
	c2.909,9.021,5.797,18.049,8.703,27.072c3.072,9.541,6.184,19.07,9.225,28.621c2.294,7.201-0.236,15.197-6.198,19.877
	c-0.361,0.283-0.726,0.562-1.033,0.802c0.678,2.25,1.339,4.384,1.964,6.529c1.147,3.936,3.588,7.02,6.486,9.781
	c0.534,0.509,1.287,0.869,2.004,1.09c1.922,0.594,3.397,1.752,4.769,3.186c3.632,3.799,6.182,8.36,8.967,12.736
	c2.35,3.691,4.87,7.217,7.836,10.421c1.578,1.705,3.353,3.214,4.469,5.334c0.359,0.682,1.239,1.097,1.896,1.614
	c1.304,1.028,3.104,1.582,3.539,3.449c0.182,0.777,0.256,1.649,0.096,2.419c-0.235,1.132-0.03,1.797,1.168,2.059
	c1.287,0.28,2.203,1.062,2.791,2.417c2.039-0.471,3.352,0.566,4.754,1.987c1.154,1.169,2.906,1.749,4.393,2.591
	c0.576,0.327,1.179,0.619,1.722,0.996c2.991,2.072,5.947,4.134,9.259,5.763c2.961,1.457,6.075,2.847,8.519,5.26
	c0.558,0.55,1.519,0.668,2.234,1.086c2.446,1.433,5.01,2.723,7.25,4.433c1.69,1.29,3.669,2.466,4.896,4.08
	c1.296,1.704,2.806,3.29,3.91,5.133c1.331,2.22,2.489,4.544,3.75,6.876c1.531-0.518,2.413-2.233,4.284-2.317
	c1.166,2.225,2.374,4.395,3.459,6.625c2.754,5.665,5.681,11.261,8.106,17.065c2.12,5.073,3.773,10.355,5.421,15.611
	c3.065,9.783,6.28,19.522,8.634,29.52c2.775,11.789,5.588,23.566,7.597,35.518c1.427,8.496,2.843,16.994,4.203,25.501
	c0.267,1.67,0.259,3.385,0.392,5.278c-28.058,0-56.074,0-84.402,0c-0.485,10.791-0.963,21.403-1.449,32.227
	c29.354,0,58.688,0,88.165,0c0.232,1.62,0.485,3.054,0.639,4.498c0.945,8.944,1.904,17.888,2.782,26.84
	c0.303,3.088,0.388,6.197,0.569,9.296c0.291,4.957,0.585,9.913,0.863,14.87c0.043,0.771,0.006,1.548,0.006,2.607
	c-1.088,0.052-2.062,0.139-3.036,0.139c-29.211,0.007-58.421,0.006-87.632,0.006c-0.992,0-1.984,0-3.079,0
	c-0.076,0.683-0.192,1.134-0.166,1.576c0.364,6.061,0.691,12.124,1.148,18.179c0.266,3.518,1.674,6.612,4.031,9.259
	c0.203,0.228,0.363,0.494,0.598,0.818c-0.348,0.674-0.689,1.337-1.234,2.394c7.498,0.049,14.702,0.016,21.904,0.022
	c7.322,0.006,14.644,0.001,21.966,0.001c7.244,0,14.488,0,21.732,0c7.221,0,14.44,0,21.806,0c-0.15,3.156-0.198,6.008-0.441,8.842
	c-0.37,4.322-0.9,8.632-1.319,12.951c-0.741,7.644-1.483,15.288-2.156,22.938c-0.307,3.479-0.438,6.973-0.666,10.459
	c-0.42,6.422-0.808,12.847-1.31,19.263c-0.139,1.771-0.513,3.548-0.989,5.265c-1.196,4.305-0.837,8.615-0.277,12.943
	c0.963,7.423,1.136,14.839-0.067,22.261c-0.886,5.462-3.043,10.404-5.805,15.144c-1.837,3.152-3.786,6.289-4.26,10.013
	c-0.234,1.843-0.365,3.714-0.356,5.571c0.025,5.363-0.055,10.721-0.837,16.035c-0.271,1.837-0.687,3.676-1.263,5.439
	c-1.618,4.953-3.473,9.811-6.089,14.353c-2.722,4.723-3.935,9.942-4.772,15.266c-0.62,3.935-1.661,7.74-3.389,11.344
	c-1.646,3.434-2.113,7.12-2.196,10.863c-0.073,3.264,0.026,6.58-1.054,9.679c-0.927,2.662-1.164,5.608-2.988,8.014
	c-0.628,0-1.35,0.21-1.842-0.038c-1.635-0.824-3.178-0.495-4.724,0.118c-3.692,1.465-7.326,1.13-11.127,0.195
	c-12.161-2.988-24.444-5.403-36.832-7.27c-0.691-0.104-1.377-0.406-2.06-0.389c-2.319,0.058-3.435-1.367-3.858-3.308
	c-0.388-1.768-1.595-2.964-2.78-3.923c-0.89-0.719-2.512-0.751-3.799-0.722c-7.304,0.169-14.604,0.453-21.906,0.686
	c-1.167,0.037-2.337-0.012-3.505,0.016c-9.407,0.218-18.815,0.406-28.222,0.684c-5.59,0.165-11.179,0.427-16.764,0.73
	c-5.734,0.312-11.462,0.77-17.197,1.087c-4.189,0.231-8.386,0.348-12.58,0.5c-6.911,0.251-13.824,0.688-20.735,0.675
	c-6.054-0.011-12.106-0.534-18.159-0.826c-2.25-0.108-4.501-0.201-6.751-0.309c-4.656-0.222-9.312-0.446-13.967-0.675
	c-6.122-0.301-12.242-0.623-18.364-0.903c-3.025-0.138-6.054-0.206-9.082-0.297c-7.383-0.221-14.766-0.438-22.148-0.652
	c-0.623-0.019-1.247-0.006-1.87-0.019c-7.855-0.155-15.709-0.34-23.565-0.458C308.833,775.131,304.647,775.183,300.517,775.183z
	 M550.791,251.958c-0.787-0.946-0.787-0.946-1.807-0.972C549.679,251.36,550.236,251.659,550.791,251.958z"/>
<path fill="#FFFFFF" d="M115.258,58.91c3.631,0,7.264-0.02,10.895,0.008c1.998,0.015,3.995,0.146,5.992,0.157
	c2.31,0.012,4.619-0.064,6.93-0.078c1.919-0.011,3.837,0.024,5.756,0.018c1.623-0.005,3.244-0.042,4.866-0.061
	c6.286-0.073,12.572-0.23,18.855-0.177c2.781,0.023,5.565,0.417,8.335,0.746c5.404,0.641,10.8,1.357,16.197,2.038
	c3.473,0.438,6.949,0.849,10.418,1.319c0.682,0.092,1.363,0.332,1.992,0.62c6.803,3.118,13.425,6.555,19.477,11.011
	c0.972,0.716,1.724,1.488,2.107,2.673c1.126,3.461,2.613,6.773,2.413,10.604c-0.204,3.906-1.939,6.868-4.815,9.193
	c-2.352,1.901-4.969,3.473-7.433,5.24c-0.74,0.531-1.504,1.129-2.016,1.864c-8.564,12.29-18.159,23.742-28.393,34.653
	c-5.021,5.356-10.637,10.028-17.405,13.152c-1.434,0.661-2.586,1.908-3.992,2.645c-1.202,0.629-2.562,1.023-3.896,1.319
	c-1.089,0.241-2.357-0.287-3.217,0.875c-0.097,0.131-0.42,0.132-0.638,0.129c-5.596-0.082-11.191-0.15-16.786-0.271
	c-2.716-0.059-5.463,0.013-8.14-0.375c-8.458-1.225-16.969-2.328-24.378-7.197c-4.789-3.146-9.033-6.923-12.772-11.209
	c-9.161-10.501-18.136-21.161-26.118-32.609c-0.781-1.12-1.752-1.899-2.907-2.605c-3.379-2.068-6.688-4.221-9.561-7.02
	c-3.744-3.647-4.078-7.984-3.022-12.71c0.034-0.151,0.102-0.294,0.151-0.442c2.242-6.596,2.198-6.675,8.318-10.067
	c5.173-2.866,10.472-5.501,15.694-8.276c2.435-1.293,5.13-1.168,7.73-1.531c5.311-0.743,10.625-1.483,15.955-2.055
	C106.316,60.01,110.697,58.641,115.258,58.91z"/>
</svg>
