<?xml version="1.0" encoding="utf-8"?>
<!-- Generator: Adobe Illustrator 23.1.1, SVG Export Plug-In . SVG Version: 6.00 Build 0)  -->
<svg version="1.1" id="Layer_1" xmlns="http://www.w3.org/2000/svg" xmlns:xlink="http://www.w3.org/1999/xlink" x="0px" y="0px"
	 viewBox="0 0 850.4 850.4" style="enable-background:new 0 0 850.4 850.4;" xml:space="preserve">
<style type="text/css">
	.st0{fill:#D97A23;}
	.st1{fill:#FFFFFF;}
</style>
<path class="st0" d="M558.3,514.5c0.7-0.7,1.5-1.6,2.4-2.5c-0.2-0.6-0.4-1.3-0.6-2c-2.3-6.2-2.5-12.6-1.7-19
	c0.3-2.8,0.6-5.7,0.9-8.6c0.8-6,1.7-12,2.5-18c0.3-2.2,0.6-4.5,0.7-6.7c0.4-9.6,0.7-19.1,1.1-28.7c0.3-6.4,0.8-12.9,1.2-19.3
	c0.1-1.7,0.1-3.4,0.2-5.1c0.3-4,0.6-8.1,1-12.1c0.1-0.6,0.3-1.2,0.2-1.8c-0.4-8.4,2.3-16.3,4.2-24.3c1-4.4,2-8.9,3.9-12.9
	c4.9-10.7,10-21.3,15.4-31.7c3.7-7.1,8.3-13.7,13.2-20.1c1-1.3,1.8-2.9,2.9-4.1c1.1-1.2,2.3-2.3,3.7-3.1c2-1.2,3-0.5,3.8,1.1
	c3.8,8.1,8.1,16,11.6,24.2c2.5,5.8,4.1,11.9,6.1,17.9c5.6,16.8,9.7,33.9,13.2,51.3c1.9,9.4,3.2,18.8,4.9,28.3
	c1.1,6.4,1.6,12.9,2,19.5c0.6,10.1,1.6,20.1,2.6,30.2c0.8,9,1.9,17.9,2.7,26.9c0.3,3.1,0.4,6.2,0.6,9.3c0.3,6.3,0.9,12.6,0.8,18.9
	c-0.1,9.5-0.3,19-1.6,28.4c-0.5,3.5-0.4,7-0.7,10.5c-0.5,5.5-1,11-1.5,16.5c-0.4,4.4-0.8,8.8-1.2,13.2c-0.6,7.1-1.2,14.2-1.8,21.4
	c-0.3,3.4-0.2,6.8-0.5,10.2c-0.4,3.8-0.7,7.6-1.5,11.3c-0.9,4.2-0.7,8.3-0.2,12.5c1.1,9.5,1.4,19.1-1.5,28.4
	c-1.3,4.1-3.4,7.9-5.6,11.5c-2.4,4.1-3.5,8.4-3.5,13.1c0,4.5-0.1,9-0.5,13.5c-0.2,2.9-0.9,5.9-1.7,8.7c-1.5,5-3.5,9.8-6.1,14.4
	c-2.7,4.6-3.8,9.7-4.6,14.8c-0.7,4.1-1.8,8-3.6,11.8c-1.6,3.3-1.9,6.9-2,10.5c-0.1,3.3-0.1,6.5-1,9.7c-0.3,1.2-0.7,2.4-1.3,3.5
	c-1,2.1-2.4,3.7-4.9,4.3c-2.9,0.7-5.8,1.8-8.7,2.5c-1.2,0.3-2.5,0.1-3.7-0.2c-5.2-1.1-10.3-2.4-15.5-3.4c-9.3-1.8-18.6-3.5-28-5.1
	c-1.8-0.3-3-1-3.6-2.8c-0.8-2.3-1.7-4.5-2.5-6.8c-0.4-1.1-0.4-2.3,0.8-3.2c0.4-0.3,0.6-0.9,0.8-1.4c2.7-6.1,5.4-12.3,8.1-18.4
	c1.2-2.6,2.4-5.2,3.7-7.8c0.6-1.1,0.9-2.2,1-3.5c0-6-0.1-12,0.2-18c0.1-2.9,0.9-5.8,1.5-8.7c0.1-0.7,0.9-1.2,1.4-1.8
	c0.4-0.5,0.8-0.9,1.3-1.5c-3.3-3.1-5.5-6.8-6.7-11.1c-1.3-4.7-1.7-9.5-1.2-14.3c0.2-1.9,0.4-3.9,0.5-5.8c0.7-9.6,3-18.8,6.2-27.9
	c1.2-3.4,2.1-6.8,1.8-10.5c-0.4-3.6-0.6-7.3-0.9-10.9c-0.4-5.7-1-11.5-1.2-17.2c-0.1-2.8,0.2-5.6,0.8-8.3c1-4.8,0.3-9.4-0.6-14.1
	c-1.1-6-2.2-12.1-3.3-18.1c-0.5-3-1-6-1.4-9c-0.5-3.9,0.2-7.6,2.7-10.8c0.2-0.3,0.4-0.7,0.6-1.1c-0.2-0.3-0.3-0.5-0.5-0.8
	c-2.8-3.4-3.8-7.4-4.1-11.7c-0.2-3.3-0.4-6.7-0.7-9.9c-1.4-0.7-2.6-1.3-3.8-1.9c-0.5-0.2-1.1-0.2-1.6-0.2c-21.3,0-42.5,0.1-63.8,0.2
	c-9.4,0-18.8,0.2-28.2,0.3c-20.1,0.1-40.2,0.1-60.3,0.2c-14.9,0.1-29.9,0.2-44.8,0.3c-14.6,0.1-29.3,0.1-43.9,0.2
	c-8.3,0-16.6,0.2-25,0.3c-0.4,0-0.8,0-1.4,0.1c-0.3,3-0.7,5.9-0.8,8.8c-0.1,4.9-1.2,9.4-4.5,13.2c0.3,0.6,0.5,1.1,0.8,1.5
	c2.8,3.6,3.1,7.8,2.4,12c-0.9,5.7-2.1,11.5-3.1,17.2c-0.9,4.9-1.9,9.8-2.5,14.7c-0.3,2.3,0.1,4.6,0.3,7c0.4,4.2,1.1,8.4,0.6,12.7
	c-0.5,3.9-0.5,7.9-0.7,11.9c-0.2,3.7-0.5,7.4-0.8,11.2c-0.4,3.9,0,7.7,1.3,11.5c2.3,6.3,4.2,12.7,5.3,19.3c0.4,2.4,0.8,4.9,1.1,7.4
	c0.7,5.1,1,10.2,0.6,15.4c-0.5,6.7-2.7,12.7-7.8,17.5c0.1,0.2,0.1,0.5,0.3,0.6c2,1.4,2.8,3.5,3.1,5.8c0.3,2.3,0.7,4.6,0.8,6.9
	c0.1,3.4,0,6.9,0,10.3c0,2.6,0.2,5.1,0.3,7.7c0,0.5,0.2,1.1,0.4,1.5c3.7,8.1,7.3,16.1,11,24.2c0.8,1.8,1.8,3.6,2.6,5.5
	c0.2,0.5,0.4,1.2,0.2,1.8c-0.9,2.6-2,5.2-2.9,7.9c-0.5,1.5-1.6,2.2-3.1,2.3c-2.6,0.3-5.2,0.7-7.9,0.9c-9.7,1-19.2,3.1-28.5,6
	c-3.1,0.9-6.4,1.1-9.6,1.4c-1.2,0.1-2.4-0.4-3.6-0.7c-2.9-0.9-5.8-1.8-8.7-2.6c-1.4-0.4-2.2-1.3-2.7-2.7c-1.2-3.1-1.3-6.4-1.5-9.6
	c-0.1-2.7,0-5.5-0.4-8.1c-0.3-2.1-0.7-4.2-1.6-6.1c-2.1-4.4-3.3-9.1-4-13.8c-0.7-4.7-2.2-9.2-4.5-13.4c-3.1-5.7-5.6-11.6-6.9-18
	c-0.6-2.7-0.7-5.5-0.8-8.3c-0.2-4.1-0.2-8.2-0.3-12.4c-0.1-3.8-1.6-7.1-3.4-10.3c-2.2-3.9-4.3-7.7-5.7-12c-1.4-4.4-2-9-2.1-13.5
	c-0.2-6.2,0.3-12.3,1.2-18.4c0.5-3.4-0.4-6.6-0.9-10c-0.6-4.1-1-8.3-1.4-12.5c-0.5-5.6-0.8-11.1-1.2-16.7c-0.4-4.8-0.7-9.6-1.1-14.4
	c-0.6-6.9-1.4-13.8-2-20.6c-0.3-2.6-0.4-5.3-0.7-7.9c-0.5-6-1-11.9-1.4-17.9c-0.3-4.8-0.4-9.6-0.6-14.4c-0.1-2.6-0.3-5.3-0.3-7.9
	c0.1-4,0.2-7.9,0.5-11.9c0.4-5.4,0.8-10.8,1.4-16.2c0.6-6.6,1.4-13.3,2-19.9c0.6-5.9,1.2-11.9,1.7-17.9c0.8-10.1,1.3-20.3,2.4-30.4
	c0.9-7.7,2.5-15.3,3.7-23c2.6-16.5,6.9-32.7,10.8-49c1.6-6.8,3.4-13.6,5.6-20.2c1-2.8,2.1-5.5,3.3-8.2c3.8-8,7.6-16,11.5-24
	c0.6-1.3,1.4-2.6,2.1-3.9c0.8-1.4,1.5-1.6,2.8-0.8c2.5,1.5,4.6,3.4,5.9,6.1c0.3,0.7,0.8,1.3,1.3,1.9c7.2,9.7,13.6,19.9,18.7,30.9
	c2.3,5,4.6,10,7.1,15c2.6,5.2,4.3,10.6,5.6,16.3c1.4,6.1,2.8,12.1,4.1,18.2c0.2,0.8,0.3,1.7,0.4,2.5c0.4,4.9,0.7,9.8,1,14.6
	c0.1,2.2,0.3,4.3,0.4,6.5c0.4,8.6,0.7,17.2,1.1,25.9c0.3,7.4,0.4,14.8,1,22.1c0.5,6.5,1.5,12.9,2.3,19.4c0.3,2.8,0.8,5.5,1.1,8.3
	c0.4,3.6,0.7,7.3,1.2,10.9c0.4,3-0.2,5.9-0.3,8.8c-0.1,3.3-1.3,6.4-2.4,9.4c-0.6,1.5-0.9,3.1-0.4,4.9c0.8,0,1.5,0.1,2.3,0.1
	c20.3,0,40.6-0.1,61-0.2c14.9-0.1,29.9-0.2,44.8-0.3c9.3-0.1,18.7-0.1,28-0.2c20.4-0.1,40.8-0.2,61.2-0.3c9.9-0.1,19.8-0.1,29.7-0.2
	c12.9-0.1,25.8-0.2,38.8-0.3C555.8,514.5,556.9,514.5,558.3,514.5z"/>
<path d="M279.3,709.3c6.3-5.7,8.6-12.6,8.6-20.4c0-12.1-1.9-23.9-5.8-35.5c-1-2.9-1.9-5.8-2.8-8.6c-0.2-0.7-0.3-1.4-0.3-2
	c0.3-4.3,0.8-8.7,1.1-13c0.1-0.6,0-1.2,0.1-1.9c0.3-4.2,0.8-8.4,0.8-12.5c0.1-3.8-0.2-7.6-0.4-11.4c-0.1-2.2-0.7-4.3-0.8-6.5
	c-0.1-1.7,0.3-3.4,0.6-5.1c1.8-9.6,3.6-19.2,5.3-28.8c0.7-4,0.5-7.9-2.1-11.4c-0.5-0.7-0.9-1.4-1.5-2.2c0.3-0.5,0.7-1,1.1-1.5
	c2.2-2.8,3.3-5.9,3.6-9.4c0.8-8.4,1.1-16.7,1.1-25.1c0-1.6,0.6-3.2,1.1-4.7c1.1-3.2,1.7-6.4,2.1-9.7c0.6-4.9-0.2-9.6-0.8-14.3
	c-0.5-4.1-1-8.2-1.5-12.2c-0.6-4.4-1.2-8.7-1.9-13.1c-0.1-0.5-0.1-1.1-0.1-1.6c-0.2-4.3-0.3-8.5-0.5-12.8c-0.3-7.5-0.6-14.9-1-22.4
	c-0.4-7.5-0.9-15-1.3-22.6c-0.3-5.3-0.6-10.7-1-16c-0.2-2.5-0.8-4.9-1.4-7.3c-1.5-6.3-3-12.5-4.6-18.8c-1.1-4.6-3.3-8.7-5.3-12.9
	c-2.8-5.9-5.5-11.8-8.5-17.7c-4.6-9.2-10.2-17.8-16.4-26c-0.9-1.1-1.2-2-0.3-3.3c1.2-1.9,2.1-4,3.4-5.7c1.3-1.7,2.9-3.1,3.6-5.2
	c0-0.1,0.2-0.3,0.3-0.3c3.2-1.1,4.8-4.1,7.7-5.8c2-1.1,4-2.2,6.1-3.3c1.4-0.8,2.6-1.9,4-2.6c2.4-1.3,4.9-2.5,7.4-3.9
	c1.3-0.8,2.5-1.8,3.8-2.7c3.4-2.2,6.9-4.4,10.3-6.6c0.4-0.3,1-0.3,1.5-0.5c0.5-0.2,1-0.3,1.4-0.7c1.7-1.4,3.4-2.8,5.1-4.3
	c1.1-1,1.2-2.2,1-3.6c-0.2-1.3-0.6-2.6-0.6-3.9c0-0.7,0.4-1.4,0.8-2c0.5-0.7,1.3-1.4,2-2c2-1.9,4-3.9,5.1-6.6
	c0.4-1.1,1.2-1.8,2.2-2.1c1.5-0.5,2.2-1.5,2.6-3c1-2.8,2.1-5.6,3.1-8.4c0.2-0.6,0.2-1.4,0.4-2c0.6-1.8,1.2-3.6,1.8-5.6
	c-19.7,0-39.4,0-59.3,0c0-63.6,0-126.9,0-190.3c1.6-0.5,296.4-0.6,299.2-0.1c0,63.3,0,126.7,0,189.9c-0.1,0.1-0.1,0.2-0.2,0.2
	c-0.1,0-0.1,0.1-0.2,0.1c-0.2,0-0.3,0.1-0.5,0.1c-13.1,0-26.2,0-39.5,0c0.4,0.4,0.5,0.7,0.7,0.7c2,0.3,3.4,1.5,4.5,3
	c2.9,4,5.6,8.2,8.4,12.2c2.1,3,4.4,6,6.6,9c1.5,2,3.8,3.5,4.2,6.2c0.1,0.3,0.3,0.7,0.6,1c2.5,1.7,4.1,4.1,5.4,6.7
	c0.7,1.4,1.9,2.1,3.1,3c1.9,1.5,4.1,2.3,6.1,3.5c2.7,1.6,5.4,3.3,8.1,5c1,0.6,1.9,1.5,2.9,2.1c3.4,2.2,7.1,3.8,10.4,5.9
	c2.3,1.5,5.1,2.4,7.2,4.1c2,1.6,4.8,2.2,6.1,4.7c0.3,0.6,1,1.1,1.6,1.3c2,0.6,2.9,2.2,3.7,3.9c0.2,0.5,0.6,1.2,1.1,1.4
	c1.3,0.7,2,1.9,2.7,3.1c0.7,1.3,1.3,2.6,2.1,3.9c0.7,1.1,0.6,2-0.2,3c-5.7,7.1-10.7,14.8-15,22.8c-3,5.5-5.6,11.3-8.4,16.9
	c-1.3,2.6-2.4,5.2-3.7,7.8c-3.3,6.3-5,13.2-6.6,20.1c-1.1,4.8-2.2,9.5-3.1,14.3c-0.4,2.3-0.5,4.8-0.7,7.2c-0.2,3.4-0.4,6.8-0.7,10.2
	c-0.2,2.9-0.6,5.7-0.7,8.6c-0.3,4.8-0.4,9.6-0.7,14.4c-0.2,5-0.5,10.1-0.8,15.1c-0.2,5.9-0.4,11.8-0.7,17.7c-0.2,3-0.5,6-0.9,9
	c-0.6,4.5-1.3,8.9-1.9,13.4c-0.6,4.8-1.2,9.7-1.8,14.5c-0.1,0.5-0.1,1.1-0.1,1.6c0.2,5.5,0.5,11,2.7,16.2c0.5,1.1,0.6,2.4,0.7,3.6
	c0.2,6.1,0.3,12.1,0.5,18.2c0.1,3,0.5,6,0.9,9c0.4,3.3,2.2,5.9,4.4,8.5c-0.4,0.6-0.7,1.3-1.2,1.9c-2.8,3.8-3.2,7.9-2.3,12.4
	c1.4,7.4,2.7,14.8,4.1,22.2c0.6,3.2,1.2,6.4,1.7,9.6c0.1,0.7,0.1,1.4,0,2.1c-1.4,7.7-1.6,15.4-0.8,23.2c0.2,2.1,0.3,4.2,0.5,6.3
	c0.3,4.6,0.6,9.3,1,13.9c0.2,1.8-0.2,3.5-0.7,5.2c-1.7,5.4-3.5,10.8-4.9,16.3c-1.5,5.5-2.3,11.2-2.7,17c-0.2,3.3-0.5,6.7-0.4,10
	c0.1,5,1.3,9.7,4,13.9c1.2,1.8,2.7,3.4,4.2,5.2c0,0,0,0.3-0.2,0.4c-3.5,2.7-3.9,6.5-4,10.4c-0.2,6.7-0.3,13.4-0.5,20.1
	c0,0.7-0.2,1.4-0.5,2c-4.9,9.2-8.5,19-12.9,28.4c-0.1,0.2-0.2,0.4-0.4,0.9c-0.8-0.1-1.7-0.4-2.6-0.4c-2.5,0-5.1,0-7.6,0
	c-0.6,0-1.2,0.2-1.8,0.2c-10.9,0.1-21.8,0.2-32.7,0.3c-6,0.1-12.1,0.4-18.1,0.6c-4.2,0.2-8.3,0.5-12.5,0.8
	c-4.3,0.2-8.5,0.4-12.8,0.6c-4.8,0.2-9.6,0.5-14.4,0.8c-2.7,0.1-5.4,0.4-8.1,0.4c-7,0.1-14,0.1-21,0.1c-3.3,0-6.7,0-10-0.1
	c-4.6-0.2-9.3-0.5-13.9-0.8c-4.1-0.2-8.2-0.4-12.3-0.6c-4.3-0.2-8.7-0.3-13-0.8c-5-0.6-9.9-0.5-14.9-0.6
	c-10.3-0.1-20.5-0.3-30.8-0.5c-4.7-0.1-9.5,0-14.2-0.4c-2.1-0.2-4.1,0.2-6.2,0.1c-2.1-0.1-4.2,0-6.6,0c-0.4-0.8-0.8-1.7-1.3-2.7
	c-3-7-6.1-14-9.1-20.9c-0.8-1.9-2-3.7-2.8-5.6c-0.4-1-0.7-2-0.8-3.1c-0.2-6.8-0.3-13.5-0.5-20.3c-0.1-2.1-0.7-4.1-1.1-6.2
	c-0.1-0.6-0.7-1.2-1.1-1.7C281,710.7,280.2,710.1,279.3,709.3z"/>
<path class="st1" d="M394.2,190.9c3.6,0,7.3,0,10.9,0c2,0,4,0.1,6,0.2c2.3,0,4.6-0.1,6.9-0.1c1.9,0,3.8,0,5.8,0c1.6,0,3.2,0,4.9-0.1
	c6.3-0.1,12.6-0.2,18.9-0.2c2.8,0,5.6,0.4,8.3,0.7c5.4,0.6,10.8,1.4,16.2,2c3.5,0.4,6.9,0.8,10.4,1.3c0.7,0.1,1.4,0.3,2,0.6
	c6.8,3.1,13.4,6.6,19.5,11c1,0.7,1.7,1.5,2.1,2.7c1.1,3.5,2.6,6.8,2.4,10.6c-0.2,3.9-1.9,6.9-4.8,9.2c-2.4,1.9-5,3.5-7.4,5.2
	c-0.7,0.5-1.5,1.1-2,1.9c-8.6,12.3-18.2,23.7-28.4,34.7c-5,5.4-10.6,10-17.4,13.2c-1.4,0.7-2.6,1.9-4,2.6c-1.2,0.6-2.6,1-3.9,1.3
	c-1.1,0.2-2.4-0.3-3.2,0.9c-0.1,0.1-0.4,0.1-0.6,0.1c-5.6-0.1-11.2-0.1-16.8-0.3c-2.7-0.1-5.5,0-8.1-0.4c-8.5-1.2-17-2.3-24.4-7.2
	c-4.8-3.1-9-6.9-12.8-11.2c-9.2-10.5-18.1-21.2-26.1-32.6c-0.8-1.1-1.8-1.9-2.9-2.6c-3.4-2.1-6.7-4.2-9.6-7c-3.7-3.6-4.1-8-3-12.7
	c0-0.2,0.1-0.3,0.2-0.4c2.2-6.6,2.2-6.7,8.3-10.1c5.2-2.9,10.5-5.5,15.7-8.3c2.4-1.3,5.1-1.2,7.7-1.5c5.3-0.7,10.6-1.5,16-2.1
	C385.3,192,389.7,190.6,394.2,190.9z"/>
</svg>
