<?xml version="1.0" encoding="utf-8"?>
<!-- Generator: Adobe Illustrator 16.0.0, SVG Export Plug-In . SVG Version: 6.00 Build 0)  -->
<!DOCTYPE svg PUBLIC "-//W3C//DTD SVG 1.1//EN" "http://www.w3.org/Graphics/SVG/1.1/DTD/svg11.dtd" [
	<!ENTITY ns_flows "http://ns.adobe.com/Flows/1.0/">
	<!ENTITY ns_extend "http://ns.adobe.com/Extensibility/1.0/">
	<!ENTITY ns_ai "http://ns.adobe.com/AdobeIllustrator/10.0/">
	<!ENTITY ns_graphs "http://ns.adobe.com/Graphs/1.0/">
	<!ENTITY ns_vars "http://ns.adobe.com/Variables/1.0/">
	<!ENTITY ns_imrep "http://ns.adobe.com/ImageReplacement/1.0/">
	<!ENTITY ns_sfw "http://ns.adobe.com/SaveForWeb/1.0/">
	<!ENTITY ns_custom "http://ns.adobe.com/GenericCustomNamespace/1.0/">
	<!ENTITY ns_adobe_xpath "http://ns.adobe.com/XPath/1.0/">
]>
<svg version="1.1" id="Layer_1" xmlns:x="&ns_extend;" xmlns:i="&ns_ai;" xmlns:graph="&ns_graphs;"
	 xmlns="http://www.w3.org/2000/svg" xmlns:xlink="http://www.w3.org/1999/xlink" xmlns:a="http://ns.adobe.com/AdobeSVGViewerExtensions/3.0/"
	 x="0px" y="0px" width="850.391px" height="850.39px" viewBox="0 0 850.391 850.39" enable-background="new 0 0 850.391 850.39"
	 xml:space="preserve">
<metadata><?xpacket begin="﻿" id="W5M0MpCehiHzreSzNTczkc9d"?>
<x:xmpmeta xmlns:x="adobe:ns:meta/" x:xmptk="Adobe XMP Core 5.3-c011 66.145661, 2012/02/06-14:56:27        ">
   <rdf:RDF xmlns:rdf="http://www.w3.org/1999/02/22-rdf-syntax-ns#">
      <rdf:Description rdf:about=""
            xmlns:xmp="http://ns.adobe.com/xap/1.0/"
            xmlns:xmpGImg="http://ns.adobe.com/xap/1.0/g/img/">
         <xmp:CreatorTool>Adobe Illustrator CS6 (Macintosh)</xmp:CreatorTool>
         <xmp:CreateDate>2019-09-16T21:46:55+08:00</xmp:CreateDate>
         <xmp:Thumbnails>
            <rdf:Alt>
               <rdf:li rdf:parseType="Resource">
                  <xmpGImg:width>212</xmpGImg:width>
                  <xmpGImg:height>256</xmpGImg:height>
                  <xmpGImg:format>JPEG</xmpGImg:format>
                  <xmpGImg:image>/9j/4AAQSkZJRgABAgEASABIAAD/7QAsUGhvdG9zaG9wIDMuMAA4QklNA+0AAAAAABAASAAAAAEA&#xA;AQBIAAAAAQAB/+4ADkFkb2JlAGTAAAAAAf/bAIQABgQEBAUEBgUFBgkGBQYJCwgGBggLDAoKCwoK&#xA;DBAMDAwMDAwQDA4PEA8ODBMTFBQTExwbGxscHx8fHx8fHx8fHwEHBwcNDA0YEBAYGhURFRofHx8f&#xA;Hx8fHx8fHx8fHx8fHx8fHx8fHx8fHx8fHx8fHx8fHx8fHx8fHx8fHx8fHx8f/8AAEQgBAADUAwER&#xA;AAIRAQMRAf/EAaIAAAAHAQEBAQEAAAAAAAAAAAQFAwIGAQAHCAkKCwEAAgIDAQEBAQEAAAAAAAAA&#xA;AQACAwQFBgcICQoLEAACAQMDAgQCBgcDBAIGAnMBAgMRBAAFIRIxQVEGE2EicYEUMpGhBxWxQiPB&#xA;UtHhMxZi8CRygvElQzRTkqKyY3PCNUQnk6OzNhdUZHTD0uIIJoMJChgZhJRFRqS0VtNVKBry4/PE&#xA;1OT0ZXWFlaW1xdXl9WZ2hpamtsbW5vY3R1dnd4eXp7fH1+f3OEhYaHiImKi4yNjo+Ck5SVlpeYmZ&#xA;qbnJ2en5KjpKWmp6ipqqusra6voRAAICAQIDBQUEBQYECAMDbQEAAhEDBCESMUEFURNhIgZxgZEy&#xA;obHwFMHR4SNCFVJicvEzJDRDghaSUyWiY7LCB3PSNeJEgxdUkwgJChgZJjZFGidkdFU38qOzwygp&#xA;0+PzhJSktMTU5PRldYWVpbXF1eX1RlZmdoaWprbG1ub2R1dnd4eXp7fH1+f3OEhYaHiImKi4yNjo&#xA;+DlJWWl5iZmpucnZ6fkqOkpaanqKmqq6ytrq+v/aAAwDAQACEQMRAD8A7J+a/wCcNl5HEFlb263+&#xA;s3KGRbcvxSKOtA8lAT8RrRR1p1y3Hi4mzHj4nhWtfn5+ZeqKyLqCadE3WOyiWM/RI3OUfQ2ZIwxD&#xA;kDFEMG1DV9V1KUy6jez3spNTJcSvK1fm5Jy0ABsApCYqiP0hf/8ALTL/AMG39caWkZa+avNFoQ1r&#xA;rF9bkUAMVzMhFOn2WGDhHcjhCeQ/m/8AmZDFHEnmG6KxGqlyrsafzM6szf7I5Hwo9zHw49zJPKn/&#xA;ADkR550y/jOtTLrGmswE8TxxpKqk7mJ4wnxezVHy65CWCJ5MZYQeT6e0bWNO1nS7bVNNmFxZXaCS&#xA;GVe4PYjsQdiD0OYZFGnFIpGYEOxVRvLyzsrd7m8njtraOnqTzOsaLyIUVZiAKk0xAWkt/wAZeUP+&#xA;r5p//SVD/wA1ZLgPcy4T3O/xl5Q/6vmn/wDSVD/zVjwHuXhPc7/GXlD/AKvmn/8ASVD/AM1Y8B7l&#xA;4T3O/wAZeUP+r5p//SVD/wA1Y8B7l4T3O/xl5Q/6vmn/APSVD/zVjwHuXhPc7/GXlD/q+af/ANJU&#xA;P/NWPAe5eE9zv8ZeUP8Aq+af/wBJUP8AzVjwHuXhPc7/ABl5Q/6vmn/9JUP/ADVjwHuXhPc7/GXl&#xA;D/q+af8A9JUP/NWPAe5eE9yPsNT03UYTPp93DeQqxRpbeRZVDAAlSyEitCNsBFIIpE4EOxV2KuxV&#xA;2Kvhnzh5kvPMvmXUNaumJe7lLRof2Ih8McY/1EAGbGMaFOfGNCknySXYq7FXYq7FXYquhhlmlSGF&#xA;GklkYJHGoJZmY0AAHUk4q+0vyw8qHyv5J03SpFZbsRia9Vm5Unm+ORQRtRSeO3hmvySs24U5WWVZ&#xA;Bg7FWAfn1/5KfXf+jX/qMhy3D9QbMX1B8gZnOY7FXYq7FXYq7FXYq7FXYq+n/wDnF/8A5QG//wC2&#xA;rN/1DW+Yeo+pxc/N6/lDS7FXYq7FXYq+Q/zi/LC68m641zaoX8v38jNYzDcRMfiMD+BX9n+ZfcGm&#xA;diycQ83Mxz4h5vPctbHYq7FXYq7FXYq+n/yK/Ki00XSYPMesWwfXbwerarIKm2hYfDQHpI4NSeoG&#xA;22+YebJZocnFy5LNB6/lDS7FXYqwD8+v/JT67/0a/wDUZDluH6g2YvqD5AzOcx2KuxV2KuxV2Kux&#xA;V2KuxV9P/wDOL/8AygN//wBtWb/qGt8w9R9Ti5+b1/KGl2KuxV2KuxVL9f0DStf0m40rVYBcWVyv&#xA;GRD1B6hlPVWU7gjDGRBsJBo2+V/zL/JXzB5PeS9tQ2paBUkXiL8cI7CdB0/1x8Py6Zm48ol73Lhl&#xA;Bec5a2OxV2KuxV67+Q35WN5h1NPMWrQ10OwkrbxONrm4Q1Ap3jjO7eJ28cozZKFDm05clbB9Q5hu&#xA;K7FXYq7FWAfn1/5KfXf+jX/qMhy3D9QbMX1B8gZnOY7FXYq7FXYq7FXYq7FXYq+n/wDnF/8A5QG/&#xA;/wC2rN/1DW+Yeo+pxc/N6/lDS7FXYq7FXYq7FXEAggioOxBxVg3mj8lvy+8w85JtOFjdvX/S7GkD&#xA;1PcqAY2Puy5ZHLINkchDyHzP/wA4yeZrNml8v3sOqQV2gmpbzj2qxMbU8eS/LL46gdW6OcdWMp+Q&#xA;f5rswB0QID1Y3VpQfdKTk/Gj3svFizPyZ/zjNqcl1Hc+bLqOC0QhmsLVi8r/AOS8lAqD/V5H5dch&#xA;PUDowln7n0HY2NnYWcNlZQpb2lugjggjAVVVRQAAZik24xKvgV2KuxV2KsA/Pr/yU+u/9Gv/AFGQ&#xA;5bh+oNmL6g+QMznMdirsVdirsVdirsVdirsVfT//ADi//wAoDf8A/bVm/wCoa3zD1H1OLn5vX8oa&#xA;XYq7FXYq7FXYq7FXYq7FXYq7FXYq7FXYq7FXYqwD8+v/ACU+u/8ARr/1GQ5bh+oNmL6g+QMznMdi&#xA;rsVdirsVdirsVdirsVfT/wDzi/8A8oDf/wDbVm/6hrfMPUfU4ufm9fyhpdirsVdirsVdirsVdirs&#xA;VdirsVdirsVdirsVdirAPz6/8lPrv/Rr/wBRkOW4fqDZi+oPkDM5zHYq7FXYq7FXYq7FXYq7FX0/&#xA;/wA4v/8AKA3/AP21Zv8AqGt8w9R9Ti5+b1/KGl2KuxV2KuxV2KuxV2KuxV2KuxV2KuxV2KuxV2Ks&#xA;A/Pr/wAlPrv/AEa/9RkOW4fqDZi+oPkDM5zHYq7FXYq7FXYq7FXYq7FX0/8A84v/APKA3/8A21Zv&#xA;+oa3zD1H1OLn5vX8oaXYq7FXYq7FXYq7FXYq7FXYq7FXYq7FXYq7FXYq8B/5yZ873kT23lC0kC28&#xA;8S3WpgAEt+8rDHXtQx8z9GZWnh1cjDHq+f8AMlyHYq7FXYq7FXYq7FXYq7FXv/8AzjH5x02CC+8p&#xA;3DCK8uJ2vrInpLWNEkQH+ZREGA8K+GY2oj1cfPHq9/zFcd2KuxV2KuxV2KuxV2KuxV2KuxV2KuxV&#xA;2KuxV59+ZH5zeXPJySWkZGo67T4bCNtoyRsZ3FeH+r9o/LfLceIy9zZDGZPlfzR5l1TzLrl1rWpu&#xA;Gu7pgWCCiKqgKqICTRVUUzNjEAUHLjGhSVYUuxV2KuxV2KuxV2KuxV2Kq1neXVldw3lpK0F1busk&#xA;MyGjK6mqsD7HEhS+kPy5/wCcidK1QQ6b5r4adqBoiagNraU9Kyf76Y/8D8umYmTARycaeGuT2dHR&#xA;0V0YMjAMrKagg7ggjMdobxV2KuxV2KuxV2KuxV2KuxV2KuxVD6hqNhp1nLe39xHa2kA5SzysERR7&#xA;k4QLSBb55/Mv/nIm8vvW0ryeWtLM1SXVWHGeQdD6IP8Adqf5j8X+rmVjwVuXIhh73iEkjyO0kjF5&#xA;HJZ3Y1JJ3JJOZDe1irsVdirsVdirsVdirsVdirsVdirsVZ/+W/5xeY/J1xDaySNfaByAm0+Q1KKT&#xA;u0DH7Dd6fZP45XkxCXva54xJ9c2V7a31nBe2kgmtbmNZYJV6MjjkpHzBzAIpwyFbFXYq7FXYq7FX&#xA;Yq7FXYq7FXYq+fv+co/MVyJNI8uRuFtmVr+5QfaZqtFFU+A+P5/QMytPHmXIwDq8CzJch2KuxV2K&#xA;uxV2KuxV2KuxV2KuxV2KuxV2KuxV9Hf841+e/remzeUb2StxYhp9NLftQM37yMePB2qPY+AzF1EO&#xA;rjZodXuGYzQ7FXYq7FXYq7FXYq7FXYq7FXyP/wA5Aar9f/M7UI1blHYRw2qH/VjEjD6HkYZnYRUX&#xA;MxD0vOctbHYq7FXYq7FXYq7FXYq7FXYq7FXYq7FXYq7FUz8s+YL7y9r1lrViaXNlKJFB2DL0dG9n&#xA;UlT88Eo2KRIWKfb+i6ra6vpFlqtpX6tfQR3EPLZgsihgD7iu+a4ijTgkUUZgQ7FXYq7FXYq7FXYq&#xA;7FUj89ahc6b5L12/tZTBdW1hcyW8wFSsixMUIHjypkoCyGURZD4hubq5u7iS5upnnuJmLyzSsXd2&#xA;O5ZmapJPvmxc5TxV2KuxV2KuxV2KuxV2KuxV2KuxV2KuxV2KuxV2Kvr/APIjUPrv5XaPU1ktvWt3&#xA;9vTmfj/whXMHMPUXDyj1M/yprdirsVdirsVdirsVdiryP/nIvzvcaH5bh0O1jVpdfWaOeViaxwR8&#xA;OXECm786b7Url+CFm+5uwxs2+XczHKdirsVdirsVdirsVdirsVdirsVdirsVdirsVdirsVfTX/OL&#xA;+o+t5O1KxLVa0vjIB4JNElP+GjbMTUDdxc43eyZjtLsVdirsVdirsVdirsVfLv8Azkzqf1nz5bWS&#xA;n4LCxjVh4SSu8h/4UpmZpx6XKwDZ5Hl7c7FXYq7FXYq7FXYq7FXYq7FXYq7FXYq7FXYq7FXYq9z/&#xA;AOcWNR4axr2mk/39vDcha/74coTT/nsMx9QNg0ZxsH0XmI4zsVdirsVdirsVdirsVfJH5/6Pqdj+&#xA;ZF/eXiUg1IRzWUgYNyjSJIvmOJSlD+rM7CQYuZiPpecZa2OxV2KuxV2KuxV2KuxV2KuxV2KuxV2K&#xA;uxV2KuxV2KvTP+cdtR+qfmbaQ1oL+3uLc/QnrfrhyrOPS1Zh6X1lmC4jsVdirsVdirsVdirsVfKX&#xA;/OR2q/XfzIltg1V021gt6dgzAzn/AJPZm4B6XLwj0vLsubXYq7FXYq7FXYq7FXYq7FXYq7FXYq7F&#xA;XYq7FXYq7FWTflnqH6P/ADB8vXNeKi+gjdvBZXEbf8K5yGQXEsZjYvtjNe4LsVdirsVdirsVdirs&#xA;VfEH5gar+lfO+u6gG5pNez+i3jErlI/+EUZsYCohzoCgEgyTJ2KuxV2KuxV2KuxV2KuxV2KuxV2K&#xA;uxV2KuxV2KuxVUtbiS2uYriPaSF1kT/WQ1H6sVfeP6Qt/wBGfpGv+j+j9Yr/AJHDn+rNbW7gUicC&#xA;HYq7FXYq7FXYqgPMOoHTdA1PUV+1ZWs9wO+8UbP/AAwxFlIFl8IEkkkmpO5JzZOe7FXYq7FXYq7F&#xA;XYq7FXYq7FXYq7FXYq7FXYq7FXYq7FXYq+tP01P/ANC/fpCjev8AoH0q035eh6HP/jbMKv3nxcSv&#xA;X8XpWUtTsVdirsVdirsVadFdSjgMjAhlIqCD1BGKvLdY/wCccfIOp6nc3/rX1l9Zcv8AVbRreKCO&#xA;v7Maeg3FfauXDPIBtGYhB/8AQr/kH/lv1X/kdbf9k+H8xJPjl3/Qr/kH/lv1X/kdbf8AZPj+Ykvj&#xA;li/5mfkP5Q8reSNS17T7zUJbyz9D0o7iSFoz6txHE3IJCjfZc0+Lrk8eYylTOGUk08IzJb3Yq7FX&#xA;Yq7FXYq7FXYq7FXYq7FXtH5Q/kt5W85eVH1fVLq+huVupLcJbSQqnFFQg0eKQ1+PxzHy5TE0GnJk&#xA;MTTN/wDoV/yD/wAt+q/8jrb/ALJ8r/MSa/HLv+hX/IP/AC36r/yOtv8Asnx/MSXxyqW3/OM3kGC5&#xA;in+uanL6Tq/pyS27I3E14sPq4qD3x/MSXxy9X+rW31b6r6SfVuHpehxHp+nTjw49ONNqZQ0qmKux&#xA;V2KuxV2KuxV2Kvjz857wp+ZuuixvjLbmVDWGQlVf0k9RNjSqycgffIS005GwHe6TPAYwJc2FfX9Q&#xA;/wCWmX/g2/rkfymTucj8zi/Ad9f1D/lpl/4Nv64/lMncv5nF+Ate7vJFKSTyOh6qzsR9xOZGm004&#xA;ystOozwlGoqebBwHYq7FXYq7FXYq7FXYq7FXYq7FVSO6uol4xTPGvXirFRX6DmDqsEpyBi5umzQi&#xA;Kku+v6h/y0y/8G39cxfymTucj8zi/Ad9f1D/AJaZf+Db+uP5TJ3L+ZxfgNrqWpowdLuZWUgqwkYE&#xA;EdCDXBLTZIiyyjnxyNfoel/8rJuv+VK/on9MXf6c/SXpfab1PqnHnw9WvL06+9e32cr4/S0flh4/&#xA;FQ4a+19WZlPPuxV2KuxV2KuxV2KvgrUklTUbpJWZpVmkEjOasWDEEsfGvXNmHYBDYq7FXYq7FXYq&#xA;7FXYq7FXYq7FXYq7FXYq7FXYq7FXYqyv8qdMttT/ADE0KyuY0lt5LkNLFIoZHWNWkKsrAgg8aUOV&#xA;5fpLGciBYfXX+C/J31L6h+gdO+o+p631X6pB6Xq04+pw4ceXHatK5r+EON407viN+9OcLU7FXYq7&#xA;FXYq7FXYq+GPONv9W83a3bU4+jqF1HQmtOEzDr9GbKPIOfHkEowpdirsVdirsVdirsVdirsVdirs&#xA;VdirsVdirsVdirsVZ9+RMtjB+Z+kT3k8dvHH6wjaVgoaSSF4kQV7lpNsrzfSWvL9L7AzAcN2KuxV&#xA;2KuxV2KuxV2Kvin80bf6v+YvmOOlOWoTyda/3rmT/jbNhj+kOdD6QxfJsnYq7FXYq7FXYq7FXYq7&#xA;FXYq7FXYq7FXYq7FXYq7FXKxUhlNGG4I6g4q+8Ob/oPnyPP6ry5V3r6da1zW9XA6o7Ah2KuxV2Ku&#xA;xV2KuxV8dfnfB6P5p68lAKyQvRen7y3jf/jbfM/D9Ic3F9IYNljN2KuxV2KuxV2KuxV2KuxV2Kux&#xA;V2KuxV2KuxV2KuxV2Kvu7/pQf9Gn/MvNb1cDqmGBDsVdirsVdirsVdir5O/5yLspLf8AM25mZaLe&#xA;W1vOhpSoCejX33iOZuA+ly8J9LzLLm12KuxV2KuxV2KuxV2KuxV2KuxV2KuxV2KuxV2KuxVdFHJL&#xA;IkUal5HIVFG5LE0AGKvvH6tL+ifq23q+h6dK7cuHHr881vVwEXgQ7FXYq7FXYq7FXYq+f/8AnKjS&#xA;N9B1hF/39ZzN/wADJEP+J5lac8w5GA8w8BzJch2KuxV2KuxV2KuxV2KuxV2KuxV2KuxV2KuxV2Ku&#xA;xV6B+Rfloa7+Yth6i8rXTK6hP4fuSPS/5Ksn0ZVmlUWvLKovr7MFw3Yq7FXYq7FXYq7FXYq84/5y&#xA;C0f9I/lnfSheUmnSw3iD/Vb0nP0RysctwGpNuE1J8kZnOW7FXYq7FXYq7FXYq7FXYq7FXYq7FXYq&#xA;7FXYq7FXYq+lv+cYvLf1Ty1f69KtJdTmEMBP++beoJH+tIzA/wCrmJqJb042eW9PaMx2h2KuxV2K&#xA;uxV2KuxV2Kpf5h0pNX0HUdKenG/tprYk9vVQpX6K1wxNG0g0XwpNDLBM8MylJYmKSI2xVlNCD8jm&#xA;yc9ZirsVdirsVdirsVdirsVdirsVdirsVdirsVdiq+3gmuJ47eBDJNMyxxIOrMxooHzJxV9zeVNB&#xA;g8v+W9N0aGnGxt0iZh+04FZH/wBm5LfTmulKzbgSNm01yKHYq7FXYq7FXYq7FXYq7FXyF+evlv8A&#xA;Qf5jagY1422p01CD/ntX1f8Akqr5nYZXFzMUri8+y1sdirsVdirsVdirsVdirsVdirsVdirsVdir&#xA;sVeifkN5ZOt/mJZSyJytdKBv569OUdBD9Pqsp+jKs0qi15ZVF9dZguG7FXYq7FXYq7FXYq7FXYq7&#xA;FXlH5/fl1q3mrS9OvdEtvrWp6fI6PCGVGeCYCtC5UHgyDavc5fhmInduxTA5vGLf8hfzUnAP6G9J&#xA;TWhkubZem3T1C34Zf40e9u8WKbW3/ONX5jTU9R7C2r/v2dzTav8AuuOTB+Yijxopra/84teZ2p9b&#xA;1myi6V9JZZfn9pYsidQO5j44Ta3/AOcVEpW48ykmn2Y7OlD/AKxmNfuwfmfJHj+TT/8AOKaFiU8z&#xA;lV7A2NT94uB+rH8z5L4/koP/AM4q3gciPzJGydi1oyn7hK368fzPknx/JDyf84sa2HIj162ZOxaG&#xA;RT9wLfrw/mB3L447lCX/AJxb80hv3WsWLrTcuJlNfkFbH8wO5fHDSf8AOLfmwuBJq9gqdyomY/cU&#xA;X9eP5gdyfHCYW3/OKt2w/wBJ8yRxmm4jtGk3+bSx4PzPkjx/JNLf/nFjQ1p9Y126k339OGOPbw3M&#xA;mD8we5j457k0t/8AnGLyDGP3t5qUzUoaywqtfEBYa/jkfzEkeOUFrP8Azi75anUnSNWurKT+W4VL&#xA;hK/JRCw+84RqD1SM56sC1r/nGz8wLEM9g1rqsY+ysMvpSU91mCL9zHLRniWwZgwDWvJ3mvQyf0tp&#xA;N1ZqP92yxMIz8pKcD9BywSB5NgkDyfQv/ONHld9O8qXet3EZSfV5gISwoTbwAhSK/wAzs/zoMxdR&#xA;KzTjZpWaew5Q0uxV/9k=</xmpGImg:image>
               </rdf:li>
            </rdf:Alt>
         </xmp:Thumbnails>
         <xmp:MetadataDate>2019-09-16T21:46:55+08:00</xmp:MetadataDate>
         <xmp:ModifyDate>2019-09-16T21:46:55+08:00</xmp:ModifyDate>
      </rdf:Description>
      <rdf:Description rdf:about=""
            xmlns:xmpTPg="http://ns.adobe.com/xap/1.0/t/pg/"
            xmlns:stDim="http://ns.adobe.com/xap/1.0/sType/Dimensions#"
            xmlns:xmpG="http://ns.adobe.com/xap/1.0/g/">
         <xmpTPg:MaxPageSize rdf:parseType="Resource">
            <stDim:w>299.998915</stDim:w>
            <stDim:h>299.998743</stDim:h>
            <stDim:unit>Millimeters</stDim:unit>
         </xmpTPg:MaxPageSize>
         <xmpTPg:NPages>1</xmpTPg:NPages>
         <xmpTPg:HasVisibleTransparency>False</xmpTPg:HasVisibleTransparency>
         <xmpTPg:HasVisibleOverprint>False</xmpTPg:HasVisibleOverprint>
         <xmpTPg:PlateNames>
            <rdf:Seq>
               <rdf:li>Cyan</rdf:li>
               <rdf:li>Magenta</rdf:li>
               <rdf:li>Yellow</rdf:li>
               <rdf:li>Black</rdf:li>
            </rdf:Seq>
         </xmpTPg:PlateNames>
         <xmpTPg:SwatchGroups>
            <rdf:Seq>
               <rdf:li rdf:parseType="Resource">
                  <xmpG:groupName>Default Swatch Group</xmpG:groupName>
                  <xmpG:groupType>0</xmpG:groupType>
               </rdf:li>
            </rdf:Seq>
         </xmpTPg:SwatchGroups>
      </rdf:Description>
      <rdf:Description rdf:about=""
            xmlns:dc="http://purl.org/dc/elements/1.1/">
         <dc:format>image/svg+xml</dc:format>
      </rdf:Description>
      <rdf:Description rdf:about=""
            xmlns:xmpMM="http://ns.adobe.com/xap/1.0/mm/"
            xmlns:stEvt="http://ns.adobe.com/xap/1.0/sType/ResourceEvent#">
         <xmpMM:DerivedFrom rdf:parseType="Resource"/>
         <xmpMM:DocumentID>xmp.did:A858AB8C16206811822AB5C3ECB2026F</xmpMM:DocumentID>
         <xmpMM:InstanceID>xmp.iid:A858AB8C16206811822AB5C3ECB2026F</xmpMM:InstanceID>
         <xmpMM:OriginalDocumentID>xmp.did:A858AB8C16206811822AB5C3ECB2026F</xmpMM:OriginalDocumentID>
         <xmpMM:History>
            <rdf:Seq>
               <rdf:li rdf:parseType="Resource">
                  <stEvt:action>saved</stEvt:action>
                  <stEvt:instanceID>xmp.iid:A858AB8C16206811822AB5C3ECB2026F</stEvt:instanceID>
                  <stEvt:when>2019-09-16T21:46:55+08:00</stEvt:when>
                  <stEvt:softwareAgent>Adobe Illustrator CS6 (Macintosh)</stEvt:softwareAgent>
                  <stEvt:changed>/</stEvt:changed>
               </rdf:li>
            </rdf:Seq>
         </xmpMM:History>
      </rdf:Description>
   </rdf:RDF>
</x:xmpmeta>
                                                                                                    
                                                                                                    
                                                                                                    
                                                                                                    
                                                                                                    
                                                                                                    
                                                                                                    
                                                                                                    
                                                                                                    
                                                                                                    
                                                                                                    
                                                                                                    
                                                                                                    
                                                                                                    
                                                                                                    
                                                                                                    
                                                                                                    
                                                                                                    
                                                                                                    
                                                                                                    
                           
<?xpacket end="w"?>
	</metadata>
<path fill="#FFFFFF" d="M648.802,532.731c-148.608,0-296.898,0-445.169,0c-0.119-0.138-0.301-0.249-0.304-0.365
	c-0.13-5.201-0.245-10.402-0.364-15.729c0.522-0.242,1.052-0.489,1.1-0.512c0.742-1.902,1.097-3.536,1.955-4.84
	c1.291-1.961,3.383-2.531,5.716-2.521c10.125,0.044,20.252,0.052,30.378,0.011c13.235-0.055,26.469-0.179,39.704-0.251
	c5.556-0.03,7.643,1.86,8.169,7.294c0.044,0.06,0.081,0.128,0.135,0.177c0.057,0.052,0.126,0.115,0.196,0.123
	c0.537,0.057,1.076,0.145,1.614,0.145c89.5-0.006,179-0.018,268.5-0.039c0.216,0,0.433-0.139,0.696-0.229
	c0.083-0.931,0.062-1.878,0.267-2.773c0.63-2.748,2.979-4.784,5.844-4.866c3.03-0.087,6.067,0.061,9.102,0.11
	c0.389,0.006,0.776,0.047,1.165,0.051c8.249,0.091,16.499,0.176,24.748,0.268c5.604,0.062,11.207,0.109,16.811,0.21
	c7.231,0.129,14.463,0.317,21.695,0.455c3.573,0.067,5.781,1.721,6.802,5.199c0.208,0.711,0.12,1.54,1.137,1.814
	c0.227,0.062,0.39,0.785,0.385,1.201c-0.015,1.237-0.136,2.473-0.2,3.71c-0.04,0.775-0.074,1.552-0.076,2.328
	C648.797,526.632,648.802,529.565,648.802,532.731z"/>
<path fill="#7A2426" d="M567.092,549.544c-92.881,0-185.634,0-278.523,0c-0.191,0.562-0.386,1.129-0.578,1.697
	c-1.034,3.061-3.203,4.765-6.452,4.722c-7.695-0.102-15.407,0.478-23.08-0.665c-1.91-0.284-3.879-0.234-5.821-0.237
	c-13.086-0.019-26.173-0.035-39.259,0.008c-3.458,0.011-5.607-1.388-7.433-4.489c-1.675-2.846-1.581-5.779-2.062-8.706
	c-0.387-2.357-0.46-4.767-0.641-7.155c-0.04-0.53,0.052-1.069,0.092-1.748c148.422,0,296.777,0,445.258,0
	c0.13,0.511,0.272,1.075,0.457,1.804c3.48-1.374,6.624-1.021,8.757,2.151c2.006,2.982,1.305,5.901-1.282,8.577
	c0.742,0.312,1.294,0.527,1.833,0.771c2.482,1.122,4.205,4.127,3.812,6.635c-0.473,3.007-3.022,5.534-6.004,5.566
	c-2.232,0.022-4.472-0.353-6.704-0.597c-2.004-0.219-3.996-0.682-6.001-0.725c-13.145-0.28-26.291-0.538-39.438-0.68
	c-9.657-0.104-19.317-0.019-28.977-0.021C570.103,556.451,567.999,554.677,567.092,549.544z"/>
<path fill="#552E5F" d="M648.86,510.538c0,1.903,0,3.682,0,5.466c-0.042,0.051-0.083,0.114-0.137,0.162
	c-0.057,0.052-0.123,0.117-0.192,0.128c-0.229,0.036-0.462,0.07-0.694,0.07c-28.039,0.024-56.078,0.046-84.116,0.069
	c-0.075,0-0.15,0.031-0.392,0.085c-0.071,0.446-0.244,0.958-0.223,1.462c0.33,7.775,0.641,15.552,1.059,23.322
	c0.136,2.514,0.997,4.858,2.335,7.022c0.549,0.888,1.205,1.369,2.28,1.242c0.538-0.063,1.089-0.011,1.635-0.011
	c24.69,0.001,49.382,0,74.072,0.001c0.915,0,1.831,0,2.657,0c-0.131,4.433-0.141,8.61-0.415,12.771
	c-0.188,2.834-0.764,5.643-1.127,8.467c-0.099,0.768-0.028,1.556-0.085,2.331c-0.306,4.167-0.565,8.34-0.96,12.499
	c-0.379,3.992-0.911,7.971-1.354,11.958c-0.066,0.602-0.009,1.217-0.009,1.884c1.132,0.216,2.126,0.32,3.067,0.601
	c2.797,0.83,4.545,3.093,4.708,5.983c0.018,0.311,0.004,0.623,0.006,0.935c0.052,13.238,0.08,26.477,0.167,39.714
	c0.039,5.832,0.231,11.662,0.271,17.493c0.009,1.217-0.173,2.495-0.562,3.646c-7.429,22.027-14.896,44.041-22.367,66.055
	c-3.997,11.78-8.013,23.554-12.023,35.329c-2.23,6.55-4.534,13.076-6.679,19.653c-1.361,4.177-5.269,5.729-8.794,4.829
	c-14.081-3.592-28.203-7.027-42.308-10.526c-7.241-1.796-14.479-3.604-21.718-5.407c-1.672-0.417-3.315-0.496-5.063-0.25
	c-2.76,0.388-5.569,0.416-8.355,0.634c-6.032,0.473-12.062,0.985-18.095,1.451c-6.576,0.507-13.155,0.963-19.731,1.469
	c-7.89,0.607-15.775,1.266-23.665,1.86c-5.955,0.448-11.911,1.051-17.875,1.183c-5.821,0.128-11.654-0.239-17.481-0.415
	c-4.349-0.131-8.695-0.327-13.043-0.452c-6.216-0.18-12.434-0.309-18.651-0.48c-4.893-0.136-9.786-0.315-14.679-0.457
	c-5.75-0.168-11.5-0.31-17.249-0.475c-5.049-0.146-10.098-0.292-15.146-0.469c-3.414-0.119-6.828-0.436-10.239-0.398
	c-3.567,0.038-7.132,0.358-10.694,0.621c-3.325,0.246-6.645,0.574-9.966,0.872c-6.256,0.56-12.509,1.144-18.768,1.677
	c-4.794,0.408-9.596,0.726-14.391,1.133c-6.258,0.532-12.51,1.137-18.769,1.666c-4.872,0.412-9.75,0.757-14.625,1.132
	c-2.011,0.155-4.02,0.397-6.033,0.45c-3.973,0.105-6.095-1.383-7.357-5.126c-1.987-5.895-3.908-11.811-5.883-17.71
	c-2.667-7.962-5.53-15.864-7.981-23.892c-1.72-5.635-3.002-11.412-4.289-17.168c-4.335-19.407-8.657-38.818-12.804-58.266
	c-0.77-3.612-0.737-7.398-1.021-11.108c-0.437-5.724-0.849-11.448-1.23-17.175c-0.253-3.797-0.397-7.601-0.657-11.397
	c-0.372-5.415-0.83-10.825-1.203-16.24c-0.261-3.797-0.408-7.601-0.666-11.397c-0.377-5.571-0.831-11.137-1.208-16.708
	c-0.257-3.797-0.413-7.6-0.662-11.397c-0.209-3.171-0.488-6.338-0.737-9.507c-0.227-2.896-0.016-5.69,2.6-7.545
	c1.048-0.743,2.349-1.131,3.718-1.765c-0.091-0.691-0.197-1.499-0.337-2.562c0.994,0,1.905,0,2.816,0
	c24.379,0,48.759-0.034,73.138,0.057c2.188,0.008,3.45-0.684,4.448-2.532c1.172-2.17,1.942-4.447,2.076-6.87
	c0.421-7.614,0.734-15.234,1.079-22.853c0.01-0.217-0.092-0.439-0.207-0.949c-28.193,0-56.413,0-84.824,0c0-1.902,0-3.512,0-5.266
	c-0.76-0.094-1.35-0.157-1.936-0.242c-3.212-0.467-5.534-2.978-5.528-6.227c0.002-1.615,0.282-3.248,0.584-4.844
	c2.023-10.684,4.077-21.36,6.139-32.036c2.238-11.589,4.497-23.173,6.735-34.762c0.072-0.373,0.009-0.771,0.009-0.969
	c-1.465-1.051-2.955-1.903-4.156-3.056c-0.794-0.763-1.514-1.907-1.669-2.968c-0.346-2.366-0.38-4.751,0.312-7.151
	c0.792-2.748,1.3-5.584,1.817-8.403c1.793-9.775,3.494-19.567,5.326-29.335c0.571-3.046,1.16-5.436,6.485-6.92
	c0.469-3.287,1.133-6.643,1.385-10.03c0.304-4.102,0.48-8.24,0.305-12.345c-0.183-4.275,2.067-7.517,7.161-7.935
	c0.421-2.037,0.884-4.138,1.287-6.25c1.511-7.934,2.999-15.873,4.506-23.808c0.13-0.685,0.27-1.382,0.525-2.026
	c0.583-1.471,0.785-2.833,0.298-4.475c-0.598-2.015-0.035-4.032,1.581-5.558c0.727-0.686,1.551-1.267,2.496-2.028
	c-0.031,0.072,0.088-0.07,0.082-0.206c-0.138-3.118,1.365-5.289,3.853-6.992c6.099-4.175,12.161-8.404,18.239-12.61
	c11.388-7.881,22.777-15.763,34.167-23.642c1.344-0.93,2.63-1.972,4.066-2.731c1.619-0.856,2.233-2.237,2.726-3.846
	c1.821-5.945,3.712-11.868,5.548-17.808c0.768-2.485,2.25-4.218,4.818-4.926c0.37-0.102,0.714-0.298,1.239-0.523
	c0-57.734,0-115.501,0-173.435c76.325,0,152.465,0,228.77,0c0.076,0.445,0.208,0.952,0.24,1.465
	c0.044,0.698,0.013,1.401,0.013,2.103c0,58.027,0.01,116.055-0.04,174.083c-0.002,2.004,0.571,3.522,1.807,5.059
	c4.286,5.333,8.43,10.781,12.684,16.14c0.755,0.951,1.682,1.843,2.699,2.497c13.156,8.453,26.341,16.862,39.524,25.272
	c1.805,1.151,3.213,2.59,4.255,4.512c8.79,16.198,17.621,32.373,26.488,48.528c1.526,2.781,2.312,5.731,2.767,8.832
	c1.754,11.979,3.521,23.957,5.334,35.928c2.404,15.883,4.877,31.755,7.277,47.638c2.273,15.041,4.477,30.091,6.74,45.133
	c1.594,10.59,3.208,21.177,4.878,31.755c0.571,3.615-1.265,7.229-4.954,8.097C649.759,510.186,649.402,510.349,648.86,510.538z"/>
<path fill="#552E5F" d="M225.453,64.606c1.145,2.121,0.266,4.083-0.555,5.999c-1.219,2.845-3.286,5.136-5.524,7.151
	c-3.054,2.748-6.407,5.16-9.595,7.762c-0.641,0.523-1.21,1.191-1.654,1.892c-7.549,11.902-15.752,23.333-24.572,34.323
	c-3.659,4.559-7.646,8.787-12.136,12.556c-7.188,6.037-15.609,8.935-24.806,9.564c-5.882,0.403-11.803,0.216-17.705,0.332
	c-4.147,0.082-7.914-1.388-11.692-2.791c-11.871-4.405-23.723-8.86-35.594-13.262c-4.406-1.634-8.503-3.748-12.152-6.772
	c-2.328-1.931-4.862-3.625-7.379-5.312c-4.687-3.141-8.828-6.877-12.512-11.135c-4.472-5.167-8.969-10.312-13.395-15.518
	c-1.704-2.004-3.4-4.066-4.029-6.72c-0.301-1.269-0.546-2.565-0.65-3.863c-0.603-7.523,2.492-13.904,6.235-20.097
	c1.042-1.724,1.782-3.63,2.81-5.365c1.533-2.59,2.636-5.507,5.136-7.413c0.976-0.743,2.034-1.422,3.146-1.932
	c2.182-1,4.426-1.867,6.649-2.779c1.005-0.412,1.992-1.031,3.036-1.16c7.21-0.888,14.088-3.151,21.084-4.927
	c3.833-0.973,7.683-1.953,11.582-2.565c3.749-0.589,7.565-0.881,11.361-0.992c5.526-0.161,11.063-0.174,16.588,0.004
	c3.868,0.125,7.72,0.692,11.582,1.022c1.856,0.159,3.72,0.31,5.581,0.319c7.244,0.037,14.488-0.015,21.73,0.042
	c1.297,0.01,2.587,0.4,3.887,0.573c2.149,0.285,4.3,0.586,6.458,0.788c2.317,0.216,4.652,0.255,6.963,0.514
	c0.979,0.11,2.026,0.411,2.847,0.933c1.266,0.806,2.569,0.926,3.991,0.918c6.231-0.034,12.463-0.056,18.693,0.017
	c1.45,0.017,2.912,0.35,4.34,0.667c1.888,0.419,3.822,0.784,5.6,1.508c2.065,0.841,4.233,1.751,5.903,3.167
	c2.229,1.888,4.003,4.306,6.004,6.468c1.569,1.697,2.48,3.853,4.329,5.412c2.986,2.518,2.857,6.461,0.03,9.216
	C226.576,63.632,226.048,64.073,225.453,64.606z"/>
</svg>
