<?xml version="1.0" encoding="utf-8"?>
<!-- Generator: Adobe Illustrator 16.0.0, SVG Export Plug-In . SVG Version: 6.00 Build 0)  -->
<!DOCTYPE svg PUBLIC "-//W3C//DTD SVG 1.1//EN" "http://www.w3.org/Graphics/SVG/1.1/DTD/svg11.dtd" [
	<!ENTITY ns_flows "http://ns.adobe.com/Flows/1.0/">
	<!ENTITY ns_extend "http://ns.adobe.com/Extensibility/1.0/">
	<!ENTITY ns_ai "http://ns.adobe.com/AdobeIllustrator/10.0/">
	<!ENTITY ns_graphs "http://ns.adobe.com/Graphs/1.0/">
	<!ENTITY ns_vars "http://ns.adobe.com/Variables/1.0/">
	<!ENTITY ns_imrep "http://ns.adobe.com/ImageReplacement/1.0/">
	<!ENTITY ns_sfw "http://ns.adobe.com/SaveForWeb/1.0/">
	<!ENTITY ns_custom "http://ns.adobe.com/GenericCustomNamespace/1.0/">
	<!ENTITY ns_adobe_xpath "http://ns.adobe.com/XPath/1.0/">
]>
<svg version="1.1" id="Layer_1" xmlns:x="&ns_extend;" xmlns:i="&ns_ai;" xmlns:graph="&ns_graphs;"
	 xmlns="http://www.w3.org/2000/svg" xmlns:xlink="http://www.w3.org/1999/xlink" xmlns:a="http://ns.adobe.com/AdobeSVGViewerExtensions/3.0/"
	 x="0px" y="0px" width="850.391px" height="850.39px" viewBox="0 0 850.391 850.39" enable-background="new 0 0 850.391 850.39"
	 xml:space="preserve">
<metadata><?xpacket begin="﻿" id="W5M0MpCehiHzreSzNTczkc9d"?>
<x:xmpmeta xmlns:x="adobe:ns:meta/" x:xmptk="Adobe XMP Core 5.3-c011 66.145661, 2012/02/06-14:56:27        ">
   <rdf:RDF xmlns:rdf="http://www.w3.org/1999/02/22-rdf-syntax-ns#">
      <rdf:Description rdf:about=""
            xmlns:xmp="http://ns.adobe.com/xap/1.0/"
            xmlns:xmpGImg="http://ns.adobe.com/xap/1.0/g/img/">
         <xmp:CreatorTool>Adobe Illustrator CS6 (Macintosh)</xmp:CreatorTool>
         <xmp:CreateDate>2019-09-30T21:40:05+08:00</xmp:CreateDate>
         <xmp:MetadataDate>2019-09-30T21:40:05+08:00</xmp:MetadataDate>
         <xmp:ModifyDate>2019-09-30T21:40:05+08:00</xmp:ModifyDate>
         <xmp:Thumbnails>
            <rdf:Alt>
               <rdf:li rdf:parseType="Resource">
                  <xmpGImg:width>188</xmpGImg:width>
                  <xmpGImg:height>256</xmpGImg:height>
                  <xmpGImg:format>JPEG</xmpGImg:format>
                  <xmpGImg:image>/9j/4AAQSkZJRgABAgEASABIAAD/7QAsUGhvdG9zaG9wIDMuMAA4QklNA+0AAAAAABAASAAAAAEA&#xA;AQBIAAAAAQAB/+4ADkFkb2JlAGTAAAAAAf/bAIQABgQEBAUEBgUFBgkGBQYJCwgGBggLDAoKCwoK&#xA;DBAMDAwMDAwQDA4PEA8ODBMTFBQTExwbGxscHx8fHx8fHx8fHwEHBwcNDA0YEBAYGhURFRofHx8f&#xA;Hx8fHx8fHx8fHx8fHx8fHx8fHx8fHx8fHx8fHx8fHx8fHx8fHx8fHx8fHx8f/8AAEQgBAAC8AwER&#xA;AAIRAQMRAf/EAaIAAAAHAQEBAQEAAAAAAAAAAAQFAwIGAQAHCAkKCwEAAgIDAQEBAQEAAAAAAAAA&#xA;AQACAwQFBgcICQoLEAACAQMDAgQCBgcDBAIGAnMBAgMRBAAFIRIxQVEGE2EicYEUMpGhBxWxQiPB&#xA;UtHhMxZi8CRygvElQzRTkqKyY3PCNUQnk6OzNhdUZHTD0uIIJoMJChgZhJRFRqS0VtNVKBry4/PE&#xA;1OT0ZXWFlaW1xdXl9WZ2hpamtsbW5vY3R1dnd4eXp7fH1+f3OEhYaHiImKi4yNjo+Ck5SVlpeYmZ&#xA;qbnJ2en5KjpKWmp6ipqqusra6voRAAICAQIDBQUEBQYECAMDbQEAAhEDBCESMUEFURNhIgZxgZEy&#xA;obHwFMHR4SNCFVJicvEzJDRDghaSUyWiY7LCB3PSNeJEgxdUkwgJChgZJjZFGidkdFU38qOzwygp&#xA;0+PzhJSktMTU5PRldYWVpbXF1eX1RlZmdoaWprbG1ub2R1dnd4eXp7fH1+f3OEhYaHiImKi4yNjo&#xA;+DlJWWl5iZmpucnZ6fkqOkpaanqKmqq6ytrq+v/aAAwDAQACEQMRAD8A5RmC9g7FXYq+oP8AnF7/&#xA;AJQDUP8Atqzf9Q1vmTh5Oh7U/vB/V/SXsGWutdirsVdirsVdirsVdirsVdirsVdirsVdirsVdirs&#xA;VdirsVdir8/8wXsHYq7FX1B/zi9/ygGof9tWb/qGt8ycPJ0Pan94P6v6S9gy11rsVdirsVdirsVd&#xA;irsVdirsVdirsVdirsVdirsVdirsVdirsVdirsVdirsVdirsVdirsVdirsVdirsVdirsVdirsVdi&#xA;rsVdirsVdirsVdirsVdirsVdirsVdirsVdirsVdirsVdirsVdirsVdirsVdirsVdirsVdirsVdir&#xA;sVdirsVdirsVdirsVdirsVdirsVdirsVdirsVdirsVdirsVdirsVdirsVdirsVdirsVdirsVdirs&#xA;VdirsVdirsVdirsVdirsVdirsVdirsVdirsVdirsVdirsVdirsVdirsVdirsVdirsVdirsVdirsV&#xA;dirsVdirsVdirsVdirsVdirsVdirsVdirsVdirsVdirsVdirsVdirsVdirsVdirsVdirsVdirsVd&#xA;irsVdirsVdirsVdirsVdirsVdirsVdirsVdirsVdirsVdirsVdirsVdirsVdirsVdirsVdirsVdi&#xA;rsVdirsVdirsVdirsVdirsVdirsVdirsVdirsVdirsVdirsVdirsVdirsVdirsVdirsVdirsVdir&#xA;sVdirsVdirsVdirsVdirsVdirsVdirsVdirsVdirsVdirsVdirsVdirsVdirsVdirsVdirsVdirs&#xA;VdirsVdirsVdirsVdirsVdirsVdirsVdirsVdirsVdirsVdirsVdirsVdirsVdirsVdirsVdirsV&#xA;dirsVdirsVdirsVdirsVdirsVdirsVdirsVdirsVdirsVdirsVdirsVdirsVdirsVdirsVdirsVd&#xA;irsVdirsVdirsVdirsVdirsVeBXX5/ecYfzFm8tLZ6cbGPV201ZDHP63ordGHkT63Hnx78aV7ZR4&#xA;punbjs+BxcVm+G/s9z33L3UOxV2KuxV2KuxV2KuxV2KvP/zn/MPVvJGgWV9pUNvPdXV0IGW6V2QR&#xA;iN2YhY3javILvXK8k+EOZotOMsiD3PH/APoaHz//ANW/Sv8AkTc/9lGVeMXZfyXj75fZ+p9QZkuh&#xA;dirsVdirsVdirsVdirsVdirsVdir431H/wAndc/+BK//AFHnMQ/V8XpY/wBwP6n6H2RmW80xb80V&#xA;1X/lX2uPpNzLaX8FsbiK4t3McqiBhK4Vl3HJEI2yM+TkaWvEje4t8kf8rD8//wDUzar/ANJ1z/zX&#xA;mJxnvei/L4/5sfkHf8rD8/8A/Uzar/0nXP8AzXjxnvX8vj/mx+Qd/wArD8//APUzar/0nXP/ADXj&#xA;xnvX8vj/AJsfkHf8rD8//wDUzar/ANJ1z/zXjxnvX8vj/mx+Qd/ysPz/AP8AUzar/wBJ1z/zXjxn&#xA;vX8vj/mx+Qe+f841675g1fSNbl1fUrnURFcRLAbqV5nSqEvRpCxAO21cvwkl1HaWOMZDhFPZMudY&#xA;8I/5yruQuneXbaorLNcyUpv+7WNev/PTKM3R23ZQ3kfc+dsod0/QDM5492KuxV2KuxV2KuxV2Kux&#xA;V2KuxV2KvjfUf/J3XP8A4Er/APUecxD9Xxelj/cD+p+h9kZlvNLJ4Yp4ZIJlDxSqUkQ9GVhQg/MY&#xA;pBp8k3//ADj/APmfFfXEVppH1i1jldbe4+s2i+pGGIV6NKrDkN9wMxTik9DHtDFW5+wqH/KhPzZ/&#xA;6sX/AE92f/VbB4UmX5/D/O+w/qd/yoT82f8Aqxf9Pdn/ANVsfCkv5/D/ADvsP6nf8qE/Nn/qxf8A&#xA;T3Z/9VsfCkv5/D/O+w/qd/yoT82f+rF/092f/VbHwpL+fw/zvsP6nuf5CeSfMHlTy3qFvrtoLO9u&#xA;bwyJFzilJiWJArcomdftctq5fiiQN3U6/PHJIGJsU9NyxwXzt/zlXcFtS8u229I4bmSnb948a/8A&#xA;MvMfN0d12UNpH3PCMpds/QDM5492KuxV2KuxV2KuxV2KuxV2KuxV2KvkOXT7mX89n528hgfzQeTc&#xA;WpwOobmtPDMSvV8XoxIfl/8AM/Q+vMy3nHYq7FXYq7FXYq7FXYq7FXzV/wA5PxXE/nHS44YpJBHp&#xA;yseKsyjlPKO3f4cx83N3nZZAgfe8c/R2of8ALNL/AMA39Mpp2XEO998ZnPIuxV2KuxV2KuxV2Kux&#xA;V2KuxV2KuxV2KuxV2KuxV2KuxV2KuxV2KuxV2KuxV2KuxV2KuxV2KuxV2KuxV2KuxV2KuxV8n6GA&#xA;f+ci5P8AwILz/k/LmKPr+L0M/wDFv80PrDMp552Kvnj/AJyI85ea9E862VppGrXVhbPpsUrw28rR&#xA;qXM86liAetFAzHyyILuezsMJYyZAHf8AU8u/5Wj+Yv8A1Mmof9JEn9cr4z3uf+VxfzQ7/laP5i/9&#xA;TJqH/SRJ/XHjPev5XF/NDv8AlaP5i/8AUyah/wBJEn9ceM96/lcX80O/5Wj+Yv8A1Mmof9JEn9ce&#xA;M96/lcX80PsLyg93J5T0R7yVprt7C1a4mkqXeQwqXZq71LbnMuPJ5vNXGa5WU2wtb5M/5yLlV/zO&#xA;ulFax21srfMx8v1NmLl+p6Hs4fug+k/+mA/7dX/YtmR0dJ/lP879LIMk0uxV2KuxV2KuxV2KuxV2&#xA;KuxV2KuxV8vWfk/zav56NqTaJfjTv8Qyz/XTazCD0Tdswk9Tjw4cd+VaUzG4TxfF30s0Py9WL4e/&#xA;yfUOZLoXYq8B/Pz8vPOvmXzla32iaVJeWkOnxQNMrxKPUWaZyKO6nYSDtlGWJJ2dxoNRjhAiRo28&#xA;1/5Ul+aX/Vgl/wCRsH/VTK/Dl3Ob+exfznf8qS/NL/qwS/8AI2D/AKqY+HLuX89i/nO/5Ul+aX/V&#xA;gl/5Gwf9VMfDl3L+exfzlS3/ACN/NCWeON9DkiR2VWlaSCigmhY/vO2PhyU67F3vsG3git4I4Ihx&#xA;iiRUjXwVRQD7sy3mybX4ofLP53+UfOWqfmZq13YaHqF7ZEWywXFvaTSxsFto+XF0QqaPUHfMbJEm&#xA;Tv8AQ5oRxAGQB36+b6K+r3H+CPq3pP8AWP0Z6fo8Tz5/V+PHj15V2pl/R0tjxL808yTU7FXYq7FX&#xA;Yq7FXYq7FXYq7FXYq7FXYq7FXYq7FXYq7FXYq7FXYq7FXYq7FXYq7FXYq7FXYq7FXYq7FXYq7FXY&#xA;q7FXYq7FXYq7FXYq7FXYq7FXYq7FXYq7FXYq7FXYq7FXYq7FXYq7FXYq7FXYq7FXYq7FXYq7FXYq&#xA;7FXYq7FXYq7FXYq7FXYq7FXYq7FXYq7FXYq7FXYq7FXYq7FXYq7FXYq7FXYq7FXYq7FXYq7FXYq7&#xA;FXYq7FXYq7FXYq7FXYq7FXYq7FXYq7FXYq7FXYq7FXYq7FXYq7FXYq7FXYq7FXYq7FXYq7FXYq7F&#xA;XYq7FXYq7FXYq7FXYq7FXYq7FXYq7FXYq7FXYq7FXYq7FXYq7FXYq7FXYq7FXYq7FXYq7FXYq7FX&#xA;Yq7FXYq7FXYq7FXYq7FXYq7FXYq7FXYq7FXYq7FXYq7FXYq7FXYq7FXYq7FXYq7FXYq7FXYq7FXY&#xA;q7FXYq7FXYq7FXYq7FXYq7FXYq7FXYq7FXYq7FXYq7FXYq7FXYq7FXYq7FXYq7FXYq7FXYq7FXYq&#xA;7FXYq7FXYq7FXYq7FXYq7FXYq7FXYq7FXYq7FXYq7FXYq7FXYq7FXYq7FXYq7FXYq7FXYq7FXYq7&#xA;FXYq7FXYq7FXYq7FXYq7FXYq7FXYq7FXYq7FXYq7FX//2Q==</xmpGImg:image>
               </rdf:li>
            </rdf:Alt>
         </xmp:Thumbnails>
      </rdf:Description>
      <rdf:Description rdf:about=""
            xmlns:xmpTPg="http://ns.adobe.com/xap/1.0/t/pg/"
            xmlns:stDim="http://ns.adobe.com/xap/1.0/sType/Dimensions#"
            xmlns:xmpG="http://ns.adobe.com/xap/1.0/g/">
         <xmpTPg:MaxPageSize rdf:parseType="Resource">
            <stDim:w>299.998915</stDim:w>
            <stDim:h>299.998743</stDim:h>
            <stDim:unit>Millimeters</stDim:unit>
         </xmpTPg:MaxPageSize>
         <xmpTPg:NPages>1</xmpTPg:NPages>
         <xmpTPg:HasVisibleTransparency>False</xmpTPg:HasVisibleTransparency>
         <xmpTPg:HasVisibleOverprint>False</xmpTPg:HasVisibleOverprint>
         <xmpTPg:PlateNames>
            <rdf:Seq>
               <rdf:li>Cyan</rdf:li>
               <rdf:li>Magenta</rdf:li>
               <rdf:li>Yellow</rdf:li>
               <rdf:li>Black</rdf:li>
            </rdf:Seq>
         </xmpTPg:PlateNames>
         <xmpTPg:SwatchGroups>
            <rdf:Seq>
               <rdf:li rdf:parseType="Resource">
                  <xmpG:groupName>Default Swatch Group</xmpG:groupName>
                  <xmpG:groupType>0</xmpG:groupType>
               </rdf:li>
            </rdf:Seq>
         </xmpTPg:SwatchGroups>
      </rdf:Description>
      <rdf:Description rdf:about=""
            xmlns:dc="http://purl.org/dc/elements/1.1/">
         <dc:format>image/svg+xml</dc:format>
      </rdf:Description>
      <rdf:Description rdf:about=""
            xmlns:xmpMM="http://ns.adobe.com/xap/1.0/mm/"
            xmlns:stRef="http://ns.adobe.com/xap/1.0/sType/ResourceRef#"
            xmlns:stEvt="http://ns.adobe.com/xap/1.0/sType/ResourceEvent#">
         <xmpMM:DerivedFrom rdf:parseType="Resource">
            <stRef:instanceID>xmp.iid:075A81E56D21681180839FCCDFDC130E</stRef:instanceID>
            <stRef:documentID>xmp.did:075A81E56D21681180839FCCDFDC130E</stRef:documentID>
            <stRef:originalDocumentID>xmp.did:F63F1AA85321681180839FCCDFDC130E</stRef:originalDocumentID>
         </xmpMM:DerivedFrom>
         <xmpMM:DocumentID>xmp.did:095A81E56D21681180839FCCDFDC130E</xmpMM:DocumentID>
         <xmpMM:InstanceID>xmp.iid:095A81E56D21681180839FCCDFDC130E</xmpMM:InstanceID>
         <xmpMM:OriginalDocumentID>xmp.did:F63F1AA85321681180839FCCDFDC130E</xmpMM:OriginalDocumentID>
         <xmpMM:History>
            <rdf:Seq>
               <rdf:li rdf:parseType="Resource">
                  <stEvt:action>saved</stEvt:action>
                  <stEvt:instanceID>xmp.iid:F63F1AA85321681180839FCCDFDC130E</stEvt:instanceID>
                  <stEvt:when>2019-09-30T18:39:11+08:00</stEvt:when>
                  <stEvt:softwareAgent>Adobe Illustrator CS6 (Macintosh)</stEvt:softwareAgent>
                  <stEvt:changed>/</stEvt:changed>
               </rdf:li>
               <rdf:li rdf:parseType="Resource">
                  <stEvt:action>saved</stEvt:action>
                  <stEvt:instanceID>xmp.iid:095A81E56D21681180839FCCDFDC130E</stEvt:instanceID>
                  <stEvt:when>2019-09-30T21:40:05+08:00</stEvt:when>
                  <stEvt:softwareAgent>Adobe Illustrator CS6 (Macintosh)</stEvt:softwareAgent>
                  <stEvt:changed>/</stEvt:changed>
               </rdf:li>
            </rdf:Seq>
         </xmpMM:History>
      </rdf:Description>
   </rdf:RDF>
</x:xmpmeta>
                                                                                                    
                                                                                                    
                                                                                                    
                                                                                                    
                                                                                                    
                                                                                                    
                                                                                                    
                                                                                                    
                                                                                                    
                                                                                                    
                                                                                                    
                                                                                                    
                                                                                                    
                                                                                                    
                                                                                                    
                                                                                                    
                                                                                                    
                                                                                                    
                                                                                                    
                                                                                                    
                           
<?xpacket end="w"?>
	</metadata>
<polyline fill="#7A2426" points="553.196,483.362 304.196,483.362 304.196,405.195 553.196,405.195 "/>
<polyline fill="#7A2426" points="542.696,546.862 304.196,546.862 304.196,506.196 542.696,506.196 "/>
<path fill="#FFFFFF" d="M514.378,285.945c0.687,2.038,1.468,4.477,2.331,6.888c1.411,3.941,2.975,7.831,4.287,11.804
	c1.021,3.094,1.735,6.288,2.628,9.426c1.104,3.879,2.149,7.779,3.405,11.61c1.609,4.91,2.057,10.042,3.129,15.053
	c0.926,4.326,1.67,8.691,2.445,13.047c0.203,1.143,0.161,2.328,0.344,3.476c0.181,1.139,0.577,2.245,0.739,3.385
	c0.172,1.208,0.187,2.44,0.257,3.662c0.08,1.388,0.063,2.787,0.233,4.163c0.39,3.139-0.059,6.3,0.803,9.465
	c0.68,2.499,0.514,5.24-0.476,7.814c-0.318,0.829-0.371,1.792-0.387,2.697c-0.057,3.176,0.439,6.38-0.61,9.499
	c-0.144,0.426-0.127,0.927-0.101,1.388c0.259,4.588-0.776,9.078-1.015,13.629c-0.188,3.567-0.494,7.128-0.752,10.691
	c-0.382,5.265-0.772,10.529-1.149,15.794c-0.189,2.635-0.342,5.272-0.539,7.907c-0.317,4.256-0.666,8.509-0.985,12.765
	c-0.146,1.938-0.277,3.876-0.371,5.815c-0.171,3.568-0.234,7.143-0.479,10.705c-0.377,5.494-0.892,10.979-1.293,16.471
	c-0.09,1.231,0.062,2.479,0.076,3.72c0.022,1.852,0.04,3.705,0.021,5.557c-0.007,0.696-0.152,1.389-0.185,2.086
	c-0.331,7.219-0.658,14.438-0.968,21.657c-0.053,1.244,0.046,2.496-0.036,3.737c-0.121,1.854-0.336,3.702-0.521,5.552
	c-0.061,0.616-0.207,1.229-0.217,1.847c-0.132,8.092-0.195,16.186-0.387,24.276c-0.095,4.033-0.466,8.06-0.608,12.094
	c-0.048,1.382,0.418,2.789,0.312,4.159c-0.602,7.891-0.26,15.829-1.634,23.692c-0.798,4.569-0.781,9.281-1.141,13.928
	c-0.066,0.85-0.183,1.694-0.267,2.541c-0.168,1.698-0.364,3.395-0.486,5.096c-0.354,4.878-0.684,9.758-1.006,14.638
	c-0.154,2.324-0.114,4.672-0.428,6.973c-0.993,7.284-0.393,14.602-0.67,21.896c-0.082,2.167-0.116,4.304,0.042,6.463
	c0.476,6.498-1.051,12.706-3.267,18.7c-1.103,2.981-1.199,5.886-0.814,8.861c0.837,6.47,1.699,12.944,2.846,19.365
	c0.558,3.127,0.43,6.021-0.889,8.865c-1.538,3.319-3.072,6.658-6.178,8.883c-1.7,1.219-3.43,2.371-5.542,2.839
	c-1.206,0.268-2.386,0.711-3.529,1.189c-3.118,1.303-6.449,1.691-9.709,2.402c-5.229,1.143-10.437,2.392-15.66,3.562
	c-0.751,0.169-1.557,0.278-2.315,0.202c-3.688-0.369-7.24,0.676-10.862,0.97c-3.017,0.244-6.04,0.473-9.036,0.883
	c-3.116,0.428-6.171,0.045-9.267-0.179c-2.776-0.201-5.59,0.17-8.385,0.133c-4.023-0.054-8.048-0.18-12.064-0.414
	c-1.833-0.107-2.949,0.494-3.991,2.055c-7.264,10.879-14.658,21.671-21.945,32.535c-0.979,1.46-2.056,2.329-3.854,2.558
	c-3.789,0.483-7.381,1.717-10.999,2.956c-3.643,1.247-7.577,1.166-11.302,0.227c-5.919-1.493-11.93-2.087-17.979-2.518
	c-2.486-0.177-4.968-0.408-7.455-0.538c-1.083-0.057-1.907-0.49-2.709-1.171c-2.435-2.064-4.88-4.12-7.383-6.103
	c-1.271-1.007-2.698-1.817-4.01-2.777c-0.679-0.496-1.283-1.103-1.881-1.699c-0.547-0.545-0.955-1.271-1.576-1.694
	c-1.361-0.933-1.851-2.098-1.744-3.747c0.072-1.117-0.193-2.299-0.517-3.39c-0.463-1.562-0.403-3.031,0.089-4.569
	c0.348-1.084,0.645-2.237,0.666-3.365c0.125-6.853,0.195-13.707,0.206-20.561c0.002-1.545,0.29-2.904,1.22-4.146
	c0.465-0.62,0.805-1.332,1.228-1.985c1.224-1.892,2.03-3.826,2.407-6.163c0.572-3.543,1.241-7.255,4.156-9.929
	c0.374-0.344,0.492-0.959,0.754-1.435c1.084-1.965,2.154-3.938,3.28-5.88c0.683-1.177,1.105-2.314,0.802-3.75
	c-0.723-3.42-1.368-6.861-1.916-10.313c-0.632-3.984-1.173-7.985-1.662-11.99c-0.306-2.506-1.075-4.801-2.241-7.049
	c-1.57-3.025-2.908-6.173-4.299-9.288c-0.887-1.986-1.714-4.001-2.524-6.021c-1.067-2.662-2.093-5.341-3.13-8.016
	c-0.476-1.229-1.134-2.429-1.366-3.703c-1.044-5.727-1.782-11.515-2.993-17.203c-0.872-4.091-0.467-8.207-0.898-12.293
	c-0.104-0.987,0.205-2.012,0.169-3.013c-0.142-3.962-0.366-7.92-0.517-11.881c-0.073-1.93-0.06-3.863-0.07-5.795
	c-0.012-2.243-0.007-4.485-0.01-6.729c0-0.233-0.008-0.467-0.009-0.7c-0.004-2.555-0.01-5.108-0.012-7.662
	c-0.002-3.101-0.003-6.201-0.003-9.302c0-13.396,0.024-26.794-0.02-40.19c-0.009-2.792-0.353-5.581-0.399-8.374
	c-0.071-4.345-0.113-8.693,0.003-13.036c0.173-6.446,0.554-12.887,0.739-19.333c0.176-6.146,0.197-12.294,0.332-18.441
	c0.027-1.232,0.304-2.458,0.386-3.692c0.151-2.301,0.333-4.604,0.345-6.908c0.042-7.944-0.017-15.89,0.032-23.834
	c0.021-3.42,0.295-6.838,0.302-10.257c0.006-2.951-0.261-5.902-0.303-8.855c-0.057-4.049,0.024-8.101-0.023-12.15
	c-0.085-7.312-0.199-14.624-0.348-21.934c-0.091-4.505-0.192-9.012-0.432-13.511c-0.206-3.869-0.682-7.723-0.917-11.591
	c-0.376-6.198-1.079-12.406,0.707-18.543c0.515-1.769,0.63-3.656,0.896-5.494c0.791-5.474,2.214-10.803,3.829-16.072
	c2.411-7.869,4.978-15.689,7.475-23.531c1.034-3.249,2.038-6.507,3.101-9.746c0.362-1.104,0.92-2.143,1.292-3.244
	c1.467-4.334,2.779-8.725,4.38-13.008c1.03-2.757,2.497-5.35,3.704-8.044c0.889-1.983,1.591-4.053,2.534-6.008
	c0.804-1.669,1.7-3.327,2.791-4.817c1.896-2.592,1.992-5.472,1.542-8.405c-0.255-1.662-0.875-3.284-1.46-4.877
	c-1.419-3.861-2.905-7.69-5.104-11.21c-1.879-3.009-2.483-6.162-0.518-9.436c1.63-2.717,2.467-5.626,2.511-8.849
	c0.033-2.414,1.682-4.347,2.996-6.201c3.769-5.319,7.863-10.408,11.651-15.714c1.363-1.91,2.813-3.642,4.539-5.229
	c1.882-1.731,3.471-3.778,5.283-5.592c2.518-2.52,5.104-4.973,7.708-7.404c0.788-0.736,1.77-1.261,2.594-1.963
	c4.515-3.844,9.547-6.843,14.945-9.255c0.426-0.19,0.931-0.298,1.26-0.598c2.597-2.365,6.004-3.203,8.999-4.814
	c2.988-1.608,6.037-3.109,9.11-4.55c4.583-2.15,9.241-4.044,14.441-4.144c1.609-0.031,3.22-0.449,4.815-0.762
	c6.47-1.27,12.928-2.595,19.401-3.847c4.111-0.795,8.259-1.414,12.357-2.27c2.954-0.617,5.854-1.396,8.674-2.617
	c3.709-1.607,6.974-0.213,9.777,2.427c2.057,1.937,3.721,4.134,4.783,6.798c1.78,4.46,3.438,8.991,5.555,13.291
	c3.425,6.958,6.566,14.086,11.209,20.394c2.206,2.998,4.274,6.106,6.264,9.253c1.94,3.07,3.606,6.313,5.562,9.372
	c3.396,5.311,5.845,11.099,8.572,16.74c1.31,2.707,2.146,5.647,3.132,8.503c0.93,2.693,1.971,5.371,2.595,8.138
	c0.523,2.322,0.595,4.759,0.717,7.153c0.079,1.545-0.121,3.104-0.182,4.657c-0.111,2.874-0.433,5.665-1.486,8.418
	c-0.88,2.302-1.173,4.826-1.75,7.247c-1.035,4.342-2.414,8.53-5.361,12.026c-0.292,0.346-0.411,0.833-0.64,1.238
	c-1.91,3.377-3.687,6.842-5.798,10.088C517.915,282.482,516.156,283.988,514.378,285.945z M360.695,421.704
	c0.48,3.28,0.661,6.247,1.377,9.078c2.133,8.435,4.49,16.813,6.722,25.224c0.262,0.989,0.727,1.493,1.766,1.43
	c0.465-0.028,0.934,0.004,1.401,0.004c36.587,0,73.175,0,109.763,0c0.84,0,1.679,0,2.727,0c0.196-1.348,0.427-2.475,0.516-3.612
	c0.455-5.816,0.964-11.631,1.277-17.455c0.233-4.35,0.236-8.714,0.264-13.071c0.01-1.495-0.293-1.698-1.807-1.824
	c-0.387-0.033-0.777-0.02-1.167-0.02c-39.936,0-79.87-0.002-119.806,0.008C362.896,421.465,362.064,421.592,360.695,421.704z
	 M479.378,509.334c-4.531-0.531-102.543-0.314-104.317,0.222c-0.158,3.362-0.406,6.771-0.46,10.182
	c-0.131,8.318-0.173,16.639-0.246,24.958c0,0.063,0.072,0.134,0.122,0.189c0.051,0.058,0.118,0.103,0.4,0.34
	c0.619,0,1.465,0,2.312,0c31.76,0,63.52,0,95.28,0c0.312,0,0.623,0.006,0.935-0.001c2.056-0.045,2.089-0.096,2.225-2.068
	c0.064-0.927,0.183-1.853,0.337-2.769c0.67-3.985,1.545-7.946,2.001-11.955c0.633-5.557,0.963-11.147,1.403-16.726
	C479.429,510.956,479.378,510.196,479.378,509.334z"/>
<rect x="39.029" y="90.898" fill="#7A2426" width="73.333" height="43.398"/>
</svg>
