<?xml version="1.0" encoding="utf-8"?>
<!-- Generator: Adobe Illustrator 16.0.0, SVG Export Plug-In . SVG Version: 6.00 Build 0)  -->
<!DOCTYPE svg PUBLIC "-//W3C//DTD SVG 1.1//EN" "http://www.w3.org/Graphics/SVG/1.1/DTD/svg11.dtd" [
	<!ENTITY ns_flows "http://ns.adobe.com/Flows/1.0/">
	<!ENTITY ns_extend "http://ns.adobe.com/Extensibility/1.0/">
	<!ENTITY ns_ai "http://ns.adobe.com/AdobeIllustrator/10.0/">
	<!ENTITY ns_graphs "http://ns.adobe.com/Graphs/1.0/">
	<!ENTITY ns_vars "http://ns.adobe.com/Variables/1.0/">
	<!ENTITY ns_imrep "http://ns.adobe.com/ImageReplacement/1.0/">
	<!ENTITY ns_sfw "http://ns.adobe.com/SaveForWeb/1.0/">
	<!ENTITY ns_custom "http://ns.adobe.com/GenericCustomNamespace/1.0/">
	<!ENTITY ns_adobe_xpath "http://ns.adobe.com/XPath/1.0/">
]>
<svg version="1.1" id="Layer_1" xmlns:x="&ns_extend;" xmlns:i="&ns_ai;" xmlns:graph="&ns_graphs;"
	 xmlns="http://www.w3.org/2000/svg" xmlns:xlink="http://www.w3.org/1999/xlink" xmlns:a="http://ns.adobe.com/AdobeSVGViewerExtensions/3.0/"
	 x="0px" y="0px" width="850.391px" height="850.39px" viewBox="0 0 850.391 850.39" enable-background="new 0 0 850.391 850.39"
	 xml:space="preserve">
<metadata><?xpacket begin="﻿" id="W5M0MpCehiHzreSzNTczkc9d"?>
<x:xmpmeta xmlns:x="adobe:ns:meta/" x:xmptk="Adobe XMP Core 5.3-c011 66.145661, 2012/02/06-14:56:27        ">
   <rdf:RDF xmlns:rdf="http://www.w3.org/1999/02/22-rdf-syntax-ns#">
      <rdf:Description rdf:about=""
            xmlns:xmp="http://ns.adobe.com/xap/1.0/"
            xmlns:xmpGImg="http://ns.adobe.com/xap/1.0/g/img/">
         <xmp:CreatorTool>Adobe Illustrator CS6 (Macintosh)</xmp:CreatorTool>
         <xmp:CreateDate>2019-09-30T22:09:50+08:00</xmp:CreateDate>
         <xmp:MetadataDate>2019-09-30T22:09:50+08:00</xmp:MetadataDate>
         <xmp:ModifyDate>2019-09-30T22:09:50+08:00</xmp:ModifyDate>
         <xmp:Thumbnails>
            <rdf:Alt>
               <rdf:li rdf:parseType="Resource">
                  <xmpGImg:width>184</xmpGImg:width>
                  <xmpGImg:height>256</xmpGImg:height>
                  <xmpGImg:format>JPEG</xmpGImg:format>
                  <xmpGImg:image>/9j/4AAQSkZJRgABAgEASABIAAD/7QAsUGhvdG9zaG9wIDMuMAA4QklNA+0AAAAAABAASAAAAAEA&#xA;AQBIAAAAAQAB/+4ADkFkb2JlAGTAAAAAAf/bAIQABgQEBAUEBgUFBgkGBQYJCwgGBggLDAoKCwoK&#xA;DBAMDAwMDAwQDA4PEA8ODBMTFBQTExwbGxscHx8fHx8fHx8fHwEHBwcNDA0YEBAYGhURFRofHx8f&#xA;Hx8fHx8fHx8fHx8fHx8fHx8fHx8fHx8fHx8fHx8fHx8fHx8fHx8fHx8fHx8f/8AAEQgBAAC4AwER&#xA;AAIRAQMRAf/EAaIAAAAHAQEBAQEAAAAAAAAAAAQFAwIGAQAHCAkKCwEAAgIDAQEBAQEAAAAAAAAA&#xA;AQACAwQFBgcICQoLEAACAQMDAgQCBgcDBAIGAnMBAgMRBAAFIRIxQVEGE2EicYEUMpGhBxWxQiPB&#xA;UtHhMxZi8CRygvElQzRTkqKyY3PCNUQnk6OzNhdUZHTD0uIIJoMJChgZhJRFRqS0VtNVKBry4/PE&#xA;1OT0ZXWFlaW1xdXl9WZ2hpamtsbW5vY3R1dnd4eXp7fH1+f3OEhYaHiImKi4yNjo+Ck5SVlpeYmZ&#xA;qbnJ2en5KjpKWmp6ipqqusra6voRAAICAQIDBQUEBQYECAMDbQEAAhEDBCESMUEFURNhIgZxgZEy&#xA;obHwFMHR4SNCFVJicvEzJDRDghaSUyWiY7LCB3PSNeJEgxdUkwgJChgZJjZFGidkdFU38qOzwygp&#xA;0+PzhJSktMTU5PRldYWVpbXF1eX1RlZmdoaWprbG1ub2R1dnd4eXp7fH1+f3OEhYaHiImKi4yNjo&#xA;+DlJWWl5iZmpucnZ6fkqOkpaanqKmqq6ytrq+v/aAAwDAQACEQMRAD8A5RmC9g7FXYq+oP8AnF7/&#xA;AJQDUP8Atqzf9Q1vmTh5Oh7U/vB/V/SXsGWutdirsVdirsVdirsVdirsVdirsVdirsVdirsVdirs&#xA;VdirsVfn/mC9g7FXYq+oP+cXv+UA1D/tqzf9Q1vmTh5Oh7U/vB/V/SXsGWutdirsVdirsVdirsVd&#xA;irsVdirsVdirsVdirsVdiq2KaKVOcTrIm45KQwqNjuMVXYq7FXYq7FXYq7FXYq7FXYq7FXYq7FXY&#xA;q7FXYq7FXYq7FUp8y+bfLPljT21DzBqVvploK0kuHCliN+Ma/adv8lQTir5584/85r6VbXb23lLQ&#xA;21CFDT9IX0hgRqfyQqGfifFmU/5OKvNNd/5y+/N/UQy2Utjo6HobS2DvT3a5NwPuAxV575g/Nb8y&#xA;fMMckWseZdQureWvqWxndIGr4wxlY/8AhcVegf8AOLH5m3flf8wLbQLm4I0HzDILWWFiSiXbClvK&#xA;o/ZZnpG3iDv0GKvunFXYq7FXYq7FXYq7FXYq7FXYq7FXYq7FXYq7FXYq7FXhn58/85KWHkZpPL3l&#xA;xY9Q81Ff37v8VvZBht6gB+OWm4Tt1bwKr418zebfMvmjUn1LzDqU+pXr1/eTuWCgmvGNNkjX/JQA&#xA;YqlGKuxV2Kro5JIpFkjYpIhDI6khgwNQQR0IxV+if5H/AJlW/n/yDY6o0inV7ZRa6zCKBluYxQvx&#xA;HRZR8a/OnY4qz/FXYq7FXYq7FXYq7FXYq7FXYq7FXYq7FXYq7FXjX/OSP52DyD5eGlaPMB5s1ZD9&#xA;VIoxtYK8WuWU13NCsYPep/ZIxV8KTzzXE0k88jSzysXllclnZ2NWZmO5JO5JxVTxV2KuxV2KuxV6&#xA;P+Q/5p3H5eeebe9lkP6C1Ara61DuR6Jb4ZgB+3Cx5D2qO+Kv0KhminhjmhdZIZVDxyKQVZWFQwI6&#xA;gjFV+KuxV2KuxV2KuxV2KuxV2KuxV2KuxV2KrJ54YIJJ5nEcMSl5ZGNFVVFWJPgBir80/wAyfN9z&#xA;5v8APOs+YJ5WlS9uZDa8q/DbKeMCAHoFjCimKsaxV2KuxV2KuxV2KuxV9w/84jef38xfl22g3bl9&#xA;Q8sutsGY1LWkvJrc/wCw4tGPZRir3PFXYq7FXYq7FXYq7FXYq7FXYq7FXYq7FVO6toLq2ltrhPUg&#xA;nRopUNQGRxxYbeIOKvzX/M7yXL5K8+az5adi8dhORbSt1e3kAkgY+5jda++KsXxV2KuxV2KuxV2K&#xA;uxV71/zhnqN1b/mndWcZY297pkwnQbrWKSN0dvluAffFX21irsVdirsVdirsVdirsVdirsVdirsV&#xA;dirTukaNJIwREBZ3Y0AA3JJOKvzl/Onz6nnr8xtV16BeNgzi208UoTbQDhG7f5T05nwrTFWDYq7F&#xA;XYq7FXYq7FXYq+mf+cJPLLza/wCYPM0iH0rO2j0+3c9C9w4lkp7qsK1/1sVfXeKuxV2KuxV2KuxV&#xA;2KuxV2KuxV2KuxV2KvJ/+cnvOj+WPyl1FbeX07/WmXS7Yg0YLOCZz4/3COK9iRir4DxV2KuxV2Ku&#xA;xV2KuxVH6DoWq69rNno2k27XWo30qw20CdWZvE9AANyTsBucVfoz+VvkDT/IXknT/LtoFaWFfUv7&#xA;hRT1rqQAyyHv1+Fa9FAHbFWWYq7FXYq7FXYq7FXYq7FXYq7FXYq7FXYq+NP+c0POH6Q87ab5Yhes&#xA;Gh23rXKj/lpvKPQ/6sKxkf6xxV87Yq7FXYq7FXYq7FXYqmnlfzBeeXfMmma9Zf71aZcxXUQ6BjE4&#xA;bifZgKH2xV+m2lalaappdnqdm/qWd9BHc2z/AM0cyB0P0q2KorFXYq7FXYq7FXYq7FXYq7FXYq7F&#xA;XYqtkkjijaSRgkaAs7HYAAVJOKvzN8/+Z5PNPnbW/MLkkaleSzQhuqwlqQr/ALGMKuKsfxV2KuxV&#xA;2KuxV2KuxV2Kvvf/AJxX81fp78n9NhkfndaLJLpk9etIiJIfoEMqL9GKvXcVdirsVdirsVdirsVd&#xA;irsVdirsVdirEPzf1d9I/K7zVqEYPqxaZcrEV6h5YzGjf7FnBxV+bWKuxV2KuxV2KuxV2KuxV2Kv&#xA;qn/nB/XPi806E7dRbX0C/LnFKf8Ak3ir6rxV2KuxV2KuxV2KuxV2KuxV2KuxV2KsJ/O6za7/ACi8&#xA;3xLWq6XczbUG0CGU9f8AUxV+cOKuxV2KuxV2KuxV2KuxV2Kvdv8AnDa+e3/Nqa3DkJeaXcRsnYlJ&#xA;IpBX5cDvir7exV2KuxV2KuxV2KuxV2KuxV2KuxV2KsX/ADUjeX8sPN8UY5SPomoqi+JNpIAMVfmn&#xA;irsVdirsVdirsVdirsVdir27/nD+2Mv5xRyVp9X0+6kPXevCP/jfFX3NirsVdirsVdirsVdirsVd&#xA;irsVdirsVY/+Yf8AygHmb/tlX3/UM+KvzLxV2KuxV2KuxV2KuxV2KuxV9C/84UWpf8yNYuqVWHR5&#xA;I+n7UlzARv22jOKvs/FXYq7FXYq7FXYq7FXYq7FXYq7FXYqx/wDMP/lAPM3/AGyr7/qGfFX5l4q7&#xA;FXYq7FXYq7FXYq7FXYq+n/8AnB20Lat5tvKbQ29nDyrsPVeZqU9/SxV9a4q7FXYq7FXYq7FXYq7F&#xA;XYq7FXYq7FWP/mH/AMoB5m/7ZV9/1DPir8y8VdirsVdirsVdirsVdirsVfW3/ODtoF0jzbd0FZri&#xA;zir3/dJK3/M3FX09irsVdirsVdirsVdirsVdirsVdirsVYx+aUzw/ll5umT7cWi6i613FVtJCMVf&#xA;mlirsVdirsVdirsVdirsVdir7N/5wmgZfy71u4oOMmrtGD3qltCT/wATxV9D4q7FXYq7FXYq7FXY&#xA;q7FXYq7FXYq7FWF/nWSPyj830/6tV1/yaOKvzfxV2KuxV2KuxV2KuxV2KuxV9vf84aqo/KS4IABb&#xA;VrksR3PpQip+gYq92xV2KuxV2KuxV2KuxV2KuxV2KuxV2KsC/PlpV/J3zaYq8v0fIDTrxNA3/C1r&#xA;ir86MVdirsVdirsVdirsVdirsVfdP/OIKqPybgIABa/uyxHc8lFT9AxV7XirsVdirsVdirsVdirs&#xA;VdirsVdirsVYV+df/ko/N/8A2yrr/k0cVfnBirsVdirsVdirsVdirsVdir77/wCcV4Ej/Izy86kk&#xA;zPeu1fEX0ybfQmKvWcVdirsVdirsVdirsVdirsVdirsVdirCvzr/APJR+b/+2Vdf8mjir84MVdir&#xA;sVdirsVdirsVdirsVfoP/wA40QpF+R/ldE6GK4c18XvJnP4tir03FXYq7FXYq7FXYq7FXYq7FXYq&#xA;7FXYqwr86/8AyUfm/wD7ZV1/yaOKvzgxV2KuxV2KuxV2KuxV2KuxV+h3/OO0DQ/kr5VRiCTau+3h&#xA;JPI4/BsVejYq7FXYq7FXYq7FXYq7FXYq7FXYq7FWG/nPFJL+UvnBUFWGkXjkbDZIWZjv7DFX5u4q&#xA;7FXYq7FXYq7FXYq7FXYq/Sf8otPGn/lb5StQOJXSbNpBt9uSBXfp/lMcVZbirsVdirsVdirsVdir&#xA;sVdirsVdirsVY1+ZtrLd/lv5rtYRWa40bUIox4s9rIo6V7nFX5oYq7FXYq7FXYq7FXYq7FXYq/UP&#xA;y1aLZ+XNKs1oFtrO3hAAoKRxKuw7dMVTHFXYq7FXYq7FXYq7FXYq7FXYq7FXYqtmijmieKVeUcil&#xA;HU9CrChGKvzF84eXLry15p1XQLoETaZdS2xY7cljYhHHTZ1ow9jiqT4q7FXYq7FXYq7FXYqr2UCz&#xA;3kEDEhZZERiOoDMBir9TcVdirsVdirsVdirsVdirsVdirsVdirsVdir5C/5zQ8gLZa3pnne0QLDq&#xA;gFhqVKD/AEmFS0LnxLwqV/2GKvEfK/k7SNZsHur7zNY6JIshjS2u4b6V3UKD6gNtBOnGpI3au3TB&#xA;bMY5HkE4/wCVZeV/+p/0n/pF1b/sjxsJ8KXc7/lWXlf/AKn/AEn/AKRdW/7I8bC+FLud/wAqy8r/&#xA;APU/6T/0i6t/2R42F8KXch9Q/Lzy3a2FzdR+eNLupIInkS2jttTV5WRSRGpktUQMxFByYDxONhBx&#xA;yHRg2Fg7FUTpjqmpWjsaKs0ZY+ADDFQ/UiGaKeGOaJg8Uqh43HQqwqCPoxSRS/FDsVdirsVdirsV&#xA;dirsVdirsVdirsVdiryH/nKzSDqH5K6tKq8pNOmtbtR32mWJj9CSscVfH2meb/Jdpp9vbTeXL2ea&#xA;JFWWZNYlhV3p8TLGkFEBbenbxORMQW6OonEUCfmf1on/AB15F/6le/8A+45P/wBUMHAGX5rJ3n5n&#xA;9bv8deRf+pXv/wDuOT/9UMeAL+ayd5+Z/W7/AB15F/6le/8A+45P/wBUMeAL+ayd5+Z/Wgdc82+V&#xA;L3Sp7XT9Bu7K7lCiO5l1Wa5RaMC1YWiQNVQR198IiES1EyKJPzP62H5JodirMfyf8rWPmn8zPL+g&#xA;37lLK8uf9IKmhZIkaUoDvTn6fGvviUxNG36PWltFa2sNtFURQIscYJqeKAKKn5DFSbNquKHYq7FX&#xA;Yq7FXYq7FXYq7FXYq7FXYq7FXz7/AM5f/mT+g/J8Pk+zFb7zGC11J/vuzhdS1P8AKleij2De2Kvi&#xA;3FXYq7FXYq7FXYq7FWXflFqf6M/NHypek0SPVbRZD4JJMsbn/gWOKv0mxV2KuxV2KuxV2KuxV2Ku&#xA;xV2KuxV2KuxV2KvgD/nJvzFqGtfnHrcd037nSimn2cYNQkUShj/wUjs304q8qxV2KuxV2KuxV2Kp&#xA;ponlfzLrsvpaJpN5qclaFbSCScj5+mrU+nFX0D+RH/OMXnKPzZpvmbzjaLpemaXMt3BYyOrXM80R&#xA;DQ8kQsERXHJuZqaU40NcVfX+KuxV2KuxV2KuxV2KuxV2KuxV2KuxV2KuxV+c357Tif8AOHza4FAN&#xA;RmSh8YzwJ/4XFWCYq7FVyI7uqIpZ2ICqBUknoAMVfbv5Jf8AON/lTRvJdvN5y0W21PzFqNLi6jvI&#xA;1l+qqw+C3UNUBlG7n+YkdAMVegf8qU/KP/qUNK/6RYv6YqmVh+Wv5d6cQbHyvpNswAXnFY26sQBT&#xA;dgnI/TirIIIIIIlhgjWKFBRI0AVVHgANhiq/FXYq7FXYq7FXYq7FXYq7FXYq7FXYq7FXYq7FXzh/&#xA;zkF/zjJL5kvL3zh5PP8AucmpJqGkMQEuWAoZIWNAkpA3U7N12PVV8x335V/mbYBmu/KerxIn2pTY&#xA;3Bj6V+2EK/jiqQRaZqUt8LCK0mkvi3AWixs0xb+X0wOVfoxV9I/84zf84+64PMiebvOWlzWFpphV&#xA;9JsLxDHLLddVleJqOqQ9RyAq1PA4q+ucVdirsVdirsVdir//2Q==</xmpGImg:image>
               </rdf:li>
            </rdf:Alt>
         </xmp:Thumbnails>
      </rdf:Description>
      <rdf:Description rdf:about=""
            xmlns:xmpTPg="http://ns.adobe.com/xap/1.0/t/pg/"
            xmlns:stDim="http://ns.adobe.com/xap/1.0/sType/Dimensions#"
            xmlns:xmpG="http://ns.adobe.com/xap/1.0/g/">
         <xmpTPg:MaxPageSize rdf:parseType="Resource">
            <stDim:w>299.998915</stDim:w>
            <stDim:h>299.998743</stDim:h>
            <stDim:unit>Millimeters</stDim:unit>
         </xmpTPg:MaxPageSize>
         <xmpTPg:NPages>1</xmpTPg:NPages>
         <xmpTPg:HasVisibleTransparency>False</xmpTPg:HasVisibleTransparency>
         <xmpTPg:HasVisibleOverprint>False</xmpTPg:HasVisibleOverprint>
         <xmpTPg:PlateNames>
            <rdf:Seq>
               <rdf:li>Cyan</rdf:li>
               <rdf:li>Magenta</rdf:li>
               <rdf:li>Yellow</rdf:li>
               <rdf:li>Black</rdf:li>
            </rdf:Seq>
         </xmpTPg:PlateNames>
         <xmpTPg:SwatchGroups>
            <rdf:Seq>
               <rdf:li rdf:parseType="Resource">
                  <xmpG:groupName>Default Swatch Group</xmpG:groupName>
                  <xmpG:groupType>0</xmpG:groupType>
               </rdf:li>
            </rdf:Seq>
         </xmpTPg:SwatchGroups>
      </rdf:Description>
      <rdf:Description rdf:about=""
            xmlns:dc="http://purl.org/dc/elements/1.1/">
         <dc:format>image/svg+xml</dc:format>
      </rdf:Description>
      <rdf:Description rdf:about=""
            xmlns:xmpMM="http://ns.adobe.com/xap/1.0/mm/"
            xmlns:stRef="http://ns.adobe.com/xap/1.0/sType/ResourceRef#"
            xmlns:stEvt="http://ns.adobe.com/xap/1.0/sType/ResourceEvent#">
         <xmpMM:DerivedFrom rdf:parseType="Resource">
            <stRef:instanceID>xmp.iid:0A5A81E56D21681180839FCCDFDC130E</stRef:instanceID>
            <stRef:documentID>xmp.did:0A5A81E56D21681180839FCCDFDC130E</stRef:documentID>
            <stRef:originalDocumentID>xmp.did:F63F1AA85321681180839FCCDFDC130E</stRef:originalDocumentID>
         </xmpMM:DerivedFrom>
         <xmpMM:DocumentID>xmp.did:B14842987621681180839FCCDFDC130E</xmpMM:DocumentID>
         <xmpMM:InstanceID>xmp.iid:B14842987621681180839FCCDFDC130E</xmpMM:InstanceID>
         <xmpMM:OriginalDocumentID>xmp.did:F63F1AA85321681180839FCCDFDC130E</xmpMM:OriginalDocumentID>
         <xmpMM:History>
            <rdf:Seq>
               <rdf:li rdf:parseType="Resource">
                  <stEvt:action>saved</stEvt:action>
                  <stEvt:instanceID>xmp.iid:F63F1AA85321681180839FCCDFDC130E</stEvt:instanceID>
                  <stEvt:when>2019-09-30T18:39:11+08:00</stEvt:when>
                  <stEvt:softwareAgent>Adobe Illustrator CS6 (Macintosh)</stEvt:softwareAgent>
                  <stEvt:changed>/</stEvt:changed>
               </rdf:li>
               <rdf:li rdf:parseType="Resource">
                  <stEvt:action>saved</stEvt:action>
                  <stEvt:instanceID>xmp.iid:B14842987621681180839FCCDFDC130E</stEvt:instanceID>
                  <stEvt:when>2019-09-30T22:09:50+08:00</stEvt:when>
                  <stEvt:softwareAgent>Adobe Illustrator CS6 (Macintosh)</stEvt:softwareAgent>
                  <stEvt:changed>/</stEvt:changed>
               </rdf:li>
            </rdf:Seq>
         </xmpMM:History>
      </rdf:Description>
   </rdf:RDF>
</x:xmpmeta>
                                                                                                    
                                                                                                    
                                                                                                    
                                                                                                    
                                                                                                    
                                                                                                    
                                                                                                    
                                                                                                    
                                                                                                    
                                                                                                    
                                                                                                    
                                                                                                    
                                                                                                    
                                                                                                    
                                                                                                    
                                                                                                    
                                                                                                    
                                                                                                    
                                                                                                    
                                                                                                    
                           
<?xpacket end="w"?>
	</metadata>
<polyline fill="#FFFFFF" points="521.064,692.945 340.327,692.945 340.327,671.887 521.064,671.887 "/>
<polyline fill="#7A2426" points="521.064,687.357 340.327,687.357 340.327,677.476 521.064,677.476 "/>
<path d="M514.385,285.989c2.24,6.355,4.698,13.137,7.009,19.969c0.943,2.791,1.541,5.696,2.347,8.536
	c0.995,3.506,1.918,7.039,3.097,10.483c1.624,4.746,2.086,9.719,3.115,14.578c1.013,4.785,1.839,9.61,2.698,14.426
	c0.204,1.143,0.157,2.329,0.334,3.479c0.163,1.062,0.55,2.092,0.698,3.155c0.17,1.209,0.195,2.439,0.266,3.662
	c0.081,1.388,0.061,2.786,0.229,4.163c0.386,3.139-0.033,6.298,0.798,9.464c0.678,2.581,0.559,5.396-0.568,8.027
	c-0.315,0.738-0.287,1.651-0.297,2.486c-0.037,3.176,0.438,6.378-0.595,9.5c-0.165,0.499-0.135,1.081-0.108,1.62
	c0.228,4.508-0.784,8.921-1.014,13.396c-0.179,3.49-0.497,6.972-0.752,10.458c-0.396,5.42-0.799,10.839-1.183,16.259
	c-0.187,2.636-0.322,5.274-0.507,7.909c-0.277,3.948-0.576,7.895-0.868,11.841c-0.161,2.169-0.37,4.335-0.482,6.507
	c-0.188,3.645-0.236,7.298-0.485,10.938c-0.371,5.416-0.889,10.822-1.289,16.237c-0.091,1.231,0.027,2.479,0.075,3.719
	c0.061,1.549,0.268,3.103,0.2,4.645c-0.178,4.029-0.531,8.051-0.701,12.081c-0.269,6.37-0.039,12.79-0.754,19.106
	c-1.107,9.778-0.892,19.558-1.043,29.347c-0.06,3.878-0.461,7.749-0.6,11.628c-0.05,1.381,0.414,2.789,0.309,4.158
	c-0.602,7.891-0.259,15.829-1.63,23.692c-0.796,4.57-0.786,9.281-1.143,13.929c-0.06,0.772-0.133,1.544-0.206,2.315
	c-0.184,1.929-0.404,3.855-0.549,5.788c-0.354,4.722-0.684,9.445-1.003,14.171c-0.157,2.323-0.117,4.672-0.431,6.973
	c-0.994,7.283-0.396,14.601-0.668,21.896c-0.08,2.166-0.113,4.303,0.038,6.463c0.524,7.479-1.738,14.439-4.073,21.381
	c-0.17,0.507-0.457,1.053-0.397,1.545c0.788,6.552,1.604,13.102,2.467,19.644c0.306,2.31,0.727,4.606,1.154,6.897
	c0.364,1.95-0.285,3.715-0.959,5.447c-1.445,3.716-3.158,7.291-6.478,9.765c-1.68,1.251-3.426,2.378-5.535,2.85
	c-1.13,0.253-2.188,0.816-3.31,1.115c-2.771,0.736-5.551,1.438-8.342,2.086c-5.518,1.281-11.044,2.53-16.573,3.762
	c-0.979,0.219-2.01,0.475-2.987,0.387c-3.691-0.335-7.242,0.683-10.863,0.977c-3.095,0.252-6.203,0.438-9.269,0.901
	c-3.204,0.484-6.33-0.104-9.494-0.216c-3.726-0.132-7.465,0.179-11.197,0.154c-3.088-0.02-6.181-0.165-9.258-0.413
	c-1.644-0.133-2.528,0.573-3.39,1.854c-7.384,10.986-14.846,21.92-22.223,32.911c-0.891,1.328-1.864,2.091-3.486,2.318
	c-3.856,0.542-7.537,1.732-11.226,3.016c-3.639,1.266-7.578,1.173-11.302,0.236c-5.843-1.468-11.774-2.075-17.746-2.507
	c-2.563-0.185-5.124-0.415-7.688-0.552c-1.08-0.058-1.91-0.476-2.714-1.157c-2.495-2.115-5.001-4.219-7.562-6.253
	c-1.209-0.96-2.577-1.72-3.828-2.632c-0.68-0.495-1.288-1.098-1.889-1.691c-0.604-0.597-1.064-1.392-1.756-1.839
	c-1.376-0.89-1.603-2.095-1.568-3.597c0.027-1.129-0.195-2.302-0.519-3.393c-0.486-1.643-0.42-3.183,0.168-4.785
	c0.338-0.921,0.564-1.938,0.581-2.915c0.115-7.009,0.191-14.019,0.208-21.028c0.003-1.386,0.271-2.595,1.083-3.716
	c0.5-0.691,0.891-1.462,1.351-2.185c1.209-1.896,2.086-3.8,2.417-6.162c0.411-2.934,1.032-5.975,2.921-8.517
	c1.008-1.356,1.825-2.858,2.695-4.314c0.873-1.46,1.685-2.956,2.562-4.413c0.702-1.165,1.12-2.31,0.817-3.747
	c-0.721-3.42-1.365-6.861-1.913-10.313c-0.633-3.984-1.179-7.984-1.666-11.989c-0.305-2.507-1.067-4.804-2.232-7.052
	c-1.569-3.026-2.918-6.168-4.304-9.286c-1.482-3.336-2.976-6.671-4.317-10.064c-1.082-2.737-2.003-5.544-2.876-8.357
	c-0.411-1.322-0.563-2.728-0.791-4.102c-0.865-5.208-1.72-10.417-2.558-15.629c-0.123-0.763-0.174-1.545-0.178-2.318
	c-0.019-3.57,0.066-7.144-0.029-10.712c-0.1-3.728-0.426-7.449-0.532-11.177c-0.066-2.313,0.09-4.633,0.151-6.95
	c0.004-0.154,0.071-0.308,0.068-0.461c-0.059-3.949-0.119-7.899-0.191-11.849c-0.014-0.777-0.109-1.553-0.109-2.33
	c-0.007-17.198,0.027-34.396-0.035-51.595c-0.012-3.175-0.561-6.347-0.582-9.522c-0.025-3.8,0.244-7.603,0.402-11.403
	c0.032-0.773,0.187-1.543,0.202-2.316c0.224-11.357,0.434-22.715,0.649-34.073c0.006-0.311-0.038-0.639,0.043-0.93
	c0.979-3.487,0.626-7.069,0.684-10.605c0.112-6.931-0.008-13.864,0.048-20.796c0.034-4.121,0.332-8.24,0.314-12.36
	c-0.032-7.236-0.204-14.471-0.336-21.706c-0.096-5.209-0.221-10.417-0.338-15.625c-0.138-6.14-0.16-12.285-0.459-18.417
	c-0.262-5.342-0.97-10.661-1.235-16.003c-0.196-3.948-0.291-7.903,0.607-11.848c1.152-5.063,1.773-10.25,3.01-15.289
	c1.33-5.417,3.09-10.729,4.695-16.078c0.96-3.199,1.939-6.393,2.987-9.563c1.412-4.271,2.917-8.511,4.35-12.776
	c1.406-4.189,2.793-8.384,4.146-12.59c1.642-5.106,3.654-10.056,6.029-14.866c0.721-1.459,1.419-2.954,1.902-4.502
	c0.709-2.272,1.878-4.272,3.29-6.131c1.942-2.558,2.009-5.461,1.574-8.392c-0.247-1.662-0.877-3.283-1.46-4.876
	c-1.415-3.863-2.9-7.692-5.099-11.212c-1.878-3.007-2.507-6.156-0.536-9.435c1.633-2.716,2.44-5.63,2.52-8.848
	c0.061-2.483,1.764-4.455,3.116-6.397c3.014-4.33,6.258-8.5,9.386-12.751c1.287-1.749,2.46-3.584,3.796-5.294
	c0.608-0.779,1.537-1.3,2.23-2.024c1.505-1.572,2.894-3.258,4.436-4.791c3.078-3.061,6.209-6.069,9.361-9.055
	c0.782-0.741,1.758-1.273,2.59-1.966c4.494-3.739,9.452-6.714,14.779-9.093c0.426-0.191,0.934-0.294,1.262-0.593
	c2.597-2.365,6.003-3.206,8.997-4.817c2.988-1.607,6.038-3.108,9.11-4.55c4.583-2.151,9.24-4.046,14.439-4.153
	c1.61-0.033,3.221-0.447,4.816-0.76c6.469-1.27,12.928-2.595,19.4-3.846c4.112-0.795,8.26-1.412,12.357-2.269
	c2.955-0.617,5.857-1.39,8.675-2.614c3.707-1.611,6.976-0.238,9.783,2.404c2.057,1.936,3.725,4.133,4.789,6.794
	c1.785,4.458,3.437,8.991,5.555,13.291c3.426,6.958,6.562,14.089,11.205,20.396c2.207,2.998,4.273,6.106,6.264,9.253
	c1.941,3.069,3.61,6.311,5.566,9.37c3.396,5.311,5.84,11.101,8.57,16.741c1.31,2.707,2.15,5.645,3.137,8.501
	c0.93,2.692,1.967,5.371,2.593,8.138c0.524,2.322,0.604,4.759,0.727,7.153c0.08,1.544-0.126,3.104-0.184,4.657
	c-0.106,2.875-0.434,5.665-1.48,8.419c-0.876,2.305-1.175,4.826-1.752,7.247c-1.034,4.341-2.412,8.53-5.354,12.028
	c-0.292,0.347-0.416,0.831-0.646,1.236c-1.908,3.377-3.685,6.841-5.79,10.092C517.931,282.47,516.184,283.988,514.385,285.989z
	 M449.836,687.174c-1.2,0-2.114,0-3.028,0c-31.933,0-63.866,0-95.798,0.001c-0.701,0-1.421-0.086-2.096,0.05
	c-0.467,0.093-1.117,0.405-1.26,0.781c-0.455,1.196-0.711,2.47-1.08,3.846c34.308,0,68.298,0,102.489,0
	C449.317,690.316,449.551,688.899,449.836,687.174z M348.959,683.929c33.971,0,67.62,0,101.467,0c0.274-1.516,0.531-2.936,0.851-4.7
	c-1.096,0-1.926,0-2.756,0c-31.75,0-63.5,0-95.25,0.001c-0.545,0-1.118-0.092-1.626,0.047c-0.472,0.13-1.085,0.414-1.266,0.803
	C349.833,681.25,349.467,682.505,348.959,683.929z M451.769,676.5c0.288-1.598,0.544-3.018,0.831-4.613c-33.143,0-66.028,0-98.913,0
	c-0.69,1.546-1.638,2.873-1.607,4.613C385.292,676.5,418.356,676.5,451.769,676.5z"/>
<rect x="39.029" y="90.898" fill="#7A2426" width="73.333" height="43.398"/>
</svg>
