<?xml version="1.0" encoding="utf-8"?>
<!-- Generator: Adobe Illustrator 16.0.0, SVG Export Plug-In . SVG Version: 6.00 Build 0)  -->
<!DOCTYPE svg PUBLIC "-//W3C//DTD SVG 1.1//EN" "http://www.w3.org/Graphics/SVG/1.1/DTD/svg11.dtd" [
	<!ENTITY ns_flows "http://ns.adobe.com/Flows/1.0/">
	<!ENTITY ns_extend "http://ns.adobe.com/Extensibility/1.0/">
	<!ENTITY ns_ai "http://ns.adobe.com/AdobeIllustrator/10.0/">
	<!ENTITY ns_graphs "http://ns.adobe.com/Graphs/1.0/">
	<!ENTITY ns_vars "http://ns.adobe.com/Variables/1.0/">
	<!ENTITY ns_imrep "http://ns.adobe.com/ImageReplacement/1.0/">
	<!ENTITY ns_sfw "http://ns.adobe.com/SaveForWeb/1.0/">
	<!ENTITY ns_custom "http://ns.adobe.com/GenericCustomNamespace/1.0/">
	<!ENTITY ns_adobe_xpath "http://ns.adobe.com/XPath/1.0/">
]>
<svg version="1.1" id="Layer_1" xmlns:x="&ns_extend;" xmlns:i="&ns_ai;" xmlns:graph="&ns_graphs;"
	 xmlns="http://www.w3.org/2000/svg" xmlns:xlink="http://www.w3.org/1999/xlink" xmlns:a="http://ns.adobe.com/AdobeSVGViewerExtensions/3.0/"
	 x="0px" y="0px" width="850.391px" height="850.39px" viewBox="0 0 850.391 850.39" enable-background="new 0 0 850.391 850.39"
	 xml:space="preserve">
<metadata><?xpacket begin="﻿" id="W5M0MpCehiHzreSzNTczkc9d"?>
<x:xmpmeta xmlns:x="adobe:ns:meta/" x:xmptk="Adobe XMP Core 5.3-c011 66.145661, 2012/02/06-14:56:27        ">
   <rdf:RDF xmlns:rdf="http://www.w3.org/1999/02/22-rdf-syntax-ns#">
      <rdf:Description rdf:about=""
            xmlns:xmp="http://ns.adobe.com/xap/1.0/"
            xmlns:xmpGImg="http://ns.adobe.com/xap/1.0/g/img/">
         <xmp:CreatorTool>Adobe Illustrator CS6 (Macintosh)</xmp:CreatorTool>
         <xmp:CreateDate>2019-09-30T19:01:57+08:00</xmp:CreateDate>
         <xmp:MetadataDate>2019-09-30T19:01:57+08:00</xmp:MetadataDate>
         <xmp:ModifyDate>2019-09-30T19:01:57+08:00</xmp:ModifyDate>
         <xmp:Thumbnails>
            <rdf:Alt>
               <rdf:li rdf:parseType="Resource">
                  <xmpGImg:width>216</xmpGImg:width>
                  <xmpGImg:height>256</xmpGImg:height>
                  <xmpGImg:format>JPEG</xmpGImg:format>
                  <xmpGImg:image>/9j/4AAQSkZJRgABAgEASABIAAD/7QAsUGhvdG9zaG9wIDMuMAA4QklNA+0AAAAAABAASAAAAAEA&#xA;AQBIAAAAAQAB/+4ADkFkb2JlAGTAAAAAAf/bAIQABgQEBAUEBgUFBgkGBQYJCwgGBggLDAoKCwoK&#xA;DBAMDAwMDAwQDA4PEA8ODBMTFBQTExwbGxscHx8fHx8fHx8fHwEHBwcNDA0YEBAYGhURFRofHx8f&#xA;Hx8fHx8fHx8fHx8fHx8fHx8fHx8fHx8fHx8fHx8fHx8fHx8fHx8fHx8fHx8f/8AAEQgBAADYAwER&#xA;AAIRAQMRAf/EAaIAAAAHAQEBAQEAAAAAAAAAAAQFAwIGAQAHCAkKCwEAAgIDAQEBAQEAAAAAAAAA&#xA;AQACAwQFBgcICQoLEAACAQMDAgQCBgcDBAIGAnMBAgMRBAAFIRIxQVEGE2EicYEUMpGhBxWxQiPB&#xA;UtHhMxZi8CRygvElQzRTkqKyY3PCNUQnk6OzNhdUZHTD0uIIJoMJChgZhJRFRqS0VtNVKBry4/PE&#xA;1OT0ZXWFlaW1xdXl9WZ2hpamtsbW5vY3R1dnd4eXp7fH1+f3OEhYaHiImKi4yNjo+Ck5SVlpeYmZ&#xA;qbnJ2en5KjpKWmp6ipqqusra6voRAAICAQIDBQUEBQYECAMDbQEAAhEDBCESMUEFURNhIgZxgZEy&#xA;obHwFMHR4SNCFVJicvEzJDRDghaSUyWiY7LCB3PSNeJEgxdUkwgJChgZJjZFGidkdFU38qOzwygp&#xA;0+PzhJSktMTU5PRldYWVpbXF1eX1RlZmdoaWprbG1ub2R1dnd4eXp7fH1+f3OEhYaHiImKi4yNjo&#xA;+DlJWWl5iZmpucnZ6fkqOkpaanqKmqq6ytrq+v/aAAwDAQACEQMRAD8A615o/NS5MstpoiiJEYob&#xA;16MzU2qinYD3P4YoYVc+YdeuSTPqNzID+yZX4/8AA1piqXkliSxqT1JxVrFWwSDUdcVRlvres21P&#xA;q9/cQ06BJXUfgcVZl5X/ADR1CCWK11n/AEm2YhfrWwlSu1W7MB9/zxV6til2KuxV2KuxV2KuxV2K&#xA;uxV2KuxV2KuxV2KuxV2KuxV2KuxV2KvC/Nnk3UfL85Zx62nyMRBdL08Qrj9lqff2xQx7FXYq7FXY&#xA;q7FU+8q+UNR8wXJEI9KzjYC4um6L34qP2mp2+/FXuyIERUXooAHyGKW8VdirsVdirsVdirsVdiqg&#xA;b+xBINzECNiC6/1xVdFdWsrcYpkkYCpVWDGn0HFVXFXYq7FXYq7FXYq7FXYq7FUNqem2mpWM1ldp&#xA;zgmXiw7jwI9wdxirwjzH5fvNC1N7K5FV+1BMOkkZ6MP4jFCVYq7FXYqmGhaJe61qUdjaL8b7ySH7&#xA;KIPtO3sMVe8aLpFnpGmw2FotIohux+0zH7TN7k4pRuKuxV2KuxV2KvNvzI/O/RfJmojSo7N9U1RV&#xA;V54FkEKRBxVQ8hWQ8iprQL0xQSxCP/nKi1K1l8tyK3gt2GH3mFf1YaRxIqL/AJyk0E8fV0O6WtOf&#xA;GWNqeNK8a/hjS8TGvzM/P6LzF5e/RPl+G705p5B9dnkKKzQgH92pjZj8TU5e23fFSXjGLFXsb+90&#xA;+7ivLGd7a7gYPDPExV1YdwRir6f8vf8AOQfkSXR7A6zfvBqjQxi/C28zIJuIDkcEYU5b7YGds38s&#xA;eefKfmhZDoWpR3rQ7yxAPHIoO3IxyBHp70pim09xV2KuxV2KuxV2KuxV2KpR5n8tWWv6ebW4+CVK&#xA;tb3AALRt/EHuO+KvHtY8l+Y9LmZJrN5olPw3ECmSMjxqBt/sqYoSR45ENHUqT0BBH68VTTQ/K+ta&#xA;3MEsoCY/27h6rEo92/gN8Vey+VvK1l5fsPQh/eXEnxXFyRRnPh7KOwxSnWKuxV2KuxV2KuxV8Ufm&#xA;PfSX3n7zDcu3OuoXCI24/dxSGOPr/kKMLAscxQ7FXYq7FXYq7FWY/lBq02mfmRoUsblBcXK2kgHR&#xA;luf3VCO+7g/PFIfZOBm7FXYq7FXYq7FXYq7FXYq7FXYq7FXYq7FXYq7FXYq7FXYq+GvNkiSeatZk&#xA;Q1R765ZT7GZiMLWlWKuxV2KuxV2KuxVFaTemx1WyvR1tZ4phT/itw38MVfeCsGAZTVTuCOhGBsdi&#xA;rsVdirsVdirsVdirsVdirsVdirsVdirsVdirsVdirsVfCGsS+tq17KRQyXEr08OTk4WtCYq7FXYq&#xA;7FXYq7FXYq+4vJl/+kPKOiXpPJrmxtpGJ68miUtX6cDYE4xV2KuxV2KuxV2KuxV2KuxV2KuxV2Ku&#xA;xV2KuxV2KuxV2KvgeaVpZnlagaRixA6VY1wta3FXYq7FXYq7FXYq7FX19+Rt/wDXfyv0ZiavAstu&#xA;48PSmdVH/AccDMM8xS7FXYq7FXYq7FXYq7FXYq7FXYq7FXYq7FXYq7FXYqoX8hjsbiQNxKROwbpS&#xA;ik1xV8GYWt2KuxV2KuxV2KuxV2Kvov8A5xm822Emj3fleV+GoQTPd2yt0eB1QMF3+0jgkjwPzxLK&#xA;L2/AydirsVdirsVdirsVdirsVdirsVdirsVdirsVdirsVYV+avn3RfKnlu4W7b1b+/ikhsrJCA7l&#xA;lKlz/Ki13b6OuKCXx1hYOxV2KuxV2KuxV2KuxVG6LrOo6LqtrqunSmG9tHEkMg8R2I7qRsR3GKvs&#xA;ryD5107zj5cg1e0okp/d3ltWrQzqPiQ+3dT3BwMwWR4pdirsVdirsVdirsVdirsVdirsVdirsVdi&#xA;rsVYV+ZP5paJ5JsP3pF1rEy1tNNVqMe3OQivBB+PbvRQS+TfMfmPV/Merz6tq05nu5zueioo+yiL&#xA;+yq9hhYJZirsVdirsVdirsVdirsVdirNPyp/MK48l+ZEuXLPpN3xi1OBd6x12kUfzx1qPpHfFIL7&#xA;Ctbm3uraK6tpFmt50WSGVDVWRxVWB8CDgZqmKuxV2KuxV2KuxV2KuxV2KuxV2KuxV2KvI/zm/Odv&#xA;K7toOhcX11kDXFywDJbK4qvwnZpCNwDsBTrXFBL5ov7+91C8lvb6d7m7nYvNPKxZ2Y9yThYKGKux&#xA;V2KuxV2KuxV2KuxV2KuxV2KvYPyj/PKDytpZ0PX4Z7rTo2LWE8AV5Igxq0bK7JVKnkN6j37LIF7V&#xA;5d/Nz8vtfmjt7HV40u5KBLa5DQOWPRV9QKrH2UnAm2YYpdirsVdirsVdirsVdirsVdiq2SSOKNpJ&#xA;GCRoCzuxAUKBUkk9AMVYlN+bX5eJFeNFrlrPJZxPK0KSCsnpqW4xE0WQmm3EnFFvj/WNUu9W1W81&#xA;S7bldXszzzHtykYsQPYVoMLBCYq7FXYq7FXYq7FXYq7FXYq7FXYq7FXYq7pir6t/I38xrfzL5ch0&#xA;m8uWk8waZHxuBJ9uWFW4xyg/tUUqr967nrgZgvTcUuxV2KuxV2KuxV2KuxV2KvKv+ckNbn0/yFHZ&#xA;wSFH1O7SCUA0JhRWkcfLkqg4hEny1hYOxV2KuxV2KuxV2KuxV2KuxV2KuxV2KuxV2KuxV6P/AM4+&#xA;3Rh/NDTowafWYbmIjxpA0n/MvFIfWeBm7FXYq7FXYq7FXYq7FXYq+ff+cptQ5XXl/Tlb+7S4uJF/&#xA;1yiIf+EbCGMng+LF2KuxV2KuxV2KuxV2KuxV2KuxV2KuxV2KuxV2Ksu/KS5Nt+ZPl6QftXaxf8jQ&#xA;Y/8AjbFIfZmBm7FXYq7FXYq7FXYq7FXYq+Wf+ckr83H5iLb12srGGLj2BZnlP4SDCGEnleKHYq7F&#xA;XYq7FXYq7FXYq7FXYq7FXYq7FXYq7FXYqn/5f3kVl550C6mNIotQtjIxNAFMqgt9ANcUh9t4GbsV&#xA;dirsVdirsVdirsVdir5E/PpmP5ra2CSQotQoPYfVITt9JwsCwDFDsVdirsVdirsVdirsVdirsVdi&#xA;rsVdirsVdirsVbVmVgykqymoI2IIxV90+XdTGq6Bpupgg/XbWG4JHSssYY/rwNiYYq7FXYq7FXYq&#xA;7FXYq7FXyH+fP/k19c/6Nf8AqDhwsCwHFDsVdirsVdirsVdirsVdirsVdirsVdirsVdirsVdir1X&#xA;8svz11fyzFY6JqcUd3oET8PUoRcQRu1SVYGjqvIniwr2BGKQX1IrKyhlIZWFVYbgg4GbeKuxV2Ku&#xA;xV2Kpd5ikkj0W6eNijhRRlNCPiHcZr+1JGOnmQaP7WzEPUGAfpHUP+Wqb/kY39c4j81l/ny+Zc/g&#xA;Hc8i/NTybrN1q8/mC1VryKZEN2K8pEaNRHWh3ZeKjpnS9j9qR4BjyH1dCevxcPPhN2Hnn6K1T/lj&#xA;n/5Fv/TN94+P+cPm43Ce536K1T/ljn/5Fv8A0x8fH/OHzXhPc1+i9T/5Y5/+Rb/0x8fH/OHzXhPc&#xA;hstYuxV2KuxV2KuxV2KuxV2KuxV2KohNN1F0DpazMjCqssbEEexAys5oDYkfNPCV36K1T/ljn/5F&#xA;v/TB4+P+cPmnhPc79Fap/wAsc/8AyLf+mPj4/wCcPmvCe5OvLfkLXtauY/8AR3t7LnSe5lHDiBTl&#xA;xU7sadNswtZ2piwxO9y6ANmPDKXufQkd9fRoqLcyhUAVR6jdBt45xJ1eX+dL5l2PAO56lno7rHYq&#xA;7FXYq7FUs8zf8cK7/wBVf+JDNd2t/i0/x1Dbh+oPOs4J2DsVdirsVdir5k1C2+q39zbf74leP/gG&#xA;K/wz0vFPigJd4BdPIUaUMsQ7FXYq7FXYq7FXYq7FXYq7FX0j5ctvqvl/TbfvFawq3zCCv455xq58&#xA;WaZ75H73bQFRCY5js3Yq7FXYq9Yz051TsVdirsVdiqWeZv8AjhXf+qv/ABIZru1v8Wn+OobcP1B5&#xA;1nBOwQ1/qWn6dAJ764jtoSwQSSsFXkQSBU/LLMWGeQ1AEnyYykBzS7/GflP/AKu1r/yNX+uZH8na&#xA;j+ZL5MfFj3u/xn5T/wCrta/8jV/rj/J2o/mS+S+LHvd/jPyn/wBXa1/5Gr/XH+TtR/Ml8l8WPe8M&#xA;81y2s3mXU5rVxLby3MkiSKahubFiQfCpzudDGQwQEhREQ63IRxGkqzKYOxV2KuxV2KuxV2KuxV2K&#xA;tpxLAMaLUciPDEq+hl84+UlUKurWoUCgHqr0H0554ez9R/Ml8na+LHvb/wAZ+U/+rta/8jV/rj/J&#xA;2o/mS+S+LHvd/jPyn/1drX/kav8AXH+TtR/Ml8l8WPejNO1vSNSZ10+8iujEAZBE4biD0rT5ZTl0&#xA;2TH9cTG+9lGYPIo7KWT1jPTnVOxV2KuxV2KpX5n1SXS9Cu7+KNZZIFUqkleJq4XelPHARavOP+Vt&#xA;at/1b7T/AIF/+asjwR7lssN/NPzJrnnDQbbTY7O3j9G6W5JjqrHjHInVmpT95khEDkEHd5d/grzD&#xA;/vhf+Rif1yVsad/grzD/AL4X/kYn9cbWnf4K8w/74X/kYn9cbWkjZSrFT1BofoxQ7FXYq7FXYq7F&#xA;XYq7FXYq7FXYqnMHlHXZ4I54oVMcqq6HmoqrCo74ppf/AIK8w/74X/kYn9cbWnf4K8w/74X/AJGJ&#xA;/XG1pnP5U3WueTdQvrmS0hkF1EsYEh5gcW5bcDkSAeaRs9K/5W1q3/VvtP8AgX/5qyPBHuZWXreT&#xA;V2KuxV2KuxVj/wCYH/KH6l/qJ/ycXFXhWKHYq7FXYqoX1z9Vs57niX9FGfgOp4iuKvIcLB2KuxV2&#xA;KuxV2KuxV2KuxV2KuxV6f5UuTcaDasVKmNfS378DxBGBkE2xS7FXYq7FX0ril2KuxV2KuxVj/wCY&#xA;H/KH6l/qJ/ycXFXhWKEu1XX9N0xCbiSsuxECUMhBNOhI/HFFpV/ysDRv983H/Ap/zXjS27/lYGjf&#xA;75uP+BT/AJrxpbUrrz5pMttNGkM/N0ZV5KlKkUFfjO2NLbBcLF2KuxV2KuxV2KuxV2KuxV2KuxVm&#xA;Wiec9NstLt7WeKYyxKVYoqFftEilWXt7Y0kFG/8AKwNG/wB83H/Ap/zXgpNu/wCVgaN/vm4/4FP+&#xA;a8aW020bW7XVoZJrdJESNuB9QKCTSu3Etitphil9K4pdirsVdirsVQmraZbapp81hclhBOAHKGjb&#xA;ENsSD4Yqxf8A5VP5X/nuf+Ri/wDNGKvkfzAW/TuogsW43MqgnrRXIH4DC1oDFXYq7FXYq7FXYq7F&#xA;XYq7FXYq7FXYq7FXYq7FXYq7FUy0HWp9Lv4ZuTtaCRTc26mgdK/EN9g3HocVt9a/8qn8r/z3P/Ix&#xA;f+aMDYzPFXYq7FXYq7FXYq7FXwp5h/47+pf8xU//ACcbC1oDFXYq7FXYq7FXYq7FXYq7FXYq7FXY&#xA;q7FXYq7FXYq7FXYq++sDY7FXYq7FXYq7FXYq7FXw75y06803zZq9leRmOeK7m5Ka7hnLKwr2ZSCD&#xA;4YWspPirsVdirsVdirsVdirsVdirsVdirsVdirsVdirsVdiqtZW7XN5BbL9qeRIxTrV2C/xxV96Y&#xA;Gx2KuxV2KuxV2KuxV2Kvmj/nJ+KNfOOmOqgO+nrzYDc0mkpXCGMnjmLF2KuxV2KuxV2KuxV2KuxV&#xA;2KuxV2KuxV2KuxV2KuxVkv5a6XLqnn7QLONC9b2GWRR/vuFhLJ/wiHFIfauBm7FXYq7FXYq7FXYq&#xA;7FXzj/zlHbMvmLRbnfjLaSRDwrHLyP8AycwhjJ4nixdirsVdirsVdirsVdirsVdirsVdirsVdirs&#xA;VdirsVem/wDOOoB/MuCo6WtwR/wIxSH1bgZuxV2KuxV2KuxV2KuxV5l+f/k6bX/JZvbRDJfaKzXS&#xA;IOrQEUnUfIAP/scUEPlLCwdirsVdirsVdirsVdirsVdirsVdirsVdirsVdirsVetf840WLz+fbm6&#xA;41jtLCUl+waSSNFH0jliUxfUGBm7FXYq7FXYq7FXYq7FXEAggioOxBxV8mfnb+W7eUvMJvbGOmha&#xA;mzPa06QydXgPhTqn+T8jhYEPOMUOxV2KuxV2KuxV2KuxV2KuxV2KuxV2KuxV2KuxV9T/APOPfkyT&#xA;QvKDapdx8L7W2WfiRRltkBEIP+tyZ/kRgZgPU8UuxV2KuxV2KuxV2KuxV2KvlD87fzE1vXfM+o6H&#xA;6xh0TS7l7aOzXYPLAxR5ZD1YlwePYD3qSWBLzTFDsVdirsVdirsVdirsVdirsVdirsVdirsVdir0&#xA;v8jPy6h82eYnvNRTno2k8JJ4iNppWJMcR/yfhLN7bd8UgPq8AAAAUA2AGBm7FXYq7FXYq7FXYq7F&#xA;XYq7FXin5l/84+XGv67PrXl68gtZr1vUvLW65rH6p+1IjxrIRy6kFevfCxIYr/0K95u/6uun/fN/&#xA;1TxteF3/AEK95u/6uun/AHzf9U8bXhd/0K95u/6uun/fN/1TxteF3/Qr3m7/AKuun/fN/wBU8bXh&#xA;d/0K95u/6uun/fN/1TxteF3/AEK95u/6uun/AHzf9U8bXhRH/Qrevd9ctf8AkVJja8KD80/842eY&#xA;dK0Y32lXw1m7jas1jHD6T+nv8UZLvzI/loD4VxteF5Jd2V5ZTtBeQSW067NFMjRuPmrAHFipKrOw&#xA;VAWY7BQKknFU603yP5y1Kn1HQ764U0/eLbycN+lXI4j78Vpl2l/849fmXfANNaQaep6G6nWtPGkP&#xA;rMPuxTSaH/nGLz9/y36V/wAjrj/snxteFItT/If8zrEkjSxeRjb1LWaJ6/JSyyf8LitKOjfkl+ZO&#xA;p3awHSHso60kubsrFGgBoTuSzf7FTitPp7yD5K0/yd5cg0e0PquCZbu5I4maZgOTkdugAHYDAyAZ&#xA;Fil2Kv8A/9k=</xmpGImg:image>
               </rdf:li>
            </rdf:Alt>
         </xmp:Thumbnails>
      </rdf:Description>
      <rdf:Description rdf:about=""
            xmlns:xmpTPg="http://ns.adobe.com/xap/1.0/t/pg/"
            xmlns:stDim="http://ns.adobe.com/xap/1.0/sType/Dimensions#"
            xmlns:xmpG="http://ns.adobe.com/xap/1.0/g/">
         <xmpTPg:MaxPageSize rdf:parseType="Resource">
            <stDim:w>299.998915</stDim:w>
            <stDim:h>299.998743</stDim:h>
            <stDim:unit>Millimeters</stDim:unit>
         </xmpTPg:MaxPageSize>
         <xmpTPg:NPages>1</xmpTPg:NPages>
         <xmpTPg:HasVisibleTransparency>False</xmpTPg:HasVisibleTransparency>
         <xmpTPg:HasVisibleOverprint>False</xmpTPg:HasVisibleOverprint>
         <xmpTPg:PlateNames>
            <rdf:Seq>
               <rdf:li>Cyan</rdf:li>
               <rdf:li>Magenta</rdf:li>
               <rdf:li>Yellow</rdf:li>
               <rdf:li>Black</rdf:li>
            </rdf:Seq>
         </xmpTPg:PlateNames>
         <xmpTPg:SwatchGroups>
            <rdf:Seq>
               <rdf:li rdf:parseType="Resource">
                  <xmpG:groupName>Default Swatch Group</xmpG:groupName>
                  <xmpG:groupType>0</xmpG:groupType>
               </rdf:li>
            </rdf:Seq>
         </xmpTPg:SwatchGroups>
      </rdf:Description>
      <rdf:Description rdf:about=""
            xmlns:dc="http://purl.org/dc/elements/1.1/">
         <dc:format>image/svg+xml</dc:format>
      </rdf:Description>
      <rdf:Description rdf:about=""
            xmlns:xmpMM="http://ns.adobe.com/xap/1.0/mm/"
            xmlns:stRef="http://ns.adobe.com/xap/1.0/sType/ResourceRef#"
            xmlns:stEvt="http://ns.adobe.com/xap/1.0/sType/ResourceEvent#">
         <xmpMM:DerivedFrom rdf:parseType="Resource">
            <stRef:instanceID>xmp.iid:F63F1AA85321681180839FCCDFDC130E</stRef:instanceID>
            <stRef:documentID>xmp.did:F63F1AA85321681180839FCCDFDC130E</stRef:documentID>
            <stRef:originalDocumentID>xmp.did:F63F1AA85321681180839FCCDFDC130E</stRef:originalDocumentID>
         </xmpMM:DerivedFrom>
         <xmpMM:DocumentID>xmp.did:F73F1AA85321681180839FCCDFDC130E</xmpMM:DocumentID>
         <xmpMM:InstanceID>xmp.iid:F73F1AA85321681180839FCCDFDC130E</xmpMM:InstanceID>
         <xmpMM:OriginalDocumentID>xmp.did:F63F1AA85321681180839FCCDFDC130E</xmpMM:OriginalDocumentID>
         <xmpMM:History>
            <rdf:Seq>
               <rdf:li rdf:parseType="Resource">
                  <stEvt:action>saved</stEvt:action>
                  <stEvt:instanceID>xmp.iid:F63F1AA85321681180839FCCDFDC130E</stEvt:instanceID>
                  <stEvt:when>2019-09-30T18:39:11+08:00</stEvt:when>
                  <stEvt:softwareAgent>Adobe Illustrator CS6 (Macintosh)</stEvt:softwareAgent>
                  <stEvt:changed>/</stEvt:changed>
               </rdf:li>
               <rdf:li rdf:parseType="Resource">
                  <stEvt:action>saved</stEvt:action>
                  <stEvt:instanceID>xmp.iid:F73F1AA85321681180839FCCDFDC130E</stEvt:instanceID>
                  <stEvt:when>2019-09-30T19:01:57+08:00</stEvt:when>
                  <stEvt:softwareAgent>Adobe Illustrator CS6 (Macintosh)</stEvt:softwareAgent>
                  <stEvt:changed>/</stEvt:changed>
               </rdf:li>
            </rdf:Seq>
         </xmpMM:History>
      </rdf:Description>
   </rdf:RDF>
</x:xmpmeta>
                                                                                                    
                                                                                                    
                                                                                                    
                                                                                                    
                                                                                                    
                                                                                                    
                                                                                                    
                                                                                                    
                                                                                                    
                                                                                                    
                                                                                                    
                                                                                                    
                                                                                                    
                                                                                                    
                                                                                                    
                                                                                                    
                                                                                                    
                                                                                                    
                                                                                                    
                                                                                                    
                           
<?xpacket end="w"?>
	</metadata>
<rect x="157.696" y="517.475" fill="#8E908F" width="528" height="72.22"/>
<rect x="157.696" y="435.475" fill="#D7C834" width="528" height="72.22"/>
<path fill="#3E4545" d="M310.86,219.933c0-2.455-0.085-5.258,0.019-8.055c0.193-5.194,0.511-10.383,0.748-15.576
	c0.085-1.865,0.066-3.735,0.126-5.602c0.161-4.97,0.313-9.941,0.517-14.911c0.225-5.505,0.513-11.009,0.753-16.514
	c0.085-1.943,0.104-3.889,0.162-5.833c0.158-5.283,0.281-10.567,0.492-15.847c0.205-5.117,0.516-10.229,0.751-15.346
	c0.096-2.098,0.11-4.201,0.171-6.3c0.154-5.281,0.207-10.568,0.509-15.841c0.185-3.23,0.254-6.511,1.567-9.594
	c0.384-0.901,0.426-1.957,0.568-2.95c1.234-8.627,8.962-15.506,18.109-15.323c5.671,0.113,11.337,0.434,17.007,0.646
	c4.661,0.174,9.324,0.301,13.984,0.491c6.988,0.284,13.973,0.623,20.961,0.903c4.341,0.173,8.686,0.28,12.794,0.41
	c1.006-2.485,1.675-5.003,2.963-7.151c3.507-5.85,8.846-8.811,15.677-8.857c9.035-0.062,18.075,0.147,27.105-0.06
	c9.766-0.223,18.484,6.832,19.152,17.662c0.015,0.229,0.071,0.454,0.142,0.888c1.405,0.127,2.839,0.319,4.278,0.377
	c4.737,0.191,9.478,0.314,14.215,0.506c2.016,0.082,4.04,0.164,6.037,0.426c7.868,1.032,14.001,6.611,15.553,14.352
	c0.822,4.1,1.288,8.272,1.878,12.417c1.376,9.676,2.741,19.353,4.089,29.033c1.155,8.297,2.267,16.601,3.422,24.898
	c1.165,8.373,2.368,16.741,3.54,25.114c0.549,3.917,1.096,7.835,1.568,11.761c0.136,1.133,0.438,2.002,1.344,2.813
	c1.087,0.972,2.073,2.14,2.825,3.391c4.056,6.75,9.047,12.824,13.674,19.163c7.015,9.611,13.93,19.297,20.835,28.989
	c4.872,6.838,9.689,13.716,14.458,20.627c1.146,1.66,2.589,2.467,4.533,2.865c6.471,1.323,12.943,2.664,19.354,4.243
	c4.066,1.002,8.062,2.352,11.512,4.899c3.285,2.425,5.589,5.586,7.072,9.367c0.199,0.507,0.419,1.016,0.528,1.545
	c0.669,3.226,2.311,5.57,5.088,7.588c4.157,3.021,5.992,7.572,6.387,12.702c0.429,5.572,0.912,11.14,1.438,16.703
	c0.387,4.089,0.864,8.17,1.332,12.25c0.977,8.513,0.954,17.06,1.001,25.609c0.012,2.064,0.435,4.147,0.859,6.182
	c0.879,4.217,1.944,8.396,2.826,12.612c0.977,4.668,2.19,9.328,2.642,14.054c0.428,4.495,2.646,8.232,4.006,12.326
	c0.529,1.591,1.525,2.191,3.219,2.415c7.769,1.028,12.94,5.391,15.33,12.821c3.299,10.259-3.61,21.402-14.241,23.204
	c-0.757,0.128-1.51,0.276-2.317,0.424c0,0.779,0,1.448,0,2.371c-26.316,0-52.597,0-78.949,0c-0.117,0.681-0.251,1.125-0.262,1.574
	c-0.173,7.265-1.815,14.349-2.627,21.535c-0.638,5.645-1.505,11.267-1.974,16.923c-0.221,2.669,0.255,5.396,0.432,8.397
	c29.43,0,58.665,0,88.035,0c0.572,7.07,1.578,13.812,0.573,20.892c-5.631,0.284-11.279,0.089-16.921,0.124
	c-5.687,0.035-11.373,0.008-17.059,0.008c-5.687,0-11.373,0-17.059,0c-5.687,0-11.372,0-17.059,0c-5.682,0-11.364,0-17.092,0
	c-0.132,0.396-0.322,0.683-0.304,0.957c0.356,5.437,0.67,10.877,1.139,16.304c0.262,3.022,1.568,5.678,3.503,8.015
	c0.345,0.416,0.663,0.854,1.041,1.346c-0.51,0.816-0.957,1.633-1.499,2.382c-2.072,2.862-2.786,6.061-2.291,9.514
	c0.462,3.218,1.047,6.417,1.608,9.808c26.322,0,52.457,0,78.878,0c-0.292,3.737-0.566,7.235-0.85,10.841
	c1.213,0.403,2.389,0.744,3.527,1.182c6.851,2.63,11.489,9.03,11.626,16.542c0.162,8.955,0.154,17.917-0.001,26.871
	c-0.112,6.44-0.345,12.897-0.96,19.305c-0.809,8.407-2.01,16.778-3.121,25.154c-0.36,2.718-1.268,5.301-2.891,7.55
	c-0.728,1.007-0.957,2.048-0.95,3.26c0.034,7.011,0.244,14.03-0.049,21.028c-0.287,6.887-0.583,13.796-2.078,20.588
	c-1.06,4.816-2.815,9.366-4.7,13.887c-2.341,5.616-5.104,11.022-8.64,15.974c-3.475,4.865-7.138,9.599-10.818,14.312
	c-1.065,1.364-2.027,2.706-2.573,4.37c-2.006,6.119-5.07,11.67-9.085,16.705c-2.58,3.234-5.877,5.533-9.527,7.354
	c-4.387,2.188-8.994,3.119-13.958,3.084c-6.518-0.046-12.82-1.272-19.149-2.5c-3.965-0.77-7.905-1.677-11.885-2.354
	c-1.902-0.323-3.87-0.316-5.811-0.352c-2.959-0.054-5.924,0.091-8.879-0.035c-6.963-0.296-13.827,0.514-20.638,1.788
	c-6.567,1.229-13.075,2.78-19.65,3.954c-6.267,1.119-12.579,1.988-18.886,2.86c-3.535,0.489-7.1,0.769-10.652,1.128
	c-0.695,0.07-1.397,0.1-2.096,0.101c-5.53,0.008-11.063,0.108-16.591-0.023c-5.992-0.143-11.947-0.745-17.682-2.658
	c-5.481-1.828-9.941-5.061-13.274-9.811c-0.219-0.312-0.473-0.599-0.746-0.94c-2.73,0.385-5.404,0.84-8.095,1.123
	c-4.09,0.429-8.186,0.95-12.29,1.064c-53.878,1.506-107.769,0.302-161.653,0.706c-1.776,0.014-3.563,0.199-5.325,0.446
	c-7.043,0.99-12.953-1.107-17.388-6.671c-4.507-5.653-5.221-12.012-2.447-18.638c2.087-4.985,5.886-8.314,10.955-10.18
	c0.725-0.267,1.47-0.48,2.202-0.728c0.057-0.019,0.088-0.111,0.262-0.346c-2.194-3.186-4.389-6.462-6.673-9.674
	c-5.816-8.18-11.513-16.459-16.414-25.207c-4.574-8.164-7.97-16.867-8.965-26.305c-0.325-3.086-0.559-6.192-0.629-9.293
	c-0.217-9.564-0.361-19.13-0.458-28.696c-0.013-1.307-0.43-2.141-1.435-2.942c-4.615-3.682-6.822-8.588-6.839-14.429
	c-0.047-15.734,0.011-31.469-0.026-47.203c-0.023-9.485,6.695-17.158,15.544-18.463c0.527-0.078,1.041-0.253,1.658-0.407
	c0.056-1.048,0.109-2.039,0.174-3.237c25.836,0,51.665,0,77.726,0c0.549-2.956,1.076-5.755,1.585-8.558
	c0.125-0.688,0.198-1.388,0.287-2.082c0.386-3.029-0.024-5.895-1.71-8.512c-0.711-1.104-1.374-2.238-2.164-3.532
	c4.354-4.136,4.887-9.537,5.129-15.059c0.15-3.415,0.448-6.822,0.698-10.515c-1.094-0.055-2.071-0.146-3.047-0.146
	c-26.25-0.008-52.5-0.006-78.749-0.006c-0.999,0-1.999,0-3.042,0c-1.073-7.12-0.021-13.926,0.522-21.002c29.109,0,58.049,0,87.182,0
	c0.395-3.623,0.89-7.017,0.47-10.422c-1.226-9.963-2.567-19.911-3.836-29.868c-0.333-2.617-0.568-5.247-0.872-8.098
	c-26.08,0-52.144,0-78.272,0c0-0.908,0-1.584,0-2.391c-2.823-0.826-5.527-1.931-7.848-3.854c-4.267-3.536-6.646-8.104-6.699-13.562
	c-0.148-15.188-0.091-30.377-0.014-45.566c0.014-2.698,0.493-5.396,0.799-8.09c0.438-3.853,0.849-7.711,1.387-11.55
	c1.52-10.829,3.063-21.655,4.672-32.471c0.594-3.989,1.417-7.945,2.097-11.923c0.417-2.442,0.749-4.898,1.142-7.345
	c1.445-8.994,9.479-15.555,18.706-15.198c2.917,0.113,5.675,0.882,8.219,2.347c0.666,0.383,1.321,0.785,2.212,1.316
	c0.456-1.168,0.873-2.226,1.281-3.286c2.094-5.438,4.002-10.955,6.321-16.295c3.821-8.804,10.233-15.504,17.944-21.043
	c4.609-3.311,9.429-6.365,13.796-9.969c6.229-5.139,12.223-10.574,18.134-16.08c3.58-3.335,6.781-7.073,10.212-10.572
	C304.136,226.532,307.373,223.39,310.86,219.933z"/>
<path fill="#8E908F" d="M74.602,9.717c3.604,0,7.207-0.02,10.81,0.008c1.982,0.015,3.963,0.148,5.945,0.159
	c2.292,0.012,4.584-0.065,6.876-0.079c1.904-0.011,3.808,0.024,5.711,0.018c1.61-0.005,3.219-0.043,4.829-0.062
	c6.237-0.074,12.475-0.233,18.71-0.179c2.76,0.024,5.522,0.422,8.271,0.754c5.362,0.647,10.715,1.371,16.072,2.059
	c3.446,0.442,6.896,0.858,10.337,1.333c0.675,0.093,1.353,0.335,1.977,0.626c6.75,3.15,13.321,6.622,19.325,11.123
	c0.964,0.723,1.71,1.503,2.092,2.7c1.117,3.496,2.593,6.842,2.395,10.711c-0.203,3.945-1.925,6.938-4.778,9.287
	c-2.333,1.921-4.93,3.508-7.375,5.293c-0.734,0.536-1.492,1.141-2,1.883c-8.498,12.415-18.019,23.984-28.172,35.007
	c-4.983,5.411-10.554,10.13-17.271,13.286c-1.421,0.667-2.565,1.927-3.961,2.672c-1.192,0.636-2.541,1.034-3.864,1.333
	c-1.081,0.244-2.34-0.29-3.192,0.884c-0.096,0.132-0.417,0.133-0.633,0.13c-5.551-0.083-11.104-0.152-16.656-0.274
	c-2.695-0.06-5.421,0.013-8.076-0.378c-8.393-1.237-16.837-2.352-24.189-7.27c-4.751-3.178-8.963-6.994-12.674-11.324
	c-9.09-10.608-17.996-21.376-25.916-32.942c-0.775-1.131-1.739-1.918-2.885-2.632c-3.353-2.089-6.636-4.264-9.486-7.091
	c-3.715-3.685-4.047-8.066-2.999-12.84c0.033-0.152,0.1-0.297,0.149-0.446c2.225-6.663,2.181-6.743,8.254-10.17
	c5.132-2.895,10.39-5.558,15.573-8.361c2.415-1.306,5.09-1.18,7.67-1.547c5.27-0.75,10.542-1.499,15.832-2.076
	C65.728,10.828,70.076,9.446,74.602,9.717z"/>
</svg>
