<?xml version="1.0" encoding="utf-8"?>
<!-- Generator: Adobe Illustrator 16.0.0, SVG Export Plug-In . SVG Version: 6.00 Build 0)  -->
<!DOCTYPE svg PUBLIC "-//W3C//DTD SVG 1.1//EN" "http://www.w3.org/Graphics/SVG/1.1/DTD/svg11.dtd" [
	<!ENTITY ns_flows "http://ns.adobe.com/Flows/1.0/">
	<!ENTITY ns_extend "http://ns.adobe.com/Extensibility/1.0/">
	<!ENTITY ns_ai "http://ns.adobe.com/AdobeIllustrator/10.0/">
	<!ENTITY ns_graphs "http://ns.adobe.com/Graphs/1.0/">
	<!ENTITY ns_vars "http://ns.adobe.com/Variables/1.0/">
	<!ENTITY ns_imrep "http://ns.adobe.com/ImageReplacement/1.0/">
	<!ENTITY ns_sfw "http://ns.adobe.com/SaveForWeb/1.0/">
	<!ENTITY ns_custom "http://ns.adobe.com/GenericCustomNamespace/1.0/">
	<!ENTITY ns_adobe_xpath "http://ns.adobe.com/XPath/1.0/">
]>
<svg version="1.1" id="Layer_1" xmlns:x="&ns_extend;" xmlns:i="&ns_ai;" xmlns:graph="&ns_graphs;"
	 xmlns="http://www.w3.org/2000/svg" xmlns:xlink="http://www.w3.org/1999/xlink" xmlns:a="http://ns.adobe.com/AdobeSVGViewerExtensions/3.0/"
	 x="0px" y="0px" width="850.391px" height="850.39px" viewBox="0 0 850.391 850.39" enable-background="new 0 0 850.391 850.39"
	 xml:space="preserve">
<metadata><?xpacket begin="﻿" id="W5M0MpCehiHzreSzNTczkc9d"?>
<x:xmpmeta xmlns:x="adobe:ns:meta/" x:xmptk="Adobe XMP Core 5.3-c011 66.145661, 2012/02/06-14:56:27        ">
   <rdf:RDF xmlns:rdf="http://www.w3.org/1999/02/22-rdf-syntax-ns#">
      <rdf:Description rdf:about=""
            xmlns:xmp="http://ns.adobe.com/xap/1.0/"
            xmlns:xmpGImg="http://ns.adobe.com/xap/1.0/g/img/">
         <xmp:CreatorTool>Adobe Illustrator CS6 (Macintosh)</xmp:CreatorTool>
         <xmp:CreateDate>2019-09-30T18:39:11+08:00</xmp:CreateDate>
         <xmp:Thumbnails>
            <rdf:Alt>
               <rdf:li rdf:parseType="Resource">
                  <xmpGImg:width>184</xmpGImg:width>
                  <xmpGImg:height>256</xmpGImg:height>
                  <xmpGImg:format>JPEG</xmpGImg:format>
                  <xmpGImg:image>/9j/4AAQSkZJRgABAgEASABIAAD/7QAsUGhvdG9zaG9wIDMuMAA4QklNA+0AAAAAABAASAAAAAEA&#xA;AQBIAAAAAQAB/+4ADkFkb2JlAGTAAAAAAf/bAIQABgQEBAUEBgUFBgkGBQYJCwgGBggLDAoKCwoK&#xA;DBAMDAwMDAwQDA4PEA8ODBMTFBQTExwbGxscHx8fHx8fHx8fHwEHBwcNDA0YEBAYGhURFRofHx8f&#xA;Hx8fHx8fHx8fHx8fHx8fHx8fHx8fHx8fHx8fHx8fHx8fHx8fHx8fHx8fHx8f/8AAEQgBAAC4AwER&#xA;AAIRAQMRAf/EAaIAAAAHAQEBAQEAAAAAAAAAAAQFAwIGAQAHCAkKCwEAAgIDAQEBAQEAAAAAAAAA&#xA;AQACAwQFBgcICQoLEAACAQMDAgQCBgcDBAIGAnMBAgMRBAAFIRIxQVEGE2EicYEUMpGhBxWxQiPB&#xA;UtHhMxZi8CRygvElQzRTkqKyY3PCNUQnk6OzNhdUZHTD0uIIJoMJChgZhJRFRqS0VtNVKBry4/PE&#xA;1OT0ZXWFlaW1xdXl9WZ2hpamtsbW5vY3R1dnd4eXp7fH1+f3OEhYaHiImKi4yNjo+Ck5SVlpeYmZ&#xA;qbnJ2en5KjpKWmp6ipqqusra6voRAAICAQIDBQUEBQYECAMDbQEAAhEDBCESMUEFURNhIgZxgZEy&#xA;obHwFMHR4SNCFVJicvEzJDRDghaSUyWiY7LCB3PSNeJEgxdUkwgJChgZJjZFGidkdFU38qOzwygp&#xA;0+PzhJSktMTU5PRldYWVpbXF1eX1RlZmdoaWprbG1ub2R1dnd4eXp7fH1+f3OEhYaHiImKi4yNjo&#xA;+DlJWWl5iZmpucnZ6fkqOkpaanqKmqq6ytrq+v/aAAwDAQACEQMRAD8A9U4q7FXYq7FXYq7FVsss&#xA;UMTyyuI4o1LyOxoqqoqSSewGKvIdV/5ya8n2t89vZWF3fwRnibpeESNTuiseRH+sBhpjxKcf/OUH&#xA;k0uBJpeoqncqsDH7jKv68aXiRUX/ADkz+Xz15WupRU6c4YTX5cZmwUnieefnB+dSeaLa20vy5Lc2&#xA;ul0Z9Q5gRPM5NFQ8GaqKBWldyfbCxJeRYoRelavqmkX0d9pl1JZ3cRqk0TFWFOxp1B7g7HFX1b5Z&#xA;/OvyNfaDY3Gqaxb2mpvCn163bmvGbiOYFR05dN8DO2XaJ5p8t66rNo+p21/6YBkWCRXZQenJQeS/&#xA;SMUppirsVdirsVdirsVdirsVdirsVdirsVdirsVYN+dupSaf+WOtyRbSTxx2w/1Z5Vjf/hGbFBfH&#xA;2Fg7FXYq7FXYq7FXYqnvkXXrrQfN2lanbyGP0bmMTUr8ULsFlQgdQyEjFQ+3cDY7FXYq7FXYq7FX&#xA;Yq7FXYq7FXYq7FXYq7FXmv8AzkNLw/LG8WlfVuLZK+FJA3/GuKC+T8LB2KuxV2KuxV2KuxV2Kvuz&#xA;Qb8ajoenagDyF5bQ3FfH1Yw/b54GxHYq7FXYq7FXYq7FXYq7FXYq7FXYq7FXYq8r/wCckpHX8ulV&#xA;TQSX0Cv7jjI36wMQiT5ZwsHYq7FXYq7FXYq7FXYq+yfyfvvrv5Z+X5q14W3oV/5h3aH/AJl4GYZj&#xA;il2KuxV2KuxV2KuxV2KuxV2KuxV2KuxV5F/zk5KV8hWSBqepqcQZfFRBOf10xCJPmLCwdirsVdir&#xA;sVdirsVdir6n/wCcbr8XP5dGCu9lezw09mCTf8zcBZxep4pdirsVdirsVdirsVdirsVdirsVdirs&#xA;VeMf85Qsv+E9JWo5G/qF70EL1/XhDGT5sxYomz0vUb2v1W3kmA2LKDxB926YqmcPkvzBJTlAsQPd&#xA;3X/jUscbTSv/AID1z+aH/gz/AM042tO/wHrn80P/AAZ/5pxtaabyJrgFQYT7Bz/EY2tISbyl5hi3&#xA;NoWHijI34A1xWkqlhlhkMcqNHIuzIwII+g4ofQP/ADizqAa08waczbxyW9xGlevNXRyB7cFriWUX&#xA;u+Bk7FXYq7FXYq7FXYq7FXYq7FXYq7FXYq8N/wCcpp1Gk6BB+0887jfsiKOn+zwhjJ415M0O01Ge&#xA;ea7X1IrfiFjrQFmr1p2FMSgB6BHHHGgjjUIiiiooAAHsBgZLsVdirsVdirsVQOraNY6nA0dxGPUo&#xA;fTmH21Pah/hiimDeTPNmpeUfMttrFkeTQMUuIK0WaE7SRt8x08DQ9sLEPsvy9r+meYNGtdX0yX1b&#xA;O7Tmh7qejIw7MrVBHjgbExxV2KuxV2KuxV2KuxV2KuxV2KuxVjPn3z/onkzRmv8AUH9S4eq2VipA&#xA;kmk8B4KP2m7fOgKgl8heavNWs+aNZm1bVpjLPKT6cdT6cUdfhjjX9lV/tO+Fgo6Hrl1pFyZYQHjk&#xA;oJoj0YDpv2IrioL0rTNSt9Rs0uoD8DbMp6qw6qcDNFYq7FXYq7FXYqxfzT5raydrGyobmn72b/fd&#xA;ew/yv1YoJYFhYvUPyN/Mz/C+tfonUpaaDqbgOzH4YJz8Ky+ytsr/AEHtikF9VA13HTAzdirsVdir&#xA;sVdirsVdirsVdirz/wDMn84/L3k6KS0jI1DXSP3dhG20ZIqGnYfYHfj9o/LfFBL5Z8zeZ9a8y6tL&#xA;qur3BuLqXYdkRB9mONeiqten8cLBK8Vdiqb+W9ek0m8q1WtJaCeMf8SHuMUgvS4ZopokliYPG4DI&#xA;43BBwMl+KuxV2KpJ5n8xR6XbenEQ19KP3a9eI/nYfqxQS82d3d2dyWdiWZjuSTuScLFrFXYq+mP+&#xA;cfvzL/TOmDyvqktdU0+P/QpGO81su3Gvd4unutPA4sgXsWBk7FXYq7FXYq7FXYq7FXnf52fmHN5Q&#xA;8srHYMF1nVC0Nm+xMSKB6s1PFeQC+5r2xQS+S5ZpZpXmmdpJZCWkkclmZiakknck4WC3FXYq7FXY&#xA;qnvl3zTcaV+4lUzWRNeH7SE9Slf1YpBZlbea9AnUEXaxnusgKEfftgTaJ/Tejf8ALfb/API1P64p&#xA;tKNZ87WFqjR2JF1cEbMP7tfmf2voxpFsDurq4u7h7i4cySyGrMcLFSxV2KuxVEafqF9p17DfWE72&#xA;t5A3OGeJirqemxGKvR9H/wCcivzGsSou5bbU4xQEXMIRqezQelv7muNJt7j+WH5raX56tZkSA2Oq&#xA;2gDXNmzcwUJoJI2ovJa7Hbb7iQyBZ1il2KuxV2KuxV4t5q/5yW0vTNZlsNI0s6nb20hjmvGm9FXK&#xA;mjekAklR4MfuphpjxPH/AM0/zBfzv5hj1FIGtbS3gSC3tnYMV6tISRtu7H6AMUEsOxQ7FXYq7FXY&#xA;q7FXYq7FXYq7FXYq7FXYq7FXYqn3kfzlqflDzBDrOnqsjopjngkrwlienJCRuOgIPYgYqC+0tJ1K&#xA;DVNKstTt6i3voIrmEN14TIHWv0NgbEVirsVdiqVebdS/RnlbWNRrQ2llcTLTrySJitK++KvhrC1u&#xA;xV2KuxV2KuxV2KuxV2KuxV2KuxV2KuxV2KuxV2KuxV9m/lLci5/Lby9IDXjaJF3/AN1Ex9/9XAzD&#xA;LcUuxV2KsB/PXUPqf5X6xQ0e49G3T39SZOX/AAgbFBfIeFg7FXYq7FXYq7FXYq7FXYq7FXYq7FXY&#xA;q7FXYq7FXYq7FX1t+QMrv+VulK3SN7lV+X1iRv1tgZh6Jil2KuxV4/8A85OXvpeSbC0Bo1zqCFvd&#xA;Y4pCf+GZcIYyfMuLF2KuxV2KuxV2KuxV2KuxV2KuxV2KuxV2KuxV2KuxV2Kvqb/nG7Ukuvy8NrX4&#xA;7C8miK96OFlB/wCSh+7AWcXqmKXYq7FXhf8AzlOzfo7y8tTxM1ySvaoWOn68IYyfPOLF2KuxV2Ku&#xA;xV2KuxV2KuxV2KuxV2KuxV2KuxV2KuxV2KvdP+cW9V4alruks4pNDDdRoTvWJjG5H/I1a/RiWUX0&#xA;NgZOxV2KvCv+cp/94PLv/GW6/wCIx4Qxk+esWLsVdirsVdirsVdirsVdirsVdirsVdirsVdirsVd&#xA;irsVTXyx5n1jyzrEOr6TMIbyEMoLAMrKwoysp6g4q+o/yf8AzTPnjTrmO9hS21iwK/WUiqIpI5K8&#xA;ZEDFiPs0YVP44GYL0LFLzL9L6t/y2z/8jX/rnnX57P8Az5/6Yuy8OPcGE/mnoes+ZdHtzBLJdXdj&#xA;IzxwyOTyRxRwvI05bA5tOyu1DDJWWRMT3kmmnPhsbB4XPBNBM8M6NFNGxWSNwVZWGxBB6HOxjISF&#xA;jcFwCKWYUOxV2KuxV2KuxV2KuxV2KuxV2KuxV2KuxV2KuxV2Kr4IJp5UhgjaWaQ0SNAWZj4ADc4J&#xA;SERZNBIFvZvyl8ua35fiu9QuWks7i8VY0gViriNSWq/E9yenbOT7X7V4pCOKRocyDVubgw1vIPYf&#xA;J19fXGpypPcSyoIWIV3ZhXmorQnD2FqMk8xEpSkOHqSeoTqIgR2DF85xynYq7FXYq7FXnX502/LR&#xA;9Puf993DR/8AIxCf+ZedD7Oz/eSj3x+4/tcTVjYPIs65wXYq7FXYq7FXYq7FXYq7FXYq7FXsf5NW&#xA;xj8u3VwRvNdMB/qoij9ZOcd7QzvMB3R/SXP0o9LP80LlOxV2KuxVkPkf/jrS/wDGBv8AiaZvfZ7+&#xA;/P8AUP3hx9T9PxY9mich2KuxV2KuxVhv5sQrJ5Omc9YZonX5luH/ABtm47ClWpHmC4+pHoeH527r&#xA;nYq7FXYq7FXYq7FXYq7FXYq7FXu/5XwrH5KsWFKymZ2p4+qy/qXOF7alepl5V9wdlpx6AyvNU3ux&#xA;V2KuxVkPkf8A460v/GBv+Jpm99nv78/1D94cfU/T8Uo/xn+Xn/VsvPw/6r5vf5G0v8z7Zfrcfx5d&#xA;6G1Pzl5COm3Yg068ScwyCJ9tn4Hif7498I7H0o/g+2X60ePLvfNP17Wv+Wi5/wCDk/rmf4GP+aPk&#xA;08R73fXta/5aLn/g5P64+Bj/AJo+S8R73fXta/5aLn/g5P64+Bj/AJo+S8R71Ke71GROFxNM6H9m&#xA;RmINPYnJRxQBsABBkUPk0OxV2KuxV2KuxV2KuxV2KuxV2KomC81JIwkE8yxr0VGcKK79AcrligTZ&#xA;A+SRIqn17Wv+Wi5/4OT+uDwMf80fJPEe9317Wv8Alouf+Dk/rj4GP+aPkvEe9317Wv8Alouf+Dk/&#xA;rj4GP+aPkvEe99L6b5z8hfo619fTbxp/Rj9VhShfiORH77xzAPY+l/mfbL9bf48u9k3k7zB5V1HU&#xA;5YNIs7i3uVgZ3eb7JQOoI/vJN6kdsv0/Z+HDLihGjy5n9JYyySlsXjWZjW7FXYq7FXYqw/8AMOZP&#xA;Ts4KjmS7kdwAAB9+EILCsWLsVdirsVdirsVdirsVdirsVdirOfy9lU2N1DX4llDlfZlAr/wuAsgy&#xA;zFLsVdirsVZx+UP/ACklz/zBv/ydixVg+KuxV2KuxV2KsH/MOOAXdo6j98yMJD4qCOP6zhDEsSxQ&#xA;7FXYq7FXYq7FXYq7FXYq7FXYqzH8u4oTJey/7uUIo/1WqT+K4lIZpgZOxV2KuxVnH5Q/8pJc/wDM&#xA;G/8AydixVLf+Vb+dP+rd/wAloP8Aqpirzz8x7rXfLV9HpEkf1S8kiE8jckkIRiVUAqWXficUEvO2&#xA;ubh2LNK5ZiSxLHcnCxa9eb/fjfecVd683+/G+84qtZ3Y1Zix9zXFWsVdirsVdirsVdirsVdirsVd&#xA;irsVbV3X7LFa9aGmKrvXm/3433nFXevN/vxvvOKqtpeywXUMzMzrE6uU5EVCkGld+uKvZPJ2n6n5&#xA;u0+S90a29ZYH9O4jMkSMjkVAIZlNCOhwMw9J/Lnyl5g0fW57nUbX0IHtmjV/UjermRGAojMeinFL&#xA;0XFXy3/zkp/5MSP/ALZ8H/E5MIYSeU4odirsVdirsVdirsVdirsVdirsVdirsVdirsVdirsVdirs&#xA;Ve7f84rs317zEtTxMVqSvaoaWn68Syi+hMDJ2Kvlv/nJT/yYkf8A2z4P+JyYQwk8pxQ7FXYq7FXY&#xA;q7FXYq7FXYq7FXYq7FXYq7FXYq7FXYq7FXYq93/5xXRzeeY3A+BY7RSfdmlI/wCInEsovoPAydir&#xA;wb/nJjyWzpa+b4JABEqWN5CepBZmidfpYhvo98IYyD5+xYuxV2KuxV2KuxV2KuxV2KuxV2KuxV2K&#xA;uxV2KuxV2KuxV2Kvoj/nFmz4aTr95T++nt4a/wDGFHb/AJm4llF7lgZOxV5t/wA5CxK/5Y3rGtYp&#xA;7Zlp4mULv9DYoL5OwsHYq7FXYq7FXYq7FXYq7FXYq7FXYq7FXYq7FXYq7FXYq7FX1n/zj/oX6L/L&#xA;e0lY1k1SWS+cdacqRIP+AiU4GYej4pdirBvzu06S/wDyw1uOJS0kKR3IA/lgmSRz9CK2KC+PsLB2&#xA;KuxV2KuxV2KuxV2KuxV2KuxV2KuxV2KuxV2KuxV2KuxV9mflH/5LXy9/zCL/AMSOBmGXYpdiqnc2&#xA;0F1bS21wgkgnRo5Y26Mjjiyn5g4q+LPzB8nXflHzTd6PMCYVPqWUx/3ZbuT6bfP9lvcHCwIY5ih2&#xA;KuxV2KuxV2KuxV2KuxV2KuxV2KuxV2KuxV2KuxVwBJAAqT0GKvuLydpUuk+U9G0yYUms7KCGYf8A&#xA;FiRqH/4auBsCcYq7FXYqwH84vy5Tzl5cJtVA1vT+Uunv05gj44GPg9NvBqdq4oIfIskckUjRyKUk&#xA;QlXRgQwYGhBB6EYWC3FXYq7FXYq7FXYq7FXYq7FXYq7FXYq7FXYq7FXYq9F/I3yLL5l84QXc8ROk&#xA;6Qy3N05HwtIprDF/smFSP5QcUgPrXAzdirsVdirxr/nJDznrGjaXpmkaZO9r+lDM93PESrmOHgBG&#xA;rDcBjJ8VPCnQnCGMi+aiSSSTUnqcWLsVdirsVdirsVdirsVdirsVdirsVdirsVdirsVRWk6Zd6rq&#xA;dpptmnqXV5KkEK/5TsFFfbffFX2n5K8oaX5S8v2+jaetViHK4nIo00zAc5G9zTbwFB2wNgCe4q7F&#xA;XYq7FWI/mX+XOneeNGSznlNre2rGSxvAvLgzCjKy1FVagrv2GKCHjsf/ADi55lJb1NZs1APwcUla&#xA;o96haYbRwr/+hW9f/wCr5a/8i5MbXhd/0K3r/wD1fLX/AJFyY2vC7/oVvX/+r5a/8i5MbXhd/wBC&#xA;t6//ANXy1/5FyY2vC7/oVvX/APq+Wv8AyLkxteFsf84t69UV1y1A70ik/rja8KJT/nFe9LAP5jjV&#xA;e5FqxP3GUfrxteFKPO//ADjnrmi6XHe6FcPrrpUXlukXpygdmijDSFx4qDX5742pDyS6s7u0lMN1&#xA;BJbzL9qOVWRh8wwBxYqaqzMFUFmY0AG5JOKpxp3krzhqRX6jol9cK3R47eUp47tx4j78Vpl+k/8A&#xA;OPv5l34VpbOHT0bo13MoNPErF6rj6Rimk8X/AJxf84cRy1XTw1NwDORX5+mMbTwpdqn/ADjh+Ytp&#xA;vaiz1EdhBPwb6ROsQ/HG0cLHh+Tn5mmYRf4fuOZNK1j47/5fLj+OK09o/Jv8lJ/LF2Nf8wGN9XCl&#xA;bO0jPNbfmKM7ONmkKnjtsBXc12UgPYMDJ2KuxV//2Q==</xmpGImg:image>
               </rdf:li>
            </rdf:Alt>
         </xmp:Thumbnails>
         <xmp:MetadataDate>2019-09-30T18:39:11+08:00</xmp:MetadataDate>
         <xmp:ModifyDate>2019-09-30T18:39:11+08:00</xmp:ModifyDate>
      </rdf:Description>
      <rdf:Description rdf:about=""
            xmlns:xmpTPg="http://ns.adobe.com/xap/1.0/t/pg/"
            xmlns:stDim="http://ns.adobe.com/xap/1.0/sType/Dimensions#"
            xmlns:xmpG="http://ns.adobe.com/xap/1.0/g/">
         <xmpTPg:MaxPageSize rdf:parseType="Resource">
            <stDim:w>299.998915</stDim:w>
            <stDim:h>299.998743</stDim:h>
            <stDim:unit>Millimeters</stDim:unit>
         </xmpTPg:MaxPageSize>
         <xmpTPg:NPages>1</xmpTPg:NPages>
         <xmpTPg:HasVisibleTransparency>False</xmpTPg:HasVisibleTransparency>
         <xmpTPg:HasVisibleOverprint>False</xmpTPg:HasVisibleOverprint>
         <xmpTPg:PlateNames>
            <rdf:Seq>
               <rdf:li>Cyan</rdf:li>
               <rdf:li>Magenta</rdf:li>
               <rdf:li>Yellow</rdf:li>
               <rdf:li>Black</rdf:li>
            </rdf:Seq>
         </xmpTPg:PlateNames>
         <xmpTPg:SwatchGroups>
            <rdf:Seq>
               <rdf:li rdf:parseType="Resource">
                  <xmpG:groupName>Default Swatch Group</xmpG:groupName>
                  <xmpG:groupType>0</xmpG:groupType>
               </rdf:li>
            </rdf:Seq>
         </xmpTPg:SwatchGroups>
      </rdf:Description>
      <rdf:Description rdf:about=""
            xmlns:dc="http://purl.org/dc/elements/1.1/">
         <dc:format>image/svg+xml</dc:format>
      </rdf:Description>
      <rdf:Description rdf:about=""
            xmlns:xmpMM="http://ns.adobe.com/xap/1.0/mm/"
            xmlns:stEvt="http://ns.adobe.com/xap/1.0/sType/ResourceEvent#">
         <xmpMM:DerivedFrom rdf:parseType="Resource"/>
         <xmpMM:DocumentID>xmp.did:F63F1AA85321681180839FCCDFDC130E</xmpMM:DocumentID>
         <xmpMM:InstanceID>xmp.iid:F63F1AA85321681180839FCCDFDC130E</xmpMM:InstanceID>
         <xmpMM:OriginalDocumentID>xmp.did:F63F1AA85321681180839FCCDFDC130E</xmpMM:OriginalDocumentID>
         <xmpMM:History>
            <rdf:Seq>
               <rdf:li rdf:parseType="Resource">
                  <stEvt:action>saved</stEvt:action>
                  <stEvt:instanceID>xmp.iid:F63F1AA85321681180839FCCDFDC130E</stEvt:instanceID>
                  <stEvt:when>2019-09-30T18:39:11+08:00</stEvt:when>
                  <stEvt:softwareAgent>Adobe Illustrator CS6 (Macintosh)</stEvt:softwareAgent>
                  <stEvt:changed>/</stEvt:changed>
               </rdf:li>
            </rdf:Seq>
         </xmpMM:History>
      </rdf:Description>
   </rdf:RDF>
</x:xmpmeta>
                                                                                                    
                                                                                                    
                                                                                                    
                                                                                                    
                                                                                                    
                                                                                                    
                                                                                                    
                                                                                                    
                                                                                                    
                                                                                                    
                                                                                                    
                                                                                                    
                                                                                                    
                                                                                                    
                                                                                                    
                                                                                                    
                                                                                                    
                                                                                                    
                                                                                                    
                                                                                                    
                           
<?xpacket end="w"?>
	</metadata>
<rect x="157.696" y="517.475" fill="#8E908F" width="528" height="72.22"/>
<rect x="157.696" y="435.475" fill="#D7C834" width="528" height="72.22"/>
<path fill="#3E4545" d="M310.86,219.933c0-2.455-0.085-5.258,0.019-8.055c0.193-5.194,0.511-10.383,0.748-15.576
	c0.085-1.865,0.066-3.735,0.126-5.602c0.161-4.97,0.313-9.941,0.517-14.911c0.225-5.505,0.513-11.009,0.753-16.514
	c0.085-1.943,0.104-3.889,0.162-5.833c0.158-5.283,0.281-10.567,0.492-15.847c0.205-5.117,0.516-10.229,0.751-15.346
	c0.096-2.098,0.11-4.201,0.171-6.3c0.154-5.281,0.207-10.568,0.509-15.841c0.185-3.23,0.254-6.511,1.567-9.594
	c0.384-0.901,0.426-1.957,0.568-2.95c1.234-8.627,8.962-15.506,18.109-15.323c5.671,0.113,11.337,0.434,17.007,0.646
	c4.661,0.174,9.324,0.301,13.984,0.491c6.988,0.284,13.973,0.623,20.961,0.903c4.341,0.173,8.686,0.28,12.794,0.41
	c1.006-2.485,1.675-5.003,2.963-7.151c3.507-5.85,8.846-8.811,15.677-8.857c9.035-0.062,18.075,0.147,27.105-0.06
	c9.766-0.223,18.484,6.832,19.152,17.662c0.015,0.229,0.071,0.454,0.142,0.888c1.405,0.127,2.839,0.319,4.278,0.377
	c4.737,0.191,9.478,0.314,14.215,0.506c2.016,0.082,4.04,0.164,6.037,0.426c7.868,1.032,14.001,6.611,15.553,14.352
	c0.822,4.1,1.288,8.272,1.878,12.417c1.376,9.676,2.741,19.353,4.089,29.033c1.155,8.297,2.267,16.601,3.422,24.898
	c1.165,8.373,2.368,16.741,3.54,25.114c0.549,3.917,1.096,7.835,1.568,11.761c0.136,1.133,0.438,2.002,1.344,2.813
	c1.087,0.972,2.073,2.14,2.825,3.391c4.056,6.75,9.047,12.824,13.674,19.163c7.015,9.611,13.93,19.297,20.835,28.989
	c4.872,6.838,9.689,13.716,14.458,20.627c1.146,1.66,2.589,2.467,4.533,2.865c6.471,1.323,12.943,2.664,19.354,4.243
	c4.066,1.002,8.062,2.352,11.512,4.899c3.285,2.425,5.589,5.586,7.072,9.367c0.199,0.507,0.419,1.016,0.528,1.545
	c0.669,3.226,2.311,5.57,5.088,7.588c4.157,3.021,5.992,7.572,6.387,12.702c0.429,5.572,0.912,11.14,1.438,16.703
	c0.387,4.089,0.864,8.17,1.332,12.25c0.977,8.513,0.954,17.06,1.001,25.609c0.012,2.064,0.435,4.147,0.859,6.182
	c0.879,4.217,1.944,8.396,2.826,12.612c0.977,4.668,2.19,9.328,2.642,14.054c0.428,4.495,2.646,8.232,4.006,12.326
	c0.529,1.591,1.525,2.191,3.219,2.415c7.769,1.028,12.94,5.391,15.33,12.821c3.299,10.259-3.61,21.402-14.241,23.204
	c-0.757,0.128-1.51,0.276-2.317,0.424c0,0.779,0,1.448,0,2.371c-26.316,0-52.597,0-78.949,0c-0.117,0.681-0.251,1.125-0.262,1.574
	c-0.173,7.265-1.815,14.349-2.627,21.535c-0.638,5.645-1.505,11.267-1.974,16.923c-0.221,2.669,0.255,5.396,0.432,8.397
	c29.43,0,58.665,0,88.035,0c0.572,7.07,1.578,13.812,0.573,20.892c-5.631,0.284-11.279,0.089-16.921,0.124
	c-5.687,0.035-11.373,0.008-17.059,0.008c-5.687,0-11.373,0-17.059,0c-5.687,0-11.372,0-17.059,0c-5.682,0-11.364,0-17.092,0
	c-0.132,0.396-0.322,0.683-0.304,0.957c0.356,5.437,0.67,10.877,1.139,16.304c0.262,3.022,1.568,5.678,3.503,8.015
	c0.345,0.416,0.663,0.854,1.041,1.346c-0.51,0.816-0.957,1.633-1.499,2.382c-2.072,2.862-2.786,6.061-2.291,9.514
	c0.462,3.218,1.047,6.417,1.608,9.808c26.322,0,52.457,0,78.878,0c-0.292,3.737-0.566,7.235-0.85,10.841
	c1.213,0.403,2.389,0.744,3.527,1.182c6.851,2.63,11.489,9.03,11.626,16.542c0.162,8.955,0.154,17.917-0.001,26.871
	c-0.112,6.44-0.345,12.897-0.96,19.305c-0.809,8.407-2.01,16.778-3.121,25.154c-0.36,2.718-1.268,5.301-2.891,7.55
	c-0.728,1.007-0.957,2.048-0.95,3.26c0.034,7.011,0.244,14.03-0.049,21.028c-0.287,6.887-0.583,13.796-2.078,20.588
	c-1.06,4.816-2.815,9.366-4.7,13.887c-2.341,5.616-5.104,11.022-8.64,15.974c-3.475,4.865-7.138,9.599-10.818,14.312
	c-1.065,1.364-2.027,2.706-2.573,4.37c-2.006,6.119-5.07,11.67-9.085,16.705c-2.58,3.234-5.877,5.533-9.527,7.354
	c-4.387,2.188-8.994,3.119-13.958,3.084c-6.518-0.046-12.82-1.272-19.149-2.5c-3.965-0.77-7.905-1.677-11.885-2.354
	c-1.902-0.323-3.87-0.316-5.811-0.352c-2.959-0.054-5.924,0.091-8.879-0.035c-6.963-0.296-13.827,0.514-20.638,1.788
	c-6.567,1.229-13.075,2.78-19.65,3.954c-6.267,1.119-12.579,1.988-18.886,2.86c-3.535,0.489-7.1,0.769-10.652,1.128
	c-0.695,0.07-1.397,0.1-2.096,0.101c-5.53,0.008-11.063,0.108-16.591-0.023c-5.992-0.143-11.947-0.745-17.682-2.658
	c-5.481-1.828-9.941-5.061-13.274-9.811c-0.219-0.312-0.473-0.599-0.746-0.94c-2.73,0.385-5.404,0.84-8.095,1.123
	c-4.09,0.429-8.186,0.95-12.29,1.064c-53.878,1.506-107.769,0.302-161.653,0.706c-1.776,0.014-3.563,0.199-5.325,0.446
	c-7.043,0.99-12.953-1.107-17.388-6.671c-4.507-5.653-5.221-12.012-2.447-18.638c2.087-4.985,5.886-8.314,10.955-10.18
	c0.725-0.267,1.47-0.48,2.202-0.728c0.057-0.019,0.088-0.111,0.262-0.346c-2.194-3.186-4.389-6.462-6.673-9.674
	c-5.816-8.18-11.513-16.459-16.414-25.207c-4.574-8.164-7.97-16.867-8.965-26.305c-0.325-3.086-0.559-6.192-0.629-9.293
	c-0.217-9.564-0.361-19.13-0.458-28.696c-0.013-1.307-0.43-2.141-1.435-2.942c-4.615-3.682-6.822-8.588-6.839-14.429
	c-0.047-15.734,0.011-31.469-0.026-47.203c-0.023-9.485,6.695-17.158,15.544-18.463c0.527-0.078,1.041-0.253,1.658-0.407
	c0.056-1.048,0.109-2.039,0.174-3.237c25.836,0,51.665,0,77.726,0c0.549-2.956,1.076-5.755,1.585-8.558
	c0.125-0.688,0.198-1.388,0.287-2.082c0.386-3.029-0.024-5.895-1.71-8.512c-0.711-1.104-1.374-2.238-2.164-3.532
	c4.354-4.136,4.887-9.537,5.129-15.059c0.15-3.415,0.448-6.822,0.698-10.515c-1.094-0.055-2.071-0.146-3.047-0.146
	c-26.25-0.008-52.5-0.006-78.749-0.006c-0.999,0-1.999,0-3.042,0c-1.073-7.12-0.021-13.926,0.522-21.002c29.109,0,58.049,0,87.182,0
	c0.395-3.623,0.89-7.017,0.47-10.422c-1.226-9.963-2.567-19.911-3.836-29.868c-0.333-2.617-0.568-5.247-0.872-8.098
	c-26.08,0-52.144,0-78.272,0c0-0.908,0-1.584,0-2.391c-2.823-0.826-5.527-1.931-7.848-3.854c-4.267-3.536-6.646-8.104-6.699-13.562
	c-0.148-15.188-0.091-30.377-0.014-45.566c0.014-2.698,0.493-5.396,0.799-8.09c0.438-3.853,0.849-7.711,1.387-11.55
	c1.52-10.829,3.063-21.655,4.672-32.471c0.594-3.989,1.417-7.945,2.097-11.923c0.417-2.442,0.749-4.898,1.142-7.345
	c1.445-8.994,9.479-15.555,18.706-15.198c2.917,0.113,5.675,0.882,8.219,2.347c0.666,0.383,1.321,0.785,2.212,1.316
	c0.456-1.168,0.873-2.226,1.281-3.286c2.094-5.438,4.002-10.955,6.321-16.295c3.821-8.804,10.233-15.504,17.944-21.043
	c4.609-3.311,9.429-6.365,13.796-9.969c6.229-5.139,12.223-10.574,18.134-16.08c3.58-3.335,6.781-7.073,10.212-10.572
	C304.136,226.532,307.373,223.39,310.86,219.933z"/>
<path fill="#8E908F" d="M394.245,190.903c3.631,0,7.263-0.02,10.894,0.008c1.998,0.015,3.995,0.146,5.992,0.157
	c2.31,0.012,4.62-0.064,6.93-0.078c1.919-0.011,3.837,0.024,5.756,0.018c1.623-0.005,3.244-0.042,4.866-0.061
	c6.286-0.073,12.572-0.23,18.856-0.177c2.781,0.023,5.565,0.417,8.335,0.746c5.404,0.641,10.799,1.357,16.197,2.038
	c3.473,0.438,6.949,0.849,10.418,1.319c0.681,0.092,1.363,0.332,1.992,0.62c6.803,3.118,13.425,6.555,19.476,11.011
	c0.972,0.716,1.724,1.488,2.108,2.673c1.126,3.461,2.613,6.773,2.413,10.604c-0.204,3.906-1.939,6.868-4.815,9.193
	c-2.352,1.901-4.969,3.473-7.433,5.24c-0.74,0.531-1.504,1.129-2.016,1.864c-8.564,12.29-18.159,23.742-28.392,34.653
	c-5.022,5.356-10.637,10.028-17.406,13.152c-1.433,0.661-2.585,1.908-3.992,2.645c-1.202,0.629-2.561,1.023-3.895,1.319
	c-1.089,0.241-2.358-0.287-3.217,0.875c-0.097,0.131-0.42,0.132-0.638,0.129c-5.595-0.082-11.191-0.15-16.786-0.271
	c-2.716-0.059-5.463,0.013-8.139-0.375c-8.458-1.225-16.969-2.328-24.378-7.197c-4.789-3.146-9.034-6.923-12.773-11.209
	c-9.161-10.501-18.136-21.161-26.118-32.609c-0.781-1.12-1.752-1.899-2.907-2.605c-3.379-2.068-6.688-4.221-9.561-7.02
	c-3.744-3.647-4.078-7.984-3.022-12.71c0.034-0.151,0.101-0.294,0.151-0.442c2.242-6.596,2.198-6.675,8.319-10.067
	c5.172-2.866,10.471-5.501,15.694-8.276c2.434-1.293,5.13-1.168,7.73-1.531c5.311-0.743,10.625-1.483,15.955-2.055
	C385.302,192.003,389.683,190.634,394.245,190.903z"/>
</svg>
