<?xml version="1.0" encoding="utf-8"?>
<!-- Generator: Adobe Illustrator 16.0.0, SVG Export Plug-In . SVG Version: 6.00 Build 0)  -->
<!DOCTYPE svg PUBLIC "-//W3C//DTD SVG 1.1//EN" "http://www.w3.org/Graphics/SVG/1.1/DTD/svg11.dtd" [
	<!ENTITY ns_flows "http://ns.adobe.com/Flows/1.0/">
	<!ENTITY ns_extend "http://ns.adobe.com/Extensibility/1.0/">
	<!ENTITY ns_ai "http://ns.adobe.com/AdobeIllustrator/10.0/">
	<!ENTITY ns_graphs "http://ns.adobe.com/Graphs/1.0/">
	<!ENTITY ns_vars "http://ns.adobe.com/Variables/1.0/">
	<!ENTITY ns_imrep "http://ns.adobe.com/ImageReplacement/1.0/">
	<!ENTITY ns_sfw "http://ns.adobe.com/SaveForWeb/1.0/">
	<!ENTITY ns_custom "http://ns.adobe.com/GenericCustomNamespace/1.0/">
	<!ENTITY ns_adobe_xpath "http://ns.adobe.com/XPath/1.0/">
]>
<svg version="1.1" id="Layer_1" xmlns:x="&ns_extend;" xmlns:i="&ns_ai;" xmlns:graph="&ns_graphs;"
	 xmlns="http://www.w3.org/2000/svg" xmlns:xlink="http://www.w3.org/1999/xlink" xmlns:a="http://ns.adobe.com/AdobeSVGViewerExtensions/3.0/"
	 x="0px" y="0px" width="850.391px" height="850.39px" viewBox="0 0 850.391 850.39" enable-background="new 0 0 850.391 850.39"
	 xml:space="preserve">
<metadata><?xpacket begin="﻿" id="W5M0MpCehiHzreSzNTczkc9d"?>
<x:xmpmeta xmlns:x="adobe:ns:meta/" x:xmptk="Adobe XMP Core 5.3-c011 66.145661, 2012/02/06-14:56:27        ">
   <rdf:RDF xmlns:rdf="http://www.w3.org/1999/02/22-rdf-syntax-ns#">
      <rdf:Description rdf:about=""
            xmlns:xmp="http://ns.adobe.com/xap/1.0/"
            xmlns:xmpGImg="http://ns.adobe.com/xap/1.0/g/img/">
         <xmp:CreatorTool>Adobe Illustrator CS6 (Macintosh)</xmp:CreatorTool>
         <xmp:CreateDate>2019-09-30T19:41:33+08:00</xmp:CreateDate>
         <xmp:MetadataDate>2019-09-30T19:41:33+08:00</xmp:MetadataDate>
         <xmp:ModifyDate>2019-09-30T19:41:33+08:00</xmp:ModifyDate>
         <xmp:Thumbnails>
            <rdf:Alt>
               <rdf:li rdf:parseType="Resource">
                  <xmpGImg:width>188</xmpGImg:width>
                  <xmpGImg:height>256</xmpGImg:height>
                  <xmpGImg:format>JPEG</xmpGImg:format>
                  <xmpGImg:image>/9j/4AAQSkZJRgABAgEASABIAAD/7QAsUGhvdG9zaG9wIDMuMAA4QklNA+0AAAAAABAASAAAAAEA&#xA;AQBIAAAAAQAB/+4ADkFkb2JlAGTAAAAAAf/bAIQABgQEBAUEBgUFBgkGBQYJCwgGBggLDAoKCwoK&#xA;DBAMDAwMDAwQDA4PEA8ODBMTFBQTExwbGxscHx8fHx8fHx8fHwEHBwcNDA0YEBAYGhURFRofHx8f&#xA;Hx8fHx8fHx8fHx8fHx8fHx8fHx8fHx8fHx8fHx8fHx8fHx8fHx8fHx8fHx8f/8AAEQgBAAC8AwER&#xA;AAIRAQMRAf/EAaIAAAAHAQEBAQEAAAAAAAAAAAQFAwIGAQAHCAkKCwEAAgIDAQEBAQEAAAAAAAAA&#xA;AQACAwQFBgcICQoLEAACAQMDAgQCBgcDBAIGAnMBAgMRBAAFIRIxQVEGE2EicYEUMpGhBxWxQiPB&#xA;UtHhMxZi8CRygvElQzRTkqKyY3PCNUQnk6OzNhdUZHTD0uIIJoMJChgZhJRFRqS0VtNVKBry4/PE&#xA;1OT0ZXWFlaW1xdXl9WZ2hpamtsbW5vY3R1dnd4eXp7fH1+f3OEhYaHiImKi4yNjo+Ck5SVlpeYmZ&#xA;qbnJ2en5KjpKWmp6ipqqusra6voRAAICAQIDBQUEBQYECAMDbQEAAhEDBCESMUEFURNhIgZxgZEy&#xA;obHwFMHR4SNCFVJicvEzJDRDghaSUyWiY7LCB3PSNeJEgxdUkwgJChgZJjZFGidkdFU38qOzwygp&#xA;0+PzhJSktMTU5PRldYWVpbXF1eX1RlZmdoaWprbG1ub2R1dnd4eXp7fH1+f3OEhYaHiImKi4yNjo&#xA;+DlJWWl5iZmpucnZ6fkqOkpaanqKmqq6ytrq+v/aAAwDAQACEQMRAD8A655n/NScSy2eiIEVGKG9&#xA;ejE02rGvSngTX5YoYTc+ZPMF0T6+o3Lg/smVwv8AwINMVS5mZmLMSzHqTucVaxV2Kou31fVrb/ee&#xA;9nhp09OV1/URirKfL35n61YSLHqJOoWldy1BMo8Vf9r5N94xV65aXMN1aw3UDcoZ0WSNvFWFRilV&#xA;xV2KuxV2KuxV2KuxV2KuxV2KuxV2KuxV2KuxV2KvCfNPk/UtAuD6qmSxdqQXS/ZPcK38rU7fdihI&#xA;MVdirsVdirsVTHQ9A1LW70WlhHyYbySMaIi1pyY/5nFXvGj6cum6Va2AcyC2iWMue5Ubn78UozFX&#xA;Yq7FXYq7FXYq7FXYq7FXYq7FXYq7FXYq7FXYqhdV0y01SwmsbtOcEy0bxB7MvuDuMVeD+YdBvND1&#xA;OSxuhWnxQygUWSM9GH8ffFCWYq7FXYqr2dnc3t1Fa2sZluJmCxoOpJxV7n5S8s2+gaWtstHupKPd&#xA;zD9p/Af5K9BilO8VdirsVdirsVdirsVdirsVdirsVdirsVdirsVdirsVdiqTeavLFn5g042837u4&#xA;jq1tcUqUb+KnuMVeMa15Z1rR5mjvbZ1QH4Z1BaJh4hxt/HFCVYqitO0y/wBSuVtbGBp52/ZQdB4k&#xA;9APc4q9h8keSIdAgNxclZdUlFHcbrGp/YT+JxSyrFXYq7FXYq7FXYq7FXYq7FXYq7FXYq7FXYq7F&#xA;XYq7FXYq7FXYq7FUO2m6cxLNawknqTGpP6sVVIbe3gBWGJIlO5CKFBP0YqqYq7FXYq7FXYq7FXYq&#xA;7FXYq7FXYq7FXYq7FXYq7FXYq7FXYq7FXYq7FXYq7FXYq7FXYq7FXYq7FXYq7FWmZVUsxCqoqzHY&#xA;ADFXyN5+/NvzTrHmy5vNL1a5stNtpWj02K2leJfSQ0V2CEcmf7R5V606YWBKvpP/ADkD+ZlhxEt7&#xA;DqEa9Eu4EO3u0XpOf+CxW2YaZ/zlNeLxXU9Ajk/mktp2jp8kdJK/8HjSeJ6n5N/NfyX5sVY7C8EF&#xA;+3XT7qkU9f8AJFSr/wCwJwJBZhil2KuxV2KuxV2KuxV2KuxV2KuxV2KuxV2KuxV2KuxV2KuxV5h+&#xA;fXn6Py75WfSbWWmr6yjQxhT8UdudpZD4VHwL7mo+zigl8qYWDsVdirgSpDKaEbgjqDir178svz81&#xA;jRbiLTfM00mo6MxCi7er3NuOx5fakTxB38PArIF9LWV7aX1pDeWcqz2twiyQTIaq6MKhgffAyVsV&#xA;dirsVdirsVdirsVdirsVdirsVdirsVdirsVdiqE1fVbHSdLutTvpPSs7OJpp360VBU0HcnoBir4s&#xA;87ebL7zX5kvNavCR67Ut4SaiKBT+7jH+qOvianvhaykeKuxV2KuxV2KvX/yG/NJ9D1FPLWrzH9DX&#xA;z0s5XO1vO52FT0jkPXsDv44sgX03gZOxV2KuxV2KuxV2KuxV2KuxV2KuxV2KuxV2KuxV4r/zk15p&#xA;e00Gw8uwSUfU5DPdqOvowEFFPs0hB/2OEMZPm/Fi7FXYq7FXYq7FXYq+2fy91S41XyPoeoXNTcT2&#xA;cRmY7lnVeLNv/MRXAzDIcUuxV2KuxV2KuxV2KuxV2KuxV2KuxV2KuxV2Kvmn/nKC3mXzlpdwf7iT&#xA;TljTw5xzylvwkXCGMnjeLF2KuxV2KuxV2Ko3Q7CLUdb0/T5pRBFeXMMEk7GiossgQuT4KDXFX3Ra&#xA;2tvaWsNrbRiK3t0WKGJdlVEAVVHsAMDYq4q7FXYq7FXYq7FXYq7FXYq7FXYq7FXYq7FXYq8o/wCc&#xA;ifJtxrflOLV7RedzobPNIg6tbSAesR/qcFb5A4oIfLmFg7FXYq7FXYq7FXYq+xvyf82v5n8iWF5O&#xA;/qX1rWzvmJqTLCAAx93Qqx9zgZhmmKXYq7FXYq7FXYq7FXYq7FXYq7FXYq7FXYq7FVsqxtG6ygGI&#xA;ghw1OJWm9a9sVfC/mGbTJte1GXS4RBpr3MrWUIJIWEufTG9T9mmFrS/FXYq7FXYq7FXYq9o/5xl8&#xA;zG18w33l6V6Q6lF69sp/3/B9oD/WjJJ/1cSyi+ksDJ2KuxV2KuxV2KuxV2KuxV2KuxV2KuxV2Kux&#xA;Vhv5wa/+g/y71i6R+FxPF9Ut/HncH0zx91Rmb6MUF8b4WDsVdirsVdirsVdiqc+TdebQPNWlayCQ&#xA;tlcxyTU6mKvGVf8AZRlhiofcCOjoroQyMAVYbgg7g4GxvFXYq7FXYq7FXYq7FXYq7FXYq7FXYq7F&#xA;XYq8O/5yk1Tho+h6UD/vRcS3LD/jAgRa/wDI84Qxk+dsWLsVdirsVdirsVdirsVfan5ZamdT/L/Q&#xA;LxiWdrKKORj1Lwr6Tn6WQ4GYZNil2KuxV2KuxV2KuxV2KuxV2KuxV2KuxV2Kvmf/AJyfuJG86aZb&#xA;H+6j01JFHflJPKG/CMYQxk8dxYuxV2KuxV2KuxV2KuxV9kfk7AYfyy8voa725fcU/vJGf/jbAzDM&#xA;sUuxV2KuxV2KuxV2KuxV2KuxV2KuxV2KuxV8wf8AOTNu8fn61lO6zadEVNNqrLKpH4YQwk8kxQ7F&#xA;XYq7FXYq7FXYq7FX2n+WH/ku/Ln/AGz4P+IDAzDJ8UuxV2KuxV2KuxV2KuxV2KuxV2KuxV2KuxV8&#xA;5/8AOUlsF13Q7nastrLHXev7uQN06f7swhjJ4jixdirsVdirsVdirsVdir7W/LWJo/y98uK3U6da&#xA;tt4PErD8DgZhkmKXYq7FXYq7FXYq7FXYq7FXYq7FXYqx/XvM0+m3ot0hWRSgfkxIO5I7fLNF2j2t&#xA;LT5OARB2tyMWESFpb/jq7/5ZY/8AgmzA/wBEU/5gbPyw73j3/OQ+sy6tDoUskSxG3a5UcSTX1BEd&#xA;6/6mbXsvtKWpMgQBVOPnxcNPGM3Djsi8ueRNb8wWUl5YNAIo5DCwlcq3IKrdArbUbNdrO08WnkIz&#xA;uyL2bceEyFhNf+VP+bP57X/kY3/NGYv8v6f+l8v2tn5WTv8AlT/mz+e1/wCRjf8ANGP8v6f+l8v2&#xA;r+Vk7/lT/mz+e1/5GN/zRj/L+n/pfL9q/lZO/wCVP+bP57X/AJGN/wA0Y/y/p/6Xy/av5WTGNe0O&#xA;80TUW0+8aNrhFVn9JiwHIVAqQu9M2el1Mc8OON15tM4GJopfmQwfVfkTzreQ+S9Dh+rowhsbeINU&#xA;iojjCj8BnM6nt2ePJKAiPSac2GnBANp7/jq7/wCWWP8A4Jso/wBEU/5gZ/lh3sp+tt+jfrfEcvR9&#xA;Xj2rw5UzpPGPg+J/Rv7LcXh9VInMhi7FXYq7FXYq7FXYq7FXYq7FWC+dP+Owv/GFf1tnGdv/AOMf&#xA;5o/S52n+lIc0je88/OiKuh2EtD8Nzxr2+KNj/wAa50Hs6f3sh/R/S4ur+kPIM69wHrX5KzV03Uof&#xA;5Jkf/g0I/wCNM5P2jj64Hyc7SHYvSM5xy3Yq7FXYq+cvNWonUfMeo3larJO4jP8AkIeCf8Koz0XQ&#xA;4fDwxj3D+11OSVyJSrMpg+iPJn/KJ6T/AMwsX/ERnnnaP+MT/rF2uL6QnWYbY9I/6Z7/AKNP+ZWd&#xA;/wD8hf8Akn/vXXfx/FMMz2t2KuxV2KuxV2KuxV2KuxV2KsF86f8AHYX/AIwr+ts4zt//ABj/ADR+&#xA;lztP9KQ5pG9g35wxF/KkTD/dV3G5+lHX/jbN57PyrUHzif0ONqh6Xi2dm69l35fec7Pyy999ahlm&#xA;S7EXERcagx8+vIj+fNR2r2dLU8PCQOG+fnTfgyiF2zL/AJXRoP8Ayw3X/JP/AJqzT/6Hcv8AOj9v&#xA;6nI/Nx7nf8ro0H/lhuv+Sf8AzVj/AKHcv86P2/qX83Hud/yujQf+WG6/5J/81Y/6Hcv86P2/qX83&#xA;HuWS/nPopicR2V0JCp4E+nStNv2jhj7O5b3lH7V/NR7nkWdc4DsVfQnkQk+T9Kqa/uAPuJzz7tP/&#xA;ABifvdph+gJ9mC2vSP8Apnv+jT/mVnf/APIX/kn/AL1138fxTDM9rdirsVdirsVdirsVdirsVdir&#xA;zD8x9aay8wrCIg4MCNXlTqW9jmo13ZMdRPjMiNqboZjEUxb/ABQ//LOP+D/szD/0Ow/nln+aPcxf&#xA;8yNbe88sSQ+jwHqxsWDV6H5ZmaLsiODJxiRLXlzmQqnkubhxkx0HR/0tfG19b0aIX58efQgUpVfH&#xA;FIZD/wAq6/7WH/JH/m/G1p3/ACrr/tYf8kf+b8bWnf8AKuv+1h/yR/5vxtaWT/l96UMkv1+vBS1P&#xA;RpWgr/Pja0xDFDsVey+R9fa28q6fAIAwRGHLlStZGPhmj1XYkM2QzMiLcrHqDEVSe/4of/lnH/B/&#xA;2Zj/AOh2H88s/wA0e57D65/wl9Ypv9Q9Tj/zxrTN74I8Lw/6NfZTRxb2m+XMXYq7FXYq7FXYq7FX&#xA;Yq7FXYq8e/Nj/lKE/wCYaP8A4k+KGF4qknnNSfLtyf5TGT/yMUfxxCC81wsU68mz+l5gtx2kDofp&#xA;UkfiMSkPS8DJ2KuxVSvAWtJwNyY2AH+xOKvH8LB2KvUvLAA0CyA/33X7yTgZBM8Uvef+mI/7dn/Y&#xA;vilPMVdirsVdirsVdirsVdirsVdirx782P8AlKE/5ho/+JPihheKpP5vUt5dvAPBD90inFBeZYWK&#xA;I0+8eyvYbpFDtC3IKehxVkn/ACsO9/5ZI/8AgmxpNu/5WHe/8skf/BNjS27/AJWHe/8ALJH/AME2&#xA;NLbT/mBeMjL9Uj+IEfabvjS2xTFDsVepeWf+ODZf8Yx+s4GQTPFL3n/piP8At2f9i+KU8xV2KuxV&#xA;2KuxV2KuxV2KuxV2KsY8yeQNN17UBfXNxNFII1j4x8eNFJNdwfHFUq/5VBon/Lbc/wDJP/mnFWLf&#xA;mf8AllpmmeQ9Xv7e5uJZreJXVG4cSPUUGtFB2G+KC+asLB2KuxV2KuxV2KuxV2Kvpr8uPyx0nU/I&#xA;+jX8t1cJJcW4dkThxBqelVOBmGSf8qg0T/ltuf8Akn/zTilmP6Ni/RP6M5N6X1f6tz25ceHCvhWm&#xA;KovFXYq7FXYq7FXYq7FXYq7FXYq7FXYqx38x7T615A8xQ0qTp1yyilaskTOv4rigvifCwdirsVdi&#xA;rsVdirsVdir7N/KaN4/y28vK4oTZo30NVh+BwMwy3FLsVdirsVdirsVdirsVdirsVdirsVdirsVQ&#xA;Ov2wutC1G2PSe1miNf8ALjZe3zxV8J4Wt2KuxV2KuxV2KuxV2KvtzyBZSWPkfQLWQ/vItPtg/s3p&#xA;KSPoOBsCfYq7FXYq7FXYq7FXYq7FXYq7FXYq7FXYq7FXEAggioOxBxV8C9MLW7FXYq7FXYq7FXYq&#xA;nnkjy1N5l816bosYPG6mUTsOqwr8UrfQgNPfFQ+3I40jjWONQqIAqKOgAFAMDYuxV2KuxV2KuxV2&#xA;KuxV2KuxV2KuxV2KuxV2KuxV8H6tY3Fhqt5Y3NfrNrPJDNy6843KtWvuMLWhcVdirsVdirsVdir3&#xA;r/nF3QLd5NZ1+VOU0XCytmI+yGHqS07VPwf5nEsovoDAydirsVdirsVdirsVdirsVdirsVdirsVd&#xA;irsVdir4n/MW6iuvPvmGeL+7bULkKfELKy138aVwsCx3FDsVdirsVdirsVfS3/OMeoaY/lHUNPhe&#xA;mow3jT3UZ6lJY0WNh/k/uyPn88Syi9kwMnYq7FXYq7FXYq7FXYq7FXYq7FXYq7FXYq7FXYq+LvzH&#xA;8naz5Y8z3tvfwyfV5p5JLO8YfBNGzFlYN05UPxDscLAhi2KHYq7FXYq7FXYqz78jvMv6D/MTT+QJ&#xA;g1Q/o6UDxuGURn6JQuKQ+vMDN2KuxV2KuxV2KuxV2KuxV2KuxV2KuxV2KuxV2KqVza2t1C0F1Ck8&#xA;D7PFKodD81YEYqw/VfyZ/LPU2LzaHDDIf2rUvbD/AIGFkT8MUUkF3/zjb+XU5Jia/tK9oZ1NN/8A&#xA;i2OTG14VEf8AOM35fh2Y3WpENWiGaGi18KQ1+842vC8C/MDyVfeT/MtxpFzV4R+8srkigmgYng/z&#xA;24t7g4WJDHMUOxVO/Isoh87+XpSKiPU7NyB343CHFQ+38DY7FXYq7FXYq7FXYq7FXYq7FXYq7FXY&#xA;q7FXYq7FXYq7FXYq7FWC/m7+XcXnPy20cCKNasQ0umymgqafHCSf2ZAPoNDigh8m6toWtaPP6Gq2&#xA;FxYy9kuIniJp3HICo9xhYKlj5Z8yagiyWGk3l3G/2Hgt5ZAfkUU4q9e/J38kNXfU7PzJ5kiewt7O&#xA;VZrTTpUKzySRmqtIrUMaqwBoRU+w6rIB9FYGTsVdir//2Q==</xmpGImg:image>
               </rdf:li>
            </rdf:Alt>
         </xmp:Thumbnails>
      </rdf:Description>
      <rdf:Description rdf:about=""
            xmlns:xmpTPg="http://ns.adobe.com/xap/1.0/t/pg/"
            xmlns:stDim="http://ns.adobe.com/xap/1.0/sType/Dimensions#"
            xmlns:xmpG="http://ns.adobe.com/xap/1.0/g/">
         <xmpTPg:MaxPageSize rdf:parseType="Resource">
            <stDim:w>299.998915</stDim:w>
            <stDim:h>299.998743</stDim:h>
            <stDim:unit>Millimeters</stDim:unit>
         </xmpTPg:MaxPageSize>
         <xmpTPg:NPages>1</xmpTPg:NPages>
         <xmpTPg:HasVisibleTransparency>False</xmpTPg:HasVisibleTransparency>
         <xmpTPg:HasVisibleOverprint>False</xmpTPg:HasVisibleOverprint>
         <xmpTPg:PlateNames>
            <rdf:Seq>
               <rdf:li>Cyan</rdf:li>
               <rdf:li>Magenta</rdf:li>
               <rdf:li>Yellow</rdf:li>
               <rdf:li>Black</rdf:li>
            </rdf:Seq>
         </xmpTPg:PlateNames>
         <xmpTPg:SwatchGroups>
            <rdf:Seq>
               <rdf:li rdf:parseType="Resource">
                  <xmpG:groupName>Default Swatch Group</xmpG:groupName>
                  <xmpG:groupType>0</xmpG:groupType>
               </rdf:li>
            </rdf:Seq>
         </xmpTPg:SwatchGroups>
      </rdf:Description>
      <rdf:Description rdf:about=""
            xmlns:dc="http://purl.org/dc/elements/1.1/">
         <dc:format>image/svg+xml</dc:format>
      </rdf:Description>
      <rdf:Description rdf:about=""
            xmlns:xmpMM="http://ns.adobe.com/xap/1.0/mm/"
            xmlns:stRef="http://ns.adobe.com/xap/1.0/sType/ResourceRef#"
            xmlns:stEvt="http://ns.adobe.com/xap/1.0/sType/ResourceEvent#">
         <xmpMM:DerivedFrom rdf:parseType="Resource">
            <stRef:instanceID>xmp.iid:F83F1AA85321681180839FCCDFDC130E</stRef:instanceID>
            <stRef:documentID>xmp.did:F83F1AA85321681180839FCCDFDC130E</stRef:documentID>
            <stRef:originalDocumentID>xmp.did:F63F1AA85321681180839FCCDFDC130E</stRef:originalDocumentID>
         </xmpMM:DerivedFrom>
         <xmpMM:DocumentID>xmp.did:F93F1AA85321681180839FCCDFDC130E</xmpMM:DocumentID>
         <xmpMM:InstanceID>xmp.iid:F93F1AA85321681180839FCCDFDC130E</xmpMM:InstanceID>
         <xmpMM:OriginalDocumentID>xmp.did:F63F1AA85321681180839FCCDFDC130E</xmpMM:OriginalDocumentID>
         <xmpMM:History>
            <rdf:Seq>
               <rdf:li rdf:parseType="Resource">
                  <stEvt:action>saved</stEvt:action>
                  <stEvt:instanceID>xmp.iid:F63F1AA85321681180839FCCDFDC130E</stEvt:instanceID>
                  <stEvt:when>2019-09-30T18:39:11+08:00</stEvt:when>
                  <stEvt:softwareAgent>Adobe Illustrator CS6 (Macintosh)</stEvt:softwareAgent>
                  <stEvt:changed>/</stEvt:changed>
               </rdf:li>
               <rdf:li rdf:parseType="Resource">
                  <stEvt:action>saved</stEvt:action>
                  <stEvt:instanceID>xmp.iid:F93F1AA85321681180839FCCDFDC130E</stEvt:instanceID>
                  <stEvt:when>2019-09-30T19:41:33+08:00</stEvt:when>
                  <stEvt:softwareAgent>Adobe Illustrator CS6 (Macintosh)</stEvt:softwareAgent>
                  <stEvt:changed>/</stEvt:changed>
               </rdf:li>
            </rdf:Seq>
         </xmpMM:History>
      </rdf:Description>
   </rdf:RDF>
</x:xmpmeta>
                                                                                                    
                                                                                                    
                                                                                                    
                                                                                                    
                                                                                                    
                                                                                                    
                                                                                                    
                                                                                                    
                                                                                                    
                                                                                                    
                                                                                                    
                                                                                                    
                                                                                                    
                                                                                                    
                                                                                                    
                                                                                                    
                                                                                                    
                                                                                                    
                                                                                                    
                                                                                                    
                           
<?xpacket end="w"?>
	</metadata>
<rect x="266.196" y="507.695" fill="#8E908F" width="310" height="72.221"/>
<rect x="266.196" y="435.474" fill="#D7C834" width="310" height="72.221"/>
<path fill="#3E4545" d="M330.656,280.628c-2.096-3.154-3.838-6.544-5.722-9.839c-0.271-0.471-0.425-1.024-0.76-1.437
	c-2.764-3.397-4.217-7.379-5.22-11.564c-0.614-2.567-0.969-5.225-1.854-7.693c-1.042-2.903-1.479-5.827-1.513-8.868
	c-0.016-1.391-0.314-2.788-0.229-4.167c0.151-2.462,0.281-4.961,0.819-7.355c0.623-2.77,1.634-5.457,2.555-8.153
	c0.949-2.776,1.758-5.635,3.044-8.252c2.82-5.742,5.248-11.685,8.75-17.089c2.053-3.168,3.794-6.537,5.814-9.727
	c3.854-6.084,8.071-11.955,11.645-18.198c2.987-5.222,5.318-10.826,7.841-16.306c1.159-2.521,2.075-5.154,3.109-7.734
	c1.363-3.402,3.566-6.083,6.518-8.302c2.814-2.115,5.673-2.182,8.776-1.059c1.523,0.552,3.016,1.267,4.587,1.597
	c4.929,1.037,9.896,1.904,14.837,2.88c6.551,1.293,13.091,2.643,19.644,3.932c1.898,0.374,3.812,0.775,5.736,0.904
	c5.699,0.382,10.871,2.269,15.792,5.071c2.068,1.178,4.289,2.09,6.444,3.113c2.799,1.329,5.638,2.578,8.392,3.994
	c2.125,1.092,4.049,2.619,6.233,3.546c4.479,1.901,8.208,4.872,12.004,7.78c0.798,0.612,1.722,1.081,2.444,1.766
	c3.087,2.929,6.145,5.889,9.16,8.892c1.097,1.092,1.976,2.404,3.079,3.489c2.036,2.004,3.977,4.027,5.682,6.383
	c4.4,6.081,9.142,11.918,13.073,18.33c0.667,1.088,1.251,2.422,1.289,3.662c0.088,2.796,0.752,5.344,2.167,7.733
	c0.272,0.461,0.336,1.053,0.626,1.498c1.732,2.654,0.989,5.392-0.284,7.743c-1.585,2.922-3.228,5.802-4.407,8.91
	c-0.96,2.526-2.082,5.048-2.581,7.677c-0.59,3.115-0.636,6.283,1.652,9.056c1.52,1.842,2.455,4.071,3.301,6.35
	c1.102,2.971,2.598,5.793,3.854,8.709c0.796,1.844,1.511,3.726,2.175,5.621c0.896,2.552,1.658,5.15,2.568,7.696
	c1.431,4,3.022,7.942,4.387,11.963c1.768,5.21,3.385,10.472,5.047,15.717c0.422,1.33,0.752,2.689,1.153,4.025
	c1.518,5.038,3.251,10.021,4.513,15.122c1.169,4.726,1.687,9.609,2.772,14.359c0.789,3.448,1.138,6.878,1.033,10.392
	c-0.071,2.412,0.303,4.889-0.121,7.228c-0.723,3.994-0.295,8.024-0.979,12.052c-0.796,4.701-0.396,9.606-0.513,14.415
	c-0.332,13.529-0.053,27.071-0.702,40.599c-0.097,1.998,0.364,4.016,0.417,6.025c0.354,13.287-0.45,26.58,0.548,39.877
	c0.562,7.498,0.145,15.051,0.771,22.586c0.604,7.27,0.486,14.604,0.535,21.908c0.023,3.801-0.367,7.6-0.416,11.4
	c-0.076,5.842-0.021,11.686-0.021,17.525c0,5.92-0.11,11.842,0.031,17.758c0.139,5.812-0.521,11.617-0.045,17.428
	c0.051,0.611-0.063,1.238-0.12,1.855c-0.104,1.158-0.404,2.33-0.296,3.465c0.221,2.314,0.207,4.598-0.013,6.91
	c-0.21,2.213,0.511,4.428,0.031,6.68c-0.166,0.775,0.314,1.668,0.277,2.498c-0.173,3.873-0.501,7.738-0.623,11.613
	c-0.108,3.477-0.014,6.961-0.03,10.441c-0.004,0.773-0.033,1.561-0.163,2.322c-0.735,4.355-1.827,8.678-2.184,13.062
	c-0.449,5.52-2.369,10.543-4.286,15.594c-1.566,4.129-3.309,8.195-5.081,12.24c-0.993,2.266-2.139,4.473-3.34,6.637
	c-1.265,2.277-1.987,4.668-2.262,7.258c-0.393,3.693-0.862,7.385-1.441,11.055c-0.58,3.678-1.24,7.35-2.061,10.979
	c-0.335,1.48,0.143,2.564,0.817,3.713c0.746,1.264,1.521,2.512,2.216,3.805c0.952,1.77,1.73,3.623,3.102,5.162
	c0.593,0.668,0.996,1.566,1.283,2.428c0.588,1.766,1.424,3.57,1.461,5.373c0.062,3.121,1.807,5.355,3.251,7.799
	c0.158,0.268,0.34,0.52,0.517,0.777c0.866,1.258,1.213,2.621,1.19,4.168c-0.065,4.361-0.062,8.725-0.01,13.086
	c0.036,3.025-0.186,6.129,0.409,9.057c0.581,2.855,1.227,5.535-0.105,8.291c0.449,2.693-0.379,4.832-2.7,6.369
	c-0.368,0.244-0.542,0.762-0.875,1.084c-0.499,0.48-1.03,0.939-1.598,1.338c-1.138,0.797-2.37,1.465-3.452,2.328
	c-2.732,2.18-5.389,4.455-8.109,6.65c-0.518,0.418-1.169,0.861-1.793,0.92c-4.097,0.385-8.211,0.584-12.303,1.006
	c-3.15,0.326-6.326,0.275-9.438,1.24c-4.183,1.301-8.542,1.619-12.921,1.314c-0.998-0.068-2.062-0.182-2.955-0.582
	c-3.507-1.58-7.184-2.484-10.967-3.004c-1.715-0.234-2.901-1.037-3.889-2.514c-7.306-10.93-14.703-21.797-22.01-32.723
	c-0.868-1.301-1.762-1.965-3.382-1.848c-3.467,0.25-6.944,0.34-10.419,0.496c-5.108,0.23-10.229-0.57-15.338,0.182
	c-0.755,0.109-1.553-0.018-2.324-0.096c-2.549-0.258-5.095-0.531-7.64-0.82c-3.385-0.387-6.769-0.795-10.153-1.186
	c-0.531-0.062-1.088-0.205-1.6-0.117c-2.119,0.355-4.162,0.127-6.225-0.439c-1.719-0.471-3.501-0.697-5.242-1.09
	c-2.495-0.561-4.979-1.174-7.47-1.76c-1.438-0.338-2.879-0.668-4.318-0.996c-1.808-0.414-3.635-0.748-5.414-1.256
	c-2.086-0.598-4.147-1.289-6.184-2.039c-2.73-1.006-5.249-2.49-6.989-4.814c-2.434-3.246-4.271-6.855-5.073-10.896
	c-0.104-0.521-0.189-1.078-0.113-1.592c1.117-7.51,2.341-15.002,3.362-22.521c0.39-2.867,0.249-5.703-0.772-8.586
	c-2.104-5.934-3.753-12.02-3.32-18.439c0.066-1.004,0.22-2.002,0.299-3.006c0.042-0.529,0.046-1.066,0.008-1.598
	c-0.084-1.158-0.29-2.312-0.298-3.471c-0.054-7.531,0.248-15.074-0.851-22.572c-0.235-1.605,0-3.271-0.136-4.898
	c-0.357-4.32-0.849-8.631-1.193-12.953c-0.37-4.639-0.62-9.285-0.954-13.928c-0.102-1.389-0.328-2.77-0.458-4.156
	c-0.209-2.236-0.339-4.482-0.588-6.717c-0.207-1.848-0.682-3.674-0.786-5.523c-0.289-5.115-0.503-10.238-0.626-15.359
	c-0.043-1.771,0.442-3.555,0.381-5.322c-0.131-3.639-0.573-7.266-0.698-10.902c-0.238-6.992,0.209-13.988-0.437-20.986
	c-0.49-5.326-0.479-10.699-0.688-16.053c-0.004-0.078-0.005-0.156-0.009-0.234c-0.254-4.566-0.527-9.133-0.753-13.701
	c-0.157-3.182-0.273-6.363-0.359-9.549c-0.052-1.93-0.028-3.859-0.005-5.791c0.015-1.16,0.312-2.357,0.107-3.471
	c-1.026-5.598-0.834-11.279-1.288-16.914c-0.273-3.402-0.333-6.82-0.503-10.23c-0.102-2.016-0.199-4.029-0.354-6.041
	c-0.326-4.246-0.712-8.49-1.024-12.738c-0.172-2.32-0.202-4.652-0.37-6.975c-0.318-4.406-0.708-8.809-1.034-13.213
	c-0.185-2.477-0.257-4.961-0.451-7.438c-0.285-3.629-0.7-7.248-0.938-10.879c-0.249-3.782-0.999-7.515-0.922-11.333
	c0.038-1.845-0.396-3.694-0.48-5.547c-0.12-2.612,0.463-5.284-0.811-7.784c-0.164-0.324-0.138-0.766-0.131-1.151
	c0.04-2.478-0.273-4.979,0.571-7.402c0.2-0.575,0.277-1.216,0.29-1.83c0.052-2.466,0.049-4.933,0.08-7.399
	c0.02-1.451-0.202-2.971,0.157-4.336c0.692-2.631,0.975-5.295,1.364-7.968c0.75-5.136,1.771-10.238,2.829-15.323
	c0.963-4.622,1.21-9.425,3.045-13.827c1.296-3.11,1.957-6.36,2.759-9.59c0.336-1.356,0.585-2.741,1.022-4.062
	c2.048-6.17,4.147-12.323,6.23-18.481c0.814-2.408,1.638-4.814,2.394-7.034C333.678,283.936,331.882,282.471,330.656,280.628z
	 M363.314,439.947c1.454,16.107,2.896,32.055,4.345,48.119c36.162,0,72.092,0,108.157,0c0.755-8.32,1.876-16.459,3.874-24.438
	c1.979-7.898,4.146-15.752,6.247-23.682C445.145,439.947,404.382,439.947,363.314,439.947z M475.432,509.681
	c-1.874-0.516-102.325-0.652-105.428-0.156c0.098,1.562,0.276,3.152,0.283,4.744c0.034,9.293,1.855,18.354,3.414,27.459
	c0.469,2.732,0.306,5.57,0.486,8.355c0.155,2.389,0.39,4.771,0.585,7.098c1.829,0.502,98.737,0.611,101.615,0.111
	C476.071,541.429,475.75,525.527,475.432,509.681z"/>
<path fill="#8E908F" d="M74.602,9.717c3.604,0,7.207-0.02,10.811,0.008c1.981,0.015,3.963,0.148,5.944,0.159
	c2.292,0.012,4.584-0.065,6.876-0.079c1.904-0.011,3.809,0.024,5.711,0.018c1.61-0.005,3.22-0.043,4.829-0.062
	c6.237-0.074,12.476-0.233,18.71-0.179c2.761,0.024,5.522,0.422,8.271,0.754c5.362,0.647,10.715,1.371,16.072,2.059
	c3.445,0.442,6.896,0.858,10.337,1.333c0.675,0.093,1.353,0.335,1.977,0.626c6.75,3.15,13.321,6.622,19.325,11.123
	c0.964,0.723,1.71,1.503,2.092,2.7c1.117,3.496,2.593,6.842,2.396,10.711c-0.203,3.945-1.926,6.938-4.778,9.287
	c-2.333,1.921-4.93,3.508-7.375,5.293c-0.734,0.536-1.492,1.141-2,1.883c-8.498,12.415-18.02,23.984-28.172,35.007
	c-4.983,5.411-10.555,10.13-17.271,13.286c-1.421,0.667-2.564,1.927-3.961,2.672c-1.191,0.636-2.541,1.034-3.863,1.333
	c-1.081,0.244-2.341-0.29-3.192,0.884c-0.096,0.132-0.417,0.133-0.633,0.13c-5.552-0.083-11.104-0.152-16.656-0.274
	c-2.695-0.06-5.421,0.013-8.076-0.378c-8.393-1.237-16.837-2.352-24.188-7.27c-4.751-3.178-8.964-6.994-12.675-11.324
	c-9.09-10.608-17.995-21.376-25.916-32.942c-0.774-1.131-1.738-1.918-2.885-2.632c-3.353-2.089-6.636-4.264-9.485-7.091
	c-3.716-3.685-4.048-8.066-2.999-12.84c0.032-0.152,0.1-0.297,0.148-0.446c2.226-6.663,2.181-6.743,8.254-10.17
	c5.132-2.895,10.391-5.558,15.573-8.361c2.415-1.306,5.09-1.18,7.67-1.547c5.271-0.75,10.542-1.499,15.832-2.076
	C65.728,10.828,70.076,9.446,74.602,9.717z"/>
</svg>
