<?xml version="1.0" encoding="utf-8"?>
<!-- Generator: Adobe Illustrator 23.1.1, SVG Export Plug-In . SVG Version: 6.00 Build 0)  -->
<svg version="1.1" id="Layer_1" xmlns="http://www.w3.org/2000/svg" xmlns:xlink="http://www.w3.org/1999/xlink" x="0px" y="0px"
	 viewBox="0 0 850.4 850.4" style="enable-background:new 0 0 850.4 850.4;" xml:space="preserve">
<style type="text/css">
	.st0{fill:#7A2426;}
	.st1{fill:#552E5F;}
</style>
<polyline class="st0" points="526.2,486 345.5,486 345.5,462.7 526.2,462.7 "/>
<polyline class="st0" points="526.2,526.5 345.5,526.5 345.5,503.2 526.2,503.2 "/>
<polyline class="st0" points="526.2,567.9 345.5,567.9 345.5,544.6 526.2,544.6 "/>
<path class="st1" d="M513.7,284.9c1.4,3.7,2.7,7.1,4,10.6c0.4,1.1,0.7,2.2,1.1,3.3c2.3,6.5,4.2,13.1,5.7,19.9
	c0.5,2.3,1.4,4.6,2.2,6.9c1.7,4.9,2.1,10,3.1,15c0.8,3.9,1.5,7.9,2.2,11.9c0.1,0.6,0.2,1.2,0.3,1.8c0.3,2.1,0.5,4.1,1,6.2
	c0.5,2.1,0.2,4.3,0.4,6.5c0.4,3.6,0.1,7.2,1,10.9c0.6,2.4,0.4,5.1-0.7,7.6c-0.3,0.7-0.4,1.5-0.4,2.3c0,3.3-0.1,6.6-0.4,10
	c-0.3,3.4-0.6,6.8-0.9,10.2c-0.4,4-0.7,8-1,12.1c-0.3,3.8-0.5,7.6-0.7,11.4c-0.3,4.9-0.7,9.8-1,14.6c-0.1,2-0.2,4-0.4,6
	c-0.2,2.6-0.5,5.1-0.7,7.6c-0.2,2.2-0.3,4.3-0.4,6.5c-0.1,2.9-0.2,5.8-0.3,8.6c-0.2,2.6-0.4,5.1-0.6,7.6c-0.1,0.8-0.1,1.6-0.1,2.3
	c-0.2,2.6-0.4,5.1-0.5,7.7c0,0.6-0.1,1.2-0.1,1.9c0,4,0.1,7.9,0,11.9c-0.1,3.4-0.4,6.8-0.7,10.2c0,0.3,0,0.6,0,0.9
	c-0.1,4.7-0.1,9.5-0.4,14.2c-0.2,4.6-0.7,9.1-1,13.7c0,0.5,0,0.9,0,1.4c0,8.9,0,17.9-0.6,26.8c-0.1,1.2,0.3,2.5,0.2,3.7
	c-0.2,5.9-0.3,11.8-0.7,17.7c-0.2,3.1-0.8,6.2-1.1,9.2c-0.4,3.7-0.6,7.4-1,11.1c-0.3,3.9-0.7,7.9-1,11.8c-0.3,3.9-0.4,7.8-0.7,11.6
	c-0.3,3.2-0.6,6.5-1,9.7c-0.1,0.6-0.1,1.2-0.1,1.9c0,2,0,4,0,6.1c0,5.5-0.2,11,0,16.6c0.2,6.6-1.2,12.8-3.4,18.9
	c-1,2.7-1.1,5.3-0.7,8c1,7.5,2.2,14.9,3.3,22.3c0.1,1,0,2-0.3,3c-0.8,3.6-2.5,6.7-4.6,9.6c-1.8,2.4-4.3,4-7.1,5.1
	c-2.2,0.8-4.4,1.6-6.6,2.2c-1.8,0.5-3.6,0.8-5.4,1.2c-5.6,1.3-11.2,2.5-16.8,3.8c-1.9,0.4-3.8,0.8-5.8,0.4c-0.6-0.1-1.2,0-1.8,0.1
	c-3.2,0.4-6.5,0.8-9.7,1.1c-2.6,0.3-5.3,0.6-7.9,0.8c-0.8,0.1-1.7,0.3-2.6,0.1c-5.2-0.8-10.4-0.1-15.6-0.3
	c-3.4-0.1-6.8-0.1-10.2-0.3c-1.5-0.1-2.4,0.5-3.2,1.7c-7.3,10.9-14.8,21.8-22.1,32.7c-1,1.5-2.1,2.3-3.8,2.6c-3.8,0.5-7.4,1.6-11,3
	c-2.8,1-5.8,1-8.8,0.6c-2.9-0.4-5.8-1.2-8.7-1.8c-2.2-0.4-4.5-0.6-6.7-0.8c-4.2-0.4-8.4-0.7-12.6-1c-1.1-0.1-1.9-0.4-2.7-1.1
	c-2.5-2.2-5.1-4.3-7.7-6.4c-1.1-0.9-2.5-1.6-3.6-2.5c-0.7-0.5-1.3-1.1-1.9-1.7c-0.5-0.5-0.8-1.2-1.4-1.6c-1.7-1-2-2.5-1.9-4.4
	c0.1-0.9-0.2-1.8-0.5-2.7c-0.6-1.7-0.6-3.3,0-5c0.3-0.9,0.5-1.9,0.6-2.9c0.2-7.1,0.3-14.2,0.3-21.3c0-1.4,0.3-2.6,1.1-3.7
	c0.4-0.6,0.7-1.2,1.1-1.8c1.2-2,2.3-3.9,2.6-6.4c0.3-2.7,0.8-5.6,2.5-7.9c1.6-2.2,3-4.5,4-7c0.2-0.4,0.4-0.9,0.7-1.2
	c2-1.9,1.9-4.2,1.4-6.7c-1.1-5.4-2-10.8-3-16.3c-0.4-2.3-0.4-4.6-0.9-6.9c-0.3-1.5-1-2.9-1.7-4.3c-1-2.2-2.2-4.3-3.2-6.5
	c-1.9-4.3-3.8-8.5-5.4-12.9c-1.8-4.8-3.6-9.5-4-14.8c-0.3-4.4-1.4-8.7-2.2-13.1c-0.1-0.8-0.2-1.5-0.2-2.3c0-3.6,0.1-7.3,0-10.9
	c-0.1-3.7-0.5-7.4-0.6-11.2c-0.1-2.2,0.1-4.4,0.1-6.7c0-0.1,0.1-0.2,0.1-0.2c0-4.1-0.1-8.2-0.1-12.3c0-0.8-0.2-1.5-0.2-2.3
	c0.2-7.2-0.1-14.4,0-21.6c0.1-7.2,0.1-14.3,0-21.5c-0.1-5.7-0.3-11.5-0.4-17.2c-0.1-3.3,0-6.7,0-10c0.1-5.4,0-10.7,0.5-16.1
	c0.7-7.5,0.6-14.9,0.7-22.4c0-0.5,0-1,0.1-1.4c0.8-2.9,0.5-5.8,0.5-8.8c0.1-8.8,0-17.6,0-26.4c0-3.6,0.4-7.1,0.4-10.7
	c0-6.5-0.2-13.1-0.4-19.6c-0.1-5.1-0.2-10.1-0.3-15.2c-0.1-6-0.1-12-0.4-18c-0.2-4.1-0.9-8.2-1-12.3c-0.2-6-0.9-12.1,0.8-18.1
	c0.5-1.6,0.5-3.4,0.8-5c0.6-3.3,1.2-6.6,2-9.8c1.2-4.6,2.7-9.1,4.1-13.6c1.1-3.7,2.3-7.4,3.5-11.1c1.3-4.1,2.8-8.1,4.2-12.1
	c1.4-4,2.7-8.1,4.1-12.1c1.2-3.5,2.5-7,3.9-10.5c1.5-3.7,3.1-7.4,4.8-11.1c0.7-1.5,1.6-3.1,2.6-4.4c1.9-2.5,2.2-5.4,1.7-8.2
	c-1-5.3-3.2-10.2-5.8-14.9c-1.1-1.9-2.3-3.8-2.4-6c-0.1-1.2,0.3-2.4,0.4-3.6c0-0.1,0.2-0.3,0.2-0.4c1.6-3.2,2.9-6.4,3-10.2
	c0.1-2.4,1.8-4.2,3.1-6.2c1.5-2.3,3.2-4.4,4.9-6.5c1.9-2.5,3.7-5,5.6-7.5c0.8-1.1,1.5-2.2,2.3-3.2c0.3-0.4,0.6-0.9,0.9-1.3
	c2-2.1,4-4.1,6.1-6.1c3.1-3,6.2-6.1,9.4-9.1c0.8-0.8,1.9-1.4,2.8-2.1c4.5-3.7,9.5-6.7,14.8-9.1c0.3-0.1,0.6-0.2,0.9-0.4
	c3.6-2.7,7.7-4.2,11.8-6c2.1-0.9,4.1-2.2,6.1-3.3c4.7-2.4,9.5-4.2,14.8-4.5c1.8-0.1,3.5-0.5,5.3-0.8c6.5-1.3,12.9-2.6,19.4-3.8
	c4.9-1,9.8-1.8,14.6-2.8c2-0.4,3.8-1.3,5.7-1.9c2.9-1,5.7-1,8.4,1c3,2.2,5.3,5,6.7,8.5c1.7,4.2,3.4,8.5,5.3,12.7
	c1.7,3.8,3.4,7.7,5.6,11.3c3.7,6.2,7.8,12.2,11.7,18.2c1.2,1.9,2.3,3.9,3.5,5.8c1.2,1.9,2.5,3.7,3.6,5.7c1.1,1.9,2,3.9,2.9,5.8
	c1.3,2.6,2.5,5.2,3.8,7.8c1.6,3.5,3.1,7.1,4.1,10.9c0.7,2.5,1.8,4.9,2.4,7.5c0.5,2.1,0.7,4.3,0.7,6.5c0,3.3-0.3,6.5-0.7,9.8
	c-0.3,2-1,4-1.6,6c-0.8,3.1-1.4,6.2-2.4,9.2c-0.8,2.3-2,4.5-3.2,6.7c-0.7,1.3-1.5,2.5-2.2,3.8c-1.7,3-3.3,6-5.2,8.8
	c-1,1.5-2.6,2.6-4,3.9C514.4,284.4,514.1,284.6,513.7,284.9z M481.9,484.4c0.8-6.7,1.4-13.3,2-20.1c-37.9,0-75.6,0-113.4,0
	c1.1,6.8,2.2,13.4,3.2,20.1C409.7,484.4,445.7,484.4,481.9,484.4z M374.4,504.9c-0.2,6.7-0.3,13.2-0.5,19.7
	c3.4,0.5,102.9,0.3,104.6-0.2c0.4-6.4,0.8-12.9,1.3-19.5C444.6,504.9,409.6,504.9,374.4,504.9z M475.3,545.4c-34.1,0-67.9,0-101.9,0
	c-0.2,6.7-0.3,13.3-0.5,20c33.6,0,66.9,0,100.4,0C474.6,558.8,475.2,552.3,475.3,545.4z"/>
<rect x="39" y="90.9" class="st0" width="73.3" height="43.4"/>
</svg>
