<?xml version="1.0" encoding="utf-8"?>
<!-- Generator: Adobe Illustrator 16.0.0, SVG Export Plug-In . SVG Version: 6.00 Build 0)  -->
<!DOCTYPE svg PUBLIC "-//W3C//DTD SVG 1.1//EN" "http://www.w3.org/Graphics/SVG/1.1/DTD/svg11.dtd" [
	<!ENTITY ns_flows "http://ns.adobe.com/Flows/1.0/">
	<!ENTITY ns_extend "http://ns.adobe.com/Extensibility/1.0/">
	<!ENTITY ns_ai "http://ns.adobe.com/AdobeIllustrator/10.0/">
	<!ENTITY ns_graphs "http://ns.adobe.com/Graphs/1.0/">
	<!ENTITY ns_vars "http://ns.adobe.com/Variables/1.0/">
	<!ENTITY ns_imrep "http://ns.adobe.com/ImageReplacement/1.0/">
	<!ENTITY ns_sfw "http://ns.adobe.com/SaveForWeb/1.0/">
	<!ENTITY ns_custom "http://ns.adobe.com/GenericCustomNamespace/1.0/">
	<!ENTITY ns_adobe_xpath "http://ns.adobe.com/XPath/1.0/">
]>
<svg version="1.1" id="Layer_1" xmlns:x="&ns_extend;" xmlns:i="&ns_ai;" xmlns:graph="&ns_graphs;"
	 xmlns="http://www.w3.org/2000/svg" xmlns:xlink="http://www.w3.org/1999/xlink" xmlns:a="http://ns.adobe.com/AdobeSVGViewerExtensions/3.0/"
	 x="0px" y="0px" width="850.391px" height="850.39px" viewBox="0 0 850.391 850.39" enable-background="new 0 0 850.391 850.39"
	 xml:space="preserve">
<metadata><?xpacket begin="﻿" id="W5M0MpCehiHzreSzNTczkc9d"?>
<x:xmpmeta xmlns:x="adobe:ns:meta/" x:xmptk="Adobe XMP Core 5.3-c011 66.145661, 2012/02/06-14:56:27        ">
   <rdf:RDF xmlns:rdf="http://www.w3.org/1999/02/22-rdf-syntax-ns#">
      <rdf:Description rdf:about=""
            xmlns:xmp="http://ns.adobe.com/xap/1.0/"
            xmlns:xmpGImg="http://ns.adobe.com/xap/1.0/g/img/">
         <xmp:CreatorTool>Adobe Illustrator CS6 (Macintosh)</xmp:CreatorTool>
         <xmp:CreateDate>2019-09-30T20:12:24+08:00</xmp:CreateDate>
         <xmp:MetadataDate>2019-09-30T20:12:24+08:00</xmp:MetadataDate>
         <xmp:ModifyDate>2019-09-30T20:12:24+08:00</xmp:ModifyDate>
         <xmp:Thumbnails>
            <rdf:Alt>
               <rdf:li rdf:parseType="Resource">
                  <xmpGImg:width>184</xmpGImg:width>
                  <xmpGImg:height>256</xmpGImg:height>
                  <xmpGImg:format>JPEG</xmpGImg:format>
                  <xmpGImg:image>/9j/4AAQSkZJRgABAgEASABIAAD/7QAsUGhvdG9zaG9wIDMuMAA4QklNA+0AAAAAABAASAAAAAEA&#xA;AQBIAAAAAQAB/+4ADkFkb2JlAGTAAAAAAf/bAIQABgQEBAUEBgUFBgkGBQYJCwgGBggLDAoKCwoK&#xA;DBAMDAwMDAwQDA4PEA8ODBMTFBQTExwbGxscHx8fHx8fHx8fHwEHBwcNDA0YEBAYGhURFRofHx8f&#xA;Hx8fHx8fHx8fHx8fHx8fHx8fHx8fHx8fHx8fHx8fHx8fHx8fHx8fHx8fHx8f/8AAEQgBAAC4AwER&#xA;AAIRAQMRAf/EAaIAAAAHAQEBAQEAAAAAAAAAAAQFAwIGAQAHCAkKCwEAAgIDAQEBAQEAAAAAAAAA&#xA;AQACAwQFBgcICQoLEAACAQMDAgQCBgcDBAIGAnMBAgMRBAAFIRIxQVEGE2EicYEUMpGhBxWxQiPB&#xA;UtHhMxZi8CRygvElQzRTkqKyY3PCNUQnk6OzNhdUZHTD0uIIJoMJChgZhJRFRqS0VtNVKBry4/PE&#xA;1OT0ZXWFlaW1xdXl9WZ2hpamtsbW5vY3R1dnd4eXp7fH1+f3OEhYaHiImKi4yNjo+Ck5SVlpeYmZ&#xA;qbnJ2en5KjpKWmp6ipqqusra6voRAAICAQIDBQUEBQYECAMDbQEAAhEDBCESMUEFURNhIgZxgZEy&#xA;obHwFMHR4SNCFVJicvEzJDRDghaSUyWiY7LCB3PSNeJEgxdUkwgJChgZJjZFGidkdFU38qOzwygp&#xA;0+PzhJSktMTU5PRldYWVpbXF1eX1RlZmdoaWprbG1ub2R1dnd4eXp7fH1+f3OEhYaHiImKi4yNjo&#xA;+DlJWWl5iZmpucnZ6fkqOkpaanqKmqq6ytrq+v/aAAwDAQACEQMRAD8A9U4q7FXYq7FXYq7FXYq7&#xA;FUu8x+YNM8u6Df65qkvo6fp0L3Fw/U8UFaKO7MdlHc4q/Pb80/zg82/mJrM11qVy8OlKx+oaPGxF&#xA;vDGD8NVGzyfzO259hQBVA+QfzS87eRNQS78vajJDFyBnsJCZLWYdxJCTx/2Qow7EYq+3/wAofz08&#xA;p/mJpcQSaPTvMS/DdaLLIokLAVLwVoZYz4gVHf3Vek4q7FXYq7FXYq7FXYq7FXYq7FXYq7FXYq7F&#xA;XYq7FXYq7FVk00MEMk88ixQxKXllchVVVFWZmOwAHU4q+LP+ciP+cjh50in8p+WkMfllJVNzfPUS&#xA;XjQtVeK/sw8gGFfiNATTpirwHFXYquR3R1dGKupBVgaEEdCDir60/wCcWvz7udRlHkfzdqDz37mu&#xA;g6hctyeQU3tZJG3LbVjLbnda/ZGKvp7FXYq7FXYq7FXYq7FXYq7FXYq7FXYq7FXYq7FXYq7FXzD/&#xA;AM5Y/ndBb2c/5d6BNzu7gAeYLqNtootmFqCP2n/3Z4L8O/I0VfJOKuxV2KuxVfFLLFKksTtHLGwa&#xA;ORSVZWU1BBG4IOKvvT/nG/8AOA/mB5RNrqkobzPowWLUK0DTxnaK5A/yqUen7XgCMVeu4q7FXYq7&#xA;FXYq7FXYq7FXYq7FXYq7FXYq7FXYq8x/5yE/NNvy98hy3Vi6jXtTY2mkg0JRyKyT8T1ES7+HIrXF&#xA;X5+3E89xPJcTyNLPMzSSyuSzM7GrMxO5JJ3xVTxV2KuxV2KuxVln5Xef9Q8heddP8x2fJo4G9O+t&#xA;1/3dayECaLegqRutejAHtir9HtK1Ox1XTLTU7CUT2N9ClxazL0eKVQ6MPmDiqKxV2KuxV2KuxV2K&#xA;uxV2KuxV2KuxV2KuxV2KviT/AJzI8wz3/wCaEGkcz9W0axiRY96CW5Jmkb/ZIYx9GKvBsVdirsVd&#xA;irsVdirsVfXn/OHH5nR3mj3PkHUZv9M08tdaNzO72zms0S17xueYHgx7Lir6YxV2KuxV2KuxV2Ku&#xA;xV2KuxV2KuxV2KuxV2Kvgv8A5yw/8nbrH/GCz/6ho8VeP4q7FXYq7FXYq7FXYqmXl3zBqvl3XLHX&#xA;NJmNvqOnyrPbyj+ZezDurD4WHcbYq/R38t/POn+ePJmmeZbIemt7H/pFvWphnQ8Joj/quDQ9xQ98&#xA;VZLirsVdirsVdirsVdirsVdirsVdirsVdir4V/5y30u/g/Oa6nkhb0tRtbSSzYAn1AsYhPHxIeMi&#xA;mKteQf8AnFH8yvNFql/qCxeXdPkAaJr4Mbh1PdbdfiX/AJ6FTir03S/+cHtHTidV813Fx/MlrapB&#xA;Q+AaSSf76Yqn/wD0JV+Vn/V11z/pIs/+yTFXf9CVflZ/1ddc/wCkiz/7JMVWTf8AOFH5ZFKQ6vrS&#xA;P/M8to4p8hbJ+vFWOal/zg5akFtM82uhHSO5sg9en7aTJTv+zirxj8y/yB/MPyAHu9QtBf6KpoNX&#xA;sqyQqD09VaB4v9kONdgTirzfFX2n/wA4XWWqwfltqU9ypTT7vU5JLAMCOXGKOOV1/wAnknH5qcVf&#xA;QOKuxV2KuxV2KuxV2KuxV2KuxV2KuxVZcTw28ElxO4jhhVpJZG2CqoqxPyAxV8x/lD+ZFj+aP/OQ&#xA;d1reqQxwR6Zpc0XlaykILKBMvKXf7UxjdyadB/q1xV9P4q7FXYq7FXYq7FVk8MM0MkM6LJBIpSWN&#xA;wGRkYUZWB2II61xV8Efl9B+S8P5t6np3myCa78vtqU0Gh3UcwSyVBcMsLXKrRzGy8fiElB+0CDUK&#xA;vvOxsbKws4bKxt47Wzt1EcFtCixxoi9FRFAAA9sVV8VdirsVdirsVdirsVdirsVdirsVdir52/5y&#xA;t/OtvL+myeRNFIOq6tbH9K3J/wB0WkwK+mv/ABZMta/yr7sCFXx5p+oX+nXsF/YXElpe2ziS3uYW&#xA;KSI69GVloQcVfbv/ADjZ+e0nnzTJNC8wzJ/ivT15+oAE+t24oPVCii+ohNHAHgR3oq9vxV2KuxV2&#xA;KuxV8df85Nf85A32rarceTPKd80OiWhMOq31u3E3c3R4ldd/RT7Jps5r1WlVXzhir7T/AOcWvzui&#xA;8zaPD5L1yenmLS4aWM0hqby1jG256yxLsw6svxdmxV9A4q7FXYq7FXYq7FXYq7FXYq7FXYq8j/Nn&#xA;/nJPyR5DElhasNd8xLVf0dbSD04W/wCXmYcgn+qAW8QBvir4o8++eNb87+abzzJrJT65eFR6UQKx&#xA;RxooVI0BJPFVHc1PU74qx7FUw8v6/q3l/WrPWtIuGtNSsJBNbTp1DDsQdirDZlOxGx2xV+gn5M/m&#xA;9o35k+WVvYONvrNoFTV9NrvFIejpXrHJSqn6DuMVegYq7FXYq+cP+cm/+cgo9EtbjyR5UuQ2tXCm&#xA;LWNQiNfqkZ6wxkf7ucVDH9gf5R+FV8dYq7FUfoWt6poWsWesaVO1rqNhKs9rOtCVdDUbGoI7EHYj&#xA;Y4q+xPyi/wCcsvLnmP0tJ85eloOskBUvi3Gwnb3Zj+4Y+Dnj/ldBir6AR0dFdGDIwBVgagg7ggjF&#xA;W8VdirsVdirsVdirsVQeoazpGmvapqF7DaNey+haCeRY/Vl4l+CciKtxQmmKvjX89P8AnJvzD5i1&#xA;O80Hyhevp3liItA15bkpPe02Z/UFGSJuiqtKj7XWgVeA4q7FXYq7FU28r+a/MPlXWYdZ0C9ksNRg&#xA;qEmjI3U9UdTVXU91YEYq+ifLf/ObuqQ28cPmTy3FdzCge7sZzBWmxPoyLKKnrs4GKsng/wCc3PJL&#xA;A+v5e1KM/shGgcEe9XTFWAfmZ/zmD5l120k03yhaNoFpKCs1+7iS9ZT/AL7KjhDt1I5N4MMVfPUk&#xA;kksjSSMXkclndiSzMTUkk9ScVW4q7FXYq7FXqf5R/wDOQfnTyBd29q9xJqnlkMFn0idi3px13Nq7&#xA;bxMOyj4T3HfFX3R5e84eWvMNraXGk6hDc/XbVL+CBXX1vq7niHaKvNRzqpqNm2xVOcVdirsVdirs&#xA;Vdir4Z/5yv8AzG/xP+YjaLZTc9K8tBrVOJ+FrwkG5f8A2LKI/wDYnxxV4jirsVdirsVdirsVdirs&#xA;VdirsVdirsVdirsVdirNfye/MG48h/mBpevhmNkr/V9TiH7dnMQJRTuV2dR/MoxV+jsMsU0STROJ&#xA;IpFDxupqrKwqCCOxGKrsVdirsVdirGPzN82Dyl+X+veYgQJrC0ka15bg3D/u4AfYyuoxV+assss0&#xA;rzSuZJZGLyOxqzMxqSSe5OKrMVdirsVdirsVdirsVdirsVdirsVdirsVdirsVdir9Af+cZvNx8y/&#xA;lDpDSyepd6Ty0u6JNSDbU9L/AJINHir1PFXYq7FXYq+f/wDnM7zF9R/LjT9GRqS6xfqXXxgtVMjf&#xA;8lGjxV8V4q7FXYq7FXYq7FXYq7FXYq7FXYq7FXYq7FXYq7FXYq+m/wDnCTzO0Wu+YfLEjfu7u3j1&#xA;G3BOwe3cRSU92WZf+BxV9c4q7FXYq7FXxh/zml5i+u/mDpeiI1YtIsBI4r0mu3LMKf8AGOOM4q+e&#xA;sVdirsVdirsVdirsVdirsVdirsVdirsVdirsVdirsVek/wDOOmvton5y+Wp+VIru4NhKvQMLxGgQ&#xA;H/no6n5jFX6F4q7FXYq7FX52/wDOQOsnV/zl81XJYsIb02a17fU0W2oKe8WKvPcVdirsVdirsVdi&#xA;rsVdirsVdirsVdirsVdirsVdirsVRekajLpmq2Wow/3tlPFcR9viicOPxXFX6i29xFcW8VxC3OGZ&#xA;FkjcdCrCoP3HFVTFXYq7FX5d+YdQOo6/qeoE8jeXc9wWHQ+rIz17eOKpfirsVdirsVdirsVdirsV&#xA;dirsVdirsVdirsVdirsVdirsVfpT+U1/Lf8A5X+U7uWpll0my9RjuSywIrN9JFcVZXirsVQmr3f1&#xA;PSb275cPq8EsvOlacELVpvXpir8tsVdirsVdirsVdirsVdirsVdirsVdirsVdirsVdirsVdirsVf&#xA;of8A8473a3f5LeVJVNQtq0PXlvDNJEd/mnTtir0XFXYqxT82dQGn/lf5su60aPSb0Rn/AC3gdE7j&#xA;9phir81sVdirsVdirsVdirsVdirsVdirsVdirsVdirsVdirsVdirsVfd3/OI+ofWvyXsYK1+o3l3&#xA;b0325S+vTf8A4zYq9mxV2KsT/Nbyrq3mz8vda8uaTNDBqGpQrDDLclliH7xWbmUWRhVFI2U4q+V/&#xA;+hKvzT/6uuh/9JF5/wBkmKu/6Eq/NP8A6uuh/wDSRef9kmKu/wChKvzT/wCrrof/AEkXn/ZJiqSe&#xA;dP8AnFfz95P8r6h5k1bVNHOn6dGJJlhmumkbk4jVUDWyKWZ3AFWGKvGsVdirsVdirsVdirsVdirs&#xA;VdirsVeuflf/AM43+ZvzE8snzBpOrafbW63ElrJBcGb1FkjCseXBHG6uCN8VZd/0JL5//wCr7pX3&#xA;3P8A1SxV3/Qkvn//AKvulffc/wDVLFXf9CS+f/8Aq+6V99z/ANUsVe//AJA/lfrP5b+TbvQtWvLe&#xA;9uLjUJb2OS1LlFjkhhjC/vFQ15Qk9O+KvS8Vdir4n/5Wj+Yv/Uyah/0kSf1zD4z3vUflcX80O/5W&#xA;j+Yv/Uyah/0kSf1x4z3r+VxfzQ7/AJWj+Yv/AFMmof8ASRJ/XHjPev5XF/NDv+Vo/mL/ANTJqH/S&#xA;RJ/XHjPev5XF/NDGvzC8++dNU8szWGpa3eXdlPJH6tvNM7o3Fg61UnejKDlmKRJcPX4YRx2AAbeU&#xA;ZkOjdirsVdirsVdirsVdirsVdirsVejflf5y806Jp97a6Pq11YQSTLLJFbytGpYrx5EA9aLTKMsi&#xA;Hbdm4oTB4gCzb/laP5i/9TJqH/SRJ/XKuM97svyuL+aHf8rR/MX/AKmTUP8ApIk/rjxnvX8ri/mh&#xA;3/K0fzF/6mTUP+kiT+uPGe9fyuL+aHf8rR/MX/qZNQ/6SJP648Z71/K4v5od/wArR/MX/qZNQ/6S&#xA;JP648Z71/K4v5oZf+Ufn/wA7al+Y2i2Ooa5e3VnPLIJreWZ2RgIXIqpO+4yUJElx9Xp8ccRIiLeU&#xA;ZW7B2KuxV2Ksc863BWzgg4mkj8i/YcR0/wCGy7CN3V9qTqAHeWHZkOjdirsVdirsVdirsVdirsVd&#xA;irsVZN5JuCtxcW/EkOquGHQcSRv8+WU5h1dr2VP1GLLsx3duxV2KuxV2Ks4/JL/yaWgf8ZZP+TEm&#xA;Tx/UHE139zJ9N655T/LfRtF1DV7ryvpr22m2013OkNhbPIY4IzIwReAqxC7CuZPAO50H5jJ/Ol8y&#xA;8X/6GG/5xk/6lP8A7lFl/wA148A7l/MZP50vmXf9DDf84yf9Sn/3KLL/AJrx4B3L+YyfzpfMu/6G&#xA;G/5xk/6lP/uUWX/NePAO5fzGT+dL5l5j+ff5qflR5t8u6dpvknQ1026ivPrF3cfUba0YxrE6KgeE&#xA;sxBMlSOmwwiIDGeWctiSXh2FrdirsVdirsVdirsVdirsVdirsVer/kD+YP5e+T9S1d/O2krqlpew&#xA;xC0raw3bRyRs1aCYrxDK+9PDAQCzhklH6SQ9o/6GG/5xk/6lP/uUWX/NeDgHcz/MZP50vmXf9DDf&#xA;84yf9Sn/ANyiy/5rx4B3L+YyfzpfMu/6GG/5xk/6lP8A7lFl/wA148A7l/MZP50vmXqnkK1/Kbzx&#xA;5Zt/MWjeWLBdPuWkSMXGn2qSVicxtVVVx1Xxx4B3L+YyfzpfMsh/5V55A/6lnSv+kG2/5ox4B3L+&#xA;YyfzpfMq9j5L8nWF1Hd2OhadaXcRJiuILSCORSRQlXVAw2PbCIhEs0yKMjXvVvNFoL3yzq9m1Ctz&#xA;ZXEJrWlJImXenzwtT8vsVdirsVdirsVdirsVdirsVdirsVdirsVdirsVdirsVdirsVfoN/zjRZfV&#xA;PyQ8sRkUaSK4mJIAJ9a6lkB29mH0Yq9OxV2KuxV+WeoWj2d/c2j1520rxNXY1Rip/ViqHxV2KuxV&#xA;2KuxV2KuxV2KuxV2KuxV2KuxV2KuxV2KuxV2Kv0e/JG1+rflF5Qj4leWl20tD/xbGJK/TzrirNsV&#xA;dirsVfmf+ZcdvH+Y/muO2p9WTWL9YadOAupAtPoxVjeKuxV2KuxV2KuxV2KuxV2KuxV2KuxV2Kux&#xA;V2KuxV2KuxV+n3lCC0t/KeiQWY42cNhax2ynqI1hUIP+BxVNsVdirsVfmb+Y9rPafmD5mtpwwmi1&#xA;W9V+dORIuH3NNt+u22KsdxV2KuxV2KuxV2KuxV2KuxV2KuxV2KuxV2KuxV2KuxV2Kv078lWk1l5N&#xA;0GznHGe2060hlHg8cCK3X3GKpzirsVdir4y/5zH/AC+i0fzfZ+bbNQtt5gUx3iD9m7t1UF/+ekZX&#xA;6VJ74q+eMVdirsVdirsVdirsVdirsVdirsVdirsVdirsVdirsVel/wDOPP5fQeePzOsNPvKNpmno&#xA;2pajGf8AdkNu6AR0PUPLIit/kk4q/QnFXYq7FXYq+cf+c27SR/JHl+7FfTh1Jom22rLA7Df/AJ5H&#xA;FXxzirsVdirsVdirsVdirsVdirsVdirsVdirsVdirsVdir6K/wCcJbGR/wAwNcvwD6cGkmBm24gz&#xA;3MTgH3PommKvsrFXYq7FXYqwz84PISeevy91Xy+KC8ljE2nSN0W6hPOLfsGI4N7E4q/OGWKSKR4p&#xA;VKSRsVdGFCGBoQR7YqsxV2KuxV2KuxV2KuxV2KuxV2KuxV2KuxV2KuxV2Kvuj/nE78vj5Z/LddYu&#xA;VA1HzMyXrGlCtqqkWqE96qzSf7PFXtmKuxV2KuxV2Kvzp/PfypN5Y/NfzFYMgSC4unvrOn2fQuyZ&#xA;kA/1OZT6MVYDirsVdirsVdirsVdirsVdirsVdirsVdirsVdiqP0LRr3W9bsNGsV5Xmo3EVrbqenq&#xA;TOEWvtVt8Vfp3pOnQ6ZpdnpsH9xZQR28Xb4IkCL09lxVFYq7FXYq7FXYq+Ov+cx/J3mWXz5a+Ybf&#xA;Tri40Z9NhhkvoYneKKWOWXkkjKCEPFlI5dfoOKvEvLn5dee/MrhdC0G9v1PWWKF/SFenKVgI1692&#xA;xV6NpX/OI35y3qq1xZ2emhuourqNiB7i39fFX0n5f/5xh/KKw0Oxs9R0KLUdQhgjS9vnluAZpgo9&#xA;STiJAFDPUgDoNsVR/wD0Ld+SX/UrQf8AI65/6q4qoz/84yfkbOQX8roOPThdXsfXx4TrXFUDc/8A&#xA;OKH5IzcvT0aa25Cg9K8ujx9x6kkn44qlk/8Azh3+UEjhkOpwgCnFLpSPn8cbnFUD/wBCVflZ/wBX&#xA;XXP+kiz/AOyTFUZF/wA4b/lEjKWk1SUL1V7mMBvnxiU/diqYW/8AziV+SsQIfTbqc1rWS8nB+XwM&#xA;mKpjH/zjB+Rcbh18sKSOga8v2H0q05BxVEf9C3fkl/1K0H/I65/6q4quH/OOX5KiKWNfK1uBKpQt&#xA;6k7MKilVLSNxO/UYq+XvMf8AziP+bumTzfo20t9ZtFdvRktriOOQxgnizRzmKjFdyqk4q82178uv&#xA;Pvl8M2teXtQsIl6zzW0qxbeEvHgfoOKs4/5xo8l6/rX5qaHqVrZSPpWlTm7vr5kPoRiNW4jmdi7P&#xA;QKBv36A4q++sVdirsVdir//Z</xmpGImg:image>
               </rdf:li>
            </rdf:Alt>
         </xmp:Thumbnails>
      </rdf:Description>
      <rdf:Description rdf:about=""
            xmlns:xmpTPg="http://ns.adobe.com/xap/1.0/t/pg/"
            xmlns:stDim="http://ns.adobe.com/xap/1.0/sType/Dimensions#"
            xmlns:xmpG="http://ns.adobe.com/xap/1.0/g/">
         <xmpTPg:MaxPageSize rdf:parseType="Resource">
            <stDim:w>299.998915</stDim:w>
            <stDim:h>299.998743</stDim:h>
            <stDim:unit>Millimeters</stDim:unit>
         </xmpTPg:MaxPageSize>
         <xmpTPg:NPages>1</xmpTPg:NPages>
         <xmpTPg:HasVisibleTransparency>False</xmpTPg:HasVisibleTransparency>
         <xmpTPg:HasVisibleOverprint>False</xmpTPg:HasVisibleOverprint>
         <xmpTPg:PlateNames>
            <rdf:Seq>
               <rdf:li>Cyan</rdf:li>
               <rdf:li>Magenta</rdf:li>
               <rdf:li>Yellow</rdf:li>
               <rdf:li>Black</rdf:li>
            </rdf:Seq>
         </xmpTPg:PlateNames>
         <xmpTPg:SwatchGroups>
            <rdf:Seq>
               <rdf:li rdf:parseType="Resource">
                  <xmpG:groupName>Default Swatch Group</xmpG:groupName>
                  <xmpG:groupType>0</xmpG:groupType>
               </rdf:li>
            </rdf:Seq>
         </xmpTPg:SwatchGroups>
      </rdf:Description>
      <rdf:Description rdf:about=""
            xmlns:dc="http://purl.org/dc/elements/1.1/">
         <dc:format>image/svg+xml</dc:format>
      </rdf:Description>
      <rdf:Description rdf:about=""
            xmlns:xmpMM="http://ns.adobe.com/xap/1.0/mm/"
            xmlns:stRef="http://ns.adobe.com/xap/1.0/sType/ResourceRef#"
            xmlns:stEvt="http://ns.adobe.com/xap/1.0/sType/ResourceEvent#">
         <xmpMM:DerivedFrom rdf:parseType="Resource">
            <stRef:instanceID>xmp.iid:025A81E56D21681180839FCCDFDC130E</stRef:instanceID>
            <stRef:documentID>xmp.did:025A81E56D21681180839FCCDFDC130E</stRef:documentID>
            <stRef:originalDocumentID>xmp.did:015A81E56D21681180839FCCDFDC130E</stRef:originalDocumentID>
         </xmpMM:DerivedFrom>
         <xmpMM:DocumentID>xmp.did:035A81E56D21681180839FCCDFDC130E</xmpMM:DocumentID>
         <xmpMM:InstanceID>xmp.iid:035A81E56D21681180839FCCDFDC130E</xmpMM:InstanceID>
         <xmpMM:OriginalDocumentID>xmp.did:015A81E56D21681180839FCCDFDC130E</xmpMM:OriginalDocumentID>
         <xmpMM:History>
            <rdf:Seq>
               <rdf:li rdf:parseType="Resource">
                  <stEvt:action>saved</stEvt:action>
                  <stEvt:instanceID>xmp.iid:015A81E56D21681180839FCCDFDC130E</stEvt:instanceID>
                  <stEvt:when>2019-09-30T20:05:57+08:00</stEvt:when>
                  <stEvt:softwareAgent>Adobe Illustrator CS6 (Macintosh)</stEvt:softwareAgent>
                  <stEvt:changed>/</stEvt:changed>
               </rdf:li>
               <rdf:li rdf:parseType="Resource">
                  <stEvt:action>saved</stEvt:action>
                  <stEvt:instanceID>xmp.iid:035A81E56D21681180839FCCDFDC130E</stEvt:instanceID>
                  <stEvt:when>2019-09-30T20:12:24+08:00</stEvt:when>
                  <stEvt:softwareAgent>Adobe Illustrator CS6 (Macintosh)</stEvt:softwareAgent>
                  <stEvt:changed>/</stEvt:changed>
               </rdf:li>
            </rdf:Seq>
         </xmpMM:History>
      </rdf:Description>
   </rdf:RDF>
</x:xmpmeta>
                                                                                                    
                                                                                                    
                                                                                                    
                                                                                                    
                                                                                                    
                                                                                                    
                                                                                                    
                                                                                                    
                                                                                                    
                                                                                                    
                                                                                                    
                                                                                                    
                                                                                                    
                                                                                                    
                                                                                                    
                                                                                                    
                                                                                                    
                                                                                                    
                                                                                                    
                                                                                                    
                           
<?xpacket end="w"?>
	</metadata>
<rect x="177.696" y="491.695" fill="#FFFFFF" width="534" height="86.667"/>
<rect x="177.696" y="514.362" fill="#7A2426" width="534" height="45"/>
<path d="M240.448,295.111c2.033,1.854,3.853,3.514,5.834,5.322c0.732-1.397,1.542-2.854,2.267-4.353
	c0.782-1.619,1.85-2.954,3.225-4.133c0.786-0.674,1.411-1.666,1.799-2.638c0.412-1.029,1.08-1.57,1.966-2.136
	c1.13-0.722,2.077-1.73,3.109-2.608c0.646-0.55,1.238-1.196,1.962-1.611c2.46-1.407,4.787-3.025,7.434-4.143
	c1.743-0.735,3.186-2.147,4.854-3.098c2.145-1.223,4.399-2.25,6.565-3.436c0.937-0.513,1.754-1.239,2.655-1.823
	c3.175-2.058,6.351-4.115,9.551-6.131c1.29-0.812,2.394-2.01,4.133-1.964c0.377,0.01,0.799-0.432,1.147-0.728
	c1.442-1.229,2.822-2.536,4.308-3.707c1.237-0.975,1.71-2.177,1.481-3.677c-0.104-0.683-0.326-1.349-0.502-2.02
	c-0.503-1.917-0.463-3.674,1.331-4.991c0.435-0.319,0.775-0.765,1.167-1.143c2.014-1.947,4.109-3.852,5.115-6.557
	c0.45-1.21,1.308-1.886,2.396-2.282c1.38-0.502,2.029-1.438,2.489-2.807c0.981-2.92,2.233-5.749,3.252-8.658
	c0.429-1.225,0.545-2.559,0.814-3.841c0.312-1.49,1.113-2.605,2.244-3.675c2.413-2.281,4.918-4.566,6.819-7.25
	c1.122-1.584,1.213-3.926,1.637-5.955c0.085-0.406-0.367-0.979-0.671-1.403c-2.494-3.481-3.481-7.382-3.467-11.626
	c0.037-10.905-0.046-21.811,0.049-32.715c0.028-3.244,0.233-6.53,0.802-9.717c1.234-6.914,3.558-13.467,6.82-19.733
	c2.199-4.222,4.475-8.376,7.364-12.14c2.691-3.507,5.654-6.805,8.487-10.204c3.034-3.64,6.088-7.264,9.057-10.956
	c0.717-0.891,1.114-2.035,1.687-3.046c4.685-8.271,10.892-15.112,19.082-20.026c1.635-0.981,2.498-2.26,3.19-4.025
	c2.82-7.188,6.036-14.2,11.689-19.706c3.402-3.313,6.918-6.486,11.675-7.847c6.675-1.911,13.137-1.306,19.241,1.861
	c8.286,4.298,15.353,10.27,22.02,16.736c0.318,0.309,0.679,0.623,1.079,0.793c3.288,1.395,6.566,2.816,9.894,4.115
	c5.752,2.245,10.017,5.991,12.832,11.575c1.092,2.165,2.955,3.975,4.617,5.81c5.692,6.284,11.35,12.575,15.789,19.868
	c3.111,5.109,6.602,9.988,9.664,15.125c3.302,5.54,6.371,11.223,9.414,16.912c2.822,5.278,5.237,10.788,8.271,15.936
	c3.232,5.484,6.946,10.688,10.515,15.971c3.626,5.367,6.938,10.924,9.036,17.056c1.272,3.719,2.127,7.602,1.348,11.663
	c-0.939,4.894-3.239,8.9-7.336,11.732c-1.972,1.363-4.103,2.539-6.275,3.557c-3.16,1.48-6.422,2.742-9.914,4.211
	c1.428,1.72,3.039,3.285,5.08,4.047c1.762,0.659,3.266,1.563,4.304,2.996c2.855,3.938,5.67,7.916,8.275,12.021
	c2.158,3.402,4.404,6.708,7.127,9.683c0.992,1.084,1.95,2.199,2.923,3.301c0.104,0.117,0.28,0.235,0.287,0.36
	c0.138,2.551,2.123,3.843,3.74,5.311c1.478,1.341,2.015,3.196,3.035,4.779c0.738,1.144,1.514,2.158,2.849,2.613
	c0.22,0.075,0.514,0.137,0.621,0.303c1.365,2.112,3.935,2.198,5.802,3.467c1.919,1.303,3.951,2.436,5.88,3.725
	c2.15,1.438,4.203,3.025,6.373,4.434c0.96,0.623,2.261,0.77,3.135,1.472c2.425,1.946,5.604,2.625,7.859,4.865
	c0.61,0.607,1.69,0.726,2.525,1.127c2.752,1.323,5.33,3.002,7.647,4.921c1.452,1.202,2.729,2.544,4.439,3.462
	c0.712,0.382,0.992,1.521,1.545,2.258c0.633,0.844,1.366,1.612,2.026,2.436c0.816,1.018,1.713,1.995,2.374,3.108
	c0.938,1.578,1.693,3.265,2.585,5.02c1.949-1.829,3.382-4.082,6.084-4.831c0.882,1.609,1.764,3.073,2.508,4.603
	c3.129,6.434,6.443,12.791,9.248,19.364c2.127,4.983,3.696,10.217,5.317,15.401c3.061,9.784,6.276,19.522,8.632,29.518
	c2.777,11.787,5.589,23.565,7.598,35.515c1.428,8.496,2.884,16.987,4.186,25.503c0.456,2.983,0.541,6.028,0.706,9.051
	c0.542,9.99,1.129,19.975,2.271,29.923c1.14,9.937,2.162,19.887,3.159,29.839c0.192,1.924,0.027,3.884,0.027,6.039
	c-31.617,0-63.508,0-95.47,0c-0.584,1.867-0.188,3.534,0.029,5.19c0.069,0.533,0.23,1.077,0.461,1.562
	c2.2,4.627,2.384,9.555,2.496,14.567c0.144,6.455,0.623,12.906,1.055,19.353c0.259,3.875,1.988,7.156,4.682,10.045
	c-0.386,0.648-0.668,1.288-1.094,1.811c-2.621,3.226-3.492,6.875-2.769,10.942c0.5,2.814,0.977,5.633,1.485,8.573
	c28.986,0,57.786,0,86.792,0c0,1.514,0.101,2.878-0.017,4.224c-0.582,6.647-1.315,13.283-1.814,19.938
	c-0.575,7.657-0.92,15.331-1.442,22.992c-0.311,4.565-0.583,9.153-1.784,13.597c-1.207,4.462-0.777,8.898-0.25,13.396
	c1.083,9.224,1.282,18.418-1.472,27.463c-1.237,4.067-3.323,7.712-5.464,11.306c-2.595,4.353-3.788,8.957-3.646,13.993
	c0.149,5.361-0.035,10.72-0.816,16.033c-0.26,1.761-0.646,3.527-1.204,5.216c-1.634,4.946-3.459,9.817-6.081,14.355
	c-2.729,4.72-3.975,9.931-4.81,15.252c-0.63,4.017-1.691,7.892-3.454,11.565c-1.613,3.363-2.028,6.981-2.146,10.64
	c-0.105,3.259-0.107,6.522-0.979,9.698c-0.226,0.82-0.514,1.626-0.814,2.424c-0.861,2.282-2.137,3.994-4.794,4.549
	c-2.801,0.585-5.482,1.751-8.287,2.303c-1.444,0.284-3.07-0.074-4.565-0.378c-11.352-2.31-22.687-4.699-34.037-7.011
	c-2.662-0.542-5.359-0.916-8.051-1.302c-1.202-0.173-1.998-0.715-2.415-1.867c-0.975-2.688-1.98-5.364-3.021-8.176
	c-3.375-0.731-6.874-1.019-10.406-0.17c-0.296,0.071-0.621,0.022-0.933,0.026c-7.471,0.089-14.941,0.136-22.411,0.277
	c-9.477,0.179-18.953,0.392-28.428,0.679c-4.253,0.129-8.499,0.483-12.749,0.719c-4.178,0.231-8.357,0.445-12.536,0.662
	c-4.795,0.25-9.59,0.497-14.385,0.743c-3.016,0.154-6.03,0.39-9.048,0.44c-6.689,0.111-13.38,0.157-20.069,0.174
	c-3.422,0.008-6.847-0.04-10.266-0.176c-4.568-0.181-9.132-0.471-13.698-0.717c-4.097-0.221-8.193-0.441-12.29-0.669
	c-4.333-0.24-8.687-0.294-12.992-0.779c-6.118-0.689-12.263-0.267-18.364-0.692c-9.098-0.634-18.188-0.212-27.279-0.396
	c-4.588-0.093-9.183-0.065-13.763-0.3c-3.691-0.19-7.364,0.188-11.048,0.056c-2.005-0.073-2.111,0.092-2.827,2.049
	c-0.665,1.817-1.439,3.605-1.953,5.466c-0.559,2.021-1.952,2.541-3.792,2.727c-3.785,0.385-7.563,0.841-11.337,1.321
	c-8.279,1.055-16.313,3.137-24.29,5.563c-2.853,0.868-5.948,1.011-8.95,1.281c-1.023,0.092-2.119-0.386-3.153-0.697
	c-2.824-0.848-5.62-1.79-8.454-2.601c-1.115-0.319-1.632-0.995-2.012-2.021c-1.157-3.123-1.323-6.377-1.334-9.641
	c-0.012-3.578-0.023-7.152-0.881-10.651c-0.295-1.203-0.624-2.435-1.174-3.534c-2.153-4.299-3.212-8.9-3.922-13.604
	c-0.726-4.812-2.25-9.31-4.586-13.608c-3.05-5.611-5.546-11.499-6.813-17.793c-0.548-2.72-0.703-5.535-0.839-8.317
	c-0.205-4.189-0.229-8.387-0.345-12.581c-0.109-3.948-1.833-7.349-3.707-10.685c-2.094-3.728-4.157-7.454-5.42-11.583
	c-1.261-4.12-1.851-8.34-2.059-12.606c-0.299-6.146,0.331-12.247,1.146-18.339c0.489-3.66-0.331-7.259-0.859-10.873
	c-0.592-4.06-1.024-8.147-1.379-12.236c-0.49-5.638-0.835-11.289-1.254-16.935c-0.361-4.875-0.704-9.752-1.117-14.623
	c-0.38-4.482-0.848-8.957-1.26-13.437c-0.055-0.601-0.008-1.212-0.008-2.021c28.613,0,57.169,0,85.93,0
	c0.775-4.572,2.078-8.893,1.874-13.446c-0.09-2.001-0.832-3.78-1.947-5.422c-0.696-1.024-1.37-2.064-1.983-2.99
	c0.084-0.325,0.076-0.515,0.167-0.611c3.062-3.298,4.409-7.268,4.615-11.691c0.34-7.31,0.766-14.616,0.983-21.929
	c0.07-2.371,0.346-4.619,1.209-6.825c0.935-2.389,1.831-4.801,1.934-7.411c0.018-0.462,0.002-0.925,0.002-1.669
	c-31.665,0-63.314,0-95.16,0c0.2-3.521,0.285-6.761,0.589-9.979c0.519-5.48,1.195-10.945,1.771-16.42
	c0.632-6.014,1.3-12.024,1.813-18.048c0.448-5.255,0.679-10.528,1.047-15.791c0.665-9.522,1.555-19.014,3.332-28.413
	c1.368-7.237,2.274-14.568,3.833-21.76c2.761-12.742,5.889-25.404,8.81-38.112c1.584-6.895,3.393-13.728,5.687-20.418
	c0.931-2.715,2.048-5.38,3.272-7.977c3.782-8.02,7.646-16,11.503-23.985C238.638,298.333,239.429,296.996,240.448,295.111z"/>
<path fill="#FFFFFF" d="M394.244,190.903c3.631,0,7.264-0.02,10.895,0.008c1.998,0.015,3.995,0.146,5.992,0.157
	c2.31,0.012,4.619-0.064,6.93-0.078c1.919-0.011,3.837,0.024,5.756,0.018c1.623-0.005,3.244-0.042,4.866-0.061
	c6.286-0.073,12.572-0.23,18.855-0.177c2.781,0.023,5.565,0.417,8.335,0.746c5.404,0.641,10.8,1.357,16.197,2.038
	c3.473,0.438,6.949,0.849,10.418,1.319c0.682,0.092,1.363,0.332,1.992,0.62c6.803,3.118,13.425,6.555,19.477,11.011
	c0.972,0.716,1.724,1.488,2.107,2.673c1.126,3.461,2.613,6.773,2.413,10.604c-0.204,3.906-1.939,6.868-4.815,9.193
	c-2.352,1.901-4.969,3.473-7.433,5.24c-0.74,0.531-1.504,1.129-2.016,1.864c-8.564,12.29-18.159,23.742-28.393,34.653
	c-5.021,5.356-10.637,10.028-17.405,13.152c-1.434,0.661-2.586,1.908-3.992,2.645c-1.202,0.629-2.562,1.023-3.896,1.319
	c-1.089,0.241-2.357-0.287-3.217,0.875c-0.097,0.131-0.42,0.132-0.638,0.129c-5.596-0.082-11.191-0.15-16.786-0.271
	c-2.716-0.059-5.463,0.013-8.14-0.375c-8.458-1.225-16.969-2.328-24.378-7.197c-4.789-3.146-9.033-6.923-12.772-11.209
	c-9.161-10.501-18.136-21.161-26.118-32.609c-0.781-1.12-1.752-1.899-2.907-2.605c-3.379-2.068-6.688-4.221-9.561-7.02
	c-3.744-3.647-4.078-7.984-3.022-12.71c0.034-0.151,0.102-0.294,0.151-0.442c2.242-6.596,2.198-6.675,8.318-10.067
	c5.173-2.866,10.472-5.501,15.694-8.276c2.435-1.293,5.13-1.168,7.73-1.531c5.311-0.743,10.625-1.483,15.955-2.055
	C385.302,192.003,389.683,190.634,394.244,190.903z"/>
</svg>
