<?xml version="1.0" encoding="utf-8"?>
<!-- Generator: Adobe Illustrator 16.0.0, SVG Export Plug-In . SVG Version: 6.00 Build 0)  -->
<!DOCTYPE svg PUBLIC "-//W3C//DTD SVG 1.1//EN" "http://www.w3.org/Graphics/SVG/1.1/DTD/svg11.dtd">
<svg version="1.1" id="Layer_1" xmlns="http://www.w3.org/2000/svg" xmlns:xlink="http://www.w3.org/1999/xlink" x="0px" y="0px"
	 width="95.137px" height="95.136px" viewBox="0 0 95.137 95.136" enable-background="new 0 0 95.137 95.136" xml:space="preserve">
<path fill="#F4F4F4" d="M24.779,10.338c0.046-0.049,0.085-0.04,0.122-0.042c0.529-0.01,1.061-0.016,1.588-0.03
	c0.114-0.002,0.212,0.025,0.309,0.088c0.185,0.122,0.371,0.242,0.562,0.352c0.117,0.067,0.184,0.155,0.224,0.294
	c0.173,0.624,0.362,1.241,0.538,1.864c0.149,0.546,0.331,1.08,0.562,1.592c0.278,0.618,0.505,1.256,0.711,1.902
	c0.201,0.631,0.409,1.26,0.611,1.89c0.204,0.639,0.4,1.28,0.443,1.96c0.004,0.09,0.022,0.18,0.044,0.267
	c0.123,0.49,0.135,0.993,0.146,1.494c0.004,0.216-0.021,0.21,0.208,0.209c0.046,0,0.093,0,0.14,0c5.924,0,11.849-0.004,17.771,0.005
	c0.619,0.001,1.238,0.019,1.856,0.073c0.22,0.021,0.437,0.005,0.653,0.016c0.534,0.028,1.069,0.031,1.604,0.057
	c0.372,0.017,0.742,0.046,1.111,0.081c1.24,0.114,2.486,0.046,3.729,0.064c0.146,0.002,0.299,0.009,0.439-0.022
	c0.319-0.069,0.646-0.088,0.963-0.143c0.324-0.054,0.648-0.064,0.974-0.098c0.523-0.056,1.054-0.05,1.583-0.049
	c0.249,0,0.496,0.002,0.742,0.047c0.319,0.06,0.646,0.086,0.975,0.066c0.504-0.028,1.007,0.059,1.512,0.051
	c0.165-0.003,0.179-0.003,0.176-0.167c-0.015-0.752,0.142-1.486,0.229-2.227c0.085-0.703,0.313-1.355,0.521-2.018
	c0.262-0.836,0.546-1.662,0.82-2.491c0.027-0.085,0.057-0.172,0.093-0.252c0.48-1.02,0.828-2.093,1.122-3.184
	c0.093-0.34,0.197-0.676,0.291-1.014c0.031-0.108,0.082-0.185,0.184-0.241c0.212-0.122,0.416-0.256,0.62-0.389
	c0.075-0.049,0.148-0.076,0.238-0.074c0.577,0.013,1.152,0.023,1.736,0.034c0.021,0.139-0.032,0.261-0.061,0.385
	c-0.731,3.576-1.606,7.116-2.418,10.673c-0.028,0.133-0.03,0.258-0.015,0.389c0.185,1.219,0.364,2.438,0.547,3.656
	c0.209,1.405,0.423,2.811,0.636,4.216c0.017,0.107,0.035,0.211,0.047,0.318c0.03,0.491,0.193,0.942,0.378,1.39
	c0.281,0.704,0.548,1.416,0.825,2.122c0.058,0.14,0.083,0.277,0.082,0.429c-0.006,0.683-0.006,1.367,0.001,2.051
	c0.002,0.142-0.026,0.254-0.134,0.351c-0.289,0.277-0.623,0.489-0.952,0.705c-0.059,0.037-0.102,0.032-0.143-0.024
	c-0.022-0.033-0.051-0.062-0.078-0.093c-0.622-0.748-1.245-1.495-1.869-2.24c-0.081-0.094-0.141-0.193-0.163-0.32
	c-0.021-0.12-0.067-0.236-0.096-0.356c-0.178-0.869-0.513-1.671-0.94-2.43c-0.415-0.734-0.688-1.521-0.868-2.352
	c-0.182-0.817-0.389-1.627-0.582-2.439c-0.023-0.098-0.03-0.195-0.033-0.294c-0.023-0.806-0.052-1.613-0.069-2.42
	c-0.005-0.312,0.021-0.626,0.028-0.938c0.005-0.206,0.002-0.204-0.184-0.209c-0.721-0.021-1.44-0.043-2.166-0.067
	c-0.102-0.002-0.196-0.018-0.299-0.034c-0.607-0.107-1.226-0.081-1.838-0.042c-0.764,0.05-1.523,0.114-2.28,0.268
	c-0.12,0.023-0.248,0.022-0.37,0.022c-1.016,0.002-2.024,0.007-3.036-0.001c-0.435-0.004-0.864-0.055-1.296-0.091
	c-0.467-0.039-0.933-0.052-1.396-0.07c-0.558-0.021-1.116-0.036-1.676-0.059c-0.425-0.016-0.854-0.036-1.277-0.041
	c-6.116-0.078-12.229-0.013-18.349-0.034c-0.047,0-0.094,0-0.143,0c-0.059,0.001-0.082,0.036-0.081,0.094
	c0,0.033,0.003,0.066,0.006,0.099c0.062,1.186-0.021,2.372-0.036,3.558c-0.004,0.248-0.096,0.482-0.148,0.722
	c-0.228,1.016-0.485,2.023-0.74,3.032c-0.031,0.128-0.079,0.249-0.139,0.366c-0.331,0.662-0.659,1.326-0.99,1.986
	c-0.058,0.118-0.104,0.235-0.139,0.364c-0.118,0.453-0.242,0.901-0.364,1.353c-0.032,0.119-0.077,0.226-0.158,0.322
	c-0.633,0.75-1.26,1.504-1.889,2.257c-0.137,0.164-0.104,0.179-0.299,0.055c-0.28-0.18-0.553-0.369-0.807-0.588
	c-0.145-0.124-0.207-0.263-0.202-0.468c0.013-0.659,0.007-1.319,0.003-1.977c-0.001-0.143,0.021-0.274,0.076-0.406
	c0.346-0.881,0.682-1.764,1.031-2.644c0.106-0.272,0.138-0.557,0.18-0.84c0.229-1.51,0.447-3.022,0.674-4.534
	c0.188-1.259,0.374-2.52,0.564-3.777c0.021-0.119,0.008-0.229-0.02-0.339c-0.396-1.701-0.787-3.402-1.186-5.102
	C25.625,14.291,25.187,12.321,24.779,10.338z"/>
<path fill="#F4F4F4" d="M37.444,7.284c0.361-0.478,0.729-0.931,1.057-1.41c0.119-0.175,0.296-0.31,0.363-0.521
	c0.034-0.102,0.147-0.096,0.197-0.054c0.258,0.225,0.593,0.222,0.896,0.294c0.555,0.132,1.121,0.225,1.678,0.354
	C42,6.032,42.376,6.051,42.748,6.085c0.46,0.042,0.923,0.069,1.385,0.095c0.126,0.007,0.252,0.007,0.382-0.015
	c0.196-0.033,0.396,0.027,0.595,0.026c1.031-0.004,2.062-0.013,3.097,0.014c0.55,0.015,1.1,0.052,1.646,0.036
	c0.896-0.025,1.787-0.026,2.681-0.069c0.524-0.025,1.054-0.013,1.576-0.042c0.562-0.03,1.125-0.084,1.658-0.291
	c0.197-0.077,0.358-0.197,0.479-0.378c0.126-0.189,0.294-0.313,0.541-0.284c0.082,0.009,0.123,0.021,0.12,0.126
	c-0.006,0.124,0.037,0.248,0.09,0.366c0.149,0.361,0.315,0.713,0.536,1.04c0.099,0.149,0.231,0.259,0.415,0.301
	c0.036,0.009,0.074,0.017,0.112,0.03c0.207,0.07,0.202,0.091,0.196,0.309c-0.008,0.328-0.118,0.619-0.256,0.907
	c-0.048,0.1-0.089,0.206-0.116,0.313c-0.162,0.616-0.482,1.161-0.774,1.718c-0.101,0.191-0.223,0.371-0.312,0.564
	c-0.293,0.607-0.755,1.084-1.188,1.587c-0.475,0.555-1.034,1.018-1.565,1.512c-0.55,0.512-1.11,1.01-1.672,1.51
	c-0.298,0.266-0.614,0.496-0.996,0.644c-0.84,0.326-1.669,0.676-2.501,1.021c-0.369,0.152-0.765,0.229-1.135,0.367
	c-0.081,0.03-0.142-0.023-0.2-0.049c-0.541-0.237-1.069-0.498-1.588-0.783c-1.333-0.733-2.584-1.584-3.738-2.578
	c-0.354-0.304-0.656-0.651-0.969-0.994c-0.5-0.549-0.994-1.103-1.496-1.649c-0.567-0.619-1.11-1.255-1.501-2.006
	c-0.326-0.627-0.562-1.285-0.669-1.984C37.562,7.353,37.562,7.353,37.444,7.284z M47.643,17.177c0.13-0.115,0.247-0.211,0.354-0.316
	c1.046-1.012,2.091-2.024,3.134-3.038c0.488-0.474,0.93-0.99,1.377-1.5c0.823-0.934,1.643-1.872,2.271-2.957
	c0.181-0.308,0.381-0.604,0.563-0.9c-0.048-0.056-0.096-0.058-0.146-0.059c-0.523-0.001-1.053-0.01-1.576-0.046
	c-0.424-0.029-0.847-0.038-1.268-0.058c-0.581-0.028-1.161-0.067-1.742-0.086c-0.79-0.025-1.581-0.034-2.368-0.05
	c-1.392-0.028-2.777-0.035-4.164,0.075c-0.571,0.045-1.146,0.06-1.72,0.099c-0.482,0.033-0.972,0.045-1.458,0.067
	c-0.053,0.002-0.111-0.011-0.138,0.066c0.011,0.018,0.021,0.039,0.035,0.057c1.377,1.758,2.744,3.524,4.188,5.229
	c0.521,0.614,0.984,1.276,1.543,1.86c0.229,0.235,0.442,0.48,0.607,0.768C47.293,16.651,47.466,16.901,47.643,17.177z"/>
<path id="_x3C_Strips1_x3E_" fill="#644985" d="M25.229,36.38c0.188,0.123,0.381,0.238,0.562,0.372
	c0.104,0.078,0.155,0.053,0.229-0.038c0.352-0.427,0.708-0.849,1.062-1.272c0.277-0.332,0.558-0.663,0.834-0.994
	c0.066-0.081,0.116-0.167,0.146-0.271c0.128-0.479,0.269-0.956,0.396-1.435c0.026-0.102,0.062-0.197,0.108-0.292
	c0.346-0.696,0.688-1.395,1.033-2.092c0.114-0.233,0.147-0.489,0.219-0.734c0.292-1.024,0.5-2.069,0.756-3.104
	c0.016-0.062,0.024-0.126,0.026-0.19c0.019-0.641,0.035-1.282,0.048-1.923c0.004-0.208,0.032-0.418,0.022-0.623
	c-0.011-0.288-0.008-0.577-0.027-0.864c-0.015-0.178,0.002-0.352,0.005-0.528c0.005-0.327-0.074-0.65-0.055-0.979
	c0.033-0.561-0.175-1.088-0.22-1.637c-0.078-0.947-0.454-1.813-0.729-2.707c-0.177-0.575-0.36-1.146-0.568-1.71
	c-0.202-0.548-0.438-1.083-0.658-1.626c-0.204-0.506-0.336-1.036-0.486-1.558c-0.129-0.446-0.265-0.891-0.387-1.338
	c-0.037-0.135-0.107-0.223-0.229-0.289c-0.117-0.063-0.24-0.124-0.338-0.227c0.146-0.116,0.299-0.192,0.466-0.252
	c2.317-0.822,4.679-1.506,7.036-2.201c0.576-0.169,1.148-0.343,1.729-0.506c0.116-0.033,0.188-0.065,0.178-0.204
	c-0.018-0.175,0.116-0.284,0.208-0.425C36.633,6.8,36.66,6.858,36.698,6.91c0.13,0.193,0.179,0.206,0.389,0.111
	c0.053-0.023,0.102-0.047,0.159-0.053c0.188-0.016,0.205-0.001,0.238,0.188c0.178,0.976,0.551,1.867,1.12,2.683
	c0.483,0.693,1.078,1.29,1.639,1.916c0.475,0.532,0.955,1.059,1.437,1.586c0.254,0.28,0.547,0.518,0.838,0.755
	c1.522,1.244,3.187,2.265,4.982,3.063c0.096,0.042,0.168,0.037,0.27,0.009c1.339-0.376,2.583-0.997,3.872-1.5
	c0.293-0.114,0.512-0.354,0.742-0.561c0.591-0.521,1.166-1.054,1.75-1.579c0.719-0.644,1.396-1.322,2.017-2.062
	c0.239-0.286,0.428-0.6,0.606-0.92c0.322-0.563,0.634-1.134,0.907-1.722c0.074-0.158,0.123-0.331,0.171-0.5
	c0.056-0.194,0.12-0.381,0.207-0.562c0.104-0.217,0.21-0.434,0.146-0.71c0.136,0.04,0.233,0.053,0.329-0.04
	c0.082-0.083,0.196-0.047,0.298-0.031c0.081,0.013,0.084,0.091,0.075,0.155c-0.021,0.142,0.05,0.188,0.181,0.225
	c1.56,0.456,3.118,0.913,4.675,1.381c1.402,0.423,2.802,0.861,4.182,1.355c0.224,0.079,0.386,0.259,0.574,0.308
	c0.043,0.044,0.042,0.061,0.022,0.069c-0.236,0.103-0.321,0.304-0.386,0.538c-0.202,0.734-0.413,1.466-0.636,2.194
	c-0.156,0.522-0.389,1.019-0.601,1.52c-0.258,0.606-0.458,1.231-0.657,1.857c-0.207,0.649-0.414,1.298-0.623,1.947
	c-0.138,0.429-0.238,0.864-0.271,1.312c-0.015,0.159-0.03,0.321-0.07,0.476c-0.136,0.518-0.143,1.045-0.146,1.575
	c0,0.102,0,0.199-0.051,0.302c-0.061,0.121-0.042,0.273-0.018,0.402c0.062,0.304,0.022,0.607,0.014,0.907
	c-0.019,0.426,0.025,0.848,0.018,1.272c-0.005,0.096,0.012,0.192,0.014,0.288c0.011,0.417,0.011,0.834,0.03,1.25
	c0.013,0.265,0.105,0.518,0.165,0.775c0.205,0.931,0.438,1.855,0.676,2.78c0.112,0.45,0.331,0.851,0.539,1.256
	c0.235,0.464,0.479,0.926,0.688,1.404c0.14,0.321,0.208,0.673,0.299,1.013c0.216,0.794,0.217,0.792,0.747,1.416
	c0.483,0.567,0.959,1.142,1.438,1.713c0.062,0.076,0.114,0.175,0.259,0.121c-0.214,0.505-0.428,0.98-0.613,1.465
	c-0.215,0.56-0.477,1.105-0.586,1.7c-0.225,1.202-0.648,2.339-1.102,3.47c-0.156,0.396-0.344,0.773-0.555,1.142
	c-0.179,0.307-0.271,0.651-0.369,0.988c-0.146,0.476-0.313,0.942-0.472,1.413c-0.271,0.822-0.438,1.669-0.574,2.521
	c-0.062,0.377-0.104,0.76-0.156,1.139c-0.04,0.293-0.062,0.59-0.093,0.884c-0.073,0.646-0.077,1.292-0.123,1.938
	c-0.024,0.366-0.018,0.735-0.019,1.105c-0.001,0.343,0.002,0.688,0.01,1.029c0.011,0.373-0.002,0.748,0.026,1.123
	c0.031,0.438-0.001,0.879,0.03,1.313c0.033,0.446,0.019,0.896,0.063,1.341c0.042,0.402,0.04,0.811,0.067,1.219
	c0.036,0.541,0.083,1.078,0.122,1.617c0.021,0.256,0.038,0.51,0.064,0.764c0.056,0.518,0.113,1.033,0.171,1.549
	c0.057,0.531,0.163,1.056,0.214,1.589c0.059,0.628,0.148,1.251,0.227,1.877c0.086,0.722,0.17,1.44,0.253,2.164
	c0.09,0.774,0.229,1.545,0.381,2.312c0.105,0.541,0.198,1.084,0.302,1.625c0.13,0.707,0.264,1.414,0.396,2.121
	c0.142,0.76,0.275,1.521,0.421,2.279c0.188,0.98,0.278,1.977,0.398,2.967c0.082,0.672,0.18,1.344,0.271,2.018
	c0.058,0.406,0.066,0.812-0.006,1.232c-0.316,0.043-0.646,0.084-0.974,0.135c-0.759,0.115-1.508,0.271-2.229,0.547
	c-0.396,0.152-0.715,0.418-1.021,0.701c-0.433,0.396-0.896,0.748-1.388,1.068c-0.169,0.111-0.325,0.23-0.468,0.374
	c-0.395,0.39-0.796,0.769-1.164,1.181c-0.075,0.086-0.147,0.168-0.191,0.272c-0.053,0.118-0.128,0.188-0.269,0.205
	c-0.555,0.071-1.101,0.196-1.657,0.253c-0.332,0.031-0.669,0.059-0.996,0.061c-0.562,0.004-1.132-0.016-1.692-0.08
	c-0.691-0.08-1.376-0.197-2.046-0.388c-0.465-0.133-0.896-0.353-1.334-0.544c-0.664-0.29-1.354-0.479-2.065-0.605
	c-0.803-0.145-1.604-0.162-2.415-0.148c-0.166,0.003-0.335,0.009-0.503,0.031c-0.441,0.062-0.888,0.055-1.333-0.004
	c-0.43-0.055-0.864-0.039-1.296-0.03c-0.682,0.012-1.354,0.099-2.021,0.235c-0.582,0.121-1.146,0.299-1.687,0.553
	c-0.786,0.367-1.597,0.65-2.462,0.777c-0.61,0.092-1.22,0.158-1.834,0.188c-0.229,0.013-0.458,0.009-0.688,0.019
	c-0.302,0.012-0.604-0.023-0.904-0.047c-0.542-0.039-1.071-0.166-1.609-0.234c-0.218-0.025-0.4-0.08-0.482-0.315
	c-0.048-0.13-0.163-0.219-0.258-0.315c-0.416-0.436-0.833-0.864-1.282-1.265c-0.104-0.089-0.227-0.153-0.336-0.229
	c-0.521-0.358-1.023-0.74-1.48-1.182c-0.362-0.351-0.808-0.541-1.277-0.687c-0.694-0.212-1.405-0.354-2.13-0.437
	c-0.184-0.021-0.361-0.062-0.545-0.074c-0.095-0.006-0.104-0.043-0.106-0.112c-0.038-0.497,0.002-0.988,0.074-1.479
	c0.062-0.429,0.109-0.855,0.163-1.285c0.086-0.688,0.178-1.377,0.258-2.064c0.139-1.135,0.385-2.249,0.593-3.369
	c0.229-1.238,0.459-2.479,0.688-3.718c0.113-0.62,0.23-1.239,0.329-1.86c0.069-0.449,0.107-0.902,0.162-1.355
	c0.057-0.467,0.115-0.934,0.172-1.4c0.041-0.341,0.071-0.684,0.118-1.021c0.078-0.584,0.131-1.174,0.224-1.756
	c0.089-0.562,0.159-1.123,0.21-1.688c0.056-0.599,0.133-1.188,0.17-1.785c0.042-0.646,0.104-1.286,0.12-1.933
	c0.011-0.344,0.056-0.684,0.068-1.025c0.017-0.427-0.007-0.855,0.032-1.281c0.057-0.613,0.024-1.23,0.058-1.847
	c0.016-0.334,0.021-0.675,0.001-1.017c-0.012-0.219-0.021-0.441-0.018-0.666c0.017-0.566-0.037-1.137-0.06-1.705
	c-0.021-0.551-0.076-1.1-0.143-1.645c-0.162-1.326-0.36-2.65-0.812-3.915c-0.182-0.513-0.338-1.035-0.505-1.552
	c-0.11-0.345-0.271-0.664-0.443-0.981c-0.373-0.693-0.639-1.433-0.892-2.175c-0.191-0.568-0.39-1.135-0.521-1.722
	c-0.071-0.319-0.103-0.646-0.222-0.956c-0.225-0.583-0.438-1.169-0.688-1.742c-0.155-0.359-0.304-0.722-0.467-1.079
	c-0.021-0.05-0.027-0.107-0.041-0.161C25.202,36.404,25.215,36.392,25.229,36.38z"/>
<path fill-rule="evenodd" clip-rule="evenodd" fill="#F4F4F4" d="M63.594,12.016c-1.014-0.382-2.028-0.76-3.041-1.144
	c-1.095-0.414-2.188-0.831-3.28-1.25c-0.125,0.207-0.263,0.405-0.418,0.59c0.521,0.184,1.029,0.402,1.546,0.597
	c0.587,0.221,1.168,0.462,1.75,0.698c0.287,0.116,0.576,0.229,0.871,0.326c0.345,0.114,0.672,0.27,1.02,0.429
	c-4.308,6.232-8.604,12.445-12.917,18.687C44,24.637,38.901,18.357,33.799,12.073c0.116-0.097,0.229-0.138,0.341-0.174
	c0.629-0.202,1.229-0.479,1.852-0.699c0.455-0.161,0.882-0.396,1.351-0.527c0.092-0.025,0.168-0.058,0.272-0.024
	c0.155,0.05,0.241,0.009,0.314-0.138c0.045-0.09,0.107-0.126,0.194-0.158c0.228-0.083,0.453-0.178,0.685-0.249
	c-0.128-0.201-0.246-0.41-0.344-0.628c-0.336,0.14-0.678,0.267-1.019,0.395c-1.572,0.593-3.145,1.184-4.716,1.777
	c-1.201,0.453-2.401,0.909-3.602,1.363c-0.323,0.122-0.645,0.245-0.967,0.367c0.125,0.238,0.236,0.485,0.323,0.742
	c0.462-0.183,0.926-0.357,1.387-0.543c0.575-0.232,1.158-0.445,1.731-0.682c0.469-0.194,0.95-0.357,1.416-0.559
	c0.225-0.097,0.231-0.083,0.378,0.098c1.329,1.636,2.658,3.271,3.986,4.908c1.912,2.355,3.823,4.711,5.735,7.066
	c1.806,2.225,3.613,4.45,5.423,6.671c0.123,0.151,0.176,0.302,0.176,0.5c-0.005,8.384-0.004,16.767-0.004,25.151v0.378
	c-0.084,0.034-0.165,0.021-0.244,0.02c-0.582-0.016-1.165-0.021-1.747-0.042c-0.662-0.023-1.325-0.026-1.987-0.048
	c-0.686-0.022-1.373-0.026-2.059-0.049c-0.654-0.021-1.309-0.026-1.963-0.048c-0.694-0.022-1.389-0.025-2.083-0.048
	c-0.662-0.022-1.325-0.025-1.987-0.049c-0.894-0.032-1.789-0.036-2.684-0.052c-0.056-0.001-0.112-0.004-0.167-0.004
	c-0.275-0.001-0.555-0.076-0.823,0.062c-0.077,0.039-0.089-0.04-0.089-0.096c-0.002-0.24-0.008-0.48,0.001-0.72
	c0.004-0.106-0.027-0.196-0.097-0.259c-0.279-0.244-0.515-0.529-0.764-0.803c-0.15-0.165-0.323-0.309-0.484-0.464
	c-0.245-0.236-0.463-0.505-0.753-0.689c-0.316-0.201-0.582-0.468-0.902-0.669c-0.098,0.105-0.1,0.263-0.19,0.357
	c-0.079,0.083-0.069,0.167-0.083,0.26c-0.029,0.192,0.055,0.371,0.053,0.562c-0.006,0.68-0.003,1.36-0.002,2.04
	c0,0.061-0.015,0.122,0.047,0.175c0.279,0.232,0.499,0.524,0.717,0.808c0.302,0.39,0.631,0.757,0.923,1.155
	c0.324,0.44,0.645,0.884,0.966,1.327c0.15,0.207,0.259,0.438,0.438,0.693c0.031-0.254,0.085-0.461,0.092-0.663
	c0.022-0.749-0.015-1.5,0.052-2.249c0.018-0.199,0.078-0.284,0.278-0.308c0.047-0.006,0.096-0.005,0.144-0.001
	c0.486,0.033,0.973,0.02,1.46,0.04c0.693,0.028,1.389,0.026,2.083,0.051c0.654,0.022,1.309,0.026,1.963,0.047
	c0.694,0.022,1.389,0.025,2.083,0.049c0.654,0.021,1.309,0.025,1.963,0.047c0.694,0.023,1.389,0.025,2.083,0.05
	c0.646,0.023,1.293,0.024,1.939,0.046c0.702,0.024,1.404,0.027,2.107,0.05c0.654,0.021,1.309,0.026,1.963,0.047
	c0.687,0.021,1.373,0.024,2.06,0.05c0.654,0.023,1.309,0.023,1.964,0.046c0.718,0.024,1.437,0.026,2.154,0.05
	c0.631,0.021,1.261,0.026,1.892,0.046c0.726,0.023,1.453,0.021,2.179,0.052c0.376,0.017,0.751,0.014,1.127,0.021
	c0.166,0.003,0.17,0.005,0.171,0.177c0.003,0.512,0.006,1.023-0.001,1.536c-0.003,0.261,0.103,0.504,0.111,0.762
	c0,0.003,0.013,0.005,0.032,0.011c0.085-0.141,0.174-0.283,0.257-0.428c0.109-0.19,0.25-0.358,0.375-0.538
	c0.071-0.102,0.121-0.22,0.203-0.312c0.21-0.235,0.385-0.5,0.57-0.752c0.153-0.208,0.32-0.405,0.482-0.604
	c0.183-0.223,0.356-0.455,0.552-0.671c0.173-0.19,0.32-0.406,0.507-0.585c0.084-0.08,0.117-0.149,0.116-0.262
	c-0.004-0.647-0.002-1.296-0.002-1.943c-0.001-0.071-0.032-0.154-0.006-0.212c0.184-0.402-0.048-0.704-0.234-1.065
	c-0.095,0.165-0.259,0.194-0.358,0.299c-0.122,0.127-0.269,0.212-0.404,0.316c-0.181,0.14-0.379,0.256-0.532,0.432
	c-0.351,0.4-0.79,0.714-1.115,1.142c-0.118,0.156-0.267,0.293-0.418,0.418c-0.118,0.098-0.152,0.207-0.154,0.353
	c-0.005,0.406,0.028,0.813-0.025,1.22c-0.023,0.171-0.019,0.186-0.198,0.171c-0.446-0.036-0.894-0.018-1.34-0.037
	c-0.693-0.03-1.389-0.029-2.083-0.052c-0.654-0.021-1.309-0.026-1.963-0.048c-0.687-0.022-1.373-0.024-2.06-0.048
	c-0.67-0.022-1.341-0.025-2.011-0.048c-0.671-0.022-1.342-0.016-2.012-0.05c-0.431-0.022-0.863-0.017-1.295-0.021
	c-0.258-0.003-0.257-0.001-0.255-0.271V32.023c0-0.072-0.001-0.144,0-0.216c0.001-0.047,0.007-0.088,0.038-0.132
	c0.236-0.331,0.468-0.664,0.699-0.997c0.944-1.367,1.889-2.735,2.833-4.103c1.168-1.689,2.336-3.378,3.504-5.067
	c0.786-1.137,1.57-2.275,2.356-3.412c1.014-1.465,2.028-2.93,3.042-4.396c0.255-0.368,0.508-0.737,0.76-1.106
	c0.063-0.094,0.137-0.165,0.255-0.102c0.219,0.118,0.463,0.166,0.688,0.261c0.491,0.207,0.985,0.405,1.488,0.58
	c0.159,0.055,0.296,0.151,0.456,0.205c0.354,0.119,0.702,0.254,1.05,0.389c0.277,0.108,0.553,0.218,0.829,0.329
	c0.08-0.257,0.18-0.506,0.298-0.747C66.224,13.012,64.909,12.513,63.594,12.016z"/>
<path fill-rule="evenodd" clip-rule="evenodd" fill="#585858" d="M69.812,37.126c-0.095,0.236-0.194,0.479-0.29,0.724
	c-0.243,0.617-0.499,1.229-0.72,1.854c-0.108,0.306-0.144,0.636-0.225,0.952c-0.252,0.984-0.569,1.948-0.969,2.882
	c-0.185,0.432-0.421,0.842-0.608,1.273c-0.147,0.336-0.259,0.688-0.38,1.034c-0.115,0.332-0.233,0.663-0.332,1
	c-0.156,0.536-0.312,1.074-0.44,1.617c-0.114,0.488-0.201,0.984-0.282,1.48c-0.055,0.338-0.079,0.681-0.116,1.022
	c-0.041,0.38-0.084,0.761-0.12,1.142c-0.017,0.175-0.014,0.351-0.024,0.526c-0.011,0.183-0.021,0.366-0.045,0.548
	c-0.007,0.057-0.041,0.121-0.083,0.161c-0.149,0.142-0.284,0.294-0.486,0.38c-0.147,0.063-0.271,0.194-0.39,0.312
	c-0.584,0.58-1.162,1.166-1.744,1.748c-0.078,0.078-0.128,0.162-0.123,0.274c0.012,0.263,0.023,0.525,0.033,0.788
	c0.004,0.08,0.015,0.163-0.001,0.239c-0.064,0.317-0.055,0.632,0.001,0.95c0.022,0.124,0.008,0.255,0.008,0.383
	c0,0.464-0.002,0.928,0,1.392c0.001,0.24,0.063,0.315,0.31,0.398c0.382-0.547,0.745-1.107,1.149-1.636
	c0.398-0.521,0.839-1.009,1.291-1.549c0.02,0.103,0.037,0.152,0.039,0.203c0.021,0.565,0.039,1.131,0.06,1.696
	c0.01,0.271,0.024,0.542,0.038,0.812c0.005,0.108-0.046,0.184-0.103,0.276c-0.226,0.367-0.556,0.661-0.732,1.06
	c-0.007,0.015-0.014,0.03-0.025,0.041c-0.341,0.299-0.531,0.713-0.806,1.063c-0.246,0.312-0.457,0.65-0.684,0.977
	c-0.009,0.014-0.013,0.031-0.023,0.042c-0.316,0.29-0.156,0.643-0.126,0.978c0.006,0.055,0.036,0.106,0.04,0.161
	c0.02,0.286,0.015,0.575,0.057,0.857c0.04,0.266,0.031,0.536,0.114,0.8c0.052,0.161,0.021,0.349,0.029,0.523
	c0.007,0.166,0.012,0.327,0.068,0.493c0.061,0.176,0.047,0.377,0.072,0.565c0.018,0.134,0.051,0.265,0.071,0.397
	c0.023,0.157,0.044,0.314,0.062,0.473c0.039,0.34,0.07,0.681,0.115,1.02c0.026,0.195,0.073,0.387,0.109,0.58
	c0.043,0.233,0.087,0.466,0.126,0.7c0.041,0.25,0.078,0.502,0.117,0.753c0.007,0.047,0.023,0.095,0.02,0.142
	c-0.026,0.3,0.083,0.58,0.128,0.869c0.076,0.485,0.209,0.964,0.248,1.451c0.042,0.518,0.161,1.022,0.199,1.539
	c0.007,0.087-0.004,0.176,0.004,0.264c0.013,0.142,0.039,0.282,0.05,0.424c0.021,0.278,0.038,0.558,0.052,0.836
	c0.007,0.15-0.014,0.304,0.073,0.442c0.02,0.031,0.02,0.077,0.021,0.116c0.015,0.312,0.024,0.622,0.045,0.933
	c0.008,0.108,0.041,0.215,0.063,0.322c0.009,0.038,0.025,0.076,0.027,0.115c0.019,0.287,0.036,0.573,0.05,0.86
	c0.009,0.173-0.029,0.353,0.083,0.51c0.013,0.018,0.011,0.046,0.012,0.07c0.018,0.294,0.036,0.588,0.051,0.882
	c0.006,0.143-0.009,0.284,0.072,0.418c0.033,0.055,0.022,0.14,0.022,0.211c0.002,0.279,0.031,0.547,0.13,0.816
	c0.091,0.249,0.111,0.523,0.171,0.785c0.04,0.178,0.098,0.352,0.141,0.529c0.054,0.223,0.073,0.46,0.159,0.669
	c0.075,0.181,0.068,0.355,0.089,0.529c-0.02,0.018-0.029,0.034-0.043,0.039c-0.522,0.169-0.938,0.494-1.339,0.859
	c-0.348,0.316-0.725,0.607-1.117,0.865c-0.521,0.343-0.94,0.791-1.378,1.223c-0.159,0.156-0.309,0.324-0.461,0.487
	c-0.033,0.035-0.076,0.068-0.092,0.11c-0.104,0.282-0.33,0.353-0.603,0.383c-0.355,0.04-0.708,0.115-1.063,0.166
	c-0.555,0.08-1.113,0.104-1.672,0.094c-1.138-0.02-2.264-0.143-3.355-0.475c-0.373-0.113-0.735-0.269-1.09-0.433
	c-0.775-0.358-1.581-0.605-2.426-0.719c-0.363-0.049-0.729-0.081-1.095-0.104c-0.358-0.022-0.718-0.039-1.076-0.032
	c-0.318,0.006-0.636,0.049-0.953,0.071c-0.12,0.009-0.241,0.018-0.36,0.01c-0.326-0.021-0.651-0.064-0.978-0.074
	c-0.358-0.011-0.717,0.005-1.075,0.01c-0.08,0.001-0.159,0.01-0.239,0.013c-1.119,0.049-2.2,0.27-3.23,0.72
	c-0.637,0.277-1.265,0.579-1.956,0.708c-0.644,0.121-1.286,0.247-1.943,0.263c-0.423,0.01-0.845,0.036-1.268,0.038
	c-0.648,0.003-1.288-0.087-1.925-0.202c-0.18-0.032-0.362-0.057-0.543-0.087c-0.14-0.022-0.246-0.078-0.32-0.216
	c-0.075-0.139-0.181-0.265-0.292-0.377c-0.416-0.42-0.839-0.833-1.261-1.247c-0.034-0.034-0.072-0.063-0.112-0.089
	c-0.627-0.403-1.213-0.861-1.758-1.368c-0.269-0.25-0.579-0.423-0.922-0.543c-0.233-0.082-0.244-0.103-0.191-0.352
	c0.086-0.404,0.172-0.808,0.269-1.208c0.08-0.33,0.161-0.661,0.27-0.982c0.11-0.321,0.162-0.646,0.151-0.984
	c-0.001-0.046,0.016-0.093,0.025-0.14c0.022-0.115,0.052-0.229,0.066-0.347c0.018-0.149,0.02-0.302,0.033-0.452
	c0.036-0.394,0.083-0.787,0.11-1.182c0.023-0.333,0.043-0.662,0.126-0.991c0.056-0.219,0.02-0.461,0.027-0.692
	c0.008-0.221-0.041-0.449,0.087-0.655c0.015-0.023,0.006-0.062,0.008-0.094c0.015-0.303,0.029-0.605,0.043-0.909
	c0.001-0.023-0.001-0.049,0.005-0.071c0.131-0.473,0.062-0.971,0.16-1.44c0.074-0.355,0.042-0.714,0.126-1.062
	c0.074-0.308,0.148-0.615,0.214-0.925c0.032-0.147,0.045-0.299,0.063-0.449c0.036-0.292,0.066-0.585,0.107-0.876
	c0.022-0.156,0.084-0.31,0.09-0.465c0.012-0.327,0.096-0.642,0.139-0.964c0.05-0.375,0.1-0.75,0.156-1.125
	c0.027-0.179,0.075-0.355,0.1-0.534c0.065-0.449,0.13-0.899,0.181-1.35c0.059-0.514,0.076-1.033,0.163-1.542
	c0.04-0.234,0.068-0.469,0.092-0.705c0.032-0.316,0.059-0.634,0.087-0.95c0.012-0.142,0.021-0.284,0.034-0.468
	c-0.352-0.481-0.73-0.995-1.103-1.513c-0.103-0.142-0.169-0.312-0.284-0.442c-0.406-0.463-0.715-0.995-1.089-1.48
	c-0.043-0.056-0.055-0.149-0.051-0.224c0.022-0.486,0.057-0.972,0.078-1.458c0.014-0.319,0.01-0.639,0.016-0.959
	c0.001-0.077,0.007-0.154,0.057-0.25c0.182,0.215,0.366,0.429,0.546,0.646c0.191,0.23,0.383,0.461,0.568,0.696
	c0.157,0.2,0.308,0.404,0.458,0.609c0.201,0.274,0.399,0.552,0.596,0.829c0.077,0.108,0.148,0.222,0.227,0.339
	c0.233-0.049,0.321-0.144,0.323-0.395c0.005-0.432-0.004-0.863,0.004-1.296c0.005-0.278,0.044-0.557,0.042-0.835
	c-0.003-0.551-0.021-1.101-0.043-1.651c-0.003-0.079-0.04-0.177-0.095-0.232c-0.581-0.594-1.165-1.186-1.757-1.768
	c-0.14-0.137-0.323-0.229-0.478-0.351c-0.143-0.114-0.278-0.238-0.409-0.365c-0.029-0.028-0.034-0.088-0.037-0.134
	c-0.053-0.74-0.077-1.483-0.16-2.22c-0.14-1.246-0.335-2.484-0.71-3.686c-0.214-0.686-0.442-1.368-0.683-2.045
	c-0.095-0.269-0.25-0.516-0.367-0.778c-0.22-0.496-0.459-0.986-0.64-1.497c-0.275-0.774-0.52-1.561-0.75-2.35
	c-0.107-0.365-0.132-0.753-0.278-1.112c-0.21-0.518-0.407-1.042-0.618-1.559c-0.147-0.363-0.309-0.719-0.463-1.079
	c-0.015-0.034-0.022-0.072-0.053-0.17c0.126,0.075,0.203,0.121,0.28,0.168c0.061,0.038,0.12,0.08,0.182,0.117
	c0.193,0.117,0.221,0.115,0.363-0.049c0.214-0.248,0.425-0.499,0.635-0.75c0.395-0.472,0.793-0.941,1.181-1.419
	c0.087-0.108,0.163-0.239,0.203-0.372c0.14-0.458,0.249-0.926,0.394-1.382c0.077-0.242,0.195-0.472,0.306-0.702
	c0.267-0.554,0.544-1.104,0.811-1.659c0.065-0.135,0.121-0.279,0.156-0.425c0.286-1.163,0.572-2.326,0.84-3.493
	c0.053-0.229,0.032-0.476,0.038-0.715c0.018-0.814,0.034-1.629,0.045-2.444c0.002-0.151-0.021-0.302-0.033-0.453
	c-0.003-0.04-0.011-0.082-0.004-0.12c0.053-0.286,0.015-0.569,0-0.856c-0.033-0.615-0.087-1.224-0.21-1.827
	c-0.063-0.312-0.085-0.633-0.159-0.942c-0.098-0.411-0.217-0.818-0.348-1.22c-0.288-0.89-0.579-1.778-0.886-2.661
	c-0.145-0.414-0.33-0.814-0.496-1.221c-0.018-0.043-0.032-0.088-0.051-0.141c0.225-0.142,0.458-0.234,0.699-0.32
	c0.292-0.104,0.576-0.229,0.865-0.342c0.118-0.046,0.24-0.084,0.36-0.128c0.497-0.186,0.996-0.369,1.491-0.56
	c0.215-0.083,0.422-0.187,0.637-0.272c0.222-0.089,0.449-0.165,0.673-0.25c0.229-0.086,0.462-0.162,0.682-0.266
	c0.236-0.112,0.493-0.167,0.721-0.308c0.158-0.097,0.359-0.12,0.537-0.188c0.654-0.25,1.299-0.525,1.966-0.743
	c0.227-0.074,0.442-0.181,0.664-0.27c0.228-0.092,0.457-0.181,0.738-0.292c0.023,0.041,0.044,0.095,0.08,0.138
	c0.39,0.465,0.773,0.937,1.175,1.391c0.572,0.646,1.157,1.281,1.741,1.917c0.417,0.456,0.904,0.834,1.391,1.21
	c1.245,0.962,2.584,1.77,4.002,2.45c0.601,0.288,0.607,0.311,1.238,0.081c0.825-0.301,1.638-0.638,2.455-0.96
	c0.171-0.067,0.337-0.151,0.512-0.205c0.463-0.145,0.833-0.433,1.185-0.75c0.54-0.487,1.071-0.985,1.616-1.466
	c0.762-0.673,1.48-1.386,2.136-2.165c0.271-0.323,0.469-0.685,0.677-1.043c0.079-0.137,0.159-0.273,0.249-0.428
	c0.193,0.077,0.368,0.148,0.543,0.217c0.186,0.073,0.37,0.146,0.556,0.218c0.342,0.133,0.684,0.265,1.025,0.398
	c0.06,0.023,0.117,0.05,0.177,0.072c0.193,0.071,0.389,0.139,0.582,0.212c0.531,0.203,1.07,0.389,1.59,0.619
	c0.501,0.221,1.024,0.379,1.522,0.606c0.281,0.128,0.583,0.209,0.873,0.318c0.244,0.091,0.483,0.194,0.727,0.288
	c0.481,0.186,0.966,0.368,1.447,0.556c0.142,0.055,0.275,0.127,0.416,0.186c0.096,0.04,0.193,0.075,0.294,0.099
	c0.247,0.061,0.282,0.115,0.191,0.347c-0.181,0.461-0.386,0.914-0.544,1.382c-0.353,1.045-0.689,2.095-1.021,3.147
	c-0.143,0.45-0.197,0.919-0.248,1.388c-0.014,0.126-0.035,0.254-0.068,0.376c-0.063,0.234-0.074,0.471-0.083,0.711
	c-0.014,0.341-0.059,0.682-0.087,1.022c-0.007,0.08-0.011,0.161-0.004,0.24c0.048,0.558-0.017,1.115,0.004,1.672
	c0.026,0.702,0.029,1.405,0.056,2.107c0.006,0.173,0.056,0.346,0.097,0.517c0.259,1.063,0.502,2.13,0.789,3.186
	c0.105,0.388,0.305,0.753,0.479,1.12c0.226,0.477,0.491,0.935,0.699,1.419c0.141,0.328,0.224,0.683,0.307,1.032
	c0.112,0.472,0.283,0.896,0.62,1.269C68.664,35.722,69.216,36.417,69.812,37.126z"/>
</svg>
