<?xml version="1.0" encoding="utf-8"?>
<!-- Generator: Adobe Illustrator 16.0.0, SVG Export Plug-In . SVG Version: 6.00 Build 0)  -->
<!DOCTYPE svg PUBLIC "-//W3C//DTD SVG 1.1//EN" "http://www.w3.org/Graphics/SVG/1.1/DTD/svg11.dtd" [
	<!ENTITY ns_flows "http://ns.adobe.com/Flows/1.0/">
	<!ENTITY ns_extend "http://ns.adobe.com/Extensibility/1.0/">
	<!ENTITY ns_ai "http://ns.adobe.com/AdobeIllustrator/10.0/">
	<!ENTITY ns_graphs "http://ns.adobe.com/Graphs/1.0/">
	<!ENTITY ns_vars "http://ns.adobe.com/Variables/1.0/">
	<!ENTITY ns_imrep "http://ns.adobe.com/ImageReplacement/1.0/">
	<!ENTITY ns_sfw "http://ns.adobe.com/SaveForWeb/1.0/">
	<!ENTITY ns_custom "http://ns.adobe.com/GenericCustomNamespace/1.0/">
	<!ENTITY ns_adobe_xpath "http://ns.adobe.com/XPath/1.0/">
]>
<svg version="1.1" id="Layer_1" xmlns:x="&ns_extend;" xmlns:i="&ns_ai;" xmlns:graph="&ns_graphs;"
	 xmlns="http://www.w3.org/2000/svg" xmlns:xlink="http://www.w3.org/1999/xlink" xmlns:a="http://ns.adobe.com/AdobeSVGViewerExtensions/3.0/"
	 x="0px" y="0px" width="850.391px" height="850.39px" viewBox="0 0 850.391 850.39" enable-background="new 0 0 850.391 850.39"
	 xml:space="preserve">
<metadata><?xpacket begin="﻿" id="W5M0MpCehiHzreSzNTczkc9d"?>
<x:xmpmeta xmlns:x="adobe:ns:meta/" x:xmptk="Adobe XMP Core 5.3-c011 66.145661, 2012/02/06-14:56:27        ">
   <rdf:RDF xmlns:rdf="http://www.w3.org/1999/02/22-rdf-syntax-ns#">
      <rdf:Description rdf:about=""
            xmlns:xmp="http://ns.adobe.com/xap/1.0/"
            xmlns:xmpGImg="http://ns.adobe.com/xap/1.0/g/img/">
         <xmp:CreatorTool>Adobe Illustrator CS6 (Macintosh)</xmp:CreatorTool>
         <xmp:CreateDate>2019-09-30T19:52:26+08:00</xmp:CreateDate>
         <xmp:MetadataDate>2019-09-30T19:52:26+08:00</xmp:MetadataDate>
         <xmp:ModifyDate>2019-09-30T19:52:26+08:00</xmp:ModifyDate>
         <xmp:Thumbnails>
            <rdf:Alt>
               <rdf:li rdf:parseType="Resource">
                  <xmpGImg:width>192</xmpGImg:width>
                  <xmpGImg:height>256</xmpGImg:height>
                  <xmpGImg:format>JPEG</xmpGImg:format>
                  <xmpGImg:image>/9j/4AAQSkZJRgABAgEASABIAAD/7QAsUGhvdG9zaG9wIDMuMAA4QklNA+0AAAAAABAASAAAAAEA&#xA;AQBIAAAAAQAB/+4ADkFkb2JlAGTAAAAAAf/bAIQABgQEBAUEBgUFBgkGBQYJCwgGBggLDAoKCwoK&#xA;DBAMDAwMDAwQDA4PEA8ODBMTFBQTExwbGxscHx8fHx8fHx8fHwEHBwcNDA0YEBAYGhURFRofHx8f&#xA;Hx8fHx8fHx8fHx8fHx8fHx8fHx8fHx8fHx8fHx8fHx8fHx8fHx8fHx8fHx8f/8AAEQgBAADAAwER&#xA;AAIRAQMRAf/EAaIAAAAHAQEBAQEAAAAAAAAAAAQFAwIGAQAHCAkKCwEAAgIDAQEBAQEAAAAAAAAA&#xA;AQACAwQFBgcICQoLEAACAQMDAgQCBgcDBAIGAnMBAgMRBAAFIRIxQVEGE2EicYEUMpGhBxWxQiPB&#xA;UtHhMxZi8CRygvElQzRTkqKyY3PCNUQnk6OzNhdUZHTD0uIIJoMJChgZhJRFRqS0VtNVKBry4/PE&#xA;1OT0ZXWFlaW1xdXl9WZ2hpamtsbW5vY3R1dnd4eXp7fH1+f3OEhYaHiImKi4yNjo+Ck5SVlpeYmZ&#xA;qbnJ2en5KjpKWmp6ipqqusra6voRAAICAQIDBQUEBQYECAMDbQEAAhEDBCESMUEFURNhIgZxgZEy&#xA;obHwFMHR4SNCFVJicvEzJDRDghaSUyWiY7LCB3PSNeJEgxdUkwgJChgZJjZFGidkdFU38qOzwygp&#xA;0+PzhJSktMTU5PRldYWVpbXF1eX1RlZmdoaWprbG1ub2R1dnd4eXp7fH1+f3OEhYaHiImKi4yNjo&#xA;+DlJWWl5iZmpucnZ6fkqOkpaanqKmqq6ytrq+v/aAAwDAQACEQMRAD8A655n/NScSy2eiIEVGKG9&#xA;ejE02rGvSngTX5YoYTc+ZPMF0T6+o3Lg/smVwv8AwINMVS5mZmLMSzHqTucVaxV2Kou31fVrb/ee&#xA;9nhp09OV1/URirKfL35n61YSLHqJOoWhO5b++Uf5L/tfJvvGKvXLS5hurWG6gblDOiyRt4qwqMUq&#xA;uKuxV2KuxV2KuxV2KuxV2KuxV2KuxV2KuxV2KuxV89+YNKTStWuLFLhLlImIEkZr/sW8GH7QxQl2&#xA;KuxV2KuxV2KqttCJriOEyJCJGCmWQkItTSrEAmgxV9B6LYJp+k2lkknqrBEiCX+ag+0PY4pRuKux&#xA;V2KuxV2KuxV2KuxV2KuxV2KuxV2KuxV2KuxV87atp2oadfzW1/GyXKsSxb9qp+0D3B8cUIPFXYq7&#xA;FXYq7FVS3t57iZIII2lmkPFI0BZmJ7ADFX0D5etLq00Kwtbo/wCkQwRpKK1oVUDjX26YpTDFXYq7&#xA;FXYq7FXYq7FXYq7FXYq7FXYq7FXYq7FXYqk3mry1a69pb20gVblQWtZyN0f59eJ6HFXhV7ZXNldy&#xA;2l0hjuIWKSIexGKFDFXYq7FWwCSABUnoMVey/l55Q/Q1j9dvE/3JXSioPWKPqE+Z6t93bFLL8Vdi&#xA;rsVdirsVdirsVdirsVdirsVdirsVdirsVdirsVdirEPP3koa3bC8slC6pAtAOglQfsE/zD9k/R8l&#xA;Xjs0E0ErwzI0csZKvG4KsCOxBxQp4q2ASaDrir078vfITwNHrGrR8ZR8VpauN1PaRwf2v5R269cU&#xA;vRsVdirsVdirsVdirsVdirsVdirsVdirsVdirsVdirsVdirsVdiqX6p5e0TVN7+zjnYCgkIo4Hhz&#xA;WjfjiqSv+WPlBq8baRK9OMsm3y5E4qjdH8k+W9JmE9rahrgfZmlJkZf9Xlsp9wK4qnuKuxV2KuxV&#xA;2KuxV2KuxV2KvLPz+/MK/wDK/l+2sNJnNvq2quwE6fbigjA9RlP7LMWVQfnTfLsMLO7bihZ3eEaR&#xA;+cn5l6W7NDrtxOrGrpd8boH2HrByv+xIzJOKJ6OQccT0Zlpf/OUPm6ABdR0yyvFHVo/Ugc/M8pF+&#xA;5cgdOGBwBm/ln/nJjynqNytvrNlNoxc0Wfl9ZhB/ymVUcf8AAU8cqlpyOTXLCRyes2GoWGoWqXdh&#xA;cxXdrIKxzwusiMPZlJGUkU1EUiMCHYq7FXYq7FXYq7FXYq7FXYq7FXYq7FXYq7FXYq7FXYqsnnht&#xA;4JJ53WKCFTJLI5oqooqzEnoAMVfGH5o+dH83+cbzVFY/UUP1fTkO1LeMniadi5Jc+5zYY4cIpzYR&#xA;oMTybN2KuxVPvKfnnzR5Uu/rOiXz26swaa2PxQS07SRn4TttXqOxyMoCXNjKIPN9U/lh+aekeeNO&#xA;PEC01m2UG908tXbp6kRP2oyfpXoexOFkxmLizxmLN8ra3Yq7FXYq7FXYq7FXYq7FXYq7FXYq7FXY&#xA;q7FXYq7FXhv/ADkj+YTWlnH5P0+TjcXarNqjqfswV+CH/Zkcm9qdmzJwQ6t+GHV855lOS7FXYq7F&#xA;XYqjtD1vU9D1W21XTJ2t721cPFIv4qw7qw2I7jAQCKKCLfZn5fed9P8AOXluDV7WiTf3d7bVqYZ1&#xA;HxJ8jWqnwOYE4cJpwpx4TTJMgxdirsVdirsVdirsVdirsVdirsVdirsVdirsVUby7gs7Oe8uG4W9&#xA;tG80znskalmP0AYgKHw15m1671/X7/Wbskz30zSkE14qTREHsigKPYZsoxoU58RQpLMKXYq7FXYq&#xA;7FXYq9o/5xd1O6j82arpib2tzZfWJRXo8Eqojf8AJcjMfUDa2nONn0tmI4rsVdirsVdirsVdirsV&#xA;dirsVdirsVdirsVdirHfzHt5rjyD5ihgBMradc8VHU0iYkD55PH9QZQ5h8R5sHOdirsVdirsVdir&#xA;sVfSH/OLekWKeX9X1gAG/mu/qjHYlYYo0kFPDk0pr40GYmoO4DjZzvT27MdodirsVdirsVdirsVd&#xA;irsVdirsVdirsVdirsVWyRpJG0cihkcFXU9CCKEHFXxL5/8AKF35S81XujTgmONvUs5T/uy3feN/&#xA;u2PuDmxhLiFudCVi2O5Jk7FXYq7FXYq7FXqX/OPPm99F87JpUzkWGtj6uyk/CLhamFqeJNU/2WU5&#xA;42L7mrNGw+rMwnEdirsVdirsVdirsVdirsVdirsVdirsVdirsVdirwf/AJymm0dbHRImgVtZkkka&#xA;O435JbIBzU0O/J2WlfA0zJ097uRgvd885lOQ7FXYq7FXYq7FVazu7iyvILy2cx3FtIk0Mg6q8bBl&#xA;I+RGJCl9z+XNag1zQNP1iCgiv7eOcKDXiXUFl+atUHNbIUacCQo0mOBDsVdirsVdirsVdirsVdir&#xA;sVdirsVdirsVdir5G/P7Xv0r+ZN9Ej84NMSOyiodgUHOQfMSuw+jM7DGouZiFRedZa2OxV2KuxV2&#xA;KuxV2KvqD/nGjzCb/wAl3OkSNyl0i4IRfCG4rIn/ACUEmYeojRtxcw3t69lDS7FXYq7FXYq7FXYq&#xA;7FXYq7FXYq7FXYq7FVsskcUbyyNxjQFnY9AAKk4q+DdVv5NQ1S8v5P7y7nknevWsrlz+vNmBQdgB&#xA;SFxV2KuxV2KuxV2KuxV7B/zjHqjW/ne9sCT6V9ZOePjJC6sp+hWfKNQNmnONn09mG4rsVdirsVdi&#xA;rsVdirsVdirsVdirsVdirsVSD8wbx7PyL5guY6+pHp9yUI2oxiYKfoJyUB6gygNw+IM2LnOxV2Ku&#xA;xV2KuxV2KuxV6r/zjXCJPzHLmv7mxncU92RN/wDgspz/AEtWb6X1TmE4jsVdirsVdirsVdirsVdi&#xA;rsVdirsVdirsVYt+acBn/LnzGgrUWE0nw9f3a8/+Nd8nj+oM8f1B8VZsHNdirsVdirsVdirsVdir&#xA;1/8A5xf/AOU+v/8AtlTf9RNvlGo+lpz8n0/mG4rsVdirsVdirsVdirsVdirsVdirsVdirsVSrzZb&#xA;/WfK2s21AfXsbmOhFQecLDp365KPMJjzfC2bFz3Yq7FXYq7FXYq7FXYq9i/5xeiJ88alLX4U0yRC&#xA;O9WuIT/xrlGo+lpz8n05mG4rsVdirsVdirsVdirsVdirsVdirsVdirsVWzRLLE8TfZkUq1OtCKYq&#xA;+BGVlYqwKspoynYgjNm7BrFXYq7FXYq7FXYq7FXs/wDzi5/yl+rf9s8/8no8o1HJpz8n0vmG4rsV&#xA;dirsVdirsVdirsVdirsVdirsVdirsVdir4Q1+D6vruo29Cvo3U0fE9RxkYUP3Zso8nPHJAYUuxV2&#xA;KuxV2KuxV2KvZf8AnF2RR5z1SMn4205mA9lniB/4kMo1HJpz8n0zmG4rsVdirsVdirsVdirsVdir&#xA;sVdirsVdirsVdir4g/MGD0PPnmOILxVdTu+C9fhM7lfwzYw+kOdDkEgyTJ2KuxV2KuxV2KuxV65/&#xA;zjHKE/MG7Uipl0yZB7ETQN/xrlGo+lpz8n1FmG4rsVdirsVdirsVdirsVdirsVdirsVdirsVdir4&#xA;s/NeL0vzI8xLWtb2V6/655fxzYY/pDnY/pDFMmyTO38reZrmBLi20i9ngkHKOWO3ldGB7qyqQcHE&#xA;O9HEFX/Bvm//AKseof8ASLN/zTjxDvXiHe7/AAb5v/6seof9Is3/ADTjxDvXiHe7/Bvm/wD6seof&#xA;9Is3/NOPEO9eId6Av9M1HT5hDf2s1nMy81jnjaJipJFQHANNsINpBtDYq9T/AOcbZeH5kBaV9Wyn&#xA;SvhQo3/GuU5/pas30vqvMJxHYq7FXYq7FXYq7FXYq7FXYq7FXYqhdW1BNN0q81F0MiWcEtwyLsWE&#xA;SFyBXxpgJZQjxEDveM/9DUaB/wBWO7/5Gx5V4wdn/JUv5wd/0NRoH/Vju/8AkbHj4wX+Spfzg8M8&#xA;7+YLfzD5r1LW7eF4Ib6X1VhkILLVQCCRt1GbTBK4AsJYjjPCeiSZaxe5+Sv+ci9L0DyrpujXek3F&#xA;zPYQiFpo5ECsFJ40Db/ZoM1moycMyGcezzkHEDzTv/oajQP+rHd/8jY8p8YMv5Kl/ODv+hqNA/6s&#xA;d3/yNjx8YL/JUv5wd/0NRoH/AFY7v/kbHj4wX+Spfzg8q/Nv8xLLzzrVnqNpZyWaWtt9XZJWViT6&#xA;jPUcf9bM/ST4olhLTnFsTbBsymLL/wArfO1l5M80fpq7tHvEFvJCkUTBWDSFfiq23QHMfVS4YMo4&#xA;Dl9INPX/APoajQP+rHd/8jY813jBn/JUv5wZV+XH506Z541yfSbXTZ7OSC2a6MsroylUkjj40Xv+&#xA;9yUMnEXH1OiOKNk3u9GyxwnYq7FXYq7FXYq7FXYq7FXYqk/nL/lENc/7Z91/yYbBLk2Yfrj7w+F8&#xA;wnrHYq2OmbnSf3Y/HV0+q/vD+OjeZDjtUymenhI2W6GonEUHUGQ/J4+5n+byd7qDH8nj7l/N5O91&#xA;Bj+Tx9y/m8ne7LceKMBQasmQzNlvLGto9MxNb9HxcvR/X8Gs1LtXsH/OL3/Kf6h/2ypv+om3y3Dz&#xA;db2p/dj+t+gvqDMl0LsVdirsVdirsVdirsVdirsVSfzl/wAohrn/AGz7r/kw2CXJsw/XH3h8L5hP&#xA;WOxVsdM3Gk/uw6jV/wB4W8yXGdirsVdirsVdirsVaPTMTW/R8XL0f1/BrNS7V7B/zi9/yn+of9sq&#xA;b/qJt8tw83W9qf3Y/rfoL6gzJdC7FXYq7FXYq7FXYq7FXYq7FUFrmnvqWiahpyOI3vLaa3V23CmW&#xA;MoCaeFcBGzOEuGQPcXz5/wBCr6//ANXy0/5FSZR4Jdx/Ksf5pd/0Kvr/AP1fLT/kVJj4JX+VY/zS&#xA;84/MPyFe+SNdj0i7uUupJbdLlJo1KqVdnSlG32MZzZaSNQpx8mcZTxBjGZLB2KuxV2KuxV2KuxVl&#xA;P5deQL3zxrc2k2l1HZyQWzXTSyhmBVJEj4gL3rKMxtXG4V5tmPOMR4iLei/9Cr6//wBXy0/5FSZr&#xA;fBLf/Ksf5pZt+Un5Lap5H8x3OrXepQXkc9m9qIokdWDPLFJyq3b91k4Y+EuLq9aMsaArd61lrrnY&#xA;q7FXYq7FXYq7FXYq7FXYq7FXYq7FXzX/AM5SQkeadHm2o9iUA7/BMx/43zL0/IuTg5PFcyG92Kux&#xA;V2KuxV2KuxV7P/zi5Zu/m7VrwfYh0/0W8KzTRsP+TJzH1B2ac52fS+YjiuxV2KuxV2KuxV2KuxV2&#xA;KuxV2KuxV2KuxV2Kvnr/AJyrUfXPLbb1Md2Om2zQ9D9OZWm6uTg6vBsyW92KuxV2KuxV2KuxV9R/&#xA;843eVm0vyZNrEy8bjW5eaA9fq8HJI/vYu3yIzDzys13OLmlZp63lDS7FXYq7FXYq7FXYq7FXYq7F&#xA;XYq7FXYq7FXYq8G/5yrtJ3s/Ld4q1ghku4ZG8HlWJkH0iJsydMebkYOr56zKch2KuxV2KuxV2Ko3&#xA;Q9P/AElrWn6dUj67cw29R1/eyBNuv82Amggmg+6rGxtbCygsbSMQ2trGsMES9FRAFVR8gM1xNuAS&#xA;r4FdirsVdirsVdirsVdirsVdirsVdirsVdirsVePf85P3kcfkewtSKyXGoIy17LHDJyI+lhl+nHq&#xA;bsA3fMWZjlOxV2KuxV2KuxVkX5dahpmneetDvtTPGxt7yKSWQ9Eo3wufZGox+WRyAmJpjMWC+3Aa&#xA;7jpmucF2KuxV2KuxV2KuxV2KuxV2KuxV2KuxV2KuxV2KvJP+cjvKWra35Ysr/TYnuH0mZ3uLaNSz&#xA;mKVQGdQNzwKCop0JPbL8EgC3YZAF8uEEEgihGxBzMcp2KuxV2KuxV2KuxV9j/kz5mHmD8vdMnYMJ&#xA;7JBYXBb9p7dQoYHvyTifnmBljUnDyRqTN8ra3Yq7FXYq7FXYq7FXYq7FXYq7FXYq7FXYq7FXYqke&#xA;t+RvJ+uFm1bR7S7lf7U7xKJv+RqgSf8ADZITI5FkJEcmI3f/ADjx+WE/L07Ke1JrQw3Mpp8vUMmW&#xA;DPJn40kuX/nGT8vRIXN1qTKekZmh4j7oQ344fzEk+PJh/wCan5A6boXluTWvLMlzMbL47+2nZZCY&#xA;P2pE4op+Dqw/l37b2Y81mizx5bNF4ZmQ3uxV2KvqT/nGWVH/AC9uEU/FFqMyuPcxRMPwOYeo+pxc&#xA;/wBT1rKGl2KuxV2KuxV2KuxV2KuxV2KuxV2KuxV2KuxV2KuxV2KuxVp0V1KOAyMCGUioIPUEYq+T&#xA;/wA2fyg1jy7r1xdaNYT3Xl+5rNA8CNKLepq0UnEEqFP2Seo71rmbiygjfm5ePICN+bzi1sr27mEF&#xA;pbyXEx6RRIzt/wACoJy4lttlHl78qPP2uX8NrDo11axyn4ry7hkggRQaMxd1ANPBan2yEskR1YHI&#xA;A+qfy78iWPkny4mj2szXLtI1xdXDjj6kzqqkhanivFFAGYU58RtxZz4jbJ8gwdir/9k=</xmpGImg:image>
               </rdf:li>
            </rdf:Alt>
         </xmp:Thumbnails>
      </rdf:Description>
      <rdf:Description rdf:about=""
            xmlns:xmpTPg="http://ns.adobe.com/xap/1.0/t/pg/"
            xmlns:stDim="http://ns.adobe.com/xap/1.0/sType/Dimensions#"
            xmlns:xmpG="http://ns.adobe.com/xap/1.0/g/">
         <xmpTPg:MaxPageSize rdf:parseType="Resource">
            <stDim:w>299.998915</stDim:w>
            <stDim:h>299.998743</stDim:h>
            <stDim:unit>Millimeters</stDim:unit>
         </xmpTPg:MaxPageSize>
         <xmpTPg:NPages>1</xmpTPg:NPages>
         <xmpTPg:HasVisibleTransparency>False</xmpTPg:HasVisibleTransparency>
         <xmpTPg:HasVisibleOverprint>False</xmpTPg:HasVisibleOverprint>
         <xmpTPg:PlateNames>
            <rdf:Seq>
               <rdf:li>Cyan</rdf:li>
               <rdf:li>Magenta</rdf:li>
               <rdf:li>Yellow</rdf:li>
               <rdf:li>Black</rdf:li>
            </rdf:Seq>
         </xmpTPg:PlateNames>
         <xmpTPg:SwatchGroups>
            <rdf:Seq>
               <rdf:li rdf:parseType="Resource">
                  <xmpG:groupName>Default Swatch Group</xmpG:groupName>
                  <xmpG:groupType>0</xmpG:groupType>
               </rdf:li>
            </rdf:Seq>
         </xmpTPg:SwatchGroups>
      </rdf:Description>
      <rdf:Description rdf:about=""
            xmlns:dc="http://purl.org/dc/elements/1.1/">
         <dc:format>image/svg+xml</dc:format>
      </rdf:Description>
      <rdf:Description rdf:about=""
            xmlns:xmpMM="http://ns.adobe.com/xap/1.0/mm/"
            xmlns:stRef="http://ns.adobe.com/xap/1.0/sType/ResourceRef#"
            xmlns:stEvt="http://ns.adobe.com/xap/1.0/sType/ResourceEvent#">
         <xmpMM:DerivedFrom rdf:parseType="Resource">
            <stRef:instanceID>xmp.iid:F93F1AA85321681180839FCCDFDC130E</stRef:instanceID>
            <stRef:documentID>xmp.did:F93F1AA85321681180839FCCDFDC130E</stRef:documentID>
            <stRef:originalDocumentID>xmp.did:F63F1AA85321681180839FCCDFDC130E</stRef:originalDocumentID>
         </xmpMM:DerivedFrom>
         <xmpMM:DocumentID>xmp.did:FA3F1AA85321681180839FCCDFDC130E</xmpMM:DocumentID>
         <xmpMM:InstanceID>xmp.iid:FA3F1AA85321681180839FCCDFDC130E</xmpMM:InstanceID>
         <xmpMM:OriginalDocumentID>xmp.did:F63F1AA85321681180839FCCDFDC130E</xmpMM:OriginalDocumentID>
         <xmpMM:History>
            <rdf:Seq>
               <rdf:li rdf:parseType="Resource">
                  <stEvt:action>saved</stEvt:action>
                  <stEvt:instanceID>xmp.iid:F63F1AA85321681180839FCCDFDC130E</stEvt:instanceID>
                  <stEvt:when>2019-09-30T18:39:11+08:00</stEvt:when>
                  <stEvt:softwareAgent>Adobe Illustrator CS6 (Macintosh)</stEvt:softwareAgent>
                  <stEvt:changed>/</stEvt:changed>
               </rdf:li>
               <rdf:li rdf:parseType="Resource">
                  <stEvt:action>saved</stEvt:action>
                  <stEvt:instanceID>xmp.iid:FA3F1AA85321681180839FCCDFDC130E</stEvt:instanceID>
                  <stEvt:when>2019-09-30T19:52:26+08:00</stEvt:when>
                  <stEvt:softwareAgent>Adobe Illustrator CS6 (Macintosh)</stEvt:softwareAgent>
                  <stEvt:changed>/</stEvt:changed>
               </rdf:li>
            </rdf:Seq>
         </xmpMM:History>
      </rdf:Description>
   </rdf:RDF>
</x:xmpmeta>
                                                                                                    
                                                                                                    
                                                                                                    
                                                                                                    
                                                                                                    
                                                                                                    
                                                                                                    
                                                                                                    
                                                                                                    
                                                                                                    
                                                                                                    
                                                                                                    
                                                                                                    
                                                                                                    
                                                                                                    
                                                                                                    
                                                                                                    
                                                                                                    
                                                                                                    
                                                                                                    
                           
<?xpacket end="w"?>
	</metadata>
<rect x="266.196" y="463.529" fill="#FFFFFF" width="310" height="72.221"/>
<rect x="266.196" y="535.75" fill="#7A2426" width="310" height="72.219"/>
<path fill="#8E908F" d="M61.296,9.717c3.604,0,7.207-0.02,10.81,0.008c1.982,0.015,3.963,0.148,5.945,0.159
	c2.292,0.012,4.584-0.065,6.876-0.079c1.904-0.011,3.808,0.024,5.711,0.018c1.61-0.005,3.219-0.043,4.829-0.062
	c6.237-0.074,12.475-0.233,18.71-0.179c2.76,0.024,5.522,0.422,8.271,0.754c5.362,0.647,10.716,1.371,16.072,2.059
	c3.446,0.442,6.896,0.858,10.337,1.333c0.676,0.093,1.354,0.335,1.978,0.626c6.75,3.15,13.32,6.622,19.325,11.123
	c0.964,0.723,1.71,1.503,2.092,2.7c1.117,3.496,2.593,6.842,2.395,10.711c-0.203,3.945-1.925,6.938-4.777,9.287
	c-2.333,1.921-4.931,3.508-7.375,5.293c-0.734,0.536-1.492,1.141-2,1.883c-8.498,12.415-18.02,23.984-28.173,35.007
	c-4.982,5.411-10.554,10.13-17.271,13.286c-1.421,0.667-2.565,1.927-3.961,2.672c-1.192,0.636-2.541,1.034-3.864,1.333
	c-1.081,0.244-2.34-0.29-3.191,0.884c-0.097,0.132-0.417,0.133-0.634,0.13c-5.551-0.083-11.104-0.152-16.655-0.274
	c-2.695-0.06-5.421,0.013-8.076-0.378c-8.394-1.237-16.837-2.352-24.189-7.27c-4.751-3.178-8.963-6.994-12.674-11.324
	c-9.09-10.608-17.996-21.376-25.916-32.942c-0.775-1.131-1.739-1.918-2.885-2.632c-3.354-2.089-6.636-4.264-9.486-7.091
	c-3.715-3.685-4.047-8.066-2.999-12.84c0.033-0.152,0.101-0.297,0.149-0.446c2.225-6.663,2.181-6.743,8.254-10.17
	c5.132-2.895,10.39-5.558,15.573-8.361c2.415-1.306,5.09-1.18,7.67-1.547c5.27-0.75,10.542-1.499,15.832-2.076
	C52.422,10.828,56.77,9.446,61.296,9.717z"/>
<path fill="#552E5F" d="M333.944,285.468c-1.453-1.306-2.732-2.438-3.988-3.593c-0.398-0.367-0.814-0.752-1.086-1.21
	c-1.745-2.937-3.448-5.897-5.172-8.847c-0.779-1.333-1.511-2.702-2.375-3.978c-2.499-3.687-3.566-7.905-4.648-12.128
	c-0.634-2.475-1.375-4.924-1.966-7.408c-0.375-1.581-0.75-3.2-0.799-4.812c-0.116-3.801-0.045-7.607-0.026-11.412
	c0.002-0.458,0.095-0.936,0.244-1.37c2.536-7.377,4.206-15.06,8.091-21.962c1.821-3.235,3.123-6.758,4.857-10.047
	c1.109-2.105,2.612-4,3.879-6.027c1.438-2.301,2.74-4.69,4.223-6.961c2.717-4.16,5.628-8.195,8.258-12.408
	c1.805-2.891,3.364-5.947,4.864-9.011c2.829-5.78,5.658-11.548,7.802-17.654c1.494-4.256,3.861-8.071,7.786-10.77
	c2.665-1.831,5.415-2.113,8.155-0.914c3.463,1.516,7.088,2.327,10.727,3.071c8.435,1.723,16.895,3.324,25.365,4.858
	c4.343,0.787,8.741,1.27,13.099,1.988c4.105,0.678,7.841,2.376,11.478,4.357c2.229,1.214,4.625,2.123,6.859,3.328
	c3.269,1.762,6.889,2.806,9.891,5.14c1.383,1.076,3.158,1.643,4.742,2.466c1.992,1.036,4.141,1.872,5.923,3.195
	c3.908,2.904,7.762,5.912,11.385,9.16c2.936,2.631,5.313,5.887,8.273,8.483c4.084,3.583,6.963,8.096,10.257,12.288
	c2.11,2.685,4.018,5.53,5.983,8.326c1.152,1.641,2.191,3.363,3.377,4.98c0.871,1.188,1.284,2.501,1.292,3.914
	c0.012,2.552,0.581,4.921,1.904,7.112c0.279,0.462,0.409,1.017,0.694,1.475c1.851,2.973,1.205,5.945-0.445,8.593
	c-2.617,4.195-4.226,8.811-6.092,13.318c-1.185,2.86-1.05,5.933-0.595,8.94c0.12,0.79,0.688,1.557,1.185,2.237
	c1.614,2.214,2.905,4.564,3.802,7.176c0.755,2.197,1.697,4.354,2.783,6.408c2.448,4.631,3.994,9.579,5.478,14.566
	c0.464,1.56,1.169,3.046,1.688,4.59c2.65,7.864,5.336,15.718,7.894,23.614c1.648,5.094,3.21,10.223,4.602,15.393
	c1.352,5.016,2.729,10.056,3.552,15.172c0.812,5.032,2.149,10.05,1.587,15.25c-0.283,2.621-0.445,5.256-0.664,7.884
	c-0.013,0.155-0.046,0.309-0.053,0.464c-0.22,4.964-0.519,9.925-0.638,14.892c-0.206,8.552-0.291,17.107-0.442,25.661
	c-0.1,5.676-0.205,11.353-0.349,17.027c-0.062,2.408-0.341,4.813-0.325,7.219c0.076,12.143,0.166,24.285,0.365,36.428
	c0.062,3.85,0.576,7.688,0.705,11.537c0.128,3.812-0.196,7.648,0.085,11.445c0.495,6.682,0.562,13.363,0.616,20.057
	c0.025,3.252,0.546,6.5,0.593,9.754c0.047,3.336-0.198,6.676-0.345,10.012c-0.051,1.16-0.27,2.316-0.271,3.477
	c-0.02,13.709,0.019,27.418-0.027,41.125c-0.017,4.807-0.229,9.611-0.321,14.418c-0.02,1.008,0.114,2.018,0.141,3.025
	c0.027,1.082,0.036,2.166,0.01,3.248c-0.022,0.93-0.223,1.871-0.146,2.789c0.489,5.818-0.018,11.613-0.271,17.42
	c-0.155,3.564-0.168,7.146,0.001,10.711c0.174,3.627-0.776,7.096-1.227,10.625c-0.597,4.689-1.31,9.404-2.521,13.965
	c-1.066,4.021-2.859,7.857-4.381,11.758c-1.214,3.113-2.435,6.227-3.772,9.287c-0.933,2.129-1.931,4.256-3.147,6.229
	c-1.788,2.898-2.273,6.117-2.529,9.359c-0.461,5.832-1.529,11.547-2.783,17.242c-0.167,0.76-0.232,1.543-0.443,2.289
	c-0.543,1.916,0.096,3.477,1.266,4.969c0.564,0.721,0.948,1.59,1.385,2.408c1.017,1.91,1.781,3.943,3.266,5.615
	c0.742,0.836,1.292,1.965,1.584,3.055c0.662,2.465,1.082,4.992,1.663,7.48c0.154,0.66,0.482,1.299,0.819,1.896
	c1.219,2.162,2.934,4.176,3.588,6.492c0.634,2.244,0.195,4.791,0.223,7.205c0.055,5.061,0.067,10.125,0.186,15.188
	c0.025,1.129,0.369,2.26,0.646,3.371c0.319,1.283,0.801,2.537,0.241,3.873c-0.675,1.609-0.848,3.297-0.676,5.018
	c0.097,0.955-0.287,1.592-0.983,2.215c-0.919,0.82-1.716,1.779-2.571,2.674c-0.32,0.336-0.605,0.76-1.001,0.963
	c-4.284,2.199-7.575,5.693-11.252,8.676c-1.482,1.203-2.974,1.725-4.849,1.844c-5.594,0.354-11.185,0.801-16.759,1.389
	c-2.222,0.234-4.408,0.887-6.588,1.438c-3.616,0.914-7.257,0.766-10.893,0.277c-0.977-0.131-1.881-0.727-2.851-0.984
	c-3.073-0.822-6.136-1.723-9.255-2.318c-1.753-0.336-2.874-1.096-3.858-2.562c-7.283-10.867-14.677-21.66-21.944-32.535
	c-1.034-1.549-2.136-2.156-3.979-2.078c-5.498,0.234-11.001,0.357-16.504,0.42c-2.865,0.029-5.719-0.166-8.58,0.33
	c-1.104,0.191-2.304-0.18-3.461-0.289c-5.022-0.482-10.062-0.828-15.057-1.508c-2.021-0.273-3.998-0.346-6.012-0.338
	c-0.923,0.002-1.857-0.145-2.77-0.32c-3.581-0.695-7.164-1.389-10.729-2.164c-1.59-0.346-3.112-1.098-4.712-1.293
	c-4.911-0.604-9.495-2.373-14.119-3.916c-3.095-1.033-5.825-2.934-7.629-5.844c-1.475-2.379-2.877-4.777-3.709-7.496
	c-0.539-1.762-0.705-3.447-0.42-5.273c1.066-6.832,2.053-13.676,3.027-20.521c0.24-1.688,0.347-3.395,0.454-5.096
	c0.026-0.438-0.126-0.914-0.292-1.334c-1.896-4.797-3.06-9.803-4.014-14.84c-0.398-2.109-0.342-4.363-0.13-6.518
	c0.262-2.643,0.003-5.244-0.037-7.867c-0.058-3.814,0.082-7.637-0.043-11.447c-0.113-3.484-0.461-6.961-0.716-10.439
	c-0.308-4.178-0.594-8.357-0.951-12.533c-0.396-4.639-0.121-9.305-0.987-13.936c-0.583-3.111-0.508-6.346-0.768-9.521
	c-0.194-2.396-0.479-4.781-0.681-7.178c-0.37-4.41-0.738-8.82-1.049-13.234c-0.197-2.787-0.34-5.58-0.406-8.371
	c-0.03-1.23,0.192-2.469,0.295-3.703c0.033-0.387,0.089-0.775,0.071-1.162c-0.121-2.635-0.316-5.268-0.38-7.904
	c-0.134-5.443-0.184-10.893-0.301-16.338c-0.092-4.275,0.125-8.6-0.438-12.814c-0.85-6.354-0.779-12.709-0.98-19.072
	c-0.146-4.658-0.293-9.326-0.736-13.961c-0.27-2.807-0.467-5.553,0.042-8.336c0.109-0.604,0.138-1.279-0.021-1.861
	c-0.838-3.057-0.517-6.184-0.691-9.283c-0.25-4.412-0.723-8.812-1.039-13.223c-0.173-2.404-0.173-4.82-0.335-7.225
	c-0.422-6.273-0.917-12.541-1.333-18.814c-0.298-4.496-0.458-9.002-0.779-13.496c-0.354-4.953-0.833-9.899-1.238-14.851
	c-0.209-2.551-0.38-5.105-0.566-7.658c-0.08-1.085-0.103-2.177-0.245-3.253c-0.285-2.141-0.912-4.248-0.414-6.446
	c0.099-0.436,0.056-0.957-0.084-1.385c-1.05-3.198-0.597-6.472-0.574-9.728c0.005-0.757-0.039-1.57-0.305-2.265
	c-1.224-3.188-1.087-6.387-0.286-9.625c0.185-0.749,0.365-1.515,0.405-2.28c0.152-2.938,0.65-5.934,0.252-8.801
	c-0.411-2.956,0.741-5.494,1.162-8.206c1.108-7.13,2.5-14.217,3.663-21.339c0.565-3.458,0.984-6.957,2.276-10.22
	c2.589-6.535,3.292-13.587,5.689-20.168c0.876-2.407,1.562-4.884,2.436-7.292C330.749,293.875,332.334,289.753,333.944,285.468z
	 M473.971,553.126c0-1.064,0.013-1.83-0.001-2.598c-0.162-9.57-0.328-19.145-0.493-28.715c-0.005-0.312-0.022-0.621-0.025-0.934
	c-0.009-0.971-0.523-1.408-1.465-1.404c-0.391,0-0.778-0.01-1.167-0.01c-33.083,0-66.165,0-99.247,0.008
	c-0.75,0-1.5,0.104-2.413,0.17c0,0.91-0.072,1.605,0.013,2.281c0.357,2.855,0.667,5.719,1.166,8.549
	c1.229,6.969,2.514,13.926,2.524,21.039c0.001,0.514,0.189,1.023,0.307,1.613C406.731,553.126,440.17,553.126,473.971,553.126z"/>
<path fill="#8E908F" d="M61.296,39.625c3.604,0,7.207-0.02,10.81,0.008c1.982,0.015,3.963,0.148,5.945,0.159
	c2.292,0.012,4.584-0.065,6.876-0.079c1.904-0.011,3.808,0.024,5.711,0.018c1.61-0.005,3.219-0.043,4.829-0.062
	c6.237-0.074,12.475-0.233,18.71-0.179c2.76,0.024,5.522,0.422,8.271,0.754c5.362,0.647,10.716,1.371,16.072,2.059
	c3.446,0.442,6.896,0.858,10.337,1.333c0.676,0.093,1.354,0.335,1.978,0.626c6.75,3.15,13.32,6.622,19.325,11.123
	c0.964,0.723,1.71,1.503,2.092,2.7c1.117,3.496,2.593,6.842,2.395,10.711c-0.203,3.945-1.925,6.938-4.777,9.287
	c-2.333,1.921-4.931,3.508-7.375,5.293c-0.734,0.536-1.492,1.141-2,1.883c-8.498,12.415-18.02,23.984-28.173,35.007
	c-4.982,5.411-10.554,10.13-17.271,13.286c-1.421,0.667-2.565,1.927-3.961,2.672c-1.192,0.636-2.541,1.034-3.864,1.333
	c-1.081,0.244-2.34-0.29-3.191,0.884c-0.097,0.132-0.417,0.133-0.634,0.13c-5.551-0.083-11.104-0.152-16.655-0.274
	c-2.695-0.06-5.421,0.013-8.076-0.378c-8.394-1.237-16.837-2.352-24.189-7.27c-4.751-3.178-8.963-6.994-12.674-11.324
	c-9.09-10.608-17.996-21.376-25.916-32.942c-0.775-1.131-1.739-1.918-2.885-2.632c-3.354-2.089-6.636-4.264-9.486-7.091
	c-3.715-3.685-4.047-8.066-2.999-12.84c0.033-0.152,0.101-0.297,0.149-0.446c2.225-6.663,2.181-6.743,8.254-10.17
	c5.132-2.895,10.39-5.558,15.573-8.361c2.415-1.306,5.09-1.18,7.67-1.547c5.27-0.75,10.542-1.499,15.832-2.076
	C52.422,40.736,56.77,39.354,61.296,39.625z"/>
</svg>
