<?xml version="1.0" encoding="utf-8"?>
<!-- Generator: Adobe Illustrator 16.0.0, SVG Export Plug-In . SVG Version: 6.00 Build 0)  -->
<!DOCTYPE svg PUBLIC "-//W3C//DTD SVG 1.1//EN" "http://www.w3.org/Graphics/SVG/1.1/DTD/svg11.dtd" [
	<!ENTITY ns_flows "http://ns.adobe.com/Flows/1.0/">
	<!ENTITY ns_extend "http://ns.adobe.com/Extensibility/1.0/">
	<!ENTITY ns_ai "http://ns.adobe.com/AdobeIllustrator/10.0/">
	<!ENTITY ns_graphs "http://ns.adobe.com/Graphs/1.0/">
	<!ENTITY ns_vars "http://ns.adobe.com/Variables/1.0/">
	<!ENTITY ns_imrep "http://ns.adobe.com/ImageReplacement/1.0/">
	<!ENTITY ns_sfw "http://ns.adobe.com/SaveForWeb/1.0/">
	<!ENTITY ns_custom "http://ns.adobe.com/GenericCustomNamespace/1.0/">
	<!ENTITY ns_adobe_xpath "http://ns.adobe.com/XPath/1.0/">
]>
<svg version="1.1" id="Layer_1" xmlns:x="&ns_extend;" xmlns:i="&ns_ai;" xmlns:graph="&ns_graphs;"
	 xmlns="http://www.w3.org/2000/svg" xmlns:xlink="http://www.w3.org/1999/xlink" xmlns:a="http://ns.adobe.com/AdobeSVGViewerExtensions/3.0/"
	 x="0px" y="0px" width="850.391px" height="850.39px" viewBox="0 0 850.391 850.39" enable-background="new 0 0 850.391 850.39"
	 xml:space="preserve">
<metadata><?xpacket begin="﻿" id="W5M0MpCehiHzreSzNTczkc9d"?>
<x:xmpmeta xmlns:x="adobe:ns:meta/" x:xmptk="Adobe XMP Core 5.3-c011 66.145661, 2012/02/06-14:56:27        ">
   <rdf:RDF xmlns:rdf="http://www.w3.org/1999/02/22-rdf-syntax-ns#">
      <rdf:Description rdf:about=""
            xmlns:xmp="http://ns.adobe.com/xap/1.0/"
            xmlns:xmpGImg="http://ns.adobe.com/xap/1.0/g/img/">
         <xmp:CreatorTool>Adobe Illustrator CS6 (Macintosh)</xmp:CreatorTool>
         <xmp:CreateDate>2019-09-30T20:06:11+08:00</xmp:CreateDate>
         <xmp:MetadataDate>2019-09-30T20:06:12+08:00</xmp:MetadataDate>
         <xmp:ModifyDate>2019-09-30T20:06:12+08:00</xmp:ModifyDate>
         <xmp:Thumbnails>
            <rdf:Alt>
               <rdf:li rdf:parseType="Resource">
                  <xmpGImg:width>232</xmpGImg:width>
                  <xmpGImg:height>256</xmpGImg:height>
                  <xmpGImg:format>JPEG</xmpGImg:format>
                  <xmpGImg:image>/9j/4AAQSkZJRgABAgEASABIAAD/7QAsUGhvdG9zaG9wIDMuMAA4QklNA+0AAAAAABAASAAAAAEA&#xA;AQBIAAAAAQAB/+4ADkFkb2JlAGTAAAAAAf/bAIQABgQEBAUEBgUFBgkGBQYJCwgGBggLDAoKCwoK&#xA;DBAMDAwMDAwQDA4PEA8ODBMTFBQTExwbGxscHx8fHx8fHx8fHwEHBwcNDA0YEBAYGhURFRofHx8f&#xA;Hx8fHx8fHx8fHx8fHx8fHx8fHx8fHx8fHx8fHx8fHx8fHx8fHx8fHx8fHx8f/8AAEQgBAADoAwER&#xA;AAIRAQMRAf/EAaIAAAAHAQEBAQEAAAAAAAAAAAQFAwIGAQAHCAkKCwEAAgIDAQEBAQEAAAAAAAAA&#xA;AQACAwQFBgcICQoLEAACAQMDAgQCBgcDBAIGAnMBAgMRBAAFIRIxQVEGE2EicYEUMpGhBxWxQiPB&#xA;UtHhMxZi8CRygvElQzRTkqKyY3PCNUQnk6OzNhdUZHTD0uIIJoMJChgZhJRFRqS0VtNVKBry4/PE&#xA;1OT0ZXWFlaW1xdXl9WZ2hpamtsbW5vY3R1dnd4eXp7fH1+f3OEhYaHiImKi4yNjo+Ck5SVlpeYmZ&#xA;qbnJ2en5KjpKWmp6ipqqusra6voRAAICAQIDBQUEBQYECAMDbQEAAhEDBCESMUEFURNhIgZxgZEy&#xA;obHwFMHR4SNCFVJicvEzJDRDghaSUyWiY7LCB3PSNeJEgxdUkwgJChgZJjZFGidkdFU38qOzwygp&#xA;0+PzhJSktMTU5PRldYWVpbXF1eX1RlZmdoaWprbG1ub2R1dnd4eXp7fH1+f3OEhYaHiImKi4yNjo&#xA;+DlJWWl5iZmpucnZ6fkqOkpaanqKmqq6ytrq+v/aAAwDAQACEQMRAD8A9U4q7FXYq7FXYq7FXYq7&#xA;FXYq7FXYq7FXYq7FXYqo3l5Z2VtJd3k8dtawjlLPM6xxovizMQAPniqT6L5+8ja5dmz0bzDpupXY&#xA;r/o9pdwTSEAVJCIzMR7jFU+xV2KuxV2KuxV2KuxV2KuxV2KuxV2KuxV2KuxV2KuxV2KuxV2KuxV2&#xA;KuxV2KuxV2KuxV8Gf85GfnPqPnnzVc6TY3JHlPSpmisYYz8FxJH8LXL0+3yNfT8F9yaqvIoJ5oJk&#xA;ngkaKaJg8cqEqyspqGVhuCMVfUf5H/8AOWAijTQfzHuWKoAtn5gKs7dgI7pUBJ/4y0/1v5sVfUGj&#xA;63o+tWEeo6RewahYTf3d1bSLLGadRyQkVHcYqjcVdirsVdirsVdirsVdirsVdirsVdirsVdirsVd&#xA;irsVdirsVdirsVdirsVdir5a/wCckP8AnJK8s7y98keTJ/Sli5W+tawlCwYij29uf2Su6u/UHZaU&#xA;rir5QxV2KuxV6b+Q/wCcN3+W/msTXBkm8uX9ItWs0NaCvwzop29SP8RUYq+/tM1PT9V0631LTrhL&#xA;uwu41mtrmI8kdGFQwIxVE4q7FXYq7FXYq7FXYq7FXYq7FXYq7FXYq7FXYq7FXYq7FXYq7FXYq7FX&#xA;jX/ORf55weQNE/RGkSq/m3U4z9WAo31SE/Cbhx/N1EYPU7nYUKr4SkkklkaSRi8jks7sSWLE1JJP&#xA;UnFVuKuxV2KuxV9Kf84jfnA2mar/AIA1m4/3Hai5fQ5JDtFdNu0Ar0Wbqv8Al+74q+wMVdirsVdi&#xA;rsVdirsVdirsVdirsVdirsVdirsVdirsVdirsVdirsVSjzf5msPK/lfVPMN/va6ZbvcOgNC5UfBG&#xA;DQ7u1FHucVfmv5p8y6t5n8w3+v6tKZr/AFCZppm7Cv2UXwVFoqjsBiqVYq7FXYq7FXYqqQTzQTRz&#xA;wO0U0TB4pEJVlZTVWUjoQcVfol+R/wCZMf5gfl9Y6xKy/pWD/RNXjFBS6iA5PQUoJVIkA7Vp2xVn&#xA;2KuxV2KuxV2KuxV2KuxV2KuxV2KuxV2KuxV2KuxV2KuxV2KuxV4b/wA5i6pNZ/lCtvGxC6lqdray&#xA;gdCqpLcUP+ytwcVfDuKuxV2KuxV2KuxV2KvYP+caPzZj8iedvqmpy8PLuu8La/djRYJQT6Nwa7UU&#xA;sVf/ACST2xV96Agio3B6HFXYq7FXYq7FXYq7FXYq7FXYq7FXYq7FXYq7FXYq7FXYq7FXYq8A/wCc&#xA;1f8AyVmlf9ty3/6g7vFXxVirsVdirsVdirsVdirsVfc3/OJ35j3PmryBJo+oymbVPLTR2plbdntJ&#xA;FJtmY+KhGj+SjucVe3Yq7FXYq7FXYq7FXYq7FXYq7FXYq7FXYq7FXYq7FXYq7FXYq8X/AOcudGt9&#xA;R/Jy6uZbhYH0q9tr2BXNPVclrb0x78LhmHy+nFXwnirsVdirsVdirsVdiq+GGaeVIYUaWaRgscaA&#xA;szMTQBQNyTir7S/5xL/KvzJ5Q0bVta8w2z2F3rfoLa2Eo4ypBBzbnKvVC7S/ZO4pv1xV7/irsVdi&#xA;rsVdirsVdirsVdirsVdirsVdirsVdirsVdirsVdir4h/5y2/MW5178wH8tWl2X0TQFSNoI2/dNes&#xA;OUztQ/EyBhHv9mjeJxV4TirsVdirsVdirsVdirI/IXn3zD5G8xwa9oUqJdxApJHKoeOWJvtRup7N&#xA;4ggjscVfod+XvnnSfPHlKw8yaWaQ3ifvoCavDMm0sT+6N94oehxVkeKuxV2KuxV2KuxV2KuxV2Ku&#xA;xV2KuxV2KuxV2KuxV2KuxV5Z/wA5I/mHeeSvy1urjTLpLbWtSkWysGJ/egPvNJEvXkkdfi/ZJHti&#xA;r8/2ZmYsxLMxqzHcknFWsVdirsVdirsVdirsVdir1j/nHv8AOa7/AC880LbXshfytqsiJqkJ3ELH&#xA;4Vuk8Cn7f8y+4Wir73tbq1u7aK6tJkuLadRJDPEweN0YVVlZSQwI6EYqq4q7FXYq7FXYq7FXYq7F&#xA;XYq7FXYq7FXYq7FXYqp3Nzb2tvLc3MqQW8KmSaaRgiIiirMzNQAAdScVfOn5q/8AOYGhaUJ9L8iR&#xA;Lq2oUKHV5QRZxN0JjQ0eYj6F71YYq+UPMvmvzH5o1STVPMGozalfSdZp2rxBNeKKKKi+CqAB4Yql&#xA;OKuxV2KuxV2KuxV2KuxV2KuxV6J+Vf55+d/y7ulTT7g3uiM1bjRbliYGr1aI7mF/8pevcHFX2R+V&#xA;v5+eQ/zCSO2sbg6frpXlLo12QstR9r0X+xMv+r8VNyoxV6RirsVdirsVdirsVdirsVdirsVdirsV&#xA;diqD1nVrDR9JvNW1CUQ2NhDJcXMp/ZjiUsx+4Yq+Hvzk/wCck9b/ADD0K00S2tDo9gHeTUo45C31&#xA;khz6Ck0HwItCV7tv2GKvGMVdirsVdirsVdirsVdirsVdirsVdirsVVbW6ubS5iurWV4LmB1kgnjY&#xA;o6OhqrKwoQQRUEYq+yPyS/5yhPm3XdG8pa7Zrb6lcWjRyapzAW4voiSoEYACCSJSev2/hApTFX0P&#xA;irsVdirsVdirsVdirsVdirsVdirsVfOH/OZf5gnTfLVh5Ls5ON1rTfWtQ4mhFpA3wKf+Msw/4Q+O&#xA;KvjrFXYq7FXYq7FXYq7FXYq7FXYq7FXYq7FXYq7FUTpuoXmm6ha6jZSmG8s5UuLaZdikkTB0YfJh&#xA;ir9LvIvmm381+TtH8xQAKmp2sc7xruEkIpLH/sJAy/Riqe4q7FXYq7FXYq7FXYq7FXYq7FXYq/Pr&#xA;/nJPzM2v/nHr7h+Vvpsi6Zbr/KLReEg/5HeofpxV5hirsVdirsVdirsVdirsVdirsVdirsVdirsV&#xA;dirsVfZ3/OF/m06h5E1Ly3M9ZtCu/UgXwtr0F1A+UySk/PFX0NirsVdirsVdirsVdirsVdirsVQe&#xA;s6pbaTo99qt0aW2n28t1OelI4UMjfguKvy/1G+udQ1C5v7pudzdyvPO/jJKxdj9JOKofFXYq7FXY&#xA;q7FXYq7FXYq7FXYq7FXYq7FXYq7FXYq9y/5w98xnTPzY/RjuRDrllPbBP2TLCBco3zCxOB88VfcW&#xA;KuxV2KuxV2KuxV2KuxV2KuxV5j/zkrrjaP8Akv5ikRqTXkcdjGK0qLmVY5B/yKL4q/PnFXYq7FXY&#xA;q7FXYq7FXYq7FXYq7FXYq7FXYq7FXYq7FWU/lbrZ0P8AMfy1qvLiltqVsZidv3TShJf+SbNir9K8&#xA;VdirsVdirsVdirsVdirsVdir53/5zX1YweQNF0tW4m+1MSuNviS3heo69OUqnFXxnirsVdirsVdi&#xA;rsVdirsVdirsVdirsVdirsVdirsVdirasysGUlWU1VhsQRir9QfLOrDWPLek6upBGo2dvdgilKTx&#xA;LJ22/axVMsVdirsVdirsVdirsVdirsVfKn/Oct38fk60BNANQlcdjX6uq/dRsVfK2KuxV2KuxV2K&#xA;uxV2KuxV2KuxV2KuxV2KuxV2KuxV2KuxV+kP5L3X1n8pfJ8lQ3HSLOKq9P3UKx0+Y4b4qzPFXYq7&#xA;FXYq7FXYq7FXYq7FXxx/zm3fl/POgafU0t9MNxTen7+4kT5f7oxV85Yq7FXYq7FXYq7FXYq7FXYq&#xA;7FXYq7FXYq7FXYq7FXYq7FX6C/8AOM2ofXvyR8tOTV4UuLdx4ejdSovYfsAHFXp+KuxV2KuxV2Ku&#xA;xV2KuxV2KviX/nLHTNf1T83p2tNOu7m3tbG1gSWKCR0PwmUgMoIO8uKvGv8ACfmn/qzX3/SNN/zT&#xA;irv8J+af+rNff9I03/NOKu/wn5p/6s19/wBI03/NOKpfc2tzazvb3MTwTx7PFIpR1JFd1ahGKqWK&#xA;uxV2KuxV2KuxV2KuxV2KuxVG2Oi6zfxtJY2FxdxoeLPBE8ihqVoSoO+Koj/Cfmn/AKs19/0jTf8A&#xA;NOKu/wAJ+af+rNff9I03/NOKu/wn5p/6s19/0jTf804q+1v+cSINStvylFrqFvJayQajcrHFMjxv&#xA;wYRvXi9P2mOKvacVdirsVdirsVdirsVdirz/APNf81/8Afov/cX+k/0n6/8Au/0PT9D0/wDiuXly&#xA;9X26ZXOfC5mk0njXvVPP/wDoa7/v1v8Ap/8A+zbIeP5OZ/JP9L7P2u/6Gu/79b/p/wD+zbHx/Jf5&#xA;J/pfZ+13/Q13/frf9P8A/wBm2Pj+S/yT/S+z9rv+hrv+/W/6f/8As2x8fyX+Sf6X2ftfJf5g+ZLj&#xA;zN531zXrhPSfULyaVYeXP005ERx8qLy4IAtaDplwLqZx4ZEdzH8LF2KuxV2KuxV2KuxV2KuxV2Kv&#xA;cv8AnHP86bnyHYa1pjaZ+k7a7lhuYl9f6uY3Cskhr6cvLmAnhSnvkJz4XL0ml8a96p7F/wBDXf8A&#xA;frf9P/8A2bZX4/k5v8k/0vs/a7/oa7/v1v8Ap/8A+zbHx/Jf5J/pfZ+13/Q13/frf9P/AP2bY+P5&#xA;L/JP9L7P2u/6Gu/79b/p/wD+zbHx/Jf5J/pfZ+13/Q13/frf9P8A/wBm2Pj+S/yT/S+z9rKPy4/P&#xA;j/GnmZND/Qf1DnFJL9Y+tetT0xWnD0Y+vzyUMlmnH1Og8KHFxX8P2vWMtde7FXYq7FXYq7FXz/8A&#xA;85Xf9Mt/0f8A/YtlGfo7jsn+L4fpfP8AlDuHYq7FVruqIzuQqqCWY9AB1OKCaFl5jO4knkcdHZmF&#xA;fc1zNDyUzZJU8LF2KuxV2KuxV2KuxV2KuxV2Ksj8lTKt5PETQyICo8eJ/tynMNnadlyqZHeGY5ju&#xA;8dirsVdirsVeof8AOOP/AJMyD/mEuP8AiIyzF9Tgdpf3XxfWGZTzzsVdirsVdirsVYf+YP5XaB56&#xA;+ofpe4u4P0d63ofVHjSvr8OXP1I5f99ClKZCUBJydPqpYr4a3ed6p+Q/5M6TcLbar5nuNPuHQSJD&#xA;dX1jC5QkqGCyQqeNVIr7ZHwQ5P8AKmTuj9v60H/yqD8gf+p1/wC5np3/AFSx8EL/ACpk7o/b+t3/&#xA;ACqD8gf+p1/7menf9UsfBC/ypk7o/b+tSuvyi/5x8W2mabzmXiCMZFGpacxKgbgARb7Y+CES7TyE&#xA;URH7f1vjJyhdigISp4gmpA7VNBX7stdctxV2KuxV2KuxV2KuxV2KuxV2KvT/APnH3y35H8wecrqz&#xA;83ak2lWsVjJPZ3Qnht1MyyRpwLzq61KOxA9sjKNim7BmOOXEALfQv/KoPyB/6nX/ALmenf8AVLIe&#xA;CHM/lTJ3R+39bv8AlUH5A/8AU6/9zPTv+qWPghf5Uyd0ft/W7/lUH5A/9Tr/ANzPTv8Aqlj4IX+V&#xA;MndH7f1pxYf843flhqNpHeafrOoXlnLX0rm3ubSWNuLFW4ukBU0YEH3x8EL/ACpk7o/b+tEf9Cve&#xA;QP8Aq4ar/wAjrb/snx8EL/KmTuj9v60+8lfkh5U8n66ms6Zd3810kbxBLmSFo+MgodkhjNfpwxxg&#xA;G2nPrp5I8JAehZY4bsVdirsVdirsVdir48/5zdsQnnLy7fcd59OeDlQb+jOzUr129bFXzdirsVdi&#xA;rsVdirsVdirsVdirsVdirsVdirsVdirsVdirsVfoT/zjZZtZ/kj5WiPVoZ5t6Hae6llHT/XxV6Xi&#xA;rsVdirsVdirsVdirsVdir5W/5zltBTyddqN/9yEUjV3/AOPdkFP+CxV8qYq7FXYq7FXYq7FXYq7F&#xA;XYq7FXYq7FXYq7FXYq7FXYq7FX6RfkxbfVvyl8nx0VeWkWctF6fvYVkr8zy398VZlirsVdirsVdi&#xA;rsVdirsVdir52/5zas43/L/Qr0t+9h1YQqvcrNbSsx+gwjFXxpirsVdirsVdirsVdirsVdirsVdi&#xA;rsVdirsVdirsVdirsVfqB5VsItO8r6Pp8O8NnY21vGaAfDFCqDYewxVNMVdirsVdirsVdirsVdir&#xA;sVfOf/ObaXB8jaA6/wC866mVk235tbyFN6eCtir43xV2KuxV2KuxV2KuxV2KuxV2KuxV2KuxV2Ku&#xA;xV2KuxV2Kv1B8rpInlnSEkBWRbK3Dg9QREta4qmeKuxV2KuxV2KuxV2KuxV2KsF/Oz8vR58/LrUt&#xA;DjA/SKgXelsdgLqAEoK9hIC0ZPYNir85mVlYqwKspoynYgjFWsVdirsVdirsVdirsVdirsVdirsV&#xA;dirsVdirsVdirP8A8jfy8bz5+Y2naNIP9x0Fb7VTSv8AosDLzX/nozLH7cq4q/RXFXYq7FXYq7FX&#xA;Yq7FXYq7FXYq7FX5f+abX6p5n1e14lfq97cRcT1HCVlofuxVK8VdirsVdirsVdirsVdirsVdirsV&#xA;dirsVdirsVdir6N/5wkhc+etfmC1jTSwjP4F7iMgfTwOKvsfFXYq7FXYq7FXYq7FXYq7FXYq7FXw&#xA;n/zlZ+X7+V/zLn1WBaaZ5m538JHa5qBdJ8/UYSf7PFXi+KuxV2KuxV2KuxV2KuxV2KuxV2KuxV2K&#xA;uxV2KuxV9v8A/OIv5fyeXvy+k8wXicb/AMzOlxGCDyWziBWAGv8AOWd9uzDFXuuKuxV2KuxV2Kux&#xA;V2KuxV2KuxV2KvBP+cyfK8+p/lra6zAnJ9CvUknNNxb3I9FiP+ehjxV8TYq7FXYq7FXYq7FXYq7F&#xA;XYq7FXYq7FXYq7FXYqi9J0y81bVbPS7JPUvb+eK1to/5pZnEaD6WYYq/TzQ9Kg0jRNP0m3/uNOto&#xA;bSLt8EEYjX8FxVG4q7FXYq7FXYq7FXYq7FXYq7FXYqwz85dE1HXPyt8zaXpsBur65spPq9uoq0jp&#xA;Rwqjux4/CPHFX54N5a8xpqDaa+lXi6ipo1kbeUTA+Bj48vwxVnmg/wDONn50ayiyxeXJbOFqfHfy&#xA;RWhFfGKVll/4TFXuH5N/84l2WnJfXf5kWltqU8oRNPsYZpikSipkeRkMXJm2AG4FD47KvRZv+cYf&#xA;yMlfm/lhQelEu75B9yTqMVU/+hXPyJ/6ln/p+1D/ALKMVQVx/wA4mfkpKCE0u5gJNQY7y4NB4Dmz&#xA;4ql1x/zhx+UUpYxyapb8hQCO5jPE0pUepE/44qg/+hKvys/6uuuf9JFn/wBkmKro/wDnCz8qkcM2&#xA;pa3IB1Rri1ofnxtVP44qj4P+cPvyeiWjx6jOa15SXVDTw+BEGKpnB/zir+R0ZJfQZJgege9vAB8u&#xA;EqYqrf8AQrn5E/8AUs/9P2of9lGKoof842/kiAAPK0FBtvNdE/eZcVfNnnf/AJxI/M2w1jUJPLtn&#xA;Bquj+tI9gsVzGkwgLEorrOYvjVaA8Sa9sVeW6/8Alt+YHl8FtZ8u6hYxL1nlt5PR28JQDGfobFWX&#xA;f845eTde13809AvbOzlfTtLukvL69CkQxpB8YDORxqzAKF6n8cVfoFirsVdirsVf/9k=</xmpGImg:image>
               </rdf:li>
            </rdf:Alt>
         </xmp:Thumbnails>
      </rdf:Description>
      <rdf:Description rdf:about=""
            xmlns:xmpTPg="http://ns.adobe.com/xap/1.0/t/pg/"
            xmlns:stDim="http://ns.adobe.com/xap/1.0/sType/Dimensions#"
            xmlns:xmpG="http://ns.adobe.com/xap/1.0/g/">
         <xmpTPg:MaxPageSize rdf:parseType="Resource">
            <stDim:w>299.998915</stDim:w>
            <stDim:h>299.998743</stDim:h>
            <stDim:unit>Millimeters</stDim:unit>
         </xmpTPg:MaxPageSize>
         <xmpTPg:NPages>1</xmpTPg:NPages>
         <xmpTPg:HasVisibleTransparency>False</xmpTPg:HasVisibleTransparency>
         <xmpTPg:HasVisibleOverprint>False</xmpTPg:HasVisibleOverprint>
         <xmpTPg:PlateNames>
            <rdf:Seq>
               <rdf:li>Cyan</rdf:li>
               <rdf:li>Magenta</rdf:li>
               <rdf:li>Yellow</rdf:li>
               <rdf:li>Black</rdf:li>
            </rdf:Seq>
         </xmpTPg:PlateNames>
         <xmpTPg:SwatchGroups>
            <rdf:Seq>
               <rdf:li rdf:parseType="Resource">
                  <xmpG:groupName>Default Swatch Group</xmpG:groupName>
                  <xmpG:groupType>0</xmpG:groupType>
               </rdf:li>
            </rdf:Seq>
         </xmpTPg:SwatchGroups>
      </rdf:Description>
      <rdf:Description rdf:about=""
            xmlns:dc="http://purl.org/dc/elements/1.1/">
         <dc:format>image/svg+xml</dc:format>
      </rdf:Description>
      <rdf:Description rdf:about=""
            xmlns:xmpMM="http://ns.adobe.com/xap/1.0/mm/"
            xmlns:stRef="http://ns.adobe.com/xap/1.0/sType/ResourceRef#"
            xmlns:stEvt="http://ns.adobe.com/xap/1.0/sType/ResourceEvent#">
         <xmpMM:DerivedFrom rdf:parseType="Resource">
            <stRef:instanceID>xmp.iid:015A81E56D21681180839FCCDFDC130E</stRef:instanceID>
            <stRef:documentID>xmp.did:015A81E56D21681180839FCCDFDC130E</stRef:documentID>
            <stRef:originalDocumentID>xmp.did:015A81E56D21681180839FCCDFDC130E</stRef:originalDocumentID>
         </xmpMM:DerivedFrom>
         <xmpMM:DocumentID>xmp.did:025A81E56D21681180839FCCDFDC130E</xmpMM:DocumentID>
         <xmpMM:InstanceID>xmp.iid:025A81E56D21681180839FCCDFDC130E</xmpMM:InstanceID>
         <xmpMM:OriginalDocumentID>xmp.did:015A81E56D21681180839FCCDFDC130E</xmpMM:OriginalDocumentID>
         <xmpMM:History>
            <rdf:Seq>
               <rdf:li rdf:parseType="Resource">
                  <stEvt:action>saved</stEvt:action>
                  <stEvt:instanceID>xmp.iid:015A81E56D21681180839FCCDFDC130E</stEvt:instanceID>
                  <stEvt:when>2019-09-30T20:05:57+08:00</stEvt:when>
                  <stEvt:softwareAgent>Adobe Illustrator CS6 (Macintosh)</stEvt:softwareAgent>
                  <stEvt:changed>/</stEvt:changed>
               </rdf:li>
               <rdf:li rdf:parseType="Resource">
                  <stEvt:action>saved</stEvt:action>
                  <stEvt:instanceID>xmp.iid:025A81E56D21681180839FCCDFDC130E</stEvt:instanceID>
                  <stEvt:when>2019-09-30T20:06:12+08:00</stEvt:when>
                  <stEvt:softwareAgent>Adobe Illustrator CS6 (Macintosh)</stEvt:softwareAgent>
                  <stEvt:changed>/</stEvt:changed>
               </rdf:li>
            </rdf:Seq>
         </xmpMM:History>
      </rdf:Description>
   </rdf:RDF>
</x:xmpmeta>
                                                                                                    
                                                                                                    
                                                                                                    
                                                                                                    
                                                                                                    
                                                                                                    
                                                                                                    
                                                                                                    
                                                                                                    
                                                                                                    
                                                                                                    
                                                                                                    
                                                                                                    
                                                                                                    
                                                                                                    
                                                                                                    
                                                                                                    
                                                                                                    
                                                                                                    
                                                                                                    
                           
<?xpacket end="w"?>
	</metadata>
<rect x="177.696" y="491.695" fill="#FFFFFF" width="534" height="86.667"/>
<rect x="177.696" y="514.362" fill="#7A2426" width="534" height="45"/>
<path d="M240.448,295.111c2.033,1.854,3.853,3.514,5.834,5.322c0.732-1.397,1.542-2.854,2.267-4.353
	c0.782-1.619,1.85-2.954,3.225-4.133c0.786-0.674,1.411-1.666,1.799-2.638c0.412-1.029,1.08-1.57,1.966-2.136
	c1.13-0.722,2.077-1.73,3.109-2.608c0.646-0.55,1.238-1.196,1.962-1.611c2.46-1.407,4.787-3.025,7.434-4.143
	c1.743-0.735,3.186-2.147,4.854-3.098c2.145-1.223,4.399-2.25,6.565-3.436c0.937-0.513,1.754-1.239,2.655-1.823
	c3.175-2.058,6.351-4.115,9.551-6.131c1.29-0.812,2.394-2.01,4.133-1.964c0.377,0.01,0.799-0.432,1.147-0.728
	c1.442-1.229,2.822-2.536,4.308-3.707c1.237-0.975,1.71-2.177,1.481-3.677c-0.104-0.683-0.326-1.349-0.502-2.02
	c-0.503-1.917-0.463-3.674,1.331-4.991c0.435-0.319,0.775-0.765,1.167-1.143c2.014-1.947,4.109-3.852,5.115-6.557
	c0.45-1.21,1.308-1.886,2.396-2.282c1.38-0.502,2.029-1.438,2.489-2.807c0.981-2.92,2.233-5.749,3.252-8.658
	c0.429-1.225,0.545-2.559,0.814-3.841c0.312-1.49,1.113-2.605,2.244-3.675c2.413-2.281,4.918-4.566,6.819-7.25
	c1.122-1.584,1.213-3.926,1.637-5.955c0.085-0.406-0.367-0.979-0.671-1.403c-2.494-3.481-3.481-7.382-3.467-11.626
	c0.037-10.905-0.046-21.811,0.049-32.715c0.028-3.244,0.233-6.53,0.802-9.717c1.234-6.914,3.558-13.467,6.82-19.733
	c2.199-4.222,4.475-8.376,7.364-12.14c2.691-3.507,5.654-6.805,8.487-10.204c3.034-3.64,6.088-7.264,9.057-10.956
	c0.717-0.891,1.114-2.035,1.687-3.046c4.685-8.271,10.892-15.112,19.082-20.026c1.635-0.981,2.498-2.26,3.19-4.025
	c2.82-7.188,6.036-14.2,11.689-19.706c3.402-3.313,6.918-6.486,11.675-7.847c6.675-1.911,13.137-1.306,19.241,1.861
	c8.286,4.298,15.353,10.27,22.02,16.736c0.318,0.309,0.679,0.623,1.079,0.793c3.288,1.395,6.566,2.816,9.894,4.115
	c5.752,2.245,10.017,5.991,12.832,11.575c1.092,2.165,2.955,3.975,4.617,5.81c5.692,6.284,11.35,12.575,15.789,19.868
	c3.111,5.109,6.602,9.988,9.664,15.125c3.302,5.54,6.371,11.223,9.414,16.912c2.822,5.278,5.237,10.788,8.271,15.936
	c3.232,5.484,6.946,10.688,10.515,15.971c3.626,5.367,6.938,10.924,9.036,17.056c1.272,3.719,2.127,7.602,1.348,11.663
	c-0.939,4.894-3.239,8.9-7.336,11.732c-1.972,1.363-4.103,2.539-6.275,3.557c-3.16,1.48-6.422,2.742-9.914,4.211
	c1.428,1.72,3.039,3.285,5.08,4.047c1.762,0.659,3.266,1.563,4.304,2.996c2.855,3.938,5.67,7.916,8.275,12.021
	c2.158,3.402,4.404,6.708,7.127,9.683c0.992,1.084,1.95,2.199,2.923,3.301c0.104,0.117,0.28,0.235,0.287,0.36
	c0.138,2.551,2.123,3.843,3.74,5.311c1.478,1.341,2.015,3.196,3.035,4.779c0.738,1.144,1.514,2.158,2.849,2.613
	c0.22,0.075,0.514,0.137,0.621,0.303c1.365,2.112,3.935,2.198,5.802,3.467c1.919,1.303,3.951,2.436,5.88,3.725
	c2.15,1.438,4.203,3.025,6.373,4.434c0.96,0.623,2.261,0.77,3.135,1.472c2.425,1.946,5.604,2.625,7.859,4.865
	c0.61,0.607,1.69,0.726,2.525,1.127c2.752,1.323,5.33,3.002,7.647,4.921c1.452,1.202,2.729,2.544,4.439,3.462
	c0.712,0.382,0.992,1.521,1.545,2.258c0.633,0.844,1.366,1.612,2.026,2.436c0.816,1.018,1.713,1.995,2.374,3.108
	c0.938,1.578,1.693,3.265,2.585,5.02c1.949-1.829,3.382-4.082,6.084-4.831c0.882,1.609,1.764,3.073,2.508,4.603
	c3.129,6.434,6.443,12.791,9.248,19.364c2.127,4.983,3.696,10.217,5.317,15.401c3.061,9.784,6.276,19.522,8.632,29.518
	c2.777,11.787,5.589,23.565,7.598,35.515c1.428,8.496,2.884,16.987,4.186,25.503c0.456,2.983,0.541,6.028,0.706,9.051
	c0.542,9.99,1.129,19.975,2.271,29.923c1.14,9.937,2.162,19.887,3.159,29.839c0.192,1.924,0.027,3.884,0.027,6.039
	c-31.617,0-63.508,0-95.47,0c-0.584,1.867-0.188,3.534,0.029,5.19c0.069,0.533,0.23,1.077,0.461,1.562
	c2.2,4.627,2.384,9.555,2.496,14.567c0.144,6.455,0.623,12.906,1.055,19.353c0.259,3.875,1.988,7.156,4.682,10.045
	c-0.386,0.648-0.668,1.288-1.094,1.811c-2.621,3.226-3.492,6.875-2.769,10.942c0.5,2.814,0.977,5.633,1.485,8.573
	c28.986,0,57.786,0,86.792,0c0,1.514,0.101,2.878-0.017,4.224c-0.582,6.647-1.315,13.283-1.814,19.938
	c-0.575,7.657-0.92,15.331-1.442,22.992c-0.311,4.565-0.583,9.153-1.784,13.597c-1.207,4.462-0.777,8.898-0.25,13.396
	c1.083,9.224,1.282,18.418-1.472,27.463c-1.237,4.067-3.323,7.712-5.464,11.306c-2.595,4.353-3.788,8.957-3.646,13.993
	c0.149,5.361-0.035,10.72-0.816,16.033c-0.26,1.761-0.646,3.527-1.204,5.216c-1.634,4.946-3.459,9.817-6.081,14.355
	c-2.729,4.72-3.975,9.931-4.81,15.252c-0.63,4.017-1.691,7.892-3.454,11.565c-1.613,3.363-2.028,6.981-2.146,10.64
	c-0.105,3.259-0.107,6.522-0.979,9.698c-0.226,0.82-0.514,1.626-0.814,2.424c-0.861,2.282-2.137,3.994-4.794,4.549
	c-2.801,0.585-5.482,1.751-8.287,2.303c-1.444,0.284-3.07-0.074-4.565-0.378c-11.352-2.31-22.687-4.699-34.037-7.011
	c-2.662-0.542-5.359-0.916-8.051-1.302c-1.202-0.173-1.998-0.715-2.415-1.867c-0.975-2.688-1.98-5.364-3.021-8.176
	c-3.375-0.731-6.874-1.019-10.406-0.17c-0.296,0.071-0.621,0.022-0.933,0.026c-7.471,0.089-14.941,0.136-22.411,0.277
	c-9.477,0.179-18.953,0.392-28.428,0.679c-4.253,0.129-8.499,0.483-12.749,0.719c-4.178,0.231-8.357,0.445-12.536,0.662
	c-4.795,0.25-9.59,0.497-14.385,0.743c-3.016,0.154-6.03,0.39-9.048,0.44c-6.689,0.111-13.38,0.157-20.069,0.174
	c-3.422,0.008-6.847-0.04-10.266-0.176c-4.568-0.181-9.132-0.471-13.698-0.717c-4.097-0.221-8.193-0.441-12.29-0.669
	c-4.333-0.24-8.687-0.294-12.992-0.779c-6.118-0.689-12.263-0.267-18.364-0.692c-9.098-0.634-18.188-0.212-27.279-0.396
	c-4.588-0.093-9.183-0.065-13.763-0.3c-3.691-0.19-7.364,0.188-11.048,0.056c-2.005-0.073-2.111,0.092-2.827,2.049
	c-0.665,1.817-1.439,3.605-1.953,5.466c-0.559,2.021-1.952,2.541-3.792,2.727c-3.785,0.385-7.563,0.841-11.337,1.321
	c-8.279,1.055-16.313,3.137-24.29,5.563c-2.853,0.868-5.948,1.011-8.95,1.281c-1.023,0.092-2.119-0.386-3.153-0.697
	c-2.824-0.848-5.62-1.79-8.454-2.601c-1.115-0.319-1.632-0.995-2.012-2.021c-1.157-3.123-1.323-6.377-1.334-9.641
	c-0.012-3.578-0.023-7.152-0.881-10.651c-0.295-1.203-0.624-2.435-1.174-3.534c-2.153-4.299-3.212-8.9-3.922-13.604
	c-0.726-4.812-2.25-9.31-4.586-13.608c-3.05-5.611-5.546-11.499-6.813-17.793c-0.548-2.72-0.703-5.535-0.839-8.317
	c-0.205-4.189-0.229-8.387-0.345-12.581c-0.109-3.948-1.833-7.349-3.707-10.685c-2.094-3.728-4.157-7.454-5.42-11.583
	c-1.261-4.12-1.851-8.34-2.059-12.606c-0.299-6.146,0.331-12.247,1.146-18.339c0.489-3.66-0.331-7.259-0.859-10.873
	c-0.592-4.06-1.024-8.147-1.379-12.236c-0.49-5.638-0.835-11.289-1.254-16.935c-0.361-4.875-0.704-9.752-1.117-14.623
	c-0.38-4.482-0.848-8.957-1.26-13.437c-0.055-0.601-0.008-1.212-0.008-2.021c28.613,0,57.169,0,85.93,0
	c0.775-4.572,2.078-8.893,1.874-13.446c-0.09-2.001-0.832-3.78-1.947-5.422c-0.696-1.024-1.37-2.064-1.983-2.99
	c0.084-0.325,0.076-0.515,0.167-0.611c3.062-3.298,4.409-7.268,4.615-11.691c0.34-7.31,0.766-14.616,0.983-21.929
	c0.07-2.371,0.346-4.619,1.209-6.825c0.935-2.389,1.831-4.801,1.934-7.411c0.018-0.462,0.002-0.925,0.002-1.669
	c-31.665,0-63.314,0-95.16,0c0.2-3.521,0.285-6.761,0.589-9.979c0.519-5.48,1.195-10.945,1.771-16.42
	c0.632-6.014,1.3-12.024,1.813-18.048c0.448-5.255,0.679-10.528,1.047-15.791c0.665-9.522,1.555-19.014,3.332-28.413
	c1.368-7.237,2.274-14.568,3.833-21.76c2.761-12.742,5.889-25.404,8.81-38.112c1.584-6.895,3.393-13.728,5.687-20.418
	c0.931-2.715,2.048-5.38,3.272-7.977c3.782-8.02,7.646-16,11.503-23.985C238.638,298.333,239.429,296.996,240.448,295.111z"/>
<path fill="#FFFFFF" d="M82.056,19.911c3.631,0,7.264-0.02,10.895,0.008c1.998,0.015,3.995,0.146,5.992,0.157
	c2.31,0.012,4.619-0.064,6.93-0.078c1.919-0.011,3.837,0.024,5.756,0.018c1.623-0.005,3.244-0.042,4.866-0.061
	c6.286-0.073,12.572-0.23,18.855-0.177c2.781,0.023,5.565,0.417,8.335,0.746c5.404,0.641,10.8,1.357,16.197,2.038
	c3.473,0.438,6.949,0.849,10.418,1.319c0.682,0.092,1.363,0.332,1.992,0.62c6.803,3.118,13.425,6.555,19.477,11.011
	c0.972,0.716,1.724,1.488,2.107,2.673c1.126,3.461,2.613,6.773,2.413,10.604c-0.204,3.906-1.939,6.868-4.815,9.193
	c-2.352,1.901-4.969,3.473-7.433,5.24c-0.74,0.531-1.504,1.129-2.016,1.864c-8.564,12.29-18.159,23.742-28.393,34.653
	c-5.021,5.356-10.637,10.028-17.405,13.152c-1.434,0.661-2.586,1.908-3.992,2.645c-1.202,0.629-2.562,1.023-3.896,1.319
	c-1.089,0.241-2.357-0.287-3.217,0.875c-0.097,0.131-0.42,0.132-0.638,0.129c-5.596-0.082-11.191-0.15-16.786-0.271
	c-2.716-0.059-5.463,0.013-8.14-0.375c-8.458-1.225-16.969-2.328-24.378-7.197c-4.789-3.146-9.033-6.923-12.772-11.209
	c-9.161-10.501-18.136-21.161-26.118-32.609c-0.781-1.12-1.752-1.899-2.907-2.605c-3.379-2.068-6.688-4.221-9.561-7.02
	c-3.744-3.647-4.078-7.984-3.022-12.71c0.034-0.151,0.102-0.294,0.151-0.442c2.242-6.596,2.198-6.675,8.318-10.067
	c5.173-2.866,10.472-5.501,15.694-8.276c2.435-1.293,5.13-1.168,7.73-1.531c5.311-0.743,10.625-1.483,15.955-2.055
	C73.114,21.011,77.495,19.642,82.056,19.911z"/>
</svg>
