<?xml version="1.0" encoding="utf-8"?>
<!-- Generator: Adobe Illustrator 23.1.1, SVG Export Plug-In . SVG Version: 6.00 Build 0)  -->
<svg version="1.1" id="Layer_1" xmlns="http://www.w3.org/2000/svg" xmlns:xlink="http://www.w3.org/1999/xlink" x="0px" y="0px"
	 viewBox="0 0 850.4 850.4" style="enable-background:new 0 0 850.4 850.4;" xml:space="preserve">
<style type="text/css">
	.st0{fill:#7A2426;}
	.st1{fill:#552E5F;}
</style>
<polyline class="st0" points="325.6,461.6 506.3,461.6 506.3,484.9 325.6,484.9 "/>
<polyline class="st0" points="325.6,502.6 506.3,502.6 506.3,525.9 325.6,525.9 "/>
<polyline class="st0" points="325.6,543.5 506.3,543.5 506.3,566.8 325.6,566.8 "/>
<path class="st1" d="M337.1,283.1c-1.4-1.3-3-2.4-4-3.9c-1.9-2.8-3.5-5.9-5.2-8.8c-0.7-1.3-1.6-2.5-2.2-3.8
	c-1.1-2.2-2.4-4.4-3.2-6.7c-1-3-1.6-6.2-2.4-9.2c-0.5-2-1.3-4-1.6-6c-0.4-3.2-0.7-6.5-0.7-9.8c0-2.2,0.2-4.4,0.7-6.5
	c0.6-2.5,1.7-4.9,2.4-7.5c1-3.8,2.4-7.4,4.1-10.9c1.2-2.6,2.5-5.2,3.8-7.8c1-1.9,1.9-3.9,2.9-5.8c1.1-1.9,2.4-3.8,3.6-5.7
	c1.2-1.9,2.3-3.9,3.5-5.8c3.9-6.1,8-12.1,11.7-18.2c2.2-3.6,3.9-7.4,5.6-11.3c1.9-4.2,3.6-8.4,5.3-12.7c1.4-3.5,3.7-6.2,6.7-8.5
	c2.7-2,5.4-1.9,8.4-1c1.9,0.6,3.8,1.5,5.7,1.9c4.9,1,9.7,1.9,14.6,2.8c6.5,1.3,12.9,2.6,19.4,3.8c1.7,0.3,3.5,0.7,5.3,0.8
	c5.3,0.2,10.1,2.1,14.8,4.5c2.1,1,4,2.4,6.1,3.3c4.1,1.7,8.2,3.3,11.8,6c0.2,0.2,0.6,0.3,0.9,0.4c5.3,2.4,10.3,5.3,14.8,9.1
	c0.9,0.7,1.9,1.3,2.8,2.1c3.2,3,6.3,6,9.4,9.1c2,2,4.1,4.1,6.1,6.1c0.4,0.4,0.6,0.9,0.9,1.3c0.8,1.1,1.5,2.2,2.3,3.2
	c1.8,2.5,3.7,5,5.6,7.5c1.6,2.2,3.4,4.3,4.9,6.5c1.2,1.9,3,3.8,3.1,6.2c0.1,3.7,1.4,7,3,10.2c0.1,0.1,0.2,0.3,0.2,0.4
	c0.2,1.2,0.5,2.4,0.4,3.6c-0.2,2.2-1.3,4.1-2.4,6c-2.6,4.7-4.8,9.6-5.8,14.9c-0.5,2.8-0.2,5.7,1.7,8.2c1,1.3,1.9,2.8,2.6,4.4
	c1.7,3.7,3.3,7.4,4.8,11.1c1.4,3.4,2.6,7,3.9,10.5c1.4,4,2.7,8.1,4.1,12.1c1.4,4,2.8,8.1,4.2,12.1c1.2,3.7,2.3,7.4,3.5,11.1
	c1.4,4.5,2.8,9,4.1,13.6c0.9,3.2,1.4,6.5,2,9.8c0.3,1.7,0.3,3.4,0.8,5c1.7,6,1,12.1,0.8,18.1c-0.1,4.1-0.9,8.2-1,12.3
	c-0.3,6-0.2,12-0.4,18c-0.1,5.1-0.2,10.1-0.3,15.2c-0.1,6.5-0.3,13.1-0.4,19.6c0,3.6,0.3,7.1,0.4,10.7c0.1,8.8,0,17.6,0,26.4
	c0,2.9-0.3,5.9,0.5,8.8c0.1,0.4,0.1,0.9,0.1,1.4c0,7.5,0,14.9,0.7,22.4c0.5,5.3,0.4,10.7,0.5,16.1c0.1,3.3,0.1,6.7,0,10
	c-0.1,5.7-0.4,11.5-0.4,17.2c-0.1,7.2-0.1,14.3,0,21.5c0.1,7.2-0.2,14.4,0,21.6c0,0.8-0.2,1.5-0.2,2.3c-0.1,4.1-0.1,8.2-0.1,12.3
	c0,0.1,0.1,0.2,0.1,0.2c0.1,2.2,0.2,4.4,0.1,6.7c-0.1,3.7-0.5,7.4-0.6,11.2c-0.1,3.6,0,7.3,0,10.9c0,0.8-0.1,1.6-0.2,2.3
	c-0.7,4.4-1.8,8.7-2.2,13.1c-0.4,5.2-2.3,10-4,14.8c-1.6,4.4-3.5,8.6-5.4,12.9c-1,2.2-2.2,4.3-3.2,6.5c-0.7,1.4-1.4,2.8-1.7,4.3
	c-0.5,2.3-0.5,4.6-0.9,6.9c-0.9,5.4-1.9,10.9-3,16.3c-0.5,2.5-0.6,4.8,1.4,6.7c0.3,0.3,0.5,0.8,0.7,1.2c1.1,2.5,2.4,4.8,4,7
	c1.7,2.3,2.2,5.2,2.5,7.9c0.3,2.5,1.3,4.4,2.6,6.4c0.4,0.6,0.7,1.2,1.1,1.8c0.8,1.1,1.1,2.3,1.1,3.7c0.1,7.1,0.2,14.2,0.3,21.3
	c0,1,0.2,2,0.6,2.9c0.6,1.7,0.6,3.3,0,5c-0.3,0.9-0.6,1.8-0.5,2.7c0.1,1.8-0.2,3.3-1.9,4.4c-0.6,0.3-0.9,1.1-1.4,1.6
	c-0.6,0.6-1.2,1.2-1.9,1.7c-1.2,0.9-2.5,1.6-3.6,2.5c-2.6,2.1-5.2,4.2-7.7,6.4c-0.8,0.7-1.7,1-2.7,1.1c-4.2,0.3-8.4,0.6-12.6,1
	c-2.2,0.2-4.5,0.4-6.7,0.8c-2.9,0.5-5.8,1.4-8.7,1.8c-2.9,0.4-6,0.4-8.8-0.6c-3.6-1.3-7.2-2.5-11-3c-1.8-0.2-2.9-1.1-3.8-2.6
	c-7.3-10.9-14.8-21.8-22.1-32.7c-0.8-1.2-1.7-1.8-3.2-1.7c-3.4,0.2-6.8,0.2-10.2,0.3c-5.2,0.2-10.4-0.5-15.6,0.3
	c-0.8,0.1-1.7-0.1-2.6-0.1c-2.6-0.3-5.3-0.5-7.9-0.8c-3.2-0.4-6.5-0.7-9.7-1.1c-0.6-0.1-1.2-0.2-1.8-0.1c-2,0.4-3.9,0.1-5.8-0.4
	c-5.6-1.3-11.2-2.6-16.8-3.8c-1.8-0.4-3.7-0.7-5.4-1.2c-2.2-0.6-4.5-1.4-6.6-2.2c-2.8-1.1-5.3-2.6-7.1-5.1c-2.1-2.9-3.8-6-4.6-9.6
	c-0.2-1-0.4-2-0.3-3c1.1-7.5,2.2-14.9,3.3-22.3c0.4-2.7,0.3-5.3-0.7-8c-2.2-6.1-3.7-12.3-3.4-18.9c0.2-5.5,0-11,0-16.6
	c0-2,0-4,0-6.1c0-0.6,0-1.2-0.1-1.9c-0.3-3.2-0.7-6.5-1-9.7c-0.3-3.9-0.4-7.8-0.7-11.6c-0.3-3.9-0.7-7.9-1-11.8
	c-0.3-3.7-0.6-7.4-1-11.1c-0.3-3.1-1-6.2-1.1-9.2c-0.4-5.9-0.5-11.8-0.7-17.7c0-1.2,0.3-2.5,0.2-3.7c-0.6-8.9-0.6-17.9-0.6-26.8
	c0-0.5,0-0.9,0-1.4c-0.3-4.6-0.8-9.1-1-13.7c-0.2-4.7-0.3-9.5-0.4-14.2c0-0.3,0-0.6,0-0.9c-0.2-3.4-0.6-6.8-0.7-10.2
	c-0.1-4,0-7.9,0-11.9c0-0.6-0.1-1.2-0.1-1.9c-0.2-2.6-0.4-5.1-0.5-7.7c-0.1-0.8,0-1.6-0.1-2.3c-0.2-2.5-0.5-5.1-0.6-7.6
	c-0.2-2.9-0.2-5.8-0.3-8.6c-0.1-2.2-0.2-4.3-0.4-6.5c-0.2-2.6-0.5-5.1-0.7-7.6c-0.2-2-0.3-4-0.4-6c-0.3-4.9-0.7-9.8-1-14.6
	c-0.3-3.8-0.4-7.6-0.7-11.4c-0.3-4-0.6-8-1-12.1c-0.3-3.4-0.6-6.8-0.9-10.2c-0.3-3.3-0.4-6.6-0.4-10c0-0.8-0.1-1.6-0.4-2.3
	c-1.1-2.5-1.3-5.1-0.7-7.6c0.9-3.6,0.6-7.2,1-10.9c0.2-2.2-0.1-4.4,0.4-6.5c0.5-2.1,0.8-4.1,1-6.2c0.1-0.6,0.1-1.2,0.3-1.8
	c0.7-4,1.4-8,2.2-11.9c1.1-5,1.4-10.2,3.1-15c0.8-2.3,1.6-4.5,2.2-6.9c1.5-6.8,3.5-13.4,5.7-19.9c0.4-1.1,0.7-2.2,1.1-3.3
	c1.3-3.5,2.6-6.9,4-10.6C337.7,283.6,337.4,283.4,337.1,283.1z M478.1,483.3c1.1-6.7,2.1-13.4,3.2-20.1c-37.8,0-75.5,0-113.4,0
	c0.5,6.8,1.1,13.5,2,20.1C406.2,483.3,442.1,483.3,478.1,483.3z M372,503.8c0.4,6.6,0.9,13.1,1.3,19.5c1.8,0.5,101.3,0.6,104.6,0.2
	c-0.2-6.5-0.3-12.9-0.5-19.7C442.2,503.8,407.2,503.8,372,503.8z M378.4,564.3c33.5,0,66.8,0,100.4,0c-0.2-6.7-0.3-13.2-0.5-20
	c-34,0-67.8,0-101.9,0C376.6,551.2,377.3,557.8,378.4,564.3z"/>
<rect x="739.4" y="89.8" class="st0" width="73.3" height="43.4"/>
</svg>
