<?xml version="1.0" encoding="utf-8"?>
<!-- Generator: Adobe Illustrator 23.1.1, SVG Export Plug-In . SVG Version: 6.00 Build 0)  -->
<svg version="1.1" id="Layer_1" xmlns="http://www.w3.org/2000/svg" xmlns:xlink="http://www.w3.org/1999/xlink" x="0px" y="0px"
	 viewBox="0 0 850.4 850.4" style="enable-background:new 0 0 850.4 850.4;" xml:space="preserve">
<style type="text/css">
	.st0{fill:#7A2426;}
	.st1{fill:#552E5F;}
	.st2{fill:#FFFFFF;}
</style>
<rect x="177.7" y="427.7" class="st0" width="534" height="86.7"/>
<rect x="177.7" y="514.4" class="st0" width="534" height="45"/>
<rect x="171.6" y="547.3" class="st0" width="534" height="45"/>
<g>
	<path class="st1" d="M619,554.2c-5.8,0-11.7,0-17.5,0c-5.9,0-11.8,0-17.8,0c-5.9,0-11.8,0-17.6,0c-1.7,2.4-2.2,4.9-1.9,7.5
		c0.8,5.4,1.7,10.7,2.6,16.3c28.5,0,56.8,0,85.3,0c0,1.4,0.1,2.7,0,3.8c-0.6,6.8-1.3,13.6-1.8,20.4c-0.4,5.6-0.6,11.2-1,16.7
		c-0.3,4.6-0.6,9.3-1.8,13.8c-1.2,4.5-0.7,8.9-0.2,13.4c1.1,9.2,1.3,18.4-1.5,27.5c-1.3,4.1-3.4,7.8-5.6,11.5
		c-2.4,4.2-3.6,8.5-3.5,13.3c0.1,5.4,0,10.9-0.8,16.3c-0.3,1.8-0.7,3.7-1.3,5.4c-1.6,5-3.5,9.8-6.1,14.4c-2.7,4.7-3.9,9.9-4.8,15.3
		c-0.6,4-1.7,7.9-3.5,11.6c-1.6,3.4-2,7-2.1,10.7c-0.1,3.3-0.1,6.5-1,9.7c-0.2,0.7-0.4,1.3-0.6,2c-0.9,2.4-2.2,4.3-5.1,4.9
		c-2.8,0.6-5.5,1.8-8.3,2.3c-1.5,0.3-3.2-0.2-4.8-0.5c-11.6-2.4-23.1-4.8-34.7-7.1c-2.4-0.5-4.7-0.8-7.1-1.1
		c-1.1-0.1-1.9-0.7-2.3-1.7c-1-2.7-2-5.4-3.1-8.3c-3.4-0.8-7-0.9-10.5-0.2c-0.6,0.1-1.2,0-1.9,0c-10.9,0.1-21.8-0.1-32.7,0.4
		c-5.7,0.3-11.5,0.2-17.2,0.5c-4.2,0.2-8.3,0.5-12.5,0.8c-4.3,0.2-8.7,0.4-13,0.6c-4.6,0.2-9.3,0.4-13.9,0.8
		c-9.4,0.8-18.8,0.5-28.2,0.5c-2.2,0-4.4,0-6.5-0.1c-4.6-0.2-9.3-0.5-13.9-0.7c-4.7-0.2-9.4-0.4-14.2-0.7c-3.7-0.2-7.4-0.5-11.1-0.7
		c-0.2,0-0.5,0-0.7,0c-7.7-0.2-15.4-0.1-23-0.7c-8.9-0.7-17.7-0.2-26.6-0.4c-4.6-0.1-9.2-0.1-13.7-0.4c-3.7-0.2-7.4,0.2-11.1,0.1
		c-1.9-0.1-2,0.1-2.7,1.9c-0.7,1.9-1.5,3.8-2.1,5.7c-0.5,1.7-1.6,2.4-3.4,2.6c-6.5,0.8-13.1,1.5-19.6,2.8c-5.4,1-10.6,2.8-16,4.1
		c-3,0.7-6.1,1.1-9.2,1.4c-1.1,0.1-2.3-0.4-3.4-0.7c-2.6-0.8-5.2-1.7-7.8-2.3c-1.8-0.4-2.7-1.6-2.9-3.2c-0.4-2.8-0.8-5.7-1-8.5
		c-0.2-2.7-0.1-5.5-0.4-8.1c-0.3-2.1-0.8-4.3-1.7-6.3c-2-4.4-3.2-8.9-3.9-13.6c-0.7-4.8-2.3-9.3-4.6-13.6
		c-3.1-5.6-5.5-11.5-6.8-17.8c-0.5-2.6-0.7-5.4-0.8-8.1c-0.2-4.2-0.2-8.4-0.3-12.6c-0.1-3.9-1.7-7.4-3.6-10.7
		c-2.1-3.8-4.3-7.6-5.5-11.8c-1.3-4.3-1.9-8.6-2.1-13.1c-0.2-6,0.4-11.9,1.2-17.9c0.5-3.7-0.4-7.3-0.9-10.9c-0.6-4.1-1-8.3-1.4-12.5
		c-0.5-5.5-0.8-11-1.2-16.5c-0.4-4.8-0.7-9.6-1.1-14.4c-0.2-2.5-0.5-4.9-0.7-7.4c-0.1-0.7,0-1.4,0-2.4c3.1-0.1,6.2,0,9.3-0.1
		c3.1,0,6.2,0,9.3,0c3.1,0,6.2,0,9.3,0s6.2,0,9.3,0c3.2,0,6.4,0,9.6,0c3.1,0,6.2,0,9.3,0s6.2,0,9.3,0c3.1,0,6.2,0,9.3,0
		c3.1,0,6.2,0,9.4,0c1-5.6,2-10.9,2.8-16.3c0.3-1.8,0-3.7-0.4-5.5c-0.3-1.8-0.7-2-2.6-2c-0.5,0-1.1,0-1.6,0c-27.3,0-54.5,0-81.8,0
		c-0.9,0-1.9,0-3,0c-0.3-3.6-0.5-7-0.8-10.7c30.2,0,60.1,0,90,0c1.3-2.7,2.5-18.1,2-23.5c-0.1-0.1-0.1-0.1-0.2-0.2
		c-0.1,0-0.1-0.1-0.2-0.1c-0.1,0-0.3-0.1-0.5-0.1c-0.2,0-0.3,0-0.5,0c-30.4,0-60.9-0.1-91.3-0.1c-0.1,0-0.2,0-0.5-0.1
		c-0.2-3.1,0.4-6.2,0.4-9.5c31.3,0,62.5,0,93.7,0c3.5-7.8,2.8-15.7,1.8-23.9c-31.2,0-62.3,0-93.6,0c0.2-2,0.3-3.7,0.4-5.3
		c0.9-7.6,1.8-15.2,2.6-22.9c0.4-3.4,0.4-6.8,0.7-10.2c0.8-12.1,1.5-24.3,3.8-36.3c1.4-7.2,2.4-14.6,3.8-21.8
		c1.8-8.8,3.9-17.6,6-26.4c1.7-7.2,3.3-14.4,5.2-21.5c2.2-8.4,5.3-16.4,9.2-24.1c3-6,5.8-12,8.7-18.1c0.7-1.5,1.5-2.9,2.3-4.4
		c2.6,0.9,4.1,3.1,6,5.1c0.7-1.4,1.5-2.7,2.1-4.1c0.9-1.8,2-3.4,3.6-4.7c0.8-0.7,1.2-1.8,1.8-2.7c0.3-0.5,0.4-1.2,0.8-1.3
		c2.5-0.9,3.8-3.3,5.9-4.6c2.2-1.5,4.4-3.1,6.9-4c1.1-0.4,2-1.3,3.1-2c2.3-1.4,4.6-3,7-4c2.1-0.8,3.7-2.2,5.5-3.3
		c3.5-2.2,7-4.5,10.5-6.8c2.5-0.2,3.9-2.2,5.7-3.5c0.9-0.7,1.8-1.4,2.7-2.2c1-1,1.2-2.3,0.7-3.5c-1.4-3.5-0.3-6.1,2.6-8.3
		c2.1-1.6,3.7-3.8,4.8-6.2c0.5-1.1,1.2-1.7,2.3-2.1c1.4-0.5,2.1-1.4,2.5-2.8c1-3,2.2-5.9,3.3-8.9c0.1-0.2,0-0.4,0-0.9
		c-3.4,0-6.8,0-9.9,0c-0.3-0.3-0.4-0.3-0.4-0.4c0-0.1-0.1-0.1-0.1-0.2c0-59.3-0.1-118.5-0.1-177.8c0-0.5,0.1-0.9,0.1-1.5
		c70.8,0,141.4,0,212.4,0c0.2,8.2,0.1,16.4,0.1,24.6c0,8.3,0,16.7,0,25c0,8.3,0,16.5,0,24.8c0,8.3,0,16.7,0,25c0,8.3,0,16.5,0,24.8
		c0,8.3,0,16.7,0,25c0,8.2,0,16.5,0,24.7c2.6,0.6,4.2,2.2,5.5,4.2c3.3,4.9,6.5,9.8,9.9,14.6c2.1,3,4.5,5.7,6.8,8.5
		c0.3,0.4,1,0.8,1.1,1.2c0.2,2.5,2.2,3.9,3.8,5.3c1.4,1.2,1.9,2.9,2.8,4.4c0.8,1.4,2,2.2,3.2,3.2c1.9,1.5,4,2.3,6,3.5
		c2.8,1.6,5.4,3.3,8.1,5c0.9,0.6,1.7,1.4,2.7,2c3.5,2,7.3,3.7,10.6,6c2.3,1.6,5.1,2.4,7.1,4.1c2,1.6,4.8,2.1,6.1,4.7
		c0.2,0.5,0.8,1,1.4,1.2c2.2,0.6,3.2,2.3,4,4.2c0.2,0.5,0.6,1,1.1,1.2c1.5,0.7,2.1,2,2.8,3.3c0.9,1.6,1.7,3.3,2.6,5.1
		c2-1.6,3.4-4,6.2-4.8c1.2,2.3,2.4,4.5,3.5,6.8c2.8,5.7,5.7,11.4,8.2,17.3c2.1,4.9,3.6,10.1,5.3,15.2c3.1,9.9,6.4,19.8,8.8,30
		c2.7,11.6,5.5,23.3,7.5,35.1c1.4,8.6,2.9,17.1,4.2,25.7c0.5,3.4,0.5,6.8,0.7,10.2c0.7,9,1.4,17.9,2.1,26.9c0.5,5.3,1.1,10.7,1.6,16
		c0.2,2.4,0.5,4.9,0.8,7.6c-31.5,0-62.7,0-94.1,0c-0.6,4.4-1.4,8.5-1,12.7c0.1,1,0.2,2,0.2,3c0,2.9,0.7,5.5,2.1,8.2
		c31.4,0,62.9,0,94.6,0c0.2,3.3,0.4,6.4,0.5,9.7c-31.4,0-62.5,0-93.6,0c-1,2.8,0,20.3,1.3,23.9c30.3,0,60.6,0,91.1,0
		c-0.3,3.6-0.6,7-1,10.6"/>
</g>
<path class="st2" d="M80.2,102c3.6,0,7.3,0,10.9,0c2,0,4,0.1,6,0.2c2.3,0,4.6-0.1,6.9-0.1c1.9,0,3.8,0,5.8,0c1.6,0,3.2,0,4.9-0.1
	c6.3-0.1,12.6-0.2,18.9-0.2c2.8,0,5.6,0.4,8.3,0.7c5.4,0.6,10.8,1.4,16.2,2c3.5,0.4,6.9,0.8,10.4,1.3c0.7,0.1,1.4,0.3,2,0.6
	c6.8,3.1,13.4,6.6,19.5,11c1,0.7,1.7,1.5,2.1,2.7c1.1,3.5,2.6,6.8,2.4,10.6c-0.2,3.9-1.9,6.9-4.8,9.2c-2.4,1.9-5,3.5-7.4,5.2
	c-0.7,0.5-1.5,1.1-2,1.9c-8.6,12.3-18.2,23.7-28.4,34.7c-5,5.4-10.6,10-17.4,13.2c-1.4,0.7-2.6,1.9-4,2.6c-1.2,0.6-2.6,1-3.9,1.3
	c-1.1,0.2-2.4-0.3-3.2,0.9c-0.1,0.1-0.4,0.1-0.6,0.1c-5.6-0.1-11.2-0.1-16.8-0.3c-2.7-0.1-5.5,0-8.1-0.4c-8.5-1.2-17-2.3-24.4-7.2
	c-4.8-3.1-9-6.9-12.8-11.2c-9.2-10.5-18.1-21.2-26.1-32.6c-0.8-1.1-1.8-1.9-2.9-2.6c-3.4-2.1-6.7-4.2-9.6-7c-3.7-3.6-4.1-8-3-12.7
	c0-0.2,0.1-0.3,0.2-0.4c2.2-6.6,2.2-6.7,8.3-10.1c5.2-2.9,10.5-5.5,15.7-8.3c2.4-1.3,5.1-1.2,7.7-1.5c5.3-0.7,10.6-1.5,16-2.1
	C71.3,103.1,75.7,101.7,80.2,102z"/>
</svg>
