<?xml version="1.0" encoding="utf-8"?>
<!-- Generator: Adobe Illustrator 16.0.0, SVG Export Plug-In . SVG Version: 6.00 Build 0)  -->
<!DOCTYPE svg PUBLIC "-//W3C//DTD SVG 1.1//EN" "http://www.w3.org/Graphics/SVG/1.1/DTD/svg11.dtd" [
	<!ENTITY ns_flows "http://ns.adobe.com/Flows/1.0/">
	<!ENTITY ns_extend "http://ns.adobe.com/Extensibility/1.0/">
	<!ENTITY ns_ai "http://ns.adobe.com/AdobeIllustrator/10.0/">
	<!ENTITY ns_graphs "http://ns.adobe.com/Graphs/1.0/">
	<!ENTITY ns_vars "http://ns.adobe.com/Variables/1.0/">
	<!ENTITY ns_imrep "http://ns.adobe.com/ImageReplacement/1.0/">
	<!ENTITY ns_sfw "http://ns.adobe.com/SaveForWeb/1.0/">
	<!ENTITY ns_custom "http://ns.adobe.com/GenericCustomNamespace/1.0/">
	<!ENTITY ns_adobe_xpath "http://ns.adobe.com/XPath/1.0/">
]>
<svg version="1.1" id="Layer_1" xmlns:x="&ns_extend;" xmlns:i="&ns_ai;" xmlns:graph="&ns_graphs;"
	 xmlns="http://www.w3.org/2000/svg" xmlns:xlink="http://www.w3.org/1999/xlink" xmlns:a="http://ns.adobe.com/AdobeSVGViewerExtensions/3.0/"
	 x="0px" y="0px" width="850.391px" height="850.39px" viewBox="0 0 850.391 850.39" enable-background="new 0 0 850.391 850.39"
	 xml:space="preserve">
<metadata><?xpacket begin="﻿" id="W5M0MpCehiHzreSzNTczkc9d"?>
<x:xmpmeta xmlns:x="adobe:ns:meta/" x:xmptk="Adobe XMP Core 5.3-c011 66.145661, 2012/02/06-14:56:27        ">
   <rdf:RDF xmlns:rdf="http://www.w3.org/1999/02/22-rdf-syntax-ns#">
      <rdf:Description rdf:about=""
            xmlns:xmp="http://ns.adobe.com/xap/1.0/"
            xmlns:xmpGImg="http://ns.adobe.com/xap/1.0/g/img/">
         <xmp:CreatorTool>Adobe Illustrator CS6 (Macintosh)</xmp:CreatorTool>
         <xmp:CreateDate>2019-09-16T21:44:34+08:00</xmp:CreateDate>
         <xmp:Thumbnails>
            <rdf:Alt>
               <rdf:li rdf:parseType="Resource">
                  <xmpGImg:width>196</xmpGImg:width>
                  <xmpGImg:height>256</xmpGImg:height>
                  <xmpGImg:format>JPEG</xmpGImg:format>
                  <xmpGImg:image>/9j/4AAQSkZJRgABAgEASABIAAD/7QAsUGhvdG9zaG9wIDMuMAA4QklNA+0AAAAAABAASAAAAAEA&#xA;AQBIAAAAAQAB/+4ADkFkb2JlAGTAAAAAAf/bAIQABgQEBAUEBgUFBgkGBQYJCwgGBggLDAoKCwoK&#xA;DBAMDAwMDAwQDA4PEA8ODBMTFBQTExwbGxscHx8fHx8fHx8fHwEHBwcNDA0YEBAYGhURFRofHx8f&#xA;Hx8fHx8fHx8fHx8fHx8fHx8fHx8fHx8fHx8fHx8fHx8fHx8fHx8fHx8fHx8f/8AAEQgBAADEAwER&#xA;AAIRAQMRAf/EAaIAAAAHAQEBAQEAAAAAAAAAAAQFAwIGAQAHCAkKCwEAAgIDAQEBAQEAAAAAAAAA&#xA;AQACAwQFBgcICQoLEAACAQMDAgQCBgcDBAIGAnMBAgMRBAAFIRIxQVEGE2EicYEUMpGhBxWxQiPB&#xA;UtHhMxZi8CRygvElQzRTkqKyY3PCNUQnk6OzNhdUZHTD0uIIJoMJChgZhJRFRqS0VtNVKBry4/PE&#xA;1OT0ZXWFlaW1xdXl9WZ2hpamtsbW5vY3R1dnd4eXp7fH1+f3OEhYaHiImKi4yNjo+Ck5SVlpeYmZ&#xA;qbnJ2en5KjpKWmp6ipqqusra6voRAAICAQIDBQUEBQYECAMDbQEAAhEDBCESMUEFURNhIgZxgZEy&#xA;obHwFMHR4SNCFVJicvEzJDRDghaSUyWiY7LCB3PSNeJEgxdUkwgJChgZJjZFGidkdFU38qOzwygp&#xA;0+PzhJSktMTU5PRldYWVpbXF1eX1RlZmdoaWprbG1ub2R1dnd4eXp7fH1+f3OEhYaHiImKi4yNjo&#xA;+DlJWWl5iZmpucnZ6fkqOkpaanqKmqq6ytrq+v/aAAwDAQACEQMRAD8A9U4q7FXYq7FXYq7FXYqk&#xA;HnLzx5e8oaWdQ1m49MNUW1slGmmcdVjSor1FT0Hc5KEDI7MoxJ5Pm7zH/wA5Cef9R1VrnSroaRYr&#xA;tBZxpFLQA1rI8iNzY99gPbMuOCIG7kxwgOsf+cjPzMtqetcWt7Tr69uq1/5E+licEVOGK/Vv+cjv&#xA;zIvoRHbvZ6Yd+UlpBVmB/wCYhpwPoAxGCIUYYsE1Lzb5n1LUxql9qlzNqCrwS5MrB0WteKFSOIr2&#xA;GWiIApsEQE+0f85fzL0riINcnnjHWO743II8OUwdh9ByBxRPRiccT0ZlY/8AOUPm6KLheaXY3Mgp&#xA;SRPVir/rDk4r8qZA6cMDgCNt/wDnKfWBOhuNBt2gqPUEczq/HvxJDCv0YPy470eAO97H5I/Mjyt5&#xA;ytfU0m5pdovK40+aiXEfzWvxL/lLUZjzxmPNplAx5soyDB2KuxV2KuxV2KuxV2KuxV2KuxV2KuxV&#xA;2KuxVj/njzto/k7QpNW1Ji2/C1tlP7yaUglUX7qk9hkoQMjQZRiZGnx/5186635w1uTVdVkHKnC3&#xA;t0qI4YwahEB/E9Scz4QERQcyMQAkOSZOxV2KuxV2KuxV2Kq9hf3un3cV5YzyW13A3KGeJijqw7hh&#xA;viRakPoL8s/+ciobpodJ84lYJ2okWsKOMbE7D10Gyf64+HxA65i5MHUOPPD1D3VWDAMpqp3BHQjM&#xA;Zx3Yq7FXYq7FXYq7FXYq7FXYq7FXYq7FUo81eadH8r6JPrGrSGO0hotEHJ3djRURdqsf7TtkoxJN&#xA;BMYkmg+T/wA1PzOu/PeqwTG2Fnp9iHSyt68npIQWeRunJuI6dPfrmbjx8IczHDhYRljN2KuxV2Ku&#xA;xV2KuxV2KuxV2Kvoj/nH381TdRReTtamrcRLTR7lzu6KP95yT3UfY9tuwzFz4+ocfNj6h7tmM47s&#xA;VdirsVdirsVdirsVdirsVdirsVfPf/OUfmRXn0jy5C4Pohr67QGtGYenCD4HjzP05laePMuRgj1e&#xA;C5kuQ7FXYq7FXYq7FXYq7FXYq7FXYqvgnnt5454JGinhYSRSoSrK6mqspG4IPTFX11+Tv5nQ+dND&#xA;9K7ZU1+wULfRCg9RegnRR2b9oDo3sRmDlx8J8nDyQ4T5PQcqa3Yq7FXYq7FXYq7FXYq7FVskkcUb&#xA;SSMEjQFndiAqqBUkk9AMVeH/AJl/85FW1n6ul+TitzdCqy6uwDQp2/cKdpD/AJR+H/WzJx4Opb4Y&#xA;e989X9/e6heTXt9O9zdzsXmnlYs7Me5JzKApyQFDFXYq7FXYq7FXYq7FXYq7FXYq7FXYqjNI1jVN&#xA;Hv4tQ0u6ks7yE1jniYqw9j4g9wdjgIB5qRb6F/Ln/nIzT9Q9LTfN4SxvDRU1RBS3c9P3o/3UT4/Z&#xA;/wBXMXJgrk408Pc9rilimiSWJ1kikAZJEIZWU7ggjYg5jtC7FXYq7FXYq7FXYqx/zj568t+UdPN5&#xA;rN0IywP1e1SjTzEdo0qK/M0A7nJRgZcmUYk8nzB+Y/5yeZPOUj2oY6fodfg06Jq86GoM7inM+32R&#xA;4V3zNx4hH3uVDGIsAyxsdirsVdirsVdirsVdirsVdirsVdirsVdirsVdirOvy6/N3zL5NuY4Ula9&#xA;0QsPX02U1UKT8RhJ/u2+Wx7jK8mIS97CeMSfXWlanZarptrqVlJ6tpeRJNBIO6OOQr4HxGYJFOGR&#xA;SKwIdirsVdiqF1XUE07S7zUJFLx2cElw6L1YRIXIFfGmECykC3xF5s8y3/mXzDe61es3qXcrPHEz&#xA;FxFEWJjiU0HwovwjbNjGNCnOjGhSUYUuxV2KuxV2KuxV2KuxV2KuxV2KuxV2KuxV2KuxV2KuxV9C&#xA;f840eew8Nx5OvZPjj5XOlEnqp3miHyPxj5t4Zi6iHVx80Or3rMZx3Yq7FXYqwz849VOmflpr1wpo&#xA;8tv9VWhof9JdYTT/AGMhOWYhcgzxi5B8aZnua7FXYq7FXYq7FXYq7FXYq7FXYq7FXYq7FXYq7FXY&#xA;q7FXYqjtD1m/0TWLPVrB/TvLKVZoW3oSp3VqdVYbMO4wEWKQRYp9t+VvMVj5k8v2Ot2JrBexh+PU&#xA;o4+F4z7o4KnNfKNGnBkKNJrkUOxV2KvCf+clPO+jyaTH5TtLj1NUjuop7+JQ1I41jZlVmpx5MXU0&#xA;rmTggbtyMMTdvnfMpyHYq7FXYq7FXYq7FXYq7FXYq7FXYq7FXYq7FXYq7FXYq7FXYq+hf+cWtcnk&#xA;tdb0OVy0MDRXdsh/ZMnJJf8AiCfjmLqByLj5xyL3nMZx3Yq7FXxf+bjq/wCZXmEqagXjivuoAP4j&#xA;Nhi+kObj+kMRybN2KuxV2KuxV2KuxV2KuxV2KuxV2KuxV2KuxV2KuxV2KuxV2KvV/wDnGnUBbfmH&#xA;JbE7X1jNEB/lIySj8IzlOoHpasw9L6nzCcR2KsZ/MjzVN5V8l6lrcCK91boi2yPUqZZXWNSQKVCl&#xA;uRHtk8ceI0yhGzT4w1TUrvVNSu9SvG53d7NJcXDgAAySsXYgDYbnpmwApzgKQ2KuxV2KuxV2KuxV&#xA;2KuxV2KuxV2KuxV2KuxV2KuxV2KuxV2KuxVmP5O6h9Q/Mzy/PWnO5+r70/4+UaCm/wDxkyGUXEsM&#xA;g9JfZua9wnYq8c/5ye1T0PJun6epo97eh2HjHBGxP/DOuZGnG7dgG75kzLcp2KuxV2KuxV2KuxV2&#xA;KuxV2KuxV2KuxV2KuxV2KuxV2KuxV2KuxVGaNfnTtYsdQHWzuIpxTr+6cP8AwwEWFIsPvJWDAMpq&#xA;p3BHQjNa692Kvm//AJym1JpPMOiaZ+zbWklyPncS8P8AsXzL042JcnANi8RzIb3Yq7FXYq7FXYq7&#xA;FXYq7FXYq7FXYq7FXYq7FXYq7FXYq7FXYq7FXYq+4/I2o/pLyZod9WrXFjbvIa1+P0l5ivs1c10x&#xA;RLgyFEp3kWLxX/nKC00YeWtOvZLZG1droW9vc7h1g4O8i7EchyC7HpXbMjTk234Lt815luS7FXYq&#xA;7FXYq7FXYq7FXYq7FXYq7FXYq7FXYq7FXYq7FXYq7FXYq7FX17+QmofXPyu0kE1ktTPbv1/YmYqN&#xA;/wDIZcwcw9Th5R6noOVNb51/5yn1Tnq2haUDtBby3Tr4+s4jUn5eicy9ONiXJwDYl4XmQ3uxV2Ku&#xA;xV2KuxV2KuxV2KuxV2KuxV2KuxV2KuxV2KuxV2KuxV2KuxV9L/8AOLuoer5S1WwJqbW+9UeyzxKA&#xA;PviOYmoG7jZxu9nzHaHyJ+fmqfX/AMztTVTWOyWG1Q/6kYZv+HdszsIqLmYh6XnmWtjsVdirsVdi&#xA;rsVdirsVdirsVdirsVdirsVdirsVdirsVdirsVdirsVe4f8AOLGoenr2uadX/em1iuKf8w8hT/sY&#xA;zH1A2DRnGwfR2YjjPhPzNqv6W8x6pqlSRfXc9wtfCSQsB9AObKIoU58RQS3Cl2KuxV2KuxV2KuxV&#xA;2KuxV2KuxV2KuxV2KuxV2KuxV2KuxV2KuxV2KvSf+cetR+qfmfYxE0W+huLZjt/vsyj/AIaIZVnH&#xA;pa8w9L61zBcN88edv+ca9RfWvU8oPCmlyRhnivJm5JMWbkqUjb4OPGnIk9cyoZ9t3Jjm23Y//wBC&#xA;0/mL/vzT/wDke/8A1Tyf5iLLxou/6Fp/MX/fmn/8j3/6p4/mIr40Xf8AQtP5i/780/8A5Hv/ANU8&#xA;fzEV8aKVeaPyN86eWtButb1KSy+pWYQyiKV2f95Isa0BRf2nHfDHMCaTHKCaee5a2OxV2KuxV2Ku&#xA;xV2KuxV2KuxV2KuxV2KuxV6rF/zjb+YcsSSLJp/F1DLWd+hFf995T48Wrxorv+hafzF/35p//I9/&#xA;+qeP5iK+NF3/AELT+Yv+/NP/AOR7/wDVPH8xFfGi7/oWn8xf9+af/wAj3/6p4/mIr40Xo/5O/klL&#xA;5X1CTWPMKRTatAxGnNBKzxojoVdipVPj3IGU5c17BqyZb2D2DKGl5j+aP51P5E1y20w6L+kUubVb&#xA;kXH1n0KEyOhTj6UvTgDWvfK55OEufpdF4sbut+5hv/Q13/frf9P/AP2bZDx/Jyf5J/pfZ+13/Q13&#xA;/frf9P8A/wBm2Pj+S/yT/S+z9rv+hrv+/W/6f/8As2x8fyX+Sf6X2ftY/wCff+cg/wDFvlO+8v8A&#xA;6A+pfXfS/wBJ+t+rx9KZJvsehHWvp0+1l+myXMBhPs/wxxcV/D9ryHNm1OxV2KuxV2KuxV2KuxV2&#xA;KuxV2KuxV2KuxV71bf8AOVJht4oT5Y5GNFTl9epXiKVp9XOaaWaidm8dl2L4vs/aqf8AQ13/AH63&#xA;/T//ANm2Dx/JP8k/0vs/a7/oa7/v1v8Ap/8A+zbHx/Jf5J/pfZ+13/Q13/frf9P/AP2bY+P5L/JP&#xA;9L7P2pjon/OUWkXl7Dbajoc1ks0qR+tFOtwFDmnJgUhO1e2EZmE+y5AWJW9vy51T5Q/5yC832HmD&#xA;zj9Ttbd4zofq2M07kfvJFk+Lio6KrAgb75eNLGQsux0uWWOO3V5fQYfyUPNyvzk/J1Bj+Sh5r+cn&#xA;5OoMfyUPNfzk/J1MsxaeMDYa8molMUW8vaHYq7FXYq7FXYq7FXYq7FXYq7FXYq7FXYq1QZjS0kJG&#xA;3Jjq5gU6gyP5KHmy/OT8nUGP5KHmv5yfk6gx/JQ81/OT8mQ+XfJnnfUY4dX0HS7m6jhnCxXMCBws&#xA;0ZDCvX7Ox32zCz4eCVRb8eqgY1MgF9hf87T/AII/Y/xV+jf8nh9f9D/gaet9GT3rzdF6PE/oX9j5&#xA;K/NqD0fzJ8xJvveO/wAXX95R/wDjbbNli+kORj+kMSybN2KuxV2KuxV2KuxV2KuxV2KuxV2KuxV2&#xA;KuxV2KuxV2KuxV2KuxV2KvrX/nHm1EP5XWEgWn1ma5lJ23pM0ddv+MdMws59TiZvqek5S1Pj/wDP&#xA;i39D81dbFCFkNvIpPflbRE/8NXM/D9IczF9IYDljY7FXYq7FXYq7FXYq7FXYq7FXYq7FXYq7FXYq&#xA;7FXYq7FXYq7FXYq7FX2T+TEMMH5Y6DFEytSAu/Eg0aWRpSDTv8e+YGX6i4WT6izXK2D5Q/5yMt/S&#xA;/Myd+NPXtbeSvjRSlf8AhMzcH0uXh+l5hlza7FXYq7FXYq7FXYq7FXYq7FXYq7FXYq7FXYq7FXYq&#xA;7FXYq7FXYq7FXuX/ADixPMNZ12AOfRa2hdo6/CWVyA1PGjHMfUcg0Z+QfRmYjjPmH/nJ+Dh57sJg&#xA;ABLpkYJ7llnmB/AjMzT/AEuVg5PH8vbnYq7FXYq7FXYq7FXYq7FXYq7FXYq7FXYq7FXYq7FXYq7F&#xA;XYq7FXYq9v8A+cWf+O/rn/MJF/yczH1HINGfkH0fmI4z5y/5yntwut6DcbVktpo69/3cgO//ACMz&#xA;L0/IuTg5F4dmQ3uxV2KuxV2KuxV2KuxV2KuxV2KuxV2KuxV2KuxV2KuxV2KuxV2KuxV7f/ziz/x3&#xA;9c/5hIv+TmY+o5Boz8g+j8xHGeG/85T6Y8mjaDqg+xa3E1s3zuEVx/1DnMnTnchvwHcvnPMpyXYq&#xA;7FXYq7FXYq7FXYq7FXYq7FXYq7FXYq7FXYq7FXYq7FXYq7FXYq95/wCcWdGmN3retMCIFjjsoz2Z&#xA;2b1X/wCBCr9+Y2oPINGc8g+hcxXGYF+eej/pP8stXAXlLZiO8i9vRcFz/wAi+WW4TUg2YjUnx9mc&#xA;5jsVdirsVdirsVdirsVdirsVdirsVdirsVdirsVdirsVdirsVdirsVfZH5M+W/0B+XelW7rxubtP&#xA;r11487j4lB91j4qflmBllcnCySuTNsrYIXVdPh1HS7zT5v7m8gkt5P8AVlQofwOEGikGnwfdW0tr&#xA;czW0w4zQO0ci+DIeJH3jNk56nirsVdirsVdirsVdirsVdirsVdirsVdirsVdirsVdirsVdirsVZD&#xA;+Xvlw+Y/Omk6OV5Q3E6m5H/FEf7yX/hFORnKhbGZoW+3QAAABQDYAZrnBdirsVfGn5xaP+ifzK12&#xA;3VaRzXH1qPagIuVExp7BnIzPxG4hzcZuIYZljN2KuxV2KuxV2KuxV2KuxV2KuxV2KuxV2KuxV2Ku&#xA;xV2KuxV2Kvdv+cXfLRkv9W8ySp8Fui2Nqx6F5KSS091VU/4LMbUS6NGeXR9EZiuM7FXYq+d/+cov&#xA;LZjv9J8xxL8FwjWNy3YPGTJF9LKz/wDA5laeXRycEujwnMlvdirsVdirsVdirsVdirsVdirsVdir&#xA;sVdirsVdirsVdirsVdir7N/KLy3/AIe/L7SbJ143M0X1u6B6+rcfvCD7opCfRmBllcnCySssxytg&#xA;7FXYqwz84fLf+IPy91a1ROdzbR/XLWgqfUt/jovuyck+nLMUqkzxyqT40zPc12KuxV2KuxV2KuxV&#xA;2KuxV2KuxV2KuxV2KuxV2KuxV2KuxVkv5b+WT5l87aTpLLyglmEl0KbehCPUlB+aqV+ZyOSVC2M5&#xA;ULfbIFNh0zXOC7FXYq7FXEAggioOxBxV8s+ZP+cefPcfmG+TRbKO40gyu9lN68SUiZqojK7K/JQa&#xA;HamZsc8a3cuOYVu1bf8AONP5izf3kmn2/X+8nc/8m43x/MRXxopta/8AOLPmRiPrWtWcQ7+kksv/&#xA;ABIR5E6gdzHxwm1r/wA4qQChuvMjP0qsVoFp4jk0rfqyJ1Pkjx/JNLb/AJxc8nr/AL06rqEvWvpm&#xA;CP5fajkwfmCjxyjj/wA4z/l2UK+vqINKcxPHX5/3VPwwfmJI8aSHf/nF7yIUIj1HVFfsWlt2H3CB&#xA;f14/mJL45UH/AOcW/KZU8NXvw3Yn0SK/LgMP5g9yfHKh/wBCsaB/1fLv/kVHj+YPcvjnuUG/5xW0&#xA;7kePmKYLX4QbZSQPc+oMP5nyT4/khv8AoVLw80f9OH/Zxh/M+S+P5K9v/wA4q2KkfWfMcsgqa+na&#xA;rHt2+1LJg/M+S+P5Jpbf84veSkA+s6nqMzCn2GgjB8djE53+eD8wWPjlNLb/AJxx/LSIj1Iru4pX&#xA;aS4Ir/yLCZHx5I8aSaW35F/lXb046GsjClWlnuHrT2aQr+GDxpd6PFl3ou4/J78s7i2Nu/l+1VP5&#xA;ow0b7/8AFiMr/jg8WXejxJd7DNa/5xh8o3XJ9K1G705z0R+NzEPkp9N/+Hywag9WYzlgGt/840ee&#xA;7Lk+mzWmqxj7KI/oSn5rLSMf8jMsGoj1bBmDz/W/I/nDQ+R1bR7u0jXrM8TGL6JVBjP35aJg8i2i&#xA;QPJ7F/zi/wCVpRJqfme4iKoUFlYOw2arc52Unw4otR7jKNRLo0Z5dH0DmK47sVdir//Z</xmpGImg:image>
               </rdf:li>
            </rdf:Alt>
         </xmp:Thumbnails>
      </rdf:Description>
      <rdf:Description rdf:about=""
            xmlns:xmpTPg="http://ns.adobe.com/xap/1.0/t/pg/"
            xmlns:stDim="http://ns.adobe.com/xap/1.0/sType/Dimensions#"
            xmlns:xmpG="http://ns.adobe.com/xap/1.0/g/">
         <xmpTPg:MaxPageSize rdf:parseType="Resource">
            <stDim:w>299.998915</stDim:w>
            <stDim:h>299.998743</stDim:h>
            <stDim:unit>Millimeters</stDim:unit>
         </xmpTPg:MaxPageSize>
         <xmpTPg:NPages>1</xmpTPg:NPages>
         <xmpTPg:HasVisibleTransparency>False</xmpTPg:HasVisibleTransparency>
         <xmpTPg:HasVisibleOverprint>False</xmpTPg:HasVisibleOverprint>
         <xmpTPg:PlateNames>
            <rdf:Seq>
               <rdf:li>Cyan</rdf:li>
               <rdf:li>Magenta</rdf:li>
               <rdf:li>Yellow</rdf:li>
               <rdf:li>Black</rdf:li>
            </rdf:Seq>
         </xmpTPg:PlateNames>
         <xmpTPg:SwatchGroups>
            <rdf:Seq>
               <rdf:li rdf:parseType="Resource">
                  <xmpG:groupName>Default Swatch Group</xmpG:groupName>
                  <xmpG:groupType>0</xmpG:groupType>
               </rdf:li>
            </rdf:Seq>
         </xmpTPg:SwatchGroups>
      </rdf:Description>
      <rdf:Description rdf:about=""
            xmlns:dc="http://purl.org/dc/elements/1.1/">
         <dc:format>image/svg+xml</dc:format>
      </rdf:Description>
   </rdf:RDF>
</x:xmpmeta>
                                                                                                    
                                                                                                    
                                                                                                    
                                                                                                    
                                                                                                    
                                                                                                    
                                                                                                    
                                                                                                    
                                                                                                    
                                                                                                    
                                                                                                    
                                                                                                    
                                                                                                    
                                                                                                    
                                                                                                    
                                                                                                    
                                                                                                    
                                                                                                    
                                                                                                    
                                                                                                    
                           
<?xpacket end="w"?>
	</metadata>
<path fill="#FFFFFF" d="M648.802,538.732c-148.608,0-296.898,0-445.169,0c-0.119-0.139-0.301-0.25-0.304-0.365
	c-0.132-5.201-0.245-10.402-0.364-15.73c0.521-0.242,1.052-0.486,1.1-0.512c0.742-1.902,1.099-3.535,1.955-4.84
	c1.291-1.961,3.383-2.531,5.716-2.521c10.125,0.045,20.252,0.055,30.378,0.014c13.235-0.057,26.471-0.182,39.704-0.25
	c5.558-0.031,7.645,1.857,8.169,7.293c0.046,0.061,0.081,0.129,0.137,0.178c0.057,0.051,0.126,0.115,0.194,0.123
	c0.537,0.057,1.076,0.145,1.614,0.145c89.5-0.006,179-0.018,268.5-0.039c0.216,0,0.433-0.139,0.696-0.229
	c0.083-0.932,0.062-1.879,0.267-2.773c0.63-2.748,2.979-4.785,5.844-4.865c3.03-0.088,6.067,0.061,9.104,0.109
	c0.389,0.006,0.774,0.047,1.165,0.051c8.249,0.092,16.499,0.176,24.748,0.268c5.604,0.062,11.207,0.109,16.811,0.211
	c7.231,0.129,14.463,0.316,21.695,0.455c3.571,0.066,5.78,1.721,6.802,5.197c0.208,0.713,0.12,1.541,1.137,1.814
	c0.229,0.062,0.392,0.785,0.387,1.201c-0.017,1.238-0.138,2.473-0.2,3.711c-0.04,0.775-0.074,1.551-0.076,2.328
	C648.797,532.632,648.802,535.566,648.802,538.732z"/>
<path fill="#7A2426" d="M567.092,549.544c-92.881,0-185.636,0-278.523,0c-0.189,0.562-0.386,1.129-0.578,1.697
	c-1.032,3.061-3.201,4.764-6.45,4.721c-7.695-0.102-15.407,0.479-23.08-0.664c-1.91-0.285-3.879-0.234-5.821-0.238
	c-13.086-0.018-26.173-0.033-39.259,0.01c-3.458,0.01-5.607-1.389-7.435-4.49c-1.675-2.846-1.581-5.779-2.062-8.705
	c-0.387-2.357-0.46-4.768-0.641-7.156c-0.04-0.527,0.052-1.066,0.092-1.748c148.422,0,296.775,0,445.258,0
	c0.13,0.514,0.271,1.076,0.457,1.807c3.479-1.373,6.624-1.021,8.757,2.148c2.006,2.982,1.305,5.902-1.282,8.578
	c0.742,0.312,1.294,0.527,1.833,0.771c2.482,1.121,4.205,4.127,3.812,6.635c-0.475,3.006-3.022,5.533-6.006,5.564
	c-2.23,0.023-4.472-0.352-6.702-0.596c-2.006-0.219-3.996-0.682-6.001-0.725c-13.146-0.281-26.291-0.539-39.438-0.684
	c-9.657-0.104-19.317-0.018-28.977-0.02C570.103,556.451,567.997,554.677,567.092,549.544z"/>
<path fill="#552E5F" d="M317.911,228.072"/>
<path fill="#552E5F" d="M318.362,221.694c6.48-5.929-0.122-1.954,5-9c5.812-7.992,12.75-11.514,18.333-19.667
	c0.806-1.173,16.521-12.135,17.667-13c2.854-2.156,36.354,4.732,39,2.333c3.375-3.054,18.102-2.265,19-7.333
	c0.725,0.889,40.986,8.575,41.333,9c1.265-0.871,19.691,0.247,21-0.333c2.438-1.083,41.67,25.596,43.458,27.567
	c2.084,2.298,3.989,4.763,5.902,7.21c8.81,11.266,17.587,22.557,26.41,33.812c0.604,0.772,1.422,1.433,2.254,1.967
	c13.159,8.441,26.332,16.862,39.518,25.262c1.88,1.197,3.333,2.674,4.413,4.669c8.262,15.243,16.593,30.448,24.897,45.667
	c0.817,1.501,1.727,2.972,2.374,4.546c0.672,1.636,1.291,3.348,1.563,5.085c1.724,10.877,3.349,21.77,4.99,32.659
	c1.284,8.514,2.535,17.033,3.826,25.547c1.371,9.047,2.792,18.088,4.153,27.137c1.642,10.894,3.224,21.798,4.866,32.691
	c1.771,11.734,3.586,23.463,5.379,35.193c0.492,3.223,1.028,6.438,1.443,9.672c0.476,3.705-1.726,6.807-4.815,7.549
	c-0.446,0.107-0.88,0.283-1.413,0.461c0,1.873,0,3.707,0,5.797c-28.559,0-57.021,0-85.62,0c-0.086,0.834-0.223,1.438-0.195,2.025
	c0.328,7.619,0.64,15.24,1.048,22.857c0.126,2.348,0.866,4.561,2.03,6.641c0.673,1.203,1.468,1.959,2.941,1.744
	c0.533-0.078,1.09-0.012,1.635-0.012c24.459,0,48.917,0,73.376,0c0.996,0,1.991,0,2.982,0c-0.086,3.771-0.024,7.311-0.287,10.824
	c-0.268,3.604-0.867,7.184-1.276,10.777c-0.114,1.002-0.022,2.025-0.099,3.033c-0.271,3.697-0.525,7.396-0.884,11.09
	c-0.377,3.914-0.878,7.812-1.288,11.727c-0.086,0.828-0.012,1.674-0.012,2.539c1.097,0.195,2.099,0.275,3.039,0.559
	c2.785,0.84,4.512,3.115,4.661,6.006c0.013,0.232,0.003,0.467,0.004,0.701c0.053,11.213,0.08,22.428,0.165,33.641
	c0.061,7.936,0.226,15.869,0.272,23.805c0.009,1.217-0.183,2.488-0.569,3.641c-7.435,22.02-14.907,44.023-22.375,66.031
	c-4.021,11.848-8.037,23.689-12.062,35.529c-2.177,6.406-4.357,12.811-6.554,19.207c-1.502,4.381-4.593,6.098-9.104,4.982
	c-13.964-3.451-27.918-6.939-41.877-10.406c-7.471-1.855-14.938-3.721-22.422-5.525c-1.115-0.27-2.315-0.4-3.457-0.311
	c-9.211,0.715-18.414,1.521-27.624,2.254c-8.514,0.676-17.034,1.264-25.549,1.93c-7.121,0.559-14.231,1.221-21.354,1.742
	c-4.956,0.365-9.928,0.844-14.887,0.789c-8.935-0.098-17.863-0.564-26.797-0.861c-3.497-0.115-6.995-0.189-10.492-0.277
	c-9.095-0.229-18.189-0.439-27.285-0.68c-4.896-0.129-9.789-0.297-14.685-0.461c-9.011-0.301-18.02-0.658-27.032-0.885
	c-2.396-0.061-4.806,0.246-7.205,0.441c-10.215,0.832-20.43,1.66-30.641,2.531c-12.299,1.053-24.594,2.146-36.892,3.209
	c-5.725,0.494-11.448,0.984-17.176,1.432c-4.646,0.357-6.939-1.199-8.417-5.596c-4.804-14.293-9.724-28.551-14.344-42.898
	c-1.588-4.936-2.479-10.1-3.604-15.176c-4.312-19.402-8.665-38.799-12.813-58.236c-0.802-3.76-0.785-7.701-1.087-11.562
	c-0.438-5.645-0.844-11.291-1.229-16.939c-0.248-3.641-0.406-7.287-0.654-10.928c-0.386-5.646-0.837-11.289-1.217-16.938
	c-0.255-3.797-0.399-7.6-0.657-11.396c-0.373-5.492-0.826-10.979-1.203-16.469c-0.255-3.719-0.417-7.443-0.663-11.162
	c-0.22-3.324-0.511-6.646-0.75-9.969c-0.193-2.717-0.041-5.383,2.375-7.176c1.092-0.809,2.435-1.277,3.947-2.047
	c-0.068-0.51-0.174-1.311-0.321-2.41c0.985-0.037,1.951-0.104,2.917-0.105c23.604-0.006,47.203-0.004,70.807-0.004
	c0.467,0,0.953-0.084,1.397,0.014c3.286,0.715,4.958-1.141,5.926-3.852c0.647-1.816,1.293-3.723,1.413-5.621
	c0.479-7.531,0.75-15.076,1.091-22.617c0.01-0.223-0.076-0.449-0.165-0.938c-4.67-0.387-9.388-0.105-14.092-0.158
	c-4.673-0.055-9.347-0.014-14.021-0.014c-4.751,0-9.503,0-14.254,0c-4.674,0-9.348,0-14.021,0c-4.751,0-9.503,0-14.254,0
	c-4.66,0-9.318,0-14.248,0c0-1.896,0-3.566,0-4.779c-1.945-0.775-3.674-1.141-5.014-2.064c-2.561-1.768-2.821-4.512-2.292-7.346
	c0.798-4.271,1.682-8.525,2.497-12.793c2.59-13.572,5.159-27.148,7.75-40.723c0.975-5.105,1.99-10.205,2.974-15.311
	c0.102-0.521,0.104-1.057,0.154-1.6c-0.583-0.252-1.092-0.43-1.56-0.684c-2.861-1.557-4.658-3.701-4.563-7.228
	c0.059-2.207,0.5-4.261,1.036-6.382c0.853-3.378,1.314-6.855,1.936-10.292c1.586-8.783,3.115-17.577,4.777-26.345
	c0.646-3.402,2.122-5.605,6.409-6.454c0.477-3.275,1.151-6.622,1.407-10c0.311-4.103,0.489-8.242,0.312-12.347
	c-0.18-4.1,1.62-7.585,7.174-8.093c0.423-2.06,0.882-4.167,1.285-6.285c1.508-7.93,2.991-15.864,4.504-23.792
	c0.159-0.834,0.4-1.661,0.691-2.458c0.46-1.26,0.585-2.399,0.156-3.796c-0.921-2.997,0.621-5.659,4.161-7.673
	c-0.503-3.794,1.847-6.042,4.735-8.029c12.245-8.416,24.469-16.863,36.698-25.304c6.209-4.286,12.369-8.646,18.646-12.828
	c1.629-1.085,2.46-2.414,2.998-4.197c1.748-5.798,3.562-11.577,5.436-17.336c0.373-1.15,0.944-2.333,1.729-3.233"/>
<g>
	<path fill="#552E5F" d="M394.244,190.903c3.631,0,7.264-0.02,10.895,0.008c1.998,0.015,3.995,0.146,5.992,0.157
		c2.31,0.012,4.619-0.064,6.93-0.078c1.919-0.011,3.837,0.024,5.756,0.018c1.623-0.005,3.244-0.042,4.866-0.061
		c6.286-0.073,12.572-0.23,18.855-0.177c2.781,0.023,5.565,0.417,8.335,0.746c5.404,0.641,10.8,1.357,16.197,2.038
		c3.473,0.438,6.949,0.849,10.418,1.319c0.682,0.092,1.363,0.332,1.992,0.62c6.803,3.118,13.425,6.555,19.477,11.011
		c0.972,0.716,1.724,1.488,2.107,2.673c1.126,3.461,2.613,6.773,2.413,10.604c-0.204,3.906-1.939,6.868-4.815,9.193
		c-2.352,1.901-4.969,3.473-7.433,5.24c-0.74,0.531-1.504,1.129-2.016,1.864c-8.564,12.29-18.159,23.742-28.393,34.653
		c-5.021,5.356-10.637,10.028-17.405,13.152c-1.434,0.661-2.586,1.908-3.992,2.645c-1.202,0.629-2.562,1.023-3.896,1.319
		c-1.089,0.241-2.357-0.287-3.217,0.875c-0.097,0.131-0.42,0.132-0.638,0.129c-5.596-0.082-11.191-0.15-16.786-0.271
		c-2.716-0.059-5.463,0.013-8.14-0.375c-8.458-1.225-16.969-2.328-24.378-7.197c-4.789-3.146-9.033-6.923-12.772-11.209
		c-9.161-10.501-18.136-21.161-26.118-32.609c-0.781-1.12-1.752-1.899-2.907-2.605c-3.379-2.068-6.688-4.221-9.561-7.02
		c-3.744-3.647-4.078-7.984-3.022-12.71c0.034-0.151,0.102-0.294,0.151-0.442c2.242-6.596,2.198-6.675,8.318-10.067
		c5.173-2.866,10.472-5.501,15.694-8.276c2.435-1.293,5.13-1.168,7.73-1.531c5.311-0.743,10.625-1.483,15.955-2.055
		C385.302,192.003,389.683,190.634,394.244,190.903z"/>
</g>
</svg>
